<?xml version="1.0" encoding="UTF-8" standalone="no"?>
<svg
   xmlns:dc="http://purl.org/dc/elements/1.1/"
   xmlns:cc="http://creativecommons.org/ns#"
   xmlns:rdf="http://www.w3.org/1999/02/22-rdf-syntax-ns#"
   xmlns:svg="http://www.w3.org/2000/svg"
   xmlns="http://www.w3.org/2000/svg"
   xmlns:sodipodi="http://sodipodi.sourceforge.net/DTD/sodipodi-0.dtd"
   xmlns:inkscape="http://www.inkscape.org/namespaces/inkscape"
   inkscape:version="1.0 (4035a4fb49, 2020-05-01)"
   sodipodi:docname="DNS-usecase.svg"
   xml:space="preserve"
   enable-background="new 0 0 521.2 197.1"
   viewBox="0 0 521.2 197.1"
   y="0px"
   x="0px"
   id="Layer_1"
   version="1.1"><metadata
   id="metadata118"><rdf:RDF><cc:Work
       rdf:about=""><dc:format>image/svg+xml</dc:format><dc:type
         rdf:resource="http://purl.org/dc/dcmitype/StillImage" /><dc:title></dc:title></cc:Work></rdf:RDF></metadata><defs
   id="defs116" /><sodipodi:namedview
   inkscape:current-layer="Layer_1"
   inkscape:window-maximized="1"
   inkscape:window-y="-9"
   inkscape:window-x="-9"
   inkscape:cy="98.55"
   inkscape:cx="260.6"
   inkscape:zoom="2.1047583"
   showgrid="false"
   id="namedview114"
   inkscape:window-height="1013"
   inkscape:window-width="1920"
   inkscape:pageshadow="2"
   inkscape:pageopacity="0"
   guidetolerance="10"
   gridtolerance="10"
   objecttolerance="10"
   borderopacity="1"
   bordercolor="#666666"
   pagecolor="#ffffff"
   inkscape:document-rotation="0" />
<rect
   id="rect10"
   height="197.1"
   width="521.2"
   fill="#FFFFFF" />
<rect
   id="rect12"
   height="72.3"
   width="116.6"
   fill="#ECECEB"
   y="5"
   x="396.2" />
<rect
   id="rect14"
   height="73.8"
   width="116.6"
   fill="#ECECEB"
   y="115"
   x="396.2" />
<g
   id="g24">
	<g
   id="Devices__x2B__Hardware_Expanded_AQ">
		<g
   id="g20">
			<path
   id="path16"
   d="M36.6,87c0-0.7,0.6-1.3,1.3-1.3h72.2c0.7,0,1.3,0.6,1.3,1.3v37.4h2.5V87c0-2.1-1.7-3.8-3.8-3.8H37.9     c-2.1,0-3.8,1.7-3.8,3.8v37.4h2.5V87z"
   fill="#1E4488" />
			<path
   id="path18"
   d="M119.3,126.9H86.4l-2,1.7c-0.6,0.7-1.5,0.8-2.4,0.8c-0.3,0-0.6,0-0.9,0H67.6c-0.4,0-0.8,0-1.2,0     c-0.8,0-1.5-0.1-2.1-0.7l-2.4-1.8H28.7c-1.2,0-2.1,1-2.1,2.3v5.4c0,1.3,0.9,2.3,2.1,2.3h90.6c1.2,0,2.1-1,2.1-2.3v-5.4     C121.4,127.9,120.4,126.9,119.3,126.9z M118.9,134.4H29.1v-5h32.1l1.6,1.2c1.4,1.3,3.1,1.3,3.7,1.3c0.2,0,0.4,0,0.6,0     s0.3,0,0.5,0H81c0.1,0,0.3,0,0.4,0c0.2,0,0.3,0,0.5,0c0.8,0,2.7,0,4.1-1.5l1.2-1h31.6v5H118.9z"
   fill="#1E4488" />
		</g>
	</g>
	<text
   style="font-style:normal;font-variant:normal;font-weight:normal;font-stretch:normal;font-family:Metropolis;-inkscape-font-specification:Metropolis"
   font-size="12px"
   font-family="'Metropolis-Regular'"
   transform="translate(8.337,71.4363)"
   id="text186">vmbeans.com/index.html</text>
</g>
<g
   id="g42">
	<g
   id="g38">
		<path
   id="path26"
   d="M502,32.4l-0.1,20H412l0.1-20H502 M504.5,29.9h-94.9l-0.1,25h94.9L504.5,29.9L504.5,29.9z"
   fill="#3E4044" />
		<g
   id="g36">
			<rect
   id="rect28"
   height="10"
   width="2.5"
   fill="#3E4044"
   y="37.4"
   x="493.8" />
			<rect
   id="rect30"
   height="10"
   width="2.5"
   fill="#3E4044"
   y="37.4"
   x="488.8" />
			<rect
   id="rect32"
   height="10"
   width="2.5"
   fill="#3E4044"
   y="37.4"
   x="483.8" />
			<rect
   id="rect34"
   height="10"
   width="2.5"
   fill="#3E4044"
   y="37.4"
   x="478.8" />
		</g>
	</g>
	<circle
   id="circle40"
   r="2.5"
   cy="42.4"
   cx="421.9"
   fill="#3E4044" />
</g>
<g
   id="g60">
	<g
   id="g56">
		<path
   id="path44"
   d="M502,140.9l-0.1,20H412l0.1-20H502 M504.5,138.4h-94.9l-0.1,25h94.9L504.5,138.4L504.5,138.4z"
   fill="#218FCF" />
		<g
   id="g54">
			<rect
   id="rect46"
   height="10"
   width="2.5"
   fill="#218FCF"
   y="145.9"
   x="493.8" />
			<rect
   id="rect48"
   height="10"
   width="2.5"
   fill="#218FCF"
   y="145.9"
   x="488.8" />
			<rect
   id="rect50"
   height="10"
   width="2.5"
   fill="#218FCF"
   y="145.9"
   x="483.8" />
			<rect
   id="rect52"
   height="10"
   width="2.5"
   fill="#218FCF"
   y="145.9"
   x="478.8" />
		</g>
	</g>
	<circle
   id="circle58"
   r="2.5"
   cy="150.9"
   cx="421.9"
   fill="#218FCF" />
</g>
<text
   style="-inkscape-font-specification:Metropolis;font-family:Metropolis;font-weight:normal;font-style:normal;font-stretch:normal;font-variant:normal;"
   font-size="12px"
   font-family="'Metropolis-Regular'"
   transform="matrix(1 0 0 1 423.6316 21.2293)"
   id="text186_1_">DNS Server</text>
<text
   style="-inkscape-font-specification:Metropolis;font-family:Metropolis;font-weight:normal;font-style:normal;font-stretch:normal;font-variant:normal;"
   font-size="12px"
   font-family="'Metropolis-Regular'"
   transform="matrix(1 0 0 1 423.0075 128.8895)"
   id="text186_6_">Web Server</text>
<text
   style="font-style:normal;font-variant:normal;font-weight:normal;font-stretch:normal;font-family:Metropolis;-inkscape-font-specification:Metropolis"
   font-size="12px"
   font-family="'Metropolis-Regular'"
   transform="translate(423.9383,179.9884)"
   id="text186_7_">vmbeans.com</text>
<text
   y="16.2843"
   x="153.638"
   style="font-style:normal;font-variant:normal;font-weight:normal;font-stretch:normal;font-family:Metropolis;-inkscape-font-specification:Metropolis"
   font-size="12px"
   font-family="'Metropolis-Regular'"
   id="text186_2_">What is the IP address of vmbeans.com?</text>
<text
   style="font-style:normal;font-variant:normal;font-weight:normal;font-stretch:normal;font-family:Metropolis;-inkscape-font-specification:Metropolis"
   font-size="12px"
   font-family="'Metropolis-Regular'"
   transform="translate(195.0218,77.2733)"
   id="text186_3_">The IP address is 172.20.10.10.</text>
<text
   style="font-style:normal;font-variant:normal;font-weight:normal;font-stretch:normal;font-family:Metropolis;-inkscape-font-specification:Metropolis"
   font-size="12px"
   font-family="'Metropolis-Regular'"
   transform="translate(164.2181,188.7794)"
   id="text186_4_">Response: 172.20.10.10/index.html</text>
<text
   style="font-style:normal;font-variant:normal;font-weight:normal;font-stretch:normal;font-family:Metropolis;-inkscape-font-specification:Metropolis"
   font-size="12px"
   font-family="'Metropolis-Regular'"
   transform="translate(168.7181,122.8453)"
   id="text186_5_">Request: 172.20.10.10/index.html</text>
<g
   id="g89">
	<g
   id="g77">
		<g
   id="g75">
			<line
   id="line69"
   y2="24"
   x2="373.7"
   y1="24"
   x1="157.8"
   stroke-miterlimit="10"
   stroke-width="2"
   stroke="#218FCF"
   fill="none" />
			<g
   id="g73">
				<polygon
   id="polygon71"
   points="372.2,29 380.9,24 372.2,19     "
   fill="#218FCF" />
			</g>
		</g>
	</g>
	<g
   id="g87">
		<g
   id="g85">
			<line
   id="line79"
   y2="60.8"
   x2="380.9"
   y1="60.8"
   x1="165"
   stroke-miterlimit="10"
   stroke-width="2"
   stroke="#218FCF"
   fill="none" />
			<g
   id="g83">
				<polygon
   id="polygon81"
   points="166.4,65.8 157.8,60.8 166.4,55.8     "
   fill="#218FCF" />
			</g>
		</g>
	</g>
</g>
<g
   id="g111">
	<g
   id="g99">
		<g
   id="g97">
			<line
   id="line91"
   y2="132.5"
   x2="373.7"
   y1="132.5"
   x1="157.8"
   stroke-miterlimit="10"
   stroke-width="2"
   stroke="#19BFD3"
   fill="none" />
			<g
   id="g95">
				<polygon
   id="polygon93"
   points="372.2,137.5 380.9,132.5 372.2,127.5     "
   fill="#19BFD3" />
			</g>
		</g>
	</g>
	<g
   id="g109">
		<g
   id="g107">
			<line
   id="line101"
   y2="169.3"
   x2="380.9"
   y1="169.3"
   x1="165"
   stroke-miterlimit="10"
   stroke-width="2"
   stroke="#19BFD3"
   fill="none" />
			<g
   id="g105">
				<polygon
   id="polygon103"
   points="166.4,174.3 157.8,169.3 166.4,164.3     "
   fill="#19BFD3" />
			</g>
		</g>
	</g>
</g>
</svg>
