<?xml version="1.0" encoding="utf-8"?>
<!-- Generator: Adobe Illustrator 23.0.4, SVG Export Plug-In . SVG Version: 6.00 Build 0)  -->
<svg version="1.1" id="Layer_1" xmlns="http://www.w3.org/2000/svg" xmlns:xlink="http://www.w3.org/1999/xlink" x="0px" y="0px"
	 viewBox="0 0 670.5 419" enable-background="new 0 0 670.5 419" xml:space="preserve">
<rect x="11" y="136.2" fill="#F2F2F2" stroke="#000000" stroke-miterlimit="10" width="648.6" height="275.8"/>
<rect x="30.8" y="166.1" fill="#FFFFFF" stroke="#000000" stroke-miterlimit="10" width="608.9" height="218.1"/>
<polygon opacity="0.15" fill="#820024" stroke="#820024" stroke-miterlimit="10" stroke-dasharray="4" enable-background="new    " points="
	247.4,176 316.2,176 316.2,246.9 420.8,246.9 420.8,375.3 352,375.3 352,305.6 247.4,305.6 "/>
<text transform="matrix(1 0 0 1 52.5101 207.4381)" font-family="'Metropolis-Regular'" font-size="14px">Web Tier</text>
<text transform="matrix(1 0 0 1 54.428 279.6398)" font-family="'Metropolis-Regular'" font-size="14px">App Tier</text>
<text transform="matrix(1 0 0 1 58.201 351.8419)" font-family="'Metropolis-Regular'" font-size="14px">DB Tier</text>
<g>
	<polygon fill="#78BE20" points="297.2,224 262,224 262,182.9 303.1,182.9 303.1,223.6 302,223.6 302,184 263.1,184 263.1,222.9 
		297.2,222.9 	"/>
	<g>
		<path fill="#78BE20" d="M274.4,201h0.9l1.9,4.6l1.8-4.6h0.9l-2.3,5.6h-0.8L274.4,201z"/>
		<path fill="#78BE20" d="M289.6,203.1v3.6h-0.8v-3.4c0-0.9-0.5-1.5-1.3-1.5c-0.9,0-1.5,0.6-1.5,1.4v3.6h-0.8v-3.4
			c0-0.9-0.5-1.5-1.3-1.5c-0.9,0-1.5,0.6-1.5,1.4v3.6h-0.9V201h0.8v0.8c0.3-0.6,0.9-1,1.6-1c0.8,0,1.5,0.5,1.8,1.2
			c0.2-0.7,1-1.2,1.8-1.2C288.7,200.9,289.6,201.8,289.6,203.1z"/>
	</g>
</g>
<g>
	<polygon fill="#78BE20" points="401.5,224 366.3,224 366.3,182.9 407.3,182.9 407.3,223.6 406.3,223.6 406.3,184 367.4,184 
		367.4,222.9 401.5,222.9 	"/>
	<g>
		<path fill="#78BE20" d="M378.6,201h0.9l1.9,4.6l1.8-4.6h0.9l-2.3,5.6H381L378.6,201z"/>
		<path fill="#78BE20" d="M393.8,203.1v3.6H393v-3.4c0-0.9-0.5-1.5-1.3-1.5c-0.9,0-1.5,0.6-1.5,1.4v3.6h-0.8v-3.4
			c0-0.9-0.5-1.5-1.3-1.5c-0.9,0-1.5,0.6-1.5,1.4v3.6h-0.8V201h0.8v0.8c0.3-0.6,0.9-1,1.6-1c0.8,0,1.5,0.5,1.8,1.2
			c0.2-0.7,1-1.2,1.8-1.2C393,200.9,393.8,201.8,393.8,203.1z"/>
	</g>
</g>
<g>
	<polygon fill="#78BE20" points="505.8,224 470.5,224 470.5,182.9 511.6,182.9 511.6,223.6 510.5,223.6 510.5,184 471.6,184 
		471.6,222.9 505.8,222.9 	"/>
	<g>
		<path fill="#78BE20" d="M482.9,201h0.9l1.9,4.6l1.8-4.6h0.9l-2.3,5.6h-0.8L482.9,201z"/>
		<path fill="#78BE20" d="M498.1,203.1v3.6h-0.8v-3.4c0-0.9-0.5-1.5-1.3-1.5c-0.9,0-1.5,0.6-1.5,1.4v3.6h-0.8v-3.4
			c0-0.9-0.5-1.5-1.3-1.5c-0.9,0-1.5,0.6-1.5,1.4v3.6h-0.8V201h0.8v0.8c0.3-0.6,0.9-1,1.6-1c0.8,0,1.5,0.5,1.8,1.2
			c0.2-0.7,1-1.2,1.8-1.2C497.3,200.9,498.1,201.8,498.1,203.1z"/>
	</g>
</g>
<g>
	<polygon fill="#78BE20" points="610,224 574.8,224 574.8,182.9 615.9,182.9 615.9,223.6 614.8,223.6 614.8,184 575.9,184 
		575.9,222.9 610,222.9 	"/>
	<g>
		<path fill="#78BE20" d="M587.1,201h0.9l1.9,4.6l1.8-4.6h0.9l-2.3,5.6h-0.8L587.1,201z"/>
		<path fill="#78BE20" d="M602.3,203.1v3.6h-0.8v-3.4c0-0.9-0.5-1.5-1.3-1.5c-0.9,0-1.5,0.6-1.5,1.4v3.6h-0.8v-3.4
			c0-0.9-0.5-1.5-1.3-1.5c-0.9,0-1.5,0.6-1.5,1.4v3.6h-0.8V201h0.8v0.8c0.3-0.6,0.9-1,1.6-1c0.8,0,1.5,0.5,1.8,1.2
			c0.2-0.7,1-1.2,1.8-1.2C601.5,200.9,602.3,201.8,602.3,203.1z"/>
	</g>
</g>
<g>
	<polygon fill="#0091DA" points="297.2,296.2 262,296.2 262,255.1 303.1,255.1 303.1,295.8 302,295.8 302,256.2 263.1,256.2 
		263.1,295.1 297.2,295.1 	"/>
	<g>
		<path fill="#0091DA" d="M274.4,273.2h0.9l1.9,4.6l1.8-4.6h0.9l-2.3,5.6h-0.8L274.4,273.2z"/>
		<path fill="#0091DA" d="M289.6,275.3v3.6h-0.8v-3.4c0-0.9-0.5-1.5-1.3-1.5c-0.9,0-1.5,0.6-1.5,1.4v3.6h-0.8v-3.4
			c0-0.9-0.5-1.5-1.3-1.5c-0.9,0-1.5,0.6-1.5,1.4v3.6h-0.9v-5.6h0.8v0.8c0.3-0.6,0.9-1,1.6-1c0.8,0,1.5,0.5,1.8,1.2
			c0.2-0.7,1-1.2,1.8-1.2C288.7,273.1,289.6,274,289.6,275.3z"/>
	</g>
</g>
<g>
	<polygon fill="#0091DA" points="401.5,296.2 366.3,296.2 366.3,255.1 407.3,255.1 407.3,295.8 406.3,295.8 406.3,256.2 
		367.4,256.2 367.4,295.1 401.5,295.1 	"/>
	<g>
		<path fill="#0091DA" d="M378.6,273.2h0.9l1.9,4.6l1.8-4.6h0.9l-2.3,5.6H381L378.6,273.2z"/>
		<path fill="#0091DA" d="M393.8,275.3v3.6H393v-3.4c0-0.9-0.5-1.5-1.3-1.5c-0.9,0-1.5,0.6-1.5,1.4v3.6h-0.8v-3.4
			c0-0.9-0.5-1.5-1.3-1.5c-0.9,0-1.5,0.6-1.5,1.4v3.6h-0.8v-5.6h0.8v0.8c0.3-0.6,0.9-1,1.6-1c0.8,0,1.5,0.5,1.8,1.2
			c0.2-0.7,1-1.2,1.8-1.2C393,273.1,393.8,274,393.8,275.3z"/>
	</g>
</g>
<g>
	<polygon fill="#0091DA" points="505.8,296.2 470.5,296.2 470.5,255.1 511.6,255.1 511.6,295.8 510.5,295.8 510.5,256.2 
		471.6,256.2 471.6,295.1 505.8,295.1 	"/>
	<g>
		<path fill="#0091DA" d="M482.9,273.2h0.9l1.9,4.6l1.8-4.6h0.9l-2.3,5.6h-0.8L482.9,273.2z"/>
		<path fill="#0091DA" d="M498.1,275.3v3.6h-0.8v-3.4c0-0.9-0.5-1.5-1.3-1.5c-0.9,0-1.5,0.6-1.5,1.4v3.6h-0.8v-3.4
			c0-0.9-0.5-1.5-1.3-1.5c-0.9,0-1.5,0.6-1.5,1.4v3.6h-0.8v-5.6h0.8v0.8c0.3-0.6,0.9-1,1.6-1c0.8,0,1.5,0.5,1.8,1.2
			c0.2-0.7,1-1.2,1.8-1.2C497.3,273.1,498.1,274,498.1,275.3z"/>
	</g>
</g>
<g>
	<polygon fill="#0091DA" points="610,296.2 574.8,296.2 574.8,255.1 615.9,255.1 615.9,295.8 614.8,295.8 614.8,256.2 575.9,256.2 
		575.9,295.1 610,295.1 	"/>
	<g>
		<path fill="#0091DA" d="M587.1,273.2h0.9l1.9,4.6l1.8-4.6h0.9l-2.3,5.6h-0.8L587.1,273.2z"/>
		<path fill="#0091DA" d="M602.3,275.3v3.6h-0.8v-3.4c0-0.9-0.5-1.5-1.3-1.5c-0.9,0-1.5,0.6-1.5,1.4v3.6h-0.8v-3.4
			c0-0.9-0.5-1.5-1.3-1.5c-0.9,0-1.5,0.6-1.5,1.4v3.6h-0.8v-5.6h0.8v0.8c0.3-0.6,0.9-1,1.6-1c0.8,0,1.5,0.5,1.8,1.2
			c0.2-0.7,1-1.2,1.8-1.2C601.5,273.1,602.3,274,602.3,275.3z"/>
	</g>
</g>
<g>
	<polygon fill="#00C1D5" points="297.2,368.4 262,368.4 262,327.3 303.1,327.3 303.1,368 302,368 302,328.4 263.1,328.4 
		263.1,367.3 297.2,367.3 	"/>
	<g>
		<path fill="#00C1D5" d="M274.4,345.4h0.9l1.9,4.6l1.8-4.6h0.9l-2.4,5.6h-0.8L274.4,345.4z"/>
		<path fill="#00C1D5" d="M289.6,347.5v3.6h-0.8v-3.4c0-0.9-0.5-1.5-1.3-1.5c-0.9,0-1.5,0.6-1.5,1.4v3.6h-0.8v-3.4
			c0-0.9-0.5-1.5-1.3-1.5c-0.9,0-1.5,0.6-1.5,1.4v3.6h-0.9v-5.6h0.8v0.8c0.3-0.6,0.9-1,1.6-1c0.8,0,1.5,0.5,1.8,1.2
			c0.2-0.7,1-1.2,1.8-1.2C288.7,345.3,289.6,346.2,289.6,347.5z"/>
	</g>
</g>
<g>
	<text transform="matrix(1 0 0 1 14.401 55.0967)" font-family="'Metropolis-Regular'" font-size="14px">Shared</text>
	<text transform="matrix(1 0 0 1 10.401 71.8967)" font-family="'Metropolis-Regular'" font-size="14px">Services</text>
	<g>
		<g>
			<polygon fill="#717074" points="163.3,47.6 128.1,47.6 128.1,6.5 169.2,6.5 169.2,47.2 168.1,47.2 168.1,7.6 129.2,7.6 
				129.2,46.5 163.3,46.5 			"/>
			<g>
				<path fill="#717074" d="M140.4,24.6h0.9l1.9,4.6l1.8-4.6h0.9l-2.3,5.6h-0.8L140.4,24.6z"/>
				<path fill="#717074" d="M155.6,26.6v3.6h-0.8v-3.4c0-0.9-0.5-1.5-1.3-1.5c-0.9,0-1.5,0.6-1.5,1.4v3.6h-0.8v-3.4
					c0-0.9-0.5-1.5-1.3-1.5c-0.9,0-1.5,0.6-1.5,1.4v3.6h-0.8v-5.6h0.8v0.8c0.3-0.6,0.9-1,1.6-1c0.8,0,1.5,0.5,1.8,1.2
					c0.2-0.7,1-1.2,1.8-1.2C154.8,24.5,155.6,25.4,155.6,26.6z"/>
			</g>
		</g>
		<g>
			<polygon fill="#717074" points="228.9,47.6 193.7,47.6 193.7,6.5 234.8,6.5 234.8,47.2 233.7,47.2 233.7,7.6 194.8,7.6 
				194.8,46.5 228.9,46.5 			"/>
			<g>
				<path fill="#717074" d="M206.1,24.6h0.9l1.9,4.6l1.8-4.6h0.9l-2.3,5.6h-0.8L206.1,24.6z"/>
				<path fill="#717074" d="M221.3,26.6v3.6h-0.8v-3.4c0-0.9-0.5-1.5-1.3-1.5c-0.9,0-1.5,0.6-1.5,1.4v3.6h-0.8v-3.4
					c0-0.9-0.5-1.5-1.3-1.5c-0.9,0-1.5,0.6-1.5,1.4v3.6h-0.8v-5.6h0.8v0.8c0.3-0.6,0.9-1,1.6-1c0.8,0,1.5,0.5,1.8,1.2
					c0.2-0.7,1-1.2,1.8-1.2C220.4,24.5,221.3,25.4,221.3,26.6z"/>
			</g>
		</g>
		<g>
			<polygon fill="#717074" points="163.3,103.7 128.1,103.7 128.1,62.6 169.2,62.6 169.2,103.4 168.1,103.4 168.1,63.7 129.2,63.7 
				129.2,102.6 163.3,102.6 			"/>
			<g>
				<path fill="#717074" d="M140.4,80.8h0.9l1.9,4.6l1.8-4.6h0.9l-2.3,5.6h-0.8L140.4,80.8z"/>
				<path fill="#717074" d="M155.6,82.8v3.6h-0.8V83c0-0.9-0.5-1.5-1.3-1.5c-0.9,0-1.5,0.6-1.5,1.4v3.6h-0.8v-3.4
					c0-0.9-0.5-1.5-1.3-1.5c-0.9,0-1.5,0.6-1.5,1.4v3.6h-0.8V81h0.8v0.8c0.3-0.6,0.9-1,1.6-1c0.8,0,1.5,0.5,1.8,1.2
					c0.2-0.7,1-1.2,1.8-1.2C154.8,80.6,155.6,81.5,155.6,82.8z"/>
			</g>
		</g>
		<g>
			<polygon fill="#717074" points="228.9,103.7 193.7,103.7 193.7,62.6 234.8,62.6 234.8,103.4 233.7,103.4 233.7,63.7 194.8,63.7 
				194.8,102.6 228.9,102.6 			"/>
			<g>
				<path fill="#717074" d="M206.1,80.8h0.9l1.9,4.6l1.8-4.6h0.9l-2.3,5.6h-0.8L206.1,80.8z"/>
				<path fill="#717074" d="M221.3,82.8v3.6h-0.8V83c0-0.9-0.5-1.5-1.3-1.5c-0.9,0-1.5,0.6-1.5,1.4v3.6h-0.8v-3.4
					c0-0.9-0.5-1.5-1.3-1.5c-0.9,0-1.5,0.6-1.5,1.4v3.6h-0.8V81h0.8v0.8c0.3-0.6,0.9-1,1.6-1c0.8,0,1.5,0.5,1.8,1.2
					c0.2-0.7,1-1.2,1.8-1.2C220.4,80.6,221.3,81.5,221.3,82.8z"/>
			</g>
		</g>
	</g>
</g>
<g>
	<polygon fill="#00C1D5" points="401.5,368.4 366.3,368.4 366.3,327.3 407.3,327.3 407.3,368 406.3,368 406.3,328.4 367.4,328.4 
		367.4,367.3 401.5,367.3 	"/>
	<g>
		<path fill="#00C1D5" d="M378.6,345.4h0.9l1.9,4.6l1.8-4.6h0.9l-2.3,5.6H381L378.6,345.4z"/>
		<path fill="#00C1D5" d="M393.8,347.5v3.6H393v-3.4c0-0.9-0.5-1.5-1.3-1.5c-0.9,0-1.5,0.6-1.5,1.4v3.6h-0.8v-3.4
			c0-0.9-0.5-1.5-1.3-1.5c-0.9,0-1.5,0.6-1.5,1.4v3.6h-0.8v-5.6h0.8v0.8c0.3-0.6,0.9-1,1.6-1c0.8,0,1.5,0.5,1.8,1.2
			c0.2-0.7,1-1.2,1.8-1.2C393,345.3,393.8,346.2,393.8,347.5z"/>
	</g>
</g>
<g>
	<polygon fill="#00C1D5" points="505.8,368.4 470.5,368.4 470.5,327.3 511.6,327.3 511.6,368 510.5,368 510.5,328.4 471.6,328.4 
		471.6,367.3 505.8,367.3 	"/>
	<g>
		<path fill="#00C1D5" d="M482.9,345.4h0.9l1.9,4.6l1.8-4.6h0.9l-2.3,5.6h-0.8L482.9,345.4z"/>
		<path fill="#00C1D5" d="M498.1,347.5v3.6h-0.8v-3.4c0-0.9-0.5-1.5-1.3-1.5c-0.9,0-1.5,0.6-1.5,1.4v3.6h-0.8v-3.4
			c0-0.9-0.5-1.5-1.3-1.5c-0.9,0-1.5,0.6-1.5,1.4v3.6h-0.8v-5.6h0.8v0.8c0.3-0.6,0.9-1,1.6-1c0.8,0,1.5,0.5,1.8,1.2
			c0.2-0.7,1-1.2,1.8-1.2C497.3,345.3,498.1,346.2,498.1,347.5z"/>
	</g>
</g>
<g>
	<polygon fill="#00C1D5" points="610,368.4 574.8,368.4 574.8,327.3 615.9,327.3 615.9,368 614.8,368 614.8,328.4 575.9,328.4 
		575.9,367.3 610,367.3 	"/>
	<g>
		<path fill="#00C1D5" d="M587.1,345.4h0.9l1.9,4.6l1.8-4.6h0.9l-2.3,5.6h-0.8L587.1,345.4z"/>
		<path fill="#00C1D5" d="M602.3,347.5v3.6h-0.8v-3.4c0-0.9-0.5-1.5-1.3-1.5c-0.9,0-1.5,0.6-1.5,1.4v3.6h-0.8v-3.4
			c0-0.9-0.5-1.5-1.3-1.5c-0.9,0-1.5,0.6-1.5,1.4v3.6h-0.8v-5.6h0.8v0.8c0.3-0.6,0.9-1,1.6-1c0.8,0,1.5,0.5,1.8,1.2
			c0.2-0.7,1-1.2,1.8-1.2C601.5,345.3,602.3,346.2,602.3,347.5z"/>
	</g>
</g>
<line fill="none" stroke="#000000" stroke-miterlimit="10" x1="37.3" y1="239.6" x2="624.5" y2="239.6"/>
<line fill="none" stroke="#000000" stroke-miterlimit="10" x1="37.3" y1="311.8" x2="624.5" y2="311.8"/>
<g>
	<circle fill="#0091DA" cx="152.1" cy="203.5" r="21.1"/>
	<g>
		<path fill="#FFFFFF" d="M144.4,208.3c-0.2,0-0.4-0.2-0.4-0.4c0-4.4,3.6-8,8-8c0.2,0,0.4,0.2,0.4,0.4s-0.2,0.4-0.4,0.4
			c-4,0-7.2,3.2-7.2,7.2C144.8,208.1,144.7,208.3,144.4,208.3z"/>
		<g>
			<path fill-rule="evenodd" clip-rule="evenodd" fill="#FFFFFF" d="M157.6,199.5v-5.8c0-2.9-2.3-5.3-5.1-5.3h-0.9
				c-2.8,0-5.1,2.4-5.1,5.3v5.8c-2.9,1.8-4.8,5-4.8,8.7c0,5.7,4.6,10.3,10.3,10.3s10.3-4.6,10.3-10.3
				C162.4,204.5,160.5,201.3,157.6,199.5z M147.3,193.7c0-2.5,1.9-4.5,4.3-4.5h0.9c2.4,0,4.3,2,4.3,4.5v5.3c-1.4-0.7-3-1.2-4.8-1.2
				c-1.7,0-3.3,0.4-4.8,1.2v-5.3H147.3z M152.1,217.7c-5.3,0-9.5-4.3-9.5-9.5c0-5.3,4.3-9.5,9.5-9.5s9.5,4.3,9.5,9.5
				C161.6,213.4,157.3,217.7,152.1,217.7z"/>
			<path fill-rule="evenodd" clip-rule="evenodd" fill="#FFFFFF" d="M152.1,205.5c-0.9,0-1.7,0.8-1.7,1.7c0,0.6,0.3,1.2,0.8,1.5v1.8
				c0,0.2,0.2,0.5,0.5,0.5h0.8c0.2,0,0.5-0.2,0.5-0.5v-1.8c0.5-0.3,0.8-0.8,0.8-1.5C153.8,206.2,153,205.5,152.1,205.5z"/>
		</g>
	</g>
</g>
<g>
	<circle fill="#0091DA" cx="152.1" cy="275.7" r="21.1"/>
	<g>
		<path fill="#FFFFFF" d="M144.4,280.5c-0.2,0-0.4-0.2-0.4-0.4c0-4.4,3.6-8,8-8c0.2,0,0.4,0.2,0.4,0.4c0,0.2-0.2,0.4-0.4,0.4
			c-4,0-7.2,3.2-7.2,7.2C144.8,280.3,144.7,280.5,144.4,280.5z"/>
		<g>
			<path fill-rule="evenodd" clip-rule="evenodd" fill="#FFFFFF" d="M157.6,271.7v-5.8c0-2.9-2.3-5.3-5.1-5.3h-0.9
				c-2.8,0-5.1,2.4-5.1,5.3v5.8c-2.9,1.8-4.8,5-4.8,8.7c0,5.7,4.6,10.3,10.3,10.3s10.3-4.6,10.3-10.3
				C162.4,276.7,160.5,273.5,157.6,271.7z M147.3,265.9c0-2.5,1.9-4.5,4.3-4.5h0.9c2.4,0,4.3,2,4.3,4.5v5.3c-1.4-0.7-3-1.2-4.8-1.2
				c-1.7,0-3.3,0.4-4.8,1.2v-5.3H147.3z M152.1,289.9c-5.3,0-9.5-4.3-9.5-9.5c0-5.3,4.3-9.5,9.5-9.5s9.5,4.3,9.5,9.5
				S157.3,289.9,152.1,289.9z"/>
			<path fill-rule="evenodd" clip-rule="evenodd" fill="#FFFFFF" d="M152.1,277.7c-0.9,0-1.7,0.8-1.7,1.7c0,0.6,0.3,1.2,0.8,1.5v1.8
				c0,0.2,0.2,0.5,0.5,0.5h0.8c0.2,0,0.5-0.2,0.5-0.5v-1.8c0.5-0.3,0.8-0.8,0.8-1.5C153.8,278.4,153,277.7,152.1,277.7z"/>
		</g>
	</g>
</g>
<g>
	<circle fill="#0091DA" cx="152.1" cy="347.9" r="21.1"/>
	<g>
		<path fill="#FFFFFF" d="M144.4,352.7c-0.2,0-0.4-0.2-0.4-0.4c0-4.4,3.6-8,8-8c0.2,0,0.4,0.2,0.4,0.4s-0.2,0.4-0.4,0.4
			c-4,0-7.2,3.2-7.2,7.2C144.8,352.5,144.7,352.7,144.4,352.7z"/>
		<g>
			<path fill-rule="evenodd" clip-rule="evenodd" fill="#FFFFFF" d="M157.6,343.9v-5.8c0-2.9-2.3-5.3-5.1-5.3h-0.9
				c-2.8,0-5.1,2.4-5.1,5.3v5.8c-2.9,1.8-4.8,5-4.8,8.7c0,5.7,4.6,10.3,10.3,10.3s10.3-4.6,10.3-10.3
				C162.4,348.9,160.5,345.7,157.6,343.9z M147.3,338.1c0-2.5,1.9-4.5,4.3-4.5h0.9c2.4,0,4.3,2,4.3,4.5v5.3c-1.4-0.7-3-1.2-4.8-1.2
				c-1.7,0-3.3,0.4-4.8,1.2v-5.3H147.3z M152.1,362.1c-5.3,0-9.5-4.3-9.5-9.5c0-5.3,4.3-9.5,9.5-9.5s9.5,4.3,9.5,9.5
				C161.6,357.8,157.3,362.1,152.1,362.1z"/>
			<path fill-rule="evenodd" clip-rule="evenodd" fill="#FFFFFF" d="M152.1,349.9c-0.9,0-1.7,0.8-1.7,1.7c0,0.6,0.3,1.2,0.8,1.5v1.8
				c0,0.2,0.2,0.5,0.5,0.5h0.8c0.2,0,0.5-0.2,0.5-0.5V353c0.5-0.3,0.8-0.8,0.8-1.5C153.8,350.6,153,349.9,152.1,349.9z"/>
		</g>
	</g>
</g>
<text transform="matrix(1 0 0 1 464.2745 59.076)" font-family="'Metropolis-Regular'" font-size="14px">Users</text>
<g>
	<g>
		<circle fill="#717074" cx="573.4" cy="28.4" r="21.1"/>
		<g>
			<path fill="#FFFFFF" d="M573.4,27.7c4.8,0,9.2,2,12.5,5.7c0.2,0.3,0.4,0.6,0.4,1v5.8c0,0.8-0.6,1.4-1.3,1.4h-23.2
				c-0.7,0-1.3-0.6-1.3-1.4v-5.8c0-0.4,0.1-0.7,0.4-1c0.2-0.2,0.4-0.5,0.7-0.7C564.8,29.5,569,27.7,573.4,27.7 M573.4,26.9
				c-4.5,0-8.9,1.7-12.4,5.2c-0.2,0.2-0.5,0.5-0.7,0.7c-0.4,0.4-0.6,1-0.6,1.5v5.8c0,1.2,0.9,2.2,2.1,2.2H585c1.2,0,2.1-1,2.1-2.2
				v-5.8c0-0.6-0.2-1.1-0.6-1.5C583,28.9,578.2,26.9,573.4,26.9L573.4,26.9z"/>
			<path fill="#FFFFFF" d="M573.4,11.5c3.6,0,6.6,2.9,6.6,6.6c0,3.6-2.9,6.6-6.6,6.6c-3.6,0-6.6-2.9-6.6-6.6
				C566.8,14.4,569.8,11.5,573.4,11.5 M573.4,10.6c-4.1,0-7.4,3.3-7.4,7.4s3.3,7.4,7.4,7.4c4.1,0,7.4-3.3,7.4-7.4
				S577.5,10.6,573.4,10.6L573.4,10.6z"/>
		</g>
	</g>
	<g>
		<circle fill="#717074" cx="639" cy="28.4" r="21.1"/>
		<g>
			<path fill="#FFFFFF" d="M639,27.7c4.8,0,9.2,2,12.5,5.7c0.2,0.3,0.4,0.6,0.4,1v5.8c0,0.8-0.6,1.4-1.3,1.4h-23.2
				c-0.7,0-1.3-0.6-1.3-1.4v-5.8c0-0.4,0.1-0.7,0.4-1c0.2-0.2,0.4-0.5,0.7-0.7C630.4,29.5,634.6,27.7,639,27.7 M639,26.9
				c-4.5,0-8.9,1.7-12.4,5.2c-0.2,0.2-0.5,0.5-0.7,0.7c-0.4,0.4-0.6,1-0.6,1.5v5.8c0,1.2,0.9,2.2,2.1,2.2h23.2c1.2,0,2.1-1,2.1-2.2
				v-5.8c0-0.6-0.2-1.1-0.6-1.5C648.6,28.9,643.8,26.9,639,26.9L639,26.9z"/>
			<path fill="#FFFFFF" d="M639,11.5c3.6,0,6.6,2.9,6.6,6.6c0,3.6-2.9,6.6-6.6,6.6c-3.6,0-6.6-2.9-6.6-6.6S635.4,11.5,639,11.5
				 M639,10.6c-4.1,0-7.4,3.3-7.4,7.4s3.3,7.4,7.4,7.4c4.1,0,7.4-3.3,7.4-7.4S643.1,10.6,639,10.6L639,10.6z"/>
		</g>
	</g>
	<g>
		<circle fill="#717074" cx="573.4" cy="81.7" r="21.1"/>
		<g>
			<path fill="#FFFFFF" d="M573.4,81c4.8,0,9.2,2,12.5,5.7c0.2,0.3,0.4,0.6,0.4,1v5.8c0,0.8-0.6,1.4-1.3,1.4h-23.2
				c-0.7,0-1.3-0.6-1.3-1.4v-5.8c0-0.4,0.1-0.7,0.4-1c0.2-0.2,0.4-0.5,0.7-0.7C564.8,82.8,569,81,573.4,81 M573.4,80.2
				c-4.5,0-8.9,1.7-12.4,5.2c-0.2,0.2-0.5,0.5-0.7,0.7c-0.4,0.4-0.6,1-0.6,1.5v5.8c0,1.2,0.9,2.2,2.1,2.2H585c1.2,0,2.1-1,2.1-2.2
				v-5.8c0-0.6-0.2-1.1-0.6-1.5C583,82.2,578.2,80.2,573.4,80.2L573.4,80.2z"/>
			<path fill="#FFFFFF" d="M573.4,64.8c3.6,0,6.6,2.9,6.6,6.6s-2.9,6.6-6.6,6.6c-3.6,0-6.6-2.9-6.6-6.6S569.8,64.8,573.4,64.8
				 M573.4,63.9c-4.1,0-7.4,3.3-7.4,7.4s3.3,7.4,7.4,7.4c4.1,0,7.4-3.3,7.4-7.4S577.5,63.9,573.4,63.9L573.4,63.9z"/>
		</g>
	</g>
	<g>
		<circle fill="#717074" cx="639" cy="81.7" r="21.1"/>
		<g>
			<path fill="#FFFFFF" d="M639,81c4.8,0,9.2,2,12.5,5.7c0.2,0.3,0.4,0.6,0.4,1v5.8c0,0.8-0.6,1.4-1.3,1.4h-23.2
				c-0.7,0-1.3-0.6-1.3-1.4v-5.8c0-0.4,0.1-0.7,0.4-1c0.2-0.2,0.4-0.5,0.7-0.7C630.4,82.8,634.6,81,639,81 M639,80.2
				c-4.5,0-8.9,1.7-12.4,5.2c-0.2,0.2-0.5,0.5-0.7,0.7c-0.4,0.4-0.6,1-0.6,1.5v5.8c0,1.2,0.9,2.2,2.1,2.2h23.2c1.2,0,2.1-1,2.1-2.2
				v-5.8c0-0.6-0.2-1.1-0.6-1.5C648.6,82.2,643.8,80.2,639,80.2L639,80.2z"/>
			<path fill="#FFFFFF" d="M639,64.8c3.6,0,6.6,2.9,6.6,6.6S642.7,78,639,78c-3.6,0-6.6-2.9-6.6-6.6S635.4,64.8,639,64.8 M639,63.9
				c-4.1,0-7.4,3.3-7.4,7.4s3.3,7.4,7.4,7.4c4.1,0,7.4-3.3,7.4-7.4S643.1,63.9,639,63.9L639,63.9z"/>
		</g>
	</g>
</g>
<polygon fill="#717074" points="247.4,34.6 247.4,103.7 262,103.7 279.9,171.7 303.1,103.7 457.5,103.7 457.5,34.6 "/>
<text transform="matrix(1 0 0 1 287.1485 55.097)" fill="#FFFFFF" font-family="'Metropolis-Regular'" font-size="14px">Identify application </text>
<text transform="matrix(1 0 0 1 262.4485 71.897)" fill="#FFFFFF" font-family="'Metropolis-Regular'" font-size="14px">boundaries and determine </text>
<text transform="matrix(1 0 0 1 270.5485 88.697)" fill="#FFFFFF" font-family="'Metropolis-Regular'" font-size="14px">intended network traffic.</text>
</svg>
