<?xml version="1.0" encoding="utf-8"?>
<!-- Generator: Adobe Illustrator 23.0.4, SVG Export Plug-In . SVG Version: 6.00 Build 0)  -->
<svg version="1.1" id="Layer_1" xmlns="http://www.w3.org/2000/svg" xmlns:xlink="http://www.w3.org/1999/xlink" x="0px" y="0px"
	 viewBox="0 0 820.5 417" enable-background="new 0 0 820.5 417" xml:space="preserve">
<polygon fill="#717074" points="173.4,95.5 173.4,80.7 10.8,80.7 10.8,132.1 173.4,132.1 173.4,127.7 295.5,127.7 "/>
<rect x="160.6" y="135.2" fill="#F2F2F2" stroke="#000000" stroke-miterlimit="10" width="648.6" height="275.8"/>
<rect x="180.4" y="165.1" fill="#F2F2F2" stroke="#000000" stroke-miterlimit="10" width="608.9" height="218.1"/>
<polygon fill="#FFFFFF" stroke="#1A428A" stroke-miterlimit="10" stroke-dasharray="4" points="397,175 465.8,175 465.8,245.9 
	570.4,245.9 570.4,374.3 501.6,374.3 501.6,304.6 397,304.6 "/>
<text transform="matrix(1 0 0 1 202.1741 206.4381)" font-family="'Metropolis-Regular'" font-size="14px">Web Tier</text>
<text transform="matrix(1 0 0 1 204.092 278.6398)" font-family="'Metropolis-Regular'" font-size="14px">App Tier</text>
<text transform="matrix(1 0 0 1 207.865 350.8419)" font-family="'Metropolis-Regular'" font-size="14px">DB Tier</text>
<g>
	<polygon fill="#F8981D" points="446.8,223 411.6,223 411.6,181.9 452.7,181.9 452.7,222.6 451.6,222.6 451.6,183 412.7,183 
		412.7,221.9 446.8,221.9 	"/>
	<g>
		<path fill="#F8981D" d="M424,200h0.9l1.9,4.6l1.8-4.6h0.9l-2.3,5.6h-0.8L424,200z"/>
		<path fill="#F8981D" d="M439.2,202.1v3.6h-0.8v-3.4c0-0.9-0.5-1.5-1.3-1.5c-0.9,0-1.5,0.6-1.5,1.4v3.6h-0.8v-3.4
			c0-0.9-0.5-1.5-1.3-1.5c-0.9,0-1.5,0.6-1.5,1.4v3.6h-0.9V200h0.8v0.8c0.3-0.6,0.9-1,1.6-1c0.8,0,1.5,0.5,1.8,1.2
			c0.2-0.7,1-1.2,1.8-1.2C438.3,199.9,439.2,200.8,439.2,202.1z"/>
	</g>
</g>
<g>
	<polygon fill="#78BE20" points="551.1,223 515.9,223 515.9,181.9 556.9,181.9 556.9,222.6 555.9,222.6 555.9,183 517,183 
		517,221.9 551.1,221.9 	"/>
	<g>
		<path fill="#78BE20" d="M528.2,200h0.9l1.9,4.6l1.8-4.6h0.9l-2.3,5.6h-0.8L528.2,200z"/>
		<path fill="#78BE20" d="M543.4,202.1v3.6h-0.8v-3.4c0-0.9-0.5-1.5-1.3-1.5c-0.9,0-1.5,0.6-1.5,1.4v3.6H539v-3.4
			c0-0.9-0.5-1.5-1.3-1.5c-0.9,0-1.5,0.6-1.5,1.4v3.6h-0.8V200h0.8v0.8c0.3-0.6,0.9-1,1.6-1c0.8,0,1.5,0.5,1.8,1.2
			c0.2-0.7,1-1.2,1.8-1.2C542.6,199.9,543.4,200.8,543.4,202.1z"/>
	</g>
</g>
<g>
	<polygon fill="#78BE20" points="655.4,223 620.1,223 620.1,181.9 661.2,181.9 661.2,222.6 660.1,222.6 660.1,183 621.2,183 
		621.2,221.9 655.4,221.9 	"/>
	<g>
		<path fill="#78BE20" d="M632.5,200h0.9l1.9,4.6l1.8-4.6h0.9l-2.3,5.6h-0.8L632.5,200z"/>
		<path fill="#78BE20" d="M647.7,202.1v3.6h-0.8v-3.4c0-0.9-0.5-1.5-1.3-1.5c-0.9,0-1.5,0.6-1.5,1.4v3.6h-0.8v-3.4
			c0-0.9-0.5-1.5-1.3-1.5c-0.9,0-1.5,0.6-1.5,1.4v3.6h-0.8V200h0.8v0.8c0.3-0.6,0.9-1,1.6-1c0.8,0,1.5,0.5,1.8,1.2
			c0.2-0.7,1-1.2,1.8-1.2C646.9,199.9,647.7,200.8,647.7,202.1z"/>
	</g>
</g>
<g>
	<polygon fill="#78BE20" points="759.6,223 724.4,223 724.4,181.9 765.5,181.9 765.5,222.6 764.4,222.6 764.4,183 725.5,183 
		725.5,221.9 759.6,221.9 	"/>
	<g>
		<path fill="#78BE20" d="M736.7,200h0.9l1.9,4.6l1.8-4.6h0.9l-2.3,5.6h-0.8L736.7,200z"/>
		<path fill="#78BE20" d="M751.9,202.1v3.6h-0.8v-3.4c0-0.9-0.5-1.5-1.3-1.5c-0.9,0-1.5,0.6-1.5,1.4v3.6h-0.8v-3.4
			c0-0.9-0.5-1.5-1.3-1.5c-0.9,0-1.5,0.6-1.5,1.4v3.6h-0.8V200h0.8v0.8c0.3-0.6,0.9-1,1.6-1c0.8,0,1.5,0.5,1.8,1.2
			c0.2-0.7,1-1.2,1.8-1.2C751.1,199.9,751.9,200.8,751.9,202.1z"/>
	</g>
</g>
<g>
	<polygon fill="#F8981D" points="446.8,295.2 411.6,295.2 411.6,254.1 452.7,254.1 452.7,294.8 451.6,294.8 451.6,255.2 
		412.7,255.2 412.7,294.1 446.8,294.1 	"/>
	<g>
		<path fill="#F8981D" d="M424,272.2h0.9l1.9,4.6l1.8-4.6h0.9l-2.3,5.6h-0.8L424,272.2z"/>
		<path fill="#F8981D" d="M439.2,274.3v3.6h-0.8v-3.4c0-0.9-0.5-1.5-1.3-1.5c-0.9,0-1.5,0.6-1.5,1.4v3.6h-0.8v-3.4
			c0-0.9-0.5-1.5-1.3-1.5c-0.9,0-1.5,0.6-1.5,1.4v3.6h-0.9v-5.6h0.8v0.8c0.3-0.6,0.9-1,1.6-1c0.8,0,1.5,0.5,1.8,1.2
			c0.2-0.7,1-1.2,1.8-1.2C438.3,272.1,439.2,273,439.2,274.3z"/>
	</g>
</g>
<g>
	<polygon fill="#F8981D" points="551.1,295.2 515.9,295.2 515.9,254.1 556.9,254.1 556.9,294.8 555.9,294.8 555.9,255.2 517,255.2 
		517,294.1 551.1,294.1 	"/>
	<g>
		<path fill="#F8981D" d="M528.2,272.2h0.9l1.9,4.6l1.8-4.6h0.9l-2.3,5.6h-0.8L528.2,272.2z"/>
		<path fill="#F8981D" d="M543.4,274.3v3.6h-0.8v-3.4c0-0.9-0.5-1.5-1.3-1.5c-0.9,0-1.5,0.6-1.5,1.4v3.6H539v-3.4
			c0-0.9-0.5-1.5-1.3-1.5c-0.9,0-1.5,0.6-1.5,1.4v3.6h-0.8v-5.6h0.8v0.8c0.3-0.6,0.9-1,1.6-1c0.8,0,1.5,0.5,1.8,1.2
			c0.2-0.7,1-1.2,1.8-1.2C542.6,272.1,543.4,273,543.4,274.3z"/>
	</g>
</g>
<g>
	<polygon fill="#0091DA" points="655.4,295.2 620.1,295.2 620.1,254.1 661.2,254.1 661.2,294.8 660.1,294.8 660.1,255.2 
		621.2,255.2 621.2,294.1 655.4,294.1 	"/>
	<g>
		<path fill="#0091DA" d="M632.5,272.2h0.9l1.9,4.6l1.8-4.6h0.9l-2.3,5.6h-0.8L632.5,272.2z"/>
		<path fill="#0091DA" d="M647.7,274.3v3.6h-0.8v-3.4c0-0.9-0.5-1.5-1.3-1.5c-0.9,0-1.5,0.6-1.5,1.4v3.6h-0.8v-3.4
			c0-0.9-0.5-1.5-1.3-1.5c-0.9,0-1.5,0.6-1.5,1.4v3.6h-0.8v-5.6h0.8v0.8c0.3-0.6,0.9-1,1.6-1c0.8,0,1.5,0.5,1.8,1.2
			c0.2-0.7,1-1.2,1.8-1.2C646.9,272.1,647.7,273,647.7,274.3z"/>
	</g>
</g>
<g>
	<polygon fill="#0091DA" points="759.6,295.2 724.4,295.2 724.4,254.1 765.5,254.1 765.5,294.8 764.4,294.8 764.4,255.2 
		725.5,255.2 725.5,294.1 759.6,294.1 	"/>
	<g>
		<path fill="#0091DA" d="M736.7,272.2h0.9l1.9,4.6l1.8-4.6h0.9l-2.3,5.6h-0.8L736.7,272.2z"/>
		<path fill="#0091DA" d="M751.9,274.3v3.6h-0.8v-3.4c0-0.9-0.5-1.5-1.3-1.5c-0.9,0-1.5,0.6-1.5,1.4v3.6h-0.8v-3.4
			c0-0.9-0.5-1.5-1.3-1.5c-0.9,0-1.5,0.6-1.5,1.4v3.6h-0.8v-5.6h0.8v0.8c0.3-0.6,0.9-1,1.6-1c0.8,0,1.5,0.5,1.8,1.2
			c0.2-0.7,1-1.2,1.8-1.2C751.1,272.1,751.9,273,751.9,274.3z"/>
	</g>
</g>
<g>
	<polygon fill="#00C1D5" points="446.8,367.4 411.6,367.4 411.6,326.3 452.7,326.3 452.7,367 451.6,367 451.6,327.4 412.7,327.4 
		412.7,366.3 446.8,366.3 	"/>
	<g>
		<path fill="#00C1D5" d="M424,344.4h0.9l1.9,4.6l1.8-4.6h0.9l-2.4,5.6h-0.8L424,344.4z"/>
		<path fill="#00C1D5" d="M439.2,346.5v3.6h-0.8v-3.4c0-0.9-0.5-1.5-1.3-1.5c-0.9,0-1.5,0.6-1.5,1.4v3.6h-0.8v-3.4
			c0-0.9-0.5-1.5-1.3-1.5c-0.9,0-1.5,0.6-1.5,1.4v3.6h-0.9v-5.6h0.8v0.8c0.3-0.6,0.9-1,1.6-1c0.8,0,1.5,0.5,1.8,1.2
			c0.2-0.7,1-1.2,1.8-1.2C438.3,344.3,439.2,345.2,439.2,346.5z"/>
	</g>
</g>
<g>
	<text transform="matrix(1 0 0 1 164.065 54.0967)" font-family="'Metropolis-Regular'" font-size="14px">Shared</text>
	<text transform="matrix(1 0 0 1 160.065 70.8967)" font-family="'Metropolis-Regular'" font-size="14px">Services</text>
	<g>
		<g>
			<polygon fill="#717074" points="312.9,46.6 277.7,46.6 277.7,5.5 318.8,5.5 318.8,46.2 317.7,46.2 317.7,6.6 278.8,6.6 
				278.8,45.5 312.9,45.5 			"/>
			<g>
				<path fill="#717074" d="M290,23.6h0.9l1.9,4.6l1.8-4.6h0.9l-2.3,5.6h-0.8L290,23.6z"/>
				<path fill="#717074" d="M305.2,25.6v3.6h-0.8v-3.4c0-0.9-0.5-1.5-1.3-1.5c-0.9,0-1.5,0.6-1.5,1.4v3.6h-0.8v-3.4
					c0-0.9-0.5-1.5-1.3-1.5c-0.9,0-1.5,0.6-1.5,1.4v3.6h-0.8v-5.6h0.8v0.8c0.3-0.6,0.9-1,1.6-1c0.8,0,1.5,0.5,1.8,1.2
					c0.2-0.7,1-1.2,1.8-1.2C304.4,23.5,305.2,24.4,305.2,25.6z"/>
			</g>
		</g>
		<g>
			<polygon fill="#717074" points="378.5,46.6 343.3,46.6 343.3,5.5 384.4,5.5 384.4,46.2 383.3,46.2 383.3,6.6 344.4,6.6 
				344.4,45.5 378.5,45.5 			"/>
			<g>
				<path fill="#717074" d="M355.7,23.6h0.9l1.9,4.6l1.8-4.6h0.9l-2.3,5.6h-0.8L355.7,23.6z"/>
				<path fill="#717074" d="M370.9,25.6v3.6h-0.8v-3.4c0-0.9-0.5-1.5-1.3-1.5c-0.9,0-1.5,0.6-1.5,1.4v3.6h-0.8v-3.4
					c0-0.9-0.5-1.5-1.3-1.5c-0.9,0-1.5,0.6-1.5,1.4v3.6h-0.8v-5.6h0.8v0.8c0.3-0.6,0.9-1,1.6-1c0.8,0,1.5,0.5,1.8,1.2
					c0.2-0.7,1-1.2,1.8-1.2C370,23.5,370.9,24.4,370.9,25.6z"/>
			</g>
		</g>
		<g>
			<polygon fill="#717074" points="312.9,102.7 277.7,102.7 277.7,61.6 318.8,61.6 318.8,102.4 317.7,102.4 317.7,62.7 278.8,62.7 
				278.8,101.6 312.9,101.6 			"/>
			<g>
				<path fill="#717074" d="M290,79.8h0.9l1.9,4.6l1.8-4.6h0.9l-2.3,5.6h-0.8L290,79.8z"/>
				<path fill="#717074" d="M305.2,81.8v3.6h-0.8V82c0-0.9-0.5-1.5-1.3-1.5c-0.9,0-1.5,0.6-1.5,1.4v3.6h-0.8v-3.4
					c0-0.9-0.5-1.5-1.3-1.5c-0.9,0-1.5,0.6-1.5,1.4v3.6h-0.8V80h0.8v0.8c0.3-0.6,0.9-1,1.6-1c0.8,0,1.5,0.5,1.8,1.2
					c0.2-0.7,1-1.2,1.8-1.2C304.4,79.6,305.2,80.5,305.2,81.8z"/>
			</g>
		</g>
		<g>
			<polygon fill="#717074" points="378.5,102.7 343.3,102.7 343.3,61.6 384.4,61.6 384.4,102.4 383.3,102.4 383.3,62.7 344.4,62.7 
				344.4,101.6 378.5,101.6 			"/>
			<g>
				<path fill="#717074" d="M355.7,79.8h0.9l1.9,4.6l1.8-4.6h0.9l-2.3,5.6h-0.8L355.7,79.8z"/>
				<path fill="#717074" d="M370.9,81.8v3.6h-0.8V82c0-0.9-0.5-1.5-1.3-1.5c-0.9,0-1.5,0.6-1.5,1.4v3.6h-0.8v-3.4
					c0-0.9-0.5-1.5-1.3-1.5c-0.9,0-1.5,0.6-1.5,1.4v3.6h-0.8V80h0.8v0.8c0.3-0.6,0.9-1,1.6-1c0.8,0,1.5,0.5,1.8,1.2
					c0.2-0.7,1-1.2,1.8-1.2C370,79.6,370.9,80.5,370.9,81.8z"/>
			</g>
		</g>
	</g>
</g>
<g>
	<polygon fill="#F8981D" points="551.1,367.4 515.9,367.4 515.9,326.3 556.9,326.3 556.9,367 555.9,367 555.9,327.4 517,327.4 
		517,366.3 551.1,366.3 	"/>
	<g>
		<path fill="#F8981D" d="M528.2,344.4h0.9l1.9,4.6l1.8-4.6h0.9l-2.3,5.6h-0.8L528.2,344.4z"/>
		<path fill="#F8981D" d="M543.4,346.5v3.6h-0.8v-3.4c0-0.9-0.5-1.5-1.3-1.5c-0.9,0-1.5,0.6-1.5,1.4v3.6H539v-3.4
			c0-0.9-0.5-1.5-1.3-1.5c-0.9,0-1.5,0.6-1.5,1.4v3.6h-0.8v-5.6h0.8v0.8c0.3-0.6,0.9-1,1.6-1c0.8,0,1.5,0.5,1.8,1.2
			c0.2-0.7,1-1.2,1.8-1.2C542.6,344.3,543.4,345.2,543.4,346.5z"/>
	</g>
</g>
<g>
	<polygon fill="#00C1D5" points="655.4,367.4 620.1,367.4 620.1,326.3 661.2,326.3 661.2,367 660.1,367 660.1,327.4 621.2,327.4 
		621.2,366.3 655.4,366.3 	"/>
	<g>
		<path fill="#00C1D5" d="M632.5,344.4h0.9l1.9,4.6l1.8-4.6h0.9l-2.3,5.6h-0.8L632.5,344.4z"/>
		<path fill="#00C1D5" d="M647.7,346.5v3.6h-0.8v-3.4c0-0.9-0.5-1.5-1.3-1.5c-0.9,0-1.5,0.6-1.5,1.4v3.6h-0.8v-3.4
			c0-0.9-0.5-1.5-1.3-1.5c-0.9,0-1.5,0.6-1.5,1.4v3.6h-0.8v-5.6h0.8v0.8c0.3-0.6,0.9-1,1.6-1c0.8,0,1.5,0.5,1.8,1.2
			c0.2-0.7,1-1.2,1.8-1.2C646.9,344.3,647.7,345.2,647.7,346.5z"/>
	</g>
</g>
<g>
	<polygon fill="#00C1D5" points="759.6,367.4 724.4,367.4 724.4,326.3 765.5,326.3 765.5,367 764.4,367 764.4,327.4 725.5,327.4 
		725.5,366.3 759.6,366.3 	"/>
	<g>
		<path fill="#00C1D5" d="M736.7,344.4h0.9l1.9,4.6l1.8-4.6h0.9l-2.3,5.6h-0.8L736.7,344.4z"/>
		<path fill="#00C1D5" d="M751.9,346.5v3.6h-0.8v-3.4c0-0.9-0.5-1.5-1.3-1.5c-0.9,0-1.5,0.6-1.5,1.4v3.6h-0.8v-3.4
			c0-0.9-0.5-1.5-1.3-1.5c-0.9,0-1.5,0.6-1.5,1.4v3.6h-0.8v-5.6h0.8v0.8c0.3-0.6,0.9-1,1.6-1c0.8,0,1.5,0.5,1.8,1.2
			c0.2-0.7,1-1.2,1.8-1.2C751.1,344.3,751.9,345.2,751.9,346.5z"/>
	</g>
</g>
<line fill="none" stroke="#000000" stroke-miterlimit="10" x1="186.9" y1="238.6" x2="774.1" y2="238.6"/>
<line fill="none" stroke="#000000" stroke-miterlimit="10" x1="186.9" y1="310.8" x2="774.1" y2="310.8"/>
<g>
	<circle fill="#0091DA" cx="301.7" cy="202.5" r="21.1"/>
	<g>
		<path fill="#FFFFFF" d="M294,207.3c-0.2,0-0.4-0.2-0.4-0.4c0-4.4,3.6-8,8-8c0.2,0,0.4,0.2,0.4,0.4s-0.2,0.4-0.4,0.4
			c-4,0-7.2,3.2-7.2,7.2C294.4,207.1,294.3,207.3,294,207.3z"/>
		<g>
			<path fill-rule="evenodd" clip-rule="evenodd" fill="#FFFFFF" d="M307.2,198.5v-5.8c0-2.9-2.3-5.3-5.1-5.3h-0.9
				c-2.8,0-5.1,2.4-5.1,5.3v5.8c-2.9,1.8-4.8,5-4.8,8.7c0,5.7,4.6,10.3,10.3,10.3s10.3-4.6,10.3-10.3
				C312,203.5,310.1,200.3,307.2,198.5z M296.9,192.7c0-2.5,1.9-4.5,4.3-4.5h0.9c2.4,0,4.3,2,4.3,4.5v5.3c-1.4-0.7-3-1.2-4.8-1.2
				c-1.7,0-3.3,0.4-4.8,1.2v-5.3H296.9z M301.7,216.7c-5.3,0-9.5-4.3-9.5-9.5c0-5.3,4.3-9.5,9.5-9.5s9.5,4.3,9.5,9.5
				C311.2,212.4,306.9,216.7,301.7,216.7z"/>
			<path fill-rule="evenodd" clip-rule="evenodd" fill="#FFFFFF" d="M301.7,204.5c-0.9,0-1.7,0.8-1.7,1.7c0,0.6,0.3,1.2,0.8,1.5v1.8
				c0,0.2,0.2,0.5,0.5,0.5h0.8c0.2,0,0.5-0.2,0.5-0.5v-1.8c0.5-0.3,0.8-0.8,0.8-1.5C303.4,205.2,302.6,204.5,301.7,204.5z"/>
		</g>
	</g>
</g>
<g>
	<circle fill="#0091DA" cx="473.8" cy="165.1" r="21.1"/>
	<g>
		<path fill="#FFFFFF" d="M466.2,169.9c-0.2,0-0.4-0.2-0.4-0.4c0-4.4,3.6-8,8-8c0.2,0,0.4,0.2,0.4,0.4s-0.2,0.4-0.4,0.4
			c-4,0-7.2,3.2-7.2,7.2C466.6,169.7,466.4,169.9,466.2,169.9z"/>
		<g>
			<path fill-rule="evenodd" clip-rule="evenodd" fill="#FFFFFF" d="M479.3,161.1v-5.8c0-2.9-2.3-5.3-5.1-5.3h-0.9
				c-2.8,0-5.1,2.4-5.1,5.3v5.8c-2.9,1.8-4.8,5-4.8,8.7c0,5.7,4.6,10.3,10.3,10.3s10.3-4.6,10.3-10.3
				C484.1,166.1,482.2,162.9,479.3,161.1z M469,155.3c0-2.5,1.9-4.5,4.3-4.5h0.9c2.4,0,4.3,2,4.3,4.5v5.3c-1.4-0.7-3-1.2-4.8-1.2
				c-1.7,0-3.3,0.4-4.8,1.2v-5.3H469z M473.8,179.3c-5.3,0-9.5-4.3-9.5-9.5c0-5.3,4.3-9.5,9.5-9.5c5.3,0,9.5,4.3,9.5,9.5
				S479,179.3,473.8,179.3z"/>
			<path fill-rule="evenodd" clip-rule="evenodd" fill="#FFFFFF" d="M473.8,167.1c-0.9,0-1.7,0.8-1.7,1.7c0,0.6,0.3,1.2,0.8,1.5v1.8
				c0,0.2,0.2,0.5,0.5,0.5h0.8c0.2,0,0.5-0.2,0.5-0.5v-1.8c0.5-0.3,0.8-0.8,0.8-1.5C475.5,167.8,474.7,167.1,473.8,167.1z"/>
		</g>
	</g>
</g>
<g>
	<circle fill="#0091DA" cx="301.7" cy="274.7" r="21.1"/>
	<g>
		<path fill="#FFFFFF" d="M294,279.5c-0.2,0-0.4-0.2-0.4-0.4c0-4.4,3.6-8,8-8c0.2,0,0.4,0.2,0.4,0.4c0,0.2-0.2,0.4-0.4,0.4
			c-4,0-7.2,3.2-7.2,7.2C294.4,279.3,294.3,279.5,294,279.5z"/>
		<g>
			<path fill-rule="evenodd" clip-rule="evenodd" fill="#FFFFFF" d="M307.2,270.7v-5.8c0-2.9-2.3-5.3-5.1-5.3h-0.9
				c-2.8,0-5.1,2.4-5.1,5.3v5.8c-2.9,1.8-4.8,5-4.8,8.7c0,5.7,4.6,10.3,10.3,10.3s10.3-4.6,10.3-10.3
				C312,275.7,310.1,272.5,307.2,270.7z M296.9,264.9c0-2.5,1.9-4.5,4.3-4.5h0.9c2.4,0,4.3,2,4.3,4.5v5.3c-1.4-0.7-3-1.2-4.8-1.2
				c-1.7,0-3.3,0.4-4.8,1.2v-5.3H296.9z M301.7,288.9c-5.3,0-9.5-4.3-9.5-9.5c0-5.3,4.3-9.5,9.5-9.5s9.5,4.3,9.5,9.5
				S306.9,288.9,301.7,288.9z"/>
			<path fill-rule="evenodd" clip-rule="evenodd" fill="#FFFFFF" d="M301.7,276.7c-0.9,0-1.7,0.8-1.7,1.7c0,0.6,0.3,1.2,0.8,1.5v1.8
				c0,0.2,0.2,0.5,0.5,0.5h0.8c0.2,0,0.5-0.2,0.5-0.5v-1.8c0.5-0.3,0.8-0.8,0.8-1.5C303.4,277.4,302.6,276.7,301.7,276.7z"/>
		</g>
	</g>
</g>
<g>
	<circle fill="#0091DA" cx="301.7" cy="346.9" r="21.1"/>
	<g>
		<path fill="#FFFFFF" d="M294,351.7c-0.2,0-0.4-0.2-0.4-0.4c0-4.4,3.6-8,8-8c0.2,0,0.4,0.2,0.4,0.4s-0.2,0.4-0.4,0.4
			c-4,0-7.2,3.2-7.2,7.2C294.4,351.5,294.3,351.7,294,351.7z"/>
		<g>
			<path fill-rule="evenodd" clip-rule="evenodd" fill="#FFFFFF" d="M307.2,342.9v-5.8c0-2.9-2.3-5.3-5.1-5.3h-0.9
				c-2.8,0-5.1,2.4-5.1,5.3v5.8c-2.9,1.8-4.8,5-4.8,8.7c0,5.7,4.6,10.3,10.3,10.3s10.3-4.6,10.3-10.3
				C312,347.9,310.1,344.7,307.2,342.9z M296.9,337.1c0-2.5,1.9-4.5,4.3-4.5h0.9c2.4,0,4.3,2,4.3,4.5v5.3c-1.4-0.7-3-1.2-4.8-1.2
				c-1.7,0-3.3,0.4-4.8,1.2v-5.3H296.9z M301.7,361.1c-5.3,0-9.5-4.3-9.5-9.5c0-5.3,4.3-9.5,9.5-9.5s9.5,4.3,9.5,9.5
				C311.2,356.8,306.9,361.1,301.7,361.1z"/>
			<path fill-rule="evenodd" clip-rule="evenodd" fill="#FFFFFF" d="M301.7,348.9c-0.9,0-1.7,0.8-1.7,1.7c0,0.6,0.3,1.2,0.8,1.5v1.8
				c0,0.2,0.2,0.5,0.5,0.5h0.8c0.2,0,0.5-0.2,0.5-0.5V352c0.5-0.3,0.8-0.8,0.8-1.5C303.4,349.6,302.6,348.9,301.7,348.9z"/>
		</g>
	</g>
</g>
<text transform="matrix(1 0 0 1 613.9385 58.076)" font-family="'Metropolis-Regular'" font-size="14px">Users</text>
<g>
	<g>
		<circle fill="#717074" cx="723" cy="27.4" r="21.1"/>
		<g>
			<path fill="#FFFFFF" d="M723,26.7c4.8,0,9.2,2,12.5,5.7c0.2,0.3,0.4,0.6,0.4,1v5.8c0,0.8-0.6,1.4-1.3,1.4h-23.2
				c-0.7,0-1.3-0.6-1.3-1.4v-5.8c0-0.4,0.1-0.7,0.4-1c0.2-0.2,0.4-0.5,0.7-0.7C714.4,28.5,718.6,26.7,723,26.7 M723,25.9
				c-4.5,0-8.9,1.7-12.4,5.2c-0.2,0.2-0.5,0.5-0.7,0.7c-0.4,0.4-0.6,1-0.6,1.5v5.8c0,1.2,0.9,2.2,2.1,2.2h23.2c1.2,0,2.1-1,2.1-2.2
				v-5.8c0-0.6-0.2-1.1-0.6-1.5C732.6,27.9,727.8,25.9,723,25.9L723,25.9z"/>
			<path fill="#FFFFFF" d="M723,10.5c3.6,0,6.6,2.9,6.6,6.6c0,3.6-2.9,6.6-6.6,6.6c-3.6,0-6.6-2.9-6.6-6.6
				C716.4,13.4,719.4,10.5,723,10.5 M723,9.6c-4.1,0-7.4,3.3-7.4,7.4s3.3,7.4,7.4,7.4c4.1,0,7.4-3.3,7.4-7.4S727.1,9.6,723,9.6
				L723,9.6z"/>
		</g>
	</g>
	<g>
		<circle fill="#717074" cx="788.6" cy="27.4" r="21.1"/>
		<g>
			<path fill="#FFFFFF" d="M788.6,26.7c4.8,0,9.2,2,12.5,5.7c0.2,0.3,0.4,0.6,0.4,1v5.8c0,0.8-0.6,1.4-1.3,1.4H777
				c-0.7,0-1.3-0.6-1.3-1.4v-5.8c0-0.4,0.1-0.7,0.4-1c0.2-0.2,0.4-0.5,0.7-0.7C780,28.5,784.2,26.7,788.6,26.7 M788.6,25.9
				c-4.5,0-8.9,1.7-12.4,5.2c-0.2,0.2-0.5,0.5-0.7,0.7c-0.4,0.4-0.6,1-0.6,1.5v5.8c0,1.2,0.9,2.2,2.1,2.2h23.2c1.2,0,2.1-1,2.1-2.2
				v-5.8c0-0.6-0.2-1.1-0.6-1.5C798.2,27.9,793.4,25.9,788.6,25.9L788.6,25.9z"/>
			<path fill="#FFFFFF" d="M788.6,10.5c3.6,0,6.6,2.9,6.6,6.6c0,3.6-2.9,6.6-6.6,6.6c-3.6,0-6.6-2.9-6.6-6.6S785,10.5,788.6,10.5
				 M788.6,9.6c-4.1,0-7.4,3.3-7.4,7.4s3.3,7.4,7.4,7.4c4.1,0,7.4-3.3,7.4-7.4S792.7,9.6,788.6,9.6L788.6,9.6z"/>
		</g>
	</g>
	<g>
		<circle fill="#717074" cx="723" cy="80.7" r="21.1"/>
		<g>
			<path fill="#FFFFFF" d="M723,80c4.8,0,9.2,2,12.5,5.7c0.2,0.3,0.4,0.6,0.4,1v5.8c0,0.8-0.6,1.4-1.3,1.4h-23.2
				c-0.7,0-1.3-0.6-1.3-1.4v-5.8c0-0.4,0.1-0.7,0.4-1c0.2-0.2,0.4-0.5,0.7-0.7C714.4,81.8,718.6,80,723,80 M723,79.2
				c-4.5,0-8.9,1.7-12.4,5.2c-0.2,0.2-0.5,0.5-0.7,0.7c-0.4,0.4-0.6,1-0.6,1.5v5.8c0,1.2,0.9,2.2,2.1,2.2h23.2c1.2,0,2.1-1,2.1-2.2
				v-5.8c0-0.6-0.2-1.1-0.6-1.5C732.6,81.2,727.8,79.2,723,79.2L723,79.2z"/>
			<path fill="#FFFFFF" d="M723,63.8c3.6,0,6.6,2.9,6.6,6.6S726.7,77,723,77c-3.6,0-6.6-2.9-6.6-6.6S719.4,63.8,723,63.8 M723,62.9
				c-4.1,0-7.4,3.3-7.4,7.4s3.3,7.4,7.4,7.4c4.1,0,7.4-3.3,7.4-7.4S727.1,62.9,723,62.9L723,62.9z"/>
		</g>
	</g>
	<g>
		<circle fill="#717074" cx="788.6" cy="80.7" r="21.1"/>
		<g>
			<path fill="#FFFFFF" d="M788.6,80c4.8,0,9.2,2,12.5,5.7c0.2,0.3,0.4,0.6,0.4,1v5.8c0,0.8-0.6,1.4-1.3,1.4H777
				c-0.7,0-1.3-0.6-1.3-1.4v-5.8c0-0.4,0.1-0.7,0.4-1c0.2-0.2,0.4-0.5,0.7-0.7C780,81.8,784.2,80,788.6,80 M788.6,79.2
				c-4.5,0-8.9,1.7-12.4,5.2c-0.2,0.2-0.5,0.5-0.7,0.7c-0.4,0.4-0.6,1-0.6,1.5v5.8c0,1.2,0.9,2.2,2.1,2.2h23.2c1.2,0,2.1-1,2.1-2.2
				v-5.8c0-0.6-0.2-1.1-0.6-1.5C798.2,81.2,793.4,79.2,788.6,79.2L788.6,79.2z"/>
			<path fill="#FFFFFF" d="M788.6,63.8c3.6,0,6.6,2.9,6.6,6.6s-2.9,6.6-6.6,6.6c-3.6,0-6.6-2.9-6.6-6.6S785,63.8,788.6,63.8
				 M788.6,62.9c-4.1,0-7.4,3.3-7.4,7.4s3.3,7.4,7.4,7.4c4.1,0,7.4-3.3,7.4-7.4S792.7,62.9,788.6,62.9L788.6,62.9z"/>
		</g>
	</g>
</g>
<line fill="none" stroke="#717074" stroke-miterlimit="10" stroke-dasharray="4" x1="575" y1="347.5" x2="616.3" y2="347.5"/>
<g>
	<g>
		<polyline fill="none" stroke="#717074" stroke-miterlimit="10" stroke-dasharray="4,4" points="298.2,117.3 298.2,127.6 
			420,127.6 420,183 		"/>
		<g>
			<polygon fill="#717074" points="293.2,118.8 298.2,110.1 303.2,118.8 			"/>
		</g>
	</g>
</g>
<g>
	<g>
		<polyline fill="none" stroke="#717074" stroke-miterlimit="10" stroke-dasharray="4,4" points="362.8,117.3 362.8,121.1 
			429.5,121.1 429.5,181.9 		"/>
		<g>
			<polygon fill="#717074" points="357.9,118.8 362.8,110.1 367.8,118.8 			"/>
		</g>
	</g>
</g>
<g>
	<g>
		<polyline fill="none" stroke="#717074" stroke-miterlimit="10" stroke-dasharray="4,4" points="439.2,174.7 439.2,128.5 
			788.6,128.5 788.6,117.3 		"/>
		<g>
			<polygon fill="#717074" points="444.1,173.3 439.2,181.9 434.2,173.3 			"/>
		</g>
		<g>
			<polygon fill="#717074" points="793.6,118.8 788.6,110.1 783.6,118.8 			"/>
		</g>
	</g>
</g>
<g>
	<g>
		<line fill="none" stroke="#717074" stroke-miterlimit="10" stroke-dasharray="4,4" x1="723" y1="117.3" x2="723" y2="128.5"/>
		<g>
			<polygon fill="#717074" points="718,118.8 723,110.1 728,118.8 			"/>
		</g>
	</g>
</g>
<text transform="matrix(1 0 0 1 21.9001 95.4576)" fill="#FFFFFF" font-family="'Metropolis-Regular'" font-size="12px">Use micro-segmentation</text>
<text transform="matrix(1 0 0 1 26.2001 109.8576)" fill="#FFFFFF" font-family="'Metropolis-Regular'" font-size="12px">to allow only necessary</text>
<text transform="matrix(1 0 0 1 43.6001 124.2576)" fill="#FFFFFF" font-family="'Metropolis-Regular'" font-size="12px">communications.</text>
</svg>
