<?xml version="1.0" encoding="utf-8"?>
<!-- Generator: Adobe Illustrator 23.0.4, SVG Export Plug-In . SVG Version: 6.00 Build 0)  -->
<svg version="1.1" id="Layer_1" xmlns="http://www.w3.org/2000/svg" xmlns:xlink="http://www.w3.org/1999/xlink" x="0px" y="0px"
	 viewBox="0 0 821 417" enable-background="new 0 0 821 417" xml:space="preserve">
<polygon fill="#717074" points="751.5,306 737.3,287.2 720.5,306 664.5,306 664.5,411 810.1,411 810.1,306 "/>
<rect x="11.4" y="135.2" fill="#F2F2F2" stroke="#000000" stroke-miterlimit="10" width="648.6" height="275.8"/>
<rect x="31.2" y="165.1" fill="#717074" width="608.9" height="218.1"/>
<polygon fill="#FFFFFF" stroke="#1A428A" stroke-miterlimit="10" stroke-dasharray="4" points="247.8,175 316.6,175 316.6,245.9 
	421.2,245.9 421.2,374.3 352.4,374.3 352.4,304.6 247.8,304.6 "/>
<text transform="matrix(1 0 0 1 52.9796 206.4381)" font-family="'Metropolis-Regular'" font-size="14px">Web Tier</text>
<text transform="matrix(1 0 0 1 676.9727 322.0643)" fill="#FFFFFF" font-family="'Metropolis-Regular'" font-size="11px">Determine and enforce</text>
<text transform="matrix(1 0 0 1 678.5727 335.2643)" fill="#FFFFFF" font-family="'Metropolis-Regular'" font-size="11px">the intended state and</text>
<text transform="matrix(1 0 0 1 681.5727 348.4643)" fill="#FFFFFF" font-family="'Metropolis-Regular'" font-size="11px">behavior of each VM.</text>
<text transform="matrix(1 0 0 1 681.5727 374.8643)" fill="#FFFFFF" font-family="'Metropolis-Regular'" font-size="11px">Can apply third-party</text>
<text transform="matrix(1 0 0 1 673.6727 388.0643)" fill="#FFFFFF" font-family="'Metropolis-Regular'" font-size="11px">security services to each</text>
<text transform="matrix(1 0 0 1 695.6727 401.2643)" fill="#FFFFFF" font-family="'Metropolis-Regular'" font-size="11px">micro-segment.</text>
<text transform="matrix(1 0 0 1 54.8975 278.6398)" font-family="'Metropolis-Regular'" font-size="14px">App Tier</text>
<text transform="matrix(1 0 0 1 58.6705 350.8419)" font-family="'Metropolis-Regular'" font-size="14px">DB Tier</text>
<g>
	<polygon fill="#F8981D" points="297.6,223 262.4,223 262.4,181.9 303.5,181.9 303.5,222.6 302.4,222.6 302.4,183 263.5,183 
		263.5,221.9 297.6,221.9 	"/>
	<g>
		<path fill="#F8981D" d="M274.8,200h0.9l1.9,4.6l1.8-4.6h0.9l-2.3,5.6h-0.8L274.8,200z"/>
		<path fill="#F8981D" d="M290,202.1v3.6h-0.8v-3.4c0-0.9-0.5-1.5-1.3-1.5c-0.9,0-1.5,0.6-1.5,1.4v3.6h-0.8v-3.4
			c0-0.9-0.5-1.5-1.3-1.5c-0.9,0-1.5,0.6-1.5,1.4v3.6h-0.9V200h0.8v0.8c0.3-0.6,0.9-1,1.6-1c0.8,0,1.5,0.5,1.8,1.2
			c0.2-0.7,1-1.2,1.8-1.2C289.1,199.9,290,200.8,290,202.1z"/>
	</g>
</g>
<g>
	<polygon fill="#78BE20" points="401.9,223 366.7,223 366.7,181.9 407.7,181.9 407.7,222.6 406.7,222.6 406.7,183 367.8,183 
		367.8,221.9 401.9,221.9 	"/>
	<g>
		<path fill="#78BE20" d="M379,200h0.9l1.9,4.6l1.8-4.6h0.9l-2.3,5.6h-0.8L379,200z"/>
		<path fill="#78BE20" d="M394.2,202.1v3.6h-0.8v-3.4c0-0.9-0.5-1.5-1.3-1.5c-0.9,0-1.5,0.6-1.5,1.4v3.6h-0.8v-3.4
			c0-0.9-0.5-1.5-1.3-1.5c-0.9,0-1.5,0.6-1.5,1.4v3.6h-0.8V200h0.8v0.8c0.3-0.6,0.9-1,1.6-1c0.8,0,1.5,0.5,1.8,1.2
			c0.2-0.7,1-1.2,1.8-1.2C393.4,199.9,394.2,200.8,394.2,202.1z"/>
	</g>
</g>
<g>
	<polygon fill="#78BE20" points="506.2,223 470.9,223 470.9,181.9 512,181.9 512,222.6 510.9,222.6 510.9,183 472,183 472,221.9 
		506.2,221.9 	"/>
	<g>
		<path fill="#78BE20" d="M483.3,200h0.9l1.9,4.6l1.8-4.6h0.9l-2.3,5.6h-0.8L483.3,200z"/>
		<path fill="#78BE20" d="M498.5,202.1v3.6h-0.8v-3.4c0-0.9-0.5-1.5-1.3-1.5c-0.9,0-1.5,0.6-1.5,1.4v3.6h-0.8v-3.4
			c0-0.9-0.5-1.5-1.3-1.5c-0.9,0-1.5,0.6-1.5,1.4v3.6h-0.8V200h0.8v0.8c0.3-0.6,0.9-1,1.6-1c0.8,0,1.5,0.5,1.8,1.2
			c0.2-0.7,1-1.2,1.8-1.2C497.7,199.9,498.5,200.8,498.5,202.1z"/>
	</g>
</g>
<g>
	<polygon fill="#78BE20" points="610.4,223 575.2,223 575.2,181.9 616.3,181.9 616.3,222.6 615.2,222.6 615.2,183 576.3,183 
		576.3,221.9 610.4,221.9 	"/>
	<g>
		<path fill="#78BE20" d="M587.5,200h0.9l1.9,4.6l1.8-4.6h0.9l-2.3,5.6h-0.8L587.5,200z"/>
		<path fill="#78BE20" d="M602.7,202.1v3.6h-0.8v-3.4c0-0.9-0.5-1.5-1.3-1.5c-0.9,0-1.5,0.6-1.5,1.4v3.6h-0.8v-3.4
			c0-0.9-0.5-1.5-1.3-1.5c-0.9,0-1.5,0.6-1.5,1.4v3.6h-0.8V200h0.8v0.8c0.3-0.6,0.9-1,1.6-1c0.8,0,1.5,0.5,1.8,1.2
			c0.2-0.7,1-1.2,1.8-1.2C601.9,199.9,602.7,200.8,602.7,202.1z"/>
	</g>
</g>
<g>
	<polygon fill="#F8981D" points="297.6,295.2 262.4,295.2 262.4,254.1 303.5,254.1 303.5,294.8 302.4,294.8 302.4,255.2 
		263.5,255.2 263.5,294.1 297.6,294.1 	"/>
	<g>
		<path fill="#F8981D" d="M274.8,272.2h0.9l1.9,4.6l1.8-4.6h0.9l-2.3,5.6h-0.8L274.8,272.2z"/>
		<path fill="#F8981D" d="M290,274.3v3.6h-0.8v-3.4c0-0.9-0.5-1.5-1.3-1.5c-0.9,0-1.5,0.6-1.5,1.4v3.6h-0.8v-3.4
			c0-0.9-0.5-1.5-1.3-1.5c-0.9,0-1.5,0.6-1.5,1.4v3.6h-0.9v-5.6h0.8v0.8c0.3-0.6,0.9-1,1.6-1c0.8,0,1.5,0.5,1.8,1.2
			c0.2-0.7,1-1.2,1.8-1.2C289.1,272.1,290,273,290,274.3z"/>
	</g>
</g>
<g>
	<polygon fill="#F8981D" points="401.9,295.2 366.7,295.2 366.7,254.1 407.7,254.1 407.7,294.8 406.7,294.8 406.7,255.2 
		367.8,255.2 367.8,294.1 401.9,294.1 	"/>
	<g>
		<path fill="#F8981D" d="M379,272.2h0.9l1.9,4.6l1.8-4.6h0.9l-2.3,5.6h-0.8L379,272.2z"/>
		<path fill="#F8981D" d="M394.2,274.3v3.6h-0.8v-3.4c0-0.9-0.5-1.5-1.3-1.5c-0.9,0-1.5,0.6-1.5,1.4v3.6h-0.8v-3.4
			c0-0.9-0.5-1.5-1.3-1.5c-0.9,0-1.5,0.6-1.5,1.4v3.6h-0.8v-5.6h0.8v0.8c0.3-0.6,0.9-1,1.6-1c0.8,0,1.5,0.5,1.8,1.2
			c0.2-0.7,1-1.2,1.8-1.2C393.4,272.1,394.2,273,394.2,274.3z"/>
	</g>
</g>
<g>
	<polygon fill="#0091DA" points="506.2,295.2 470.9,295.2 470.9,254.1 512,254.1 512,294.8 510.9,294.8 510.9,255.2 472,255.2 
		472,294.1 506.2,294.1 	"/>
	<g>
		<path fill="#0091DA" d="M483.3,272.2h0.9l1.9,4.6l1.8-4.6h0.9l-2.3,5.6h-0.8L483.3,272.2z"/>
		<path fill="#0091DA" d="M498.5,274.3v3.6h-0.8v-3.4c0-0.9-0.5-1.5-1.3-1.5c-0.9,0-1.5,0.6-1.5,1.4v3.6h-0.8v-3.4
			c0-0.9-0.5-1.5-1.3-1.5c-0.9,0-1.5,0.6-1.5,1.4v3.6h-0.8v-5.6h0.8v0.8c0.3-0.6,0.9-1,1.6-1c0.8,0,1.5,0.5,1.8,1.2
			c0.2-0.7,1-1.2,1.8-1.2C497.7,272.1,498.5,273,498.5,274.3z"/>
	</g>
</g>
<g>
	<polygon fill="#0091DA" points="610.4,295.2 575.2,295.2 575.2,254.1 616.3,254.1 616.3,294.8 615.2,294.8 615.2,255.2 
		576.3,255.2 576.3,294.1 610.4,294.1 	"/>
	<g>
		<path fill="#0091DA" d="M587.5,272.2h0.9l1.9,4.6l1.8-4.6h0.9l-2.3,5.6h-0.8L587.5,272.2z"/>
		<path fill="#0091DA" d="M602.7,274.3v3.6h-0.8v-3.4c0-0.9-0.5-1.5-1.3-1.5c-0.9,0-1.5,0.6-1.5,1.4v3.6h-0.8v-3.4
			c0-0.9-0.5-1.5-1.3-1.5c-0.9,0-1.5,0.6-1.5,1.4v3.6h-0.8v-5.6h0.8v0.8c0.3-0.6,0.9-1,1.6-1c0.8,0,1.5,0.5,1.8,1.2
			c0.2-0.7,1-1.2,1.8-1.2C601.9,272.1,602.7,273,602.7,274.3z"/>
	</g>
</g>
<g>
	<polygon fill="#00C1D5" points="297.6,367.4 262.4,367.4 262.4,326.3 303.5,326.3 303.5,367 302.4,367 302.4,327.4 263.5,327.4 
		263.5,366.3 297.6,366.3 	"/>
	<g>
		<path fill="#00C1D5" d="M274.8,344.4h0.9l1.9,4.6l1.8-4.6h0.9l-2.4,5.6h-0.8L274.8,344.4z"/>
		<path fill="#00C1D5" d="M290,346.5v3.6h-0.8v-3.4c0-0.9-0.5-1.5-1.3-1.5c-0.9,0-1.5,0.6-1.5,1.4v3.6h-0.8v-3.4
			c0-0.9-0.5-1.5-1.3-1.5c-0.9,0-1.5,0.6-1.5,1.4v3.6h-0.9v-5.6h0.8v0.8c0.3-0.6,0.9-1,1.6-1c0.8,0,1.5,0.5,1.8,1.2
			c0.2-0.7,1-1.2,1.8-1.2C289.1,344.3,290,345.2,290,346.5z"/>
	</g>
</g>
<g>
	<text transform="matrix(1 0 0 1 14.8705 54.0967)" font-family="'Metropolis-Regular'" font-size="14px">Shared</text>
	<text transform="matrix(1 0 0 1 10.8705 70.8967)" font-family="'Metropolis-Regular'" font-size="14px">Services</text>
	<g>
		<g>
			<polygon fill="#717074" points="163.7,46.6 128.5,46.6 128.5,5.5 169.6,5.5 169.6,46.2 168.5,46.2 168.5,6.6 129.6,6.6 
				129.6,45.5 163.7,45.5 			"/>
			<g>
				<path fill="#717074" d="M140.8,23.6h0.9l1.9,4.6l1.8-4.6h0.9l-2.3,5.6h-0.8L140.8,23.6z"/>
				<path fill="#717074" d="M156,25.6v3.6h-0.8v-3.4c0-0.9-0.5-1.5-1.3-1.5c-0.9,0-1.5,0.6-1.5,1.4v3.6h-0.8v-3.4
					c0-0.9-0.5-1.5-1.3-1.5c-0.9,0-1.5,0.6-1.5,1.4v3.6H148v-5.6h0.8v0.8c0.3-0.6,0.9-1,1.6-1c0.8,0,1.5,0.5,1.8,1.2
					c0.2-0.7,1-1.2,1.8-1.2C155.2,23.5,156,24.4,156,25.6z"/>
			</g>
		</g>
		<g>
			<polygon fill="#717074" points="229.3,46.6 194.1,46.6 194.1,5.5 235.2,5.5 235.2,46.2 234.1,46.2 234.1,6.6 195.2,6.6 
				195.2,45.5 229.3,45.5 			"/>
			<g>
				<path fill="#717074" d="M206.5,23.6h0.9l1.9,4.6l1.8-4.6h0.9l-2.3,5.6h-0.8L206.5,23.6z"/>
				<path fill="#717074" d="M221.7,25.6v3.6h-0.8v-3.4c0-0.9-0.5-1.5-1.3-1.5c-0.9,0-1.5,0.6-1.5,1.4v3.6h-0.8v-3.4
					c0-0.9-0.5-1.5-1.3-1.5c-0.9,0-1.5,0.6-1.5,1.4v3.6h-0.8v-5.6h0.8v0.8c0.3-0.6,0.9-1,1.6-1c0.8,0,1.5,0.5,1.8,1.2
					c0.2-0.7,1-1.2,1.8-1.2C220.8,23.5,221.7,24.4,221.7,25.6z"/>
			</g>
		</g>
		<g>
			<polygon fill="#717074" points="163.7,102.7 128.5,102.7 128.5,61.6 169.6,61.6 169.6,102.4 168.5,102.4 168.5,62.7 129.6,62.7 
				129.6,101.6 163.7,101.6 			"/>
			<g>
				<path fill="#717074" d="M140.8,79.8h0.9l1.9,4.6l1.8-4.6h0.9l-2.3,5.6h-0.8L140.8,79.8z"/>
				<path fill="#717074" d="M156,81.8v3.6h-0.8V82c0-0.9-0.5-1.5-1.3-1.5c-0.9,0-1.5,0.6-1.5,1.4v3.6h-0.8v-3.4
					c0-0.9-0.5-1.5-1.3-1.5c-0.9,0-1.5,0.6-1.5,1.4v3.6H148V80h0.8v0.8c0.3-0.6,0.9-1,1.6-1c0.8,0,1.5,0.5,1.8,1.2
					c0.2-0.7,1-1.2,1.8-1.2C155.2,79.6,156,80.5,156,81.8z"/>
			</g>
		</g>
		<g>
			<polygon fill="#717074" points="229.3,102.7 194.1,102.7 194.1,61.6 235.2,61.6 235.2,102.4 234.1,102.4 234.1,62.7 195.2,62.7 
				195.2,101.6 229.3,101.6 			"/>
			<g>
				<path fill="#717074" d="M206.5,79.8h0.9l1.9,4.6l1.8-4.6h0.9l-2.3,5.6h-0.8L206.5,79.8z"/>
				<path fill="#717074" d="M221.7,81.8v3.6h-0.8V82c0-0.9-0.5-1.5-1.3-1.5c-0.9,0-1.5,0.6-1.5,1.4v3.6h-0.8v-3.4
					c0-0.9-0.5-1.5-1.3-1.5c-0.9,0-1.5,0.6-1.5,1.4v3.6h-0.8V80h0.8v0.8c0.3-0.6,0.9-1,1.6-1c0.8,0,1.5,0.5,1.8,1.2
					c0.2-0.7,1-1.2,1.8-1.2C220.8,79.6,221.7,80.5,221.7,81.8z"/>
			</g>
		</g>
	</g>
</g>
<g>
	<polygon fill="#F8981D" points="401.9,367.4 366.7,367.4 366.7,326.3 407.7,326.3 407.7,367 406.7,367 406.7,327.4 367.8,327.4 
		367.8,366.3 401.9,366.3 	"/>
	<g>
		<path fill="#F8981D" d="M379,344.4h0.9l1.9,4.6l1.8-4.6h0.9l-2.3,5.6h-0.8L379,344.4z"/>
		<path fill="#F8981D" d="M394.2,346.5v3.6h-0.8v-3.4c0-0.9-0.5-1.5-1.3-1.5c-0.9,0-1.5,0.6-1.5,1.4v3.6h-0.8v-3.4
			c0-0.9-0.5-1.5-1.3-1.5c-0.9,0-1.5,0.6-1.5,1.4v3.6h-0.8v-5.6h0.8v0.8c0.3-0.6,0.9-1,1.6-1c0.8,0,1.5,0.5,1.8,1.2
			c0.2-0.7,1-1.2,1.8-1.2C393.4,344.3,394.2,345.2,394.2,346.5z"/>
	</g>
</g>
<g>
	<polygon fill="#00C1D5" points="506.2,367.4 470.9,367.4 470.9,326.3 512,326.3 512,367 510.9,367 510.9,327.4 472,327.4 
		472,366.3 506.2,366.3 	"/>
	<g>
		<path fill="#00C1D5" d="M483.3,344.4h0.9l1.9,4.6l1.8-4.6h0.9l-2.3,5.6h-0.8L483.3,344.4z"/>
		<path fill="#00C1D5" d="M498.5,346.5v3.6h-0.8v-3.4c0-0.9-0.5-1.5-1.3-1.5c-0.9,0-1.5,0.6-1.5,1.4v3.6h-0.8v-3.4
			c0-0.9-0.5-1.5-1.3-1.5c-0.9,0-1.5,0.6-1.5,1.4v3.6h-0.8v-5.6h0.8v0.8c0.3-0.6,0.9-1,1.6-1c0.8,0,1.5,0.5,1.8,1.2
			c0.2-0.7,1-1.2,1.8-1.2C497.7,344.3,498.5,345.2,498.5,346.5z"/>
	</g>
</g>
<g>
	<polygon fill="#00C1D5" points="610.4,367.4 575.2,367.4 575.2,326.3 616.3,326.3 616.3,367 615.2,367 615.2,327.4 576.3,327.4 
		576.3,366.3 610.4,366.3 	"/>
	<g>
		<path fill="#00C1D5" d="M587.5,344.4h0.9l1.9,4.6l1.8-4.6h0.9l-2.3,5.6h-0.8L587.5,344.4z"/>
		<path fill="#00C1D5" d="M602.7,346.5v3.6h-0.8v-3.4c0-0.9-0.5-1.5-1.3-1.5c-0.9,0-1.5,0.6-1.5,1.4v3.6h-0.8v-3.4
			c0-0.9-0.5-1.5-1.3-1.5c-0.9,0-1.5,0.6-1.5,1.4v3.6h-0.8v-5.6h0.8v0.8c0.3-0.6,0.9-1,1.6-1c0.8,0,1.5,0.5,1.8,1.2
			c0.2-0.7,1-1.2,1.8-1.2C601.9,344.3,602.7,345.2,602.7,346.5z"/>
	</g>
</g>
<line fill="none" stroke="#000000" stroke-miterlimit="10" x1="37.7" y1="238.6" x2="624.9" y2="238.6"/>
<line fill="none" stroke="#000000" stroke-miterlimit="10" x1="37.7" y1="310.8" x2="624.9" y2="310.8"/>
<g>
	<circle fill="#0091DA" cx="152.5" cy="202.5" r="21.1"/>
	<g>
		<path fill="#FFFFFF" d="M144.8,207.3c-0.2,0-0.4-0.2-0.4-0.4c0-4.4,3.6-8,8-8c0.2,0,0.4,0.2,0.4,0.4s-0.2,0.4-0.4,0.4
			c-4,0-7.2,3.2-7.2,7.2C145.2,207.1,145.1,207.3,144.8,207.3z"/>
		<g>
			<path fill-rule="evenodd" clip-rule="evenodd" fill="#FFFFFF" d="M158,198.5v-5.8c0-2.9-2.3-5.3-5.1-5.3H152
				c-2.8,0-5.1,2.4-5.1,5.3v5.8c-2.9,1.8-4.8,5-4.8,8.7c0,5.7,4.6,10.3,10.3,10.3s10.3-4.6,10.3-10.3
				C162.8,203.5,160.9,200.3,158,198.5z M147.7,192.7c0-2.5,1.9-4.5,4.3-4.5h0.9c2.4,0,4.3,2,4.3,4.5v5.3c-1.4-0.7-3-1.2-4.8-1.2
				c-1.7,0-3.3,0.4-4.8,1.2v-5.3H147.7z M152.5,216.7c-5.3,0-9.5-4.3-9.5-9.5c0-5.3,4.3-9.5,9.5-9.5s9.5,4.3,9.5,9.5
				C162,212.4,157.7,216.7,152.5,216.7z"/>
			<path fill-rule="evenodd" clip-rule="evenodd" fill="#FFFFFF" d="M152.5,204.5c-0.9,0-1.7,0.8-1.7,1.7c0,0.6,0.3,1.2,0.8,1.5v1.8
				c0,0.2,0.2,0.5,0.5,0.5h0.8c0.2,0,0.5-0.2,0.5-0.5v-1.8c0.5-0.3,0.8-0.8,0.8-1.5C154.2,205.2,153.4,204.5,152.5,204.5z"/>
		</g>
	</g>
</g>
<g>
	<circle fill="#0091DA" cx="324.6" cy="165.1" r="21.1"/>
	<g>
		<path fill="#FFFFFF" d="M317,169.9c-0.2,0-0.4-0.2-0.4-0.4c0-4.4,3.6-8,8-8c0.2,0,0.4,0.2,0.4,0.4s-0.2,0.4-0.4,0.4
			c-4,0-7.2,3.2-7.2,7.2C317.4,169.7,317.2,169.9,317,169.9z"/>
		<g>
			<path fill-rule="evenodd" clip-rule="evenodd" fill="#FFFFFF" d="M330.1,161.1v-5.8c0-2.9-2.3-5.3-5.1-5.3h-0.9
				c-2.8,0-5.1,2.4-5.1,5.3v5.8c-2.9,1.8-4.8,5-4.8,8.7c0,5.7,4.6,10.3,10.3,10.3s10.3-4.6,10.3-10.3
				C334.9,166.1,333,162.9,330.1,161.1z M319.8,155.3c0-2.5,1.9-4.5,4.3-4.5h0.9c2.4,0,4.3,2,4.3,4.5v5.3c-1.4-0.7-3-1.2-4.8-1.2
				c-1.7,0-3.3,0.4-4.8,1.2v-5.3H319.8z M324.6,179.3c-5.3,0-9.5-4.3-9.5-9.5c0-5.3,4.3-9.5,9.5-9.5c5.3,0,9.5,4.3,9.5,9.5
				S329.8,179.3,324.6,179.3z"/>
			<path fill-rule="evenodd" clip-rule="evenodd" fill="#FFFFFF" d="M324.6,167.1c-0.9,0-1.7,0.8-1.7,1.7c0,0.6,0.3,1.2,0.8,1.5v1.8
				c0,0.2,0.2,0.5,0.5,0.5h0.8c0.2,0,0.5-0.2,0.5-0.5v-1.8c0.5-0.3,0.8-0.8,0.8-1.5C326.3,167.8,325.5,167.1,324.6,167.1z"/>
		</g>
	</g>
</g>
<g>
	<circle fill="#0091DA" cx="152.5" cy="274.7" r="21.1"/>
	<g>
		<path fill="#FFFFFF" d="M144.8,279.5c-0.2,0-0.4-0.2-0.4-0.4c0-4.4,3.6-8,8-8c0.2,0,0.4,0.2,0.4,0.4c0,0.2-0.2,0.4-0.4,0.4
			c-4,0-7.2,3.2-7.2,7.2C145.2,279.3,145.1,279.5,144.8,279.5z"/>
		<g>
			<path fill-rule="evenodd" clip-rule="evenodd" fill="#FFFFFF" d="M158,270.7v-5.8c0-2.9-2.3-5.3-5.1-5.3H152
				c-2.8,0-5.1,2.4-5.1,5.3v5.8c-2.9,1.8-4.8,5-4.8,8.7c0,5.7,4.6,10.3,10.3,10.3s10.3-4.6,10.3-10.3
				C162.8,275.7,160.9,272.5,158,270.7z M147.7,264.9c0-2.5,1.9-4.5,4.3-4.5h0.9c2.4,0,4.3,2,4.3,4.5v5.3c-1.4-0.7-3-1.2-4.8-1.2
				c-1.7,0-3.3,0.4-4.8,1.2v-5.3H147.7z M152.5,288.9c-5.3,0-9.5-4.3-9.5-9.5c0-5.3,4.3-9.5,9.5-9.5s9.5,4.3,9.5,9.5
				S157.7,288.9,152.5,288.9z"/>
			<path fill-rule="evenodd" clip-rule="evenodd" fill="#FFFFFF" d="M152.5,276.7c-0.9,0-1.7,0.8-1.7,1.7c0,0.6,0.3,1.2,0.8,1.5v1.8
				c0,0.2,0.2,0.5,0.5,0.5h0.8c0.2,0,0.5-0.2,0.5-0.5v-1.8c0.5-0.3,0.8-0.8,0.8-1.5C154.2,277.4,153.4,276.7,152.5,276.7z"/>
		</g>
	</g>
</g>
<g>
	<circle fill="#0091DA" cx="152.5" cy="346.9" r="21.1"/>
	<g>
		<path fill="#FFFFFF" d="M144.8,351.7c-0.2,0-0.4-0.2-0.4-0.4c0-4.4,3.6-8,8-8c0.2,0,0.4,0.2,0.4,0.4s-0.2,0.4-0.4,0.4
			c-4,0-7.2,3.2-7.2,7.2C145.2,351.5,145.1,351.7,144.8,351.7z"/>
		<g>
			<path fill-rule="evenodd" clip-rule="evenodd" fill="#FFFFFF" d="M158,342.9v-5.8c0-2.9-2.3-5.3-5.1-5.3H152
				c-2.8,0-5.1,2.4-5.1,5.3v5.8c-2.9,1.8-4.8,5-4.8,8.7c0,5.7,4.6,10.3,10.3,10.3s10.3-4.6,10.3-10.3
				C162.8,347.9,160.9,344.7,158,342.9z M147.7,337.1c0-2.5,1.9-4.5,4.3-4.5h0.9c2.4,0,4.3,2,4.3,4.5v5.3c-1.4-0.7-3-1.2-4.8-1.2
				c-1.7,0-3.3,0.4-4.8,1.2v-5.3H147.7z M152.5,361.1c-5.3,0-9.5-4.3-9.5-9.5c0-5.3,4.3-9.5,9.5-9.5s9.5,4.3,9.5,9.5
				C162,356.8,157.7,361.1,152.5,361.1z"/>
			<path fill-rule="evenodd" clip-rule="evenodd" fill="#FFFFFF" d="M152.5,348.9c-0.9,0-1.7,0.8-1.7,1.7c0,0.6,0.3,1.2,0.8,1.5v1.8
				c0,0.2,0.2,0.5,0.5,0.5h0.8c0.2,0,0.5-0.2,0.5-0.5V352c0.5-0.3,0.8-0.8,0.8-1.5C154.2,349.6,153.4,348.9,152.5,348.9z"/>
		</g>
	</g>
</g>
<text transform="matrix(1 0 0 1 464.7439 58.076)" font-family="'Metropolis-Regular'" font-size="14px">Users</text>
<g>
	<g>
		<circle fill="#717074" cx="573.8" cy="27.4" r="21.1"/>
		<g>
			<path fill="#FFFFFF" d="M573.8,26.7c4.8,0,9.2,2,12.5,5.7c0.2,0.3,0.4,0.6,0.4,1v5.8c0,0.8-0.6,1.4-1.3,1.4h-23.2
				c-0.7,0-1.3-0.6-1.3-1.4v-5.8c0-0.4,0.1-0.7,0.4-1c0.2-0.2,0.4-0.5,0.7-0.7C565.2,28.5,569.4,26.7,573.8,26.7 M573.8,25.9
				c-4.5,0-8.9,1.7-12.4,5.2c-0.2,0.2-0.5,0.5-0.7,0.7c-0.4,0.4-0.6,1-0.6,1.5v5.8c0,1.2,0.9,2.2,2.1,2.2h23.2c1.2,0,2.1-1,2.1-2.2
				v-5.8c0-0.6-0.2-1.1-0.6-1.5C583.4,27.9,578.6,25.9,573.8,25.9L573.8,25.9z"/>
			<path fill="#FFFFFF" d="M573.8,10.5c3.6,0,6.6,2.9,6.6,6.6c0,3.6-2.9,6.6-6.6,6.6c-3.6,0-6.6-2.9-6.6-6.6
				C567.2,13.4,570.2,10.5,573.8,10.5 M573.8,9.6c-4.1,0-7.4,3.3-7.4,7.4s3.3,7.4,7.4,7.4c4.1,0,7.4-3.3,7.4-7.4
				S577.9,9.6,573.8,9.6L573.8,9.6z"/>
		</g>
	</g>
	<g>
		<circle fill="#717074" cx="639.4" cy="27.4" r="21.1"/>
		<g>
			<path fill="#FFFFFF" d="M639.4,26.7c4.8,0,9.2,2,12.5,5.7c0.2,0.3,0.4,0.6,0.4,1v5.8c0,0.8-0.6,1.4-1.3,1.4h-23.2
				c-0.7,0-1.3-0.6-1.3-1.4v-5.8c0-0.4,0.1-0.7,0.4-1c0.2-0.2,0.4-0.5,0.7-0.7C630.8,28.5,635,26.7,639.4,26.7 M639.4,25.9
				c-4.5,0-8.9,1.7-12.4,5.2c-0.2,0.2-0.5,0.5-0.7,0.7c-0.4,0.4-0.6,1-0.6,1.5v5.8c0,1.2,0.9,2.2,2.1,2.2H651c1.2,0,2.1-1,2.1-2.2
				v-5.8c0-0.6-0.2-1.1-0.6-1.5C649,27.9,644.2,25.9,639.4,25.9L639.4,25.9z"/>
			<path fill="#FFFFFF" d="M639.4,10.5c3.6,0,6.6,2.9,6.6,6.6c0,3.6-2.9,6.6-6.6,6.6c-3.6,0-6.6-2.9-6.6-6.6S635.8,10.5,639.4,10.5
				 M639.4,9.6c-4.1,0-7.4,3.3-7.4,7.4s3.3,7.4,7.4,7.4c4.1,0,7.4-3.3,7.4-7.4S643.5,9.6,639.4,9.6L639.4,9.6z"/>
		</g>
	</g>
	<g>
		<circle fill="#717074" cx="573.8" cy="80.7" r="21.1"/>
		<g>
			<path fill="#FFFFFF" d="M573.8,80c4.8,0,9.2,2,12.5,5.7c0.2,0.3,0.4,0.6,0.4,1v5.8c0,0.8-0.6,1.4-1.3,1.4h-23.2
				c-0.7,0-1.3-0.6-1.3-1.4v-5.8c0-0.4,0.1-0.7,0.4-1c0.2-0.2,0.4-0.5,0.7-0.7C565.2,81.8,569.4,80,573.8,80 M573.8,79.2
				c-4.5,0-8.9,1.7-12.4,5.2c-0.2,0.2-0.5,0.5-0.7,0.7c-0.4,0.4-0.6,1-0.6,1.5v5.8c0,1.2,0.9,2.2,2.1,2.2h23.2c1.2,0,2.1-1,2.1-2.2
				v-5.8c0-0.6-0.2-1.1-0.6-1.5C583.4,81.2,578.6,79.2,573.8,79.2L573.8,79.2z"/>
			<path fill="#FFFFFF" d="M573.8,63.8c3.6,0,6.6,2.9,6.6,6.6s-2.9,6.6-6.6,6.6c-3.6,0-6.6-2.9-6.6-6.6S570.2,63.8,573.8,63.8
				 M573.8,62.9c-4.1,0-7.4,3.3-7.4,7.4s3.3,7.4,7.4,7.4c4.1,0,7.4-3.3,7.4-7.4S577.9,62.9,573.8,62.9L573.8,62.9z"/>
		</g>
	</g>
	<g>
		<circle fill="#717074" cx="639.4" cy="80.7" r="21.1"/>
		<g>
			<path fill="#FFFFFF" d="M639.4,80c4.8,0,9.2,2,12.5,5.7c0.2,0.3,0.4,0.6,0.4,1v5.8c0,0.8-0.6,1.4-1.3,1.4h-23.2
				c-0.7,0-1.3-0.6-1.3-1.4v-5.8c0-0.4,0.1-0.7,0.4-1c0.2-0.2,0.4-0.5,0.7-0.7C630.8,81.8,635,80,639.4,80 M639.4,79.2
				c-4.5,0-8.9,1.7-12.4,5.2c-0.2,0.2-0.5,0.5-0.7,0.7c-0.4,0.4-0.6,1-0.6,1.5v5.8c0,1.2,0.9,2.2,2.1,2.2H651c1.2,0,2.1-1,2.1-2.2
				v-5.8c0-0.6-0.2-1.1-0.6-1.5C649,81.2,644.2,79.2,639.4,79.2L639.4,79.2z"/>
			<path fill="#FFFFFF" d="M639.4,63.8c3.6,0,6.6,2.9,6.6,6.6s-2.9,6.6-6.6,6.6c-3.6,0-6.6-2.9-6.6-6.6S635.8,63.8,639.4,63.8
				 M639.4,62.9c-4.1,0-7.4,3.3-7.4,7.4s3.3,7.4,7.4,7.4c4.1,0,7.4-3.3,7.4-7.4S643.5,62.9,639.4,62.9L639.4,62.9z"/>
		</g>
	</g>
</g>
<line fill="none" stroke="#717074" stroke-miterlimit="10" stroke-dasharray="4" x1="425.8" y1="347.5" x2="467.1" y2="347.5"/>
<g>
	<g>
		<polyline fill="none" stroke="#717074" stroke-miterlimit="10" stroke-dasharray="4,4" points="149,117.3 149,127.6 270.8,127.6 
			270.8,183 		"/>
		<g>
			<polygon fill="#717074" points="144,118.8 149,110.1 154,118.8 			"/>
		</g>
	</g>
</g>
<g>
	<g>
		<polyline fill="none" stroke="#717074" stroke-miterlimit="10" stroke-dasharray="4,4" points="213.6,117.3 213.6,121.1 
			280.3,121.1 280.3,181.9 		"/>
		<g>
			<polygon fill="#717074" points="208.7,118.8 213.6,110.1 218.6,118.8 			"/>
		</g>
	</g>
</g>
<g>
	<g>
		<polyline fill="none" stroke="#717074" stroke-miterlimit="10" stroke-dasharray="4,4" points="290,174.7 290,128.5 639.4,128.5 
			639.4,117.3 		"/>
		<g>
			<polygon fill="#717074" points="294.9,173.3 290,181.9 285,173.3 			"/>
		</g>
		<g>
			<polygon fill="#717074" points="644.4,118.8 639.4,110.1 634.4,118.8 			"/>
		</g>
	</g>
</g>
<g>
	<g>
		<line fill="none" stroke="#717074" stroke-miterlimit="10" stroke-dasharray="4,4" x1="573.8" y1="117.3" x2="573.8" y2="128.5"/>
		<g>
			<polygon fill="#717074" points="568.8,118.8 573.8,110.1 578.8,118.8 			"/>
		</g>
	</g>
</g>
<rect x="678.3" y="135.2" fill="#F8981D" width="128" height="146.8"/>
<rect x="684.4" y="144.2" fill="none" stroke="#FFFFFF" stroke-miterlimit="10" width="36.2" height="88.5"/>
<rect x="724.3" y="144.2" fill="none" stroke="#FFFFFF" stroke-miterlimit="10" width="36.2" height="88.5"/>
<rect x="684.3" y="236.9" fill="none" stroke="#FFFFFF" stroke-miterlimit="10" width="116" height="36.2"/>
<rect x="764.2" y="144.2" fill="none" stroke="#FFFFFF" stroke-miterlimit="10" width="36.2" height="88.5"/>
<text transform="matrix(6.123234e-17 1 -1 6.123234e-17 698.4866 162.1177)" fill="#FFFFFF" font-family="'Metropolis-Regular'" font-size="14px">Process</text>
<text transform="matrix(6.123234e-17 1 -1 6.123234e-17 738.3928 162.1175)" fill="#FFFFFF" font-family="'Metropolis-Regular'" font-size="14px">Process</text>
<text transform="matrix(6.123234e-17 1 -1 6.123234e-17 778.2991 162.1179)" fill="#FFFFFF" font-family="'Metropolis-Regular'" font-size="14px">Process</text>
<text transform="matrix(1 0 0 1 732.3766 259.0078)" fill="#FFFFFF" font-family="'Metropolis-Regular'" font-size="14px">OS</text>
<polygon fill="#78BE20" points="124.7,117.3 124.7,80.7 10.8,80.7 10.8,132.1 124.7,132.1 124.7,132.1 241.4,187.4 "/>
<text transform="matrix(1 0 0 1 15.944 101.9966)" fill="#FFFFFF" font-family="'Metropolis-Regular'" font-size="12px">Policies align with</text>
<text transform="matrix(1 0 0 1 22.844 116.3966)" fill="#FFFFFF" font-family="'Metropolis-Regular'" font-size="12px">logical groups. </text>
</svg>
