<?xml version="1.0" encoding="UTF-8" standalone="no"?>
<svg
   xmlns:dc="http://purl.org/dc/elements/1.1/"
   xmlns:cc="http://creativecommons.org/ns#"
   xmlns:rdf="http://www.w3.org/1999/02/22-rdf-syntax-ns#"
   xmlns:svg="http://www.w3.org/2000/svg"
   xmlns="http://www.w3.org/2000/svg"
   xmlns:sodipodi="http://sodipodi.sourceforge.net/DTD/sodipodi-0.dtd"
   xmlns:inkscape="http://www.inkscape.org/namespaces/inkscape"
   version="1.1"
   id="Layer_1"
   x="0px"
   y="0px"
   viewBox="0 0 639.8 216.8"
   enable-background="new 0 0 639.8 216.8"
   xml:space="preserve"
   sodipodi:docname="Hybrid Cloud Extension Overview.svg"
   inkscape:version="1.0 (4035a4fb49, 2020-05-01)"><metadata
   id="metadata1981"><rdf:RDF><cc:Work
       rdf:about=""><dc:format>image/svg+xml</dc:format><dc:type
         rdf:resource="http://purl.org/dc/dcmitype/StillImage" /></cc:Work></rdf:RDF></metadata><defs
   id="defs1979" /><sodipodi:namedview
   inkscape:document-rotation="0"
   pagecolor="#ffffff"
   bordercolor="#666666"
   borderopacity="1"
   objecttolerance="10"
   gridtolerance="10"
   guidetolerance="10"
   inkscape:pageopacity="0"
   inkscape:pageshadow="2"
   inkscape:window-width="1920"
   inkscape:window-height="1017"
   id="namedview1977"
   showgrid="false"
   inkscape:zoom="1.7130354"
   inkscape:cx="319.89999"
   inkscape:cy="108.4"
   inkscape:window-x="1912"
   inkscape:window-y="-8"
   inkscape:window-maximized="1"
   inkscape:current-layer="Layer_1" />
<rect
   fill="#FFFFFF"
   width="639.8"
   height="216.8"
   id="rect1838" />
<g
   id="g1866">
	<rect
   x="48.4"
   y="87.6"
   fill="#19BFD3"
   width="9.8"
   height="2"
   id="rect1840" />
	<rect
   x="62.2"
   y="87.6"
   fill="#19BFD3"
   width="9.8"
   height="2"
   id="rect1842" />
	<rect
   x="75.9"
   y="87.6"
   fill="#19BFD3"
   width="9.8"
   height="2"
   id="rect1844" />
	<rect
   x="89.7"
   y="87.6"
   fill="#19BFD3"
   width="9.8"
   height="2"
   id="rect1846" />
	<rect
   x="48.4"
   y="102.8"
   fill="#19BFD3"
   width="9.8"
   height="2"
   id="rect1848" />
	<rect
   x="62.2"
   y="102.8"
   fill="#19BFD3"
   width="9.8"
   height="2"
   id="rect1850" />
	<rect
   x="75.9"
   y="102.8"
   fill="#19BFD3"
   width="9.8"
   height="2"
   id="rect1852" />
	<rect
   x="89.7"
   y="102.8"
   fill="#19BFD3"
   width="9.8"
   height="2"
   id="rect1854" />
	<rect
   x="48.4"
   y="108.9"
   fill="#19BFD3"
   width="9.8"
   height="9.8"
   id="rect1856" />
	<rect
   x="62.2"
   y="108.9"
   fill="#19BFD3"
   width="9.8"
   height="9.8"
   id="rect1858" />
	<rect
   x="75.9"
   y="108.9"
   fill="#19BFD3"
   width="9.8"
   height="9.8"
   id="rect1860" />
	<rect
   x="89.7"
   y="108.9"
   fill="#19BFD3"
   width="9.8"
   height="9.8"
   id="rect1862" />
	<path
   fill="#19BFD3"
   d="M105.4,123.7V96.2V94V80.5h-9v-3.2H80.6v3.2h-15v-3.2H49.9v3.2h-7.6V94v2.2v27.4h-6.9v2h74.9v-2H105.4z    M103.4,94H48.2v2.2h55.2v27.3H44.4V82.5h59.1L103.4,94L103.4,94z"
   id="path1864" />
</g>
<text
   id="text186_6_"
   transform="matrix(1 0 0 1 16.5576 144.4503)"
   fill="#19BFD3"
   font-family="'Metropolis-Regular'"
   font-size="12px"
   style="-inkscape-font-specification:Metropolis;font-family:Metropolis;font-weight:normal;font-style:normal;font-stretch:normal;font-variant:normal;">Legacy Data Center</text>
<g
   id="g1895">
	<rect
   x="551.4"
   y="87.6"
   fill="#006EA4"
   width="9.8"
   height="2"
   id="rect1869" />
	<rect
   x="565.2"
   y="87.6"
   fill="#006EA4"
   width="9.8"
   height="2"
   id="rect1871" />
	<rect
   x="578.9"
   y="87.6"
   fill="#006EA4"
   width="9.8"
   height="2"
   id="rect1873" />
	<rect
   x="592.7"
   y="87.6"
   fill="#006EA4"
   width="9.8"
   height="2"
   id="rect1875" />
	<rect
   x="551.4"
   y="102.8"
   fill="#006EA4"
   width="9.8"
   height="2"
   id="rect1877" />
	<rect
   x="565.2"
   y="102.8"
   fill="#006EA4"
   width="9.8"
   height="2"
   id="rect1879" />
	<rect
   x="578.9"
   y="102.8"
   fill="#006EA4"
   width="9.8"
   height="2"
   id="rect1881" />
	<rect
   x="592.7"
   y="102.8"
   fill="#006EA4"
   width="9.8"
   height="2"
   id="rect1883" />
	<rect
   x="551.4"
   y="108.9"
   fill="#006EA4"
   width="9.8"
   height="9.8"
   id="rect1885" />
	<rect
   x="565.2"
   y="108.9"
   fill="#006EA4"
   width="9.8"
   height="9.8"
   id="rect1887" />
	<rect
   x="578.9"
   y="108.9"
   fill="#006EA4"
   width="9.8"
   height="9.8"
   id="rect1889" />
	<rect
   x="592.7"
   y="108.9"
   fill="#006EA4"
   width="9.8"
   height="9.8"
   id="rect1891" />
	<path
   fill="#006EA4"
   d="M608.4,123.7V96.2V94V80.5h-9v-3.2h-15.8v3.2h-15v-3.2h-15.8v3.2h-7.6V94v2.2v27.4h-6.9v2h74.9v-2H608.4z    M606.4,94h-55.2v2.2h55.2v27.3h-59.1V82.5h59.1L606.4,94L606.4,94z"
   id="path1893" />
</g>
<text
   id="text186_4_"
   transform="matrix(1 0 0 1 533.4587 144.4503)"
   fill="#020202"
   font-family="'Metropolis-Regular'"
   font-size="12px"
   style="-inkscape-font-specification:Metropolis;font-family:Metropolis;font-weight:normal;font-style:normal;font-stretch:normal;font-variant:normal;">VMware SDDC</text>
<text
   transform="translate(203.0316,17.0196)"
   id="text186_5_"
   enable-background="new    "
   style="line-height:0"><tspan
     x="0"
     y="0"
     fill="#020202"
     font-family="Metropolis-Regular"
     font-size="12px"
     id="tspan1898"
     style="font-style:normal;font-variant:normal;font-weight:normal;font-stretch:normal;font-family:Metropolis;-inkscape-font-specification:Metropolis">Application Migration and Workload Mobility</tspan></text>
<g
   id="g1913">
	<g
   id="g1909">
		<path
   fill="#1E4488"
   d="M275.4,78.6h-3.8l-0.7,1.5h-0.8l3-6.8h0.8l3,6.8h-0.8L275.4,78.6z M275.1,77.8l-1.6-3.6l-1.6,3.6H275.1z"
   id="path1903" />
		<path
   fill="#1E4488"
   d="M278.6,73.3h2.8c1.4,0,2.5,0.9,2.5,2.2c0,1.3-1.1,2.2-2.5,2.2h-2v2.4h-0.8V73.3z M281.2,76.9    c1.1,0,1.9-0.5,1.9-1.4c0-0.9-0.7-1.4-1.9-1.4h-1.8V77L281.2,76.9L281.2,76.9z"
   id="path1905" />
		<path
   fill="#1E4488"
   d="M285.6,73.3h2.8c1.4,0,2.5,0.9,2.5,2.2c0,1.3-1.1,2.2-2.5,2.2h-2v2.4h-0.8V73.3z M288.2,76.9    c1.1,0,1.9-0.5,1.9-1.4c0-0.9-0.7-1.4-1.9-1.4h-1.8V77L288.2,76.9L288.2,76.9z"
   id="path1907" />
	</g>
	<path
   fill="#1E4488"
   d="M294.4,62c0.9,0,1.6,0.7,1.6,1.6V91c0,0.9-0.7,1.6-1.6,1.6h-27.3c-0.9,0-1.6-0.7-1.6-1.6V63.6   c0-0.9,0.7-1.6,1.6-1.6L294.4,62 M294.4,61.2h-27.3c-1.4,0-2.5,1.1-2.5,2.5V91c0,1.4,1.1,2.5,2.5,2.5h27.3c1.4,0,2.5-1.1,2.5-2.5   V63.6C296.9,62.3,295.8,61.2,294.4,61.2L294.4,61.2z"
   id="path1911" />
</g>
<g
   id="g1925">
	<g
   id="g1921">
		<path
   fill="#1E4488"
   d="M486.9,78.6h-3.8l-0.7,1.5h-0.8l3-6.8h0.8l3,6.8h-0.8L486.9,78.6z M486.5,77.8l-1.6-3.6l-1.6,3.6H486.5z"
   id="path1915" />
		<path
   fill="#1E4488"
   d="M490.1,73.3h2.8c1.4,0,2.5,0.9,2.5,2.2c0,1.3-1.1,2.2-2.5,2.2h-2v2.4h-0.8V73.3z M492.7,76.9    c1.1,0,1.9-0.5,1.9-1.4c0-0.9-0.7-1.4-1.9-1.4h-1.8V77L492.7,76.9L492.7,76.9z"
   id="path1917" />
		<path
   fill="#1E4488"
   d="M497,73.3h2.8c1.4,0,2.5,0.9,2.5,2.2c0,1.3-1.1,2.2-2.5,2.2h-2v2.4H497C497,80.1,497,73.3,497,73.3z     M499.6,76.9c1.1,0,1.9-0.5,1.9-1.4c0-0.9-0.7-1.4-1.9-1.4h-1.8V77L499.6,76.9L499.6,76.9z"
   id="path1919" />
	</g>
	<path
   fill="#1E4488"
   d="M505.9,62c0.9,0,1.6,0.7,1.6,1.6V91c0,0.9-0.7,1.6-1.6,1.6h-27.3c-0.9,0-1.6-0.7-1.6-1.6V63.6   c0-0.9,0.7-1.6,1.6-1.6L505.9,62 M505.9,61.2h-27.3c-1.4,0-2.5,1.1-2.5,2.5V91c0,1.4,1.1,2.5,2.5,2.5h27.3c1.4,0,2.5-1.1,2.5-2.5   V63.6C508.3,62.3,507.2,61.2,505.9,61.2L505.9,61.2z"
   id="path1923" />
</g>
<g
   id="g1958">
	
		<text
   id="text186_1_"
   transform="matrix(1 0 0 1 178.0333 206.639)"
   fill="#020202"
   font-family="'Metropolis-Regular'"
   font-size="12px"
   style="-inkscape-font-specification:Metropolis;font-family:Metropolis;font-weight:normal;font-style:normal;font-stretch:normal;font-variant:normal;">Data Center</text>
	
		<text
   id="text186_2_"
   transform="matrix(1 0 0 1 301.0386 206.639)"
   fill="#020202"
   font-family="'Metropolis-Regular'"
   font-size="12px"
   style="-inkscape-font-specification:Metropolis;font-family:Metropolis;font-weight:normal;font-style:normal;font-stretch:normal;font-variant:normal;">Private Cloud</text>
	<g
   id="g1951">
		<path
   fill="#1295D3"
   d="M252.5,185.1v-37.6h-60v-2.6h-20v2.6h-0.1v37.6h-7.6v2.5h95v-2.5H252.5z M175,150h75v7.4h-71v2.5h71V185    h-75V150z"
   id="path1929" />
		<rect
   x="178.7"
   y="166.2"
   fill="#1295D3"
   width="7.5"
   height="2.5"
   id="rect1931" />
		<rect
   x="178.7"
   y="176.2"
   fill="#1295D3"
   width="7.5"
   height="2.5"
   id="rect1933" />
		<rect
   x="193.7"
   y="166.2"
   fill="#1295D3"
   width="7.5"
   height="2.5"
   id="rect1935" />
		<rect
   x="193.7"
   y="176.2"
   fill="#1295D3"
   width="7.5"
   height="2.5"
   id="rect1937" />
		<rect
   x="208.7"
   y="166.2"
   fill="#1295D3"
   width="7.5"
   height="2.5"
   id="rect1939" />
		<rect
   x="208.7"
   y="176.2"
   fill="#1295D3"
   width="7.5"
   height="2.5"
   id="rect1941" />
		<rect
   x="223.7"
   y="166.2"
   fill="#1295D3"
   width="7.5"
   height="2.5"
   id="rect1943" />
		<rect
   x="223.7"
   y="176.2"
   fill="#1295D3"
   width="7.5"
   height="2.5"
   id="rect1945" />
		<rect
   x="238.7"
   y="166.2"
   fill="#1295D3"
   width="7.5"
   height="2.5"
   id="rect1947" />
		<rect
   x="238.7"
   y="176.2"
   fill="#1295D3"
   width="7.5"
   height="2.5"
   id="rect1949" />
	</g>
	<path
   fill="#1E4488"
   d="M349.2,147.2c-6,0-11.1,4-13.4,9.8c-1.5-0.7-3.2-1.1-5-1.2c-0.1,0-0.2,0-0.3,0c-5.9,0-10.8,4.1-12,9.8   c-0.8-0.2-1.6-0.4-2.4-0.4c-0.1,0-0.1,0-0.2,0c-5.3,0-9.6,4.3-9.8,9.6c-0.1,5.4,4.9,10.4,10.2,10.5c0.1,0,0.6,0,1.1,0   c6.5,0,37.4-0.1,43.9-0.1c0.6,0,1,0,1.1,0c0.1,0,0.1,0,0.2,0c5.5,0,10.1-5.2,10.2-11.6c0.1-6.3-3.9-11.6-9.3-12.1   c-0.7-7.9-6.7-14.1-14.1-14.3C349.4,147.2,349.3,147.2,349.2,147.2L349.2,147.2z"
   id="path1953" />
	
		<text
   id="text186_3_"
   transform="matrix(1 0 0 1 421.7177 206.639)"
   fill="#020202"
   font-family="'Metropolis-Regular'"
   font-size="12px"
   style="-inkscape-font-specification:Metropolis;font-family:Metropolis;font-weight:normal;font-style:normal;font-stretch:normal;font-variant:normal;">Public Cloud</text>
	<path
   fill="none"
   stroke="#1E4488"
   stroke-miterlimit="10"
   d="M467.4,147.2c-6,0-11.1,4-13.4,9.8c-1.5-0.7-3.2-1.1-5-1.2   c-0.1,0-0.2,0-0.3,0c-5.9,0-10.8,4.1-12,9.8c-0.8-0.2-1.6-0.4-2.4-0.4c-0.1,0-0.1,0-0.2,0c-5.3,0-9.6,4.3-9.8,9.6   c-0.1,5.4,4.9,10.4,10.2,10.5c0.1,0,0.6,0,1.1,0c6.5,0,37.4-0.1,43.9-0.1c0.6,0,1,0,1.1,0c0.1,0,0.1,0,0.2,0   c5.5,0,10.1-5.2,10.2-11.6c0.1-6.3-3.9-11.6-9.3-12.1c-0.7-7.9-6.7-14.1-14.1-14.3C467.6,147.2,467.5,147.2,467.4,147.2   L467.4,147.2z"
   id="path1956" />
</g>
<rect
   x="525.1"
   y="67.3"
   fill="none"
   stroke="#1E4488"
   stroke-miterlimit="10"
   stroke-dasharray="4"
   width="102.3"
   height="87.3"
   id="rect1960" />
<rect
   x="12.4"
   y="67.3"
   fill="none"
   stroke="#19BFD3"
   stroke-miterlimit="10"
   width="121"
   height="87.3"
   id="rect1962" />
<line
   fill="none"
   stroke="#3E4044"
   stroke-width="2"
   stroke-miterlimit="10"
   x1="133.4"
   y1="111"
   x2="525.1"
   y2="111"
   id="line1964" />
<g
   id="g1974">
	<g
   id="g1972">
		
			<line
   fill="none"
   stroke="#3E4044"
   stroke-width="2"
   stroke-miterlimit="10"
   stroke-dasharray="4,4"
   x1="303.4"
   y1="77"
   x2="462.4"
   y2="77"
   id="line1966" />
		<g
   id="g1970">
			<polygon
   fill="#3E4044"
   points="460.9,82 469.5,77 460.9,72    "
   id="polygon1968" />
		</g>
	</g>
</g>
<text
   y="33.211906"
   x="250.41075"
   style="line-height:0"
   enable-background="new    "
   id="text186_5_-9"><tspan
     style="font-style:normal;font-variant:normal;font-weight:normal;font-stretch:normal;font-family:Metropolis;-inkscape-font-specification:Metropolis"
     id="tspan1898-7"
     font-size="12px"
     font-family="Metropolis-Regular"
     fill="#020202"
     y="33.211906"
     x="250.41075">Platform for VMware SDDCs</tspan></text></svg>
