<?xml version="1.0" encoding="UTF-8" standalone="no"?>
<svg
   xmlns:dc="http://purl.org/dc/elements/1.1/"
   xmlns:cc="http://creativecommons.org/ns#"
   xmlns:rdf="http://www.w3.org/1999/02/22-rdf-syntax-ns#"
   xmlns:svg="http://www.w3.org/2000/svg"
   xmlns="http://www.w3.org/2000/svg"
   xmlns:sodipodi="http://sodipodi.sourceforge.net/DTD/sodipodi-0.dtd"
   xmlns:inkscape="http://www.inkscape.org/namespaces/inkscape"
   version="1.1"
   id="Layer_1"
   x="0px"
   y="0px"
   viewBox="0 0 450.4 446.4"
   enable-background="new 0 0 450.4 446.4"
   xml:space="preserve"
   sodipodi:docname="Implementing Network Virtualization.svg"
   inkscape:version="1.0 (4035a4fb49, 2020-05-01)"><metadata
   id="metadata659"><rdf:RDF><cc:Work
       rdf:about=""><dc:format>image/svg+xml</dc:format><dc:type
         rdf:resource="http://purl.org/dc/dcmitype/StillImage" /></cc:Work></rdf:RDF></metadata><defs
   id="defs657" /><sodipodi:namedview
   inkscape:document-rotation="0"
   pagecolor="#ffffff"
   bordercolor="#666666"
   borderopacity="1"
   objecttolerance="10"
   gridtolerance="10"
   guidetolerance="10"
   inkscape:pageopacity="0"
   inkscape:pageshadow="2"
   inkscape:window-width="1920"
   inkscape:window-height="1017"
   id="namedview655"
   showgrid="false"
   inkscape:zoom="1.4986559"
   inkscape:cx="225.2"
   inkscape:cy="223.2"
   inkscape:window-x="-8"
   inkscape:window-y="-8"
   inkscape:window-maximized="1"
   inkscape:current-layer="Layer_1" />
<rect
   fill="#FFFFFF"
   width="450.4"
   height="446.4"
   id="rect306" />
<rect
   x="162.4"
   y="10.6"
   fill="#ECECEB"
   stroke="#000000"
   stroke-miterlimit="10"
   width="120.7"
   height="95.2"
   id="rect308" />
<rect
   id="rect41_2_"
   x="10.7"
   y="121.5"
   fill="none"
   stroke="#218FCF"
   stroke-miterlimit="10"
   width="111.5"
   height="129.9" />

<rect
   style="stroke-width:1"
   id="rect41_1_"
   x="10.7"
   y="260.29999"
   fill="none"
   stroke="#218fcf"
   stroke-miterlimit="10"
   width="111.5"
   height="75.836319" />
<text
   y="330.70761"
   x="30.040899"
   id="text6_6_"
   font-family="'Metropolis-Regular'"
   font-size="14px"
   style="font-style:normal;font-variant:normal;font-weight:normal;font-stretch:normal;font-family:Metropolis;-inkscape-font-specification:Metropolis">Hypervisor</text>
<text
   id="text6_15_"
   transform="matrix(1 0 0 1 145.975 391.7406)"
   font-family="'Metropolis-Regular'"
   font-size="14px"
   style="-inkscape-font-specification:Metropolis;font-family:Metropolis;font-weight:normal;font-style:normal;font-stretch:normal;font-variant:normal;">Existing Physical Network</text>

<rect
   x="19.2"
   y="184"
   fill="#ECECEB"
   width="40.7"
   height="40.7"
   id="rect316" />
<text
   id="text6_1_"
   transform="matrix(1 0 0 1 28.168 208.2944)"
   font-family="'Metropolis-Regular'"
   font-size="14px"
   style="-inkscape-font-specification:Metropolis;font-family:Metropolis;font-weight:normal;font-style:normal;font-stretch:normal;font-variant:normal;">VM</text>
<rect
   x="72.5"
   y="184"
   fill="#ECECEB"
   width="40.7"
   height="40.7"
   id="rect319" />
<text
   id="text6_2_"
   transform="matrix(1 0 0 1 81.4647 208.2944)"
   font-family="'Metropolis-Regular'"
   font-size="14px"
   style="-inkscape-font-specification:Metropolis;font-family:Metropolis;font-weight:normal;font-style:normal;font-stretch:normal;font-variant:normal;">VM</text>
<rect
   x="19.2"
   y="130.1"
   fill="#1E4488"
   width="40.7"
   height="40.7"
   id="rect322" />
<text
   id="text6_5_"
   transform="matrix(1 0 0 1 28.168 154.4482)"
   fill="#FFFFFF"
   font-family="'Metropolis-Regular'"
   font-size="14px"
   style="-inkscape-font-specification:Metropolis;font-family:Metropolis;font-weight:normal;font-style:normal;font-stretch:normal;font-variant:normal;">VM</text>


<rect
   x="72.5"
   y="130.1"
   fill="#78BE43"
   width="40.7"
   height="40.7"
   id="rect328" />
<text
   id="text6_4_"
   transform="matrix(1 0 0 1 81.4647 154.4482)"
   fill="#FFFFFF"
   font-family="'Metropolis-Regular'"
   font-size="14px"
   style="-inkscape-font-specification:Metropolis;font-family:Metropolis;font-weight:normal;font-style:normal;font-stretch:normal;font-variant:normal;">VM</text>
<g
   id="g351">
	<path
   fill="#3E4044"
   d="M119.2,344.7v23.6H13.1v-23.6H119.2 M122.2,341.7h-112v29.5h112V341.7L122.2,341.7z"
   id="path331" />
	<path
   fill="#3E4044"
   d="M65.9,352.9L65.9,352.9c1.8,0,3.2,1.3,3.5,2.9c0.4,1.9-0.9,3.8-2.9,4.1c-0.2,0-0.4,0-0.6,0   c-1.8,0-3.2-1.3-3.5-2.9c-0.4-1.9,0.9-3.8,2.9-4.1C65.5,352.9,65.7,352.9,65.9,352.9 M65.9,350.6c-0.4,0-0.7,0-0.9,0.1   c-3.2,0.6-5.4,3.5-4.8,6.8c0.5,2.8,2.9,4.9,5.8,4.9c0.4,0,0.7,0,0.9-0.1c3.2-0.6,5.4-3.5,4.8-6.8C71.2,352.6,68.8,350.6,65.9,350.6   L65.9,350.6z"
   id="path333" />
	<g
   id="g341">
		<rect
   x="18.2"
   y="350.6"
   fill="#3E4044"
   width="2.9"
   height="11.8"
   id="rect335" />
		<rect
   x="24.1"
   y="350.6"
   fill="#3E4044"
   width="2.9"
   height="11.8"
   id="rect337" />
		<rect
   x="30"
   y="350.6"
   fill="#3E4044"
   width="2.9"
   height="11.8"
   id="rect339" />
	</g>
	<g
   id="g349">
		<rect
   x="97.6"
   y="350.6"
   fill="#3E4044"
   width="2.9"
   height="11.8"
   id="rect343" />
		<rect
   x="103.5"
   y="350.6"
   fill="#3E4044"
   width="2.9"
   height="11.8"
   id="rect345" />
		<rect
   x="109.4"
   y="350.6"
   fill="#3E4044"
   width="2.9"
   height="11.8"
   id="rect347" />
	</g>
</g>
<rect
   style="stroke-width:1"
   id="rect41_4_"
   x="328.29999"
   y="121.5"
   fill="none"
   stroke="#218fcf"
   stroke-miterlimit="10"
   width="111.5"
   height="128.56546" />

<text
   id="text6_8_"
   transform="matrix(1 0 0 1 170.2779 97.8551)"
   font-family="'Metropolis-Regular'"
   font-size="14px"
   style="-inkscape-font-specification:Metropolis;font-family:Metropolis;font-weight:normal;font-style:normal;font-stretch:normal;font-variant:normal;">Virtual Network</text>
<rect
   style="stroke-width:1"
   id="rect41_3_"
   x="328.29999"
   y="260.29999"
   fill="none"
   stroke="#218fcf"
   stroke-miterlimit="10"
   width="111.5"
   height="77.170845" />
<text
   y="333.38205"
   x="347.62329"
   id="text6_13_"
   font-family="'Metropolis-Regular'"
   font-size="14px"
   style="font-style:normal;font-variant:normal;font-weight:normal;font-stretch:normal;font-family:Metropolis;-inkscape-font-specification:Metropolis">Hypervisor</text>
<rect
   x="336.8"
   y="184"
   fill="#ECECEB"
   width="40.7"
   height="40.7"
   id="rect358" />
<text
   id="text6_12_"
   transform="matrix(1 0 0 1 345.7504 208.2944)"
   font-family="'Metropolis-Regular'"
   font-size="14px"
   style="-inkscape-font-specification:Metropolis;font-family:Metropolis;font-weight:normal;font-style:normal;font-stretch:normal;font-variant:normal;">VM</text>
<rect
   x="390.1"
   y="184"
   fill="#ECECEB"
   width="40.7"
   height="40.7"
   id="rect361" />
<text
   id="text6_11_"
   transform="matrix(1 0 0 1 399.0471 208.2944)"
   font-family="'Metropolis-Regular'"
   font-size="14px"
   style="-inkscape-font-specification:Metropolis;font-family:Metropolis;font-weight:normal;font-style:normal;font-stretch:normal;font-variant:normal;">VM</text>
<rect
   x="363.2"
   y="130.1"
   fill="#1E4488"
   width="40.7"
   height="40.7"
   id="rect364" />
<text
   id="text6_10_"
   transform="matrix(1 0 0 1 372.1483 154.4482)"
   fill="#FFFFFF"
   font-family="'Metropolis-Regular'"
   font-size="14px"
   style="-inkscape-font-specification:Metropolis;font-family:Metropolis;font-weight:normal;font-style:normal;font-stretch:normal;font-variant:normal;">VM</text>
<rect
   style="stroke-width:1"
   x="334.29999"
   y="263.70001"
   fill="#218fcf"
   width="99.5"
   height="54.045292"
   id="rect367" />
<text
   y="277.96359"
   x="384.09058"
   id="text6_9_"
   fill="#ffffff"
   font-family="'Metropolis-Regular'"
   font-size="14px"
   style="font-style:normal;font-variant:normal;font-weight:normal;font-stretch:normal;font-family:Metropolis;-inkscape-font-specification:Metropolis"><tspan
     style="text-align:center;text-anchor:middle"
     y="277.96359"
     x="384.09058"
     id="tspan1015"
     sodipodi:role="line">Netork </tspan><tspan
     style="text-align:center;text-anchor:middle"
     y="295.46359"
     x="384.09058"
     id="tspan1017"
     sodipodi:role="line">Virtualization</tspan><tspan
     style="text-align:center;text-anchor:middle"
     id="tspan1019"
     y="312.96359"
     x="384.09058"
     sodipodi:role="line">Platform</tspan></text>
<g
   id="g390">
	<path
   fill="#3E4044"
   d="M436.8,344.7v23.6H330.7v-23.6H436.8 M439.7,341.7h-112v29.5h112V341.7L439.7,341.7z"
   id="path370" />
	<path
   fill="#3E4044"
   d="M383.5,352.9L383.5,352.9c1.8,0,3.2,1.3,3.5,2.9c0.4,1.9-0.9,3.8-2.9,4.1c-0.2,0-0.4,0-0.6,0   c-1.8,0-3.2-1.3-3.5-2.9c-0.4-1.9,0.9-3.8,2.9-4.1C383.1,352.9,383.3,352.9,383.5,352.9 M383.5,350.6c-0.4,0-0.7,0-0.9,0.1   c-3.2,0.6-5.4,3.5-4.8,6.8c0.5,2.8,2.9,4.9,5.8,4.9c0.4,0,0.7,0,0.9-0.1c3.2-0.6,5.4-3.5,4.8-6.8   C388.8,352.6,386.4,350.6,383.5,350.6L383.5,350.6z"
   id="path372" />
	<g
   id="g380">
		<rect
   x="335.8"
   y="350.6"
   fill="#3E4044"
   width="2.9"
   height="11.8"
   id="rect374" />
		<rect
   x="341.7"
   y="350.6"
   fill="#3E4044"
   width="2.9"
   height="11.8"
   id="rect376" />
		<rect
   x="347.6"
   y="350.6"
   fill="#3E4044"
   width="2.9"
   height="11.8"
   id="rect378" />
	</g>
	<g
   id="g388">
		<rect
   x="415.2"
   y="350.6"
   fill="#3E4044"
   width="2.9"
   height="11.8"
   id="rect382" />
		<rect
   x="421.1"
   y="350.6"
   fill="#3E4044"
   width="2.9"
   height="11.8"
   id="rect384" />
		<rect
   x="427"
   y="350.6"
   fill="#3E4044"
   width="2.9"
   height="11.8"
   id="rect386" />
	</g>
</g>
<g
   id="g430">
	<g
   id="g396">
		<g
   id="g394">
			<rect
   x="188.9"
   y="21"
   fill="#686B70"
   width="4.8"
   height="1.7"
   id="rect392" />
		</g>
	</g>
	<g
   id="g402">
		<g
   id="g400">
			<rect
   x="201.4"
   y="21"
   fill="#686B70"
   width="4.8"
   height="1.7"
   id="rect398" />
		</g>
	</g>
	<g
   id="g408">
		<g
   id="g406">
			<rect
   x="214"
   y="21"
   fill="#686B70"
   width="4.8"
   height="1.7"
   id="rect404" />
		</g>
	</g>
	<g
   id="g414">
		<g
   id="g412">
			<rect
   x="226.5"
   y="21"
   fill="#686B70"
   width="4.8"
   height="1.7"
   id="rect410" />
		</g>
	</g>
	<g
   id="g420">
		<g
   id="g418">
			<rect
   x="239.1"
   y="21"
   fill="#686B70"
   width="4.8"
   height="1.7"
   id="rect416" />
		</g>
	</g>
	<g
   id="g426">
		<g
   id="g424">
			<rect
   x="251.6"
   y="21"
   fill="#686B70"
   width="4.8"
   height="1.7"
   id="rect422" />
		</g>
	</g>
	<path
   fill="#686B70"
   d="M269.5,28.4h-93.8V15.2h93.8V28.4z M178.2,25.9H267v-8.2h-88.8V25.9z"
   id="path428" />
</g>
<g
   id="g470">
	<g
   id="g436">
		<g
   id="g434">
			<rect
   x="188.9"
   y="37.2"
   fill="#686B70"
   width="4.8"
   height="1.7"
   id="rect432" />
		</g>
	</g>
	<g
   id="g442">
		<g
   id="g440">
			<rect
   x="201.4"
   y="37.2"
   fill="#686B70"
   width="4.8"
   height="1.7"
   id="rect438" />
		</g>
	</g>
	<g
   id="g448">
		<g
   id="g446">
			<rect
   x="214"
   y="37.2"
   fill="#686B70"
   width="4.8"
   height="1.7"
   id="rect444" />
		</g>
	</g>
	<g
   id="g454">
		<g
   id="g452">
			<rect
   x="226.5"
   y="37.2"
   fill="#686B70"
   width="4.8"
   height="1.7"
   id="rect450" />
		</g>
	</g>
	<g
   id="g460">
		<g
   id="g458">
			<rect
   x="239.1"
   y="37.2"
   fill="#686B70"
   width="4.8"
   height="1.7"
   id="rect456" />
		</g>
	</g>
	<g
   id="g466">
		<g
   id="g464">
			<rect
   x="251.6"
   y="37.2"
   fill="#686B70"
   width="4.8"
   height="1.7"
   id="rect462" />
		</g>
	</g>
	<path
   fill="#686B70"
   d="M269.5,44.6h-93.8V31.4h93.8V44.6z M178.2,42.1H267v-8.2h-88.8V42.1z"
   id="path468" />
</g>
<g
   id="g510">
	<g
   id="g476">
		<g
   id="g474">
			<rect
   x="188.9"
   y="53.5"
   fill="#686B70"
   width="4.8"
   height="1.7"
   id="rect472" />
		</g>
	</g>
	<g
   id="g482">
		<g
   id="g480">
			<rect
   x="201.4"
   y="53.5"
   fill="#686B70"
   width="4.8"
   height="1.7"
   id="rect478" />
		</g>
	</g>
	<g
   id="g488">
		<g
   id="g486">
			<rect
   x="214"
   y="53.5"
   fill="#686B70"
   width="4.8"
   height="1.7"
   id="rect484" />
		</g>
	</g>
	<g
   id="g494">
		<g
   id="g492">
			<rect
   x="226.5"
   y="53.5"
   fill="#686B70"
   width="4.8"
   height="1.7"
   id="rect490" />
		</g>
	</g>
	<g
   id="g500">
		<g
   id="g498">
			<rect
   x="239.1"
   y="53.5"
   fill="#686B70"
   width="4.8"
   height="1.7"
   id="rect496" />
		</g>
	</g>
	<g
   id="g506">
		<g
   id="g504">
			<rect
   x="251.6"
   y="53.5"
   fill="#686B70"
   width="4.8"
   height="1.7"
   id="rect502" />
		</g>
	</g>
	<path
   fill="#686B70"
   d="M269.5,60.9h-93.8V47.7h93.8V60.9z M178.2,58.4H267v-8.2h-88.8V58.4z"
   id="path508" />
</g>
<g
   id="g550">
	<g
   id="g516">
		<g
   id="g514">
			<rect
   x="188.9"
   y="69.7"
   fill="#686B70"
   width="4.8"
   height="1.7"
   id="rect512" />
		</g>
	</g>
	<g
   id="g522">
		<g
   id="g520">
			<rect
   x="201.4"
   y="69.7"
   fill="#686B70"
   width="4.8"
   height="1.7"
   id="rect518" />
		</g>
	</g>
	<g
   id="g528">
		<g
   id="g526">
			<rect
   x="214"
   y="69.7"
   fill="#686B70"
   width="4.8"
   height="1.7"
   id="rect524" />
		</g>
	</g>
	<g
   id="g534">
		<g
   id="g532">
			<rect
   x="226.5"
   y="69.7"
   fill="#686B70"
   width="4.8"
   height="1.7"
   id="rect530" />
		</g>
	</g>
	<g
   id="g540">
		<g
   id="g538">
			<rect
   x="239.1"
   y="69.7"
   fill="#686B70"
   width="4.8"
   height="1.7"
   id="rect536" />
		</g>
	</g>
	<g
   id="g546">
		<g
   id="g544">
			<rect
   x="251.6"
   y="69.7"
   fill="#686B70"
   width="4.8"
   height="1.7"
   id="rect542" />
		</g>
	</g>
	<path
   fill="#686B70"
   d="M269.5,77.1h-93.8V63.9h93.8V77.1z M178.2,74.6H267v-8.2h-88.8V74.6z"
   id="path548" />
</g>
<g
   id="Networking__x2B__Security_EXP_AQ">
	<path
   d="M209.9,328.2V370H168v-41.9H209.9 M211,327h-44.2v44.2H211V327L211,327z"
   id="path552" />
	<g
   id="g562">
		<polygon
   points="198.6,338.8 204,335.7 198.6,332.5 198.6,334.5 173.8,334.5 173.8,336.9 198.6,336.9   "
   id="polygon554" />
		<polygon
   points="179.2,360.4 173.8,363.6 179.2,366.7 179.2,364.8 204,364.8 204,362.4 179.2,362.4   "
   id="polygon556" />
		<polygon
   points="198.6,353.1 173.8,353.1 173.8,355.5 198.6,355.5 198.6,357.4 204,354.3 198.6,351.1   "
   id="polygon558" />
		<polygon
   points="173.8,345 179.2,348.1 179.2,346.2 204,346.2 204,343.8 179.2,343.8 179.2,341.8   "
   id="polygon560" />
	</g>
</g>
<g
   id="Networking__x2B__Security_EXP_AQ_1_">
	<path
   d="M290.3,328.2V370h-41.9v-41.9H290.3 M291.5,327h-44.2v44.2h44.2V327L291.5,327z"
   id="path565" />
	<g
   id="g575">
		<polygon
   points="279,338.8 284.5,335.7 279,332.5 279,334.5 254.2,334.5 254.2,336.9 279,336.9   "
   id="polygon567" />
		<polygon
   points="259.6,360.4 254.2,363.6 259.6,366.7 259.6,364.8 284.5,364.8 284.5,362.4 259.6,362.4   "
   id="polygon569" />
		<polygon
   points="279,353.1 254.2,353.1 254.2,355.5 279,355.5 279,357.4 284.5,354.3 279,351.1   "
   id="polygon571" />
		<polygon
   points="254.2,345 259.6,348.1 259.6,346.2 284.5,346.2 284.5,343.8 259.6,343.8 259.6,341.8   "
   id="polygon573" />
	</g>
</g>
<g
   id="Networking__x2B__Security_EXP_AQ_3_">
	<path
   d="M209.9,252.5v41.9H168v-41.9H209.9 M211,251.3h-44.2v44.2H211V251.3L211,251.3z"
   id="path578" />
	<g
   id="g588">
		<polygon
   points="198.6,263.2 204,260 198.6,256.9 198.6,258.9 173.8,258.9 173.8,261.2 198.6,261.2   "
   id="polygon580" />
		<polygon
   points="179.2,284.8 173.8,288 179.2,291.1 179.2,289.1 204,289.1 204,286.8 179.2,286.8   "
   id="polygon582" />
		<polygon
   points="198.6,277.5 173.8,277.5 173.8,279.8 198.6,279.8 198.6,281.8 204,278.7 198.6,275.5   "
   id="polygon584" />
		<polygon
   points="173.8,269.3 179.2,272.5 179.2,270.5 204,270.5 204,268.2 179.2,268.2 179.2,266.2   "
   id="polygon586" />
	</g>
</g>
<g
   id="Networking__x2B__Security_EXP_AQ_2_">
	<path
   d="M290.3,252.5v41.9h-41.9v-41.9H290.3 M291.5,251.3h-44.2v44.2h44.2V251.3L291.5,251.3z"
   id="path591" />
	<g
   id="g601">
		<polygon
   points="279,263.2 284.5,260 279,256.9 279,258.9 254.2,258.9 254.2,261.2 279,261.2   "
   id="polygon593" />
		<polygon
   points="259.6,284.8 254.2,288 259.6,291.1 259.6,289.1 284.5,289.1 284.5,286.8 259.6,286.8   "
   id="polygon595" />
		<polygon
   points="279,277.5 254.2,277.5 254.2,279.8 279,279.8 279,281.8 284.5,278.7 279,275.5   "
   id="polygon597" />
		<polygon
   points="254.2,269.3 259.6,272.5 259.6,270.5 284.5,270.5 284.5,268.2 259.6,268.2 259.6,266.2   "
   id="polygon599" />
	</g>
</g>
<line
   fill="none"
   stroke="#000000"
   stroke-width="2"
   stroke-miterlimit="10"
   x1="122.2"
   y1="356.5"
   x2="166.8"
   y2="356.5"
   id="line604" />
<line
   fill="none"
   stroke="#000000"
   stroke-width="2"
   stroke-miterlimit="10"
   x1="291.5"
   y1="356.5"
   x2="327.8"
   y2="356.5"
   id="line606" />
<line
   fill="none"
   stroke="#000000"
   stroke-width="2"
   stroke-miterlimit="10"
   x1="188.9"
   y1="295.5"
   x2="188.9"
   y2="327"
   id="line608" />
<line
   fill="none"
   stroke="#000000"
   stroke-width="2"
   stroke-miterlimit="10"
   x1="270.4"
   y1="295.5"
   x2="270.4"
   y2="327"
   id="line610" />
<g
   id="g624">
	<g
   id="g622">
		<line
   fill="none"
   stroke="#78BE43"
   stroke-width="2"
   stroke-miterlimit="10"
   x1="92.8"
   y1="130.1"
   x2="92.8"
   y2="127.1"
   id="line612" />
		
			<line
   fill="none"
   stroke="#78BE43"
   stroke-width="2"
   stroke-miterlimit="10"
   stroke-dasharray="5.4761,5.4761"
   x1="92.8"
   y1="121.7"
   x2="92.8"
   y2="69.6"
   id="line614" />
		<polyline
   fill="none"
   stroke="#78BE43"
   stroke-width="2"
   stroke-miterlimit="10"
   points="92.8,66.9 92.8,63.9 95.8,63.9   "
   id="polyline616" />
		
			<line
   fill="none"
   stroke="#78BE43"
   stroke-width="2"
   stroke-miterlimit="10"
   stroke-dasharray="5.7817,5.7817"
   x1="101.6"
   y1="63.9"
   x2="156.5"
   y2="63.9"
   id="line618" />
		<line
   fill="none"
   stroke="#78BE43"
   stroke-width="2"
   stroke-miterlimit="10"
   x1="159.4"
   y1="63.9"
   x2="162.4"
   y2="63.9"
   id="line620" />
	</g>
</g>
<g
   id="g638">
	<g
   id="g636">
		<line
   fill="none"
   stroke="#1E4488"
   stroke-width="2"
   stroke-miterlimit="10"
   x1="39.5"
   y1="130.1"
   x2="39.5"
   y2="127.1"
   id="line626" />
		
			<line
   fill="none"
   stroke="#1E4488"
   stroke-width="2"
   stroke-miterlimit="10"
   stroke-dasharray="6.4205,6.4205"
   x1="39.5"
   y1="120.7"
   x2="39.5"
   y2="46.9"
   id="line628" />
		<polyline
   fill="none"
   stroke="#1E4488"
   stroke-width="2"
   stroke-miterlimit="10"
   points="39.5,43.7 39.5,40.7 42.5,40.7   "
   id="polyline630" />
		
			<line
   fill="none"
   stroke="#1E4488"
   stroke-width="2"
   stroke-miterlimit="10"
   stroke-dasharray="6.1524,6.1524"
   x1="48.7"
   y1="40.7"
   x2="156.4"
   y2="40.7"
   id="line632" />
		<line
   fill="none"
   stroke="#1E4488"
   stroke-width="2"
   stroke-miterlimit="10"
   x1="159.4"
   y1="40.7"
   x2="162.4"
   y2="40.7"
   id="line634" />
	</g>
</g>
<g
   id="g652">
	<g
   id="g650">
		<line
   fill="none"
   stroke="#1E4488"
   stroke-width="2"
   stroke-miterlimit="10"
   x1="383.5"
   y1="130.1"
   x2="383.5"
   y2="127.1"
   id="line640" />
		
			<line
   fill="none"
   stroke="#1E4488"
   stroke-width="2"
   stroke-miterlimit="10"
   stroke-dasharray="6.4205,6.4205"
   x1="383.5"
   y1="120.7"
   x2="383.5"
   y2="46.9"
   id="line642" />
		<polyline
   fill="none"
   stroke="#1E4488"
   stroke-width="2"
   stroke-miterlimit="10"
   points="383.5,43.7 383.5,40.7 380.5,40.7   "
   id="polyline644" />
		
			<line
   fill="none"
   stroke="#1E4488"
   stroke-width="2"
   stroke-miterlimit="10"
   stroke-dasharray="6.2892,6.2892"
   x1="374.2"
   y1="40.7"
   x2="289.3"
   y2="40.7"
   id="line646" />
		<line
   fill="none"
   stroke="#1E4488"
   stroke-width="2"
   stroke-miterlimit="10"
   x1="286.2"
   y1="40.7"
   x2="283.2"
   y2="40.7"
   id="line648" />
	</g>
</g>
<rect
   id="rect367-6"
   height="54.045292"
   width="99.5"
   fill="#218fcf"
   y="263.22668"
   x="17.887657"
   style="stroke-width:1" /><text
   style="font-style:normal;font-variant:normal;font-weight:normal;font-stretch:normal;font-family:Metropolis;-inkscape-font-specification:Metropolis"
   font-size="14px"
   font-family="'Metropolis-Regular'"
   fill="#ffffff"
   id="text6_9_-2"
   x="67.678253"
   y="277.49026"><tspan
     sodipodi:role="line"
     id="tspan1015-1"
     x="67.678253"
     y="277.49026"
     style="text-align:center;text-anchor:middle">Netork</tspan><tspan
     sodipodi:role="line"
     id="tspan1017-6"
     x="67.678253"
     y="294.99026"
     style="text-align:center;text-anchor:middle">Virtualization</tspan><tspan
     sodipodi:role="line"
     x="67.678253"
     y="312.49026"
     id="tspan1019-3"
     style="text-align:center;text-anchor:middle">Platform</tspan></text></svg>
