<?xml version="1.0" encoding="UTF-8" standalone="no"?>
<svg
   xmlns:dc="http://purl.org/dc/elements/1.1/"
   xmlns:cc="http://creativecommons.org/ns#"
   xmlns:rdf="http://www.w3.org/1999/02/22-rdf-syntax-ns#"
   xmlns:svg="http://www.w3.org/2000/svg"
   xmlns="http://www.w3.org/2000/svg"
   xmlns:sodipodi="http://sodipodi.sourceforge.net/DTD/sodipodi-0.dtd"
   xmlns:inkscape="http://www.inkscape.org/namespaces/inkscape"
   version="1.1"
   id="Layer_1"
   inkscape:version="1.0 (4035a4fb49, 2020-05-01)"
   sodipodi:docname="IPSec_VPN.svg"
   x="0px"
   y="0px"
   viewBox="0 0 707.1 238.94959"
   enable-background="new 0 0 707.1 469.9"
   xml:space="preserve"
   width="707.09998"
   height="238.94958"><metadata
   id="metadata1227"><rdf:RDF><cc:Work
       rdf:about=""><dc:format>image/svg+xml</dc:format><dc:type
         rdf:resource="http://purl.org/dc/dcmitype/StillImage" /><dc:title /></cc:Work></rdf:RDF></metadata><defs
   id="defs1225" />
<rect
   fill="#ffffff"
   width="707.09998"
   height="238.94958"
   id="rect971"
   x="0"
   y="0"
   style="stroke-width:1" />
<sodipodi:namedview
   bordercolor="#666666"
   borderopacity="1"
   gridtolerance="10"
   guidetolerance="10"
   id="namedview179"
   inkscape:current-layer="Layer_1"
   inkscape:cx="344.57387"
   inkscape:cy="180.77033"
   inkscape:document-rotation="0"
   inkscape:pageopacity="0"
   inkscape:pageshadow="2"
   inkscape:window-height="1017"
   inkscape:window-maximized="1"
   inkscape:window-width="1920"
   inkscape:window-x="-8"
   inkscape:window-y="-8"
   inkscape:zoom="1.3289991"
   objecttolerance="10"
   pagecolor="#ffffff"
   showgrid="false"
   fit-margin-top="0"
   fit-margin-left="0"
   fit-margin-right="0"
   fit-margin-bottom="0">
	</sodipodi:namedview>
<ellipse
   id="circle50"
   fill-rule="evenodd"
   clip-rule="evenodd"
   fill="#3f3f3f"
   cx="145.8"
   cy="114.37142"
   rx="61.900002"
   ry="60.400002" />
























<g
   id="Clouds__x2B__Infrastructure_Expanded_AQ-0"
   transform="matrix(0.66675613,0,0,0.70289494,54.036811,-5.627071)">
	<path
   id="path128-0"
   fill="#0995d3"
   d="m 478.7,89.1 c 0.2,0 0.6,0 0.7,0 16.9,0.4 30.8,14.8 32.6,33.6 l 0.4,3.9 3.9,0.4 c 11.7,1.1 20.6,13 20.2,27.3 -0.4,14.5 -10.4,26.2 -22.3,26.2 -0.2,0 -0.4,0 -0.6,0 -0.4,0 -1.5,0 -3.2,0 -8.5,0 -33.4,0 -57.7,0.2 -24.3,0 -49.5,0.2 -58.1,0.2 -1.7,0 -2.6,0 -3,0 -11.9,-0.4 -22.8,-11.5 -22.4,-23 0.2,-11.5 9.8,-20.8 21.1,-20.8 0.2,0 0.4,0 0.6,0 1.9,0 3.5,0.4 5.2,0.7 l 4.8,1.3 1.1,-4.8 c 2.8,-12.8 14.3,-22.3 27.3,-22.3 0.2,0 0.4,0 0.7,0 4.1,0.2 7.8,0.9 11.3,2.6 l 4.5,2.2 1.9,-4.6 c 5.4,-14.2 17.5,-23.1 31,-23.1 m 0,-4.6 c -15.8,0 -29.3,10.6 -35.2,25.8 -4.1,-1.9 -8.3,-3 -13.2,-3.2 -0.2,0 -0.6,0 -0.7,0 -15.6,0 -28.6,10.9 -31.7,26 -2,-0.6 -4.3,-0.9 -6.3,-0.9 -0.2,0 -0.4,0 -0.6,0 -13.9,0 -25.4,11.3 -25.8,25.4 -0.4,14.3 12.8,27.5 26.9,27.8 0.4,0 1.5,0 3,0 17.3,0 98.7,-0.4 115.7,-0.4 1.7,0 2.6,0 3,0 0.2,0 0.4,0 0.6,0 14.5,0 26.5,-13.7 26.9,-30.6 0.4,-16.7 -10.4,-30.6 -24.5,-31.9 -1.9,-20.8 -17.6,-37.3 -37.1,-37.8 -0.4,-0.2 -0.8,-0.2 -1,-0.2 z" />
</g>
<rect
   id="rect963-6"
   x="202.60001"
   y="83.171425"
   fill-rule="evenodd"
   clip-rule="evenodd"
   fill="#717074"
   width="304"
   height="30.1" />
<text
   font-family="'Metropolis-SemiBold'"
   font-size="16px"
   id="text1015"
   style="font-style:normal;font-variant:normal;font-weight:normal;font-stretch:normal;font-family:Metropolis;-inkscape-font-specification:Metropolis"
   x="158.2896"
   y="43.229225">NSX-T Gateway</text>
<text
   style="font-style:normal;font-variant:normal;font-weight:normal;font-stretch:normal;font-family:Metropolis;-inkscape-font-specification:Metropolis"
   fill="#f2f2f2"
   font-family="'Helvetica'"
   font-size="16px"
   id="text1017"
   x="308.70529"
   y="102.32272">IPSec VPN</text>
<g
   id="g98"
   transform="matrix(0.7589251,0,0,0.7404098,-448.42949,8.2713189)">
	<rect
   id="rect58"
   x="752.29999"
   y="120.5"
   fill="#ffffff"
   width="25"
   height="2.5" />
	<rect
   id="rect60"
   x="789.40002"
   y="120.4"
   fill="#ffffff"
   width="25"
   height="2.5" />
	<g
   id="g94">
		<g
   id="g72">
			<rect
   id="rect62"
   x="792"
   y="138.7"
   fill="#ffffff"
   width="2.5"
   height="10" />
			<rect
   id="rect64"
   x="782"
   y="138.7"
   fill="#ffffff"
   width="2.5"
   height="10" />
			<rect
   id="rect66"
   x="772"
   y="138.7"
   fill="#ffffff"
   width="2.5"
   height="10" />
			<rect
   id="rect68"
   x="762.09998"
   y="138.7"
   fill="#ffffff"
   width="2.5"
   height="10" />
			<rect
   id="rect70"
   x="752.09998"
   y="138.7"
   fill="#ffffff"
   width="2.5"
   height="10" />
		</g>
		<g
   id="g92">
			<rect
   id="rect74"
   x="792"
   y="160.5"
   fill="#ffffff"
   width="2.5"
   height="10" />
			<rect
   id="rect76"
   x="802"
   y="138.7"
   fill="#ffffff"
   width="2.5"
   height="10" />
			<rect
   id="rect78"
   x="802"
   y="160.5"
   fill="#ffffff"
   width="2.5"
   height="10" />
			<rect
   id="rect80"
   x="812"
   y="138.7"
   fill="#ffffff"
   width="2.5"
   height="10" />
			<rect
   id="rect82"
   x="812"
   y="160.5"
   fill="#ffffff"
   width="2.5"
   height="10" />
			<rect
   id="rect84"
   x="782"
   y="160.5"
   fill="#ffffff"
   width="2.5"
   height="10" />
			<rect
   id="rect86"
   x="772"
   y="160.5"
   fill="#ffffff"
   width="2.5"
   height="10" />
			<rect
   id="rect88"
   x="762.09998"
   y="160.5"
   fill="#ffffff"
   width="2.5"
   height="10" />
			<rect
   id="rect90"
   x="752.09998"
   y="160.5"
   fill="#ffffff"
   width="2.5"
   height="10" />
		</g>
	</g>
	<path
   id="path96"
   fill="#ffffff"
   d="m 823,176.2 v -44.7 -2.8 -17.2 h -8.6 v -3.6 h -25 v 3.6 H 743 v 17.2 2.8 44.7 h -7.5 v 2.5 h 95 v -2.5 z m -2.5,-47.5 h -68.4 v 2.8 h 68.4 v 44.7 h -75 V 114 h 75 z" />
</g>
<ellipse
   id="circle4"
   fill-rule="evenodd"
   clip-rule="evenodd"
   fill="#3f3f3f"
   cx="559.90002"
   cy="113.77142"
   rx="63.099998"
   ry="62.799999" />
<g
   id="g48"
   transform="matrix(0.77324582,0,0,0.76965939,467.52522,3.817999)">
	<rect
   id="rect8"
   x="88.699997"
   y="120.1"
   fill="#ffffff"
   width="25"
   height="2.5" />
	<rect
   id="rect10"
   x="125.8"
   y="120"
   fill="#ffffff"
   width="25"
   height="2.5" />
	<g
   id="g44">
		<g
   id="g22">
			<rect
   id="rect12"
   x="128.39999"
   y="138.3"
   fill="#ffffff"
   width="2.5"
   height="10" />
			<rect
   id="rect14"
   x="118.5"
   y="138.3"
   fill="#ffffff"
   width="2.5"
   height="10" />
			<rect
   id="rect16"
   x="108.5"
   y="138.3"
   fill="#ffffff"
   width="2.5"
   height="10" />
			<rect
   id="rect18"
   x="98.5"
   y="138.3"
   fill="#ffffff"
   width="2.5"
   height="10" />
			<rect
   id="rect20"
   x="88.5"
   y="138.3"
   fill="#ffffff"
   width="2.5"
   height="10" />
		</g>
		<g
   id="g42">
			<rect
   id="rect24"
   x="128.39999"
   y="160.10001"
   fill="#ffffff"
   width="2.5"
   height="10" />
			<rect
   id="rect26"
   x="138.39999"
   y="138.3"
   fill="#ffffff"
   width="2.5"
   height="10" />
			<rect
   id="rect28"
   x="138.39999"
   y="160.10001"
   fill="#ffffff"
   width="2.5"
   height="10" />
			<rect
   id="rect30"
   x="148.39999"
   y="138.3"
   fill="#ffffff"
   width="2.5"
   height="10" />
			<rect
   id="rect32"
   x="148.39999"
   y="160.10001"
   fill="#ffffff"
   width="2.5"
   height="10" />
			<rect
   id="rect34"
   x="118.5"
   y="160.10001"
   fill="#ffffff"
   width="2.5"
   height="10" />
			<rect
   id="rect36"
   x="108.5"
   y="160.10001"
   fill="#ffffff"
   width="2.5"
   height="10" />
			<rect
   id="rect38"
   x="98.5"
   y="160.10001"
   fill="#ffffff"
   width="2.5"
   height="10" />
			<rect
   id="rect40"
   x="88.5"
   y="160.10001"
   fill="#ffffff"
   width="2.5"
   height="10" />
		</g>
	</g>
	<path
   id="path46"
   fill="#ffffff"
   d="m 159.4,175.8 v -44.7 -2.8 -17.2 h -8.6 v -3.6 h -25 v 3.6 H 79.4 v 17.2 2.8 44.7 h -7.5 v 2.5 h 95 v -2.5 z m -2.5,-47.5 H 88.5 v 2.8 h 68.4 v 44.7 h -75 v -62.2 h 75 z" />
</g>
<text
   font-family="'Metropolis-SemiBold'"
   font-size="16px"
   id="text1062"
   style="font-style:normal;font-variant:normal;font-weight:normal;font-stretch:normal;font-family:Metropolis;-inkscape-font-specification:Metropolis"
   x="119.4628"
   y="189.20264">NSX-T </text>
<text
   font-family="'Metropolis-SemiBold'"
   font-size="16px"
   id="text1064"
   style="font-style:normal;font-variant:normal;font-weight:normal;font-stretch:normal;font-family:Metropolis;-inkscape-font-specification:Metropolis"
   x="100.3509"
   y="212.86264">Data Center</text>
<text
   font-family="'Metropolis-SemiBold'"
   font-size="16px"
   id="text1066"
   style="font-style:normal;font-variant:normal;font-weight:normal;font-stretch:normal;font-family:Metropolis;-inkscape-font-specification:Metropolis"
   x="431.5415"
   y="28.534424"><tspan
     sodipodi:role="line"
     id="tspan166"
     x="431.5415"
     y="28.534424">NSX-T Gateway or NSX-V Edge</tspan><tspan
     sodipodi:role="line"
     id="tspan168"
     x="431.5415"
     y="48.534424">or Third-Party Gateway</tspan></text>
<text
   font-family="'Metropolis-SemiBold'"
   font-size="16px"
   id="text1068"
   style="font-style:normal;font-variant:normal;font-weight:normal;font-stretch:normal;font-family:Metropolis;-inkscape-font-specification:Metropolis"
   x="529.43982"
   y="188.52943">Remote</text>
<text
   font-family="'Metropolis-SemiBold'"
   font-size="16px"
   id="text1070"
   style="font-style:normal;font-variant:normal;font-weight:normal;font-stretch:normal;font-family:Metropolis;-inkscape-font-specification:Metropolis"
   x="513.08002"
   y="212.18944">Data Center</text>
<g
   id="g1108"
   transform="translate(0,21.871425)">
	<path
   fill="#7f35b2"
   d="m 224.5,40 c -19.5,0 -35.4,15.9 -35.4,35.4 0,19.5 15.9,35.4 35.4,35.4 19.5,0 35.4,-15.9 35.4,-35.4 C 259.9,55.9 244,40 224.5,40 Z"
   id="path1072" />
	<path
   fill="#ffffff"
   d="m 224.5,41.9 c 18.5,0 33.5,15 33.5,33.5 0,18.5 -15,33.5 -33.5,33.5 -18.5,0 -33.5,-15 -33.5,-33.5 0,-18.5 15.1,-33.5 33.5,-33.5"
   id="path1074" />
	<g
   id="g1084">
		<polygon
   fill="#7f35b2"
   points="210.1,70.4 210.1,73.5 196.5,73.5 196.5,77.3 210.1,77.3 210.1,80.4 218.8,75.4 "
   id="polygon1076" />
		<polygon
   fill="#7f35b2"
   points="252.7,77.3 252.7,73.5 239,73.5 239,70.4 230.3,75.4 239,80.4 239,77.3 "
   id="polygon1078" />
		<polygon
   fill="#7f35b2"
   points="224.5,47.9 219.5,56.6 222.7,56.6 222.7,70.3 226.4,70.3 226.4,56.6 229.5,56.6 "
   id="polygon1080" />
		<polygon
   fill="#7f35b2"
   points="226.4,94.2 226.4,80.6 222.7,80.6 222.7,94.2 219.5,94.2 224.5,102.9 229.5,94.2 "
   id="polygon1082" />
	</g>
	<rect
   x="232.89999"
   y="31.799999"
   fill="#ffffff"
   width="33.900002"
   height="33.900002"
   id="rect1086" />
	<g
   id="g1106">
		<g
   id="g1094">
			<path
   fill="#7f35b2"
   d="m 248.2,64.3 -1.1,2.6 h -0.4 l -1.1,-2.6 h 0.4 l 0.9,2.1 0.9,-2.1 z"
   id="path1088" />
			<path
   fill="#7f35b2"
   d="m 248.8,64.3 h 1.1 c 0.5,0 0.9,0.3 0.9,0.8 0,0.5 -0.4,0.8 -0.9,0.8 h -0.7 v 0.9 h -0.4 z m 1.1,1.4 c 0.4,0 0.6,-0.2 0.6,-0.5 0,-0.3 -0.3,-0.5 -0.6,-0.5 h -0.6 v 1 c -0.1,0 0.6,0 0.6,0 z"
   id="path1090" />
			<path
   fill="#7f35b2"
   d="m 251.5,64.3 h 0.4 l 1.5,2 v -2 h 0.4 v 2.6 h -0.4 l -1.5,-2 v 2 h -0.4 z"
   id="path1092" />
		</g>
		<polygon
   fill="#7f35b2"
   points="232.9,65.8 244.2,65.8 244.2,66.7 232,66.7 232,30.9 267.8,30.9 267.8,66.7 255.5,66.7 255.5,65.8 266.9,65.8 266.9,31.8 232.9,31.8 "
   id="polygon1096" />
		<g
   id="g1104">
			<path
   fill-rule="evenodd"
   clip-rule="evenodd"
   fill="#7f35b2"
   d="m 249.1,46.5 c 0,-0.3 -0.2,-0.5 -0.5,-0.5 -2.6,0 -4.6,2.1 -4.6,4.6 0,0.3 0.2,0.5 0.5,0.5 0.3,0 0.5,-0.2 0.5,-0.5 0,-2 1.7,-3.7 3.7,-3.7 0.2,0 0.4,-0.2 0.4,-0.4 z"
   id="path1098" />
			<path
   fill-rule="evenodd"
   clip-rule="evenodd"
   fill="#7f35b2"
   d="m 254.6,44.1 h 0.3 V 39 c 0,-2.6 -2,-4.7 -4.5,-4.7 h -0.8 c -2.5,0 -4.5,2.1 -4.5,4.7 v 5.1 h 0.3 c -2.6,1.5 -4.3,4.4 -4.3,7.7 0,4.9 4,9 9,9 5,0 9,-4 9,-9 -0.2,-3.3 -2,-6.1 -4.5,-7.7 z M 245.9,39 c 0,-2.1 1.6,-3.8 3.6,-3.8 h 0.8 c 2,0 3.6,1.7 3.6,3.8 v 4.7 c -1.2,-0.6 -2.6,-0.9 -4,-0.9 -1.4,0 -2.8,0.3 -4,0.9 z m 4,20.8 c -4.4,0 -8,-3.6 -8,-8 0,-4.4 3.6,-8 8,-8 4.4,0 8,3.6 8,8 0,4.4 -3.6,8 -8,8 z"
   id="path1100" />
			<path
   fill-rule="evenodd"
   clip-rule="evenodd"
   fill="#7f35b2"
   d="m 249.9,49.4 c -0.8,0 -1.5,0.6 -1.5,1.5 0,0.5 0.3,1 0.8,1.3 v 1.5 c 0,0.2 0.2,0.4 0.4,0.4 h 0.7 c 0.2,0 0.4,-0.2 0.4,-0.4 v -1.5 c 0.5,-0.3 0.8,-0.7 0.8,-1.3 -0.1,-0.8 -0.8,-1.5 -1.6,-1.5 z"
   id="path1102" />
		</g>
	</g>
</g>
<g
   id="g1146"
   transform="translate(0,21.871425)">
	<path
   fill="#1a428a"
   d="m 475.8,43.4 c -19.5,0 -35.4,15.9 -35.4,35.4 0,19.5 15.9,35.4 35.4,35.4 19.5,0 35.4,-15.9 35.4,-35.4 0,-19.5 -15.9,-35.4 -35.4,-35.4 z"
   id="path1110" />
	<path
   fill="#ffffff"
   d="m 475.8,45.3 c 18.5,0 33.5,15 33.5,33.5 0,18.5 -15,33.5 -33.5,33.5 -18.5,0 -33.5,-15 -33.5,-33.5 0,-18.5 15,-33.5 33.5,-33.5"
   id="path1112" />
	<g
   id="g1122">
		<polygon
   fill="#1a428a"
   points="461.3,73.8 461.3,76.9 447.7,76.9 447.7,80.7 461.3,80.7 461.3,83.8 470,78.8 "
   id="polygon1114" />
		<polygon
   fill="#1a428a"
   points="503.9,80.7 503.9,76.9 490.2,76.9 490.2,73.8 481.6,78.8 490.2,83.8 490.2,80.7 "
   id="polygon1116" />
		<polygon
   fill="#1a428a"
   points="475.8,51.3 470.8,60 473.9,60 473.9,73.7 477.6,73.7 477.6,60 480.7,60 "
   id="polygon1118" />
		<polygon
   fill="#1a428a"
   points="477.6,97.6 477.6,84 473.9,84 473.9,97.6 470.8,97.6 475.8,106.3 480.7,97.6 "
   id="polygon1120" />
	</g>
	<rect
   x="484.20001"
   y="35.200001"
   fill="#ffffff"
   width="33.900002"
   height="33.900002"
   id="rect1124" />
	<g
   id="g1144">
		<g
   id="g1132">
			<path
   fill="#1a428a"
   d="m 499.4,67.7 -1.1,2.6 h -0.4 l -1.1,-2.6 h 0.4 l 0.9,2.1 0.9,-2.1 z"
   id="path1126" />
			<path
   fill="#1a428a"
   d="m 500,67.7 h 1.1 c 0.5,0 0.9,0.3 0.9,0.8 0,0.5 -0.4,0.8 -0.9,0.8 h -0.7 v 0.9 H 500 Z m 1.1,1.3 c 0.4,0 0.6,-0.2 0.6,-0.5 0,-0.3 -0.3,-0.5 -0.6,-0.5 h -0.6 v 1 c -0.1,0 0.6,0 0.6,0 z"
   id="path1128" />
			<path
   fill="#1a428a"
   d="m 502.7,67.7 h 0.4 l 1.5,2 v -2 h 0.4 v 2.6 h -0.4 l -1.5,-2 v 2 h -0.4 z"
   id="path1130" />
		</g>
		<polygon
   fill="#1a428a"
   points="484.2,69.2 495.4,69.2 495.4,70.1 483.2,70.1 483.2,34.3 519,34.3 519,70.1 506.7,70.1 506.7,69.2 518.1,69.2 518.1,35.2 484.2,35.2 "
   id="polygon1134" />
		<g
   id="g1142">
			<path
   fill-rule="evenodd"
   clip-rule="evenodd"
   fill="#1a428a"
   d="m 500.4,49.9 c 0,-0.3 -0.2,-0.5 -0.5,-0.5 -2.6,0 -4.6,2.1 -4.6,4.6 0,0.3 0.2,0.5 0.5,0.5 0.2,0 0.5,-0.2 0.5,-0.5 0,-2 1.7,-3.7 3.7,-3.7 0.1,0 0.4,-0.2 0.4,-0.4 z"
   id="path1136" />
			<path
   fill-rule="evenodd"
   clip-rule="evenodd"
   fill="#1a428a"
   d="m 505.8,47.5 h 0.3 v -5.1 c 0,-2.6 -2,-4.7 -4.5,-4.7 h -0.8 c -2.5,0 -4.5,2.1 -4.5,4.7 v 5.1 h 0.3 c -2.6,1.5 -4.3,4.4 -4.3,7.7 0,4.9 4,9 9,9 5,0 9,-4 9,-9 -0.2,-3.3 -1.9,-6.1 -4.5,-7.7 z m -8.7,-5.1 c 0,-2.1 1.6,-3.8 3.6,-3.8 h 0.8 c 2,0 3.6,1.7 3.6,3.8 v 4.7 c -1.2,-0.6 -2.6,-0.9 -4,-0.9 -1.4,0 -2.8,0.3 -4,0.9 z m 4,20.8 c -4.4,0 -8,-3.6 -8,-8 0,-4.4 3.6,-8 8,-8 4.4,0 8,3.6 8,8 0.1,4.4 -3.6,8 -8,8 z"
   id="path1138" />
			<path
   fill-rule="evenodd"
   clip-rule="evenodd"
   fill="#1a428a"
   d="m 501.1,52.8 c -0.8,0 -1.5,0.6 -1.5,1.5 0,0.5 0.3,1 0.8,1.3 v 1.5 c 0,0.2 0.2,0.4 0.4,0.4 h 0.7 c 0.2,0 0.4,-0.2 0.4,-0.4 v -1.5 c 0.5,-0.3 0.8,-0.7 0.8,-1.3 -0.1,-0.8 -0.7,-1.5 -1.6,-1.5 z"
   id="path1140" />
		</g>
	</g>
</g>


</svg>
