<?xml version="1.0" encoding="UTF-8" standalone="no"?>
<svg
   xmlns:dc="http://purl.org/dc/elements/1.1/"
   xmlns:cc="http://creativecommons.org/ns#"
   xmlns:rdf="http://www.w3.org/1999/02/22-rdf-syntax-ns#"
   xmlns:svg="http://www.w3.org/2000/svg"
   xmlns="http://www.w3.org/2000/svg"
   xmlns:sodipodi="http://sodipodi.sourceforge.net/DTD/sodipodi-0.dtd"
   xmlns:inkscape="http://www.inkscape.org/namespaces/inkscape"
   inkscape:version="1.0 (4035a4f, 2020-05-01)"
   sodipodi:docname="LoadBalancer-usecase.svg"
   xml:space="preserve"
   enable-background="new 0 0 364.3 304.4"
   viewBox="0 0 364.3 304.4"
   y="0px"
   x="0px"
   id="Layer_1"
   version="1.1"><metadata
   id="metadata176"><rdf:RDF><cc:Work
       rdf:about=""><dc:format>image/svg+xml</dc:format><dc:type
         rdf:resource="http://purl.org/dc/dcmitype/StillImage" /></cc:Work></rdf:RDF></metadata><defs
   id="defs174" />
<sodipodi:namedview
   showgrid="false"
   scale-x="1"
   pagecolor="#ffffff"
   objecttolerance="10"
   inkscape:zoom="2.7973568"
   inkscape:window-y="203"
   inkscape:window-x="0"
   inkscape:window-width="1440"
   inkscape:window-maximized="1"
   inkscape:window-height="855"
   inkscape:pageshadow="2"
   inkscape:pageopacity="0"
   inkscape:pagecheckerboard="true"
   inkscape:document-rotation="0"
   inkscape:cy="214.21743"
   inkscape:cx="231.5"
   inkscape:current-layer="Layer_1"
   id="namedview329"
   guidetolerance="10"
   gridtolerance="10"
   fit-margin-top="-6.9388939e-16"
   fit-margin-right="0"
   fit-margin-left="0"
   fit-margin-bottom="0"
   borderopacity="1"
   bordercolor="#666666">
	</sodipodi:namedview>
<rect
   height="304.4"
   width="364.3"
   fill="#FFFFFF"
   id="rect10" />
<rect
   height="92"
   width="79.7"
   fill="#ECECEB"
   y="119.7"
   x="155.8"
   id="rect12" />
<g
   id="g36">
	<g
   id="g20">
		<path
   d="M52.4,83H31.7c-0.6,0-1.1-0.4-1.3-0.9c-0.2-0.6,0.1-1.2,0.5-1.5c1.1-0.8,3.8-1.8,4.9-2.2    l1.1-8.5l1.7,0.2l-1.3,9.5l-0.5,0.2c-0.8,0.3-2.6,1-3.9,1.6H51c-1.3-0.6-3.2-1.4-3.9-1.6l-0.5-0.2l-0.9-9.5l1.7-0.2l0.8,8.5    c1.2,0.5,3.9,1.5,4.9,2.2c0.5,0.3,0.7,0.9,0.5,1.5C53.6,82.7,53,83,52.4,83z"
   fill="#1E4488"
   id="path14" />
		<path
   d="M70.4,29.1c0.9,0,1.8,0.8,1.8,1.6v34.1c0,0.8-0.8,1.5-1.6,1.5H13.4c-0.8,0-1.5-0.6-1.5-1.4    V30.4c0-0.8,0.7-1.4,1.5-1.4L70.4,29.1 M70.4,27.4H13.4c-1.8,0-3.2,1.4-3.2,3.1V65c0,1.7,1.4,3.1,3.2,3.1h57.1    c1.8,0,3.3-1.4,3.3-3.2V30.7C73.9,28.8,72.3,27.4,70.4,27.4z"
   fill="#1E4488"
   id="path16" />
		<rect
   height="1.7"
   width="50.3"
   fill="#1E4488"
   y="62.6"
   x="16.9"
   id="rect18" />
	</g>
	<g
   id="g34">
		<g
   id="g26">
			<path
   d="M29.7,62.2c6.8,0,13.1,2.8,17.8,8c0.3,0.4,0.5,0.8,0.5,1.4v8.2c0,1.1-0.8,2-1.8,2H13.2     c-1,0-1.8-0.8-1.8-2v-8.1c0-0.5,0.2-1,0.5-1.4c0.3-0.3,0.6-0.7,0.9-1C17.4,64.7,23.4,62.2,29.7,62.2"
   fill="#1E4488"
   id="path22" />
			<path
   d="M29.7,61.1c-6.3,0-12.7,2.5-17.7,7.4c-0.3,0.3-0.7,0.8-1,1c-0.5,0.5-0.8,1.4-0.8,2.2v8.2     c0,1.8,1.4,3.2,3,3.2h32.9c1.7,0,3-1.4,3-3.2v-8.1c0-0.8-0.3-1.5-0.8-2.2C43.3,63.9,36.4,61.1,29.7,61.1z"
   fill="#1E4488"
   id="path24" />
		</g>
		<g
   id="g32">
			<path
   d="M29.7,39.2c5.2,0,9.3,4.2,9.3,9.3s-4.2,9.3-9.3,9.3s-9.3-4.2-9.3-9.3S24.6,39.2,29.7,39.2"
   fill="#1E4488"
   id="path28" />
			<path
   d="M29.7,38c-5.8,0-10.5,4.7-10.5,10.5s4.7,10.5,10.5,10.5s10.5-4.7,10.5-10.5     C40.2,42.7,35.4,38,29.7,38z"
   fill="#1E4488"
   id="path30" />
		</g>
	</g>
</g>
<g
   id="g60">
	<g
   id="g44">
		<path
   d="M52.4,153.9H31.7c-0.6,0-1.1-0.4-1.3-0.9c-0.2-0.6,0.1-1.2,0.5-1.5c1.1-0.8,3.8-1.8,4.9-2.2    l1.1-8.5l1.7,0.2l-1.3,9.5l-0.5,0.2c-0.8,0.3-2.6,1-3.9,1.6H51c-1.3-0.6-3.2-1.4-3.9-1.6l-0.5-0.2l-0.9-9.5l1.7-0.2l0.8,8.5    c1.2,0.5,3.9,1.5,4.9,2.2c0.5,0.3,0.7,0.9,0.5,1.5C53.6,153.6,53,153.9,52.4,153.9L52.4,153.9z"
   fill="#811427"
   id="path38" />
		<path
   d="M70.4,100c0.9,0,1.8,0.8,1.8,1.6v34.1c0,0.8-0.8,1.5-1.6,1.5H13.4c-0.8,0-1.5-0.6-1.5-1.4    v-34.5c0-0.8,0.7-1.4,1.5-1.4L70.4,100 M70.4,98.3H13.4c-1.8,0-3.2,1.4-3.2,3.1v34.5c0,1.7,1.4,3.1,3.2,3.1h57.1    c1.8,0,3.3-1.4,3.3-3.2v-34.1C73.9,99.8,72.3,98.3,70.4,98.3L70.4,98.3z"
   fill="#811427"
   id="path40" />
		<rect
   height="1.7"
   width="50.3"
   fill="#811427"
   y="133.5"
   x="16.9"
   id="rect42" />
	</g>
	<g
   id="g58">
		<g
   id="g50">
			<path
   d="M29.7,133.2c6.8,0,13.1,2.8,17.8,8c0.3,0.4,0.5,0.8,0.5,1.4v8.2c0,1.1-0.8,2-1.8,2H13.2     c-1,0-1.8-0.8-1.8-2v-8.2c0-0.5,0.2-1,0.5-1.4c0.3-0.3,0.6-0.7,0.9-1C17.4,135.6,23.4,133.2,29.7,133.2"
   fill="#811427"
   id="path46" />
			<path
   d="M29.7,132c-6.3,0-12.7,2.5-17.7,7.4c-0.3,0.3-0.7,0.8-1,1c-0.5,0.5-0.8,1.4-0.8,2.2v8.2     c0,1.8,1.4,3.2,3,3.2h32.9c1.7,0,3-1.4,3-3.2v-8.2c0-0.8-0.3-1.5-0.8-2.2C43.3,134.9,36.4,132,29.7,132z"
   fill="#811427"
   id="path48" />
		</g>
		<g
   id="g56">
			<path
   d="M29.7,110.1c5.2,0,9.3,4.2,9.3,9.3c0,5.1-4.2,9.3-9.3,9.3s-9.3-4.2-9.3-9.3     C20.4,114.3,24.6,110.1,29.7,110.1"
   fill="#811427"
   id="path52" />
			<path
   d="M29.7,109c-5.8,0-10.5,4.7-10.5,10.5c0,5.8,4.7,10.5,10.5,10.5s10.5-4.7,10.5-10.5     C40.1,113.6,35.4,109,29.7,109z"
   fill="#811427"
   id="path54" />
		</g>
	</g>
</g>
<g
   id="g84">
	<g
   id="g68">
		<path
   d="M52.4,224.9H31.7c-0.6,0-1.1-0.4-1.3-0.9c-0.2-0.6,0.1-1.2,0.5-1.5c1.1-0.8,3.8-1.8,4.9-2.2    l1.1-8.5l1.7,0.2l-1.3,9.5l-0.5,0.2c-0.8,0.3-2.6,1-3.9,1.6H51c-1.3-0.6-3.2-1.4-3.9-1.6l-0.5-0.2l-0.9-9.6l1.7-0.2l0.8,8.5    c1.2,0.5,3.9,1.5,4.9,2.2c0.5,0.3,0.7,0.9,0.5,1.5C53.6,224.5,53,224.9,52.4,224.9L52.4,224.9z"
   fill="#F89820"
   id="path62" />
		<path
   d="M70.4,170.9c0.9,0,1.8,0.8,1.8,1.6v34.1c0,0.8-0.8,1.5-1.6,1.5H13.4c-0.8,0-1.5-0.6-1.5-1.4    v-34.5c0-0.8,0.7-1.4,1.5-1.4L70.4,170.9 M70.4,169.2H13.4c-1.8,0-3.2,1.4-3.2,3.1v34.5c0,1.7,1.4,3.1,3.2,3.1h57.1    c1.8,0,3.3-1.4,3.3-3.2v-34.1C73.9,170.7,72.3,169.2,70.4,169.2L70.4,169.2z"
   fill="#F89820"
   id="path64" />
		<rect
   height="1.7"
   width="50.3"
   fill="#F89820"
   y="204.5"
   x="16.9"
   id="rect66" />
	</g>
	<g
   id="g82">
		<g
   id="g74">
			<path
   d="M29.7,204.1c6.8,0,13.1,2.8,17.8,8c0.3,0.4,0.5,0.8,0.5,1.4v8.2c0,1.1-0.8,2-1.8,2H13.2     c-1,0-1.8-0.8-1.8-2v-8.2c0-0.5,0.2-1,0.5-1.4c0.3-0.3,0.6-0.7,0.9-1C17.4,206.6,23.4,204.1,29.7,204.1"
   fill="#F89820"
   id="path70" />
			<path
   d="M29.7,203c-6.3,0-12.7,2.5-17.7,7.4c-0.3,0.3-0.7,0.8-1,1c-0.5,0.5-0.8,1.4-0.8,2.2v8.2     c0,1.8,1.4,3.2,3,3.2h32.9c1.7,0,3-1.4,3-3.2v-8.2c0-0.8-0.3-1.5-0.8-2.2C43.3,205.9,36.4,203,29.7,203z"
   fill="#F89820"
   id="path72" />
		</g>
		<g
   id="g80">
			<path
   d="M29.7,181.1c5.2,0,9.3,4.2,9.3,9.3c0,5.1-4.2,9.3-9.3,9.3s-9.3-4.2-9.3-9.3     C20.4,185.3,24.6,181.1,29.7,181.1"
   fill="#F89820"
   id="path76" />
			<path
   d="M29.7,179.9c-5.8,0-10.5,4.7-10.5,10.5s4.7,10.5,10.5,10.5s10.5-4.7,10.5-10.5     C40.1,184.6,35.4,179.9,29.7,179.9z"
   fill="#F89820"
   id="path78" />
		</g>
	</g>
</g>
<g
   id="g108">
	<g
   id="g92">
		<path
   d="M52.4,295.9H31.7c-0.6,0-1.1-0.4-1.3-0.9c-0.2-0.6,0.1-1.2,0.5-1.5c1.1-0.8,3.8-1.8,4.9-2.2    l1.1-8.5l1.7,0.2l-1.3,9.5l-0.5,0.2c-0.8,0.3-2.6,1-3.9,1.6H51c-1.3-0.6-3.2-1.4-3.9-1.6l-0.5-0.2l-0.9-9.5l1.7-0.2l0.8,8.5    c1.2,0.5,3.9,1.5,4.9,2.2c0.5,0.3,0.7,0.9,0.5,1.5C53.6,295.5,53,295.9,52.4,295.9L52.4,295.9z"
   fill="#78BE43"
   id="path86" />
		<path
   d="M70.4,241.9c0.9,0,1.8,0.8,1.8,1.6v34.1c0,0.8-0.8,1.5-1.6,1.5H13.4c-0.8,0-1.5-0.6-1.5-1.4    v-34.5c0-0.8,0.7-1.4,1.5-1.4L70.4,241.9 M70.4,240.2H13.4c-1.8,0-3.2,1.4-3.2,3.1v34.5c0,1.7,1.4,3.1,3.2,3.1h57.1    c1.8,0,3.3-1.4,3.3-3.2v-34.1C73.9,241.7,72.3,240.2,70.4,240.2z"
   fill="#78BE43"
   id="path88" />
		<rect
   height="1.7"
   width="50.3"
   fill="#78BE43"
   y="275.4"
   x="16.9"
   id="rect90" />
	</g>
	<g
   id="g106">
		<g
   id="g98">
			<path
   d="M29.7,275.1c6.8,0,13.1,2.8,17.8,8c0.3,0.4,0.5,0.8,0.5,1.4v8.2c0,1.1-0.8,2-1.8,2H13.2     c-1,0-1.8-0.8-1.8-2v-8.2c0-0.5,0.2-1,0.5-1.4c0.3-0.4,0.6-0.7,0.9-1C17.4,277.6,23.4,275.1,29.7,275.1"
   fill="#78BE43"
   id="path94" />
			<path
   d="M29.7,273.9c-6.3,0-12.7,2.5-17.7,7.4c-0.3,0.3-0.7,0.8-1,1c-0.5,0.5-0.8,1.4-0.8,2.2v8.2     c0,1.8,1.4,3.2,3,3.2h32.9c1.7,0,3-1.4,3-3.2v-8.2c0-0.8-0.3-1.5-0.8-2.2C43.3,276.7,36.4,273.9,29.7,273.9z"
   fill="#78BE43"
   id="path96" />
		</g>
		<g
   id="g104">
			<path
   d="M29.7,252.1c5.2,0,9.3,4.2,9.3,9.3s-4.2,9.3-9.3,9.3s-9.3-4.2-9.3-9.3     S24.6,252.1,29.7,252.1"
   fill="#78BE43"
   id="path100" />
			<path
   d="M29.7,250.8c-5.8,0-10.5,4.7-10.5,10.5c0,5.8,4.7,10.5,10.5,10.5s10.5-4.7,10.5-10.5     C40.1,255.5,35.4,250.8,29.7,250.8z"
   fill="#78BE43"
   id="path102" />
		</g>
	</g>
</g>
<g
   id="g130">
	<path
   d="M337,123.7h-18.6V39.9H337V123.7 M339.4,126V37.5h-23.3V126H339.4z"
   fill="#006EA4"
   id="path110" />
	<path
   d="M330.5,81.6L330.5,81.6c0,1.4-1,2.5-2.3,2.8c-1.5,0.3-3-0.8-3.2-2.3c0-0.2,0-0.3,0-0.5   c0-1.4,1-2.5,2.3-2.8c1.5-0.3,3,0.8,3.2,2.3C330.5,81.3,330.5,81.4,330.5,81.6 M332.4,81.6c0-0.3,0-0.5-0.1-0.8   c-0.5-2.5-2.8-4.3-5.4-3.8c-2.2,0.4-3.9,2.3-3.9,4.5c0,0.3,0,0.5,0.1,0.8c0.5,2.5,2.8,4.3,5.4,3.8   C330.8,85.8,332.4,83.8,332.4,81.6z"
   fill="#006EA4"
   id="path112" />
	<g
   id="g120">
		<rect
   height="2.3"
   width="9.3"
   fill="#006EA4"
   y="43.9"
   x="323.1"
   id="rect114" />
		<rect
   height="2.3"
   width="9.3"
   fill="#006EA4"
   y="48.5"
   x="323.1"
   id="rect116" />
		<rect
   height="2.3"
   width="9.3"
   fill="#006EA4"
   y="53.2"
   x="323.1"
   id="rect118" />
	</g>
	<g
   id="g128">
		<rect
   height="2.3"
   width="9.3"
   fill="#006EA4"
   y="106.7"
   x="323.1"
   id="rect122" />
		<rect
   height="2.3"
   width="9.3"
   fill="#006EA4"
   y="111.3"
   x="323.1"
   id="rect124" />
		<rect
   height="2.3"
   width="9.3"
   fill="#006EA4"
   y="116"
   x="323.1"
   id="rect126" />
	</g>
</g>
<g
   id="g152">
	<path
   d="M181.9,207.8h-18.6V124h18.6V207.8 M184.2,210.1v-88.5h-23.3v88.5H184.2z"
   fill="#006EA4"
   id="path132" />
	<path
   d="M175.4,165.6L175.4,165.6c0,1.4-1,2.5-2.3,2.8c-1.5,0.3-3-0.8-3.2-2.3c0-0.2,0-0.3,0-0.5   c0-1.4,1-2.5,2.3-2.8c1.5-0.3,3,0.8,3.2,2.3C175.4,165.2,175.4,165.5,175.4,165.6 M177.2,165.6c0-0.3,0-0.5-0.1-0.8   c-0.5-2.5-2.8-4.3-5.4-3.8c-2.2,0.4-3.9,2.3-3.9,4.5c0,0.3,0,0.5,0.1,0.8c0.5,2.5,2.8,4.3,5.4,3.8   C175.6,169.9,177.2,167.9,177.2,165.6z"
   fill="#006EA4"
   id="path134" />
	<g
   id="g142">
		<rect
   height="2.3"
   width="9.3"
   fill="#006EA4"
   y="128"
   x="167.9"
   id="rect136" />
		<rect
   height="2.3"
   width="9.3"
   fill="#006EA4"
   y="132.6"
   x="167.9"
   id="rect138" />
		<rect
   height="2.3"
   width="9.3"
   fill="#006EA4"
   y="137.3"
   x="167.9"
   id="rect140" />
	</g>
	<g
   id="g150">
		<rect
   height="2.3"
   width="9.3"
   fill="#006EA4"
   y="190.7"
   x="167.9"
   id="rect144" />
		<rect
   height="2.3"
   width="9.3"
   fill="#006EA4"
   y="195.4"
   x="167.9"
   id="rect146" />
		<rect
   height="2.3"
   width="9.3"
   fill="#006EA4"
   y="200"
   x="167.9"
   id="rect148" />
	</g>
</g>
<path
   d="M338.1,90.9c0,0-0.1,0-0.2,0h-0.1l0,0c-0.5-0.1-0.8-0.1-1.3-0.1c-9.7,0-17.6,7.9-17.6,17.6  s7.9,17.6,17.6,17.6s17.6-7.9,17.6-17.6C354.2,99.2,347.1,91.7,338.1,90.9z"
   fill="#FFFFFF"
   id="path154" />
<path
   d="M353.2,108H349c-0.1-3.8-1-7.2-2.5-10.2c0.9-0.2,1.7-0.6,2.2-0.9  C351.4,99.8,353.2,103.7,353.2,108z"
   fill="#1295D3"
   id="path156" />
<path
   d="M337,125V119c1.4,0,2.6,0.1,3.8,0.2C339.9,122.2,338.6,124.4,337,125z"
   fill="#1295D3"
   id="path158" />
<path
   d="M336.1,92.1V98c-1.2,0-2.3,0-3.3-0.1C333.7,95.1,334.8,93,336.1,92.1z"
   fill="#1295D3"
   id="path160" />
<path
   d="M336.1,98.9v9.2h-4.7c0-3.4,0.5-6.6,1.2-9.2C333.8,98.8,334.9,98.9,336.1,98.9z"
   fill="#1295D3"
   id="path162" />
<path
   d="M336.1,109v9.2c-1.2,0-2.4,0.1-3.5,0.2c-0.7-2.7-1.2-5.9-1.2-9.2L336.1,109z"
   fill="#1295D3"
   id="path164" />
<path
   d="M336.1,119v5.8c-1.3-0.8-2.5-2.9-3.2-5.7C333.9,119,334.9,119,336.1,119z"
   fill="#1295D3"
   id="path166" />
<path
   d="M337,118v-9.2h5.2c0,3.4-0.5,6.6-1.2,9.3C339.8,118.1,338.3,118.1,337,118L337,118z"
   fill="#1295D3"
   id="path168" />
<path
   d="M337,108v-9.2c1.4,0,2.8-0.1,4.1-0.2c0.7,2.7,1.2,5.9,1.2,9.3H337z"
   fill="#1295D3"
   id="path170" />
<path
   d="M337,98v-6.2c1.5,0.7,2.8,2.9,3.8,6C339.7,97.9,338.4,98,337,98z"
   fill="#1295D3"
   id="path172" />
<path
   d="M338.9,92.1c2.4,0.8,4.5,2.7,6.2,5.2c-0.9,0.2-2,0.3-3.2,0.5C341.1,95.3,340.1,93.3,338.9,92.1  z"
   fill="#1295D3"
   id="path174" />
<path
   d="M334.8,92.1c-1.2,1.2-2.2,3.2-2.9,5.7c-1.2-0.1-2.3-0.2-3.3-0.4  C330.2,94.8,332.3,93,334.8,92.1L334.8,92.1z"
   fill="#1295D3"
   id="path176" />
<path
   d="M327.6,97.2c-1.2-0.2-2.1-0.6-2.5-0.8c1.9-1.8,4.3-3.2,7-3.9C330.4,93.5,328.9,95.2,327.6,97.2  z"
   fill="#1295D3"
   id="path178" />
<path
   d="M331.6,98.7c-0.7,2.7-1.1,5.9-1.2,9.3h-4.9c0.1-3.7,1-7.1,2.5-9.8  C329.2,98.4,330.4,98.6,331.6,98.7L331.6,98.7z"
   fill="#1295D3"
   id="path180" />
<path
   d="M330.5,109c0,3.5,0.5,6.7,1.2,9.3c-1.3,0.1-2.5,0.2-3.5,0.5c-1.5-2.8-2.5-6.2-2.5-9.8  C325.6,109,330.5,109,330.5,109L330.5,109z"
   fill="#1295D3"
   id="path182" />
<path
   d="M331.9,119.2c0.8,2.5,1.7,4.5,2.9,5.6c-2.5-0.8-4.5-2.7-6.2-5.2  C329.6,119.4,330.7,119.3,331.9,119.2z"
   fill="#1295D3"
   id="path184" />
<path
   d="M332.3,124.6c-2.7-0.8-5.1-2.1-7-3.9c0.5-0.3,1.3-0.6,2.5-0.8  C328.9,121.8,330.5,123.5,332.3,124.6L332.3,124.6z"
   fill="#1295D3"
   id="path186" />
<path
   d="M338.9,124.8c1.2-1.2,2.2-3.2,2.8-5.6c1.2,0.1,2.3,0.3,3.2,0.5  C343.5,122.2,341.3,124,338.9,124.8L338.9,124.8z"
   fill="#1295D3"
   id="path188" />
<path
   d="M345.9,119.9c0.9,0.2,1.6,0.5,2,0.8c-1.7,1.6-3.8,2.8-6.1,3.6  C343.5,123.2,344.9,121.7,345.9,119.9z"
   fill="#1295D3"
   id="path190" />
<path
   d="M342.1,118.3c0.7-2.7,1.2-5.9,1.2-9.4h4.9c-0.1,3.7-1,7.2-2.5,9.9  C344.5,118.7,343.3,118.4,342.1,118.3z"
   fill="#1295D3"
   id="path192" />
<path
   d="M343.2,108c0-3.5-0.5-6.7-1.2-9.4c1.3-0.1,2.5-0.3,3.5-0.5c1.5,2.8,2.5,6.2,2.5,9.9H343.2z"
   fill="#1295D3"
   id="path194" />
<path
   d="M348,96.3c-0.4,0.2-1.1,0.5-2,0.8c-1.1-1.8-2.5-3.3-4-4.4C344.3,93.4,346.3,94.7,348,96.3  L348,96.3z"
   fill="#1295D3"
   id="path196" />
<path
   d="M324.5,96.9c0.5,0.5,1.5,0.8,2.6,1.1c-1.5,2.8-2.4,6.3-2.5,10h-4.8  C320,103.7,321.7,99.8,324.5,96.9L324.5,96.9z"
   fill="#1295D3"
   id="path198" />
<path
   d="M319.9,109h4.8c0.1,3.7,1,7.2,2.5,10c-1.2,0.3-2.2,0.6-2.7,1.1  C321.7,117.1,320,113.2,319.9,109L319.9,109z"
   fill="#1295D3"
   id="path200" />
<path
   d="M348.6,120c-0.5-0.4-1.2-0.7-2.2-0.9c1.5-2.8,2.5-6.4,2.5-10.2h4.2  C353.2,113.2,351.4,117.1,348.6,120z"
   fill="#1295D3"
   id="path202" />
<text
   style="-inkscape-font-specification:Metropolis;font-family:Metropolis;font-weight:normal;font-style:normal;font-stretch:normal;font-variant:normal;"
   font-size="10.7653px"
   font-family="'Metropolis-Regular'"
   transform="matrix(1 0 0 1 27.4024 17.5508)"
   id="text186">Client</text>
<text
   style="-inkscape-font-specification:Metropolis;font-family:Metropolis;font-weight:normal;font-style:normal;font-stretch:normal;font-variant:normal;"
   font-size="10.7653px"
   font-family="'Metropolis-Regular'"
   transform="matrix(1 0 0 1 313.5059 27.3511)"
   id="text186_1_">Web1</text>
<g
   id="g226">
	<path
   d="M337,285.9h-18.6v-83.8H337V285.9 M339.4,288.3v-88.5h-23.3v88.5H339.4z"
   fill="#006EA4"
   id="path206" />
	<path
   d="M330.5,243.8L330.5,243.8c0,1.4-1,2.5-2.3,2.8c-1.5,0.3-3-0.8-3.2-2.3c0-0.2,0-0.3,0-0.5   c0-1.4,1-2.5,2.3-2.8c1.5-0.3,3,0.8,3.2,2.3C330.5,243.5,330.5,243.6,330.5,243.8 M332.4,243.8c0-0.3,0-0.5-0.1-0.8   c-0.5-2.5-2.8-4.3-5.4-3.8c-2.2,0.4-3.9,2.3-3.9,4.5c0,0.3,0,0.5,0.1,0.8c0.5,2.5,2.8,4.3,5.4,3.8   C330.8,248,332.4,246.1,332.4,243.8z"
   fill="#006EA4"
   id="path208" />
	<g
   id="g216">
		<rect
   height="2.3"
   width="9.3"
   fill="#006EA4"
   y="206.1"
   x="323.1"
   id="rect210" />
		<rect
   height="2.3"
   width="9.3"
   fill="#006EA4"
   y="210.8"
   x="323.1"
   id="rect212" />
		<rect
   height="2.3"
   width="9.3"
   fill="#006EA4"
   y="215.4"
   x="323.1"
   id="rect214" />
	</g>
	<g
   id="g224">
		<rect
   height="2.3"
   width="9.3"
   fill="#006EA4"
   y="268.9"
   x="323.1"
   id="rect218" />
		<rect
   height="2.3"
   width="9.3"
   fill="#006EA4"
   y="273.5"
   x="323.1"
   id="rect220" />
		<rect
   height="2.3"
   width="9.3"
   fill="#006EA4"
   y="278.2"
   x="323.1"
   id="rect222" />
	</g>
</g>
<path
   d="M338.1,253.1c0,0-0.1,0-0.2,0h-0.1l0,0c-0.5-0.1-0.8-0.1-1.3-0.1c-9.7,0-17.6,7.9-17.6,17.6  c0,9.7,7.9,17.6,17.6,17.6s17.6-7.9,17.6-17.6C354.2,261.4,347.1,253.8,338.1,253.1z"
   fill="#FFFFFF"
   id="path228" />
<path
   d="M353.2,270.2H349c-0.1-3.8-1-7.2-2.5-10.2c0.9-0.2,1.7-0.6,2.2-0.9  C351.4,262.1,353.2,265.9,353.2,270.2L353.2,270.2z"
   fill="#1295D3"
   id="path230" />
<path
   d="M337,287.3v-6.1c1.4,0,2.6,0.1,3.8,0.2C339.9,284.4,338.6,286.6,337,287.3L337,287.3z"
   fill="#1295D3"
   id="path232" />
<path
   d="M336.1,254.4v5.8c-1.2,0-2.3,0-3.3-0.1C333.7,257.3,334.8,255.2,336.1,254.4z"
   fill="#1295D3"
   id="path234" />
<path
   d="M336.1,261.1v9.2h-4.7c0-3.4,0.5-6.6,1.2-9.2C333.8,261.1,334.9,261.1,336.1,261.1z"
   fill="#1295D3"
   id="path236" />
<path
   d="M336.1,271.1v9.2c-1.2,0-2.4,0.1-3.5,0.2c-0.7-2.7-1.2-5.9-1.2-9.2L336.1,271.1z"
   fill="#1295D3"
   id="path238" />
<path
   d="M336.1,281.1v5.8c-1.3-0.8-2.5-2.9-3.2-5.7C333.9,281.2,334.9,281.2,336.1,281.1z"
   fill="#1295D3"
   id="path240" />
<path
   d="M337,280.3v-9.2h5.2c0,3.4-0.5,6.6-1.2,9.3C339.8,280.3,338.3,280.3,337,280.3z"
   fill="#1295D3"
   id="path242" />
<path
   d="M337,270.2v-9.2c1.4,0,2.8-0.1,4.1-0.2c0.7,2.7,1.2,5.9,1.2,9.3H337z"
   fill="#1295D3"
   id="path244" />
<path
   d="M337,260.2v-6.2c1.5,0.7,2.8,2.9,3.8,6C339.7,260.1,338.4,260.1,337,260.2z"
   fill="#1295D3"
   id="path246" />
<path
   d="M338.9,254.3c2.4,0.8,4.5,2.7,6.2,5.2c-0.9,0.2-2,0.3-3.2,0.5  C341.1,257.4,340.1,255.5,338.9,254.3z"
   fill="#1295D3"
   id="path248" />
<path
   d="M334.8,254.3c-1.2,1.2-2.2,3.2-2.9,5.7c-1.2-0.1-2.3-0.2-3.3-0.4  C330.2,257,332.3,255.1,334.8,254.3L334.8,254.3z"
   fill="#1295D3"
   id="path250" />
<path
   d="M327.6,259.4c-1.2-0.2-2.1-0.6-2.5-0.8c1.9-1.8,4.3-3.2,7-3.9  C330.4,255.7,328.9,257.4,327.6,259.4z"
   fill="#1295D3"
   id="path252" />
<path
   d="M331.6,260.9c-0.7,2.7-1.1,5.9-1.2,9.3h-4.9c0.1-3.7,1-7.1,2.5-9.8  C329.2,260.6,330.4,260.8,331.6,260.9L331.6,260.9z"
   fill="#1295D3"
   id="path254" />
<path
   d="M330.5,271.1c0,3.5,0.5,6.7,1.2,9.3c-1.3,0.1-2.5,0.2-3.5,0.5c-1.5-2.8-2.5-6.2-2.5-9.8  L330.5,271.1L330.5,271.1z"
   fill="#1295D3"
   id="path256" />
<path
   d="M331.9,281.4c0.8,2.5,1.7,4.5,2.9,5.6c-2.5-0.8-4.5-2.7-6.2-5.2  C329.6,281.6,330.7,281.4,331.9,281.4z"
   fill="#1295D3"
   id="path258" />
<path
   d="M332.3,286.8c-2.7-0.8-5.1-2.1-7-3.9c0.5-0.3,1.3-0.6,2.5-0.8  C328.9,284.1,330.5,285.7,332.3,286.8z"
   fill="#1295D3"
   id="path260" />
<path
   d="M338.9,287.1c1.2-1.2,2.2-3.2,2.8-5.6c1.2,0.1,2.3,0.3,3.2,0.5  C343.5,284.4,341.3,286.2,338.9,287.1L338.9,287.1z"
   fill="#1295D3"
   id="path262" />
<path
   d="M345.9,282.1c0.9,0.2,1.6,0.5,2,0.8c-1.7,1.6-3.8,2.8-6.1,3.6  C343.5,285.4,344.9,283.9,345.9,282.1z"
   fill="#1295D3"
   id="path264" />
<path
   d="M342.1,280.5c0.7-2.7,1.2-5.9,1.2-9.4h4.9c-0.1,3.7-1,7.2-2.5,9.9  C344.5,280.8,343.3,280.7,342.1,280.5L342.1,280.5z"
   fill="#1295D3"
   id="path266" />
<path
   d="M343.2,270.2c0-3.5-0.5-6.7-1.2-9.4c1.3-0.1,2.5-0.3,3.5-0.5c1.5,2.8,2.5,6.2,2.5,9.9  L343.2,270.2z"
   fill="#1295D3"
   id="path268" />
<path
   d="M348,258.5c-0.4,0.2-1.1,0.5-2,0.8c-1.1-1.8-2.5-3.3-4-4.4C344.3,255.7,346.3,256.9,348,258.5  L348,258.5z"
   fill="#1295D3"
   id="path270" />
<path
   d="M324.5,259.1c0.5,0.5,1.5,0.8,2.6,1.1c-1.5,2.8-2.4,6.3-2.5,10h-4.8  C320,265.9,321.7,262.1,324.5,259.1L324.5,259.1z"
   fill="#1295D3"
   id="path272" />
<path
   d="M319.9,271.1h4.8c0.1,3.7,1,7.2,2.5,10c-1.2,0.3-2.2,0.6-2.7,1.1  C321.7,279.3,320,275.4,319.9,271.1L319.9,271.1z"
   fill="#1295D3"
   id="path274" />
<path
   d="M348.6,282.2c-0.5-0.4-1.2-0.7-2.2-0.9c1.5-2.8,2.5-6.4,2.5-10.2h4.2  C353.2,275.4,351.4,279.3,348.6,282.2L348.6,282.2z"
   fill="#1295D3"
   id="path276" />
<text
   style="-inkscape-font-specification:Metropolis;font-family:Metropolis;font-weight:normal;font-style:normal;font-stretch:normal;font-variant:normal;"
   font-size="10.7653px"
   font-family="'Metropolis-Regular'"
   transform="matrix(1 0 0 1 312.3857 189.5586)"
   id="text186_2_">Web2</text>
<text
   style="-inkscape-font-specification:Metropolis;font-family:Metropolis;font-weight:normal;font-style:normal;font-stretch:normal;font-variant:normal;"
   id="text147"
   font-size="10.7653px"
   font-family="'Metropolis-Regular'"
   transform="matrix(1 0 0 1 198.0147 146.749)">Load</text>
<text
   style="-inkscape-font-specification:Metropolis;font-family:Metropolis;font-weight:normal;font-style:normal;font-stretch:normal;font-variant:normal;"
   id="text149"
   font-size="10.7653px"
   font-family="'Metropolis-Regular'"
   transform="matrix(1 0 0 1 188.4795 155.9766)">Balancer</text>
<line
   y2="128.7"
   x2="151.7"
   y1="47.7"
   x1="79.1"
   stroke-miterlimit="10"
   stroke-width="2"
   stroke="#1E4488"
   fill="none"
   id="line284" />
<line
   y2="149.9"
   x2="151.7"
   y1="117.2"
   x1="79.1"
   stroke-miterlimit="10"
   stroke-width="2"
   stroke="#811427"
   fill="none"
   id="line286" />
<line
   y2="128.7"
   x2="239.4"
   y1="47.7"
   x1="312.1"
   stroke-miterlimit="10"
   stroke-width="2"
   stroke="#1E4488"
   fill="none"
   id="line288" />
<line
   y2="146.7"
   x2="236.3"
   y1="64.8"
   x1="309"
   stroke-miterlimit="10"
   stroke-width="2"
   stroke="#F89820"
   fill="none"
   id="line290" />
<line
   y2="176.2"
   x2="239.4"
   y1="257.3"
   x1="312.1"
   stroke-miterlimit="10"
   stroke-width="2"
   stroke="#78BE43"
   fill="none"
   id="line292" />
<line
   y2="162"
   x2="239.4"
   y1="243.9"
   x1="312.1"
   stroke-miterlimit="10"
   stroke-width="2"
   stroke="#811427"
   fill="none"
   id="line294" />
<line
   y2="177.3"
   x2="151.7"
   y1="258.4"
   x1="79.1"
   stroke-miterlimit="10"
   stroke-width="2"
   stroke="#78BE43"
   fill="none"
   id="line296" />
<line
   y2="156.2"
   x2="151.7"
   y1="188.9"
   x1="79.1"
   stroke-miterlimit="10"
   stroke-width="2"
   stroke="#F89820"
   fill="none"
   id="line298" />
<g
   id="g326">
	<polygon
   points="212.1,210 182.1,210 167.7,194.9 167.7,181 181.6,165.6 212.1,165.6  "
   fill="#1295D3"
   id="polygon300" />
	<polygon
   points="182.6,208.8 210.9,208.8 210.9,166.8 182.1,166.8 168.9,181.5 168.9,194.5  "
   fill="#FFFFFF"
   id="polygon302" />
	<circle
   r="3.5"
   cy="174.8"
   cx="188.9"
   fill="#1295D3"
   id="circle304" />
	<circle
   r="3.5"
   cy="188.6"
   cx="188.9"
   fill="#1295D3"
   id="circle306" />
	<circle
   r="3.5"
   cy="188.6"
   cx="175.2"
   fill="#1295D3"
   id="circle308" />
	<circle
   r="3.5"
   cy="202.3"
   cx="188.9"
   fill="#1295D3"
   id="circle310" />
	
		<rect
   height="1.2"
   width="7.5"
   fill="#1295D3"
   transform="matrix(0.7071 -0.7071 0.7071 0.7071 -75.1861 182.3458)"
   y="181.4"
   x="178.8"
   id="rect312" />
	
		<rect
   height="7.5"
   width="1.2"
   fill="#1295D3"
   transform="matrix(0.7071 -0.7071 0.7071 0.7071 -84.9982 186.3946)"
   y="192"
   x="181.9"
   id="rect314" />
	<rect
   height="1.2"
   width="4.2"
   fill="#1295D3"
   y="188"
   x="180.6"
   id="rect316" />
	<g
   id="g324">
		<polygon
   points="202.8,171.7 202.8,173.6 194.2,173.6 194.2,176 202.8,176 202.8,177.9     208.2,174.8   "
   fill="#1295D3"
   id="polygon318" />
		<polygon
   points="194.2,189.8 202.8,189.8 202.8,191.8 208.2,188.6 202.8,185.5 202.8,187.4     194.2,187.4   "
   fill="#1295D3"
   id="polygon320" />
		<polygon
   points="194.2,203.5 202.8,203.5 202.8,205.5 208.2,202.3 202.8,199.2 202.8,201.1     194.2,201.1   "
   fill="#1295D3"
   id="polygon322" />
	</g>
</g>
</svg>
