<?xml version="1.0" encoding="UTF-8" standalone="no"?>
<svg
   xmlns:dc="http://purl.org/dc/elements/1.1/"
   xmlns:cc="http://creativecommons.org/ns#"
   xmlns:rdf="http://www.w3.org/1999/02/22-rdf-syntax-ns#"
   xmlns:svg="http://www.w3.org/2000/svg"
   xmlns="http://www.w3.org/2000/svg"
   xmlns:sodipodi="http://sodipodi.sourceforge.net/DTD/sodipodi-0.dtd"
   xmlns:inkscape="http://www.inkscape.org/namespaces/inkscape"
   version="1.1"
   x="0px"
   y="0px"
   viewBox="0 0 835.8 540"
   enable-background="new 0 0 835.8 540"
   xml:space="preserve"
   id="svg266"
   sodipodi:docname="Logical Switching- End-to-End Communication.svg"
   inkscape:version="1.0 (4035a4fb49, 2020-05-01)"><metadata
   id="metadata272"><rdf:RDF><cc:Work
       rdf:about=""><dc:format>image/svg+xml</dc:format><dc:type
         rdf:resource="http://purl.org/dc/dcmitype/StillImage" /><dc:title /></cc:Work></rdf:RDF></metadata><defs
   id="defs270" /><sodipodi:namedview
   pagecolor="#ffffff"
   bordercolor="#666666"
   borderopacity="1"
   objecttolerance="10"
   gridtolerance="10"
   guidetolerance="10"
   inkscape:pageopacity="0"
   inkscape:pageshadow="2"
   inkscape:window-width="1920"
   inkscape:window-height="1017"
   id="namedview268"
   showgrid="false"
   inkscape:zoom="1.3591769"
   inkscape:cx="364.46904"
   inkscape:cy="271.97918"
   inkscape:window-x="-8"
   inkscape:window-y="-8"
   inkscape:window-maximized="1"
   inkscape:current-layer="Layer_1"
   inkscape:document-rotation="0" />
<g
   id="Layer_2"
   transform="matrix(0.99295944,0,0,0.99181754,2.9415495,4.4185278)">
	<rect
   x="-0.2"
   y="0.5"
   width="836"
   height="539.5"
   id="rect2"
   style="fill:#ffffff" />
</g>
<g
   id="Layer_1">
	<g
   id="g11">
		<g
   id="g7">
			<rect
   x="52.8"
   y="202.9"
   fill="#1B8ECE"
   width="730.2"
   height="33"
   id="rect5" />
		</g>
		<text
   transform="translate(373.6932,223.412)"
   font-size="14px"
   id="text9"
   style="font-size:14px;font-family:Metropolis-Regular;fill:#ffffff">N-VDS/VDS</text>


	</g>
	<g
   id="g15">
		<rect
   x="145.5"
   y="435.6"
   fill="#1B8ECE"
   width="544.7"
   height="33"
   id="rect13" />
	</g>
	<text
   transform="translate(167.0749,456.1355)"
   fill="#ffffff"
   font-family="Metropolis-Regular"
   font-size="14px"
   id="text17">L2</text>


	<text
   transform="translate(223.8851,456.1355)"
   fill="#ffffff"
   font-family="Metropolis-Regular"
   font-size="14px"
   id="text19">IP</text>


	<text
   transform="translate(289.2299,456.1355)"
   fill="#ffffff"
   font-family="Metropolis-Regular"
   font-size="14px"
   id="text21">UDP</text>


	<text
   transform="translate(377.5783,456.1355)"
   fill="#ffffff"
   font-family="Metropolis-Regular"
   font-size="14px"
   id="text23">Geneve</text>


	<text
   transform="translate(487.1884,456.1355)"
   fill="#ffffff"
   font-family="Metropolis-Regular"
   font-size="14px"
   id="text25">L2</text>


	<text
   transform="translate(553.2162,456.1355)"
   fill="#ffffff"
   font-family="Metropolis-Regular"
   font-size="14px"
   id="text27">IP</text>


	<text
   transform="translate(616.8507,456.1355)"
   fill="#ffffff"
   font-family="Metropolis-Regular"
   font-size="14px"
   id="text29">Payload</text>


	<g
   id="g37">
		<g
   id="g33">
			<rect
   x="108.4"
   y="226.8"
   fill="#717074"
   width="74.3"
   height="21.2"
   id="rect31" />
		</g>
		<text
   transform="translate(131.9814,241.4096)"
   fill="#ffffff"
   font-family="Metropolis-Regular"
   font-size="14px"
   id="text35">TEP</text>


	</g>
	<g
   id="g41">
		<rect
   x="119.7"
   y="159.5"
   fill="#7AB929"
   width="33"
   height="21.1"
   id="rect39" />
	</g>
	<g
   id="g45">
		<rect
   x="683"
   y="159.5"
   fill="#7AB929"
   width="33"
   height="21.1"
   id="rect43" />
	</g>
	<g
   id="g49">
		<rect
   x="52.8"
   y="180.5"
   fill="#7AB929"
   width="730.2"
   height="6.4"
   id="rect47" />
	</g>
	<g
   id="g53">
		<rect
   x="52.8"
   y="247"
   fill="#194389"
   width="185.5"
   height="33"
   id="rect51" />
	</g>
	<g
   id="g59">
		<circle
   fill="#F49823"
   cx="67.5"
   cy="136.6"
   r="14.7"
   id="circle55" />
		<text
   transform="translate(64.9677,140.5324)"
   fill="#ffffff"
   font-family="Metropolis-Regular"
   font-size="14px"
   id="text57">1</text>


	</g>
	<circle
   fill="#F49823"
   cx="771"
   cy="140.5"
   r="14.7"
   id="circle61" />
	<text
   transform="translate(766.8577,144.512)"
   fill="#ffffff"
   font-family="Metropolis-Regular"
   font-size="14px"
   id="text63">5</text>


	<g
   id="g69">
		<circle
   fill="#F49823"
   cx="21.6"
   cy="263.5"
   r="14.7"
   id="circle65" />
		<text
   transform="translate(17.6544,267.5114)"
   fill="#ffffff"
   font-family="Metropolis-Regular"
   font-size="14px"
   id="text67">2</text>


	</g>
	<circle
   fill="#F49823"
   cx="407.4"
   cy="388.4"
   r="14.7"
   id="circle71" />
	<text
   transform="translate(403.3591,392.4188)"
   fill="#ffffff"
   font-family="Metropolis-Regular"
   font-size="14px"
   id="text73">3</text>


	<circle
   fill="#F49823"
   cx="816.2"
   cy="263.5"
   r="14.7"
   id="circle75" />
	<text
   transform="translate(812.1239,267.5114)"
   fill="#ffffff"
   font-family="Metropolis-Regular"
   font-size="14px"
   id="text77">4</text>


	<text
   y="49.973999"
   x="115.3417"
   font-family="Metropolis-Regular"
   font-size="14px"
   id="text79">Web-1</text>


	


	<text
   font-family="Metropolis-Regular"
   font-size="14px"
   id="text87"
   x="361.62033"
   y="172.33496">Web-Segment </text>


	


	<text
   transform="translate(85.7264,356.1287)"
   font-family="Metropolis-Regular"
   font-size="14px"
   id="text91">Transport Node A</text>


	<text
   y="422.18369"
   x="306.5148"
   font-family="Metropolis-SemiBold"
   font-size="14px"
   id="text93">Geneve-Encapsulated Packet</text>


	


	


	<text
   fill="#ffffff"
   font-family="Metropolis-Regular"
   font-size="14px"
   id="text99"
   x="127.7811"
   y="267.51099">ESXi</text>


	<g
   id="g121">
		<path
   fill="#717074"
   d="M226.3,370.5v35.9H64.8v-35.9H226.3 M230.8,366H60.3v44.9h170.5V366L230.8,366z"
   id="path101" />
		<path
   fill="#717074"
   d="M145.1,383.1L145.1,383.1c2.6,0,4.9,1.9,5.3,4.5c0.5,2.9-1.5,5.7-4.4,6.2c-0.3,0.1-0.6,0.1-0.9,0.1    c-2.6,0-4.9-1.9-5.3-4.5c-0.5-2.9,1.5-5.7,4.4-6.2C144.5,383.1,144.8,383.1,145.1,383.1 M145.1,379.5c-0.5,0-1,0-1.5,0.1    c-4.9,0.8-8.2,5.4-7.4,10.3c0.7,4.4,4.5,7.5,8.8,7.5c0.5,0,1,0,1.5-0.1c4.9-0.8,8.2-5.4,7.4-10.3    C153.2,382.6,149.4,379.5,145.1,379.5L145.1,379.5z"
   id="path103" />
		<g
   id="g111">
			<rect
   x="72.4"
   y="379.5"
   fill="#717074"
   width="4.5"
   height="17.9"
   id="rect105" />
			<rect
   x="81.4"
   y="379.5"
   fill="#717074"
   width="4.5"
   height="17.9"
   id="rect107" />
			<rect
   x="90.4"
   y="379.5"
   fill="#717074"
   width="4.5"
   height="17.9"
   id="rect109" />
		</g>
		<g
   id="g119">
			<rect
   x="193.3"
   y="379.5"
   fill="#717074"
   width="4.5"
   height="17.9"
   id="rect113" />
			<rect
   x="202.3"
   y="379.5"
   fill="#717074"
   width="4.5"
   height="17.9"
   id="rect115" />
			<rect
   x="211.3"
   y="379.5"
   fill="#717074"
   width="4.5"
   height="17.9"
   id="rect117" />
		</g>
	</g>
	<polygon
   opacity="0.25"
   fill="#717074"
   points="145.5,331.9 52.8,293.6 238.3,293.6 "
   id="polygon123"
   transform="translate(3.0517578e-6,-13.6)" />
	<g
   id="g131">
		<g
   id="g127">
			<rect
   x="653.1"
   y="226.8"
   fill="#717074"
   width="74.3"
   height="21.2"
   id="rect125" />
		</g>
		<text
   transform="translate(676.7245,241.4096)"
   fill="#ffffff"
   font-family="Metropolis-Regular"
   font-size="14px"
   id="text129">TEP</text>


	</g>
	<g
   id="g135">
		<rect
   x="597.5"
   y="247"
   fill="#194389"
   width="185.5"
   height="33"
   id="rect133" />
	</g>
	<text
   transform="translate(630.7357,356.1287)"
   font-family="Metropolis-Regular"
   font-size="14px"
   id="text137">Transport Node B</text>


	


	


	<text
   fill="#ffffff"
   font-family="Metropolis-Regular"
   font-size="14px"
   id="text143"
   x="675.76099"
   y="267.51099">KVM</text>


	<g
   id="g165">
		<path
   fill="#717074"
   d="M771,370.5v35.9H609.5v-35.9H771 M775.5,366H605v44.9h170.5V366L775.5,366z"
   id="path145" />
		<path
   fill="#717074"
   d="M689.8,383.1L689.8,383.1c2.6,0,4.9,1.9,5.3,4.5c0.5,2.9-1.5,5.7-4.4,6.2c-0.3,0.1-0.6,0.1-0.9,0.1    c-2.6,0-4.9-1.9-5.3-4.5c-0.5-2.9,1.5-5.7,4.4-6.2C689.2,383.1,689.5,383.1,689.8,383.1 M689.8,379.5c-0.5,0-1,0-1.5,0.1    c-4.9,0.8-8.2,5.4-7.4,10.3c0.7,4.4,4.5,7.5,8.8,7.5c0.5,0,1,0,1.5-0.1c4.9-0.8,8.2-5.4,7.4-10.3    C697.9,382.6,694.1,379.5,689.8,379.5L689.8,379.5z"
   id="path147" />
		<g
   id="g155">
			<rect
   x="617.1"
   y="379.5"
   fill="#717074"
   width="4.5"
   height="17.9"
   id="rect149" />
			<rect
   x="626.1"
   y="379.5"
   fill="#717074"
   width="4.5"
   height="17.9"
   id="rect151" />
			<rect
   x="635.1"
   y="379.5"
   fill="#717074"
   width="4.5"
   height="17.9"
   id="rect153" />
		</g>
		<g
   id="g163">
			<rect
   x="738.1"
   y="379.5"
   fill="#717074"
   width="4.5"
   height="17.9"
   id="rect157" />
			<rect
   x="747.1"
   y="379.5"
   fill="#717074"
   width="4.5"
   height="17.9"
   id="rect159" />
			<rect
   x="756.1"
   y="379.5"
   fill="#717074"
   width="4.5"
   height="17.9"
   id="rect161" />
		</g>
	</g>
	<polygon
   opacity="0.25"
   fill="#717074"
   points="690.3,331.9 597.5,293.6 783,293.6 "
   id="polygon167"
   transform="translate(0,-13.6)" />
	<g
   id="g177">
		<polygon
   fill="#1B8ECE"
   points="155.3,112.1 109.5,112.1 109.5,58.6 163,58.6 163,111.6 161.5,111.6 161.5,60.1 110.9,60.1     110.9,110.7 155.3,110.7   "
   id="polygon169" />
		<g
   id="g175">
			<path
   fill="#1B8ECE"
   d="M125.6,82.2h1.2l2.4,6l2.4-6h1.2l-3.1,7.3h-1L125.6,82.2z"
   id="path171" />
			<path
   fill="#1B8ECE"
   d="M145.4,84.9v4.6h-1.1V85c0-1.2-0.7-2-1.7-2c-1.2,0-2,0.8-2,1.9v4.6h-1.1V85c0-1.2-0.7-2-1.7-2     c-1.2,0-2,0.8-2,1.9v4.6h-1.1v-7.3h1.1v1.1c0.4-0.8,1.2-1.2,2.1-1.2c1.1,0,2,0.6,2.3,1.5c0.3-0.9,1.3-1.5,2.3-1.5     C144.3,82,145.4,83.2,145.4,84.9z"
   id="path173" />
		</g>
	</g>
	<text
   y="49.973999"
   x="677.1889"
   font-family="Metropolis-Regular"
   font-size="14px"
   id="text179">Web-2</text>


	


	<g
   id="g195">
		<polygon
   fill="#1B8ECE"
   points="718.6,112.1 672.8,112.1 672.8,58.6 726.3,58.6 726.3,111.6 724.9,111.6 724.9,60.1 674.2,60.1     674.2,110.7 718.6,110.7   "
   id="polygon187" />
		<g
   id="g193">
			<path
   fill="#1B8ECE"
   d="M688.9,82.2h1.2l2.4,6l2.4-6h1.2l-3.1,7.3h-1L688.9,82.2z"
   id="path189" />
			<path
   fill="#1B8ECE"
   d="M708.7,84.9v4.6h-1.1V85c0-1.2-0.7-2-1.7-2c-1.2,0-2,0.8-2,1.9v4.6h-1.1V85c0-1.2-0.7-2-1.7-2     c-1.2,0-2,0.8-2,1.9v4.6h-1.1v-7.3h1.1v1.1c0.4-0.8,1.2-1.2,2.1-1.2c1.1,0,2,0.6,2.3,1.5c0.3-0.9,1.3-1.5,2.3-1.5     C707.6,82,708.7,83.2,708.7,84.9z"
   id="path191" />
		</g>
	</g>
	<line
   fill="none"
   stroke="#2BB9CF"
   stroke-miterlimit="10"
   x1="202.3"
   y1="435.6"
   x2="202.3"
   y2="468.7"
   id="line197" />
	<line
   fill="none"
   stroke="#2BB9CF"
   stroke-miterlimit="10"
   x1="262"
   y1="435.6"
   x2="262"
   y2="468.7"
   id="line199" />
	<line
   fill="none"
   stroke="#2BB9CF"
   stroke-miterlimit="10"
   x1="348"
   y1="435.6"
   x2="348"
   y2="468.7"
   id="line201" />
	<line
   fill="none"
   stroke="#2BB9CF"
   stroke-miterlimit="10"
   x1="465.4"
   y1="435.6"
   x2="465.4"
   y2="468.7"
   id="line203" />
	<line
   fill="none"
   stroke="#2BB9CF"
   stroke-miterlimit="10"
   x1="529.3"
   y1="435.6"
   x2="529.3"
   y2="468.7"
   id="line205" />
	<line
   fill="none"
   stroke="#2BB9CF"
   stroke-miterlimit="10"
   x1="590.4"
   y1="435.6"
   x2="590.4"
   y2="468.7"
   id="line207" />
	<g
   id="g217">
		<path
   fill="#1B8ECE"
   d="M409.6,478.5c-8.5,0-15.8,5.7-19,13.9c-2.2-1-4.5-1.6-7.1-1.7c-0.1,0-0.3,0-0.4,0c-8.4,0-15.4,5.9-17.1,14    c-1.1-0.3-2.3-0.5-3.4-0.5c-0.1,0-0.2,0-0.3,0c-7.5,0-13.7,6.1-13.9,13.7c-0.2,7.7,6.9,14.8,14.5,15c0.2,0,0.8,0,1.6,0    c9.3,0,53.2-0.2,62.4-0.2c0.9,0,1.4,0,1.6,0c0.1,0,0.2,0,0.3,0c7.8,0,14.3-7.4,14.5-16.5c0.2-9-5.6-16.5-13.2-17.2    c-1-11.2-9.5-20.1-20-20.4C409.9,478.5,409.8,478.5,409.6,478.5L409.6,478.5z"
   id="path209" />
		<path
   fill="#1B8ECE"
   d="M344.2,478.5c-8.5,0-15.8,5.7-19,13.9c-2.2-1-4.5-1.6-7.1-1.7c-0.1,0-0.3,0-0.4,0c-8.4,0-15.4,5.9-17.1,14    c-1.1-0.3-2.3-0.5-3.4-0.5c-0.1,0-0.2,0-0.3,0c-7.5,0-13.7,6.1-13.9,13.7c-0.2,7.7,6.9,14.8,14.5,15c0.2,0,0.8,0,1.6,0    c9.3,0,53.2-0.2,62.4-0.2c0.9,0,1.4,0,1.6,0c0.1,0,0.2,0,0.3,0c7.8,0,14.3-7.4,14.5-16.5c0.2-9-5.6-16.5-13.2-17.2    c-1-11.2-9.5-20.1-20-20.4C344.6,478.5,344.4,478.5,344.2,478.5L344.2,478.5z"
   id="path211" />
		<path
   fill="#1B8ECE"
   d="M461.2,478.5c-8.5,0-15.8,5.7-19,13.9c-2.2-1-4.5-1.6-7.1-1.7c-0.1,0-0.3,0-0.4,0c-8.4,0-15.4,5.9-17.1,14    c-1.1-0.3-2.3-0.5-3.4-0.5c-0.1,0-0.2,0-0.3,0c-7.5,0-13.7,6.1-13.9,13.7c-0.2,7.7,6.9,14.8,14.5,15c0.2,0,0.8,0,1.6,0    c9.3,0,53.2-0.2,62.4-0.2c0.9,0,1.4,0,1.6,0c0.1,0,0.2,0,0.3,0c7.8,0,14.3-7.4,14.5-16.5c0.2-9-5.6-16.5-13.2-17.2    c-1-11.2-9.5-20.1-20-20.4C461.6,478.5,461.4,478.5,461.2,478.5L461.2,478.5z"
   id="path213" />
		<path
   fill="#1B8ECE"
   d="M519.2,478.5c-8.5,0-15.8,5.7-19,13.9c-2.2-1-4.5-1.6-7.1-1.7c-0.1,0-0.3,0-0.4,0c-8.4,0-15.4,5.9-17.1,14    c-1.1-0.3-2.3-0.5-3.4-0.5c-0.1,0-0.2,0-0.3,0c-7.5,0-13.7,6.1-13.9,13.7c-0.2,7.7,6.9,14.8,14.5,15c0.2,0,0.8,0,1.6,0    c9.3,0,53.2-0.2,62.4-0.2c0.9,0,1.4,0,1.6,0c0.1,0,0.2,0,0.3,0c7.8,0,14.3-7.4,14.5-16.5c0.2-9-5.6-16.5-13.2-17.2    c-1-11.2-9.5-20.1-20-20.4C519.5,478.5,519.4,478.5,519.2,478.5L519.2,478.5z"
   id="path215" />
	</g>
	<text
   transform="translate(321.1107,521.0157)"
   fill="#ffffff"
   font-family="Metropolis-Regular"
   font-size="14px"
   id="text219">L2/L3 Network Infrastructure</text>


	<line
   fill="none"
   stroke="#717074"
   stroke-miterlimit="10"
   x1="136.2"
   y1="118"
   x2="136.2"
   y2="151.3"
   id="line221" />
	<g
   id="g231">
		<g
   id="g229">
			<line
   fill="none"
   stroke="#F49823"
   stroke-miterlimit="10"
   stroke-dasharray="3,3"
   x1="94.9"
   y1="100.5"
   x2="94.9"
   y2="169"
   id="line223" />
			<g
   id="g227">
				<polygon
   fill="#F49823"
   points="89.9,167.5 94.9,176.1 99.9,167.5     "
   id="polygon225" />
			</g>
		</g>
	</g>
	<g
   id="g241">
		<g
   id="g239">
			
				<line
   fill="none"
   stroke="#F49823"
   stroke-miterlimit="10"
   stroke-dasharray="3,3"
   x1="736.2"
   y1="176.1"
   x2="736.2"
   y2="107.7"
   id="line233" />
			<g
   id="g237">
				<polygon
   fill="#F49823"
   points="741.2,109.2 736.2,100.5 731.2,109.2     "
   id="polygon235" />
			</g>
		</g>
	</g>
	<line
   fill="none"
   stroke="#717074"
   stroke-miterlimit="10"
   x1="699.5"
   y1="118"
   x2="699.5"
   y2="151.3"
   id="line243" />
	<g
   id="g253">
		<g
   id="g251">
			<polyline
   fill="none"
   stroke="#717074"
   stroke-miterlimit="10"
   points="125.6,426.1 125.6,521 273.1,521    "
   id="polyline245" />
			<g
   id="g249">
				<polygon
   fill="#717074"
   points="120.6,427.5 125.6,418.9 130.6,427.5     "
   id="polygon247" />
			</g>
		</g>
	</g>
	<g
   id="g263">
		<g
   id="g261">
			<polyline
   fill="none"
   stroke="#717074"
   stroke-miterlimit="10"
   points="708.9,426.1 708.9,521 561.4,521    "
   id="polyline255" />
			<g
   id="g259">
				<polygon
   fill="#717074"
   points="703.9,427.5 708.9,418.9 713.9,427.5     "
   id="polygon257" />
			</g>
		</g>
	</g>
</g>
</svg>
