<?xml version="1.0" encoding="UTF-8" standalone="no"?>
<svg
   xmlns:dc="http://purl.org/dc/elements/1.1/"
   xmlns:cc="http://creativecommons.org/ns#"
   xmlns:rdf="http://www.w3.org/1999/02/22-rdf-syntax-ns#"
   xmlns:svg="http://www.w3.org/2000/svg"
   xmlns="http://www.w3.org/2000/svg"
   xmlns:sodipodi="http://sodipodi.sourceforge.net/DTD/sodipodi-0.dtd"
   xmlns:inkscape="http://www.inkscape.org/namespaces/inkscape"
   version="1.1"
   id="Layer_1"
   x="0px"
   y="0px"
   viewBox="0 0 738.8 537.1"
   enable-background="new 0 0 738.8 537.1"
   xml:space="preserve"
   sodipodi:docname="Micro-SegmentationinNSX-TDataCenter.svg"
   inkscape:version="1.0 (4035a4fb49, 2020-05-01)"><metadata
   id="metadata339"><rdf:RDF><cc:Work
       rdf:about=""><dc:format>image/svg+xml</dc:format><dc:type
         rdf:resource="http://purl.org/dc/dcmitype/StillImage" /></cc:Work></rdf:RDF></metadata><defs
   id="defs337" /><sodipodi:namedview
   inkscape:document-rotation="0"
   pagecolor="#ffffff"
   bordercolor="#666666"
   borderopacity="1"
   objecttolerance="10"
   gridtolerance="10"
   guidetolerance="10"
   inkscape:pageopacity="0"
   inkscape:pageshadow="2"
   inkscape:window-width="1920"
   inkscape:window-height="1013"
   id="namedview335"
   showgrid="false"
   inkscape:zoom="1.4198701"
   inkscape:cx="369.39999"
   inkscape:cy="268.54999"
   inkscape:window-x="-9"
   inkscape:window-y="-9"
   inkscape:window-maximized="1"
   inkscape:current-layer="Layer_1" />
<line
   fill="none"
   stroke="#717074"
   stroke-miterlimit="10"
   x1="148.4"
   y1="116.1"
   x2="686.9"
   y2="116.1"
   id="line2" />
<line
   fill="none"
   stroke="#717074"
   stroke-miterlimit="10"
   x1="148.4"
   y1="220"
   x2="686.9"
   y2="220"
   id="line4" />
<line
   fill="none"
   stroke="#717074"
   stroke-miterlimit="10"
   x1="148.4"
   y1="323.9"
   x2="686.9"
   y2="323.9"
   id="line6" />
<line
   fill="none"
   stroke="#717074"
   stroke-miterlimit="10"
   x1="58.3"
   y1="430.5"
   x2="686.9"
   y2="430.5"
   id="line8" />
<text
   transform="matrix(1 0 0 1 67.2522 111.658)"
   font-family="'Metropolis-Regular'"
   font-size="14px"
   id="text10">Perimeter</text>
<text
   transform="matrix(1 0 0 1 67.2522 128.458)"
   font-family="'Metropolis-Regular'"
   font-size="14px"
   id="text12">Firewall</text>
<text
   transform="matrix(1 0 0 1 32.2765 173.9707)"
   font-family="'Metropolis-Regular'"
   font-size="14px"
   id="text14">Inside</text>
<text
   transform="matrix(1 0 0 1 32.2765 190.7707)"
   font-family="'Metropolis-Regular'"
   font-size="14px"
   id="text16">Firewall</text>
<text
   font-family="Metropolis-SemiBold"
   font-size="18px"
   id="text18"
   x="324.52289"
   y="26.537411">Micro-Segmentation </text>
<text
   transform="matrix(1 0 0 1 68.8618 421.5665)"
   font-family="'Metropolis-Regular'"
   font-size="14px"
   id="text20">Services</text>
<rect
   x="8.9"
   y="6.6"
   fill="none"
   stroke="#000000"
   stroke-miterlimit="10"
   width="721"
   height="523.9"
   id="rect22" />
<text
   transform="matrix(1 0 0 1 226.1319 522.89)"
   fill="#717074"
   font-family="'Metropolis-Regular'"
   font-size="12px"
   id="text24">AD</text>
<text
   transform="matrix(1 0 0 1 321.6852 522.89)"
   fill="#717074"
   font-family="'Metropolis-Regular'"
   font-size="12px"
   id="text26">NTP</text>
<text
   transform="matrix(1 0 0 1 404.1185 522.89)"
   fill="#717074"
   font-family="'Metropolis-Regular'"
   font-size="12px"
   id="text28">DHCP</text>
<text
   transform="matrix(1 0 0 1 659.4036 340.4818)"
   fill="#717074"
   font-family="'Metropolis-Regular'"
   font-size="12px"
   id="text30">DB</text>
<text
   transform="matrix(1 0 0 1 656.1697 234.2612)"
   fill="#717074"
   font-family="'Metropolis-Regular'"
   font-size="12px"
   id="text32">App</text>
<text
   transform="matrix(1 0 0 1 654.6399 130.3626)"
   fill="#717074"
   font-family="'Metropolis-Regular'"
   font-size="12px"
   id="text34">DMZ</text>
<text
   transform="matrix(1 0 0 1 496.7347 522.89)"
   fill="#717074"
   font-family="'Metropolis-Regular'"
   font-size="12px"
   id="text36">DNS</text>
<text
   transform="matrix(1 0 0 1 592.7891 522.89)"
   fill="#717074"
   font-family="'Metropolis-Regular'"
   font-size="12px"
   id="text38">CERT</text>
<g
   id="g44">
	<path
   fill="#820024"
   d="M284.6,119.4c0.1-0.1,0.1-0.3,0.3-0.5v-2.8h1.4c0.1-0.3,0.2-0.5,0.4-0.8H282V111h8.3v3.1l0.4,0.7l0.4-0.8   v-2.9h1.4l0.4-0.8h-6.3V106h8.3v3.8l0.5,1c0,0.1,0.1,0.2,0.1,0.2h1.6v3.3c0.3,0.5,0.5,1.1,0.8,1.6v-0.5v-4.3v-0.8v-5.2h-28.2v5.1   v0.8v4.3v0.8v5.1H284C284.1,120.5,284.3,120,284.6,119.4z M295.7,105.9h1.5v4.3h-1.5V105.9z M284.1,116.1v4.3h-8.3v-4.3H284.1z    M272.9,115.3V111h8.3v4.3H272.9z M277.5,105.9h8.3v4.3h-8.3V105.9z M270.5,105.9h6.3v4.3h-6.3V105.9z M270.5,111h1.6v4.3h-1.6V111   z M275,120.4h-4.5v-4.3h4.5V120.4z"
   id="path40" />
	<path
   fill="#820024"
   d="M297.8,118.4c-0.4-0.9-2.4-5-3.5-7.1c-0.1-0.1-0.2-0.2-0.3-0.2l0,0c-0.1,0-0.3,0.1-0.3,0.2l-2.9,6   c0,0.1-0.1,0.1-0.2,0l-1.5-3c-0.1-0.1-0.2-0.2-0.3-0.2l0,0c-0.1,0-0.3,0.1-0.3,0.2c-0.8,1.6-2.4,4.9-2.8,5.7   c-0.4,0.8-0.6,1.6-0.6,2.5c0,2.5,1.7,4.5,3.7,4.5h5.2c2.5,0,4.5-2.5,4.5-5.6C298.6,120.3,298.3,119.3,297.8,118.4z M294.5,125.1   c-0.1,0.2-0.4,0.2-0.5,0.1c-0.2-0.1-0.2-0.3-0.1-0.5c1.5-2.2,0.8-4.4,0-5.4c-0.6,2.4-1.3,3.9-2.9,3.9l0,0c-0.7,0-1.4-0.6-1.9-1.1   c-0.3,0.9-0.4,2.1,0.5,2.7c0.2,0.1,0.2,0.3,0.1,0.5c-0.1,0.1-0.2,0.2-0.3,0.2c-0.1,0-0.1,0-0.2-0.1c-1.5-1-1.1-3.1-0.5-4.3   c0.1-0.1,0.2-0.2,0.3-0.2c0.1,0,0.3,0.1,0.3,0.2c0.2,0.3,1,1.3,1.7,1.3c1,0,1.7-1,2.3-3.9v-0.1c0-0.1,0.1-0.3,0.2-0.3   c0.1-0.1,0.3,0,0.4,0C295.3,119.3,296.4,122.3,294.5,125.1z"
   id="path42" />
</g>
<g
   id="g50">
	<path
   fill="#820024"
   d="M422.2,119.4c0.1-0.1,0.1-0.3,0.3-0.5v-2.8h1.4c0.1-0.3,0.2-0.5,0.4-0.8h-4.7V111h8.3v3.1l0.4,0.7l0.4-0.8   v-2.9h1.4l0.4-0.8h-6.2V106h8.3v3.8l0.5,1c0,0.1,0.1,0.2,0.1,0.2h1.6v3.3c0.3,0.5,0.5,1.1,0.8,1.6v-0.5v-4.3v-0.8v-5.2h-28.2v5.1   v0.8v4.3v0.8v5.1h14.3C421.7,120.5,421.9,120,422.2,119.4z M433.2,105.9h1.5v4.3h-1.5V105.9z M421.6,116.1v4.3h-8.3v-4.3H421.6z    M410.4,115.3V111h8.3v4.3H410.4z M415,105.9h8.3v4.3H415V105.9z M408,105.9h6.3v4.3H408V105.9z M408,111h1.6v4.3H408V111z    M412.6,120.4h-4.5v-4.3h4.5V120.4z"
   id="path46" />
	<path
   fill="#820024"
   d="M435.3,118.4c-0.4-0.9-2.4-5-3.5-7.1c-0.1-0.1-0.2-0.2-0.3-0.2l0,0c-0.1,0-0.3,0.1-0.3,0.2l-2.9,6   c0,0.1-0.1,0.1-0.2,0l-1.5-3c-0.1-0.1-0.2-0.2-0.3-0.2l0,0c-0.1,0-0.3,0.1-0.3,0.2c-0.8,1.6-2.4,4.9-2.8,5.7   c-0.4,0.8-0.6,1.6-0.6,2.5c0,2.5,1.7,4.5,3.7,4.5h5.2c2.5,0,4.5-2.5,4.5-5.6C436.1,120.3,435.8,119.3,435.3,118.4z M432.1,125.1   c-0.1,0.2-0.4,0.2-0.5,0.1c-0.2-0.1-0.2-0.3-0.1-0.5c1.5-2.2,0.8-4.4,0-5.4c-0.6,2.4-1.3,3.9-2.9,3.9l0,0c-0.7,0-1.4-0.6-1.9-1.1   c-0.3,0.9-0.4,2.1,0.5,2.7c0.2,0.1,0.2,0.3,0.1,0.5c-0.1,0.1-0.2,0.2-0.3,0.2s-0.1,0-0.2-0.1c-1.5-1-1.1-3.1-0.5-4.3   c0.1-0.1,0.2-0.2,0.3-0.2s0.3,0.1,0.3,0.2c0.2,0.3,1,1.3,1.7,1.3c1,0,1.7-1,2.3-3.9v-0.1c0-0.1,0.1-0.3,0.2-0.3   c0.1-0.1,0.3,0,0.4,0C432.8,119.3,433.9,122.3,432.1,125.1z"
   id="path48" />
</g>
<g
   id="g56">
	<path
   fill="#820024"
   d="M559.7,119.4c0.1-0.1,0.1-0.3,0.3-0.5v-2.8h1.4c0.1-0.3,0.2-0.5,0.4-0.8h-4.7V111h8.3v3.1l0.4,0.7l0.4-0.8   v-2.9h1.4l0.4-0.8h-6.2V106h8.3v3.8l0.5,1c0,0.1,0.1,0.2,0.1,0.2h1.6v3.3c0.3,0.5,0.5,1.1,0.8,1.6v-0.5v-4.3v-0.8v-5.2h-28.2v5.1   v0.8v4.3v0.8v5.1h14.3C559.2,120.5,559.4,120,559.7,119.4z M570.8,105.9h1.5v4.3h-1.5V105.9z M559.2,116.1v4.3h-8.3v-4.3H559.2z    M547.9,115.3V111h8.3v4.3H547.9z M552.6,105.9h8.3v4.3h-8.3V105.9z M545.6,105.9h6.3v4.3h-6.3V105.9z M545.6,111h1.6v4.3h-1.6V111   z M550.1,120.4h-4.5v-4.3h4.5V120.4z"
   id="path52" />
	<path
   fill="#820024"
   d="M572.9,118.4c-0.4-0.9-2.4-5-3.5-7.1c-0.1-0.1-0.2-0.2-0.3-0.2l0,0c-0.1,0-0.3,0.1-0.3,0.2l-2.9,6   c0,0.1-0.1,0.1-0.2,0l-1.5-3c-0.1-0.1-0.2-0.2-0.3-0.2l0,0c-0.1,0-0.3,0.1-0.3,0.2c-0.8,1.6-2.4,4.9-2.8,5.7   c-0.4,0.8-0.6,1.6-0.6,2.5c0,2.5,1.7,4.5,3.7,4.5h5.2c2.5,0,4.5-2.5,4.5-5.6C573.6,120.3,573.4,119.3,572.9,118.4z M569.6,125.1   c-0.1,0.2-0.4,0.2-0.5,0.1c-0.2-0.1-0.2-0.3-0.1-0.5c1.5-2.2,0.8-4.4,0-5.4c-0.6,2.4-1.3,3.9-2.9,3.9l0,0c-0.7,0-1.4-0.6-1.9-1.1   c-0.3,0.9-0.4,2.1,0.5,2.7c0.2,0.1,0.2,0.3,0.1,0.5c-0.1,0.1-0.2,0.2-0.3,0.2s-0.1,0-0.2-0.1c-1.5-1-1.1-3.1-0.5-4.3   c0.1-0.1,0.2-0.2,0.3-0.2s0.3,0.1,0.3,0.2c0.2,0.3,1,1.3,1.7,1.3c1,0,1.7-1,2.3-3.9v-0.1c0-0.1,0.1-0.3,0.2-0.3   c0.1-0.1,0.3,0,0.4,0C570.4,119.3,571.4,122.3,569.6,125.1z"
   id="path54" />
</g>
<g
   id="g62">
	<path
   fill="#820024"
   d="M284.6,223.3c0.1-0.1,0.1-0.3,0.3-0.5V220h1.4c0.1-0.3,0.2-0.5,0.4-0.8H282v-4.3h8.3v3.1l0.4,0.7l0.4-0.8   V215h1.4l0.4-0.8h-6.3v-4.3h8.3v3.8l0.5,1c0,0.1,0.1,0.2,0.1,0.2h1.6v3.3c0.3,0.5,0.5,1.1,0.8,1.6v-0.5V215v-0.9V209h-28.2v5.1v0.8   v4.3v0.8v5.1H284C284.1,224.4,284.3,223.9,284.6,223.3z M295.7,209.8h1.5v4.3h-1.5V209.8z M284.1,220v4.3h-8.3V220H284.1z    M272.9,219.2v-4.3h8.3v4.3H272.9z M277.5,209.8h8.3v4.3h-8.3V209.8z M270.5,209.8h6.3v4.3h-6.3V209.8z M270.5,214.9h1.6v4.3h-1.6   V214.9z M275,224.3h-4.5V220h4.5V224.3z"
   id="path58" />
	<path
   fill="#820024"
   d="M297.8,222.3c-0.4-0.9-2.4-5-3.5-7.1c-0.1-0.1-0.2-0.2-0.3-0.2l0,0c-0.1,0-0.3,0.1-0.3,0.2l-2.9,6   c0,0.1-0.1,0.1-0.2,0l-1.5-3c-0.1-0.1-0.2-0.2-0.3-0.2l0,0c-0.1,0-0.3,0.1-0.3,0.2c-0.8,1.6-2.4,4.9-2.8,5.7s-0.6,1.6-0.6,2.5   c0,2.5,1.7,4.5,3.7,4.5h5.2c2.5,0,4.5-2.5,4.5-5.6C298.6,224.2,298.3,223.2,297.8,222.3z M294.5,229c-0.1,0.2-0.4,0.2-0.5,0.1   c-0.2-0.1-0.2-0.3-0.1-0.5c1.5-2.2,0.8-4.4,0-5.4c-0.6,2.4-1.3,3.9-2.9,3.9l0,0c-0.7,0-1.4-0.6-1.9-1.1c-0.3,0.9-0.4,2.1,0.5,2.7   c0.2,0.1,0.2,0.3,0.1,0.5c-0.1,0.1-0.2,0.2-0.3,0.2c-0.1,0-0.1,0-0.2-0.1c-1.5-1-1.1-3.1-0.5-4.3c0.1-0.1,0.2-0.2,0.3-0.2   c0.1,0,0.3,0.1,0.3,0.2c0.2,0.3,1,1.3,1.7,1.3c1,0,1.7-1,2.3-3.9v-0.1c0-0.1,0.1-0.3,0.2-0.3c0.1-0.1,0.3,0,0.4,0   C295.3,223.2,296.4,226.2,294.5,229z"
   id="path60" />
</g>
<g
   id="g68">
	<path
   fill="#820024"
   d="M422.2,223.3c0.1-0.1,0.1-0.3,0.3-0.5V220h1.4c0.1-0.3,0.2-0.5,0.4-0.8h-4.7v-4.3h8.3v3.1l0.4,0.7l0.4-0.8   V215h1.4l0.4-0.8h-6.2v-4.3h8.3v3.8l0.5,1c0,0.1,0.1,0.2,0.1,0.2h1.6v3.3c0.3,0.5,0.5,1.1,0.8,1.6v-0.5V215v-0.9V209h-28.2v5.1v0.8   v4.3v0.8v5.1h14.3C421.7,224.4,421.9,223.9,422.2,223.3z M433.2,209.8h1.5v4.3h-1.5V209.8z M421.6,220v4.3h-8.3V220H421.6z    M410.4,219.2v-4.3h8.3v4.3H410.4z M415,209.8h8.3v4.3H415V209.8z M408,209.8h6.3v4.3H408V209.8z M408,214.9h1.6v4.3H408V214.9z    M412.6,224.3h-4.5V220h4.5V224.3z"
   id="path64" />
	<path
   fill="#820024"
   d="M435.3,222.3c-0.4-0.9-2.4-5-3.5-7.1c-0.1-0.1-0.2-0.2-0.3-0.2l0,0c-0.1,0-0.3,0.1-0.3,0.2l-2.9,6   c0,0.1-0.1,0.1-0.2,0l-1.5-3c-0.1-0.1-0.2-0.2-0.3-0.2l0,0c-0.1,0-0.3,0.1-0.3,0.2c-0.8,1.6-2.4,4.9-2.8,5.7   c-0.4,0.8-0.6,1.6-0.6,2.5c0,2.5,1.7,4.5,3.7,4.5h5.2c2.5,0,4.5-2.5,4.5-5.6C436.1,224.2,435.8,223.2,435.3,222.3z M432.1,229   c-0.1,0.2-0.4,0.2-0.5,0.1c-0.2-0.1-0.2-0.3-0.1-0.5c1.5-2.2,0.8-4.4,0-5.4c-0.6,2.4-1.3,3.9-2.9,3.9l0,0c-0.7,0-1.4-0.6-1.9-1.1   c-0.3,0.9-0.4,2.1,0.5,2.7c0.2,0.1,0.2,0.3,0.1,0.5c-0.1,0.1-0.2,0.2-0.3,0.2s-0.1,0-0.2-0.1c-1.5-1-1.1-3.1-0.5-4.3   c0.1-0.1,0.2-0.2,0.3-0.2s0.3,0.1,0.3,0.2c0.2,0.3,1,1.3,1.7,1.3c1,0,1.7-1,2.3-3.9v-0.1c0-0.1,0.1-0.3,0.2-0.3   c0.1-0.1,0.3,0,0.4,0C432.8,223.2,433.9,226.2,432.1,229z"
   id="path66" />
</g>
<g
   id="g74">
	<path
   fill="#820024"
   d="M559.7,223.3c0.1-0.1,0.1-0.3,0.3-0.5V220h1.4c0.1-0.3,0.2-0.5,0.4-0.8h-4.7v-4.3h8.3v3.1l0.4,0.7l0.4-0.8   V215h1.4l0.4-0.8h-6.2v-4.3h8.3v3.8l0.5,1c0,0.1,0.1,0.2,0.1,0.2h1.6v3.3c0.3,0.5,0.5,1.1,0.8,1.6v-0.5V215v-0.9V209h-28.2v5.1v0.8   v4.3v0.8v5.1h14.3C559.2,224.4,559.4,223.9,559.7,223.3z M570.8,209.8h1.5v4.3h-1.5V209.8z M559.2,220v4.3h-8.3V220H559.2z    M547.9,219.2v-4.3h8.3v4.3H547.9z M552.6,209.8h8.3v4.3h-8.3V209.8z M545.6,209.8h6.3v4.3h-6.3V209.8z M545.6,214.9h1.6v4.3h-1.6   V214.9z M550.1,224.3h-4.5V220h4.5V224.3z"
   id="path70" />
	<path
   fill="#820024"
   d="M572.9,222.3c-0.4-0.9-2.4-5-3.5-7.1c-0.1-0.1-0.2-0.2-0.3-0.2l0,0c-0.1,0-0.3,0.1-0.3,0.2l-2.9,6   c0,0.1-0.1,0.1-0.2,0l-1.5-3c-0.1-0.1-0.2-0.2-0.3-0.2l0,0c-0.1,0-0.3,0.1-0.3,0.2c-0.8,1.6-2.4,4.9-2.8,5.7   c-0.4,0.8-0.6,1.6-0.6,2.5c0,2.5,1.7,4.5,3.7,4.5h5.2c2.5,0,4.5-2.5,4.5-5.6C573.6,224.2,573.4,223.2,572.9,222.3z M569.6,229   c-0.1,0.2-0.4,0.2-0.5,0.1c-0.2-0.1-0.2-0.3-0.1-0.5c1.5-2.2,0.8-4.4,0-5.4c-0.6,2.4-1.3,3.9-2.9,3.9l0,0c-0.7,0-1.4-0.6-1.9-1.1   c-0.3,0.9-0.4,2.1,0.5,2.7c0.2,0.1,0.2,0.3,0.1,0.5c-0.1,0.1-0.2,0.2-0.3,0.2s-0.1,0-0.2-0.1c-1.5-1-1.1-3.1-0.5-4.3   c0.1-0.1,0.2-0.2,0.3-0.2s0.3,0.1,0.3,0.2c0.2,0.3,1,1.3,1.7,1.3c1,0,1.7-1,2.3-3.9v-0.1c0-0.1,0.1-0.3,0.2-0.3   c0.1-0.1,0.3,0,0.4,0C570.4,223.2,571.4,226.2,569.6,229z"
   id="path72" />
</g>
<g
   id="g84">
	<polygon
   fill="#820024"
   points="298.8,191.3 263.6,191.3 263.6,150.3 304.7,150.3 304.7,191 303.6,191 303.6,151.4 264.7,151.4    264.7,190.3 298.8,190.3  "
   id="polygon76" />
	<g
   id="g82">
		<path
   fill="#820024"
   d="M276,168.4h0.9l1.9,4.6l1.8-4.6h0.9l-2.3,5.6h-0.8L276,168.4z"
   id="path78" />
		<path
   fill="#820024"
   d="M291.2,170.4v3.6h-0.8v-3.4c0-0.9-0.5-1.5-1.3-1.5c-0.9,0-1.5,0.6-1.5,1.4v3.6h-0.8v-3.4    c0-0.9-0.5-1.5-1.3-1.5c-0.9,0-1.5,0.6-1.5,1.4v3.6h-0.8v-5.6h0.8v0.8c0.3-0.6,0.9-1,1.6-1c0.8,0,1.5,0.5,1.8,1.2    c0.2-0.7,1-1.2,1.8-1.2C290.3,168.3,291.2,169.2,291.2,170.4z"
   id="path80" />
	</g>
</g>
<g
   id="g94">
	<polygon
   fill="#820024"
   points="298.8,296.8 263.6,296.8 263.6,255.7 304.7,255.7 304.7,296.4 303.6,296.4 303.6,256.8    264.7,256.8 264.7,295.7 298.8,295.7  "
   id="polygon86" />
	<g
   id="g92">
		<path
   fill="#820024"
   d="M276,273.8h0.9l1.9,4.6l1.8-4.6h0.9l-2.3,5.6h-0.8L276,273.8z"
   id="path88" />
		<path
   fill="#820024"
   d="M291.2,275.8v3.6h-0.8V276c0-0.9-0.5-1.5-1.3-1.5c-0.9,0-1.5,0.6-1.5,1.4v3.6h-0.8v-3.4    c0-0.9-0.5-1.5-1.3-1.5c-0.9,0-1.5,0.6-1.5,1.4v3.6h-0.8V274h0.8v0.8c0.3-0.6,0.9-1,1.6-1c0.8,0,1.5,0.5,1.8,1.2    c0.2-0.7,1-1.2,1.8-1.2C290.3,273.7,291.2,274.6,291.2,275.8z"
   id="path90" />
	</g>
</g>
<polygon
   fill="#820024"
   points="298.8,400.5 263.6,400.5 263.6,359.4 304.7,359.4 304.7,400.1 303.6,400.1 303.6,360.5 264.7,360.5   264.7,399.4 298.8,399.4 "
   id="polygon96" />
<g
   id="g102">
	<path
   fill="#820024"
   d="M276,377.5h0.9l1.9,4.6l1.8-4.6h0.9l-2.3,5.6h-0.8L276,377.5z"
   id="path98" />
	<path
   fill="#820024"
   d="M291.2,379.5v3.6h-0.8v-3.4c0-0.9-0.5-1.5-1.3-1.5c-0.9,0-1.5,0.6-1.5,1.4v3.6h-0.8v-3.4   c0-0.9-0.5-1.5-1.3-1.5c-0.9,0-1.5,0.6-1.5,1.4v3.6h-0.8v-5.6h0.8v0.8c0.3-0.6,0.9-1,1.6-1c0.8,0,1.5,0.5,1.8,1.2   c0.2-0.7,1-1.2,1.8-1.2C290.3,377.4,291.2,378.3,291.2,379.5z"
   id="path100" />
</g>
<g
   id="g112">
	<polygon
   fill="#387C2C"
   points="436.4,191.3 401.1,191.3 401.1,150.3 442.2,150.3 442.2,191 441.1,191 441.1,151.4 402.2,151.4    402.2,190.3 436.4,190.3  "
   id="polygon104" />
	<g
   id="g110">
		<path
   fill="#387C2C"
   d="M413.5,168.4h0.9l1.9,4.6l1.8-4.6h0.9l-2.3,5.6h-0.8L413.5,168.4z"
   id="path106" />
		<path
   fill="#387C2C"
   d="M428.7,170.4v3.6h-0.8v-3.4c0-0.9-0.5-1.5-1.3-1.5c-0.9,0-1.5,0.6-1.5,1.4v3.6h-0.8v-3.4    c0-0.9-0.5-1.5-1.3-1.5c-0.9,0-1.5,0.6-1.5,1.4v3.6h-0.8v-5.6h0.8v0.8c0.3-0.6,0.9-1,1.6-1c0.8,0,1.5,0.5,1.8,1.2    c0.2-0.7,1-1.2,1.8-1.2C427.9,168.3,428.7,169.2,428.7,170.4z"
   id="path108" />
	</g>
</g>
<g
   id="g122">
	<polygon
   fill="#387C2C"
   points="436.4,296.8 401.1,296.8 401.1,255.7 442.2,255.7 442.2,296.4 441.1,296.4 441.1,256.8    402.2,256.8 402.2,295.7 436.4,295.7  "
   id="polygon114" />
	<g
   id="g120">
		<path
   fill="#387C2C"
   d="M413.5,273.8h0.9l1.9,4.6l1.8-4.6h0.9l-2.3,5.6h-0.8L413.5,273.8z"
   id="path116" />
		<path
   fill="#387C2C"
   d="M428.7,275.8v3.6h-0.8V276c0-0.9-0.5-1.5-1.3-1.5c-0.9,0-1.5,0.6-1.5,1.4v3.6h-0.8v-3.4    c0-0.9-0.5-1.5-1.3-1.5c-0.9,0-1.5,0.6-1.5,1.4v3.6h-0.8V274h0.8v0.8c0.3-0.6,0.9-1,1.6-1c0.8,0,1.5,0.5,1.8,1.2    c0.2-0.7,1-1.2,1.8-1.2C427.9,273.7,428.7,274.6,428.7,275.8z"
   id="path118" />
	</g>
</g>
<g
   id="g132">
	<polygon
   fill="#387C2C"
   points="436.4,400.5 401.1,400.5 401.1,359.4 442.2,359.4 442.2,400.1 441.1,400.1 441.1,360.5    402.2,360.5 402.2,399.4 436.4,399.4  "
   id="polygon124" />
	<g
   id="g130">
		<path
   fill="#387C2C"
   d="M413.5,377.5h0.9l1.9,4.6l1.8-4.6h0.9l-2.4,5.6h-0.8L413.5,377.5z"
   id="path126" />
		<path
   fill="#387C2C"
   d="M428.7,379.5v3.6h-0.8v-3.4c0-0.9-0.5-1.5-1.3-1.5c-0.9,0-1.5,0.6-1.5,1.4v3.6h-0.8v-3.4    c0-0.9-0.5-1.5-1.3-1.5c-0.9,0-1.5,0.6-1.5,1.4v3.6h-0.8v-5.6h0.8v0.8c0.3-0.6,0.9-1,1.6-1c0.8,0,1.5,0.5,1.8,1.2    c0.2-0.7,1-1.2,1.8-1.2C427.9,377.4,428.7,378.3,428.7,379.5z"
   id="path128" />
	</g>
</g>
<g
   id="g142">
	<polygon
   fill="#1A428A"
   points="573.9,191.3 538.7,191.3 538.7,150.3 579.7,150.3 579.7,191 578.7,191 578.7,151.4 539.8,151.4    539.8,190.3 573.9,190.3  "
   id="polygon134" />
	<g
   id="g140">
		<path
   fill="#1A428A"
   d="M551,168.4h0.9l1.9,4.6l1.8-4.6h0.9l-2.3,5.6h-0.8L551,168.4z"
   id="path136" />
		<path
   fill="#1A428A"
   d="M566.2,170.4v3.6h-0.8v-3.4c0-0.9-0.5-1.5-1.3-1.5c-0.9,0-1.5,0.6-1.5,1.4v3.6h-0.8v-3.4    c0-0.9-0.5-1.5-1.3-1.5c-0.9,0-1.5,0.6-1.5,1.4v3.6h-0.8v-5.6h0.8v0.8c0.3-0.6,0.9-1,1.6-1c0.8,0,1.5,0.5,1.8,1.2    c0.2-0.7,1-1.2,1.8-1.2C565.4,168.3,566.2,169.2,566.2,170.4z"
   id="path138" />
	</g>
</g>
<g
   id="g152">
	<polygon
   fill="#1A428A"
   points="573.9,296.8 538.7,296.8 538.7,255.7 579.7,255.7 579.7,296.4 578.7,296.4 578.7,256.8    539.8,256.8 539.8,295.7 573.9,295.7  "
   id="polygon144" />
	<g
   id="g150">
		<path
   fill="#1A428A"
   d="M551,273.8h0.9l1.9,4.6l1.8-4.6h0.9l-2.3,5.6h-0.8L551,273.8z"
   id="path146" />
		<path
   fill="#1A428A"
   d="M566.2,275.8v3.6h-0.8V276c0-0.9-0.5-1.5-1.3-1.5c-0.9,0-1.5,0.6-1.5,1.4v3.6h-0.8v-3.4    c0-0.9-0.5-1.5-1.3-1.5c-0.9,0-1.5,0.6-1.5,1.4v3.6h-0.8V274h0.8v0.8c0.3-0.6,0.9-1,1.6-1c0.8,0,1.5,0.5,1.8,1.2    c0.2-0.7,1-1.2,1.8-1.2C565.4,273.7,566.2,274.6,566.2,275.8z"
   id="path148" />
	</g>
</g>
<g
   id="g162">
	<polygon
   fill="#1A428A"
   points="573.9,400.5 538.7,400.5 538.7,359.4 579.7,359.4 579.7,400.1 578.7,400.1 578.7,360.5    539.8,360.5 539.8,399.4 573.9,399.4  "
   id="polygon154" />
	<g
   id="g160">
		<path
   fill="#1A428A"
   d="M551,377.5h0.9l1.9,4.6l1.8-4.6h0.9l-2.3,5.6h-0.8L551,377.5z"
   id="path156" />
		<path
   fill="#1A428A"
   d="M566.2,379.5v3.6h-0.8v-3.4c0-0.9-0.5-1.5-1.3-1.5c-0.9,0-1.5,0.6-1.5,1.4v3.6h-0.8v-3.4    c0-0.9-0.5-1.5-1.3-1.5c-0.9,0-1.5,0.6-1.5,1.4v3.6h-0.8v-5.6h0.8v0.8c0.3-0.6,0.9-1,1.6-1c0.8,0,1.5,0.5,1.8,1.2    c0.2-0.7,1-1.2,1.8-1.2C565.4,377.4,566.2,378.3,566.2,379.5z"
   id="path158" />
	</g>
</g>
<g
   id="g172">
	<polygon
   fill="#717074"
   points="249.9,505 214.7,505 214.7,463.9 255.7,463.9 255.7,504.6 254.7,504.6 254.7,465 215.7,465    215.7,503.9 249.9,503.9  "
   id="polygon164" />
	<g
   id="g170">
		<path
   fill="#717074"
   d="M227,482h0.9l1.9,4.6l1.8-4.6h0.9l-2.3,5.6h-0.8L227,482z"
   id="path166" />
		<path
   fill="#717074"
   d="M242.2,484v3.6h-0.8v-3.5c0-0.9-0.5-1.5-1.3-1.5c-0.9,0-1.5,0.6-1.5,1.4v3.6h-0.8v-3.5    c0-0.9-0.5-1.5-1.3-1.5c-0.9,0-1.5,0.6-1.5,1.4v3.6h-0.8V482h0.8v0.8c0.3-0.6,0.9-1,1.6-1c0.8,0,1.5,0.5,1.8,1.2    c0.2-0.7,1-1.2,1.8-1.2C241.4,481.9,242.2,482.8,242.2,484z"
   id="path168" />
	</g>
</g>
<g
   id="g182">
	<polygon
   fill="#717074"
   points="348.8,505 313.6,505 313.6,463.9 354.7,463.9 354.7,504.6 353.6,504.6 353.6,465 314.7,465    314.7,503.9 348.8,503.9  "
   id="polygon174" />
	<g
   id="g180">
		<path
   fill="#717074"
   d="M326,482h0.9l1.9,4.6l1.8-4.6h0.9l-2.3,5.6h-0.8L326,482z"
   id="path176" />
		<path
   fill="#717074"
   d="M341.2,484v3.6h-0.8v-3.5c0-0.9-0.5-1.5-1.3-1.5c-0.9,0-1.5,0.6-1.5,1.4v3.6h-0.8v-3.5    c0-0.9-0.5-1.5-1.3-1.5c-0.9,0-1.5,0.6-1.5,1.4v3.6h-0.8V482h0.8v0.8c0.3-0.6,0.9-1,1.6-1c0.8,0,1.5,0.5,1.8,1.2    c0.2-0.7,1-1.2,1.8-1.2C340.3,481.9,341.2,482.8,341.2,484z"
   id="path178" />
	</g>
</g>
<g
   id="g192">
	<polygon
   fill="#717074"
   points="436.4,505 401.1,505 401.1,463.9 442.2,463.9 442.2,504.6 441.1,504.6 441.1,465 402.2,465    402.2,503.9 436.4,503.9  "
   id="polygon184" />
	<g
   id="g190">
		<path
   fill="#717074"
   d="M413.5,482h0.9l1.9,4.6l1.8-4.6h0.9l-2.3,5.6h-0.8L413.5,482z"
   id="path186" />
		<path
   fill="#717074"
   d="M428.7,484v3.6h-0.8v-3.5c0-0.9-0.5-1.5-1.3-1.5c-0.9,0-1.5,0.6-1.5,1.4v3.6h-0.8v-3.5    c0-0.9-0.5-1.5-1.3-1.5c-0.9,0-1.5,0.6-1.5,1.4v3.6h-0.8V482h0.8v0.8c0.3-0.6,0.9-1,1.6-1c0.8,0,1.5,0.5,1.8,1.2    c0.2-0.7,1-1.2,1.8-1.2C427.9,481.9,428.7,482.8,428.7,484z"
   id="path188" />
	</g>
</g>
<g
   id="g202">
	<polygon
   fill="#717074"
   points="524.5,505 489.3,505 489.3,463.9 530.4,463.9 530.4,504.6 529.3,504.6 529.3,465 490.4,465    490.4,503.9 524.5,503.9  "
   id="polygon194" />
	<g
   id="g200">
		<path
   fill="#717074"
   d="M501.6,482h0.9l1.9,4.6l1.8-4.6h0.9l-2.3,5.6H504L501.6,482z"
   id="path196" />
		<path
   fill="#717074"
   d="M516.8,484v3.6H516v-3.5c0-0.9-0.5-1.5-1.3-1.5c-0.9,0-1.5,0.6-1.5,1.4v3.6h-0.8v-3.5    c0-0.9-0.5-1.5-1.3-1.5c-0.9,0-1.5,0.6-1.5,1.4v3.6h-0.8V482h0.8v0.8c0.3-0.6,0.9-1,1.6-1c0.8,0,1.5,0.5,1.8,1.2    c0.2-0.7,1-1.2,1.8-1.2C516,481.9,516.8,482.8,516.8,484z"
   id="path198" />
	</g>
</g>
<g
   id="g212">
	<polygon
   fill="#717074"
   points="623.3,505 588,505 588,463.9 629.1,463.9 629.1,504.6 628,504.6 628,465 589.1,465 589.1,503.9    623.3,503.9  "
   id="polygon204" />
	<g
   id="g210">
		<path
   fill="#717074"
   d="M600.4,482h0.9l1.9,4.6l1.8-4.6h0.9l-2.3,5.6h-0.8L600.4,482z"
   id="path206" />
		<path
   fill="#717074"
   d="M615.6,484v3.6h-0.8v-3.5c0-0.9-0.5-1.5-1.3-1.5c-0.9,0-1.5,0.6-1.5,1.4v3.6h-0.8v-3.5    c0-0.9-0.5-1.5-1.3-1.5c-0.9,0-1.5,0.6-1.5,1.4v3.6h-0.8V482h0.8v0.8c0.3-0.6,0.9-1,1.6-1c0.8,0,1.5,0.5,1.8,1.2    c0.2-0.7,1-1.2,1.8-1.2C614.8,481.9,615.6,482.8,615.6,484z"
   id="path208" />
	</g>
</g>
<line
   fill="none"
   stroke="#717074"
   stroke-miterlimit="10"
   x1="148.4"
   y1="73.4"
   x2="148.4"
   y2="324.4"
   id="line214" />
<g
   id="g220">
	<path
   fill="#820024"
   d="M284.6,327.2c0.1-0.1,0.1-0.3,0.3-0.5v-2.8h1.4c0.1-0.3,0.2-0.5,0.4-0.8H282v-4.3h8.3v3.1l0.4,0.7l0.4-0.8   v-2.9h1.4l0.4-0.8h-6.3v-4.3h8.3v3.8l0.5,1c0,0.1,0.1,0.2,0.1,0.2h1.6v3.3c0.3,0.5,0.5,1.1,0.8,1.6v-0.6v-4.3V318v-5.1h-28.2v5.1   v0.8v4.3v0.8v5.1H284C284.1,328.3,284.3,327.8,284.6,327.2z M295.7,313.7h1.5v4.3h-1.5V313.7z M284.1,323.9v4.3h-8.3v-4.3H284.1z    M272.9,323.1v-4.3h8.3v4.3H272.9z M277.5,313.7h8.3v4.3h-8.3V313.7z M270.5,313.7h6.3v4.3h-6.3V313.7z M270.5,318.8h1.6v4.3h-1.6   V318.8z M275,328.2h-4.5v-4.3h4.5V328.2z"
   id="path216" />
	<path
   fill="#820024"
   d="M297.8,326.2c-0.4-0.9-2.4-5-3.5-7.1c-0.1-0.1-0.2-0.2-0.3-0.2l0,0c-0.1,0-0.3,0.1-0.3,0.2l-2.9,6   c0,0.1-0.1,0.1-0.2,0l-1.5-3c-0.1-0.1-0.2-0.2-0.3-0.2l0,0c-0.1,0-0.3,0.1-0.3,0.2c-0.8,1.6-2.4,4.9-2.8,5.7   c-0.4,0.8-0.6,1.6-0.6,2.5c0,2.5,1.7,4.5,3.7,4.5h5.2c2.5,0,4.5-2.5,4.5-5.6C298.6,328.1,298.3,327.1,297.8,326.2z M294.5,332.9   c-0.1,0.2-0.4,0.2-0.5,0.1c-0.2-0.1-0.2-0.3-0.1-0.5c1.5-2.2,0.8-4.4,0-5.4c-0.6,2.4-1.3,3.9-2.9,3.9l0,0c-0.7,0-1.4-0.6-1.9-1.1   c-0.3,0.9-0.4,2.1,0.5,2.7c0.2,0.1,0.2,0.3,0.1,0.5c-0.1,0.1-0.2,0.2-0.3,0.2c-0.1,0-0.1,0-0.2-0.1c-1.5-1-1.1-3.1-0.5-4.3   c0.1-0.1,0.2-0.2,0.3-0.2c0.1,0,0.3,0.1,0.3,0.2c0.2,0.3,1,1.3,1.7,1.3c1,0,1.7-1,2.3-3.9v-0.1c0-0.1,0.1-0.3,0.2-0.3   c0.1-0.1,0.3,0,0.4,0C295.3,327.1,296.4,330.1,294.5,332.9z"
   id="path218" />
</g>
<g
   id="g226">
	<path
   fill="#820024"
   d="M235.7,433.8c0.1-0.1,0.1-0.3,0.3-0.5v-2.8h1.4c0.1-0.3,0.2-0.5,0.4-0.8h-4.7v-4.3h8.3v3.1l0.4,0.7l0.4-0.8   v-2.9h1.4l0.4-0.8h-6.2v-4.3h8.3v3.8l0.5,1c0,0.1,0.1,0.2,0.1,0.2h1.6v3.3c0.3,0.5,0.5,1.1,0.8,1.6v-0.5v-4.3v-0.8v-5.1h-28.2v5.1   v0.8v4.3v0.8v5.1h14.3C235.2,434.9,235.4,434.3,235.7,433.8z M246.7,420.3h1.5v4.3h-1.5V420.3z M235.2,430.4v4.3h-8.3v-4.3H235.2z    M223.9,429.7v-4.3h8.3v4.3H223.9z M228.6,420.3h8.3v4.3h-8.3V420.3z M221.6,420.3h6.3v4.3h-6.3V420.3z M221.6,425.4h1.6v4.3h-1.6   V425.4z M226.1,434.8h-4.5v-4.3h4.5V434.8z"
   id="path222" />
	<path
   fill="#820024"
   d="M248.9,432.7c-0.4-0.9-2.4-5-3.5-7.1c-0.1-0.1-0.2-0.2-0.3-0.2l0,0c-0.1,0-0.3,0.1-0.3,0.2l-2.9,6   c0,0.1-0.1,0.1-0.2,0l-1.5-3c-0.1-0.1-0.2-0.2-0.3-0.2l0,0c-0.1,0-0.3,0.1-0.3,0.2c-0.8,1.6-2.4,4.9-2.8,5.7   c-0.4,0.8-0.6,1.6-0.6,2.5c0,2.5,1.7,4.5,3.7,4.5h5.2c2.5,0,4.5-2.5,4.5-5.6C249.6,434.7,249.4,433.6,248.9,432.7z M245.6,439.5   c-0.1,0.2-0.4,0.2-0.5,0.1c-0.2-0.1-0.2-0.3-0.1-0.5c1.5-2.2,0.8-4.4,0-5.4c-0.6,2.4-1.3,3.9-2.9,3.9l0,0c-0.7,0-1.4-0.6-1.9-1.1   c-0.3,0.9-0.4,2.1,0.5,2.7c0.2,0.1,0.2,0.3,0.1,0.5c-0.1,0.1-0.2,0.2-0.3,0.2c-0.1,0-0.1,0-0.2-0.1c-1.5-1-1.1-3.1-0.5-4.3   c0.1-0.1,0.2-0.2,0.3-0.2c0.1,0,0.3,0.1,0.3,0.2c0.2,0.3,1,1.3,1.7,1.3c1,0,1.7-1,2.3-3.9v-0.1c0-0.1,0.1-0.3,0.2-0.3   c0.1-0.1,0.3,0,0.4,0C246.4,433.7,247.4,436.7,245.6,439.5z"
   id="path224" />
</g>
<g
   id="g232">
	<path
   fill="#820024"
   d="M334.6,433.8c0.1-0.1,0.1-0.3,0.3-0.5v-2.8h1.4c0.1-0.3,0.2-0.5,0.4-0.8H332v-4.3h8.3v3.1l0.4,0.7l0.4-0.8   v-2.9h1.4l0.4-0.8h-6.3v-4.3h8.3v3.8l0.5,1c0,0.1,0.1,0.2,0.1,0.2h1.6v3.3c0.3,0.5,0.5,1.1,0.8,1.6v-0.5v-4.3v-0.8v-5.1h-28.2v5.1   v0.8v4.3v0.8v5.1H334C334.1,434.9,334.3,434.3,334.6,433.8z M345.7,420.3h1.5v4.3h-1.5V420.3z M334.1,430.4v4.3h-8.3v-4.3H334.1z    M322.9,429.7v-4.3h8.3v4.3H322.9z M327.5,420.3h8.3v4.3h-8.3V420.3z M320.5,420.3h6.3v4.3h-6.3V420.3z M320.5,425.4h1.6v4.3h-1.6   V425.4z M325,434.8h-4.5v-4.3h4.5V434.8z"
   id="path228" />
	<path
   fill="#820024"
   d="M347.8,432.7c-0.4-0.9-2.4-5-3.5-7.1c-0.1-0.1-0.2-0.2-0.3-0.2l0,0c-0.1,0-0.3,0.1-0.3,0.2l-2.9,6   c0,0.1-0.1,0.1-0.2,0l-1.5-3c-0.1-0.1-0.2-0.2-0.3-0.2l0,0c-0.1,0-0.3,0.1-0.3,0.2c-0.8,1.6-2.4,4.9-2.8,5.7   c-0.4,0.8-0.6,1.6-0.6,2.5c0,2.5,1.7,4.5,3.7,4.5h5.2c2.5,0,4.5-2.5,4.5-5.6C348.6,434.7,348.3,433.6,347.8,432.7z M344.5,439.5   c-0.1,0.2-0.4,0.2-0.5,0.1c-0.2-0.1-0.2-0.3-0.1-0.5c1.5-2.2,0.8-4.4,0-5.4c-0.6,2.4-1.3,3.9-2.9,3.9l0,0c-0.7,0-1.4-0.6-1.9-1.1   c-0.3,0.9-0.4,2.1,0.5,2.7c0.2,0.1,0.2,0.3,0.1,0.5c-0.1,0.1-0.2,0.2-0.3,0.2c-0.1,0-0.1,0-0.2-0.1c-1.5-1-1.1-3.1-0.5-4.3   c0.1-0.1,0.2-0.2,0.3-0.2c0.1,0,0.3,0.1,0.3,0.2c0.2,0.3,1,1.3,1.7,1.3c1,0,1.7-1,2.3-3.9v-0.1c0-0.1,0.1-0.3,0.2-0.3   c0.1-0.1,0.3,0,0.4,0C345.3,433.7,346.4,436.7,344.5,439.5z"
   id="path230" />
</g>
<g
   id="g238">
	<path
   fill="#820024"
   d="M154.2,225c0.1-0.2,0.2-0.4,0.4-0.8v-4.3h2.1c0.2-0.4,0.4-0.8,0.6-1.1h-7v-6.5h12.5v4.6l0.6,1l0.6-1.2v-4.4   h2.1l0.5-1.1h-9.3v-6.5h12.5v5.7l0.7,1.5c0.1,0.1,0.1,0.2,0.2,0.4h2.4v4.9c0.4,0.8,0.8,1.6,1.1,2.3v-0.8v-6.5v-1.1v-7.6H132v7.6   v1.1v6.5v1.1v7.6h21.4C153.4,226.7,153.7,225.8,154.2,225z M170.8,204.7h2.2v6.5h-2.2V204.7z M153.4,220v6.5h-12.5V220H153.4z    M136.6,218.8v-6.5h12.5v6.5H136.6z M143.5,204.7H156v6.5h-12.5V204.7z M133,204.7h9.4v6.5H133V204.7z M133,212.3h2.4v6.5H133   V212.3z M139.8,226.4H133v-6.5h6.8V226.4z"
   id="path234" />
	<path
   fill="#820024"
   d="M173.9,223.4c-0.7-1.3-3.7-7.5-5.2-10.6c-0.1-0.2-0.3-0.3-0.5-0.3l0,0c-0.2,0-0.4,0.1-0.5,0.3l-4.4,9   c-0.1,0.1-0.2,0.1-0.3,0l-2.2-4.5c-0.1-0.2-0.3-0.3-0.5-0.3l0,0c-0.2,0-0.4,0.1-0.5,0.3c-1.2,2.4-3.6,7.4-4.1,8.5   c-0.6,1.1-0.9,2.4-0.9,3.8c0,3.7,2.5,6.8,5.5,6.8h7.9c3.8,0,6.8-3.7,6.8-8.3C175.1,226.4,174.7,224.8,173.9,223.4z M169,233.5   c-0.2,0.3-0.5,0.3-0.8,0.2c-0.3-0.2-0.3-0.5-0.2-0.8c2.2-3.3,1.2-6.5,0-8.1c-0.9,3.6-2,5.9-4.3,5.9c0,0,0,0-0.1,0   c-1.1,0-2.1-0.9-2.8-1.7c-0.4,1.3-0.6,3.2,0.8,4.1c0.3,0.2,0.3,0.5,0.2,0.8c-0.1,0.2-0.3,0.3-0.5,0.3c-0.1,0-0.2,0-0.3-0.1   c-2.3-1.5-1.7-4.7-0.8-6.4c0.1-0.2,0.3-0.3,0.5-0.3s0.4,0.1,0.5,0.2c0.3,0.5,1.6,1.9,2.5,1.9c1.5,0,2.5-1.5,3.5-5.8v-0.1   c0-0.2,0.1-0.4,0.3-0.5c0.2-0.1,0.4-0.1,0.6,0.1C170.2,224.8,171.8,229.3,169,233.5z"
   id="path236" />
</g>
<g
   id="g244">
	<path
   fill="#820024"
   d="M422.2,433.8c0.1-0.1,0.1-0.3,0.3-0.5v-2.8h1.4c0.1-0.3,0.2-0.5,0.4-0.8h-4.7v-4.3h8.3v3.1l0.4,0.7l0.4-0.8   v-2.9h1.4l0.4-0.8h-6.2v-4.3h8.3v3.8l0.5,1c0,0.1,0.1,0.2,0.1,0.2h1.6v3.3c0.3,0.5,0.5,1.1,0.8,1.6v-0.5v-4.3v-0.8v-5.1h-28.2v5.1   v0.8v4.3v0.8v5.1h14.3C421.7,434.9,421.9,434.3,422.2,433.8z M433.2,420.3h1.5v4.3h-1.5V420.3z M421.6,430.4v4.3h-8.3v-4.3H421.6z    M410.4,429.7v-4.3h8.3v4.3H410.4z M415,420.3h8.3v4.3H415V420.3z M408,420.3h6.3v4.3H408V420.3z M408,425.4h1.6v4.3H408V425.4z    M412.6,434.8h-4.5v-4.3h4.5V434.8z"
   id="path240" />
	<path
   fill="#820024"
   d="M435.3,432.7c-0.4-0.9-2.4-5-3.5-7.1c-0.1-0.1-0.2-0.2-0.3-0.2l0,0c-0.1,0-0.3,0.1-0.3,0.2l-2.9,6   c0,0.1-0.1,0.1-0.2,0l-1.5-3c-0.1-0.1-0.2-0.2-0.3-0.2l0,0c-0.1,0-0.3,0.1-0.3,0.2c-0.8,1.6-2.4,4.9-2.8,5.7   c-0.4,0.8-0.6,1.6-0.6,2.5c0,2.5,1.7,4.5,3.7,4.5h5.2c2.5,0,4.5-2.5,4.5-5.6C436.1,434.7,435.8,433.6,435.3,432.7z M432.1,439.5   c-0.1,0.2-0.4,0.2-0.5,0.1c-0.2-0.1-0.2-0.3-0.1-0.5c1.5-2.2,0.8-4.4,0-5.4c-0.6,2.4-1.3,3.9-2.9,3.9l0,0c-0.7,0-1.4-0.6-1.9-1.1   c-0.3,0.9-0.4,2.1,0.5,2.7c0.2,0.1,0.2,0.3,0.1,0.5c-0.1,0.1-0.2,0.2-0.3,0.2s-0.1,0-0.2-0.1c-1.5-1-1.1-3.1-0.5-4.3   c0.1-0.1,0.2-0.2,0.3-0.2s0.3,0.1,0.3,0.2c0.2,0.3,1,1.3,1.7,1.3c1,0,1.7-1,2.3-3.9v-0.1c0-0.1,0.1-0.3,0.2-0.3   c0.1-0.1,0.3,0,0.4,0C432.8,433.7,433.9,436.7,432.1,439.5z"
   id="path242" />
</g>
<g
   id="g250">
	<path
   fill="#820024"
   d="M510.3,433.8c0.1-0.1,0.1-0.3,0.3-0.5v-2.8h1.4c0.1-0.3,0.2-0.5,0.4-0.8h-4.8v-4.3h8.3v3.1l0.4,0.7l0.4-0.8   v-2.9h1.4l0.4-0.8h-6.2v-4.3h8.3v3.8l0.5,1c0,0.1,0.1,0.2,0.1,0.2h1.6v3.3c0.3,0.5,0.5,1.1,0.8,1.6v-0.5v-4.3v-0.8v-5.1h-28.2v5.1   v0.8v4.3v0.8v5.1h14.3C509.8,434.9,510,434.3,510.3,433.8z M521.4,420.3h1.5v4.3h-1.5V420.3z M509.8,430.4v4.3h-8.3v-4.3H509.8z    M498.6,429.7v-4.3h8.3v4.3H498.6z M503.2,420.3h8.3v4.3h-8.3V420.3z M496.2,420.3h6.3v4.3h-6.3V420.3z M496.2,425.4h1.6v4.3h-1.6   V425.4z M500.7,434.8h-4.5v-4.3h4.5V434.8z"
   id="path246" />
	<path
   fill="#820024"
   d="M523.5,432.7c-0.4-0.9-2.4-5-3.5-7.1c-0.1-0.1-0.2-0.2-0.3-0.2l0,0c-0.1,0-0.3,0.1-0.3,0.2l-2.9,6   c0,0.1-0.1,0.1-0.2,0l-1.5-3c-0.1-0.1-0.2-0.2-0.3-0.2l0,0c-0.1,0-0.3,0.1-0.3,0.2c-0.8,1.6-2.4,4.9-2.8,5.7   c-0.4,0.8-0.6,1.6-0.6,2.5c0,2.5,1.7,4.5,3.7,4.5h5.2c2.5,0,4.5-2.5,4.5-5.6C524.3,434.7,524,433.6,523.5,432.7z M520.2,439.5   c-0.1,0.2-0.4,0.2-0.5,0.1c-0.2-0.1-0.2-0.3-0.1-0.5c1.5-2.2,0.8-4.4,0-5.4c-0.6,2.4-1.3,3.9-2.9,3.9l0,0c-0.7,0-1.4-0.6-1.9-1.1   c-0.3,0.9-0.4,2.1,0.5,2.7c0.2,0.1,0.2,0.3,0.1,0.5c-0.1,0.1-0.2,0.2-0.3,0.2s-0.1,0-0.2-0.1c-1.5-1-1.1-3.1-0.5-4.3   c0.1-0.1,0.2-0.2,0.3-0.2s0.3,0.1,0.3,0.2c0.2,0.3,1,1.3,1.7,1.3c1,0,1.7-1,2.3-3.9v-0.1c0-0.1,0.1-0.3,0.2-0.3   c0.1-0.1,0.3,0,0.4,0C521,433.7,522,436.7,520.2,439.5z"
   id="path248" />
</g>
<g
   id="g256">
	<path
   fill="#820024"
   d="M609.1,433.8c0.1-0.1,0.1-0.3,0.3-0.5v-2.8h1.4c0.1-0.3,0.2-0.5,0.4-0.8h-4.7v-4.3h8.3v3.1l0.4,0.7l0.4-0.8   v-2.9h1.4l0.4-0.8h-6.2v-4.3h8.3v3.8l0.5,1c0,0.1,0.1,0.2,0.1,0.2h1.6v3.3c0.3,0.5,0.5,1.1,0.8,1.6v-0.5v-4.3v-0.8v-5.1h-28.2v5.1   v0.8v4.3v0.8v5.1h14.3C608.6,434.9,608.8,434.3,609.1,433.8z M620.1,420.3h1.5v4.3h-1.5V420.3z M608.5,430.4v4.3h-8.3v-4.3H608.5z    M597.3,429.7v-4.3h8.3v4.3H597.3z M601.9,420.3h8.3v4.3h-8.3V420.3z M594.9,420.3h6.3v4.3h-6.3V420.3z M594.9,425.4h1.6v4.3h-1.6   V425.4z M599.5,434.8H595v-4.3h4.5V434.8z"
   id="path252" />
	<path
   fill="#820024"
   d="M622.2,432.7c-0.4-0.9-2.4-5-3.5-7.1c-0.1-0.1-0.2-0.2-0.3-0.2l0,0c-0.1,0-0.3,0.1-0.3,0.2l-2.9,6   c0,0.1-0.1,0.1-0.2,0l-1.5-3c-0.1-0.1-0.2-0.2-0.3-0.2l0,0c-0.1,0-0.3,0.1-0.3,0.2c-0.8,1.6-2.4,4.9-2.8,5.7   c-0.4,0.8-0.6,1.6-0.6,2.5c0,2.5,1.7,4.5,3.7,4.5h5.2c2.5,0,4.5-2.5,4.5-5.6C623,434.7,622.7,433.6,622.2,432.7z M619,439.5   c-0.1,0.2-0.4,0.2-0.5,0.1c-0.2-0.1-0.2-0.3-0.1-0.5c1.5-2.2,0.8-4.4,0-5.4c-0.6,2.4-1.3,3.9-2.9,3.9l0,0c-0.7,0-1.4-0.6-1.9-1.1   c-0.3,0.9-0.4,2.1,0.5,2.7c0.2,0.1,0.2,0.3,0.1,0.5c-0.1,0.1-0.2,0.2-0.3,0.2s-0.1,0-0.2-0.1c-1.5-1-1.1-3.1-0.5-4.3   c0.1-0.1,0.2-0.2,0.3-0.2s0.3,0.1,0.3,0.2c0.2,0.3,1,1.3,1.7,1.3c1,0,1.7-1,2.3-3.9v-0.1c0-0.1,0.1-0.3,0.2-0.3   c0.1-0.1,0.3,0,0.4,0C619.8,433.7,620.8,436.7,619,439.5z"
   id="path254" />
</g>
<g
   id="g262">
	<path
   fill="#820024"
   d="M422.2,327.2c0.1-0.1,0.1-0.3,0.3-0.5v-2.8h1.4c0.1-0.3,0.2-0.5,0.4-0.8h-4.7v-4.3h8.3v3.1l0.4,0.7l0.4-0.8   v-2.9h1.4l0.4-0.8h-6.2v-4.3h8.3v3.8l0.5,1c0,0.1,0.1,0.2,0.1,0.2h1.6v3.3c0.3,0.5,0.5,1.1,0.8,1.6v-0.6v-4.3V318v-5.1h-28.2v5.1   v0.8v4.3v0.8v5.1h14.3C421.7,328.3,421.9,327.8,422.2,327.2z M433.2,313.7h1.5v4.3h-1.5V313.7z M421.6,323.9v4.3h-8.3v-4.3H421.6z    M410.4,323.1v-4.3h8.3v4.3H410.4z M415,313.7h8.3v4.3H415V313.7z M408,313.7h6.3v4.3H408V313.7z M408,318.8h1.6v4.3H408V318.8z    M412.6,328.2h-4.5v-4.3h4.5V328.2z"
   id="path258" />
	<path
   fill="#820024"
   d="M435.3,326.2c-0.4-0.9-2.4-5-3.5-7.1c-0.1-0.1-0.2-0.2-0.3-0.2l0,0c-0.1,0-0.3,0.1-0.3,0.2l-2.9,6   c0,0.1-0.1,0.1-0.2,0l-1.5-3c-0.1-0.1-0.2-0.2-0.3-0.2l0,0c-0.1,0-0.3,0.1-0.3,0.2c-0.8,1.6-2.4,4.9-2.8,5.7   c-0.4,0.8-0.6,1.6-0.6,2.5c0,2.5,1.7,4.5,3.7,4.5h5.2c2.5,0,4.5-2.5,4.5-5.6C436.1,328.1,435.8,327.1,435.3,326.2z M432.1,332.9   c-0.1,0.2-0.4,0.2-0.5,0.1c-0.2-0.1-0.2-0.3-0.1-0.5c1.5-2.2,0.8-4.4,0-5.4c-0.6,2.4-1.3,3.9-2.9,3.9l0,0c-0.7,0-1.4-0.6-1.9-1.1   c-0.3,0.9-0.4,2.1,0.5,2.7c0.2,0.1,0.2,0.3,0.1,0.5c-0.1,0.1-0.2,0.2-0.3,0.2s-0.1,0-0.2-0.1c-1.5-1-1.1-3.1-0.5-4.3   c0.1-0.1,0.2-0.2,0.3-0.2s0.3,0.1,0.3,0.2c0.2,0.3,1,1.3,1.7,1.3c1,0,1.7-1,2.3-3.9v-0.1c0-0.1,0.1-0.3,0.2-0.3   c0.1-0.1,0.3,0,0.4,0C432.8,327.1,433.9,330.1,432.1,332.9z"
   id="path260" />
</g>
<g
   id="g268">
	<path
   fill="#820024"
   d="M559.7,327.2c0.1-0.1,0.1-0.3,0.3-0.5v-2.8h1.4c0.1-0.3,0.2-0.5,0.4-0.8h-4.7v-4.3h8.3v3.1l0.4,0.7l0.4-0.8   v-2.9h1.4l0.4-0.8h-6.2v-4.3h8.3v3.8l0.5,1c0,0.1,0.1,0.2,0.1,0.2h1.6v3.3c0.3,0.5,0.5,1.1,0.8,1.6v-0.6v-4.3V318v-5.1h-28.2v5.1   v0.8v4.3v0.8v5.1h14.3C559.2,328.3,559.4,327.8,559.7,327.2z M570.8,313.7h1.5v4.3h-1.5V313.7z M559.2,323.9v4.3h-8.3v-4.3H559.2z    M547.9,323.1v-4.3h8.3v4.3H547.9z M552.6,313.7h8.3v4.3h-8.3V313.7z M545.6,313.7h6.3v4.3h-6.3V313.7z M545.6,318.8h1.6v4.3h-1.6   V318.8z M550.1,328.2h-4.5v-4.3h4.5V328.2z"
   id="path264" />
	<path
   fill="#820024"
   d="M572.9,326.2c-0.4-0.9-2.4-5-3.5-7.1c-0.1-0.1-0.2-0.2-0.3-0.2l0,0c-0.1,0-0.3,0.1-0.3,0.2l-2.9,6   c0,0.1-0.1,0.1-0.2,0l-1.5-3c-0.1-0.1-0.2-0.2-0.3-0.2l0,0c-0.1,0-0.3,0.1-0.3,0.2c-0.8,1.6-2.4,4.9-2.8,5.7   c-0.4,0.8-0.6,1.6-0.6,2.5c0,2.5,1.7,4.5,3.7,4.5h5.2c2.5,0,4.5-2.5,4.5-5.6C573.6,328.1,573.4,327.1,572.9,326.2z M569.6,332.9   c-0.1,0.2-0.4,0.2-0.5,0.1c-0.2-0.1-0.2-0.3-0.1-0.5c1.5-2.2,0.8-4.4,0-5.4c-0.6,2.4-1.3,3.9-2.9,3.9l0,0c-0.7,0-1.4-0.6-1.9-1.1   c-0.3,0.9-0.4,2.1,0.5,2.7c0.2,0.1,0.2,0.3,0.1,0.5c-0.1,0.1-0.2,0.2-0.3,0.2s-0.1,0-0.2-0.1c-1.5-1-1.1-3.1-0.5-4.3   c0.1-0.1,0.2-0.2,0.3-0.2s0.3,0.1,0.3,0.2c0.2,0.3,1,1.3,1.7,1.3c1,0,1.7-1,2.3-3.9v-0.1c0-0.1,0.1-0.3,0.2-0.3   c0.1-0.1,0.3,0,0.4,0C570.4,327.1,571.4,330.1,569.6,332.9z"
   id="path266" />
</g>
<line
   fill="none"
   stroke="#717074"
   stroke-miterlimit="10"
   x1="58.3"
   y1="198.7"
   x2="58.3"
   y2="430.5"
   id="line270" />
<rect
   x="234.8"
   y="45.7"
   fill="none"
   stroke="#820024"
   stroke-miterlimit="10"
   stroke-dasharray="4"
   width="98.7"
   height="359.5"
   id="rect272" />
<rect
   x="372.3"
   y="45.7"
   fill="none"
   stroke="#387C2C"
   stroke-miterlimit="10"
   stroke-dasharray="4"
   width="98.7"
   height="359.5"
   id="rect274" />
<rect
   x="509.8"
   y="45.7"
   fill="none"
   stroke="#1A428A"
   stroke-miterlimit="10"
   stroke-dasharray="4"
   width="98.7"
   height="359.5"
   id="rect276" />
<text
   transform="matrix(1 0 0 1 268.3067 63.3651)"
   fill="#717074"
   font-family="'Metropolis-Regular'"
   font-size="12px"
   id="text278">Finance</text>
<rect
   x="255"
   y="54.7"
   fill="#820024"
   width="8.6"
   height="8.6"
   id="rect280" />
<g
   id="g286">
	<text
   transform="matrix(1 0 0 1 418.8045 63.3651)"
   fill="#717074"
   font-family="'Metropolis-Regular'"
   font-size="12px"
   id="text282">HR</text>
	<rect
   x="406.9"
   y="54.8"
   fill="#387C2C"
   width="8.6"
   height="8.6"
   id="rect284" />
</g>
<g
   id="g292">
	<text
   transform="matrix(1 0 0 1 530.318 63.3651)"
   fill="#717074"
   font-family="'Metropolis-Regular'"
   font-size="12px"
   id="text288">Engineering</text>
	<rect
   x="518.7"
   y="54.7"
   fill="#1A428A"
   width="8.6"
   height="8.6"
   id="rect290" />
</g>
<line
   fill="none"
   stroke="#717074"
   stroke-miterlimit="10"
   x1="284.2"
   y1="124.8"
   x2="284.2"
   y2="148.8"
   id="line294" />
<line
   fill="none"
   stroke="#717074"
   stroke-miterlimit="10"
   x1="421.7"
   y1="124.8"
   x2="421.7"
   y2="148.8"
   id="line296" />
<line
   fill="none"
   stroke="#717074"
   stroke-miterlimit="10"
   x1="559.2"
   y1="124.8"
   x2="559.2"
   y2="148.8"
   id="line298" />
<line
   fill="none"
   stroke="#717074"
   stroke-miterlimit="10"
   x1="284.2"
   y1="228.7"
   x2="284.2"
   y2="252.7"
   id="line300" />
<line
   fill="none"
   stroke="#717074"
   stroke-miterlimit="10"
   x1="421.7"
   y1="228.7"
   x2="421.7"
   y2="252.7"
   id="line302" />
<line
   fill="none"
   stroke="#717074"
   stroke-miterlimit="10"
   x1="559.2"
   y1="228.7"
   x2="559.2"
   y2="252.7"
   id="line304" />
<line
   fill="none"
   stroke="#717074"
   stroke-miterlimit="10"
   x1="284.2"
   y1="332.3"
   x2="284.2"
   y2="356.3"
   id="line306" />
<line
   fill="none"
   stroke="#717074"
   stroke-miterlimit="10"
   x1="235.2"
   y1="439.1"
   x2="235.2"
   y2="462"
   id="line308" />
<line
   fill="none"
   stroke="#717074"
   stroke-miterlimit="10"
   x1="334.1"
   y1="439.1"
   x2="334.1"
   y2="462"
   id="line310" />
<line
   fill="none"
   stroke="#717074"
   stroke-miterlimit="10"
   x1="421.7"
   y1="439.1"
   x2="421.7"
   y2="462"
   id="line312" />
<line
   fill="none"
   stroke="#717074"
   stroke-miterlimit="10"
   x1="509.8"
   y1="439.1"
   x2="509.8"
   y2="462"
   id="line314" />
<line
   fill="none"
   stroke="#717074"
   stroke-miterlimit="10"
   x1="608.6"
   y1="439.1"
   x2="608.6"
   y2="462"
   id="line316" />
<line
   fill="none"
   stroke="#717074"
   stroke-miterlimit="10"
   x1="421.7"
   y1="332.3"
   x2="421.7"
   y2="356.3"
   id="line318" />
<line
   fill="none"
   stroke="#717074"
   stroke-miterlimit="10"
   x1="559.2"
   y1="332.3"
   x2="559.2"
   y2="356.3"
   id="line320" />
<polygon
   fill="#78BE20"
   points="168.7,450.6 168.7,437.3 15.7,437.3 15.7,524.2 168.7,524.2 168.7,479 217.9,434.7 "
   id="polygon322" />
<text
   transform="matrix(1 0 0 1 25.8936 450.8965)"
   fill="#FFFFFF"
   font-family="'Metropolis-Regular'"
   font-size="11px"
   id="text324">Centralized rules specific </text>
<text
   transform="matrix(1 0 0 1 25.8936 464.0965)"
   fill="#FFFFFF"
   font-family="'Metropolis-Regular'"
   font-size="11px"
   id="text326">to the requirements of </text>
<text
   transform="matrix(1 0 0 1 25.8936 477.2965)"
   fill="#FFFFFF"
   font-family="'Metropolis-Regular'"
   font-size="11px"
   id="text328">each VM are applied.</text>
<text
   transform="translate(25.8936,503.6965)"
   fill="#ffffff"
   font-family="Metropolis-Regular"
   font-size="11px"
   id="text330">Each VM can be its </text>
<text
   transform="matrix(1 0 0 1 25.8936 516.8965)"
   fill="#FFFFFF"
   font-family="'Metropolis-Regular'"
   font-size="11px"
   id="text332">own perimeter.</text>
</svg>
