<?xml version="1.0" encoding="UTF-8" standalone="no"?>
<!-- Generator: Adobe Illustrator 23.0.4, SVG Export Plug-In . SVG Version: 6.00 Build 0)  -->

<svg
   xmlns:dc="http://purl.org/dc/elements/1.1/"
   xmlns:cc="http://creativecommons.org/ns#"
   xmlns:rdf="http://www.w3.org/1999/02/22-rdf-syntax-ns#"
   xmlns:svg="http://www.w3.org/2000/svg"
   xmlns="http://www.w3.org/2000/svg"
   xmlns:sodipodi="http://sodipodi.sourceforge.net/DTD/sodipodi-0.dtd"
   xmlns:inkscape="http://www.inkscape.org/namespaces/inkscape"
   version="1.1"
   id="Layer_1"
   x="0px"
   y="0px"
   viewBox="0 0 456.19173 303.95306"
   enable-background="new 0 0 945.4 370.6"
   xml:space="preserve"
   sodipodi:docname="MultitierTopology.svg"
   width="456.19174"
   height="303.95306"
   inkscape:version="0.92.4 (5da689c313, 2019-01-14)"><metadata
   id="metadata1423"><rdf:RDF><cc:Work
       rdf:about=""><dc:format>image/svg+xml</dc:format><dc:type
         rdf:resource="http://purl.org/dc/dcmitype/StillImage" /><dc:title></dc:title></cc:Work></rdf:RDF></metadata><defs
   id="defs1421">
	
	
	
	
	
	
	
	
	
	
	
	
	
	
	
	
	
	
	
	
	
	
	
	
	
	
	
	
	
	
	
	
	
	
	
	
	
	
	
	
	
	
	
	
	
	
	
	
	
	
	
	
	
	
	
	
	
	
	
	
	
	
	
	
	
	
	
	
	
	
	
	
	
	
	
	
	
	
	
	
	
	
	
	
	
	
	
	
	
	
	
	
	
	
	
	
	
	
	
	
	
	
	
	
	
	
	
	
	
	
	
	
	
	
	
	
	
	
	
	
	
	
</defs><sodipodi:namedview
   pagecolor="#ffffff"
   bordercolor="#666666"
   borderopacity="1"
   objecttolerance="10"
   gridtolerance="10"
   guidetolerance="10"
   inkscape:pageopacity="0"
   inkscape:pageshadow="2"
   inkscape:window-width="1920"
   inkscape:window-height="1017"
   id="namedview1419"
   showgrid="false"
   inkscape:zoom="1.5062407"
   inkscape:cx="143.98642"
   inkscape:cy="172.05244"
   inkscape:window-x="-8"
   inkscape:window-y="-8"
   inkscape:window-maximized="1"
   inkscape:current-layer="Layer_1" />
<line
   style="fill:none;stroke:#7ab929;stroke-miterlimit:10"
   id="line1128"
   y2="295.20065"
   x2="448.60001"
   y1="288.60065"
   x1="448.60001"
   stroke-miterlimit="10" /><path
   style="fill:#2bb9cf"
   inkscape:connector-curvature="0"
   id="path1130"
   d="m 114.1,174.70064 c 13.6,-0.1 24.8,10.8 24.9,24.4 0.1,13.6 -10.8,24.8 -24.4,24.9 -13.6,0.1 -24.8,-10.8 -24.9,-24.4 -0.1,-13.6 10.8,-24.8 24.4,-24.9 m 0,-1.4 c -14.4,0.1 -25.9,11.9 -25.8,26.3 0.1,14.4 11.9,25.9 26.3,25.8 14.4,-0.1 25.9,-11.9 25.8,-26.3 -0.2,-14.4 -11.9,-25.9 -26.3,-25.8 z" /><polygon
   style="fill:#2bb9cf"
   id="polygon1132"
   points="111.7,260.3 111.7,262.6 118.1,258.8 111.6,255.2 111.7,257.5 101.6,257.6 101.6,260.4 "
   transform="translate(-8,-59.399353)" /><polygon
   style="fill:#2bb9cf"
   id="polygon1134"
   points="126.6,258.7 133,262.4 133,260 143.1,259.9 143,257.2 133,257.3 132.9,255 "
   transform="translate(-8,-59.399353)" /><polygon
   style="fill:#2bb9cf"
   id="polygon1136"
   points="123.7,254.9 123.6,244.9 125.9,244.9 122.1,238.5 118.5,244.9 120.8,244.9 120.9,255 "
   transform="translate(-8,-59.399353)" /><polygon
   style="fill:#2bb9cf"
   id="polygon1138"
   points="118.8,272.7 122.5,279.1 126.2,272.6 123.8,272.6 123.7,262.6 121,262.6 121.1,272.7 "
   transform="translate(-8,-59.399353)" /><path
   style="fill:#7ab929"
   inkscape:connector-curvature="0"
   id="path1140"
   d="m 226.8,83.000643 c 13.6,-0.1 24.8,10.8 24.9,24.399997 0.1,13.6 -10.8,24.8 -24.4,24.9 -13.6,0.1 -24.8,-10.8 -24.9,-24.4 -0.1,-13.599997 10.8,-24.699997 24.4,-24.899997 m 0,-1.4 c -14.4,0.1 -25.9,11.9 -25.8,26.299997 0.1,14.4 11.9,25.9 26.3,25.8 14.4,-0.1 25.9,-11.9 25.8,-26.3 C 253,93.000643 241.2,81.500643 226.8,81.600643 Z" /><polygon
   style="fill:#7ab929"
   id="polygon1142"
   points="230.8,161.1 224.4,157.5 224.4,159.8 214.4,159.9 214.4,162.7 224.4,162.6 224.5,164.9 "
   transform="translate(-8,-53.399353)" /><polygon
   style="fill:#7ab929"
   id="polygon1144"
   points="245.8,162.4 255.8,162.3 255.8,159.5 245.7,159.6 245.7,157.3 239.3,161.1 245.8,164.7 "
   transform="translate(-8,-53.399353)" /><polygon
   style="fill:#7ab929"
   id="polygon1146"
   points="238.6,147.2 234.9,140.8 231.2,147.3 233.6,147.2 233.7,157.3 236.4,157.3 236.3,147.2 "
   transform="translate(-8,-53.399353)" /><polygon
   style="fill:#7ab929"
   id="polygon1148"
   points="238.9,174.9 236.6,175 236.5,164.9 233.8,164.9 233.9,175 231.5,175 235.3,181.4 "
   transform="translate(-8,-53.399353)" /><text
   style="font-size:7.9229002px;font-family:Metropolis-Regular;fill:#2bb9cf"
   id="text1150"
   font-size="7.9229px"
   x="15.2052"
   y="302.31665">Segment A</text>
<line
   style="fill:none;stroke:#2bb9cf;stroke-miterlimit:10"
   id="line1152"
   y2="291.90063"
   x2="65.800003"
   y1="291.90063"
   x1="6.3999996"
   stroke-miterlimit="10" /><line
   style="fill:none;stroke:#2bb9cf;stroke-miterlimit:10"
   id="line1154"
   y2="295.20065"
   x2="66.600006"
   y1="288.60065"
   x1="66.600006"
   stroke-miterlimit="10" /><line
   style="fill:none;stroke:#2bb9cf;stroke-miterlimit:10"
   id="line1156"
   y2="295.20065"
   x2="5.6000004"
   y1="288.60065"
   x1="5.6000004"
   stroke-miterlimit="10" /><text
   style="font-size:7.9229002px;font-family:Metropolis-Regular;fill:#1b8ece"
   id="text1158"
   font-size="7.9229px"
   x="171.8053"
   y="302.31665">Segment B</text>
<line
   style="fill:none;stroke:#1b8ece;stroke-miterlimit:10"
   id="line1160"
   y2="291.90063"
   x2="222.3"
   y1="291.90063"
   x1="162.8"
   stroke-miterlimit="10" /><line
   style="fill:none;stroke:#1b8ece;stroke-miterlimit:10"
   id="line1162"
   y2="295.20065"
   x2="223.10001"
   y1="288.60065"
   x1="223.10001"
   stroke-miterlimit="10" /><line
   style="fill:none;stroke:#1b8ece;stroke-miterlimit:10"
   id="line1164"
   y2="295.20065"
   x2="162"
   y1="288.60065"
   x1="162"
   stroke-miterlimit="10" /><polyline
   style="fill:none;stroke:#2bb9cf;stroke-miterlimit:10;stroke-dasharray:3"
   id="polyline1166"
   points="44.2,348 44.2,258.7 91.8,258.7  "
   stroke-miterlimit="10"
   transform="translate(-8,-59.399353)" /><polyline
   style="fill:none;stroke:#1b8ece;stroke-miterlimit:10;stroke-dasharray:3"
   id="polyline1168"
   points="200.4,348 200.4,258.7 152.8,258.7     "
   stroke-miterlimit="10"
   transform="translate(-8,-59.399353)" /><path
   style="fill:#2bb9cf"
   inkscape:connector-curvature="0"
   id="path1170"
   d="m 339.6,174.70064 c 13.6,-0.1 24.8,10.8 24.9,24.4 0.1,13.6 -10.8,24.8 -24.4,24.9 -13.6,0.1 -24.8,-10.8 -24.9,-24.4 -0.1,-13.6 10.8,-24.8 24.4,-24.9 m 0,-1.4 c -14.4,0.1 -25.9,11.9 -25.8,26.3 0.1,14.4 11.9,25.9 26.3,25.8 14.4,-0.1 25.9,-11.9 25.8,-26.3 -0.1,-14.4 -11.9,-25.9 -26.3,-25.8 z" /><polygon
   style="fill:#2bb9cf"
   id="polygon1172"
   points="337.2,260.3 337.2,262.6 343.6,258.8 337.1,255.2 337.2,257.5 327.1,257.6 327.1,260.4 "
   transform="translate(-8,-59.399353)" /><polygon
   style="fill:#2bb9cf"
   id="polygon1174"
   points="352.1,258.7 358.5,262.4 358.5,260 368.6,259.9 368.5,257.2 358.5,257.3 358.5,255 "
   transform="translate(-8,-59.399353)" /><polygon
   style="fill:#2bb9cf"
   id="polygon1176"
   points="349.2,254.9 349.1,244.9 351.4,244.9 347.6,238.5 344,244.9 346.3,244.9 346.4,255 "
   transform="translate(-8,-59.399353)" /><polygon
   style="fill:#2bb9cf"
   id="polygon1178"
   points="344.3,272.7 348,279.1 351.7,272.6 349.4,272.6 349.3,262.6 346.5,262.6 346.6,272.7 "
   transform="translate(-8,-59.399353)" /><text
   style="font-size:7.9229002px;font-family:Metropolis-Regular;fill:#f49823"
   id="text1180"
   font-size="7.9229px"
   x="240.9142"
   y="302.31665">Segment C</text>
<line
   style="fill:none;stroke:#f49823;stroke-miterlimit:10"
   id="line1182"
   y2="291.90063"
   x2="291.29999"
   y1="291.90063"
   x1="231.89999"
   stroke-miterlimit="10" /><line
   style="fill:none;stroke:#f49823;stroke-miterlimit:10"
   id="line1184"
   y2="295.20065"
   x2="292.20001"
   y1="288.60065"
   x1="292.20001"
   stroke-miterlimit="10" /><line
   style="fill:none;stroke:#f49823;stroke-miterlimit:10"
   id="line1186"
   y2="295.20065"
   x2="231.10001"
   y1="288.60065"
   x1="231.10001"
   stroke-miterlimit="10" /><text
   style="font-size:7.9229002px;font-family:Metropolis-Regular;fill:#7ab929"
   id="text1188"
   font-size="7.9229px"
   x="397.0592"
   y="302.31665">Segment D</text>
<line
   style="fill:none;stroke:#7ab929;stroke-miterlimit:10"
   id="line1190"
   y2="291.90063"
   x2="447.79999"
   y1="291.90063"
   x1="388.29999"
   stroke-miterlimit="10" /><line
   style="fill:none;stroke:#7ab929;stroke-miterlimit:10"
   id="line1192"
   y2="295.20065"
   x2="387.5"
   y1="288.60065"
   x1="387.5"
   stroke-miterlimit="10" /><polyline
   style="fill:none;stroke:#f49823;stroke-miterlimit:10;stroke-dasharray:3"
   id="polyline1194"
   points="269.8,348 269.8,258.7 317.3,258.7     "
   stroke-miterlimit="10"
   transform="translate(-8,-59.399353)" /><polyline
   style="fill:none;stroke:#7ab929;stroke-miterlimit:10;stroke-dasharray:3"
   id="polyline1196"
   points="425.9,348 425.9,258.7 378.4,258.7     "
   stroke-miterlimit="10"
   transform="translate(-8,-59.399353)" /><text
   style="font-size:14px;font-family:Metropolis-Regular"
   id="text1198"
   font-size="14px"
   x="172.0719"
   y="28.340544">Physical Routers</text>
<text
   style="font-size:12px;font-family:Metropolis-Regular;fill:#2bb9cf"
   id="text1206"
   font-size="12px"
   x="0.8362999"
   y="169.539">Tier-1 Gateway A</text>
<text
   style="font-size:12px;font-family:Metropolis-Regular;fill:#7ab929"
   id="text1208"
   font-size="12px"
   x="180.13699"
   y="73.982452">Tier-0 Gateway</text>
<path
   style="fill:#717074"
   inkscape:connector-curvature="0"
   id="path1218"
   d="m 339.6,1.4006473 c 13.6,-0.1 24.8,10.7999997 24.9,24.3999997 0.1,13.6 -10.8,24.8 -24.4,24.9 -13.6,0.1 -24.8,-10.8 -24.9,-24.4 -0.2,-13.6 10.8,-24.7999997 24.4,-24.8999997 m 0,-1.40000004987 C 325.2,0.10064725 313.7,11.900647 313.8,26.300647 c 0.1,14.4 11.9,25.9 26.3,25.8 14.4,-0.1 25.9,-11.9 25.8,-26.3 -0.1,-14.4 -11.9,-25.89999975 -26.3,-25.79999974987 z" /><polygon
   style="fill:#717074"
   id="polygon1220"
   points="343.6,79.5 337.1,75.9 337.2,78.2 327.1,78.3 327.1,81.1 337.2,81 337.2,83.3 "
   transform="translate(-8,-53.399353)" /><polygon
   style="fill:#717074"
   id="polygon1222"
   points="358.5,80.8 368.6,80.6 368.5,77.9 358.5,78 358.5,75.7 352.1,79.4 358.5,83.1 "
   transform="translate(-8,-53.399353)" /><polygon
   style="fill:#717074"
   id="polygon1224"
   points="351.4,65.6 347.6,59.2 344,65.6 346.3,65.6 346.4,75.7 349.2,75.7 349.1,65.6 "
   transform="translate(-8,-53.399353)" /><polygon
   style="fill:#717074"
   id="polygon1226"
   points="351.7,93.3 349.4,93.4 349.3,83.3 346.5,83.3 346.6,93.4 344.3,93.4 348,99.8 "
   transform="translate(-8,-53.399353)" /><path
   style="fill:#717074"
   inkscape:connector-curvature="0"
   id="path1228"
   d="m 114.1,1.4006473 c 13.6,-0.1 24.8,10.7999997 24.9,24.3999997 0.1,13.6 -10.8,24.8 -24.4,24.9 -13.6,0.1 -24.8,-10.8 -24.9,-24.4 -0.2,-13.6 10.8,-24.7999997 24.4,-24.8999997 m 0,-1.40000004987 C 99.7,0.10064725 88.2,11.900647 88.3,26.300647 c 0.1,14.4 11.9,25.9 26.3,25.8 14.4,-0.1 25.9,-11.9 25.8,-26.3 -0.2,-14.4 -11.9,-25.89999975 -26.3,-25.79999974987 z" /><polygon
   style="fill:#717074"
   id="polygon1230"
   points="118.1,79.5 111.6,75.9 111.7,78.2 101.6,78.3 101.6,81.1 111.7,81 111.7,83.3 "
   transform="translate(-8,-53.399353)" /><polygon
   style="fill:#717074"
   id="polygon1232"
   points="133,80.8 143.1,80.6 143,77.9 133,78 132.9,75.7 126.6,79.4 133,83.1 "
   transform="translate(-8,-53.399353)" /><polygon
   style="fill:#717074"
   id="polygon1234"
   points="125.9,65.6 122.1,59.2 118.5,65.6 120.8,65.6 120.9,75.7 123.7,75.7 123.6,65.6 "
   transform="translate(-8,-53.399353)" /><polygon
   style="fill:#717074"
   id="polygon1236"
   points="126.2,93.3 123.8,93.4 123.7,83.3 121,83.3 121.1,93.4 118.8,93.4 122.5,99.8 "
   transform="translate(-8,-53.399353)" /><polyline
   style="fill:none;stroke:#717074;stroke-miterlimit:10"
   id="polyline1238"
   points="122.5,109.8 122.5,161.2 204.7,161.2  "
   stroke-miterlimit="10"
   transform="translate(-8,-53.399353)" /><polyline
   style="fill:none;stroke:#717074;stroke-miterlimit:10"
   id="polyline1240"
   points="347.7,109.8 347.7,161.2 264.8,161.2  "
   stroke-miterlimit="10"
   transform="translate(-8,-53.399353)" /><polyline
   style="fill:none;stroke:#717074;stroke-miterlimit:10"
   id="polyline1242"
   points="122.2,223 122.2,210.5 348,210.5 348,223  "
   stroke-miterlimit="10"
   transform="translate(-8,-53.399353)" /><line
   style="fill:none;stroke:#717074;stroke-width:1.16164696;stroke-miterlimit:10"
   id="line1244"
   y2="157.10065"
   x2="227.2"
   y1="136.58942"
   x1="227.2"
   stroke-miterlimit="10" />
<text
   style="font-size:12px;font-family:Metropolis-Regular;fill:#2bb9cf"
   id="text1206-5"
   font-size="12px"
   x="345.21014"
   y="169.539">Tier-1 Gateway B</text>
</svg>