<?xml version="1.0" encoding="UTF-8" standalone="no"?>
<svg
   xmlns:dc="http://purl.org/dc/elements/1.1/"
   xmlns:cc="http://creativecommons.org/ns#"
   xmlns:rdf="http://www.w3.org/1999/02/22-rdf-syntax-ns#"
   xmlns:svg="http://www.w3.org/2000/svg"
   xmlns="http://www.w3.org/2000/svg"
   xmlns:sodipodi="http://sodipodi.sourceforge.net/DTD/sodipodi-0.dtd"
   xmlns:inkscape="http://www.inkscape.org/namespaces/inkscape"
   inkscape:version="1.0 (4035a4fb49, 2020-05-01)"
   sodipodi:docname="NAT-usecase.svg"
   xml:space="preserve"
   enable-background="new 0 0 562.7 357.2"
   viewBox="0 0 562.7 357.2"
   y="0px"
   x="0px"
   id="Layer_1"
   version="1.1"
   width="562.70001"
   height="357.20001"><metadata
   id="metadata969"><rdf:RDF><cc:Work
       rdf:about=""><dc:format>image/svg+xml</dc:format><dc:type
         rdf:resource="http://purl.org/dc/dcmitype/StillImage" /><dc:title></dc:title></cc:Work></rdf:RDF></metadata><defs
   id="defs967" /><sodipodi:namedview
   inkscape:current-layer="g962"
   inkscape:window-maximized="1"
   inkscape:window-y="-9"
   inkscape:window-x="1911"
   inkscape:cy="170.90001"
   inkscape:cx="269.25414"
   inkscape:zoom="1.8729003"
   showgrid="false"
   id="namedview965"
   inkscape:window-height="1013"
   inkscape:window-width="1920"
   inkscape:pageshadow="2"
   inkscape:pageopacity="0"
   guidetolerance="10"
   gridtolerance="10"
   objecttolerance="10"
   borderopacity="1"
   bordercolor="#666666"
   pagecolor="#ffffff"
   inkscape:document-rotation="0"
   fit-margin-top="0"
   fit-margin-left="0"
   fit-margin-right="0"
   fit-margin-bottom="0" />

<g
   id="g962">
	<g
   id="g899">
		<path
   id="path895"
   d="m 73.3,159.2 c 0.1,0 0.3,0 0.4,0 9.1,0.2 16.6,8 17.6,18.1 l 0.2,2.1 2.1,0.2 c 6.3,0.6 11.1,7 10.9,14.7 -0.2,7.8 -5.6,14.1 -12,14.1 -0.1,0 -0.2,0 -0.3,0 -0.2,0 -0.8,0 -1.7,0 -4.6,0 -18,0 -31.1,0.1 -13.1,0 -26.7,0.1 -31.3,0.1 -0.9,0 -1.4,0 -1.6,0 -6.4,-0.2 -12.3,-6.2 -12.1,-12.4 0.1,-6.2 5.3,-11.2 11.4,-11.2 0.1,0 0.2,0 0.3,0 1,0 1.9,0.2 2.8,0.4 l 2.6,0.7 0.6,-2.6 c 1.5,-6.9 7.7,-12 14.7,-12 0.1,0 0.2,0 0.4,0 2.2,0.1 4.2,0.5 6.1,1.4 l 2.4,1.2 1,-2.5 C 59.5,164 66,159.2 73.3,159.2"
   fill="#1295d3" />
		<path
   id="path897"
   d="m 73.3,156.7 c -8.5,0 -15.8,5.7 -19,13.9 -2.2,-1 -4.5,-1.6 -7.1,-1.7 -0.1,0 -0.3,0 -0.4,0 -8.4,0 -15.4,5.9 -17.1,14 -1.1,-0.3 -2.3,-0.5 -3.4,-0.5 -0.1,0 -0.2,0 -0.3,0 -7.5,0 -13.7,6.1 -13.9,13.7 -0.2,7.7 6.9,14.8 14.5,15 0.2,0 0.8,0 1.6,0 9.3,0 53.2,-0.2 62.4,-0.2 0.9,0 1.4,0 1.6,0 0.1,0 0.2,0 0.3,0 7.8,0 14.3,-7.4 14.5,-16.5 0.2,-9 -5.6,-16.5 -13.2,-17.2 -1,-11.2 -9.5,-20.1 -20,-20.4 -0.2,-0.1 -0.4,-0.1 -0.5,-0.1 z"
   fill="#1295d3" />
	</g>
	<g
   id="g913">
		<path
   id="path901"
   d="m 292.5,149 c 19.3,0 35,15.7 35,35 0,19.3 -15.7,35 -35,35 -19.3,0 -35,-15.7 -35,-35 0,-19.3 15.8,-35 35,-35 m 0,-2 c -20.4,0 -36.9,16.5 -36.9,36.9 0,20.4 16.5,36.9 36.9,36.9 20.4,0 36.9,-16.5 36.9,-36.9 0,-20.4 -16.5,-36.9 -36.9,-36.9 z"
   fill="#3e4044" />
		<g
   id="g911">
			<polygon
   id="polygon903"
   points="277.4,189.1 286.5,183.9 277.4,178.7 277.4,182 263.2,182 263.2,185.9 277.4,185.9 "
   fill="#3e4044" />
			<polygon
   id="polygon905"
   points="307.6,189.1 307.6,185.9 321.9,185.9 321.9,182 307.6,182 307.6,178.7 298.6,183.9 "
   fill="#3e4044" />
			<polygon
   id="polygon907"
   points="294.5,164.3 297.7,164.3 292.5,155.3 287.3,164.3 290.6,164.3 290.6,178.6 294.5,178.6 "
   fill="#3e4044" />
			<polygon
   id="polygon909"
   points="292.5,212.7 297.7,203.6 294.5,203.6 294.5,189.4 290.6,189.4 290.6,203.6 287.3,203.6 "
   fill="#3e4044" />
		</g>
	</g>
	<g
   id="g921">
		<path
   id="path915"
   d="m 522.8,101.7 h -27 c -0.8,0 -1.4,-0.5 -1.7,-1.2 -0.3,-0.8 0.1,-1.6 0.7,-2 1.4,-1 4.9,-2.4 6.4,-2.9 l 1.4,-11.1 2.2,0.3 -1.7,12.4 -0.6,0.3 c -1.1,0.4 -3.4,1.3 -5.1,2.1 H 521 c -1.7,-0.8 -4.1,-1.8 -5.1,-2.1 l -0.6,-0.3 -1.2,-12.4 2.2,-0.2 1.1,11.1 c 1.5,0.6 5.1,2 6.4,2.9 0.6,0.4 0.9,1.2 0.7,2 -0.2,0.6 -0.9,1.1 -1.7,1.1 z"
   fill="#78be43" />
		<path
   id="path917"
   d="m 546.2,31.5 c 1.2,0 2.3,1 2.3,2.1 V 78 c 0,1.1 -1,1.9 -2.1,1.9 H 472 c -1.1,0 -1.9,-0.8 -1.9,-1.8 V 33.2 c 0,-1 0.9,-1.8 1.9,-1.8 l 74.2,0.1 m 0,-2.2 H 472 c -2.3,0 -4.1,1.8 -4.1,4 v 44.9 c 0,2.2 1.8,4 4.1,4 h 74.3 c 2.4,0 4.3,-1.8 4.3,-4.1 V 33.6 c 0.1,-2.4 -1.9,-4.3 -4.4,-4.3 z"
   fill="#78be43" />
		<rect
   id="rect919"
   height="2.2"
   width="65.400002"
   fill="#78be43"
   y="75.099998"
   x="476.60001" />
	</g>
	<g
   id="g929">
		<path
   id="path923"
   d="m 522.8,220.1 h -27 c -0.8,0 -1.4,-0.5 -1.7,-1.2 -0.3,-0.8 0.1,-1.6 0.7,-2 1.4,-1 4.9,-2.4 6.4,-2.9 l 1.4,-11.1 2.2,0.3 -1.7,12.4 -0.6,0.3 c -1.1,0.4 -3.4,1.3 -5.1,2.1 H 521 c -1.7,-0.8 -4.1,-1.8 -5.1,-2.1 l -0.6,-0.3 -1.2,-12.4 2.2,-0.2 1.1,11.1 c 1.5,0.6 5.1,2 6.4,2.9 0.6,0.4 0.9,1.2 0.7,2 -0.2,0.7 -0.9,1.1 -1.7,1.1 z"
   fill="#78be43" />
		<path
   id="path925"
   d="m 546.2,149.9 c 1.2,0 2.3,1 2.3,2.1 v 44.4 c 0,1.1 -1,1.9 -2.1,1.9 H 472 c -1.1,0 -1.9,-0.8 -1.9,-1.8 v -44.9 c 0,-1 0.9,-1.8 1.9,-1.8 h 74.2 m 0,-2.1 H 472 c -2.3,0 -4.1,1.8 -4.1,4 v 44.9 c 0,2.2 1.8,4 4.1,4 h 74.3 c 2.4,0 4.3,-1.8 4.3,-4.1 V 152 c 0.1,-2.3 -1.9,-4.3 -4.4,-4.3 z"
   fill="#78be43" />
		<rect
   id="rect927"
   height="2.2"
   width="65.400002"
   fill="#78be43"
   y="193.5"
   x="476.60001" />
	</g>
	<g
   id="g937">
		<path
   id="path931"
   d="m 522.8,338.6 h -27 c -0.8,0 -1.4,-0.5 -1.7,-1.2 -0.3,-0.8 0.1,-1.6 0.7,-2 1.4,-1 4.9,-2.4 6.4,-2.9 l 1.4,-11.1 2.2,0.3 -1.7,12.4 -0.6,0.3 c -1.1,0.4 -3.4,1.3 -5.1,2.1 H 521 c -1.7,-0.8 -4.1,-1.8 -5.1,-2.1 l -0.6,-0.3 -1.2,-12.4 2.2,-0.2 1.1,11.1 c 1.5,0.6 5.1,2 6.4,2.9 0.6,0.4 0.9,1.2 0.7,2 -0.2,0.6 -0.9,1.1 -1.7,1.1 z"
   fill="#78be43" />
		<path
   id="path933"
   d="m 546.2,268.4 c 1.2,0 2.3,1 2.3,2.1 v 44.4 c 0,1.1 -1,1.9 -2.1,1.9 H 472 c -1.1,0 -1.9,-0.8 -1.9,-1.8 v -44.9 c 0,-1 0.9,-1.8 1.9,-1.8 h 74.2 m 0,-2.1 H 472 c -2.3,0 -4.1,1.8 -4.1,4 v 44.9 c 0,2.2 1.8,4 4.1,4 h 74.3 c 2.4,0 4.3,-1.8 4.3,-4.1 v -44.4 c 0.1,-2.5 -1.9,-4.4 -4.4,-4.4 z"
   fill="#78be43" />
		<rect
   id="rect935"
   height="2.2"
   width="65.400002"
   fill="#78be43"
   y="312"
   x="476.60001" />
	</g>
	<text
   y="137.2444"
   x="180.4079"
   enable-background="new    "
   id="text186_4_"><tspan
     style="font-style:normal;font-variant:normal;font-weight:normal;font-stretch:normal;font-family:Metropolis;-inkscape-font-specification:Metropolis"
     id="tspan939"
     font-size="14px"
     font-family="'Metropolis-Regular'"
     fill="#010101"
     y="137.2444"
     x="180.4079">Public IP</tspan><tspan
     style="font-style:normal;font-variant:normal;font-weight:normal;font-stretch:normal;font-family:Metropolis;-inkscape-font-specification:Metropolis"
     id="tspan941"
     font-size="14px"
     font-family="'Metropolis-Regular'"
     fill="#010101"
     y="151.2444"
     x="164.7079">93.184.216.34</tspan></text>
	
		<text
   style="font-style:normal;font-variant:normal;font-weight:normal;font-stretch:normal;font-family:Metropolis;-inkscape-font-specification:Metropolis"
   font-size="14px"
   font-family="'Metropolis-Regular'"
   fill="#010101"
   transform="translate(207.5728,242.3358)"
   id="text186_1_">Gateway Performing NAT</text>
	
		<text
   style="font-style:normal;font-variant:normal;font-weight:normal;font-stretch:normal;font-family:Metropolis;-inkscape-font-specification:Metropolis"
   font-size="14px"
   font-family="'Metropolis-Regular'"
   fill="#ffffff"
   transform="translate(35.1554,199.812)"
   id="text186_9_">Internet</text>
	
		<text
   style="font-style:normal;font-variant:normal;font-weight:normal;font-stretch:normal;font-family:Metropolis;-inkscape-font-specification:Metropolis"
   font-size="14px"
   font-family="'Metropolis-Regular'"
   fill="#010101"
   transform="translate(155.4605,22.5659)"
   id="text186_2_">Public Network</text>
	
		<text
   style="font-style:normal;font-variant:normal;font-weight:normal;font-stretch:normal;font-family:Metropolis;-inkscape-font-specification:Metropolis"
   font-size="14px"
   font-family="'Metropolis-Regular'"
   fill="#010101"
   transform="translate(303.8233,22.5659)"
   id="text186_3_">Private Network</text>
	
		<text
   xml:space="preserve"
   style="font-style:normal;font-variant:normal;font-weight:normal;font-stretch:normal;line-height:0;font-family:Metropolis;-inkscape-font-specification:Metropolis;white-space:pre;inline-size:66.5217"
   font-size="14px"
   font-family="Metropolis-Regular"
   fill="#010101"
   transform="translate(326.0389,138.4568)"
   id="text186_5_"><tspan
     x="0"
     y="0"><tspan>
</tspan></tspan><tspan
     x="0"
     y="-1.1444092e-07"><tspan>Private IP 
</tspan></tspan></text>
	
		<text
   style="font-style:normal;font-variant:normal;font-weight:normal;font-stretch:normal;font-family:Metropolis;-inkscape-font-specification:Metropolis"
   font-size="12px"
   font-family="'Metropolis-Regular'"
   fill="#010101"
   transform="translate(474.7185,60.3575)"
   id="text186_6_">172.20.10.10</text>
	
		<text
   style="font-style:normal;font-variant:normal;font-weight:normal;font-stretch:normal;font-family:Metropolis;-inkscape-font-specification:Metropolis"
   font-size="12px"
   font-family="'Metropolis-Regular'"
   fill="#010101"
   transform="translate(476.7225,178.5579)"
   id="text186_7_">172.20.10.11</text>
	
		<text
   style="font-style:normal;font-variant:normal;font-weight:normal;font-stretch:normal;font-family:Metropolis;-inkscape-font-specification:Metropolis"
   font-size="12px"
   font-family="'Metropolis-Regular'"
   fill="#010101"
   transform="translate(475.4744,292.6017)"
   id="text186_8_">172.20.10.12</text>
	<line
   id="line952"
   y2="183.89999"
   x2="243.3"
   y1="183.89999"
   x1="114"
   stroke-miterlimit="10"
   stroke-width="2"
   stroke="#000000"
   fill="none" />
	<polyline
   id="polyline954"
   points="461.8,55.7 437.3,55.7 437.3,292.6    461.8,292.6  "
   stroke-miterlimit="10"
   stroke-width="2"
   stroke="#000000"
   fill="none" />
	<line
   id="line956"
   y2="183.89999"
   x2="461.79999"
   y1="183.89999"
   x1="338.39999"
   stroke-miterlimit="10"
   stroke-width="2"
   stroke="#000000"
   fill="none" />
	
		<line
   id="line958"
   y2="142.5"
   x2="292.5"
   y1="7.6999998"
   x1="292.5"
   stroke-dasharray="4, 2, 4"
   stroke-miterlimit="10"
   stroke-width="2"
   stroke="#000000"
   fill="none" />
	
		<line
   id="line960"
   y2="349.5"
   x2="292.5"
   y1="249.39999"
   x1="292.5"
   stroke-dasharray="4, 2, 4"
   stroke-miterlimit="10"
   stroke-width="2"
   stroke="#000000"
   fill="none" />
<text
   xml:space="preserve"
   id="text186_5_-9"
   transform="translate(324.83721,152.25103)"
   fill="#010101"
   font-family="Metropolis-Regular"
   font-size="14px"
   style="font-style:normal;font-variant:normal;font-weight:normal;font-stretch:normal;line-height:0;font-family:Metropolis;-inkscape-font-specification:Metropolis;white-space:pre;inline-size:78.2682"><tspan
     x="0"
     y="0"><tspan>
</tspan></tspan><tspan
     x="0"
     y="-1.1444092e-07"><tspan>Addresses</tspan></tspan></text></g>
</svg>
