<?xml version="1.0" encoding="UTF-8" standalone="no"?>
<svg
   xmlns:dc="http://purl.org/dc/elements/1.1/"
   xmlns:cc="http://creativecommons.org/ns#"
   xmlns:rdf="http://www.w3.org/1999/02/22-rdf-syntax-ns#"
   xmlns:svg="http://www.w3.org/2000/svg"
   xmlns="http://www.w3.org/2000/svg"
   xmlns:sodipodi="http://sodipodi.sourceforge.net/DTD/sodipodi-0.dtd"
   xmlns:inkscape="http://www.inkscape.org/namespaces/inkscape"
   version="1.1"
   id="Layer_1"
   x="0px"
   y="0px"
   viewBox="0 0 445.4 295.9"
   enable-background="new 0 0 445.4 295.9"
   xml:space="preserve"
   sodipodi:docname="NSX Advanced Load Balancer Overview.svg"
   inkscape:version="1.0 (4035a4fb49, 2020-05-01)"><metadata
   id="metadata1647"><rdf:RDF><cc:Work
       rdf:about=""><dc:format>image/svg+xml</dc:format><dc:type
         rdf:resource="http://purl.org/dc/dcmitype/StillImage" /></cc:Work></rdf:RDF></metadata><defs
   id="defs1645" /><sodipodi:namedview
   inkscape:document-rotation="0"
   pagecolor="#ffffff"
   bordercolor="#666666"
   borderopacity="1"
   objecttolerance="10"
   gridtolerance="10"
   guidetolerance="10"
   inkscape:pageopacity="0"
   inkscape:pageshadow="2"
   inkscape:window-width="1920"
   inkscape:window-height="1017"
   id="namedview1643"
   showgrid="false"
   inkscape:zoom="0.79934851"
   inkscape:cx="222.7"
   inkscape:cy="147.95"
   inkscape:window-x="1912"
   inkscape:window-y="-8"
   inkscape:window-maximized="1"
   inkscape:current-layer="g1640" />
<rect
   fill="#FFFFFF"
   width="445.4"
   height="295.9"
   id="rect1536" />
<g
   id="g1640">
	<g
   id="g1578">
		<rect
   x="48"
   y="224.3"
   fill="#1295D3"
   width="17.6"
   height="1.8"
   id="rect1538" />
		<rect
   x="74.2"
   y="224.3"
   fill="#1295D3"
   width="17.6"
   height="1.8"
   id="rect1540" />
		<g
   id="g1574">
			<g
   id="g1552">
				<rect
   x="76"
   y="237.1"
   fill="#1295D3"
   width="1.8"
   height="7"
   id="rect1542" />
				<rect
   x="69"
   y="237.1"
   fill="#1295D3"
   width="1.8"
   height="7"
   id="rect1544" />
				<rect
   x="61.9"
   y="237.1"
   fill="#1295D3"
   width="1.8"
   height="7"
   id="rect1546" />
				<rect
   x="54.9"
   y="237.1"
   fill="#1295D3"
   width="1.8"
   height="7"
   id="rect1548" />
				<rect
   x="47.9"
   y="237.1"
   fill="#1295D3"
   width="1.8"
   height="7"
   id="rect1550" />
			</g>
			<g
   id="g1572">
				<rect
   x="76"
   y="252.4"
   fill="#1295D3"
   width="1.8"
   height="7"
   id="rect1554" />
				<rect
   x="83"
   y="237.1"
   fill="#1295D3"
   width="1.8"
   height="7"
   id="rect1556" />
				<rect
   x="83"
   y="252.4"
   fill="#1295D3"
   width="1.8"
   height="7"
   id="rect1558" />
				<rect
   x="90.1"
   y="237.1"
   fill="#1295D3"
   width="1.8"
   height="7"
   id="rect1560" />
				<rect
   x="90.1"
   y="252.4"
   fill="#1295D3"
   width="1.8"
   height="7"
   id="rect1562" />
				<rect
   x="69"
   y="252.4"
   fill="#1295D3"
   width="1.8"
   height="7"
   id="rect1564" />
				<rect
   x="61.9"
   y="252.4"
   fill="#1295D3"
   width="1.8"
   height="7"
   id="rect1566" />
				<rect
   x="54.9"
   y="252.4"
   fill="#1295D3"
   width="1.8"
   height="7"
   id="rect1568" />
				<rect
   x="47.9"
   y="252.4"
   fill="#1295D3"
   width="1.8"
   height="7"
   id="rect1570" />
			</g>
		</g>
		<path
   fill="#1295D3"
   d="M97.8,263.5v-31.4v-2V218h-6v-2.5H74.2v2.5H41.5v12.1v2v31.4h-5.3v1.8h66.8v-1.8H97.8z M96,230.1H47.9v2    H96v31.4H43.3v-43.7H96V230.1z"
   id="path1576" />
	</g>
	<g
   id="g1583">
		<path
   fill="#1295D3"
   d="M234.9,227.3c-6,0-11.1,4-13.4,9.8c-1.5-0.7-3.2-1.1-5-1.2c-0.1,0-0.2,0-0.3,0c-5.9,0-10.8,4.1-12,9.8    c-0.8-0.2-1.6-0.4-2.4-0.4c-0.1,0-0.1,0-0.2,0c-5.3,0-9.6,4.3-9.8,9.6c-0.1,5.4,4.9,10.4,10.2,10.5c0.1,0,0.6,0,1.1,0    c6.5,0,37.4-0.1,43.9-0.1c0.6,0,1,0,1.1,0c0.1,0,0.1,0,0.2,0c5.5,0,10.1-5.2,10.2-11.6c0.1-6.3-3.9-11.6-9.3-12.1    c-0.7-7.9-6.7-14.1-14.1-14.3C235.1,227.3,235,227.3,234.9,227.3L234.9,227.3z"
   id="path1580" />
		
			<text
   id="text186_2_"
   transform="matrix(1 0 0 1 186.7379 284.5609)"
   fill="#020202"
   font-family="'Metropolis-Regular'"
   font-size="12px"
   style="-inkscape-font-specification:Metropolis;font-family:Metropolis;font-weight:normal;font-style:normal;font-stretch:normal;font-variant:normal;">Private Cloud</text>
	</g>
	<g
   id="g1589">
		<g
   id="Clouds__x2B__Infrastructure_Expanded_AQ_1_">
			<path
   fill="#1295D3"
   d="M390.4,229c0.1,0,0.2,0,0.3,0c6.4,0.1,11.7,5.6,12.4,12.7l0.1,1.5l1.5,0.1c4.4,0.4,7.8,4.9,7.7,10.3     c-0.1,5.5-3.9,9.9-8.4,9.9c-0.1,0-0.1,0-0.2,0c-0.1,0-0.6,0-1.2,0c-3.2,0-12.7,0-21.9,0.1c-9.2,0-18.8,0.1-22,0.1     c-0.6,0-1,0-1.1,0c-4.5-0.1-8.6-4.4-8.5-8.7c0.1-4.4,3.7-7.9,8-7.9c0.1,0,0.1,0,0.2,0c0.7,0,1.3,0.1,2,0.3l1.8,0.5l0.4-1.8     c1.1-4.9,5.4-8.4,10.3-8.4c0.1,0,0.1,0,0.3,0c1.5,0.1,3,0.4,4.3,1l1.7,0.8l0.7-1.8C380.7,232.4,385.3,229,390.4,229 M390.4,227.3     c-6,0-11.1,4-13.4,9.8c-1.5-0.7-3.2-1.1-5-1.2c-0.1,0-0.2,0-0.3,0c-5.9,0-10.8,4.1-12,9.8c-0.8-0.2-1.6-0.4-2.4-0.4     c-0.1,0-0.1,0-0.2,0c-5.3,0-9.6,4.3-9.8,9.6c-0.1,5.4,4.9,10.4,10.2,10.5c0.1,0,0.6,0,1.1,0c6.5,0,37.4-0.1,43.9-0.1     c0.6,0,1,0,1.1,0c0.1,0,0.1,0,0.2,0c5.5,0,10.1-5.2,10.2-11.6c0.1-6.3-3.9-11.6-9.3-12.1c-0.7-7.9-6.7-14.1-14.1-14.3     C390.6,227.3,390.5,227.3,390.4,227.3L390.4,227.3z"
   id="path1585" />
		</g>
		
			<text
   id="text186_1_"
   transform="matrix(1 0 0 1 344.7106 284.5609)"
   fill="#020202"
   font-family="'Metropolis-Regular'"
   font-size="12px"
   style="-inkscape-font-specification:Metropolis;font-family:Metropolis;font-weight:normal;font-style:normal;font-stretch:normal;font-variant:normal;">Public Cloud</text>
	</g>
	
		<text
   id="text186_9_"
   transform="translate(92.4278,17.9583)"
   fill="#020202"
   font-family="Metropolis-Regular"
   font-size="14px"
   style="font-style:normal;font-variant:normal;font-weight:normal;font-stretch:normal;line-height:0;font-family:Metropolis;-inkscape-font-specification:Metropolis">Modern Multicloud Application Services</text>
	
		<text
   id="text186_4_"
   transform="matrix(1 0 0 1 35.4607 286.4522)"
   fill="#020202"
   font-family="'Metropolis-Regular'"
   font-size="12px"
   style="-inkscape-font-specification:Metropolis;font-family:Metropolis;font-weight:normal;font-style:normal;font-stretch:normal;font-variant:normal;">Data Center</text>
	<line
   fill="none"
   stroke="#686B70"
   stroke-width="2"
   stroke-miterlimit="10"
   x1="9.3"
   y1="170.5"
   x2="436.1"
   y2="170.5"
   id="line1593" />
	<g
   id="g1619">
		<path
   fill="#1E4488"
   d="M97.6,100.9H59.9l-18.1-19V64.3l17.4-19.3h38.4L97.6,100.9z M60.5,99.4h35.6V46.5H59.9L43.2,64.9v16.4    L60.5,99.4z"
   id="path1595" />
		<circle
   fill="#1E4488"
   cx="68.4"
   cy="56.6"
   r="4.4"
   id="circle1597" />
		<circle
   fill="#1E4488"
   cx="68.4"
   cy="73.9"
   r="4.4"
   id="circle1599" />
		<circle
   fill="#1E4488"
   cx="51.2"
   cy="73.9"
   r="4.4"
   id="circle1601" />
		<circle
   fill="#1E4488"
   cx="68.4"
   cy="91.1"
   r="4.4"
   id="circle1603" />
		
			<rect
   x="55.7"
   y="64.8"
   transform="matrix(0.7071 -0.7071 0.7071 0.7071 -28.6235 61.95)"
   fill="#1E4488"
   width="9.5"
   height="1.5"
   id="rect1605" />
		
			<rect
   x="59.7"
   y="78.2"
   transform="matrix(0.7071 -0.7071 0.7071 0.7071 -40.955 67.0145)"
   fill="#1E4488"
   width="1.5"
   height="9.5"
   id="rect1607" />
		<rect
   x="58"
   y="73.2"
   fill="#1E4488"
   width="5.2"
   height="1.5"
   id="rect1609" />
		<g
   id="g1617">
			<polygon
   fill="#1E4488"
   points="85.9,60.5 92.7,56.6 85.9,52.6 85.9,55.1 75.1,55.1 75.1,58 85.9,58    "
   id="polygon1611" />
			<polygon
   fill="#1E4488"
   points="85.9,72.4 75.1,72.4 75.1,75.4 85.9,75.4 85.9,77.9 92.7,73.9 85.9,70    "
   id="polygon1613" />
			<polygon
   fill="#1E4488"
   points="85.9,89.6 75.1,89.6 75.1,92.6 85.9,92.6 85.9,95.1 92.7,91.1 85.9,87.2    "
   id="polygon1615" />
		</g>
	</g>
	<g
   id="g1625">
		<path
   fill="#F89820"
   d="M226.3,80.7c0.1-0.3,0.4-0.7,0.6-1.2v-6.7h3.3c0.3-0.6,0.6-1.2,0.9-1.8h-10.9V61h19.5v7.2l0.9,1.6l0.9-1.8    v-6.8h3.3l0.9-1.8H231V49.1h19.5V58l1.1,2.4c0.1,0.2,0.2,0.4,0.3,0.6h3.8v7.7c0.6,1.3,1.2,2.5,1.8,3.6v-1.2V61v-1.8V47.3h-66v11.9    V61v10.2v1.8v11.9h33.4C225.1,83.4,225.6,82,226.3,80.7z M252.3,49.1h3.4v10.2h-3.4V49.1z M225.1,72.9v10.2h-19.5V72.9H225.1z     M198.8,71.1V61h19.5v10.2H198.8z M209.7,49.1h19.5v10.2h-19.5V49.1z M193.3,49.1h14.6v10.2h-14.6V49.1z M193.3,61h3.8v10.2h-3.8    V61z M203.8,83h-10.6V72.9h10.6V83z"
   id="path1621" />
		<path
   fill="#F89820"
   d="M257.2,78.2c-1-2.1-5.8-11.8-8.1-16.6c-0.1-0.3-0.4-0.5-0.8-0.5l0,0c-0.4,0-0.6,0.2-0.8,0.5l-6.8,14.1    c-0.1,0.2-0.3,0.2-0.4,0l-3.5-7c-0.1-0.3-0.4-0.5-0.8-0.5l0,0c-0.4,0-0.6,0.2-0.8,0.5c-1.8,3.8-5.6,11.6-6.5,13.3    c-1,1.8-1.5,3.8-1.4,5.9c0,5.8,4,10.7,8.7,10.7h12.3c5.9,0,10.7-5.8,10.7-13.1C259,82.9,258.4,80.4,257.2,78.2z M249.5,94.1    c-0.3,0.4-0.9,0.5-1.2,0.3c-0.4-0.3-0.5-0.9-0.3-1.2c3.4-5.2,1.9-10.2-0.1-12.7c-1.4,5.7-3.1,9.2-6.7,9.2h-0.1    c-1.7,0-3.3-1.5-4.3-2.6c-0.6,2.1-0.9,5,1.2,6.4c0.4,0.3,0.5,0.8,0.3,1.2c-0.1,0.3-0.4,0.4-0.8,0.4c-0.1,0-0.4-0.1-0.5-0.1    c-3.6-2.3-2.7-7.4-1.3-10c0.1-0.3,0.4-0.4,0.7-0.5c0.3,0,0.6,0.1,0.8,0.4c0.6,0.8,2.4,3,3.9,3.1c2.4,0.1,3.9-2.4,5.4-9.1v-0.1    c0-0.4,0.2-0.6,0.5-0.8c0.3-0.1,0.6-0.1,0.9,0.1C251.4,80.4,253.8,87.5,249.5,94.1z"
   id="path1623" />
	</g>
	<g
   id="g1631">
		<path
   fill="#1295D3"
   d="M355.9,47.4V91h32.3v-1.6h-30.7V71.2h8.8l2.4-8.5l3.5,24.6l4.5-19.4l3.2,11.7l5.4-20.3l2.4,11.9H398v4.5    h1.5V47.4H355.9z M388.9,69.6l-3.5-17.2l-5.5,21.2l-3.3-12.1l-4.1,17.3l-3.4-23.7l-4.1,14.5h-7.6V48.9H398v20.7H388.9z"
   id="path1627" />
		<path
   fill="#1295D3"
   d="M405.5,81c0.1-0.1,0.1-0.3,0.1-0.4c0-1.9-3.9-2.7-7.6-2.7c-3.7,0-7.6,0.8-7.6,2.7s3.9,2.7,7.6,2.7    c2.4,0,4.8-0.4,6.3-1.1v3.6c-0.1,0.1-0.1,0.2-0.1,0.3c0,0.3-1.6,1.2-6.3,1.2c-4.1,0-6.3-1-6.4-1.5l-0.1-1.8c0-0.4-0.3-0.6-0.6-0.6    l0,0c-0.4,0-0.6,0.3-0.6,0.7v1.7c0,1.9,3.9,2.7,7.6,2.7c1.6,0,4.6-0.1,6.3-1v3.2c-0.1,0.1-0.1,0.2-0.1,0.3c0,0.3-1.6,1.2-6.3,1.2    c-4.1,0-6.3-1-6.4-1.5l-0.1-1.8c0-0.4-0.3-0.6-0.6-0.6l0,0c-0.4,0-0.6,0.3-0.6,0.7l0.1,1.8c0,1.9,3.9,2.7,7.6,2.7    c1.6,0,4.6-0.1,6.3-1v3.2c-0.1,0.1-0.1,0.2-0.1,0.3c0,0.3-1.6,1.2-6.3,1.2c-4.1,0-6.3-1-6.4-1.5l-0.1-1.8c0-0.4-0.3-0.6-0.6-0.6    l0,0c-0.4,0-0.6,0.3-0.6,0.7l0.1,1.8c0,1.9,3.9,2.7,7.6,2.7c2.1,0,6.8-0.2,7.4-2h0.2V81H405.5z M397.9,82.1c-4.1,0-6.3-1-6.4-1.5    c0.1-0.5,2.2-1.5,6.4-1.5c4.1,0,6.3,1,6.4,1.5C404.2,81.1,402.1,82.1,397.9,82.1z"
   id="path1629" />
	</g>
	
		<text
   id="text186_6_"
   transform="matrix(1 0 0 1 355.1027 120.5254)"
   fill="#020202"
   font-family="'Metropolis-Regular'"
   font-size="12px"
   style="-inkscape-font-specification:Metropolis;font-family:Metropolis;font-weight:normal;font-style:normal;font-stretch:normal;font-variant:normal;">Analytics</text>
	
		<text
   id="text186_5_"
   transform="matrix(1 0 0 1 25.6568 120.5254)"
   fill="#020202"
   font-family="'Metropolis-Regular'"
   font-size="12px"
   style="-inkscape-font-specification:Metropolis;font-family:Metropolis;font-weight:normal;font-style:normal;font-stretch:normal;font-variant:normal;">Load Balancing</text>
	<text
   id="text186_3_"
   transform="matrix(1 0 0 1 177.4743 120.5254)"
   enable-background="new    "><tspan
     x="0"
     y="0"
     fill="#020202"
     font-family="'Metropolis-Regular'"
     font-size="12px"
     id="tspan1635"
     style="-inkscape-font-specification:Metropolis;font-family:Metropolis;font-weight:normal;font-style:normal;font-stretch:normal;font-variant:normal;">Web Application</tspan><tspan
     x="25.4"
     y="14.4"
     fill="#020202"
     font-family="'Metropolis-Regular'"
     font-size="12px"
     id="tspan1637"
     style="-inkscape-font-specification:Metropolis;font-family:Metropolis;font-weight:normal;font-style:normal;font-stretch:normal;font-variant:normal;">Firewall</tspan></text>
</g>
</svg>
