<?xml version="1.0" encoding="UTF-8" standalone="no"?>
<svg
   xmlns:dc="http://purl.org/dc/elements/1.1/"
   xmlns:cc="http://creativecommons.org/ns#"
   xmlns:rdf="http://www.w3.org/1999/02/22-rdf-syntax-ns#"
   xmlns:svg="http://www.w3.org/2000/svg"
   xmlns="http://www.w3.org/2000/svg"
   xmlns:sodipodi="http://sodipodi.sourceforge.net/DTD/sodipodi-0.dtd"
   xmlns:inkscape="http://www.inkscape.org/namespaces/inkscape"
   inkscape:version="1.0 (4035a4f, 2020-05-01)"
   sodipodi:docname="slide_04.svg"
   xml:space="preserve"
   enable-background="new 0 0 491.5 251.1"
   viewBox="0 0 491.5 251.1"
   y="0px"
   x="0px"
   id="Layer_1"
   version="1.1"><metadata
   id="metadata1345"><rdf:RDF><cc:Work
       rdf:about=""><dc:format>image/svg+xml</dc:format><dc:type
         rdf:resource="http://purl.org/dc/dcmitype/StillImage" /></cc:Work></rdf:RDF></metadata><defs
   id="defs1343" /><sodipodi:namedview
   inkscape:current-layer="g1156"
   inkscape:window-maximized="0"
   inkscape:window-y="203"
   inkscape:window-x="0"
   inkscape:cy="125.55"
   inkscape:cx="245.75"
   inkscape:zoom="2.2299084"
   showgrid="false"
   id="namedview1341"
   inkscape:window-height="480"
   inkscape:window-width="689"
   inkscape:pageshadow="2"
   inkscape:pageopacity="0"
   guidetolerance="10"
   gridtolerance="10"
   objecttolerance="10"
   borderopacity="1"
   bordercolor="#666666"
   pagecolor="#ffffff" />
<rect
   id="rect1080"
   height="251.1"
   width="491.5"
   fill="#FFFFFF" />
<rect
   id="rect1082"
   height="220.9"
   width="491.5"
   fill="#ECECEB"
   y="30.2" />
<g
   id="g1096">
	<g
   id="g1090">
		<path
   id="path1084"
   d="M18.6,132.7h1.2l6.3,8.3v-8.3h1.2v10.2h-1.2l-6.3-8.3v8.3h-1.2V132.7z"
   fill="#1295D3" />
		<path
   id="path1086"
   d="M30.3,141.4l0.7-0.9c0.9,0.9,1.9,1.5,3.3,1.5c1.6,0,2.4-0.9,2.4-1.8c0-1.1-1-1.5-2.8-1.9    c-2-0.5-3.3-1.1-3.3-2.9c0-1.6,1.4-2.9,3.4-2.9c1.5,0,2.7,0.6,3.6,1.4l-0.7,0.9c-0.9-0.8-1.8-1.3-2.9-1.3c-1.3,0-2.2,0.8-2.2,1.8    c0,1.1,1,1.4,2.8,1.8c1.9,0.5,3.3,1.2,3.3,3c0,1.6-1.2,2.9-3.6,2.9C32.6,143.1,31.3,142.5,30.3,141.4z"
   fill="#1295D3" />
		<path
   id="path1088"
   d="M45.4,137.8l3.9,5.1h-1.4l-3.2-4.2l-3.2,4.2h-1.4l3.9-5.1l-3.9-5.1h1.4l3.2,4.2l3.2-4.2h1.4L45.4,137.8z"
   fill="#1295D3" />
	</g>
	<path
   id="path1092"
   d="M58.6,146.6"
   stroke-miterlimit="10"
   stroke-width="4"
   stroke="#020202"
   fill="#1295D3" />
	<path
   id="path1094"
   d="M34,162.8c-0.9,0-1.8-0.1-2.7-0.2l0.2-2c0.8,0.1,1.6,0.2,2.5,0.2V162.8z M34.5,162.8l-0.1-2   c0.8,0,1.6-0.1,2.5-0.2l0.3,2C36.3,162.7,35.4,162.8,34.5,162.8z M28.7,162.2c-0.9-0.2-1.7-0.5-2.6-0.7l0.7-1.9   c0.8,0.3,1.6,0.5,2.4,0.7L28.7,162.2z M39.8,162.1l-0.5-2c0.8-0.2,1.6-0.4,2.4-0.7l0.7,1.9C41.6,161.6,40.7,161.9,39.8,162.1z    M23.7,160.5c-0.8-0.4-1.6-0.8-2.4-1.3l1.1-1.7c0.7,0.4,1.4,0.8,2.1,1.2L23.7,160.5z M44.8,160.3l-0.9-1.8c0.7-0.4,1.4-0.8,2.1-1.2   l1.1,1.7C46.4,159.4,45.6,159.9,44.8,160.3z M19.1,157.7c-0.7-0.6-1.4-1.1-2-1.7l1.4-1.5c0.6,0.6,1.2,1.1,1.8,1.6L19.1,157.7z    M49.3,157.4l-1.3-1.6c0.6-0.5,1.2-1.1,1.8-1.6l1.4,1.4C50.7,156.2,50,156.8,49.3,157.4z M15.3,154c-0.6-0.7-1.1-1.4-1.6-2.1   l1.7-1.1c0.5,0.7,0.9,1.3,1.4,1.9L15.3,154z M53.1,153.6l-1.6-1.2c0.5-0.6,1-1.3,1.4-2l1.7,1.1C54.1,152.1,53.6,152.9,53.1,153.6z    M12.4,149.5c-0.4-0.8-0.8-1.6-1.1-2.5l1.9-0.7c0.3,0.8,0.6,1.5,1,2.3L12.4,149.5z M55.9,149.1l-1.8-0.9c0.4-0.7,0.7-1.5,0.9-2.3   l1.9,0.7C56.6,147.4,56.3,148.3,55.9,149.1z M10.5,144.6c-0.2-0.9-0.4-1.7-0.5-2.6l2-0.3c0.1,0.8,0.3,1.6,0.5,2.4L10.5,144.6z    M57.7,144.1l-2-0.5c0.2-0.8,0.3-1.6,0.4-2.4l2,0.3C58,142.3,57.9,143.2,57.7,144.1z M9.7,139.3c0-0.3,0-0.5,0-0.8   c0-0.6,0-1.2,0.1-1.9l2,0.2c-0.1,0.6-0.1,1.1-0.1,1.7c0,0.3,0,0.5,0,0.7L9.7,139.3z M58.3,138.8h-2v-0.3c0-0.7-0.1-1.5-0.1-2.2   l2-0.2c0.1,0.8,0.1,1.6,0.1,2.4V138.8z M12.1,134.4l-2-0.4c0.2-0.9,0.4-1.7,0.6-2.6l1.9,0.6C12.5,132.7,12.3,133.6,12.1,134.4z    M55.8,133.9c-0.2-0.8-0.4-1.6-0.6-2.4l1.9-0.7c0.3,0.8,0.5,1.7,0.7,2.6L55.8,133.9z M13.6,129.7l-1.9-0.8c0.4-0.8,0.8-1.6,1.2-2.4   l1.8,1C14.3,128.2,13.9,129,13.6,129.7z M54.3,129.3c-0.4-0.7-0.7-1.5-1.1-2.1l1.7-1.1c0.5,0.8,0.9,1.5,1.2,2.4L54.3,129.3z    M16,125.4l-1.6-1.2c0.5-0.7,1.1-1.4,1.7-2l1.5,1.4C17,124.2,16.5,124.8,16,125.4z M51.8,125.1c-0.5-0.7-1-1.3-1.6-1.8l1.5-1.4   c0.6,0.7,1.2,1.3,1.7,2L51.8,125.1z M19.3,121.9l-1.4-1.5c0.7-0.6,1.4-1.1,2.1-1.6l1.2,1.7C20.5,120.8,19.9,121.3,19.3,121.9z    M48.4,121.5c-0.6-0.5-1.3-1-1.9-1.5l1.1-1.7c0.7,0.5,1.4,1,2.1,1.6L48.4,121.5z M23.2,119l-1-1.8c0.8-0.4,1.6-0.8,2.4-1.2l0.8,1.9   C24.7,118.3,24,118.6,23.2,119z M44.4,118.8c-0.7-0.4-1.5-0.7-2.2-1l0.8-1.9c0.8,0.3,1.6,0.7,2.4,1.1L44.4,118.8z M27.7,117.1   l-0.6-1.9c0.9-0.3,1.7-0.5,2.6-0.6l0.4,2C29.3,116.7,28.5,116.9,27.7,117.1z M39.8,117c-0.8-0.2-1.6-0.4-2.4-0.5l0.3-2   c0.9,0.2,1.7,0.3,2.6,0.6L39.8,117z M32.6,116.3l-0.2-2c0.5-0.1,1.1-0.1,1.6-0.1c0.4,0,0.7,0,1.1,0l-0.1,2c-0.3,0-0.7-0.1-1,0   C33.5,116.2,33.1,116.3,32.6,116.3z"
   fill="#1295D3" />
</g>
<g
   id="g1108">
	<g
   id="g1104">
		<path
   id="path1098"
   d="M107.4,78h-5.3l-0.9,2.1h-1.2l4.2-9.4h1.2l4.2,9.4h-1.2L107.4,78z M106.9,77l-2.2-5l-2.2,5H106.9z"
   fill="#19BFD3" />
		<path
   id="path1100"
   d="M111.8,70.7h3.8c1.9,0,3.5,1.2,3.5,3c0,1.8-1.5,3-3.5,3h-2.7v3.4h-1.1V70.7z M115.5,75.7    c1.5,0,2.6-0.8,2.6-2c0-1.3-1-2-2.6-2h-2.6v4L115.5,75.7L115.5,75.7z"
   fill="#19BFD3" />
		<path
   id="path1102"
   d="M121.5,70.7h3.8c1.9,0,3.5,1.2,3.5,3c0,1.8-1.5,3-3.5,3h-2.7v3.4h-1.1V70.7z M125.1,75.7    c1.5,0,2.6-0.8,2.6-2c0-1.3-1-2-2.6-2h-2.6v4L125.1,75.7L125.1,75.7z"
   fill="#19BFD3" />
	</g>
	<path
   id="path1106"
   d="M133.8,55c1.2,0,2.3,1,2.3,2.3v38.1c0,1.2-1,2.3-2.3,2.3H95.7c-1.2,0-2.3-1-2.3-2.3V57.2   c0-1.2,1-2.3,2.3-2.3L133.8,55 M133.8,53.8H95.7c-1.9,0-3.5,1.5-3.5,3.5v38.1c0,1.9,1.5,3.5,3.5,3.5h38.1c1.9,0,3.5-1.5,3.5-3.5   V57.2C137.3,55.3,135.7,53.8,133.8,53.8L133.8,53.8z"
   fill="#19BFD3" />
</g>
<g
   id="g1120">
	<g
   id="g1116">
		<path
   id="path1110"
   d="M182.9,78h-5.3l-0.9,2.1h-1.2l4.2-9.4h1.2l4.2,9.4h-1.2L182.9,78z M182.4,77l-2.2-5l-2.2,5H182.4z"
   fill="#218FCF" />
		<path
   id="path1112"
   d="M187.3,70.7h3.8c1.9,0,3.5,1.2,3.5,3c0,1.8-1.5,3-3.5,3h-2.7v3.4h-1.1V70.7z M191,75.7    c1.5,0,2.6-0.8,2.6-2c0-1.3-1-2-2.6-2h-2.6v4L191,75.7L191,75.7z"
   fill="#218FCF" />
		<path
   id="path1114"
   d="M197,70.7h3.8c1.9,0,3.5,1.2,3.5,3c0,1.8-1.5,3-3.5,3H198v3.4H197C197,80.2,197,70.7,197,70.7z     M200.6,75.7c1.5,0,2.6-0.8,2.6-2c0-1.3-1-2-2.6-2H198v4L200.6,75.7L200.6,75.7z"
   fill="#218FCF" />
	</g>
	<path
   id="path1118"
   d="M209.3,55c1.2,0,2.3,1,2.3,2.3v38.1c0,1.2-1,2.3-2.3,2.3h-38.1c-1.2,0-2.3-1-2.3-2.3V57.2   c0-1.2,1-2.3,2.3-2.3L209.3,55 M209.3,53.8h-38.1c-1.9,0-3.5,1.5-3.5,3.5v38.1c0,1.9,1.5,3.5,3.5,3.5h38.1c1.9,0,3.5-1.5,3.5-3.5   V57.2C212.8,55.3,211.2,53.8,209.3,53.8L209.3,53.8z"
   fill="#218FCF" />
</g>
<g
   id="g1156">
	<g
   id="g1148">
		<path
   id="path1122"
   d="M109,184.6c-0.5-5.8-5.1-10.3-10.7-10.4c-0.1,0-0.2,0-0.3,0c-4.5,0-8.4,2.9-10.1,7.1    c-1.2-0.5-2.4-0.9-3.8-0.9c-0.1,0-0.2,0-0.2,0c-4.5,0-8.2,3-9.1,7.1c-0.6-0.2-1.2-0.2-1.8-0.3c-0.1,0-0.1,0-0.2,0    c-4,0-7.3,3.1-7.4,7c-0.1,2,0.9,3.8,2.2,5.2v-2.1c-0.6-1-1-2-0.9-3c0.1-3.1,2.8-5.7,6.1-5.7c0.1,0,0.1,0,0.2,0    c0.5,0,1,0.1,1.5,0.2l1.3,0.4l0.3-1.3c0.8-3.5,4.1-6.1,7.8-6.1c0.1,0,0.1,0,0.2,0c1.2,0.1,2.2,0.3,3.3,0.7l1.3,0.6l0.5-1.3    c1.5-3.8,5-6.3,8.9-6.3c0.1,0,0.2,0,0.2,0c4.8,0.1,8.8,4.1,9.4,9.2l0.1,1.1l1.1,0.1c3.4,0.3,5.9,3.6,5.8,7.5    c-0.1,1.9-0.7,3.5-1.8,4.8v1.9c1.8-1.5,3-3.9,3.1-6.7C116.1,188.8,113,185,109,184.6z"
   fill="#1295D3" />
		<g
   id="g1146">
			<path
   id="path1124"
   d="M111.6,217.3v-20H79.7v-1.4H69v1.4H69v20h-3.5v1.3h49.7v-1.3L111.6,217.3L111.6,217.3z M70.3,198.7h40     v3.9H72.5v1.3h37.8v13.4h-40V198.7z"
   fill="#1295D3" />
			<rect
   id="rect1126"
   height="1.3"
   width="4"
   fill="#1295D3"
   y="207.3"
   x="72.3" />
			<rect
   id="rect1128"
   height="1.3"
   width="4"
   fill="#1295D3"
   y="212.6"
   x="72.3" />
			<rect
   id="rect1130"
   height="1.3"
   width="4"
   fill="#1295D3"
   y="207.3"
   x="80.3" />
			<rect
   id="rect1132"
   height="1.3"
   width="4"
   fill="#1295D3"
   y="212.6"
   x="80.3" />
			<rect
   id="rect1134"
   height="1.3"
   width="4"
   fill="#1295D3"
   y="207.3"
   x="88.3" />
			<rect
   id="rect1136"
   height="1.3"
   width="4"
   fill="#1295D3"
   y="212.6"
   x="88.3" />
			<rect
   id="rect1138"
   height="1.3"
   width="4"
   fill="#1295D3"
   y="207.3"
   x="96.3" />
			<rect
   id="rect1140"
   height="1.3"
   width="4"
   fill="#1295D3"
   y="212.6"
   x="96.3" />
			<rect
   id="rect1142"
   height="1.3"
   width="4"
   fill="#1295D3"
   y="207.3"
   x="104.3" />
			<rect
   id="rect1144"
   height="1.3"
   width="4"
   fill="#1295D3"
   y="212.6"
   x="104.3" />
		</g>
	</g>
	
		<text
   style="-inkscape-font-specification:Metropolis;font-family:Metropolis;font-weight:normal;font-style:normal;font-stretch:normal;font-variant:normal;"
   font-size="12px"
   font-family="'Metropolis-Regular'"
   fill="#020202"
   transform="matrix(1 0 0 1 56.5434 234.3895)"
   id="text186_3_">Data Center</text>
	<text
   style="line-height:0"
   enable-background="new    "
   transform="translate(109.4453,171.6337)"
   id="text186_1_"><tspan
     style="-inkscape-font-specification:Metropolis;font-family:Metropolis;font-weight:normal;font-style:normal;font-stretch:normal;font-variant:normal;"
     id="tspan1151"
     font-size="12px"
     font-family="Metropolis-Regular"
     fill="#020202"
     y="0"
     x="0">Private</tspan><tspan
     style="-inkscape-font-specification:Metropolis;font-family:Metropolis;font-weight:normal;font-style:normal;font-stretch:normal;font-variant:normal;"
     id="tspan1153"
     font-size="12px"
     font-family="Metropolis-Regular"
     fill="#020202"
     y="12"
     x="3.3">Cloud</tspan></text>
</g>
<g
   id="g1166">
	<g
   id="g1164">
		<line
   id="line1158"
   y2="137.9"
   x2="477.2"
   y1="137.9"
   x1="65.4"
   stroke-miterlimit="10"
   stroke-width="2"
   stroke="#218FCF"
   fill="none" />
		<g
   id="g1162">
			<polygon
   id="polygon1160"
   points="475.7,142.9 484.4,137.9 475.7,133    "
   fill="#218FCF" />
		</g>
	</g>
</g>
<line
   id="line1168"
   y2="137.9"
   x2="115.5"
   y1="101"
   x1="115.5"
   stroke-dasharray="4"
   stroke-miterlimit="10"
   stroke-width="2"
   stroke="#19BFD3"
   fill="none" />
<line
   id="line1170"
   y2="137.9"
   x2="190.3"
   y1="101"
   x1="190.3"
   stroke-dasharray="4"
   stroke-miterlimit="10"
   stroke-width="2"
   stroke="#218FCF"
   fill="none" />
<line
   id="line1172"
   y2="238.3"
   x2="169.5"
   y1="153.2"
   x1="169.5"
   stroke-dasharray="4"
   stroke-miterlimit="10"
   stroke-width="2"
   stroke="#218FCF"
   fill="none" />
<circle
   id="circle1174"
   r="12.5"
   cy="54.9"
   cx="136.4"
   fill="#686B70" />
<g
   id="g1192">
	<path
   id="path1176"
   d="M143,59.6h-0.4c-0.1,0-0.2,0.1-0.2,0.2s0.1,0.2,0.2,0.2h0.4c0.5,0,0.8,0.4,0.8,0.8v0.4   c0,0.4-0.4,0.8-0.8,0.8h-0.2c-0.1,0-0.3,0-0.4-0.2c-0.2-0.2-0.3-0.5-0.3-1V48.7c0-0.6-0.5-1.1-1.1-1.1h-8.6c-0.1,0-0.2,0-0.3,0   h-0.4c-0.7,0-1.3,0.5-1.3,1.2v0.4c0,0.5,0.4,1,0.9,1.1v10.9c0,0.6,0.5,1.2,1.1,1.2h9.6v0c0,0,0,0,0.1,0h0.7c0.1,0,0.2,0,0.3,0   c0.7,0,1.2-0.5,1.2-1.2v-0.4C144.2,60.1,143.7,59.6,143,59.6z M130.7,49.1v-0.4c0-0.4,0.4-0.8,0.9-0.8h8.4   c-0.2,0.2-0.3,0.5-0.3,0.8v0.4c0,0.3,0.1,0.6,0.3,0.8h-8.4C131.1,49.9,130.7,49.6,130.7,49.1z M131.6,61.2V50.3h9.3   c0.1,0,0.2-0.1,0.2-0.2s-0.1-0.2-0.2-0.2c-0.5,0-0.9-0.4-0.9-0.8v-0.4c0-0.4,0.4-0.8,0.8-0.8c0,0,0,0,0.1,0c0,0,0,0,0,0   c0.4,0,0.6,0.4,0.6,0.7v12.2c0,0.5,0.1,0.9,0.3,1.1h-9.6C132,61.9,131.6,61.6,131.6,61.2z"
   fill="#FFFFFF" />
	<g
   id="g1190">
		<rect
   id="rect1178"
   height="0.4"
   width="6.4"
   fill="#FFFFFF"
   y="51.9"
   x="133.5" />
		<rect
   id="rect1180"
   height="0.4"
   width="6.4"
   fill="#FFFFFF"
   y="53.5"
   x="133.5" />
		<rect
   id="rect1182"
   height="0.4"
   width="6.4"
   fill="#FFFFFF"
   y="55.1"
   x="133.5" />
		<rect
   id="rect1184"
   height="0.4"
   width="6.4"
   fill="#FFFFFF"
   y="56.7"
   x="133.5" />
		<rect
   id="rect1186"
   height="0.4"
   width="6.4"
   fill="#FFFFFF"
   y="58.3"
   x="133.5" />
		<rect
   id="rect1188"
   height="0.4"
   width="6.4"
   fill="#FFFFFF"
   y="60"
   x="133.5" />
	</g>
</g>
<circle
   id="circle1194"
   r="12.5"
   cy="54.9"
   cx="212.8"
   fill="#686B70" />
<g
   id="g1212">
	<path
   id="path1196"
   d="M219.3,59.6H219c-0.1,0-0.2,0.1-0.2,0.2s0.1,0.2,0.2,0.2h0.4c0.5,0,0.8,0.4,0.8,0.8v0.4   c0,0.4-0.4,0.8-0.8,0.8h-0.2c-0.1,0-0.3,0-0.4-0.2c-0.2-0.2-0.3-0.5-0.3-1V48.7c0-0.6-0.5-1.1-1.1-1.1h-8.6c-0.1,0-0.2,0-0.3,0H208   c-0.7,0-1.3,0.5-1.3,1.2v0.4c0,0.5,0.4,1,0.9,1.1v10.9c0,0.6,0.5,1.2,1.1,1.2h9.6v0c0,0,0,0,0.1,0h0.7c0.1,0,0.2,0,0.3,0   c0.7,0,1.2-0.5,1.2-1.2v-0.4C220.6,60.1,220,59.6,219.3,59.6z M207.1,49.1v-0.4c0-0.4,0.4-0.8,0.9-0.8h8.4   c-0.2,0.2-0.3,0.5-0.3,0.8v0.4c0,0.3,0.1,0.6,0.3,0.8h-8.4C207.5,49.9,207.1,49.6,207.1,49.1z M208,61.2V50.3h9.3   c0.1,0,0.2-0.1,0.2-0.2s-0.1-0.2-0.2-0.2c-0.5,0-0.9-0.4-0.9-0.8v-0.4c0-0.4,0.4-0.8,0.8-0.8c0,0,0,0,0.1,0c0,0,0,0,0,0   c0.4,0,0.6,0.4,0.6,0.7v12.2c0,0.5,0.1,0.9,0.3,1.1h-9.6C208.3,61.9,208,61.6,208,61.2z"
   fill="#FFFFFF" />
	<g
   id="g1210">
		<rect
   id="rect1198"
   height="0.4"
   width="6.4"
   fill="#FFFFFF"
   y="51.9"
   x="209.9" />
		<rect
   id="rect1200"
   height="0.4"
   width="6.4"
   fill="#FFFFFF"
   y="53.5"
   x="209.9" />
		<rect
   id="rect1202"
   height="0.4"
   width="6.4"
   fill="#FFFFFF"
   y="55.1"
   x="209.9" />
		<rect
   id="rect1204"
   height="0.4"
   width="6.4"
   fill="#FFFFFF"
   y="56.7"
   x="209.9" />
		<rect
   id="rect1206"
   height="0.4"
   width="6.4"
   fill="#FFFFFF"
   y="58.3"
   x="209.9" />
		<rect
   id="rect1208"
   height="0.4"
   width="6.4"
   fill="#FFFFFF"
   y="60"
   x="209.9" />
	</g>
</g>
<g
   id="g1224">
	<g
   id="g1220">
		<path
   id="path1214"
   d="M260.4,78h-5.3l-0.9,2.1H253l4.2-9.4h1.2l4.2,9.4h-1.2L260.4,78z M259.9,77l-2.2-5l-2.2,5H259.9z"
   fill="#78BE43" />
		<path
   id="path1216"
   d="M264.9,70.7h3.8c1.9,0,3.5,1.2,3.5,3c0,1.8-1.5,3-3.5,3h-2.7v3.4h-1.1V70.7z M268.5,75.7    c1.5,0,2.6-0.8,2.6-2c0-1.3-1-2-2.6-2h-2.6v4L268.5,75.7L268.5,75.7z"
   fill="#78BE43" />
		<path
   id="path1218"
   d="M274.5,70.7h3.8c1.9,0,3.5,1.2,3.5,3c0,1.8-1.5,3-3.5,3h-2.7v3.4h-1.1L274.5,70.7z M278.1,75.7    c1.5,0,2.6-0.8,2.6-2c0-1.3-1-2-2.6-2h-2.6v4L278.1,75.7L278.1,75.7z"
   fill="#78BE43" />
	</g>
	<path
   id="path1222"
   d="M286.8,55c1.2,0,2.3,1,2.3,2.3v38.1c0,1.2-1,2.3-2.3,2.3h-38.1c-1.2,0-2.3-1-2.3-2.3V57.2   c0-1.2,1-2.3,2.3-2.3L286.8,55 M286.8,53.8h-38.1c-1.9,0-3.5,1.5-3.5,3.5v38.1c0,1.9,1.5,3.5,3.5,3.5h38.1c1.9,0,3.5-1.5,3.5-3.5   V57.2C290.3,55.3,288.7,53.8,286.8,53.8L286.8,53.8z"
   fill="#78BE43" />
</g>
<line
   id="line1226"
   y2="137.9"
   x2="267.8"
   y1="101"
   x1="267.8"
   stroke-dasharray="4"
   stroke-miterlimit="10"
   stroke-width="2"
   stroke="#78BE43"
   fill="none" />
<circle
   id="circle1228"
   r="12.5"
   cy="54.9"
   cx="290.3"
   fill="#686B70" />
<g
   id="g1246">
	<path
   id="path1230"
   d="M296.9,59.6h-0.4c-0.1,0-0.2,0.1-0.2,0.2s0.1,0.2,0.2,0.2h0.4c0.5,0,0.8,0.4,0.8,0.8v0.4   c0,0.4-0.4,0.8-0.8,0.8h-0.2c-0.1,0-0.3,0-0.4-0.2c-0.2-0.2-0.3-0.5-0.3-1V48.7c0-0.6-0.5-1.1-1.1-1.1h-8.6c-0.1,0-0.2,0-0.3,0   h-0.4c-0.7,0-1.3,0.5-1.3,1.2v0.4c0,0.5,0.4,1,0.9,1.1v10.9c0,0.6,0.5,1.2,1.1,1.2h9.6v0c0,0,0,0,0.1,0h0.7c0.1,0,0.2,0,0.3,0   c0.7,0,1.2-0.5,1.2-1.2v-0.4C298.1,60.1,297.6,59.6,296.9,59.6z M284.6,49.1v-0.4c0-0.4,0.4-0.8,0.9-0.8h8.4   c-0.2,0.2-0.3,0.5-0.3,0.8v0.4c0,0.3,0.1,0.6,0.3,0.8h-8.4C285,49.9,284.6,49.6,284.6,49.1z M285.5,61.2V50.3h9.3   c0.1,0,0.2-0.1,0.2-0.2s-0.1-0.2-0.2-0.2c-0.5,0-0.9-0.4-0.9-0.8v-0.4c0-0.4,0.4-0.8,0.8-0.8c0,0,0,0,0.1,0c0,0,0,0,0,0   c0.4,0,0.6,0.4,0.6,0.7v12.2c0,0.5,0.1,0.9,0.3,1.1h-9.6C285.9,61.9,285.5,61.6,285.5,61.2z"
   fill="#FFFFFF" />
	<g
   id="g1244">
		<rect
   id="rect1232"
   height="0.4"
   width="6.4"
   fill="#FFFFFF"
   y="51.9"
   x="287.4" />
		<rect
   id="rect1234"
   height="0.4"
   width="6.4"
   fill="#FFFFFF"
   y="53.5"
   x="287.4" />
		<rect
   id="rect1236"
   height="0.4"
   width="6.4"
   fill="#FFFFFF"
   y="55.1"
   x="287.4" />
		<rect
   id="rect1238"
   height="0.4"
   width="6.4"
   fill="#FFFFFF"
   y="56.7"
   x="287.4" />
		<rect
   id="rect1240"
   height="0.4"
   width="6.4"
   fill="#FFFFFF"
   y="58.3"
   x="287.4" />
		<rect
   id="rect1242"
   height="0.4"
   width="6.4"
   fill="#FFFFFF"
   y="60"
   x="287.4" />
	</g>
</g>
<g
   id="g1258">
	<g
   id="g1254">
		<path
   id="path1248"
   d="M338.1,78h-5.3l-0.9,2.1h-1.2l4.2-9.4h1.2l4.2,9.4H339L338.1,78z M337.7,77l-2.2-5l-2.2,5H337.7z"
   fill="#79459B" />
		<path
   id="path1250"
   d="M342.6,70.7h3.8c1.9,0,3.5,1.2,3.5,3c0,1.8-1.5,3-3.5,3h-2.7v3.4h-1.1V70.7z M346.2,75.7    c1.5,0,2.6-0.8,2.6-2c0-1.3-1-2-2.6-2h-2.6v4L346.2,75.7L346.2,75.7z"
   fill="#79459B" />
		<path
   id="path1252"
   d="M352.2,70.7h3.8c1.9,0,3.5,1.2,3.5,3c0,1.8-1.5,3-3.5,3h-2.7v3.4h-1.1V70.7z M355.9,75.7    c1.5,0,2.6-0.8,2.6-2c0-1.3-1-2-2.6-2h-2.6v4L355.9,75.7L355.9,75.7z"
   fill="#79459B" />
	</g>
	<path
   id="path1256"
   d="M364.6,55c1.2,0,2.3,1,2.3,2.3v38.1c0,1.2-1,2.3-2.3,2.3h-38.1c-1.2,0-2.3-1-2.3-2.3V57.2   c0-1.2,1-2.3,2.3-2.3L364.6,55 M364.6,53.8h-38.1c-1.9,0-3.5,1.5-3.5,3.5v38.1c0,1.9,1.5,3.5,3.5,3.5h38.1c1.9,0,3.5-1.5,3.5-3.5   V57.2C368,55.3,366.5,53.8,364.6,53.8L364.6,53.8z"
   fill="#79459B" />
</g>
<line
   id="line1260"
   y2="137.9"
   x2="345.5"
   y1="101"
   x1="345.5"
   stroke-dasharray="4"
   stroke-miterlimit="10"
   stroke-width="2"
   stroke="#79459B"
   fill="none" />
<circle
   id="circle1262"
   r="12.5"
   cy="54.9"
   cx="368"
   fill="#686B70" />
<g
   id="g1280">
	<path
   id="path1264"
   d="M374.6,59.6h-0.4c-0.1,0-0.2,0.1-0.2,0.2s0.1,0.2,0.2,0.2h0.4c0.5,0,0.8,0.4,0.8,0.8v0.4   c0,0.4-0.4,0.8-0.8,0.8h-0.2c-0.1,0-0.3,0-0.4-0.2c-0.2-0.2-0.3-0.5-0.3-1V48.7c0-0.6-0.5-1.1-1.1-1.1H364c-0.1,0-0.2,0-0.3,0h-0.4   c-0.7,0-1.3,0.5-1.3,1.2v0.4c0,0.5,0.4,1,0.9,1.1v10.9c0,0.6,0.5,1.2,1.1,1.2h9.6v0c0,0,0,0,0.1,0h0.7c0.1,0,0.2,0,0.3,0   c0.7,0,1.2-0.5,1.2-1.2v-0.4C375.9,60.1,375.3,59.6,374.6,59.6z M362.3,49.1v-0.4c0-0.4,0.4-0.8,0.9-0.8h8.4   c-0.2,0.2-0.3,0.5-0.3,0.8v0.4c0,0.3,0.1,0.6,0.3,0.8h-8.4C362.7,49.9,362.3,49.6,362.3,49.1z M363.3,61.2V50.3h9.3   c0.1,0,0.2-0.1,0.2-0.2s-0.1-0.2-0.2-0.2c-0.5,0-0.9-0.4-0.9-0.8v-0.4c0-0.4,0.4-0.8,0.8-0.8c0,0,0,0,0.1,0s0,0,0,0   c0.4,0,0.6,0.4,0.6,0.7v12.2c0,0.5,0.1,0.9,0.3,1.1H364C363.6,61.9,363.3,61.6,363.3,61.2z"
   fill="#FFFFFF" />
	<g
   id="g1278">
		<rect
   id="rect1266"
   height="0.4"
   width="6.4"
   fill="#FFFFFF"
   y="51.9"
   x="365.1" />
		<rect
   id="rect1268"
   height="0.4"
   width="6.4"
   fill="#FFFFFF"
   y="53.5"
   x="365.1" />
		<rect
   id="rect1270"
   height="0.4"
   width="6.4"
   fill="#FFFFFF"
   y="55.1"
   x="365.1" />
		<rect
   id="rect1272"
   height="0.4"
   width="6.4"
   fill="#FFFFFF"
   y="56.7"
   x="365.1" />
		<rect
   id="rect1274"
   height="0.4"
   width="6.4"
   fill="#FFFFFF"
   y="58.3"
   x="365.1" />
		<rect
   id="rect1276"
   height="0.4"
   width="6.4"
   fill="#FFFFFF"
   y="60"
   x="365.1" />
	</g>
</g>
<g
   id="g1292">
	<g
   id="g1288">
		<path
   id="path1282"
   d="M417,78h-5.3l-0.9,2.1h-1.2l4.2-9.4h1.2l4.2,9.4h-1.2L417,78z M416.5,77l-2.2-5l-2.2,5H416.5z"
   fill="#3E4044" />
		<path
   id="path1284"
   d="M421.4,70.7h3.8c1.9,0,3.5,1.2,3.5,3c0,1.8-1.5,3-3.5,3h-2.7v3.4h-1.1V70.7z M425.1,75.7    c1.5,0,2.6-0.8,2.6-2c0-1.3-1-2-2.6-2h-2.6v4L425.1,75.7L425.1,75.7z"
   fill="#3E4044" />
		<path
   id="path1286"
   d="M431.1,70.7h3.8c1.9,0,3.5,1.2,3.5,3c0,1.8-1.5,3-3.5,3h-2.7v3.4h-1.1V70.7z M434.7,75.7    c1.5,0,2.6-0.8,2.6-2c0-1.3-1-2-2.6-2h-2.6v4L434.7,75.7L434.7,75.7z"
   fill="#3E4044" />
	</g>
	<path
   id="path1290"
   d="M443.4,55c1.2,0,2.3,1,2.3,2.3v38.1c0,1.2-1,2.3-2.3,2.3h-38.1c-1.2,0-2.3-1-2.3-2.3V57.2   c0-1.2,1-2.3,2.3-2.3L443.4,55 M443.4,53.8h-38.1c-1.9,0-3.5,1.5-3.5,3.5v38.1c0,1.9,1.5,3.5,3.5,3.5h38.1c1.9,0,3.5-1.5,3.5-3.5   V57.2C446.9,55.3,445.3,53.8,443.4,53.8L443.4,53.8z"
   fill="#3E4044" />
</g>
<line
   id="line1294"
   y2="137.9"
   x2="424.4"
   y1="101"
   x1="424.4"
   stroke-dasharray="4"
   stroke-miterlimit="10"
   stroke-width="2"
   stroke="#3E4044"
   fill="none" />
<circle
   id="circle1296"
   r="12.5"
   cy="54.9"
   cx="446.9"
   fill="#686B70" />
<g
   id="g1314">
	<path
   id="path1298"
   d="M453.5,59.6h-0.4c-0.1,0-0.2,0.1-0.2,0.2s0.1,0.2,0.2,0.2h0.4c0.5,0,0.8,0.4,0.8,0.8v0.4   c0,0.4-0.4,0.8-0.8,0.8h-0.2c-0.1,0-0.3,0-0.4-0.2c-0.2-0.2-0.3-0.5-0.3-1V48.7c0-0.6-0.5-1.1-1.1-1.1h-8.6c-0.1,0-0.2,0-0.3,0   h-0.4c-0.7,0-1.3,0.5-1.3,1.2v0.4c0,0.5,0.4,1,0.9,1.1v10.9c0,0.6,0.5,1.2,1.1,1.2h9.6v0c0,0,0,0,0.1,0h0.7c0.1,0,0.2,0,0.3,0   c0.7,0,1.2-0.5,1.2-1.2v-0.4C454.7,60.1,454.1,59.6,453.5,59.6z M441.2,49.1v-0.4c0-0.4,0.4-0.8,0.9-0.8h8.4   c-0.2,0.2-0.3,0.5-0.3,0.8v0.4c0,0.3,0.1,0.6,0.3,0.8h-8.4C441.6,49.9,441.2,49.6,441.2,49.1z M442.1,61.2V50.3h9.3   c0.1,0,0.2-0.1,0.2-0.2s-0.1-0.2-0.2-0.2c-0.5,0-0.9-0.4-0.9-0.8v-0.4c0-0.4,0.4-0.8,0.8-0.8c0,0,0,0,0.1,0s0,0,0,0   c0.4,0,0.6,0.4,0.6,0.7v12.2c0,0.5,0.1,0.9,0.3,1.1h-9.6C442.5,61.9,442.1,61.6,442.1,61.2z"
   fill="#FFFFFF" />
	<g
   id="g1312">
		<rect
   id="rect1300"
   height="0.4"
   width="6.4"
   fill="#FFFFFF"
   y="51.9"
   x="444" />
		<rect
   id="rect1302"
   height="0.4"
   width="6.4"
   fill="#FFFFFF"
   y="53.5"
   x="444" />
		<rect
   id="rect1304"
   height="0.4"
   width="6.4"
   fill="#FFFFFF"
   y="55.1"
   x="444" />
		<rect
   id="rect1306"
   height="0.4"
   width="6.4"
   fill="#FFFFFF"
   y="56.7"
   x="444" />
		<rect
   id="rect1308"
   height="0.4"
   width="6.4"
   fill="#FFFFFF"
   y="58.3"
   x="444" />
		<rect
   id="rect1310"
   height="0.4"
   width="6.4"
   fill="#FFFFFF"
   y="60"
   x="444" />
	</g>
</g>
<circle
   id="circle1316"
   r="27"
   cy="190.3"
   cx="230.2"
   fill="#FFFFFF" />
<text
   style="-inkscape-font-specification:Metropolis;font-family:Metropolis;font-weight:normal;font-style:normal;font-stretch:normal;font-variant:normal;"
   font-size="12px"
   font-family="'Metropolis-Regular'"
   fill="#020202"
   transform="matrix(1 0 0 1 215.7217 203.5398)"
   id="text186_2_">AWS</text>
<text
   style="-inkscape-font-specification:Metropolis;font-family:Metropolis;font-weight:normal;font-style:normal;font-stretch:normal;font-variant:normal;"
   font-size="12px"
   font-family="'Metropolis-Regular'"
   fill="#020202"
   transform="matrix(1 0 0 1 291.6121 234.3891)"
   id="text186_6_">Public Cloud</text>
<text
   style="-inkscape-font-specification:Metropolis;font-family:Metropolis;font-weight:normal;font-style:normal;font-stretch:normal;font-variant:normal;"
   font-size="14px"
   font-family="'Metropolis-Regular'"
   fill="#020202"
   transform="matrix(1 0 0 1 188.9073 11.8084)"
   id="text186_7_">Consistent Policy</text>
<circle
   id="circle1321"
   r="27"
   cy="190.3"
   cx="327.7"
   fill="#FFFFFF" />
<text
   style="-inkscape-font-specification:Metropolis;font-family:Metropolis;font-weight:normal;font-style:normal;font-stretch:normal;font-variant:normal;"
   font-size="12px"
   font-family="'Metropolis-Regular'"
   fill="#020202"
   transform="matrix(1 0 0 1 310.8777 203.5398)"
   id="text186_4_">Azure</text>
<circle
   id="circle1324"
   r="27"
   cy="190.3"
   cx="425.1"
   fill="#FFFFFF" />
<text
   style="-inkscape-font-specification:Metropolis;font-family:Metropolis;font-weight:normal;font-style:normal;font-stretch:normal;font-variant:normal;"
   font-size="12px"
   font-family="'Metropolis-Regular'"
   fill="#020202"
   transform="matrix(1 0 0 1 408.6197 203.5392)"
   id="text186_5_">Other</text>
<g
   id="Clouds__x2B__Infrastructure_Expanded_AQ">
	<path
   id="path1327"
   d="M429.4,170.2c0,0,0.1,0,0.1,0c3.4,0.1,6.1,2.9,6.5,6.7l0.1,0.8l0.8,0.1c2.3,0.2,4.1,2.6,4,5.4   c-0.1,2.9-2.1,5.2-4.4,5.2c0,0-0.1,0-0.1,0c-0.1,0-0.3,0-0.6,0c-1.7,0-6.6,0-11.5,0c-4.8,0-9.8,0-11.5,0c-0.3,0-0.5,0-0.6,0   c-2.4-0.1-4.5-2.3-4.5-4.6c0-2.3,2-4.1,4.2-4.1c0,0,0.1,0,0.1,0c0.4,0,0.7,0.1,1,0.1l1,0.3l0.2-1c0.6-2.5,2.8-4.4,5.4-4.4   c0,0,0.1,0,0.1,0c0.8,0,1.5,0.2,2.2,0.5l0.9,0.4l0.4-0.9C424.4,172,426.8,170.2,429.4,170.2 M429.4,169.3c-3.1,0-5.8,2.1-7,5.1   c-0.8-0.4-1.7-0.6-2.6-0.6c0,0-0.1,0-0.1,0c-3.1,0-5.7,2.2-6.3,5.2c-0.4-0.1-0.8-0.2-1.3-0.2c0,0-0.1,0-0.1,0c-2.8,0-5,2.2-5.1,5   c-0.1,2.8,2.5,5.5,5.3,5.5c0.1,0,0.3,0,0.6,0c3.4,0,19.6-0.1,23-0.1c0.3,0,0.5,0,0.6,0c0,0,0.1,0,0.1,0c2.9,0,5.3-2.7,5.3-6.1   c0.1-3.3-2.1-6.1-4.9-6.3c-0.4-4.1-3.5-7.4-7.4-7.5C429.6,169.3,429.5,169.3,429.4,169.3L429.4,169.3z"
   fill="#3E4044" />
</g>
<g
   id="Clouds__x2B__Infrastructure_Expanded_AQ_1_">
	<path
   id="path1330"
   d="M332.7,170.2c0,0,0.1,0,0.1,0c3.4,0.1,6.1,2.9,6.5,6.7l0.1,0.8l0.8,0.1c2.3,0.2,4.1,2.6,4,5.4   c-0.1,2.9-2.1,5.2-4.4,5.2c0,0-0.1,0-0.1,0c-0.1,0-0.3,0-0.6,0c-1.7,0-6.6,0-11.5,0c-4.8,0-9.8,0-11.5,0c-0.3,0-0.5,0-0.6,0   c-2.4-0.1-4.5-2.3-4.5-4.6c0-2.3,2-4.1,4.2-4.1c0,0,0.1,0,0.1,0c0.4,0,0.7,0.1,1,0.1l1,0.3l0.2-1c0.6-2.5,2.8-4.4,5.4-4.4   c0,0,0.1,0,0.1,0c0.8,0,1.5,0.2,2.2,0.5l0.9,0.4l0.4-0.9C327.6,172,330,170.2,332.7,170.2 M332.7,169.3c-3.1,0-5.8,2.1-7,5.1   c-0.8-0.4-1.7-0.6-2.6-0.6c0,0-0.1,0-0.1,0c-3.1,0-5.7,2.2-6.3,5.2c-0.4-0.1-0.8-0.2-1.3-0.2c0,0-0.1,0-0.1,0c-2.8,0-5,2.2-5.1,5   c-0.1,2.8,2.5,5.5,5.3,5.5c0.1,0,0.3,0,0.6,0c3.4,0,19.6-0.1,23-0.1c0.3,0,0.5,0,0.6,0c0,0,0.1,0,0.1,0c2.9,0,5.3-2.7,5.3-6.1   c0.1-3.3-2.1-6.1-4.9-6.3c-0.4-4.1-3.5-7.4-7.4-7.5C332.8,169.3,332.8,169.3,332.7,169.3L332.7,169.3z"
   fill="#218FCF" />
</g>
<g
   id="Clouds__x2B__Infrastructure_Expanded_AQ_2_">
	<path
   id="path1333"
   d="M235.3,170.2c0,0,0.1,0,0.1,0c3.4,0.1,6.1,2.9,6.5,6.7l0.1,0.8l0.8,0.1c2.3,0.2,4.1,2.6,4,5.4   c-0.1,2.9-2.1,5.2-4.4,5.2c0,0-0.1,0-0.1,0c-0.1,0-0.3,0-0.6,0c-1.7,0-6.6,0-11.5,0c-4.8,0-9.8,0-11.5,0c-0.3,0-0.5,0-0.6,0   c-2.4-0.1-4.5-2.3-4.5-4.6c0-2.3,2-4.1,4.2-4.1c0,0,0.1,0,0.1,0c0.4,0,0.7,0.1,1,0.1l1,0.3l0.2-1c0.6-2.5,2.8-4.4,5.4-4.4   c0,0,0.1,0,0.1,0c0.8,0,1.5,0.2,2.2,0.5l0.9,0.4l0.4-0.9C230.2,172,232.6,170.2,235.3,170.2 M235.3,169.3c-3.1,0-5.8,2.1-7,5.1   c-0.8-0.4-1.7-0.6-2.6-0.6c0,0-0.1,0-0.1,0c-3.1,0-5.7,2.2-6.3,5.2c-0.4-0.1-0.8-0.2-1.3-0.2c0,0-0.1,0-0.1,0c-2.8,0-5,2.2-5.1,5   c-0.1,2.8,2.5,5.5,5.3,5.5c0.1,0,0.3,0,0.6,0c3.4,0,19.6-0.1,23-0.1c0.3,0,0.5,0,0.6,0c0,0,0.1,0,0.1,0c2.9,0,5.3-2.7,5.3-6.1   c0.1-3.3-2.1-6.1-4.9-6.3c-0.4-4.1-3.5-7.4-7.4-7.5C235.4,169.3,235.3,169.3,235.3,169.3L235.3,169.3z"
   fill="#F89820" />
</g>
<line
   id="line1336"
   y2="6.4"
   x2="182.4"
   y1="6.4"
   x1="0"
   stroke-miterlimit="10"
   stroke-width="2"
   stroke="#3E4044"
   fill="none" />
<line
   id="line1338"
   y2="6.4"
   x2="491.5"
   y1="6.4"
   x1="309.1"
   stroke-miterlimit="10"
   stroke-width="2"
   stroke="#3E4044"
   fill="none" />
</svg>
