<?xml version="1.0" encoding="UTF-8" standalone="no"?>
<svg
   xmlns:dc="http://purl.org/dc/elements/1.1/"
   xmlns:cc="http://creativecommons.org/ns#"
   xmlns:rdf="http://www.w3.org/1999/02/22-rdf-syntax-ns#"
   xmlns:svg="http://www.w3.org/2000/svg"
   xmlns="http://www.w3.org/2000/svg"
   xmlns:sodipodi="http://sodipodi.sourceforge.net/DTD/sodipodi-0.dtd"
   xmlns:inkscape="http://www.inkscape.org/namespaces/inkscape"
   inkscape:version="1.0 (4035a4f, 2020-05-01)"
   sodipodi:docname="slide_03.svg"
   xml:space="preserve"
   enable-background="new 0 0 635.3 210.3"
   viewBox="0 0 635.3 210.3"
   y="0px"
   x="0px"
   id="Layer_1"
   version="1.1"><metadata
   id="metadata1078"><rdf:RDF><cc:Work
       rdf:about=""><dc:format>image/svg+xml</dc:format><dc:type
         rdf:resource="http://purl.org/dc/dcmitype/StillImage" /></cc:Work></rdf:RDF></metadata><defs
   id="defs1076" /><sodipodi:namedview
   inkscape:current-layer="Layer_1"
   inkscape:window-maximized="0"
   inkscape:window-y="203"
   inkscape:window-x="0"
   inkscape:cy="105.15"
   inkscape:cx="317.64999"
   inkscape:zoom="1.7251692"
   showgrid="false"
   id="namedview1074"
   inkscape:window-height="480"
   inkscape:window-width="689"
   inkscape:pageshadow="2"
   inkscape:pageopacity="0"
   guidetolerance="10"
   gridtolerance="10"
   objecttolerance="10"
   borderopacity="1"
   bordercolor="#666666"
   pagecolor="#ffffff" />
<rect
   id="rect904"
   height="210.3"
   width="635.3"
   fill="#FFFFFF" />
<g
   id="g918">
	<g
   id="g912">
		<path
   id="path906"
   d="M18.6,91.9h1.2l6.3,8.3v-8.3h1.2v10.2h-1.2l-6.3-8.3v8.3h-1.2V91.9z"
   fill="#1295D3" />
		<path
   id="path908"
   d="M30.3,100.7l0.7-0.9c0.9,0.9,1.9,1.5,3.3,1.5c1.6,0,2.4-0.9,2.4-1.8c0-1.1-1-1.5-2.8-1.9    c-2-0.5-3.3-1.1-3.3-2.9c0-1.6,1.4-2.9,3.4-2.9c1.5,0,2.7,0.6,3.6,1.4l-0.7,0.9c-0.9-0.8-1.8-1.3-2.9-1.3c-1.3,0-2.2,0.8-2.2,1.8    c0,1.1,1,1.4,2.8,1.8c1.9,0.5,3.3,1.2,3.3,3c0,1.6-1.2,2.9-3.6,2.9C32.6,102.3,31.3,101.7,30.3,100.7z"
   fill="#1295D3" />
		<path
   id="path910"
   d="M45.4,97l3.9,5.1h-1.4L44.7,98l-3.2,4.2h-1.4l3.9-5.1L40.1,92h1.4l3.2,4.2l3.2-4.2h1.4L45.4,97z"
   fill="#1295D3" />
	</g>
	<path
   id="path914"
   d="M58.6,105.8"
   stroke-miterlimit="10"
   stroke-width="4"
   stroke="#020202"
   fill="#1295D3" />
	<path
   id="path916"
   d="M34,122c-0.9,0-1.8-0.1-2.7-0.2l0.2-2c0.8,0.1,1.6,0.2,2.5,0.2V122z M34.5,122l-0.1-2   c0.8,0,1.6-0.1,2.5-0.2l0.3,2C36.3,121.9,35.4,122,34.5,122z M28.7,121.4c-0.9-0.2-1.7-0.5-2.6-0.7l0.7-1.9   c0.8,0.3,1.6,0.5,2.4,0.7L28.7,121.4z M39.8,121.3l-0.5-2c0.8-0.2,1.6-0.4,2.4-0.7l0.7,1.9C41.6,120.8,40.7,121.1,39.8,121.3z    M23.7,119.7c-0.8-0.4-1.6-0.8-2.4-1.3l1.1-1.7c0.7,0.4,1.4,0.8,2.1,1.2L23.7,119.7z M44.8,119.5l-0.9-1.8c0.7-0.4,1.4-0.8,2.1-1.2   l1.1,1.7C46.4,118.6,45.6,119.1,44.8,119.5z M19.1,116.9c-0.7-0.6-1.4-1.1-2-1.7l1.4-1.5c0.6,0.6,1.2,1.1,1.8,1.6L19.1,116.9z    M49.3,116.6l-1.3-1.6c0.6-0.5,1.2-1.1,1.8-1.6l1.4,1.4C50.7,115.5,50,116.1,49.3,116.6z M15.3,113.2c-0.6-0.7-1.1-1.4-1.6-2.1   l1.7-1.1c0.5,0.7,0.9,1.3,1.4,1.9L15.3,113.2z M53.1,112.8l-1.6-1.2c0.5-0.6,1-1.3,1.4-2l1.7,1.1C54.1,111.4,53.6,112.1,53.1,112.8   z M12.4,108.8c-0.4-0.8-0.8-1.6-1.1-2.5l1.9-0.7c0.3,0.8,0.6,1.5,1,2.3L12.4,108.8z M55.9,108.3l-1.8-0.9c0.4-0.7,0.7-1.5,0.9-2.3   l1.9,0.7C56.6,106.7,56.3,107.5,55.9,108.3z M10.5,103.8c-0.2-0.9-0.4-1.7-0.5-2.6l2-0.3c0.1,0.8,0.3,1.6,0.5,2.4L10.5,103.8z    M57.7,103.3l-2-0.5c0.2-0.8,0.3-1.6,0.4-2.4l2,0.3C58,101.5,57.9,102.4,57.7,103.3z M9.7,98.5c0-0.3,0-0.5,0-0.8   c0-0.6,0-1.2,0.1-1.9l2,0.2c-0.1,0.6-0.1,1.1-0.1,1.7c0,0.3,0,0.5,0,0.7L9.7,98.5z M58.3,98h-2v-0.3c0-0.7-0.1-1.5-0.1-2.2l2-0.2   c0.1,0.8,0.1,1.6,0.1,2.4V98z M12.1,93.6l-2-0.4c0.2-0.9,0.4-1.7,0.6-2.6l1.9,0.6C12.5,92,12.3,92.8,12.1,93.6z M55.8,93.1   c-0.2-0.8-0.4-1.6-0.6-2.4l1.9-0.7c0.3,0.8,0.5,1.7,0.7,2.6L55.8,93.1z M13.6,88.9l-1.9-0.8c0.4-0.8,0.8-1.6,1.2-2.4l1.8,1   C14.3,87.4,13.9,88.2,13.6,88.9z M54.3,88.5c-0.4-0.7-0.7-1.5-1.1-2.1l1.7-1.1c0.5,0.8,0.9,1.5,1.2,2.4L54.3,88.5z M16,84.7   l-1.6-1.2c0.5-0.7,1.1-1.4,1.7-2l1.5,1.4C17,83.4,16.5,84,16,84.7z M51.8,84.3c-0.5-0.7-1-1.3-1.6-1.8l1.5-1.4   c0.6,0.7,1.2,1.3,1.7,2L51.8,84.3z M19.3,81.1l-1.4-1.5c0.7-0.6,1.4-1.1,2.1-1.6l1.2,1.7C20.5,80,19.9,80.5,19.3,81.1z M48.4,80.8   c-0.6-0.5-1.3-1-1.9-1.5l1.1-1.7c0.7,0.5,1.4,1,2.1,1.6L48.4,80.8z M23.2,78.3l-1-1.8c0.8-0.4,1.6-0.8,2.4-1.2l0.8,1.9   C24.7,77.5,24,77.9,23.2,78.3z M44.4,78c-0.7-0.4-1.5-0.7-2.2-1l0.8-1.9c0.8,0.3,1.6,0.7,2.4,1.1L44.4,78z M27.7,76.4l-0.6-1.9   c0.9-0.3,1.7-0.5,2.6-0.6l0.4,2C29.3,76,28.5,76.1,27.7,76.4z M39.8,76.2c-0.8-0.2-1.6-0.4-2.4-0.5l0.3-2c0.9,0.2,1.7,0.3,2.6,0.6   L39.8,76.2z M32.6,75.5l-0.2-2c0.5-0.1,1.1-0.1,1.6-0.1c0.4,0,0.7,0,1.1,0l-0.1,2c-0.3,0-0.7-0.1-1,0   C33.5,75.4,33.1,75.5,32.6,75.5z"
   fill="#1295D3" />
</g>
<g
   id="g930">
	<g
   id="g926">
		<path
   id="path920"
   d="M107.4,37.2h-5.3l-0.9,2.1h-1.2l4.2-9.4h1.2l4.2,9.4h-1.2L107.4,37.2z M106.9,36.2l-2.2-5l-2.2,5H106.9z"
   fill="#19BFD3" />
		<path
   id="path922"
   d="M111.8,29.9h3.8c1.9,0,3.5,1.2,3.5,3c0,1.8-1.5,3-3.5,3h-2.7v3.4h-1.1V29.9z M115.5,35    c1.5,0,2.6-0.8,2.6-2c0-1.3-1-2-2.6-2h-2.6v4L115.5,35L115.5,35z"
   fill="#19BFD3" />
		<path
   id="path924"
   d="M121.5,29.9h3.8c1.9,0,3.5,1.2,3.5,3c0,1.8-1.5,3-3.5,3h-2.7v3.4h-1.1V29.9z M125.1,35    c1.5,0,2.6-0.8,2.6-2c0-1.3-1-2-2.6-2h-2.6v4L125.1,35L125.1,35z"
   fill="#19BFD3" />
	</g>
	<path
   id="path928"
   d="M133.8,14.2c1.2,0,2.3,1,2.3,2.3v38.1c0,1.2-1,2.3-2.3,2.3H95.7c-1.2,0-2.3-1-2.3-2.3V16.4   c0-1.2,1-2.3,2.3-2.3L133.8,14.2 M133.8,13H95.7c-1.9,0-3.5,1.5-3.5,3.5v38.1c0,1.9,1.5,3.5,3.5,3.5h38.1c1.9,0,3.5-1.5,3.5-3.5   V16.4C137.3,14.5,135.7,13,133.8,13L133.8,13z"
   fill="#19BFD3" />
</g>
<g
   id="g942">
	<g
   id="g938">
		<path
   id="path932"
   d="M220.2,37.2h-5.3l-0.9,2.1h-1.2l4.2-9.4h1.2l4.2,9.4h-1.2L220.2,37.2z M219.7,36.2l-2.2-5l-2.2,5H219.7z"
   fill="#218FCF" />
		<path
   id="path934"
   d="M224.6,29.9h3.8c1.9,0,3.5,1.2,3.5,3c0,1.8-1.5,3-3.5,3h-2.7v3.4h-1.1V29.9z M228.3,35    c1.5,0,2.6-0.8,2.6-2c0-1.3-1-2-2.6-2h-2.6v4L228.3,35L228.3,35z"
   fill="#218FCF" />
		<path
   id="path936"
   d="M234.3,29.9h3.8c1.9,0,3.5,1.2,3.5,3c0,1.8-1.5,3-3.5,3h-2.7v3.4h-1.1V29.9z M237.9,35    c1.5,0,2.6-0.8,2.6-2c0-1.3-1-2-2.6-2h-2.6v4L237.9,35L237.9,35z"
   fill="#218FCF" />
	</g>
	<path
   id="path940"
   d="M246.6,14.2c1.2,0,2.3,1,2.3,2.3v38.1c0,1.2-1,2.3-2.3,2.3h-38.1c-1.2,0-2.3-1-2.3-2.3V16.4   c0-1.2,1-2.3,2.3-2.3L246.6,14.2 M246.6,13h-38.1c-1.9,0-3.5,1.5-3.5,3.5v38.1c0,1.9,1.5,3.5,3.5,3.5h38.1c1.9,0,3.5-1.5,3.5-3.5   V16.4C250.1,14.5,248.5,13,246.6,13L246.6,13z"
   fill="#218FCF" />
</g>
<g
   id="g975">
	<g
   id="g972">
		<path
   id="path944"
   d="M239,142c9.5,0,17.3,7.8,17.3,17.3s-7.8,17.3-17.3,17.3c-9.5,0-17.3-7.8-17.3-17.3S229.5,142,239,142     M239,141.1c-10.1,0-18.2,8.2-18.2,18.2s8.2,18.2,18.2,18.2c10.1,0,18.2-8.2,18.2-18.2S249,141.1,239,141.1L239,141.1z"
   fill="#1295D3" />
		<circle
   id="circle946"
   r="2.9"
   cy="159.5"
   cx="251.3"
   fill="#1295D3" />
		<circle
   id="circle948"
   r="2.9"
   cy="159.5"
   cx="226.8"
   fill="#1295D3" />
		<circle
   id="circle950"
   r="2.9"
   cy="147.1"
   cx="239.1"
   fill="#1295D3" />
		<circle
   id="circle952"
   r="2.9"
   cy="171.5"
   cx="239.1"
   fill="#1295D3" />
		<circle
   id="circle954"
   r="2.9"
   cy="159.5"
   cx="239.1"
   fill="#1295D3" />
		
			<rect
   id="rect956"
   height="1"
   width="8.6"
   fill="#1295D3"
   transform="matrix(0.7071 -0.7071 0.7071 0.7071 -39.9451 209.1133)"
   y="152.3"
   x="228.2" />
		
			<rect
   id="rect958"
   height="8.6"
   width="1"
   fill="#1295D3"
   transform="matrix(0.7071 -0.7071 0.7071 0.7071 -49.257 213.0015)"
   y="161.7"
   x="232" />
		
			<rect
   id="rect960"
   height="8.6"
   width="1"
   fill="#1295D3"
   transform="matrix(0.7071 -0.7071 0.7071 0.7071 -35.9696 218.7497)"
   y="148.5"
   x="245.6" />
		
			<rect
   id="rect962"
   height="1"
   width="8.6"
   fill="#1295D3"
   transform="matrix(0.7071 -0.7071 0.7071 0.7071 -45.2749 222.5771)"
   y="165.5"
   x="241.7" />
		<rect
   id="rect964"
   height="1"
   width="3.9"
   fill="#1295D3"
   y="159.2"
   x="230.9" />
		<rect
   id="rect966"
   height="1"
   width="3.9"
   fill="#1295D3"
   y="159.2"
   x="243.5" />
		<path
   id="path968"
   d="M246.9,159.6"
   stroke-miterlimit="10"
   stroke-width="2.5"
   stroke="#020202"
   fill="#1295D3" />
		<path
   id="path970"
   d="M243.8,159.6"
   stroke-miterlimit="10"
   stroke-width="2.5"
   stroke="#020202"
   fill="#1295D3" />
	</g>
	
		<text
   style="-inkscape-font-specification:Metropolis;font-family:Metropolis;font-weight:normal;font-style:normal;font-stretch:normal;font-variant:normal;"
   font-size="12px"
   font-family="'Metropolis-Regular'"
   fill="#020202"
   transform="matrix(1 0 0 1 205.5814 193.6106)"
   id="text186_2_">Networking</text>
</g>
<text
   style="line-height:0;-inkscape-font-specification:Metropolis;font-family:Metropolis;font-weight:normal;font-style:normal;font-stretch:normal;font-variant:normal;"
   font-size="12px"
   font-family="Metropolis-Regular"
   fill="#020202"
   transform="translate(321.4082,100.5742)"
   id="text186_7_">Complete Layer 2 to Layer 7 Networking and Security</text>
<g
   id="g1005">
	<g
   id="g1002">
		<path
   id="path978"
   d="M388.5,176.3h-21.7l-10.4-10.9v-10.1l10-11.1h22.1C388.5,144.2,388.5,176.3,388.5,176.3z M367.1,175.5    h20.5v-30.4h-20.8l-9.6,10.6v9.4L367.1,175.5z"
   fill="#1295D3" />
		<circle
   id="circle980"
   r="2.5"
   cy="150.9"
   cx="371.7"
   fill="#1295D3" />
		<circle
   id="circle982"
   r="2.5"
   cy="160.8"
   cx="371.7"
   fill="#1295D3" />
		<circle
   id="circle984"
   r="2.5"
   cy="160.8"
   cx="361.8"
   fill="#1295D3" />
		<circle
   id="circle986"
   r="2.5"
   cy="170.7"
   cx="371.7"
   fill="#1295D3" />
		
			<rect
   id="rect988"
   height="0.8"
   width="5.5"
   fill="#1295D3"
   transform="matrix(0.7071 -0.7071 0.7071 0.7071 -2.797 305.2873)"
   y="155.6"
   x="364.4" />
		
			<rect
   id="rect990"
   height="5.5"
   width="0.8"
   fill="#1295D3"
   transform="matrix(0.7071 -0.7071 0.7071 0.7071 -9.8907 308.2006)"
   y="163.3"
   x="366.7" />
		<rect
   id="rect992"
   height="0.8"
   width="3"
   fill="#1295D3"
   y="160.4"
   x="365.7" />
		<g
   id="g1000">
			<polygon
   id="polygon994"
   points="381.7,153.1 385.7,150.9 381.7,148.6 381.7,150 375.5,150 375.5,151.7 381.7,151.7    "
   fill="#1295D3" />
			<polygon
   id="polygon996"
   points="381.7,160 375.5,160 375.5,161.7 381.7,161.7 381.7,163.1 385.7,160.8 381.7,158.6    "
   fill="#1295D3" />
			<polygon
   id="polygon998"
   points="381.7,169.9 375.5,169.9 375.5,171.6 381.7,171.6 381.7,173 385.7,170.7 381.7,168.5    "
   fill="#1295D3" />
		</g>
	</g>
	
		<text
   style="-inkscape-font-specification:Metropolis;font-family:Metropolis;font-weight:normal;font-style:normal;font-stretch:normal;font-variant:normal;"
   font-size="12px"
   font-family="'Metropolis-Regular'"
   fill="#020202"
   transform="matrix(1 0 0 1 328.3925 193.6106)"
   id="text186_4_">Load Balancing</text>
</g>
<g
   id="g1020">
	<g
   id="g1017">
		<path
   id="path1007"
   d="M495.4,159.5"
   fill="#1295D3" />
		<path
   id="path1009"
   d="M487.9,164.9c-0.2,0-0.4-0.2-0.4-0.4c0-4.4,3.6-7.9,7.9-7.9c0.2,0,0.4,0.2,0.4,0.4s-0.2,0.4-0.4,0.4    c-4,0-7.1,3.2-7.1,7.1C488.3,164.8,488.1,164.9,487.9,164.9z"
   fill="#1295D3" />
		<g
   id="g1015">
			<path
   id="path1011"
   d="M501,156.2v-5.8c0-2.9-2.3-5.2-5.1-5.2H495     c-2.8,0-5.1,2.3-5.1,5.2v5.8c-2.8,1.8-4.7,5-4.7,8.7c0,5.7,4.6,10.3,10.3,10.3c5.7,0,10.3-4.6,10.3-10.3     C505.8,161.2,503.9,158,501,156.2z M490.7,150.4c0-2.5,1.9-4.5,4.3-4.5h0.9c2.4,0,4.3,2,4.3,4.5v5.3c-1.4-0.7-3-1.2-4.7-1.2     s-3.3,0.4-4.7,1.2V150.4z M495.5,174.3c-5.2,0-9.5-4.3-9.5-9.5s4.3-9.5,9.5-9.5c5.2,0,9.5,4.3,9.5,9.5S500.7,174.3,495.5,174.3z"
   fill="#1295D3"
   clip-rule="evenodd"
   fill-rule="evenodd" />
			<path
   id="path1013"
   d="M495.5,162.1c-0.9,0-1.7,0.8-1.7,1.7c0,0.6,0.3,1.2,0.9,1.5v1.7     c0,0.3,0.2,0.4,0.4,0.4h0.8c0.3,0,0.4-0.2,0.4-0.4v-1.7c0.5-0.3,0.9-0.8,0.9-1.5C497.2,162.9,496.4,162.1,495.5,162.1z"
   fill="#1295D3"
   clip-rule="evenodd"
   fill-rule="evenodd" />
		</g>
	</g>
	
		<text
   style="-inkscape-font-specification:Metropolis;font-family:Metropolis;font-weight:normal;font-style:normal;font-stretch:normal;font-variant:normal;"
   font-size="12px"
   font-family="'Metropolis-Regular'"
   fill="#020202"
   transform="matrix(1 0 0 1 472.444 193.6106)"
   id="text186_5_">Security</text>
</g>
<g
   id="g1029">
	<g
   id="g1026">
		<path
   id="path1022"
   d="M583.9,141.5v28.6h21.2v-1h-20.2v-12h5.8l1.6-5.6l2.3,16.1l2.9-12.8l2.1,7.7l3.5-13.3l1.6,7.8h6.8v3h1    v-18.6H583.9z M605.5,156.1l-2.3-11.3l-3.6,13.9l-2.2-7.9l-2.7,11.4l-2.2-15.5l-2.7,9.5h-5v-13.6h26.6v13.6H605.5z"
   fill="#1295D3" />
		<path
   id="path1024"
   d="M616.4,163.6c0-0.1,0-0.2,0-0.2c0-1.2-2.6-1.8-5-1.8c-2.4,0-5,0.5-5,1.8c0,1.2,2.6,1.8,5,1.8    c1.6,0,3.2-0.2,4.1-0.7v2.4c0,0,0,0.1,0,0.2c0,0.2-1,0.8-4.1,0.8c-2.7,0-4.1-0.7-4.2-1l0-1.2c0-0.2-0.2-0.4-0.4-0.4l0,0    c-0.2,0-0.4,0.2-0.4,0.4v1.1c0,1.2,2.6,1.8,5,1.8c1,0,3-0.1,4.1-0.6v2.1c0,0,0,0.1,0,0.2c0,0.2-1,0.8-4.1,0.8    c-2.7,0-4.1-0.7-4.2-1l0-1.2c0-0.2-0.2-0.4-0.4-0.4l0,0c-0.2,0-0.4,0.2-0.4,0.4l0,1.2c0,1.2,2.6,1.8,5,1.8c1,0,3-0.1,4.1-0.6v2.1    c0,0,0,0.1,0,0.2c0,0.2-1,0.8-4.1,0.8c-2.7,0-4.1-0.7-4.2-1l0-1.2c0-0.2-0.2-0.4-0.4-0.4l0,0c-0.2,0-0.4,0.2-0.4,0.4l0,1.2    c0,1.2,2.6,1.8,5,1.8c1.4,0,4.4-0.1,4.9-1.3h0.1L616.4,163.6L616.4,163.6z M611.5,164.3c-2.7,0-4.1-0.7-4.2-1c0-0.3,1.5-1,4.2-1    c2.7,0,4.1,0.7,4.2,1C615.6,163.6,614.2,164.3,611.5,164.3z"
   fill="#1295D3" />
	</g>
	
		<text
   style="-inkscape-font-specification:Metropolis;font-family:Metropolis;font-weight:normal;font-style:normal;font-stretch:normal;font-variant:normal;"
   font-size="12px"
   font-family="'Metropolis-Regular'"
   fill="#020202"
   transform="matrix(1 0 0 1 574.5438 193.6106)"
   id="text186_6_">Analytics</text>
</g>
<g
   id="g1065">
	<g
   id="g1057">
		<path
   id="path1031"
   d="M109,143.8c-0.5-5.8-5.1-10.3-10.7-10.4c-0.1,0-0.2,0-0.3,0c-4.5,0-8.4,2.9-10.1,7.1    c-1.2-0.5-2.4-0.9-3.8-0.9c-0.1,0-0.2,0-0.2,0c-4.5,0-8.2,3-9.1,7.1c-0.6-0.2-1.2-0.2-1.8-0.3c-0.1,0-0.1,0-0.2,0    c-4,0-7.3,3.1-7.4,7c-0.1,2,0.9,3.8,2.2,5.2v-2.1c-0.6-1-1-2-0.9-3c0.1-3.1,2.8-5.7,6.1-5.7c0.1,0,0.1,0,0.2,0    c0.5,0,1,0.1,1.5,0.2l1.3,0.4l0.3-1.3c0.8-3.5,4.1-6.1,7.8-6.1c0.1,0,0.1,0,0.2,0c1.2,0.1,2.2,0.3,3.3,0.7l1.3,0.6l0.5-1.3    c1.5-3.8,5-6.3,8.9-6.3c0.1,0,0.2,0,0.2,0c4.8,0.1,8.8,4.1,9.4,9.2l0.1,1.1l1.1,0.1c3.4,0.3,5.9,3.6,5.8,7.5    c-0.1,1.9-0.7,3.5-1.8,4.8v1.9c1.8-1.5,3-3.9,3.1-6.7C116.1,148,113,144.2,109,143.8z"
   fill="#1295D3" />
		<g
   id="g1055">
			<path
   id="path1033"
   d="M111.6,176.5v-20H79.7v-1.4H69v1.4H69v20h-3.5v1.3h49.7v-1.3L111.6,176.5L111.6,176.5z M70.3,157.9h40     v3.9H72.5v1.3h37.8v13.4h-40V157.9z"
   fill="#1295D3" />
			<rect
   id="rect1035"
   height="1.3"
   width="4"
   fill="#1295D3"
   y="166.5"
   x="72.3" />
			<rect
   id="rect1037"
   height="1.3"
   width="4"
   fill="#1295D3"
   y="171.8"
   x="72.3" />
			<rect
   id="rect1039"
   height="1.3"
   width="4"
   fill="#1295D3"
   y="166.5"
   x="80.3" />
			<rect
   id="rect1041"
   height="1.3"
   width="4"
   fill="#1295D3"
   y="171.8"
   x="80.3" />
			<rect
   id="rect1043"
   height="1.3"
   width="4"
   fill="#1295D3"
   y="166.5"
   x="88.3" />
			<rect
   id="rect1045"
   height="1.3"
   width="4"
   fill="#1295D3"
   y="171.8"
   x="88.3" />
			<rect
   id="rect1047"
   height="1.3"
   width="4"
   fill="#1295D3"
   y="166.5"
   x="96.3" />
			<rect
   id="rect1049"
   height="1.3"
   width="4"
   fill="#1295D3"
   y="171.8"
   x="96.3" />
			<rect
   id="rect1051"
   height="1.3"
   width="4"
   fill="#1295D3"
   y="166.5"
   x="104.3" />
			<rect
   id="rect1053"
   height="1.3"
   width="4"
   fill="#1295D3"
   y="171.8"
   x="104.3" />
		</g>
	</g>
	
		<text
   style="-inkscape-font-specification:Metropolis;font-family:Metropolis;font-weight:normal;font-style:normal;font-stretch:normal;font-variant:normal;"
   font-size="12px"
   font-family="'Metropolis-Regular'"
   fill="#020202"
   transform="matrix(1 0 0 1 56.5434 193.6106)"
   id="text186_3_">Data Center</text>
	<text
   enable-background="new    "
   transform="matrix(1 0 0 1 109.4453 130.8548)"
   id="text186_1_"><tspan
     style="-inkscape-font-specification:Metropolis;font-family:Metropolis;font-weight:normal;font-style:normal;font-stretch:normal;font-variant:normal;"
     id="tspan1060"
     font-size="12px"
     font-family="'Metropolis-Regular'"
     fill="#020202"
     y="0"
     x="0">Private</tspan><tspan
     style="-inkscape-font-specification:Metropolis;font-family:Metropolis;font-weight:normal;font-style:normal;font-stretch:normal;font-variant:normal;"
     id="tspan1062"
     font-size="12px"
     font-family="'Metropolis-Regular'"
     fill="#020202"
     y="12"
     x="3.3">Cloud</tspan></text>
</g>
<line
   id="line1067"
   y2="97.2"
   x2="307.1"
   y1="97.2"
   x1="65.4"
   stroke-miterlimit="10"
   stroke-width="2"
   stroke="#218FCF"
   fill="none" />
<line
   id="line1069"
   y2="97.2"
   x2="115.5"
   y1="60.3"
   x1="115.5"
   stroke-dasharray="4"
   stroke-miterlimit="10"
   stroke-width="2"
   stroke="#19BFD3"
   fill="none" />
<line
   id="line1071"
   y2="97.2"
   x2="227.6"
   y1="60.3"
   x1="227.6"
   stroke-dasharray="4"
   stroke-miterlimit="10"
   stroke-width="2"
   stroke="#218FCF"
   fill="none" />
</svg>
