<?xml version="1.0" encoding="UTF-8" standalone="no"?>
<svg
   xmlns:dc="http://purl.org/dc/elements/1.1/"
   xmlns:cc="http://creativecommons.org/ns#"
   xmlns:rdf="http://www.w3.org/1999/02/22-rdf-syntax-ns#"
   xmlns:svg="http://www.w3.org/2000/svg"
   xmlns="http://www.w3.org/2000/svg"
   xmlns:sodipodi="http://sodipodi.sourceforge.net/DTD/sodipodi-0.dtd"
   xmlns:inkscape="http://www.inkscape.org/namespaces/inkscape"
   version="1.1"
   id="Layer_1"
   x="0px"
   y="0px"
   viewBox="0 0 455.1 200.5"
   enable-background="new 0 0 455.1 200.5"
   xml:space="preserve"
   sodipodi:docname="NSX Distributed IDs-IPs Overview.svg"
   inkscape:version="1.0 (4035a4fb49, 2020-05-01)"><metadata
   id="metadata1534"><rdf:RDF><cc:Work
       rdf:about=""><dc:format>image/svg+xml</dc:format><dc:type
         rdf:resource="http://purl.org/dc/dcmitype/StillImage" /></cc:Work></rdf:RDF></metadata><defs
   id="defs1532" /><sodipodi:namedview
   inkscape:document-rotation="0"
   pagecolor="#ffffff"
   bordercolor="#666666"
   borderopacity="1"
   objecttolerance="10"
   gridtolerance="10"
   guidetolerance="10"
   inkscape:pageopacity="0"
   inkscape:pageshadow="2"
   inkscape:window-width="1920"
   inkscape:window-height="1017"
   id="namedview1530"
   showgrid="false"
   inkscape:zoom="1.2041309"
   inkscape:cx="227.55"
   inkscape:cy="100.25"
   inkscape:window-x="1912"
   inkscape:window-y="-8"
   inkscape:window-maximized="1"
   inkscape:current-layer="g1527" />
<rect
   fill="#FFFFFF"
   width="455.1"
   height="200.5"
   id="rect1347" />
<g
   id="g1527">
	<rect
   x="33.4"
   y="71.1"
   fill="#686B70"
   width="329.1"
   height="13.8"
   id="rect1349" />
	<g
   id="g1371">
		<path
   d="M125.9,121v20h-90v-20H125.9 M128.4,118.5h-95v25h95V118.5L128.4,118.5z"
   id="path1351" />
		<path
   d="M80.7,128L80.7,128c1.5,0,2.7,1.1,3,2.5c0.3,1.6-0.8,3.2-2.5,3.5c-0.2,0-0.3,0-0.5,0c-1.5,0-2.7-1.1-3-2.5    c-0.3-1.6,0.8-3.2,2.5-3.5C80.3,128,80.5,128,80.7,128 M80.7,126c-0.3,0-0.6,0-0.8,0.1c-2.7,0.5-4.6,3-4.1,5.8    c0.4,2.4,2.5,4.2,4.9,4.2c0.3,0,0.6,0,0.8-0.1c2.7-0.5,4.6-3,4.1-5.8C85.2,127.7,83.1,126,80.7,126L80.7,126z"
   id="path1353" />
		<g
   id="g1361">
			<rect
   x="40.2"
   y="126"
   width="2.5"
   height="10"
   id="rect1355" />
			<rect
   x="45.2"
   y="126"
   width="2.5"
   height="10"
   id="rect1357" />
			<rect
   x="50.2"
   y="126"
   width="2.5"
   height="10"
   id="rect1359" />
		</g>
		<g
   id="g1369">
			<rect
   x="107.6"
   y="126"
   width="2.5"
   height="10"
   id="rect1363" />
			<rect
   x="112.6"
   y="126"
   width="2.5"
   height="10"
   id="rect1365" />
			<rect
   x="117.6"
   y="126"
   width="2.5"
   height="10"
   id="rect1367" />
		</g>
	</g>
	<g
   id="g1393">
		<path
   d="M360,121v20h-90v-20H360 M362.5,118.5h-95v25h95V118.5L362.5,118.5z"
   id="path1373" />
		<path
   d="M314.8,128L314.8,128c1.5,0,2.7,1.1,3,2.5c0.3,1.6-0.8,3.2-2.5,3.5c-0.2,0-0.3,0-0.5,0c-1.5,0-2.7-1.1-3-2.5    c-0.3-1.6,0.8-3.2,2.5-3.5C314.4,128,314.6,128,314.8,128 M314.8,126c-0.3,0-0.6,0-0.8,0.1c-2.7,0.5-4.6,3-4.1,5.8    c0.4,2.4,2.5,4.2,4.9,4.2c0.3,0,0.6,0,0.8-0.1c2.7-0.5,4.6-3,4.1-5.8C319.3,127.7,317.2,126,314.8,126L314.8,126z"
   id="path1375" />
		<g
   id="g1383">
			<rect
   x="274.3"
   y="126"
   width="2.5"
   height="10"
   id="rect1377" />
			<rect
   x="279.3"
   y="126"
   width="2.5"
   height="10"
   id="rect1379" />
			<rect
   x="284.3"
   y="126"
   width="2.5"
   height="10"
   id="rect1381" />
		</g>
		<g
   id="g1391">
			<rect
   x="341.7"
   y="126"
   width="2.5"
   height="10"
   id="rect1385" />
			<rect
   x="346.7"
   y="126"
   width="2.5"
   height="10"
   id="rect1387" />
			<rect
   x="351.7"
   y="126"
   width="2.5"
   height="10"
   id="rect1389" />
		</g>
	</g>
	<g
   id="g1439">
		<g
   id="g1415">
			<g
   id="g1403">
				<polygon
   fill="#1295D3"
   points="145.9,37.6 118,37.6 118,4.9 150.6,4.9 150.6,37.3 149.7,37.3 149.7,5.8 118.8,5.8 118.8,36.7       145.9,36.7     "
   id="polygon1395" />
				<g
   id="g1401">
					<path
   fill="#1295D3"
   d="M127.8,19.3h0.7L130,23l1.4-3.7h0.7l-1.9,4.4h-0.6L127.8,19.3z"
   id="path1397" />
					<path
   fill="#1295D3"
   d="M139.8,20.9v2.8h-0.7V21c0-0.7-0.4-1.2-1-1.2c-0.7,0-1.2,0.5-1.2,1.1v2.8h-0.7V21c0-0.7-0.4-1.2-1-1.2       c-0.7,0-1.2,0.5-1.2,1.1v2.8h-0.7v-4.4h0.7V20c0.2-0.4,0.7-0.8,1.3-0.8c0.7,0,1.2,0.4,1.4,0.9c0.2-0.6,0.8-0.9,1.4-0.9       C139.2,19.2,139.8,19.9,139.8,20.9z"
   id="path1399" />
				</g>
			</g>
			<g
   id="g1413">
				<rect
   x="104.4"
   y="29.1"
   fill="#FFFFFF"
   width="22.1"
   height="12"
   id="rect1405" />
				<g
   id="g1411">
					<path
   fill="#F89820"
   d="M116.1,40.3c0.1-0.1,0.1-0.3,0.2-0.4v-2.4h1.2c0.1-0.2,0.2-0.4,0.3-0.6h-3.8v-3.6h6.9v2.5l0.3,0.6       l0.3-0.7v-2.4h1.2l0.3-0.6h-5.2v-3.6h6.9v3.2l0.4,0.9c0,0.1,0.1,0.1,0.1,0.2h1.3v2.7c0.2,0.5,0.4,0.9,0.6,1.3v-0.4v-3.6v-0.6       v-4.2h-23.4v4.2v0.6v3.6v0.6v4.2h11.8C115.7,41.2,115.8,40.8,116.1,40.3z M125.3,29.1h1.2v3.6h-1.2V29.1z M115.7,37.5v3.6h-6.9       v-3.6H115.7z M106.3,36.9v-3.6h6.9v3.6H106.3z M110.2,29.1h6.9v3.6h-6.9V29.1z M104.4,29.1h5.2v3.6h-5.2V29.1z M104.4,33.3h1.3       v3.6h-1.3V33.3z M108.1,41.1h-3.7v-3.6h3.7V41.1z"
   id="path1407" />
					<path
   fill="#F89820"
   d="M127,39.4c-0.4-0.7-2-4.2-2.9-5.9c-0.1-0.1-0.2-0.2-0.3-0.2l0,0c-0.1,0-0.2,0.1-0.3,0.2l-2.4,5       c0,0.1-0.1,0.1-0.2,0l-1.2-2.5c-0.1-0.1-0.2-0.2-0.3-0.2l0,0c-0.1,0-0.2,0.1-0.3,0.2c-0.7,1.3-2,4.1-2.3,4.7       c-0.4,0.6-0.5,1.4-0.5,2.1c0,2,1.4,3.8,3.1,3.8h4.4c2.1,0,3.8-2.1,3.8-4.6C127.7,41.1,127.4,40.2,127,39.4z M124.3,45       c-0.1,0.2-0.3,0.2-0.4,0.1c-0.2-0.1-0.2-0.3-0.1-0.4c1.2-1.8,0.7-3.6,0-4.5c-0.5,2-1.1,3.2-2.4,3.2h0c-0.6,0-1.2-0.5-1.5-0.9       c-0.2,0.7-0.3,1.8,0.4,2.3c0.2,0.1,0.2,0.3,0.1,0.4c-0.1,0.1-0.2,0.2-0.3,0.2c-0.1,0-0.1,0-0.2-0.1c-1.3-0.8-1-2.6-0.5-3.5       c0.1-0.1,0.2-0.2,0.3-0.2c0.1,0,0.2,0.1,0.3,0.1c0.2,0.3,0.9,1.1,1.4,1.1c0.9,0,1.4-0.9,1.9-3.2v-0.1c0-0.1,0.1-0.2,0.2-0.3       c0.1-0.1,0.2,0,0.3,0C125,40.2,125.8,42.7,124.3,45z"
   id="path1409" />
				</g>
			</g>
		</g>
		<g
   id="g1437">
			<g
   id="g1425">
				<polygon
   fill="#1295D3"
   points="53.4,37.6 25.5,37.6 25.5,4.9 58.1,4.9 58.1,37.3 57.2,37.3 57.2,5.8 26.3,5.8 26.3,36.7       53.4,36.7     "
   id="polygon1417" />
				<g
   id="g1423">
					<path
   fill="#1295D3"
   d="M35.3,19.3H36l1.5,3.7l1.4-3.7h0.7l-1.9,4.4h-0.6L35.3,19.3z"
   id="path1419" />
					<path
   fill="#1295D3"
   d="M47.3,20.9v2.8h-0.7V21c0-0.7-0.4-1.2-1-1.2c-0.7,0-1.2,0.5-1.2,1.1v2.8h-0.7V21c0-0.7-0.4-1.2-1-1.2       c-0.7,0-1.2,0.5-1.2,1.1v2.8h-0.7v-4.4h0.7V20c0.2-0.4,0.7-0.8,1.3-0.8c0.7,0,1.2,0.4,1.4,0.9c0.2-0.6,0.8-0.9,1.4-0.9       C46.7,19.2,47.3,19.9,47.3,20.9z"
   id="path1421" />
				</g>
			</g>
			<g
   id="g1435">
				<rect
   x="11.9"
   y="29.1"
   fill="#FFFFFF"
   width="22.1"
   height="12"
   id="rect1427" />
				<g
   id="g1433">
					<path
   fill="#F89820"
   d="M23.6,40.3c0.1-0.1,0.1-0.3,0.2-0.4v-2.4h1.2c0.1-0.2,0.2-0.4,0.3-0.6h-3.8v-3.6h6.9v2.5l0.3,0.6       l0.3-0.7v-2.4h1.2l0.3-0.6h-5.2v-3.6h6.9v3.2l0.4,0.9c0,0.1,0.1,0.1,0.1,0.2H34v2.7c0.2,0.5,0.4,0.9,0.6,1.3v-0.4v-3.6v-0.6       v-4.2H11.2v4.2v0.6v3.6v0.6v4.2H23C23.2,41.2,23.3,40.8,23.6,40.3z M32.8,29.1H34v3.6h-1.2V29.1z M23.2,37.5v3.6h-6.9v-3.6       H23.2z M13.8,36.9v-3.6h6.9v3.6H13.8z M17.7,29.1h6.9v3.6h-6.9V29.1z M11.9,29.1h5.2v3.6h-5.2V29.1z M11.9,33.3h1.3v3.6h-1.3       V33.3z M15.6,41.1h-3.7v-3.6h3.7V41.1z"
   id="path1429" />
					<path
   fill="#F89820"
   d="M34.5,39.4c-0.4-0.7-2-4.2-2.9-5.9c-0.1-0.1-0.2-0.2-0.3-0.2l0,0c-0.1,0-0.2,0.1-0.3,0.2l-2.4,5       c0,0.1-0.1,0.1-0.2,0l-1.2-2.5c-0.1-0.1-0.2-0.2-0.3-0.2l0,0c-0.1,0-0.2,0.1-0.3,0.2c-0.7,1.3-2,4.1-2.3,4.7       c-0.4,0.6-0.5,1.4-0.5,2.1c0,2,1.4,3.8,3.1,3.8h4.4c2.1,0,3.8-2.1,3.8-4.6C35.2,41.1,34.9,40.2,34.5,39.4z M31.8,45       c-0.1,0.2-0.3,0.2-0.4,0.1c-0.2-0.1-0.2-0.3-0.1-0.4c1.2-1.8,0.7-3.6,0-4.5c-0.5,2-1.1,3.2-2.4,3.2h0c-0.6,0-1.2-0.5-1.5-0.9       c-0.2,0.7-0.3,1.8,0.4,2.3c0.2,0.1,0.2,0.3,0.1,0.4c-0.1,0.1-0.2,0.2-0.3,0.2c-0.1,0-0.1,0-0.2-0.1c-1.3-0.8-1-2.6-0.5-3.5       c0.1-0.1,0.2-0.2,0.3-0.2c0.1,0,0.2,0.1,0.3,0.1c0.2,0.3,0.9,1.1,1.4,1.1c0.9,0,1.4-0.9,1.9-3.2v-0.1c0-0.1,0.1-0.2,0.2-0.3       c0.1-0.1,0.2,0,0.3,0C32.5,40.2,33.3,42.7,31.8,45z"
   id="path1431" />
				</g>
			</g>
		</g>
	</g>
	<g
   id="g1485">
		<g
   id="g1461">
			<g
   id="g1449">
				<polygon
   fill="#1295D3"
   points="380,37.6 352,37.6 352,4.9 384.7,4.9 384.7,37.3 383.8,37.3 383.8,5.8 352.9,5.8 352.9,36.7       380,36.7     "
   id="polygon1441" />
				<g
   id="g1447">
					<path
   fill="#1295D3"
   d="M361.8,19.3h0.7L364,23l1.4-3.7h0.7l-1.9,4.4h-0.6L361.8,19.3z"
   id="path1443" />
					<path
   fill="#1295D3"
   d="M373.9,20.9v2.8h-0.7V21c0-0.7-0.4-1.2-1-1.2c-0.7,0-1.2,0.5-1.2,1.1v2.8h-0.7V21c0-0.7-0.4-1.2-1-1.2       c-0.7,0-1.2,0.5-1.2,1.1v2.8h-0.7v-4.4h0.7V20c0.2-0.4,0.7-0.8,1.3-0.8c0.7,0,1.2,0.4,1.4,0.9c0.2-0.6,0.8-0.9,1.4-0.9       C373.3,19.2,373.9,19.9,373.9,20.9z"
   id="path1445" />
				</g>
			</g>
			<g
   id="g1459">
				<rect
   x="338.4"
   y="29.1"
   fill="#FFFFFF"
   width="22.1"
   height="12"
   id="rect1451" />
				<g
   id="g1457">
					<path
   fill="#F89820"
   d="M350.1,40.3c0.1-0.1,0.1-0.3,0.2-0.4v-2.4h1.2c0.1-0.2,0.2-0.4,0.3-0.6h-3.8v-3.6h6.9v2.5l0.3,0.6       l0.3-0.7v-2.4h1.2l0.3-0.6h-5.2v-3.6h6.9v3.2l0.4,0.9c0,0.1,0.1,0.1,0.1,0.2h1.3v2.7c0.2,0.5,0.4,0.9,0.6,1.3v-0.4v-3.6v-0.6       v-4.2h-23.4v4.2v0.6v3.6v0.6v4.2h11.8C349.7,41.2,349.9,40.8,350.1,40.3z M359.3,29.1h1.2v3.6h-1.2V29.1z M349.7,37.5v3.6h-6.9       v-3.6H349.7z M340.4,36.9v-3.6h6.9v3.6H340.4z M344.3,29.1h6.9v3.6h-6.9V29.1z M338.4,29.1h5.2v3.6h-5.2V29.1z M338.4,33.3h1.3       v3.6h-1.3V33.3z M342.2,41.1h-3.7v-3.6h3.7V41.1z"
   id="path1453" />
					<path
   fill="#F89820"
   d="M361.1,39.4c-0.4-0.7-2-4.2-2.9-5.9c-0.1-0.1-0.2-0.2-0.3-0.2l0,0c-0.1,0-0.2,0.1-0.3,0.2l-2.4,5       c0,0.1-0.1,0.1-0.2,0l-1.2-2.5c-0.1-0.1-0.2-0.2-0.3-0.2l0,0c-0.1,0-0.2,0.1-0.3,0.2c-0.7,1.3-2,4.1-2.3,4.7       c-0.4,0.6-0.5,1.4-0.5,2.1c0,2,1.4,3.8,3.1,3.8h4.4c2.1,0,3.8-2.1,3.8-4.6C361.7,41.1,361.5,40.2,361.1,39.4z M358.4,45       c-0.1,0.2-0.3,0.2-0.4,0.1c-0.2-0.1-0.2-0.3-0.1-0.4c1.2-1.8,0.7-3.6,0-4.5c-0.5,2-1.1,3.2-2.4,3.2h0c-0.6,0-1.2-0.5-1.5-0.9       c-0.2,0.7-0.3,1.8,0.4,2.3c0.2,0.1,0.2,0.3,0.1,0.4c-0.1,0.1-0.2,0.2-0.3,0.2c-0.1,0-0.1,0-0.2-0.1c-1.3-0.8-1-2.6-0.5-3.5       c0.1-0.1,0.2-0.2,0.3-0.2c0.1,0,0.2,0.1,0.3,0.1c0.2,0.3,0.9,1.1,1.4,1.1c0.9,0,1.4-0.9,1.9-3.2v-0.1c0-0.1,0.1-0.2,0.2-0.3       c0.1-0.1,0.2,0,0.3,0C359,40.2,359.9,42.7,358.4,45z"
   id="path1455" />
				</g>
			</g>
		</g>
		<g
   id="g1483">
			<g
   id="g1471">
				<polygon
   fill="#1295D3"
   points="287.5,37.6 259.5,37.6 259.5,4.9 292.2,4.9 292.2,37.3 291.3,37.3 291.3,5.8 260.4,5.8       260.4,36.7 287.5,36.7     "
   id="polygon1463" />
				<g
   id="g1469">
					<path
   fill="#1295D3"
   d="M269.3,19.3h0.7l1.5,3.7l1.4-3.7h0.7l-1.9,4.4h-0.6L269.3,19.3z"
   id="path1465" />
					<path
   fill="#1295D3"
   d="M281.4,20.9v2.8h-0.7V21c0-0.7-0.4-1.2-1-1.2c-0.7,0-1.2,0.5-1.2,1.1v2.8h-0.7V21c0-0.7-0.4-1.2-1-1.2       c-0.7,0-1.2,0.5-1.2,1.1v2.8H275v-4.4h0.7V20c0.2-0.4,0.7-0.8,1.3-0.8c0.7,0,1.2,0.4,1.4,0.9c0.2-0.6,0.8-0.9,1.4-0.9       C280.8,19.2,281.4,19.9,281.4,20.9z"
   id="path1467" />
				</g>
			</g>
			<g
   id="g1481">
				<rect
   x="245.9"
   y="29.1"
   fill="#FFFFFF"
   width="22.1"
   height="12"
   id="rect1473" />
				<g
   id="g1479">
					<path
   fill="#F89820"
   d="M257.6,40.3c0.1-0.1,0.1-0.3,0.2-0.4v-2.4h1.2c0.1-0.2,0.2-0.4,0.3-0.6h-3.8v-3.6h6.9v2.5l0.3,0.6       l0.3-0.7v-2.4h1.2l0.3-0.6h-5.2v-3.6h6.9v3.2l0.4,0.9c0,0.1,0.1,0.1,0.1,0.2h1.3v2.7c0.2,0.5,0.4,0.9,0.6,1.3v-0.4v-3.6v-0.6       v-4.2h-23.4v4.2v0.6v3.6v0.6v4.2h11.8C257.2,41.2,257.4,40.8,257.6,40.3z M266.8,29.1h1.2v3.6h-1.2V29.1z M257.2,37.5v3.6h-6.9       v-3.6H257.2z M247.9,36.9v-3.6h6.9v3.6H247.9z M251.8,29.1h6.9v3.6h-6.9V29.1z M245.9,29.1h5.2v3.6h-5.2V29.1z M245.9,33.3h1.3       v3.6h-1.3V33.3z M249.7,41.1h-3.7v-3.6h3.7V41.1z"
   id="path1475" />
					<path
   fill="#F89820"
   d="M268.6,39.4c-0.4-0.7-2-4.2-2.9-5.9c-0.1-0.1-0.2-0.2-0.3-0.2l0,0c-0.1,0-0.2,0.1-0.3,0.2l-2.4,5       c0,0.1-0.1,0.1-0.2,0l-1.2-2.5c-0.1-0.1-0.2-0.2-0.3-0.2l0,0c-0.1,0-0.2,0.1-0.3,0.2c-0.7,1.3-2,4.1-2.3,4.7       c-0.4,0.6-0.5,1.4-0.5,2.1c0,2,1.4,3.8,3.1,3.8h4.4c2.1,0,3.8-2.1,3.8-4.6C269.2,41.1,269,40.2,268.6,39.4z M265.9,45       c-0.1,0.2-0.3,0.2-0.4,0.1c-0.2-0.1-0.2-0.3-0.1-0.4c1.2-1.8,0.7-3.6,0-4.5c-0.5,2-1.1,3.2-2.4,3.2h0c-0.6,0-1.2-0.5-1.5-0.9       c-0.2,0.7-0.3,1.8,0.4,2.3c0.2,0.1,0.2,0.3,0.1,0.4c-0.1,0.1-0.2,0.2-0.3,0.2c-0.1,0-0.1,0-0.2-0.1c-1.3-0.8-1-2.6-0.5-3.5       c0.1-0.1,0.2-0.2,0.3-0.2c0.1,0,0.2,0.1,0.3,0.1c0.2,0.3,0.9,1.1,1.4,1.1c0.9,0,1.4-0.9,1.9-3.2v-0.1c0-0.1,0.1-0.2,0.2-0.3       c0.1-0.1,0.2,0,0.3,0C266.5,40.2,267.4,42.7,265.9,45z"
   id="path1477" />
				</g>
			</g>
		</g>
	</g>
	<circle
   fill="#006EA4"
   cx="195.4"
   cy="78.1"
   r="27.6"
   id="circle1487" />
	<line
   fill="none"
   stroke="#78BE43"
   stroke-miterlimit="10"
   x1="175.3"
   y1="59.2"
   x2="214.8"
   y2="59.2"
   id="line1489" />
	<line
   fill="none"
   stroke="#78BE43"
   stroke-miterlimit="10"
   x1="172.4"
   y1="93.5"
   x2="217.8"
   y2="93.5"
   id="line1491" />
	<line
   fill="none"
   stroke="#78BE43"
   stroke-miterlimit="10"
   x1="169.8"
   y1="67.8"
   x2="220.4"
   y2="67.8"
   id="line1493" />
	<line
   fill="none"
   stroke="#811427"
   stroke-miterlimit="10"
   x1="169.2"
   y1="84.9"
   x2="221.6"
   y2="84.9"
   id="line1495" />
	<line
   fill="none"
   stroke="#78BE43"
   stroke-miterlimit="10"
   x1="167.8"
   y1="76.4"
   x2="222.9"
   y2="76.4"
   id="line1497" />
	<line
   fill="none"
   stroke="#686B70"
   stroke-width="2"
   stroke-miterlimit="10"
   x1="195.4"
   y1="114.3"
   x2="195.4"
   y2="161.2"
   id="line1499" />
	<text
   id="text186_7_"
   transform="translate(117.0958,180.253)"
   enable-background="new    "
   style="line-height:0"><tspan
     x="0"
     y="0"
     fill="#020202"
     font-family="Metropolis-Regular"
     font-size="12px"
     id="tspan1501"
     style="font-style:normal;font-variant:normal;font-weight:normal;font-stretch:normal;font-family:Metropolis;-inkscape-font-specification:Metropolis">Lateral Threat Detection on</tspan><tspan
     x="45.700001"
     y="12"
     fill="#020202"
     font-family="Metropolis-Regular"
     font-size="12px"
     id="tspan1503"
     style="font-style:normal;font-variant:normal;font-weight:normal;font-stretch:normal;font-family:Metropolis;-inkscape-font-specification:Metropolis" /></text>
	
		<text
   id="text186_1_"
   transform="matrix(1 0 0 1 376.4469 81.4362)"
   fill="#218FCF"
   font-family="'Metropolis-Regular'"
   font-size="12px"
   style="-inkscape-font-specification:Metropolis;font-family:Metropolis;font-weight:normal;font-style:normal;font-stretch:normal;font-variant:normal;">Host Switch</text>
	<g
   id="g1515">
		<g
   id="g1513">
			<polyline
   fill="none"
   stroke="#000000"
   stroke-miterlimit="10"
   stroke-dasharray="4,4"
   points="134.3,45.9 134.3,78.1      162.4,78.1    "
   id="polyline1507" />
			<g
   id="g1511">
				<polygon
   points="131.8,46.6 134.3,42.3 136.8,46.6     "
   id="polygon1509" />
			</g>
		</g>
	</g>
	<g
   id="g1525">
		<g
   id="g1523">
			<polyline
   fill="none"
   stroke="#000000"
   stroke-miterlimit="10"
   stroke-dasharray="4,4"
   points="275.8,45.9 275.8,78.1      228.8,78.1    "
   id="polyline1517" />
			<g
   id="g1521">
				<polygon
   points="273.4,46.6 275.8,42.3 278.3,46.6     "
   id="polygon1519" />
			</g>
		</g>
	</g>
<text
   y="194.60245"
   x="150.07169"
   style="line-height:0"
   enable-background="new    "
   id="text186_7_-8"><tspan
     style="font-style:normal;font-variant:normal;font-weight:normal;font-stretch:normal;font-family:Metropolis;-inkscape-font-specification:Metropolis"
     id="tspan1501-4"
     font-size="12px"
     font-family="Metropolis-Regular"
     fill="#020202"
     y="194.60245"
     x="150.07169">East-West Traffic</tspan></text></g>
</svg>
