<?xml version="1.0" encoding="UTF-8" standalone="no"?>
<svg
   xmlns:dc="http://purl.org/dc/elements/1.1/"
   xmlns:cc="http://creativecommons.org/ns#"
   xmlns:rdf="http://www.w3.org/1999/02/22-rdf-syntax-ns#"
   xmlns:svg="http://www.w3.org/2000/svg"
   xmlns="http://www.w3.org/2000/svg"
   xmlns:sodipodi="http://sodipodi.sourceforge.net/DTD/sodipodi-0.dtd"
   xmlns:inkscape="http://www.inkscape.org/namespaces/inkscape"
   version="1.1"
   id="Layer_1"
   x="0px"
   y="0px"
   viewBox="0 0 900 396"
   enable-background="new 0 0 900 396"
   xml:space="preserve"
   sodipodi:docname="NSX-TGatewayFirewall.svg"
   inkscape:version="1.0 (4035a4fb49, 2020-05-01)"><metadata
   id="metadata314"><rdf:RDF><cc:Work
       rdf:about=""><dc:format>image/svg+xml</dc:format><dc:type
         rdf:resource="http://purl.org/dc/dcmitype/StillImage" /><dc:title></dc:title></cc:Work></rdf:RDF></metadata><defs
   id="defs312">
	

		
		
	</defs><sodipodi:namedview
   pagecolor="#ffffff"
   bordercolor="#666666"
   borderopacity="1"
   objecttolerance="10"
   gridtolerance="10"
   guidetolerance="10"
   inkscape:pageopacity="0"
   inkscape:pageshadow="2"
   inkscape:window-width="1920"
   inkscape:window-height="986"
   id="namedview310"
   showgrid="false"
   inkscape:zoom="1.1009789"
   inkscape:cx="427.24122"
   inkscape:cy="125.33739"
   inkscape:window-x="-11"
   inkscape:window-y="-11"
   inkscape:window-maximized="1"
   inkscape:current-layer="Layer_1"
   inkscape:document-rotation="0" />
<rect
   width="900"
   height="396"
   id="rect2"
   x="-1.6949153"
   y="0"
   style="fill:#ffffff" />
<polyline
   fill="none"
   stroke="#686B70"
   stroke-width="2"
   stroke-miterlimit="10"
   points="394.8,85 400.9,85 400.9,114.8 "
   id="polyline4" />
<polyline
   fill="none"
   stroke="#686B70"
   stroke-width="2"
   stroke-miterlimit="10"
   points="413,85 406.9,85 406.9,114.8 "
   id="polyline6" />

<line
   fill="none"
   stroke="#686B70"
   stroke-miterlimit="10"
   x1="489.1"
   y1="265.3"
   x2="502.5"
   y2="265.3"
   id="line10" />
<line
   fill="none"
   stroke="#686B70"
   stroke-miterlimit="10"
   x1="298.6"
   y1="265.1"
   x2="311.9"
   y2="265.1"
   id="line12" />


<line
   fill="none"
   stroke="#686B70"
   stroke-width="2"
   stroke-miterlimit="10"
   x1="429.3"
   y1="125.1"
   x2="444.1"
   y2="125.1"
   id="line18" />
<line
   fill="none"
   stroke="#218FCF"
   stroke-width="2"
   stroke-miterlimit="10"
   x1="375.6"
   y1="306"
   x2="375.6"
   y2="349.7"
   id="line20" />
<line
   fill="none"
   stroke="#78BE43"
   stroke-width="2"
   stroke-miterlimit="10"
   x1="566.9"
   y1="306"
   x2="566.9"
   y2="349.7"
   id="line22" />
<line
   fill="none"
   stroke="#78BE43"
   stroke-width="2"
   stroke-miterlimit="10"
   x1="633.1"
   y1="306"
   x2="633.1"
   y2="349.7"
   id="line24" />
<line
   fill="none"
   stroke="#218FCF"
   stroke-width="2"
   stroke-miterlimit="10"
   x1="206.9"
   y1="306"
   x2="206.9"
   y2="349.7"
   id="line26" />
<line
   fill="none"
   stroke="#218FCF"
   stroke-width="2"
   stroke-miterlimit="10"
   x1="121.6"
   y1="306"
   x2="121.6"
   y2="349.7"
   id="line28" />
<line
   fill="none"
   stroke="#218FCF"
   stroke-width="2"
   stroke-miterlimit="10"
   x1="41"
   y1="306"
   x2="41"
   y2="349.7"
   id="line30" />
<g
   id="Clouds__x2B__Infrastructure_Expanded_AQ">
	<path
   fill="#1295D3"
   d="M417.5,8.8c0.1,0,0.3,0,0.4,0c9.1,0.2,16.6,8,17.6,18.1l0.2,2.1l2.1,0.2c6.3,0.6,11.1,7,10.9,14.7   c-0.2,7.8-5.6,14.1-12,14.1c-0.1,0-0.2,0-0.3,0c-0.2,0-0.8,0-1.7,0c-4.6,0-18,0-31.1,0.1c-13.1,0-26.7,0.1-31.3,0.1   c-0.9,0-1.4,0-1.6,0c-6.4-0.2-12.3-6.2-12.1-12.4c0.1-6.2,5.3-11.2,11.4-11.2c0.1,0,0.2,0,0.3,0c1,0,1.9,0.2,2.8,0.4l2.6,0.7   l0.6-2.6c1.5-6.9,7.7-12,14.7-12c0.1,0,0.2,0,0.4,0c2.2,0.1,4.2,0.5,6.1,1.4l2.4,1.2l1-2.5C403.7,13.6,410.2,8.8,417.5,8.8    M417.5,6.3c-8.5,0-15.8,5.7-19,13.9c-2.2-1-4.5-1.6-7.1-1.7c-0.1,0-0.3,0-0.4,0c-8.4,0-15.4,5.9-17.1,14c-1.1-0.3-2.3-0.5-3.4-0.5   c-0.1,0-0.2,0-0.3,0c-7.5,0-13.7,6.1-13.9,13.7c-0.2,7.7,6.9,14.8,14.5,15c0.2,0,0.8,0,1.6,0c9.3,0,53.2-0.2,62.4-0.2   c0.9,0,1.4,0,1.6,0c0.1,0,0.2,0,0.3,0c7.8,0,14.3-7.4,14.5-16.5c0.2-9-5.6-16.5-13.2-17.2c-1-11.2-9.5-20.1-20-20.4   C417.8,6.3,417.6,6.3,417.5,6.3L417.5,6.3z"
   id="path32" />
</g>
<g
   id="g47">
	<path
   fill="#686B70"
   d="M375.6,67c9.9,0,18,8.1,18,18s-8.1,18-18,18s-18-8.1-18-18S365.6,67,375.6,67 M375.6,65.8   c-10.6,0-19.2,8.6-19.2,19.2s8.6,19.2,19.2,19.2s19.2-8.6,19.2-19.2S386.2,65.8,375.6,65.8L375.6,65.8z"
   id="path35" />
	<g
   id="g45">
		<polygon
   fill="#686B70"
   points="372.4,85 366.8,81.8 366.8,83.8 360.3,83.8 360.3,86.2 366.8,86.2 366.8,88.2   "
   id="polygon37" />
		<polygon
   fill="#686B70"
   points="390.8,83.8 384.3,83.8 384.3,81.8 378.7,85 384.3,88.2 384.3,86.2 390.8,86.2   "
   id="polygon39" />
		<polygon
   fill="#686B70"
   points="374.4,82.2 376.8,82.2 376.8,75.7 378.8,75.7 375.6,70.1 372.3,75.7 374.4,75.7   "
   id="polygon41" />
		<polygon
   fill="#686B70"
   points="376.8,87.8 374.4,87.8 374.4,94.4 372.3,94.4 375.6,100 378.8,94.4 376.8,94.4   "
   id="polygon43" />
	</g>
</g>
<g
   id="g61">
	<path
   fill="#218FCF"
   d="M291.2,264.4c9.9,0,18,8.1,18,18s-8.1,18-18,18c-9.9,0-18-8.1-18-18S281.3,264.4,291.2,264.4 M291.2,263.2   c-10.6,0-19.2,8.6-19.2,19.2s8.6,19.2,19.2,19.2c10.6,0,19.2-8.6,19.2-19.2S301.9,263.2,291.2,263.2L291.2,263.2z"
   id="path49" />
	<g
   id="g59">
		<polygon
   fill="#218FCF"
   points="288.1,282.4 282.5,279.1 282.5,281.2 276,281.2 276,283.6 282.5,283.6 282.5,285.6   "
   id="polygon51" />
		<polygon
   fill="#218FCF"
   points="306.5,281.2 300,281.2 300,279.1 294.4,282.4 300,285.6 300,283.6 306.5,283.6   "
   id="polygon53" />
		<polygon
   fill="#218FCF"
   points="290,279.6 292.4,279.6 292.4,273 294.5,273 291.2,267.5 288,273 290,273   "
   id="polygon55" />
		<polygon
   fill="#218FCF"
   points="292.4,285.2 290,285.2 290,291.7 288,291.7 291.2,297.3 294.5,291.7 292.4,291.7   "
   id="polygon57" />
	</g>
</g>
<g
   id="g75">
	<path
   fill="#686B70"
   d="M432,67c9.9,0,18,8.1,18,18s-8.1,18-18,18s-18-8.1-18-18S422.1,67,432,67 M432,65.8   c-10.6,0-19.2,8.6-19.2,19.2s8.6,19.2,19.2,19.2s19.2-8.6,19.2-19.2S442.6,65.8,432,65.8L432,65.8z"
   id="path63" />
	<g
   id="g73">
		<polygon
   fill="#686B70"
   points="428.9,85 423.3,81.8 423.3,83.8 416.7,83.8 416.7,86.2 423.3,86.2 423.3,88.2   "
   id="polygon65" />
		<polygon
   fill="#686B70"
   points="447.3,83.8 440.8,83.8 440.8,81.8 435.2,85 440.8,88.2 440.8,86.2 447.3,86.2   "
   id="polygon67" />
		<polygon
   fill="#686B70"
   points="430.8,82.2 433.2,82.2 433.2,75.7 435.2,75.7 432,70.1 428.8,75.7 430.8,75.7   "
   id="polygon69" />
		<polygon
   fill="#686B70"
   points="433.2,87.8 430.8,87.8 430.8,94.4 428.8,94.4 432,100 435.2,94.4 433.2,94.4   "
   id="polygon71" />
	</g>
</g>
<g
   id="g89">
	<path
   fill="#006EA4"
   d="M403.8,116.2c19.7,0,35.7,16,35.7,35.7s-16,35.7-35.7,35.7s-35.7-16-35.7-35.7S384.1,116.2,403.8,116.2    M403.8,113.8c-21,0-38.1,17-38.1,38.1s17,38.1,38.1,38.1c21,0,38.1-17,38.1-38.1S424.8,113.8,403.8,113.8L403.8,113.8z"
   id="path77" />
	<g
   id="g87">
		<polygon
   fill="#006EA4"
   points="397.5,151.9 386.5,145.4 386.5,149.5 373.5,149.5 373.5,154.3 386.5,154.3 386.5,158.3   "
   id="polygon79" />
		<polygon
   fill="#006EA4"
   points="434.1,149.5 421.1,149.5 421.1,145.4 410,151.9 421.1,158.3 421.1,154.3 434.1,154.3   "
   id="polygon81" />
		<polygon
   fill="#006EA4"
   points="401.4,146.3 406.2,146.3 406.2,133.3 410.2,133.3 403.8,122.3 397.4,133.3 401.4,133.3   "
   id="polygon83" />
		<polygon
   fill="#006EA4"
   points="406.2,157.4 401.4,157.4 401.4,170.4 397.4,170.4 403.8,181.5 410.2,170.4 406.2,170.4   "
   id="polygon85" />
	</g>
</g>
<line
   fill="none"
   stroke="#218FCF"
   stroke-width="2"
   stroke-miterlimit="10"
   x1="9.1"
   y1="349.7"
   x2="263.2"
   y2="349.7"
   id="line91" />
<line
   fill="none"
   stroke="#218FCF"
   stroke-width="2"
   stroke-miterlimit="10"
   x1="314.2"
   y1="349.7"
   x2="397.4"
   y2="349.7"
   id="line93" />
<g
   id="g99">
	<path
   fill="#218FCF"
   d="M64.6,306H17.3v-47.3h47.3V306z M19.3,304h43.3v-43.3H19.3V304z"
   id="path95" />
	<text
   transform="translate(26.0626,287.4241)"
   fill="#218fcf"
   font-family="Metropolis-SemiBold"
   font-size="18px"
   id="text97">VM</text>


</g>
<g
   id="g105">
	<path
   fill="#218FCF"
   d="M145.2,306H97.9v-47.3h47.3V306z M99.9,304h43.3v-43.3H99.9V304z"
   id="path101" />
	<text
   transform="translate(106.6659,287.4241)"
   fill="#218fcf"
   font-family="Metropolis-SemiBold"
   font-size="18px"
   id="text103">VM</text>


</g>
<g
   id="g111">
	<path
   fill="#218FCF"
   d="M230.6,306h-47.3v-47.3h47.3V306z M185.3,304h43.3v-43.3h-43.3V304z"
   id="path107" />
	<text
   transform="translate(192.0108,287.4241)"
   fill="#218fcf"
   font-family="Metropolis-SemiBold"
   font-size="18px"
   id="text109">VM</text>


</g>
<g
   id="g121">
	<rect
   x="25.8"
   y="315.2"
   fill="#811427"
   width="30.3"
   height="24.5"
   id="rect113" />
	<g
   id="g119">
		<path
   fill="#FFFFFF"
   d="M41.1,330.8c0.1-0.1,0.1-0.3,0.2-0.5v-2.5h1.2c0.1-0.2,0.2-0.5,0.3-0.7h-4.1v-3.8h7.4v2.7l0.3,0.6l0.4-0.7    v-2.6h1.2l0.3-0.7h-5.5v-3.9h7.4v3.4l0.4,0.9c0,0.1,0.1,0.1,0.1,0.2h1.4v2.9c0.2,0.5,0.5,0.9,0.7,1.4v-0.5v-3.9v-0.7v-4.5H27.9    v4.5v0.7v3.9v0.7v4.5h12.7C40.7,331.8,40.9,331.3,41.1,330.8z M51,318.8h1.3v3.9H51V318.8z M40.7,327.9v3.9h-7.4v-3.9H40.7z     M30.7,327.2v-3.9h7.4v3.9H30.7z M34.8,318.8h7.4v3.9h-7.4V318.8z M28.6,318.8h5.6v3.9h-5.6V318.8z M28.6,323.3H30v3.9h-1.4V323.3    z M32.6,331.7h-4v-3.8h4V331.7z"
   id="path115" />
		<path
   fill="#FFFFFF"
   d="M52.9,329.9c-0.4-0.8-2.2-4.5-3.1-6.3c-0.1-0.1-0.2-0.2-0.3-0.2l0,0c-0.1,0-0.2,0.1-0.3,0.2l-2.6,5.4    c0,0.1-0.1,0.1-0.2,0l-1.3-2.6c-0.1-0.1-0.2-0.2-0.3-0.2l0,0c-0.1,0-0.2,0.1-0.3,0.2c-0.7,1.4-2.1,4.4-2.5,5    c-0.4,0.7-0.6,1.5-0.5,2.2c0,2.2,1.5,4,3.3,4h4.7c2.2,0,4-2.2,4-5C53.6,331.7,53.3,330.7,52.9,329.9z M50,335.9    c-0.1,0.2-0.3,0.2-0.5,0.1c-0.2-0.1-0.2-0.3-0.1-0.5c1.3-2,0.7-3.9,0-4.8c-0.5,2.2-1.2,3.5-2.6,3.5h0c-0.6,0-1.3-0.6-1.6-1    c-0.2,0.8-0.4,1.9,0.5,2.4c0.2,0.1,0.2,0.3,0.1,0.5c-0.1,0.1-0.2,0.2-0.3,0.2c-0.1,0-0.1,0-0.2-0.1c-1.3-0.9-1-2.8-0.5-3.8    c0.1-0.1,0.2-0.2,0.3-0.2c0.1,0,0.2,0.1,0.3,0.1c0.2,0.3,0.9,1.1,1.5,1.2c0.9,0,1.5-0.9,2.1-3.5V330c0-0.1,0.1-0.2,0.2-0.3    c0.1-0.1,0.2,0,0.4,0C50.7,330.7,51.6,333.4,50,335.9z"
   id="path117" />
	</g>
</g>
<g
   id="g131">
	<rect
   x="106.4"
   y="315.2"
   fill="#811427"
   width="30.3"
   height="24.5"
   id="rect123" />
	<g
   id="g129">
		<path
   fill="#FFFFFF"
   d="M121.7,330.8c0.1-0.1,0.1-0.3,0.2-0.5v-2.5h1.2c0.1-0.2,0.2-0.5,0.3-0.7h-4.1v-3.8h7.4v2.7l0.3,0.6    l0.4-0.7v-2.6h1.2l0.3-0.7h-5.5v-3.9h7.4v3.4l0.4,0.9c0,0.1,0.1,0.1,0.1,0.2h1.4v2.9c0.2,0.5,0.5,0.9,0.7,1.4v-0.5v-3.9v-0.7v-4.5    h-25.1v4.5v0.7v3.9v0.7v4.5h12.7C121.3,331.8,121.5,331.3,121.7,330.8z M131.6,318.8h1.3v3.9h-1.3V318.8z M121.3,327.9v3.9h-7.4    v-3.9H121.3z M111.3,327.2v-3.9h7.4v3.9H111.3z M115.4,318.8h7.4v3.9h-7.4V318.8z M109.2,318.8h5.6v3.9h-5.6V318.8z M109.2,323.3    h1.4v3.9h-1.4V323.3z M113.2,331.7h-4v-3.8h4V331.7z"
   id="path125" />
		<path
   fill="#FFFFFF"
   d="M133.5,329.9c-0.4-0.8-2.2-4.5-3.1-6.3c-0.1-0.1-0.2-0.2-0.3-0.2l0,0c-0.1,0-0.2,0.1-0.3,0.2l-2.6,5.4    c0,0.1-0.1,0.1-0.2,0l-1.3-2.6c-0.1-0.1-0.2-0.2-0.3-0.2l0,0c-0.1,0-0.2,0.1-0.3,0.2c-0.7,1.4-2.1,4.4-2.5,5    c-0.4,0.7-0.6,1.5-0.5,2.2c0,2.2,1.5,4,3.3,4h4.7c2.2,0,4-2.2,4-5C134.2,331.7,133.9,330.7,133.5,329.9z M130.6,335.9    c-0.1,0.2-0.3,0.2-0.5,0.1c-0.2-0.1-0.2-0.3-0.1-0.5c1.3-2,0.7-3.9,0-4.8c-0.5,2.2-1.2,3.5-2.6,3.5h0c-0.6,0-1.3-0.6-1.6-1    c-0.2,0.8-0.4,1.9,0.5,2.4c0.2,0.1,0.2,0.3,0.1,0.5c-0.1,0.1-0.2,0.2-0.3,0.2c-0.1,0-0.1,0-0.2-0.1c-1.3-0.9-1-2.8-0.5-3.8    c0.1-0.1,0.2-0.2,0.3-0.2c0.1,0,0.2,0.1,0.3,0.1c0.2,0.3,0.9,1.1,1.5,1.2c0.9,0,1.5-0.9,2.1-3.5V330c0-0.1,0.1-0.2,0.2-0.3    s0.2,0,0.4,0C131.3,330.7,132.2,333.4,130.6,335.9z"
   id="path127" />
	</g>
</g>
<rect
   x="191.8"
   y="315.2"
   fill="#811427"
   width="30.3"
   height="24.5"
   id="rect133" />
<g
   id="g139">
	<path
   fill="#FFFFFF"
   d="M207.1,330.8c0.1-0.1,0.1-0.3,0.2-0.5v-2.5h1.2c0.1-0.2,0.2-0.5,0.3-0.7h-4.1v-3.8h7.4v2.7l0.3,0.6l0.4-0.7   v-2.6h1.2l0.3-0.7h-5.5v-3.9h7.4v3.4l0.4,0.9c0,0.1,0.1,0.1,0.1,0.2h1.4v2.9c0.2,0.5,0.5,0.9,0.7,1.4v-0.5v-3.9v-0.7v-4.5h-25.1   v4.5v0.7v3.9v0.7v4.5h12.7C206.6,331.8,206.8,331.3,207.1,330.8z M217,318.8h1.3v3.9H217V318.8z M206.6,327.9v3.9h-7.4v-3.9H206.6z    M196.6,327.2v-3.9h7.4v3.9H196.6z M200.8,318.8h7.4v3.9h-7.4V318.8z M194.5,318.8h5.6v3.9h-5.6V318.8z M194.5,323.3h1.4v3.9h-1.4   V323.3z M198.6,331.7h-4v-3.8h4V331.7z"
   id="path135" />
	<path
   fill="#FFFFFF"
   d="M218.8,329.9c-0.4-0.8-2.2-4.5-3.1-6.3c-0.1-0.1-0.2-0.2-0.3-0.2l0,0c-0.1,0-0.2,0.1-0.3,0.2l-2.6,5.4   c0,0.1-0.1,0.1-0.2,0l-1.3-2.6c-0.1-0.1-0.2-0.2-0.3-0.2l0,0c-0.1,0-0.2,0.1-0.3,0.2c-0.7,1.4-2.1,4.4-2.5,5   c-0.4,0.7-0.6,1.5-0.5,2.2c0,2.2,1.5,4,3.3,4h4.7c2.2,0,4-2.2,4-5C219.5,331.7,219.3,330.7,218.8,329.9z M215.9,335.9   c-0.1,0.2-0.3,0.2-0.5,0.1c-0.2-0.1-0.2-0.3-0.1-0.5c1.3-2,0.7-3.9,0-4.8c-0.5,2.2-1.2,3.5-2.6,3.5h0c-0.6,0-1.3-0.6-1.6-1   c-0.2,0.8-0.4,1.9,0.5,2.4c0.2,0.1,0.2,0.3,0.1,0.5c-0.1,0.1-0.2,0.2-0.3,0.2c-0.1,0-0.1,0-0.2-0.1c-1.3-0.9-1-2.8-0.5-3.8   c0.1-0.1,0.2-0.2,0.3-0.2c0.1,0,0.2,0.1,0.3,0.1c0.2,0.3,0.9,1.1,1.5,1.2c0.9,0,1.5-0.9,2.1-3.5V330c0-0.1,0.1-0.2,0.2-0.3   c0.1-0.1,0.2,0,0.4,0C216.6,330.7,217.5,333.4,215.9,335.9z"
   id="path137" />
</g>




<g
   id="g161">
	<path
   fill="#218FCF"
   d="M399.2,306h-47.3v-47.3h47.3V306z M353.9,304h43.3v-43.3h-43.3V304z"
   id="path157" />
	<text
   transform="translate(360.6628,287.4241)"
   fill="#218fcf"
   font-family="Metropolis-SemiBold"
   font-size="18px"
   id="text159">VM</text>


</g>
<g
   id="g171">
	<rect
   x="360.4"
   y="315.2"
   fill="#811427"
   width="30.3"
   height="24.5"
   id="rect163" />
	<g
   id="g169">
		<path
   fill="#FFFFFF"
   d="M375.7,330.8c0.1-0.1,0.1-0.3,0.2-0.5v-2.5h1.2c0.1-0.2,0.2-0.5,0.3-0.7h-4.1v-3.8h7.4v2.7l0.3,0.6    l0.4-0.7v-2.6h1.2l0.3-0.7h-5.5v-3.9h7.4v3.4l0.4,0.9c0,0.1,0.1,0.1,0.1,0.2h1.4v2.9c0.2,0.5,0.5,0.9,0.7,1.4v-0.5v-3.9v-0.7v-4.5    h-25.1v4.5v0.7v3.9v0.7v4.5h12.7C375.3,331.8,375.5,331.3,375.7,330.8z M385.6,318.8h1.3v3.9h-1.3V318.8z M375.3,327.9v3.9h-7.4    v-3.9H375.3z M365.3,327.2v-3.9h7.4v3.9H365.3z M369.4,318.8h7.4v3.9h-7.4V318.8z M363.2,318.8h5.6v3.9h-5.6V318.8z M363.2,323.3    h1.4v3.9h-1.4V323.3z M367.2,331.7h-4v-3.8h4V331.7z"
   id="path165" />
		<path
   fill="#FFFFFF"
   d="M387.5,329.9c-0.4-0.8-2.2-4.5-3.1-6.3c-0.1-0.1-0.2-0.2-0.3-0.2l0,0c-0.1,0-0.2,0.1-0.3,0.2l-2.6,5.4    c0,0.1-0.1,0.1-0.2,0l-1.3-2.6c-0.1-0.1-0.2-0.2-0.3-0.2l0,0c-0.1,0-0.2,0.1-0.3,0.2c-0.7,1.4-2.1,4.4-2.5,5    c-0.4,0.7-0.6,1.5-0.5,2.2c0,2.2,1.5,4,3.3,4h4.7c2.2,0,4-2.2,4-5C388.2,331.7,387.9,330.7,387.5,329.9z M384.6,335.9    c-0.1,0.2-0.3,0.2-0.5,0.1c-0.2-0.1-0.2-0.3-0.1-0.5c1.3-2,0.7-3.9,0-4.8c-0.5,2.2-1.2,3.5-2.6,3.5h0c-0.6,0-1.3-0.6-1.6-1    c-0.2,0.8-0.4,1.9,0.5,2.4c0.2,0.1,0.2,0.3,0.1,0.5c-0.1,0.1-0.2,0.2-0.3,0.2c-0.1,0-0.1,0-0.2-0.1c-1.3-0.9-1-2.8-0.5-3.8    c0.1-0.1,0.2-0.2,0.3-0.2c0.1,0,0.2,0.1,0.3,0.1c0.2,0.3,0.9,1.1,1.5,1.2c0.9,0,1.5-0.9,2.1-3.5V330c0-0.1,0.1-0.2,0.2-0.3    c0.1-0.1,0.2,0,0.4,0C385.3,330.7,386.2,333.4,384.6,335.9z"
   id="path167" />
	</g>
</g>
<g
   id="g185">
	<path
   fill="#78BE43"
   d="M509.8,264.4c9.9,0,18,8.1,18,18s-8.1,18-18,18s-18-8.1-18-18S499.8,264.4,509.8,264.4 M509.8,263.2   c-10.6,0-19.2,8.6-19.2,19.2s8.6,19.2,19.2,19.2c10.6,0,19.2-8.6,19.2-19.2S520.4,263.2,509.8,263.2L509.8,263.2z"
   id="path173" />
	<g
   id="g183">
		<polygon
   fill="#78BE43"
   points="506.6,282.4 501,279.1 501,281.2 494.5,281.2 494.5,283.6 501,283.6 501,285.6   "
   id="polygon175" />
		<polygon
   fill="#78BE43"
   points="525,281.2 518.5,281.2 518.5,279.1 512.9,282.4 518.5,285.6 518.5,283.6 525,283.6   "
   id="polygon177" />
		<polygon
   fill="#78BE43"
   points="508.6,279.6 511,279.6 511,273 513,273 509.8,267.5 506.5,273 508.6,273   "
   id="polygon179" />
		<polygon
   fill="#78BE43"
   points="511,285.2 508.6,285.2 508.6,291.7 506.5,291.7 509.8,297.3 513,291.7 511,291.7   "
   id="polygon181" />
	</g>
</g>
<line
   fill="none"
   stroke="#78BE43"
   stroke-width="2"
   stroke-miterlimit="10"
   x1="497.3"
   y1="349.7"
   x2="668.5"
   y2="349.7"
   id="line187" />








<g
   id="g225">
	<path
   fill="#78BE43"
   d="M656.8,306h-47.3v-47.3h47.3V306z M611.5,304h43.3v-43.3h-43.3V304z"
   id="path221" />
	<text
   transform="translate(618.2375,287.4241)"
   fill="#78be43"
   font-family="Metropolis-SemiBold"
   font-size="18px"
   id="text223">VM</text>


</g>
<g
   id="g235">
	<rect
   x="618"
   y="315.2"
   fill="#811427"
   width="30.3"
   height="24.5"
   id="rect227" />
	<g
   id="g233">
		<path
   fill="#FFFFFF"
   d="M633.3,330.8c0.1-0.1,0.1-0.3,0.2-0.5v-2.5h1.2c0.1-0.2,0.2-0.5,0.3-0.7H631v-3.8h7.4v2.7l0.3,0.6l0.4-0.7    v-2.6h1.2l0.3-0.7h-5.5v-3.9h7.4v3.4l0.4,0.9c0,0.1,0.1,0.1,0.1,0.2h1.4v2.9c0.2,0.5,0.5,0.9,0.7,1.4v-0.5v-3.9v-0.7v-4.5h-25.1    v4.5v0.7v3.9v0.7v4.5h12.7C632.9,331.8,633.1,331.3,633.3,330.8z M643.2,318.8h1.3v3.9h-1.3V318.8z M632.9,327.9v3.9h-7.4v-3.9    H632.9z M622.9,327.2v-3.9h7.4v3.9H622.9z M627,318.8h7.4v3.9H627V318.8z M620.8,318.8h5.6v3.9h-5.6V318.8z M620.8,323.3h1.4v3.9    h-1.4V323.3z M624.8,331.7h-4v-3.8h4V331.7z"
   id="path229" />
		<path
   fill="#FFFFFF"
   d="M645.1,329.9c-0.4-0.8-2.2-4.5-3.1-6.3c-0.1-0.1-0.2-0.2-0.3-0.2l0,0c-0.1,0-0.2,0.1-0.3,0.2l-2.6,5.4    c0,0.1-0.1,0.1-0.2,0l-1.3-2.6c-0.1-0.1-0.2-0.2-0.3-0.2l0,0c-0.1,0-0.2,0.1-0.3,0.2c-0.7,1.4-2.1,4.4-2.5,5    c-0.4,0.7-0.6,1.5-0.5,2.2c0,2.2,1.5,4,3.3,4h4.7c2.2,0,4-2.2,4-5C645.7,331.7,645.5,330.7,645.1,329.9z M642.1,335.9    c-0.1,0.2-0.3,0.2-0.5,0.1c-0.2-0.1-0.2-0.3-0.1-0.5c1.3-2,0.7-3.9,0-4.8c-0.5,2.2-1.2,3.5-2.6,3.5h0c-0.6,0-1.3-0.6-1.6-1    c-0.2,0.8-0.4,1.9,0.5,2.4c0.2,0.1,0.2,0.3,0.1,0.5c-0.1,0.1-0.2,0.2-0.3,0.2c-0.1,0-0.1,0-0.2-0.1c-1.3-0.9-1-2.8-0.5-3.8    c0.1-0.1,0.2-0.2,0.3-0.2c0.1,0,0.2,0.1,0.3,0.1c0.2,0.3,0.9,1.1,1.5,1.2c0.9,0,1.5-0.9,2.1-3.5V330c0-0.1,0.1-0.2,0.2-0.3    c0.1-0.1,0.2,0,0.4,0C642.9,330.7,643.8,333.4,642.1,335.9z"
   id="path231" />
	</g>
</g>
<g
   id="g241">
	<path
   fill="#78BE43"
   d="M590.6,306h-47.3v-47.3h47.3V306z M545.3,304h43.3v-43.3h-43.3V304z"
   id="path237" />
	<text
   transform="translate(552.042,287.4241)"
   fill="#78be43"
   font-family="Metropolis-SemiBold"
   font-size="18px"
   id="text239">VM</text>


</g>
<g
   id="g251">
	<rect
   x="551.8"
   y="315.2"
   fill="#811427"
   width="30.3"
   height="24.5"
   id="rect243" />
	<g
   id="g249">
		<path
   fill="#FFFFFF"
   d="M567.1,330.8c0.1-0.1,0.1-0.3,0.2-0.5v-2.5h1.2c0.1-0.2,0.2-0.5,0.3-0.7h-4.1v-3.8h7.4v2.7l0.3,0.6    l0.4-0.7v-2.6h1.2l0.3-0.7h-5.5v-3.9h7.4v3.4l0.4,0.9c0,0.1,0.1,0.1,0.1,0.2h1.4v2.9c0.2,0.5,0.5,0.9,0.7,1.4v-0.5v-3.9v-0.7v-4.5    h-25.1v4.5v0.7v3.9v0.7v4.5h12.7C566.7,331.8,566.9,331.3,567.1,330.8z M577,318.8h1.3v3.9H577V318.8z M566.7,327.9v3.9h-7.4v-3.9    H566.7z M556.7,327.2v-3.9h7.4v3.9H556.7z M560.8,318.8h7.4v3.9h-7.4V318.8z M554.6,318.8h5.6v3.9h-5.6V318.8z M554.6,323.3h1.4    v3.9h-1.4V323.3z M558.6,331.7h-4v-3.8h4V331.7z"
   id="path245" />
		<path
   fill="#FFFFFF"
   d="M578.9,329.9c-0.4-0.8-2.2-4.5-3.1-6.3c-0.1-0.1-0.2-0.2-0.3-0.2l0,0c-0.1,0-0.2,0.1-0.3,0.2l-2.6,5.4    c0,0.1-0.1,0.1-0.2,0l-1.3-2.6c-0.1-0.1-0.2-0.2-0.3-0.2l0,0c-0.1,0-0.2,0.1-0.3,0.2c-0.7,1.4-2.1,4.4-2.5,5    c-0.4,0.7-0.6,1.5-0.5,2.2c0,2.2,1.5,4,3.3,4h4.7c2.2,0,4-2.2,4-5C579.5,331.7,579.3,330.7,578.9,329.9z M575.9,335.9    c-0.1,0.2-0.3,0.2-0.5,0.1c-0.2-0.1-0.2-0.3-0.1-0.5c1.3-2,0.7-3.9,0-4.8c-0.5,2.2-1.2,3.5-2.6,3.5h0c-0.6,0-1.3-0.6-1.6-1    c-0.2,0.8-0.4,1.9,0.5,2.4c0.2,0.1,0.2,0.3,0.1,0.5c-0.1,0.1-0.2,0.2-0.3,0.2c-0.1,0-0.1,0-0.2-0.1c-1.3-0.9-1-2.8-0.5-3.8    c0.1-0.1,0.2-0.2,0.3-0.2c0.1,0,0.2,0.1,0.3,0.1c0.2,0.3,0.9,1.1,1.5,1.2c0.9,0,1.5-0.9,2.1-3.5V330c0-0.1,0.1-0.2,0.2-0.3    s0.2,0,0.4,0C576.7,330.7,577.6,333.4,575.9,335.9z"
   id="path247" />
	</g>
</g>
<polyline
   fill="none"
   stroke="#218FCF"
   stroke-width="2"
   stroke-miterlimit="10"
   points="272,282.4 250.8,282.4 250.8,349.7 "
   id="polyline253" />
<polyline
   fill="none"
   stroke="#218FCF"
   stroke-width="2"
   stroke-miterlimit="10"
   points="310.4,282.4 331.6,282.4 331.6,349.7 "
   id="polyline255" />
<line
   fill="none"
   stroke="#78BE43"
   stroke-width="2"
   stroke-miterlimit="10"
   x1="509.8"
   y1="301.6"
   x2="509.8"
   y2="349.7"
   id="line257" />
<text
   font-size="18px"
   id="text259"
   style="font-size:18px;font-family:Metropolis-SemiBold;fill:#010101"
   x="377.75662"
   y="208.79939">Tier-0</text>





<text
   font-size="18px"
   id="text263"
   style="font-size:18px;font-family:Metropolis-SemiBold;fill:#010101"
   x="517.2453"
   y="252.79999">Tier-1</text>





<text
   y="375.17419"
   x="707.80591"
   fill="#010101"
   font-family="Metropolis-SemiBold"
   font-size="18px"
   id="text267">Distributed Firewall</text>





<line
   fill="none"
   stroke="#811427"
   stroke-width="2"
   stroke-miterlimit="10"
   x1="32.6"
   y1="337.6"
   x2="32.6"
   y2="372.1"
   id="line283" />
<line
   fill="none"
   stroke="#811427"
   stroke-width="2"
   stroke-miterlimit="10"
   x1="113.9"
   y1="337.6"
   x2="113.9"
   y2="372.1"
   id="line285" />
<line
   fill="none"
   stroke="#811427"
   stroke-width="2"
   stroke-miterlimit="10"
   x1="200.1"
   y1="337.6"
   x2="200.1"
   y2="372.1"
   id="line287" />
<line
   fill="none"
   stroke="#811427"
   stroke-width="2"
   stroke-miterlimit="10"
   x1="367.9"
   y1="337.6"
   x2="367.9"
   y2="372.1"
   id="line289" />
<line
   fill="none"
   stroke="#811427"
   stroke-width="2"
   stroke-miterlimit="10"
   x1="558.6"
   y1="337.6"
   x2="558.6"
   y2="372.1"
   id="line291" />
<line
   fill="none"
   stroke="#811427"
   stroke-width="2"
   stroke-miterlimit="10"
   x1="626.3"
   y1="337.6"
   x2="626.3"
   y2="372.1"
   id="line293" />
<g
   transform="translate(0,112)"
   id="g299">
			<polygon
   fill="#811427"
   points="693.8,263.7 702.5,258.8 693.8,253.8 "
   id="polygon297" />
		</g>
<polyline
   fill="none"
   stroke="#006EA4"
   stroke-width="2"
   stroke-miterlimit="10"
   points="365.7,151.9 291.2,151.9 291.2,263.2 "
   id="polyline305" />
<polyline
   fill="none"
   stroke="#006EA4"
   stroke-width="2"
   stroke-miterlimit="10"
   points="441.5,151.9 509.8,151.9 509.8,263.2 "
   id="polyline307" />
<line
   style="stroke:#820024"
   id="line187-9"
   y2="371.45746"
   x2="695.10693"
   y1="371.45746"
   x1="22.806824"
   stroke-miterlimit="10"
   stroke-width="2.00007"
   stroke="#78be43"
   fill="none" /><text
   y="252.77823"
   x="234.7301"
   style="font-size:18px;font-family:Metropolis-SemiBold;fill:#010101"
   id="text263-9"
   font-size="18px">Tier-1</text><rect
   y="3.7340575e-07"
   x="-1.6949153"
   height="396.00003"
   width="906.77966"
   id="rect981"
   style="opacity:0.7;fill:#ffffff;fill-rule:evenodd;stroke-width:0.999996" /><g
   transform="translate(-4.3000061,-5.6999939)"
   id="g149">
	<rect
   x="316.29999"
   y="256.39999"
   fill="#ffffff"
   width="25.1"
   height="14.3"
   id="rect141" />
	<g
   id="g147">
		<path
   fill="#f89820"
   d="m 329.6,269.2 c 0.1,-0.1 0.1,-0.3 0.2,-0.5 v -2.5 h 1.2 c 0.1,-0.2 0.2,-0.5 0.3,-0.7 h -4.1 v -3.8 h 7.4 v 2.7 l 0.3,0.6 0.4,-0.7 v -2.6 h 1.2 l 0.3,-0.7 h -5.5 v -3.9 h 7.4 v 3.4 l 0.4,0.9 c 0,0.1 0.1,0.1 0.1,0.2 h 1.4 v 2.9 c 0.2,0.5 0.5,0.9 0.7,1.4 v -0.5 -3.9 -0.5 -4.5 h -25.1 v 4.5 0.7 3.9 0.7 4.5 H 329 c 0.1,-0.6 0.3,-1.2 0.6,-1.6 z m 9.8,-12.1 h 1.3 v 3.9 h -1.3 z m -10.3,9.1 v 3.9 h -7.4 v -3.9 z m -10,-0.7 v -3.9 h 7.4 v 3.9 z m 4.1,-8.4 h 7.4 v 3.9 h -7.4 z m -6.2,0 h 5.6 V 261 H 317 Z m 0,4.6 h 1.4 v 3.9 H 317 Z m 4,8.3 h -4 v -3.8 h 4 z"
   id="path143" />
		<path
   fill="#f89820"
   d="m 341.3,268.2 c -0.4,-0.8 -2.2,-4.5 -3.1,-6.3 -0.1,-0.1 -0.2,-0.2 -0.3,-0.2 v 0 c -0.1,0 -0.2,0.1 -0.3,0.2 l -2.6,5.4 c 0,0.1 -0.1,0.1 -0.2,0 l -1.3,-2.6 c -0.1,-0.1 -0.2,-0.2 -0.3,-0.2 v 0 c -0.1,0 -0.2,0.1 -0.3,0.2 -0.7,1.4 -2.1,4.4 -2.5,5 -0.4,0.7 -0.6,1.5 -0.5,2.2 0,2.2 1.5,4 3.3,4 h 4.7 c 2.2,0 4,-2.2 4,-5 0.1,-0.9 -0.2,-1.9 -0.6,-2.7 z m -2.9,6 c -0.1,0.2 -0.3,0.2 -0.5,0.1 -0.2,-0.1 -0.2,-0.3 -0.1,-0.5 1.3,-2 0.7,-3.9 0,-4.8 -0.5,2.2 -1.2,3.5 -2.6,3.5 v 0 c -0.6,0 -1.3,-0.6 -1.6,-1 -0.2,0.8 -0.4,1.9 0.5,2.4 0.2,0.1 0.2,0.3 0.1,0.5 -0.1,0.1 -0.2,0.2 -0.3,0.2 -0.1,0 -0.1,0 -0.2,-0.1 -1.3,-0.9 -1,-2.8 -0.5,-3.8 0.1,-0.1 0.2,-0.2 0.3,-0.2 0.1,0 0.2,0.1 0.3,0.1 0.2,0.3 0.9,1.1 1.5,1.2 0.9,0 1.5,-0.9 2.1,-3.5 v -0.1 c 0,-0.1 0.1,-0.2 0.2,-0.3 0.1,-0.1 0.2,0 0.4,0 1.1,1.1 2,3.8 0.4,6.3 z"
   id="path145" />
	</g>
</g><polyline
   fill="none"
   stroke="#811427"
   stroke-width="2"
   stroke-miterlimit="10"
   points="326.2,248.9 326.2,230.8 656.8,230.8   656.8,124.5 512.9,124.5 "
   id="polyline269"
   style="stroke:#f8981d" /><g
   id="g281"
   style="stroke:#f8981d;fill:#f8981d">
	<g
   id="g279"
   style="stroke:#f8981d;fill:#f8981d">
		<line
   fill="none"
   stroke="#811427"
   stroke-width="2"
   stroke-miterlimit="10"
   x1="656.8"
   y1="181.5"
   x2="695.3"
   y2="181.5"
   id="line273"
   style="stroke:#f8981d;fill:#f8981d" />
		<g
   id="g277"
   style="stroke:#f8981d;fill:#f8981d">
			<polygon
   fill="#811427"
   points="693.8,186.5 702.5,181.5 693.8,176.5    "
   id="polygon275"
   style="stroke:#f8981d;fill:#f8981d" />
		</g>
	</g>
</g><text
   transform="translate(707.8052,186.7009)"
   fill="#010101"
   font-family="Metropolis-SemiBold"
   font-size="18px"
   id="text265">Gateway Firewall</text><g
   id="g213">
	<rect
   x="452.3"
   y="106.3"
   fill="#FFFFFF"
   width="46.9"
   height="26.7"
   id="rect205" />
	<g
   id="g211">
		<path
   fill="#F89820"
   d="M477.1,130.1c0.1-0.2,0.3-0.5,0.4-0.9v-4.7h2.3c0.2-0.4,0.4-0.9,0.6-1.3h-7.7v-7.2h13.9v5.1l0.6,1.1    l0.7-1.3v-4.8h2.3l0.6-1.3h-10.3v-7.3h13.9v6.4l0.8,1.7c0.1,0.2,0.2,0.3,0.2,0.4h2.7v5.5c0.5,0.9,0.9,1.8,1.3,2.6v-0.9v-7.2v-1.3    v-8.5h-46.9v8.5v1.3v7.2v1.3v8.5H476C476.3,132,476.6,131,477.1,130.1z M495.6,107.6h2.4v7.2h-2.4V107.6z M476.3,124.5v7.2h-13.9    v-7.2H476.3z M457.6,123.3v-7.2h13.9v7.2H457.6z M465.3,107.6h13.9v7.2h-13.9V107.6z M453.6,107.6H464v7.2h-10.4V107.6z     M453.6,116.1h2.7v7.2h-2.7V116.1z M461.1,131.7h-7.5v-7.2h7.5V131.7z"
   id="path207" />
		<path
   fill="#F89820"
   d="M499.1,128.3c-0.7-1.5-4.1-8.4-5.8-11.8c-0.1-0.2-0.3-0.4-0.6-0.4l0,0c-0.3,0-0.5,0.2-0.6,0.4l-4.8,10    c-0.1,0.2-0.2,0.2-0.3,0l-2.5-4.9c-0.1-0.2-0.3-0.4-0.6-0.4l0,0c-0.3,0-0.5,0.2-0.6,0.4c-1.3,2.7-4,8.2-4.6,9.4    c-0.7,1.3-1.1,2.7-1,4.2c0,4.1,2.8,7.6,6.2,7.6h8.7c4.2,0,7.6-4.1,7.6-9.3C500.4,131.7,499.9,129.9,499.1,128.3z M493.6,139.6    c-0.2,0.3-0.6,0.4-0.9,0.2c-0.3-0.2-0.4-0.6-0.2-0.9c2.4-3.7,1.4-7.3-0.1-9c-1,4-2.2,6.5-4.8,6.5h-0.1c-1.2,0-2.4-1.1-3.1-1.8    c-0.5,1.5-0.7,3.5,0.9,4.5c0.3,0.2,0.4,0.6,0.2,0.9c-0.1,0.2-0.3,0.3-0.6,0.3c-0.1,0-0.3-0.1-0.4-0.1c-2.5-1.6-1.9-5.2-0.9-7.1    c0.1-0.2,0.3-0.3,0.5-0.4c0.2,0,0.5,0.1,0.6,0.3c0.4,0.6,1.7,2.1,2.8,2.2c1.7,0.1,2.8-1.7,3.8-6.5v-0.1c0-0.3,0.2-0.5,0.4-0.6    s0.5-0.1,0.7,0.1C495,129.9,496.7,134.9,493.6,139.6z"
   id="path209" />
	</g>
</g><line
   fill="none"
   stroke="#811427"
   stroke-width="2"
   stroke-miterlimit="10"
   x1="473.7"
   y1="230.8"
   x2="473.7"
   y2="248.9"
   id="line271"
   style="stroke:#f8981d" /><g
   transform="translate(-2,-8)"
   id="g197">
	<rect
   x="463.5"
   y="258.10001"
   fill="#ffffff"
   width="25.1"
   height="14.3"
   id="rect189" />
	<g
   id="g195">
		<path
   fill="#f89820"
   d="m 476.7,270.8 c 0.1,-0.1 0.1,-0.3 0.2,-0.5 v -2.5 h 1.2 c 0.1,-0.2 0.2,-0.5 0.3,-0.7 h -4.1 v -3.8 h 7.4 v 2.7 l 0.3,0.6 0.4,-0.7 v -2.6 h 1.2 l 0.3,-0.7 h -5.5 v -3.9 h 7.4 v 3.4 l 0.4,0.9 c 0,0.1 0.1,0.1 0.1,0.2 h 1.4 v 2.9 c 0.2,0.5 0.5,0.9 0.7,1.4 v -0.5 -3.9 -0.7 -4.5 h -25.1 v 4.5 0.7 3.9 0.7 4.5 H 476 c 0.3,-0.4 0.5,-0.9 0.7,-1.4 z m 9.9,-12 h 1.3 v 3.9 h -1.3 z m -10.3,9.1 v 3.9 h -7.4 v -3.9 z m -10,-0.7 v -3.9 h 7.4 v 3.9 z m 4.1,-8.4 h 7.4 v 3.9 h -7.4 z m -6.2,0 h 5.6 v 3.9 h -5.6 z m 0,4.5 h 1.4 v 3.9 h -1.4 z m 4,8.4 h -4 v -3.8 h 4 z"
   id="path191" />
		<path
   fill="#f89820"
   d="m 488.5,269.9 c -0.4,-0.8 -2.2,-4.5 -3.1,-6.3 -0.1,-0.1 -0.2,-0.2 -0.3,-0.2 v 0 c -0.1,0 -0.2,0.1 -0.3,0.2 l -2.6,5.4 c 0,0.1 -0.1,0.1 -0.2,0 l -1.3,-2.6 c -0.1,-0.1 -0.2,-0.2 -0.3,-0.2 v 0 c -0.1,0 -0.2,0.1 -0.3,0.2 -0.7,1.4 -2.1,4.4 -2.5,5 -0.4,0.7 -0.6,1.5 -0.5,2.2 0,2.2 1.5,4 3.3,4 h 4.7 c 2.2,0 4,-2.2 4,-5 0,-0.9 -0.2,-1.9 -0.6,-2.7 z m -3,6 c -0.1,0.2 -0.3,0.2 -0.5,0.1 -0.2,-0.1 -0.2,-0.3 -0.1,-0.5 1.3,-2 0.7,-3.9 0,-4.8 -0.5,2.2 -1.2,3.5 -2.6,3.5 v 0 c -0.6,0 -1.3,-0.6 -1.6,-1 -0.2,0.8 -0.4,1.9 0.5,2.4 0.2,0.1 0.2,0.3 0.1,0.5 -0.1,0.1 -0.2,0.2 -0.3,0.2 -0.1,0 -0.1,0 -0.2,-0.1 -1.3,-0.9 -1,-2.8 -0.5,-3.8 0.1,-0.1 0.2,-0.2 0.3,-0.2 0.1,0 0.2,0.1 0.3,0.1 0.2,0.3 0.9,1.1 1.5,1.2 0.9,0 1.5,-0.9 2.1,-3.5 v 0 c 0,-0.1 0.1,-0.2 0.2,-0.3 0.1,-0.1 0.2,0 0.4,0 1.2,1 2.1,3.7 0.4,6.2 z"
   id="path193" />
	</g>
</g></svg>
