<?xml version="1.0" encoding="UTF-8" standalone="no"?>
<svg
   xmlns:dc="http://purl.org/dc/elements/1.1/"
   xmlns:cc="http://creativecommons.org/ns#"
   xmlns:rdf="http://www.w3.org/1999/02/22-rdf-syntax-ns#"
   xmlns:svg="http://www.w3.org/2000/svg"
   xmlns="http://www.w3.org/2000/svg"
   xmlns:sodipodi="http://sodipodi.sourceforge.net/DTD/sodipodi-0.dtd"
   xmlns:inkscape="http://www.inkscape.org/namespaces/inkscape"
   version="1.1"
   id="Layer_1"
   x="0px"
   y="0px"
   viewBox="0 0 729.2 515.1"
   enable-background="new 0 0 729.2 515.1"
   xml:space="preserve"
   sodipodi:docname="NSXT-overview.svg"
   inkscape:version="1.0 (4035a4fb49, 2020-05-01)"><metadata
   id="metadata891"><rdf:RDF><cc:Work
       rdf:about=""><dc:format>image/svg+xml</dc:format><dc:type
         rdf:resource="http://purl.org/dc/dcmitype/StillImage" /></cc:Work></rdf:RDF></metadata><defs
   id="defs889" /><sodipodi:namedview
   inkscape:document-rotation="0"
   pagecolor="#ffffff"
   bordercolor="#666666"
   borderopacity="1"
   objecttolerance="10"
   gridtolerance="10"
   guidetolerance="10"
   inkscape:pageopacity="0"
   inkscape:pageshadow="2"
   inkscape:window-width="1920"
   inkscape:window-height="1013"
   id="namedview887"
   showgrid="false"
   inkscape:zoom="1.298777"
   inkscape:cx="364.60001"
   inkscape:cy="257.54999"
   inkscape:window-x="-9"
   inkscape:window-y="-9"
   inkscape:window-maximized="1"
   inkscape:current-layer="Layer_1" />
<rect
   fill="#FFFFFF"
   width="729.2"
   height="515.1"
   id="rect509" />
<rect
   x="70"
   y="9.6"
   fill="none"
   stroke="#00C1D5"
   stroke-width="2"
   stroke-miterlimit="10"
   stroke-dasharray="4"
   width="646"
   height="245"
   id="rect511" />
<circle
   fill="#ECECEB"
   cx="68.6"
   cy="92.7"
   r="56.5"
   id="circle513" />
<g
   id="g531">
	<g
   id="g527">
		<path
   fill="#0E94D2"
   d="M342.9,43.5v39.4H372v-1.4h-27.7V65h8l2.1-7.6l3.1,22.2l4-17.5l2.9,10.6l4.8-18.3l2.2,10.7h9.4v11.1h1.3    V43.5H342.9z M372.7,63.6l-3.1-15.5l-5,19.1l-3-10.9l-3.7,15.6l-3-21.4l-3.7,13.1h-6.9V44.9h36.6v18.7H372.7z"
   id="path515" />
		<g
   id="g525">
			<path
   fill="#0E94D2"
   d="M373.6,77.8v16.9h22.5V77.8H373.6z M394.7,93.3H375v-8.8h17.3v-1.4H375v-3.8h19.7V93.3z"
   id="path517" />
			<path
   fill="#0E94D2"
   d="M377.2,81.8L377.2,81.8c0.4,0,0.7-0.3,0.7-0.7c0-0.4-0.3-0.7-0.7-0.7s-0.7,0.3-0.7,0.7     C376.5,81.5,376.8,81.8,377.2,81.8z"
   id="path519" />
			<path
   fill="#0E94D2"
   d="M380,81.8L380,81.8c0.4,0,0.7-0.3,0.7-0.7c0-0.4-0.3-0.7-0.7-0.7c-0.4,0-0.7,0.3-0.7,0.7     C379.3,81.5,379.6,81.8,380,81.8z"
   id="path521" />
			<path
   fill="#0E94D2"
   d="M382.8,81.8L382.8,81.8c0.4,0,0.7-0.3,0.7-0.7c0-0.4-0.3-0.7-0.7-0.7s-0.7,0.3-0.7,0.7     C382.1,81.5,382.4,81.8,382.8,81.8z"
   id="path523" />
		</g>
	</g>
	<circle
   fill="none"
   stroke="#0E94D2"
   stroke-width="2"
   stroke-miterlimit="10"
   cx="369.7"
   cy="67.1"
   r="45.1"
   id="circle529" />
</g>
<text
   id="text186_2_"
   transform="matrix(1 0 0 1 609.9054 192.2929)"
   enable-background="new    "><tspan
     x="0"
     y="0"
     font-family="'Metropolis-Regular'"
     font-size="14px"
     id="tspan533"
     style="-inkscape-font-specification:Metropolis;font-family:Metropolis;font-weight:normal;font-style:normal;font-stretch:normal;font-variant:normal;">Distributed</tspan><tspan
     x="-16.4"
     y="14"
     font-family="'Metropolis-Regular'"
     font-size="14px"
     id="tspan535"
     style="-inkscape-font-specification:Metropolis;font-family:Metropolis;font-weight:normal;font-style:normal;font-stretch:normal;font-variant:normal;">Networking and</tspan><tspan
     x="10.1"
     y="28"
     font-family="'Metropolis-Regular'"
     font-size="14px"
     id="tspan537"
     style="-inkscape-font-specification:Metropolis;font-family:Metropolis;font-weight:normal;font-style:normal;font-stretch:normal;font-variant:normal;">Security</tspan></text>
<text
   id="text186_3_"
   transform="translate(86.4316,502.6929)"
   font-family="'Metropolis-Regular'"
   font-size="14px"
   style="font-style:normal;font-variant:normal;font-weight:normal;font-stretch:normal;font-family:Metropolis;-inkscape-font-specification:Metropolis">Data Center</text>
<text
   id="text186_4_"
   transform="translate(328.8239,502.6929)"
   font-family="Metropolis-Regular"
   font-size="14px"
   style="font-style:normal;font-variant:normal;font-weight:normal;font-stretch:normal;line-height:0;font-family:Metropolis;-inkscape-font-specification:Metropolis">Public Cloud</text>
<text
   id="text186_5_"
   transform="translate(602.2551,502.6929)"
   font-family="'Metropolis-Regular'"
   font-size="14px"
   style="font-style:normal;font-variant:normal;font-weight:normal;font-stretch:normal;font-family:Metropolis;-inkscape-font-specification:Metropolis">Edge Cloud</text>
<g
   id="g607">
	<g
   id="g546">
		<circle
   fill="none"
   stroke="#0E94D2"
   stroke-miterlimit="10"
   cx="453.3"
   cy="202.3"
   r="25.8"
   id="circle543" />
		
			<text
   id="text186_1_"
   transform="matrix(1 0 0 1 431.0182 206.1137)"
   fill="#208FCE"
   font-family="'Metropolis-Regular'"
   font-size="12px"
   style="-inkscape-font-specification:Metropolis;font-family:Metropolis;font-weight:normal;font-style:normal;font-stretch:normal;font-variant:normal;">IDS/IPS</text>
	</g>
	<g
   id="Networking__x2B__Security_EXP_AQ">
		<path
   fill="#0E94D2"
   d="M220.3,181.4v41.9h-41.9v-41.9H220.3 M221.5,180.2h-44.2v44.2h44.2V180.2L221.5,180.2z"
   id="path548" />
		<g
   id="g558">
			<polygon
   fill="#0E94D2"
   points="209,192 214.5,188.9 209,185.7 209,187.8 184.2,187.8 184.2,190.1 209,190.1    "
   id="polygon550" />
			<polygon
   fill="#0E94D2"
   points="189.6,213.7 184.2,216.8 189.6,219.9 189.6,218 214.5,218 214.5,215.7 189.6,215.7    "
   id="polygon552" />
			<polygon
   fill="#0E94D2"
   points="209,206.4 184.2,206.4 184.2,208.7 209,208.7 209,210.6 214.5,207.5 209,204.4    "
   id="polygon554" />
			<polygon
   fill="#0E94D2"
   points="184.2,198.2 189.6,201.3 189.6,199.4 214.5,199.4 214.5,197.1 189.6,197.1 189.6,195.1    "
   id="polygon556" />
		</g>
	</g>
	<g
   id="g573">
		<path
   fill="#0E94D2"
   d="M284,179.4c12.6,0,22.9,10.3,22.9,22.9s-10.3,22.9-22.9,22.9s-22.9-10.3-22.9-22.9S271.4,179.4,284,179.4     M284,178.1c-13.3,0-24.2,10.9-24.2,24.2s10.9,24.2,24.2,24.2s24.2-10.9,24.2-24.2S297.4,178.1,284,178.1L284,178.1z"
   id="path561" />
		<g
   id="g571">
			<polygon
   fill="#0E94D2"
   points="274.1,201 264.8,201 264.8,203.6 274.1,203.6 274.1,205.7 280.1,202.3 274.1,198.9    "
   id="polygon563" />
			<polygon
   fill="#0E94D2"
   points="303.3,201 293.9,201 293.9,198.9 288,202.3 293.9,205.7 293.9,203.6 303.3,203.6    "
   id="polygon565" />
			<polygon
   fill="#0E94D2"
   points="280.6,189.4 282.7,189.4 282.7,198.8 285.3,198.8 285.3,189.4 287.4,189.4 284,183.5    "
   id="polygon567" />
			<polygon
   fill="#0E94D2"
   points="285.3,205.9 282.7,205.9 282.7,215.2 280.6,215.2 284,221.2 287.4,215.2 285.3,215.2    "
   id="polygon569" />
		</g>
	</g>
	<g
   id="g579">
		<path
   fill="#0E94D2"
   d="M369.4,208.2c0.1-0.2,0.3-0.5,0.4-0.9v-5h2.5c0.2-0.4,0.4-0.9,0.6-1.3h-8.2v-7.6h14.7v5.4l0.6,1.2l0.7-1.4    v-5.1h2.5l0.6-1.3h-11v-7.7h14.7v6.7l0.9,1.8c0.1,0.2,0.2,0.3,0.2,0.4h2.8v5.8c0.5,1,0.9,1.9,1.3,2.7v-0.9v-7.7V192v-9h-49.8v9    v1.3v7.7v1.3v9h25.2C368.6,210.2,368.9,209.1,369.4,208.2z M389,184.3h2.6v7.7H389V184.3z M368.6,202.3v7.7h-14.7v-7.7H368.6z     M348.7,200.9v-7.7h14.7v7.7H348.7z M356.9,184.3h14.7v7.7h-14.7V184.3z M344.5,184.3h11v7.7h-11V184.3z M344.5,193.3h2.8v7.7    h-2.8V193.3z M352.5,209.9h-8v-7.6h8V209.9z"
   id="path575" />
		<path
   fill="#0E94D2"
   d="M392.8,206.3c-0.7-1.6-4.3-8.9-6.1-12.5c-0.1-0.2-0.3-0.4-0.6-0.4l0,0c-0.3,0-0.5,0.2-0.6,0.4l-5.1,10.7    c-0.1,0.2-0.2,0.2-0.3,0l-2.6-5.2c-0.1-0.2-0.3-0.4-0.6-0.4l0,0c-0.3,0-0.5,0.2-0.6,0.4c-1.4,2.8-4.2,8.7-4.9,10    c-0.7,1.3-1.1,2.9-1.1,4.4c0,4.3,3,8,6.5,8h9.3c4.4,0,8-4.4,8-9.8C394.1,209.8,393.6,208,392.8,206.3z M386.9,218.2    c-0.2,0.3-0.6,0.4-0.9,0.2c-0.3-0.2-0.4-0.6-0.2-0.9c2.6-3.9,1.4-7.7-0.1-9.6c-1.1,4.3-2.4,6.9-5.1,6.9h-0.1    c-1.3,0-2.5-1.1-3.3-1.9c-0.5,1.6-0.7,3.7,0.9,4.8c0.3,0.2,0.4,0.6,0.2,0.9c-0.1,0.2-0.3,0.3-0.6,0.3c-0.1,0-0.3-0.1-0.4-0.1    c-2.7-1.7-2-5.6-1-7.5c0.1-0.2,0.3-0.3,0.5-0.4c0.2,0,0.5,0.1,0.6,0.3c0.4,0.6,1.8,2.2,2.9,2.3c1.8,0.1,2.9-1.8,4.1-6.9v-0.1    c0-0.3,0.2-0.5,0.4-0.6s0.5-0.1,0.7,0.1C388.4,208,390.2,213.3,386.9,218.2z"
   id="path577" />
	</g>
	<g
   id="g605">
		<path
   fill="#0E94D2"
   d="M561.8,226.3h-32.4L513.9,210v-15.1l15-16.5h32.9C561.8,178.4,561.8,226.3,561.8,226.3z M530,225h30.6    v-45.4h-31.1l-14.3,15.8v14.1L530,225z"
   id="path581" />
		<circle
   fill="#0E94D2"
   cx="536.8"
   cy="188.2"
   r="3.8"
   id="circle583" />
		<circle
   fill="#0E94D2"
   cx="536.8"
   cy="203.1"
   r="3.8"
   id="circle585" />
		<circle
   fill="#0E94D2"
   cx="522"
   cy="203.1"
   r="3.8"
   id="circle587" />
		<circle
   fill="#0E94D2"
   cx="536.8"
   cy="217.9"
   r="3.8"
   id="circle589" />
		
			<rect
   x="525.9"
   y="195.3"
   transform="matrix(0.7071 -0.7071 0.7071 0.7071 16.6761 432.1364)"
   fill="#0E94D2"
   width="8.2"
   height="1.3"
   id="rect591" />
		
			<rect
   x="529.3"
   y="206.8"
   transform="matrix(0.7071 -0.7071 0.7071 0.7071 6.0904 436.4839)"
   fill="#0E94D2"
   width="1.3"
   height="8.2"
   id="rect593" />
		<rect
   x="527.9"
   y="202.5"
   fill="#0E94D2"
   width="4.5"
   height="1.3"
   id="rect595" />
		<g
   id="g603">
			<polygon
   fill="#0E94D2"
   points="551.8,191.6 557.6,188.2 551.8,184.9 551.8,187 542.5,187 542.5,189.5 551.8,189.5    "
   id="polygon597" />
			<polygon
   fill="#0E94D2"
   points="551.8,201.9 542.5,201.9 542.5,204.4 551.8,204.4 551.8,206.5 557.6,203.1 551.8,199.7    "
   id="polygon599" />
			<polygon
   fill="#0E94D2"
   points="551.8,216.6 542.5,216.6 542.5,219.2 551.8,219.2 551.8,221.3 557.6,217.9 551.8,214.5    "
   id="polygon601" />
		</g>
	</g>
</g>
<rect
   x="167.8"
   y="168.8"
   fill="none"
   stroke="#0E94D2"
   stroke-width="2"
   stroke-miterlimit="10"
   width="403.7"
   height="67"
   id="rect609" />
<g
   id="g621">
	<g
   id="g617">
		<path
   fill="#0E94D2"
   d="M240.6,311.1h-4.5l-0.8,1.8h-1l3.5-8h1l3.5,8h-1L240.6,311.1z M240.2,310.2l-1.9-4.2l-1.9,4.2H240.2z"
   id="path611" />
		<path
   fill="#0E94D2"
   d="M244.4,304.9h3.3c1.7,0,2.9,1,2.9,2.6c0,1.5-1.3,2.6-2.9,2.6h-2.3v2.9h-0.9V304.9z M247.5,309.2    c1.3,0,2.2-0.6,2.2-1.7c0-1.1-0.9-1.7-2.2-1.7h-2.2v3.4L247.5,309.2L247.5,309.2z"
   id="path613" />
		<path
   fill="#0E94D2"
   d="M252.6,304.9h3.3c1.7,0,2.9,1,2.9,2.6c0,1.5-1.3,2.6-2.9,2.6h-2.3v2.9h-0.9V304.9z M255.7,309.2    c1.3,0,2.2-0.6,2.2-1.7c0-1.1-0.9-1.7-2.2-1.7h-2.2v3.4L255.7,309.2L255.7,309.2z"
   id="path615" />
	</g>
	<path
   fill="#0E94D2"
   d="M263.2,291.5c1,0,1.9,0.8,1.9,1.9v32.5c0,1-0.8,1.9-1.9,1.9h-32.5c-1,0-1.9-0.8-1.9-1.9v-32.5   c0-1,0.8-1.9,1.9-1.9L263.2,291.5 M263.2,290.5h-32.5c-1.6,0-2.9,1.3-2.9,2.9v32.5c0,1.6,1.3,2.9,2.9,2.9h32.5   c1.6,0,2.9-1.3,2.9-2.9v-32.5C266.1,291.8,264.8,290.5,263.2,290.5L263.2,290.5z"
   id="path619" />
</g>
<rect
   x="217.8"
   y="280.6"
   fill="none"
   stroke="#3E4044"
   stroke-miterlimit="10"
   stroke-dasharray="4"
   width="58.2"
   height="58.2"
   id="rect623" />
<g
   id="g629">
	<path
   fill="#326DE6"
   d="M212.4,350.7c-0.7,0-1.4-0.3-1.8-0.9l-6.7-8.4c-0.4-0.6-0.6-1.3-0.4-2l2.4-10.5c0.2-0.7,0.6-1.3,1.3-1.6   l9.8-4.7c0.3-0.2,0.7-0.2,1-0.2c0.3,0,0.7,0.1,1,0.2l9.8,4.7c0.6,0.3,1.1,0.9,1.3,1.6l2.4,10.5c0.2,0.7,0,1.4-0.4,2l-6.8,8.4   c-0.4,0.5-1.1,0.9-1.8,0.9L212.4,350.7L212.4,350.7z"
   id="path625" />
	<path
   fill="#FFFFFF"
   d="M227.6,338.7L227.6,338.7L227.6,338.7C227.5,338.7,227.5,338.7,227.6,338.7c-0.1,0-0.1-0.1-0.2-0.1   c-0.1,0-0.3,0-0.4,0c-0.1,0-0.1,0-0.2,0h0c-0.4,0-0.7-0.1-1-0.2c-0.1-0.1-0.2-0.1-0.2-0.2c0,0,0,0,0,0l-0.3-0.1   c0.1-0.9,0.1-1.8-0.1-2.7c-0.2-0.9-0.6-1.8-1.1-2.5l0.2-0.2v0c0-0.1,0-0.2,0.1-0.3c0.2-0.2,0.5-0.4,0.9-0.6c0.1,0,0.1-0.1,0.2-0.1   c0.1-0.1,0.2-0.1,0.3-0.2c0,0,0.1,0,0.1-0.1s0,0,0,0c0.3-0.2,0.3-0.6,0.1-0.9c-0.1-0.1-0.3-0.2-0.4-0.2s-0.3,0.1-0.4,0.2l0,0   c0,0-0.1,0.1-0.1,0.1c-0.1,0.1-0.2,0.2-0.3,0.3c0,0-0.1,0.1-0.1,0.1c-0.3,0.3-0.5,0.5-0.8,0.7c-0.1,0-0.1,0.1-0.2,0.1   c0,0-0.1,0-0.1,0h0l-0.2,0.2c-0.3-0.3-0.5-0.5-0.8-0.7c-1.2-0.9-2.6-1.5-4.1-1.6v-0.3l0,0c-0.1-0.1-0.1-0.1-0.2-0.3   c0-0.3,0-0.7,0.1-1v0c0-0.1,0-0.1,0-0.2c0-0.1,0-0.2,0.1-0.4v-0.2c0-0.3-0.3-0.6-0.6-0.6c-0.2,0-0.3,0.1-0.4,0.2   c-0.1,0.1-0.2,0.3-0.2,0.4v0.2c0,0.1,0,0.3,0.1,0.4c0,0.1,0,0.1,0,0.2v0c0,0.4,0.1,0.7,0.1,1c0,0.1-0.1,0.2-0.2,0.3l0,0l0,0.3   c-0.3,0-0.7,0.1-1,0.2c-1.5,0.3-2.8,1.1-3.8,2.2l-0.2-0.1h0c0,0-0.1,0-0.1,0c-0.1,0-0.1,0-0.2-0.1c-0.3-0.2-0.5-0.4-0.8-0.7   c0,0-0.1-0.1-0.1-0.1c-0.1-0.1-0.2-0.2-0.3-0.3c0,0-0.1,0-0.1-0.1c0,0,0,0,0,0c-0.1-0.1-0.3-0.2-0.4-0.2s-0.3,0.1-0.4,0.2   c-0.2,0.3-0.1,0.6,0.1,0.9c0,0,0,0,0,0c0,0,0.1,0.1,0.1,0.1c0.1,0.1,0.2,0.1,0.3,0.2c0.1,0,0.1,0.1,0.2,0.1   c0.3,0.2,0.6,0.4,0.9,0.6c0.1,0.1,0.1,0.2,0.1,0.3v0l0.2,0.2c0,0.1-0.1,0.1-0.1,0.2c-1,1.5-1.3,3.3-1.1,5.1l-0.3,0.1c0,0,0,0,0,0   c0,0.1-0.1,0.2-0.2,0.2c-0.3,0.1-0.6,0.1-1,0.2h0c-0.1,0-0.1,0-0.2,0c-0.1,0-0.2,0-0.4,0c0,0-0.1,0-0.1,0s0,0-0.1,0   c-0.3,0.1-0.6,0.4-0.5,0.7c0.1,0.3,0.3,0.4,0.6,0.4c0.1,0,0.1,0,0.2,0c0,0,0,0,0,0c0,0,0.1,0,0.1,0c0.1,0,0.2-0.1,0.3-0.1   c0.1,0,0.1-0.1,0.2-0.1h0c0.4-0.1,0.7-0.3,1-0.3h0c0.1,0,0.2,0.1,0.3,0.1c0,0,0,0,0,0l0.3,0c0.5,1.4,1.4,2.7,2.5,3.6   c0.3,0.2,0.5,0.4,0.8,0.6l-0.1,0.3c0,0,0,0,0,0c0,0.1,0.1,0.2,0,0.3c-0.1,0.3-0.3,0.6-0.5,0.9v0c0,0.1-0.1,0.1-0.1,0.2   c-0.1,0.1-0.1,0.2-0.2,0.3c0,0,0,0.1-0.1,0.1c0,0,0,0,0,0c-0.2,0.3,0,0.7,0.3,0.8c0,0,0.1,0,0.2,0c0.2,0,0.5-0.2,0.6-0.4   c0,0,0,0,0,0c0,0,0-0.1,0.1-0.1c0.1-0.1,0.1-0.2,0.1-0.3l0.1-0.2c0.1-0.4,0.2-0.7,0.4-1c0.1-0.1,0.2-0.1,0.3-0.2c0,0,0,0,0,0   l0.1-0.3c0.9,0.3,1.8,0.5,2.7,0.5c0.6,0,1.1-0.1,1.7-0.2c0.3-0.1,0.7-0.2,1-0.3l0.1,0.2c0,0,0,0,0,0c0.1,0,0.2,0.1,0.3,0.2   c0.2,0.3,0.3,0.6,0.4,1v0.1l0.1,0.2c0,0.1,0.1,0.2,0.1,0.3c0,0,0,0.1,0.1,0.1c0,0,0,0,0,0c0.1,0.2,0.3,0.4,0.6,0.4   c0.1,0,0.2,0,0.2-0.1c0.1-0.1,0.3-0.2,0.3-0.3c0-0.2,0-0.3,0-0.5c0,0,0,0,0,0c0,0,0-0.1-0.1-0.1c-0.1-0.1-0.1-0.2-0.2-0.3   c0-0.1-0.1-0.1-0.1-0.2v0c-0.2-0.3-0.4-0.6-0.5-0.9c0-0.1,0-0.2,0-0.3c0,0,0,0,0,0l-0.1-0.2c1-0.6,1.9-1.5,2.6-2.5   c0.3-0.5,0.6-1.1,0.8-1.7l0.2,0c0,0,0,0,0,0c0.1,0,0.1-0.1,0.3-0.1h0c0.3,0,0.6,0.2,1,0.3h0c0.1,0,0.1,0.1,0.2,0.1   c0.1,0.1,0.2,0.1,0.3,0.1c0,0,0.1,0,0.1,0c0,0,0,0,0.1,0c0.1,0,0.1,0,0.2,0c0.3,0,0.5-0.2,0.6-0.4   C228.1,339.1,227.9,338.8,227.6,338.7L227.6,338.7z M218.6,337.8l-0.9,0.4l-0.9-0.4l-0.2-0.9l0.6-0.7h0.9l0.6,0.7L218.6,337.8   L218.6,337.8z M223.7,335.8c0.2,0.6,0.2,1.3,0.1,2l-3-0.9c-0.3-0.1-0.4-0.3-0.4-0.6c0-0.1,0.1-0.2,0.1-0.2l2.3-2.1   C223.3,334.5,223.5,335.1,223.7,335.8L223.7,335.8z M222,332.8l-2.5,1.8c-0.2,0.1-0.5,0.1-0.7-0.1c-0.1-0.1-0.1-0.1-0.1-0.2   l-0.2-3.2C219.9,331.3,221.1,331.8,222,332.8L222,332.8z M216.4,331.2c0.2,0,0.4-0.1,0.6-0.1l-0.2,3.1c0,0.3-0.2,0.5-0.5,0.5   c-0.1,0-0.2,0-0.2-0.1l-2.6-1.8C214.3,332,215.3,331.5,216.4,331.2L216.4,331.2z M212.6,333.9l2.3,2.1c0.2,0.2,0.2,0.5,0.1,0.7   c-0.1,0.1-0.1,0.1-0.2,0.2l-3,0.9C211.6,336.4,211.9,335.1,212.6,333.9L212.6,333.9z M212.1,339.2l3.1-0.5c0.3,0,0.5,0.2,0.5,0.4   c0,0.1,0,0.2,0,0.3l-1.1,2.9C213.4,341.5,212.6,340.5,212.1,339.2L212.1,339.2z M219.1,343c-0.4,0.1-0.9,0.2-1.4,0.2   c-0.7,0-1.3-0.1-2-0.3l1.5-2.8c0.2-0.2,0.4-0.3,0.6-0.1c0.1,0.1,0.2,0.1,0.2,0.2l1.5,2.7C219.5,342.9,219.3,342.9,219.1,343   L219.1,343z M222.9,340.3c-0.5,0.8-1.1,1.4-1.9,1.9l-1.2-2.9c-0.1-0.2,0-0.5,0.3-0.6c0.1,0,0.2-0.1,0.3-0.1l3.1,0.5   C223.4,339.6,223.2,340,222.9,340.3L222.9,340.3z"
   id="path627" />
</g>
<g
   id="g639">
	<polygon
   fill="#0995D3"
   points="402.1,335.3 358.1,335.3 358.1,284 409.4,284 409.4,334.9 408.1,334.9 408.1,285.3 359.5,285.3    359.5,334 402.1,334  "
   id="polygon631" />
	<g
   id="g637">
		<path
   fill="#0995D3"
   d="M373.5,306.6h1.1l2.3,5.8l2.3-5.8h1.1l-2.9,7h-1L373.5,306.6z"
   id="path633" />
		<path
   fill="#0995D3"
   d="M392.5,309.2v4.4h-1v-4.3c0-1.1-0.6-1.9-1.6-1.9c-1.1,0-1.9,0.8-1.9,1.8v4.4h-1v-4.3    c0-1.1-0.6-1.9-1.6-1.9c-1.1,0-1.9,0.8-1.9,1.8v4.4h-1v-6.9h1v1c0.3-0.7,1.1-1.2,2-1.2c1,0,1.9,0.6,2.3,1.5    c0.3-0.9,1.2-1.5,2.3-1.5C391.5,306.5,392.5,307.6,392.5,309.2z"
   id="path635" />
	</g>
</g>
<g
   id="g707">
	<g
   id="g643">
		<path
   fill="#0995D3"
   d="M530.3,287.2v47.2h-19.5v-47.2H530.3 M531.8,285.6h-22.7V336h22.7V285.6L531.8,285.6z"
   id="path641" />
	</g>
	<g
   id="g659">
		<rect
   x="515.8"
   y="291.4"
   fill="#0995D3"
   width="9.5"
   height="1.6"
   id="rect645" />
		<rect
   x="515.8"
   y="297.7"
   fill="#0995D3"
   width="9.5"
   height="1.6"
   id="rect647" />
		<rect
   x="515.8"
   y="304"
   fill="#0995D3"
   width="9.5"
   height="1.6"
   id="rect649" />
		<rect
   x="515.8"
   y="310.3"
   fill="#0995D3"
   width="9.5"
   height="1.6"
   id="rect651" />
		<rect
   x="515.8"
   y="316.6"
   fill="#0995D3"
   width="9.5"
   height="1.6"
   id="rect653" />
		<rect
   x="515.8"
   y="323"
   fill="#0995D3"
   width="9.5"
   height="1.6"
   id="rect655" />
		<rect
   x="515.8"
   y="329.3"
   fill="#0995D3"
   width="9.5"
   height="1.6"
   id="rect657" />
	</g>
	<polygon
   fill="#0995D3"
   points="510.6,283.9 512.9,277.6 527.9,277.6 530.2,283.9 531.8,283.9 531.8,283.8 528.8,276 511.9,276    509.1,283.9  "
   id="polygon661" />
	<g
   id="g683">
		<g
   id="g665">
			<polygon
   fill="#0995D3"
   points="550.8,332.6 534.8,332.6 534.8,331.1 549.2,331.1 549.2,290.2 534.8,290.2 534.8,288.7      550.8,288.7    "
   id="polygon663" />
		</g>
		<g
   id="g679">
			<rect
   x="534.8"
   y="293.7"
   fill="#0995D3"
   width="9.4"
   height="1.6"
   id="rect667" />
			<rect
   x="534.8"
   y="300.1"
   fill="#0995D3"
   width="9.4"
   height="1.6"
   id="rect669" />
			<rect
   x="534.8"
   y="306.4"
   fill="#0995D3"
   width="9.4"
   height="1.6"
   id="rect671" />
			<rect
   x="534.8"
   y="312.7"
   fill="#0995D3"
   width="9.4"
   height="1.6"
   id="rect673" />
			<rect
   x="534.8"
   y="319"
   fill="#0995D3"
   width="9.4"
   height="1.6"
   id="rect675" />
			<rect
   x="534.8"
   y="325.4"
   fill="#0995D3"
   width="9.4"
   height="1.6"
   id="rect677" />
		</g>
		<polygon
   fill="#0995D3"
   points="547.2,279.2 534.8,279.2 534.8,280.7 546.1,280.7 548.8,287 550.5,287 550.5,287   "
   id="polygon681" />
	</g>
	<g
   id="g705">
		<g
   id="g687">
			<polygon
   fill="#0995D3"
   points="506.4,332.6 490.5,332.6 490.5,288.7 506.4,288.7 506.4,290.2 492,290.2 492,331.1 506.4,331.1         "
   id="polygon685" />
		</g>
		<g
   id="g701">
			<rect
   x="497"
   y="293.7"
   fill="#0995D3"
   width="9.4"
   height="1.6"
   id="rect689" />
			<rect
   x="497"
   y="300.1"
   fill="#0995D3"
   width="9.4"
   height="1.6"
   id="rect691" />
			<rect
   x="497"
   y="306.4"
   fill="#0995D3"
   width="9.4"
   height="1.6"
   id="rect693" />
			<rect
   x="497"
   y="312.7"
   fill="#0995D3"
   width="9.4"
   height="1.6"
   id="rect695" />
			<rect
   x="497"
   y="319"
   fill="#0995D3"
   width="9.4"
   height="1.6"
   id="rect697" />
			<rect
   x="497"
   y="325.4"
   fill="#0995D3"
   width="9.4"
   height="1.6"
   id="rect699" />
		</g>
		<polygon
   fill="#0995D3"
   points="494,279.2 506.4,279.2 506.4,280.7 495.1,280.7 492.5,287 490.7,287 490.7,287   "
   id="polygon703" />
	</g>
</g>
<g
   id="g721">
	<g
   id="g715">
		<path
   fill="#0995D3"
   d="M44.7,83.8h1.8l9.8,12.8V83.8h1.8v15.7h-1.8l-9.8-12.8v12.8h-1.8L44.7,83.8z"
   id="path709" />
		<path
   fill="#0995D3"
   d="M62.6,97.3l1.1-1.4c1.3,1.3,2.9,2.3,5.1,2.3c2.4,0,3.6-1.3,3.6-2.8c0-1.7-1.5-2.4-4.3-3    c-3.2-0.7-5.1-1.7-5.1-4.4c0-2.5,2.2-4.5,5.3-4.5c2.4,0,4.1,0.9,5.5,2.2l-1.1,1.4c-1.3-1.3-2.8-2.1-4.5-2.1c-2,0-3.4,1.3-3.4,2.8    c0,1.7,1.6,2.2,4.3,2.8c3,0.7,5.1,1.8,5.1,4.6c0,2.5-1.9,4.5-5.5,4.5C66.2,99.8,64.2,98.8,62.6,97.3z"
   id="path711" />
		<path
   fill="#0995D3"
   d="M86,91.7l6,7.9h-2.2l-4.9-6.5L80,99.6h-2.2l6-7.8l-6-7.9H80l4.9,6.5l4.9-6.5H92L86,91.7z"
   id="path713" />
	</g>
	<path
   fill="#0995D3"
   stroke="#010101"
   stroke-width="4"
   stroke-miterlimit="10"
   d="M106.3,105.2"
   id="path717" />
	<path
   fill="#0995D3"
   d="M68.4,130.1c-1.3,0-2.8-0.1-4.1-0.2l0.3-3.2c1.3,0.2,2.5,0.2,3.8,0.2V130.1z M69.2,130.1l-0.1-3.2   c1.3,0,2.5-0.2,3.8-0.3l0.4,3.2C72,130.1,70.6,130.1,69.2,130.1z M60.2,129.3c-1.3-0.3-2.7-0.7-3.9-1.1l1-3c1.2,0.4,2.4,0.7,3.6,1   L60.2,129.3z M77.4,129.1l-0.8-3.1c1.2-0.3,2.4-0.6,3.6-1.1l1.1,3C80,128.3,78.7,128.8,77.4,129.1z M52.5,126.6   c-1.3-0.6-2.4-1.3-3.6-2l1.7-2.7c1.1,0.6,2.2,1.3,3.3,1.8L52.5,126.6z M85.1,126.3l-1.4-2.8c1.1-0.6,2.2-1.2,3.3-1.9l1.7,2.7   C87.5,124.9,86.3,125.7,85.1,126.3z M45.5,122.3c-1.1-0.9-2.1-1.7-3.1-2.7l2.2-2.3c0.9,0.9,1.9,1.7,2.8,2.4L45.5,122.3z M92,121.8   l-2-2.4c0.9-0.8,1.9-1.7,2.8-2.5L95,119C94.1,120.1,93,121,92,121.8z M39.6,116.6c-0.9-1-1.7-2.1-2.4-3.3l2.6-1.7   c0.7,1,1.4,2.1,2.2,3L39.6,116.6z M97.8,116l-2.4-1.9c0.8-0.9,1.5-2.1,2.2-3.1l2.7,1.7C99.4,113.7,98.6,114.9,97.8,116z    M35.1,109.7c-0.6-1.2-1.2-2.4-1.7-3.8l2.9-1.1c0.5,1.2,0.9,2.4,1.5,3.5L35.1,109.7z M102.1,109l-2.8-1.3c0.6-1.1,1-2.3,1.4-3.5   l3,1C103.3,106.5,102.7,107.8,102.1,109z M32.2,102.1c-0.3-1.3-0.6-2.7-0.8-4l3.2-0.5c0.2,1.3,0.4,2.4,0.7,3.7L32.2,102.1z    M104.9,101.3l-3.1-0.7c0.3-1.2,0.5-2.4,0.6-3.7l3.2,0.4C105.4,98.6,105.2,100,104.9,101.3z M31,94c0-0.4,0-0.8,0-1.3   c0-0.9,0-1.9,0.1-2.9l3.2,0.2c-0.1,0.9-0.1,1.7-0.1,2.6c0,0.4,0,0.8,0,1.1L31,94z M105.9,93.2h-3.2v-0.4c0-1.1-0.1-2.3-0.2-3.4   l3.2-0.3c0.2,1.2,0.2,2.4,0.2,3.7V93.2z M34.7,86.4l-3.1-0.6c0.2-1.3,0.6-2.7,0.9-4l3,0.9C35.2,83.9,34.9,85.1,34.7,86.4z    M102,85.6c-0.2-1.3-0.6-2.4-0.9-3.6l3-1c0.4,1.3,0.8,2.6,1.1,3.9L102,85.6z M36.9,79.1L34,77.9c0.6-1.3,1.2-2.5,1.8-3.7l2.8,1.6   C38,76.8,37.4,78,36.9,79.1z M99.7,78.5c-0.6-1.1-1.1-2.3-1.7-3.3l2.7-1.7c0.7,1.2,1.3,2.4,1.9,3.6L99.7,78.5z M40.6,72.6l-2.5-1.8   c0.8-1.1,1.7-2.2,2.6-3.2l2.4,2.1C42.2,70.6,41.4,71.6,40.6,72.6z M95.8,72c-0.8-1-1.6-2-2.4-2.8l2.3-2.1c0.9,1,1.8,2.1,2.7,3.2   L95.8,72z M45.7,67.1l-2.1-2.4c1-0.9,2.1-1.7,3.2-2.5l1.8,2.6C47.6,65.4,46.6,66.2,45.7,67.1z M90.6,66.6c-0.9-0.8-2-1.6-3-2.3   l1.7-2.6c1.1,0.8,2.2,1.6,3.3,2.5L90.6,66.6z M51.8,62.7L50.3,60c1.2-0.6,2.4-1.3,3.7-1.8l1.2,2.9C54.1,61.6,52.9,62.1,51.8,62.7z    M84.4,62.3c-1.1-0.6-2.3-1.1-3.4-1.6l1.2-2.9c1.3,0.5,2.5,1.1,3.7,1.7L84.4,62.3z M58.7,59.8l-0.9-3c1.3-0.4,2.7-0.7,4-0.9   l0.6,3.1C61.2,59.2,59.9,59.4,58.7,59.8z M77.4,59.6c-1.2-0.3-2.4-0.6-3.7-0.8l0.5-3.2c1.3,0.2,2.7,0.5,4,0.9L77.4,59.6z    M66.2,58.5l-0.2-3.2c0.8-0.1,1.7-0.1,2.4-0.1c0.6,0,1.1,0,1.7,0l-0.2,3.2c-0.5,0-1-0.1-1.5,0C67.7,58.4,66.9,58.5,66.2,58.5z"
   id="path719" />
</g>
<g
   id="g763">
	<rect
   x="94.3"
   y="408.8"
   fill="#0995D3"
   width="25"
   height="2.5"
   id="rect723" />
	<rect
   x="131.5"
   y="408.8"
   fill="#0995D3"
   width="25"
   height="2.5"
   id="rect725" />
	<g
   id="g759">
		<g
   id="g737">
			<rect
   x="134.1"
   y="427"
   fill="#0995D3"
   width="2.5"
   height="10"
   id="rect727" />
			<rect
   x="124.1"
   y="427"
   fill="#0995D3"
   width="2.5"
   height="10"
   id="rect729" />
			<rect
   x="114.1"
   y="427"
   fill="#0995D3"
   width="2.5"
   height="10"
   id="rect731" />
			<rect
   x="104.1"
   y="427"
   fill="#0995D3"
   width="2.5"
   height="10"
   id="rect733" />
			<rect
   x="94.1"
   y="427"
   fill="#0995D3"
   width="2.5"
   height="10"
   id="rect735" />
		</g>
		<g
   id="g757">
			<rect
   x="134.1"
   y="448.8"
   fill="#0995D3"
   width="2.5"
   height="10"
   id="rect739" />
			<rect
   x="144.1"
   y="427"
   fill="#0995D3"
   width="2.5"
   height="10"
   id="rect741" />
			<rect
   x="144.1"
   y="448.8"
   fill="#0995D3"
   width="2.5"
   height="10"
   id="rect743" />
			<rect
   x="154.1"
   y="427"
   fill="#0995D3"
   width="2.5"
   height="10"
   id="rect745" />
			<rect
   x="154.1"
   y="448.8"
   fill="#0995D3"
   width="2.5"
   height="10"
   id="rect747" />
			<rect
   x="124.1"
   y="448.8"
   fill="#0995D3"
   width="2.5"
   height="10"
   id="rect749" />
			<rect
   x="114.1"
   y="448.8"
   fill="#0995D3"
   width="2.5"
   height="10"
   id="rect751" />
			<rect
   x="104.1"
   y="448.8"
   fill="#0995D3"
   width="2.5"
   height="10"
   id="rect753" />
			<rect
   x="94.1"
   y="448.8"
   fill="#0995D3"
   width="2.5"
   height="10"
   id="rect755" />
		</g>
	</g>
	<path
   fill="#0995D3"
   d="M165.1,464.6v-44.7v-2.8v-17.2h-8.6v-3.6h-25v3.6H85.1v17.2v2.8v44.7h-7.5v2.5h95v-2.5H165.1z M162.6,417.1   H94.2v2.8h68.4v44.7h-75v-62.2h75V417.1z"
   id="path761" />
</g>
<g
   id="g769">
	<path
   fill="#0995D3"
   d="M383.4,415.2c0.1,0,0.3,0,0.4,0c9.1,0.2,16.6,8,17.6,18.1l0.2,2.1l2.1,0.2c6.3,0.6,11.1,7,10.9,14.7   c-0.2,7.8-5.6,14.1-12,14.1c-0.1,0-0.2,0-0.3,0c-0.2,0-0.8,0-1.7,0c-4.6,0-18,0-31.1,0.1c-13.1,0-26.7,0.1-31.3,0.1   c-0.9,0-1.4,0-1.6,0c-6.4-0.2-12.3-6.2-12.1-12.4c0.1-6.2,5.3-11.2,11.4-11.2c0.1,0,0.2,0,0.3,0c1,0,1.9,0.2,2.8,0.4l2.6,0.7   l0.6-2.6c1.5-6.9,7.7-12,14.7-12c0.1,0,0.2,0,0.4,0c2.2,0.1,4.2,0.5,6.1,1.4l2.4,1.2l1-2.5C369.6,420,376.1,415.2,383.4,415.2"
   id="path765" />
	<path
   fill="#0995D3"
   d="M383.4,412.7c-8.5,0-15.8,5.7-19,13.9c-2.2-1-4.5-1.6-7.1-1.7c-0.1,0-0.3,0-0.4,0c-8.4,0-15.4,5.9-17.1,14   c-1.1-0.3-2.3-0.5-3.4-0.5c-0.1,0-0.2,0-0.3,0c-7.5,0-13.7,6.1-13.9,13.7c-0.2,7.7,6.9,14.8,14.5,15c0.2,0,0.8,0,1.6,0   c9.3,0,53.2-0.2,62.4-0.2c0.9,0,1.4,0,1.6,0c0.1,0,0.2,0,0.3,0c7.8,0,14.3-7.4,14.5-16.5c0.2-9-5.6-16.5-13.2-17.2   c-1-11.2-9.5-20.1-20-20.4C383.7,412.7,383.5,412.7,383.4,412.7L383.4,412.7z"
   id="path767" />
</g>
<g
   id="g775">
	<path
   fill="#0995D3"
   d="M653.8,415.2c0.1,0,0.3,0,0.4,0c9.1,0.2,16.6,8,17.6,18.1l0.2,2.1l2.1,0.2c6.3,0.6,11.1,7,10.9,14.7   c-0.2,7.8-5.6,14.1-12,14.1c-0.1,0-0.2,0-0.3,0c-0.2,0-0.8,0-1.7,0c-4.6,0-18,0-31.1,0.1c-13.1,0-26.7,0.1-31.3,0.1   c-0.9,0-1.4,0-1.6,0c-6.4-0.2-12.3-6.2-12.1-12.4c0.1-6.2,5.3-11.2,11.4-11.2c0.1,0,0.2,0,0.3,0c1,0,1.9,0.2,2.8,0.4l2.6,0.7   l0.6-2.6c1.5-6.9,7.7-12,14.7-12c0.1,0,0.2,0,0.4,0c2.2,0.1,4.2,0.5,6.1,1.4l2.4,1.2l1-2.5C640,420,646.5,415.2,653.8,415.2"
   id="path771" />
	<path
   fill="#0995D3"
   d="M653.8,412.7c-8.5,0-15.8,5.7-19,13.9c-2.2-1-4.5-1.6-7.1-1.7c-0.1,0-0.3,0-0.4,0c-8.4,0-15.4,5.9-17.1,14   c-1.1-0.3-2.3-0.5-3.4-0.5c-0.1,0-0.2,0-0.3,0c-7.5,0-13.7,6.1-13.9,13.7c-0.2,7.7,6.9,14.8,14.5,15c0.2,0,0.8,0,1.6,0   c9.3,0,53.2-0.2,62.4-0.2c0.9,0,1.4,0,1.6,0c0.1,0,0.2,0,0.3,0c7.8,0,14.3-7.4,14.5-16.5c0.2-9-5.6-16.5-13.2-17.2   c-1-11.2-9.5-20.1-20-20.4C654.1,412.7,653.9,412.7,653.8,412.7L653.8,412.7z"
   id="path773" />
</g>
<g
   id="Migration__x2B__Recovery_Expanded_AQ">
	<g
   id="g835">
		<polygon
   fill="#0995D3"
   points="399.6,438.3 399.6,401.7 371.8,401.7 371.8,434.9 373.6,434.9 373.6,403.4 397.9,403.4     397.9,438.3 349.3,438.3 349.3,375.8 372,375.8 372,398.4 373.6,398.4 373.6,374 347.7,374 347.7,438.3 344.1,438.3 344.1,440     403.2,440 403.2,438.3   "
   id="polygon777" />
		<rect
   x="352.8"
   y="379.2"
   fill="#0995D3"
   width="1.7"
   height="1.7"
   id="rect779" />
		<rect
   x="359.8"
   y="379.2"
   fill="#0995D3"
   width="1.7"
   height="1.7"
   id="rect781" />
		<rect
   x="366.7"
   y="379.2"
   fill="#0995D3"
   width="1.7"
   height="1.7"
   id="rect783" />
		<rect
   x="352.8"
   y="386.1"
   fill="#0995D3"
   width="1.7"
   height="1.7"
   id="rect785" />
		<rect
   x="359.8"
   y="386.1"
   fill="#0995D3"
   width="1.7"
   height="1.7"
   id="rect787" />
		<rect
   x="366.7"
   y="386.1"
   fill="#0995D3"
   width="1.7"
   height="1.7"
   id="rect789" />
		<rect
   x="352.8"
   y="393.1"
   fill="#0995D3"
   width="1.7"
   height="1.7"
   id="rect791" />
		<rect
   x="359.8"
   y="393.1"
   fill="#0995D3"
   width="1.7"
   height="1.7"
   id="rect793" />
		<rect
   x="366.7"
   y="393.1"
   fill="#0995D3"
   width="1.7"
   height="1.7"
   id="rect795" />
		<rect
   x="352.8"
   y="400"
   fill="#0995D3"
   width="1.7"
   height="1.7"
   id="rect797" />
		<rect
   x="359.8"
   y="400"
   fill="#0995D3"
   width="1.7"
   height="1.7"
   id="rect799" />
		<rect
   x="366.7"
   y="400"
   fill="#0995D3"
   width="1.7"
   height="1.7"
   id="rect801" />
		<rect
   x="352.8"
   y="407"
   fill="#0995D3"
   width="1.7"
   height="1.7"
   id="rect803" />
		<rect
   x="359.8"
   y="407"
   fill="#0995D3"
   width="1.7"
   height="1.7"
   id="rect805" />
		<rect
   x="366.7"
   y="407"
   fill="#0995D3"
   width="1.7"
   height="1.7"
   id="rect807" />
		<rect
   x="352.8"
   y="413.9"
   fill="#0995D3"
   width="1.7"
   height="1.7"
   id="rect809" />
		<rect
   x="359.8"
   y="413.9"
   fill="#0995D3"
   width="1.7"
   height="1.7"
   id="rect811" />
		<rect
   x="366.7"
   y="413.9"
   fill="#0995D3"
   width="1.7"
   height="1.7"
   id="rect813" />
		<rect
   x="352.8"
   y="420.9"
   fill="#0995D3"
   width="1.7"
   height="1.7"
   id="rect815" />
		<rect
   x="359.8"
   y="420.9"
   fill="#0995D3"
   width="1.7"
   height="1.7"
   id="rect817" />
		<rect
   x="366.7"
   y="420.9"
   fill="#0995D3"
   width="1.7"
   height="1.7"
   id="rect819" />
		<rect
   x="352.8"
   y="427.8"
   fill="#0995D3"
   width="1.7"
   height="1.7"
   id="rect821" />
		<rect
   x="359.8"
   y="427.8"
   fill="#0995D3"
   width="1.7"
   height="1.7"
   id="rect823" />
		<rect
   x="366.7"
   y="427.8"
   fill="#0995D3"
   width="1.7"
   height="1.7"
   id="rect825" />
		<rect
   x="378.9"
   y="408.2"
   fill="#0995D3"
   width="13.9"
   height="1.7"
   id="rect827" />
		<rect
   x="378.9"
   y="415.2"
   fill="#0995D3"
   width="13.9"
   height="1.7"
   id="rect829" />
		<rect
   x="378.9"
   y="422.1"
   fill="#0995D3"
   width="13.9"
   height="1.7"
   id="rect831" />
		<rect
   x="378.9"
   y="429.1"
   fill="#0995D3"
   width="13.9"
   height="1.7"
   id="rect833" />
	</g>
</g>
<circle
   fill="none"
   stroke="#FFFFFF"
   stroke-miterlimit="10"
   cx="633.3"
   cy="455.5"
   r="5.5"
   id="circle838" />
<circle
   fill="none"
   stroke="#FFFFFF"
   stroke-miterlimit="10"
   cx="662.8"
   cy="444.3"
   r="5.5"
   id="circle840" />
<circle
   fill="none"
   stroke="#FFFFFF"
   stroke-miterlimit="10"
   cx="650.5"
   cy="429.9"
   r="5.5"
   id="circle842" />
<polyline
   fill="none"
   stroke="#FFFFFF"
   stroke-miterlimit="10"
   points="650.5,436.7 650.5,455.5 640.1,455.5 "
   id="polyline844" />
<line
   fill="none"
   stroke="#FFFFFF"
   stroke-miterlimit="10"
   x1="650.5"
   y1="444.3"
   x2="656.2"
   y2="444.3"
   id="line846" />
<rect
   x="68.6"
   y="476.5"
   fill="#1A428A"
   width="647.4"
   height="5.6"
   id="rect848" />
<g
   id="g862">
	<g
   id="g860">
		<line
   fill="none"
   stroke="#0091DA"
   stroke-width="2"
   stroke-miterlimit="10"
   x1="179.8"
   y1="438.7"
   x2="296.1"
   y2="438.7"
   id="line850" />
		<g
   id="g854">
			<polygon
   fill="#0091DA"
   points="181.3,443.7 172.6,438.7 181.3,433.7    "
   id="polygon852" />
		</g>
		<g
   id="g858">
			<polygon
   fill="#0091DA"
   points="294.6,443.7 303.3,438.7 294.6,433.7    "
   id="polygon856" />
		</g>
	</g>
</g>
<g
   id="g876">
	<g
   id="g874">
		<line
   fill="none"
   stroke="#0091DA"
   stroke-width="2"
   stroke-miterlimit="10"
   x1="446.7"
   y1="438.7"
   x2="563"
   y2="438.7"
   id="line864" />
		<g
   id="g868">
			<polygon
   fill="#0091DA"
   points="448.2,443.7 439.6,438.7 448.2,433.7    "
   id="polygon866" />
		</g>
		<g
   id="g872">
			<polygon
   fill="#0091DA"
   points="561.5,443.7 570.2,438.7 561.5,433.7    "
   id="polygon870" />
		</g>
	</g>
</g>
<line
   fill="none"
   stroke="#0091DA"
   stroke-width="2"
   stroke-miterlimit="10"
   x1="371.6"
   y1="119.9"
   x2="371.6"
   y2="168.8"
   id="line878" />
<line
   fill="none"
   stroke="#0E94D2"
   stroke-width="2"
   stroke-miterlimit="10"
   x1="246.9"
   y1="235.8"
   x2="246.9"
   y2="280.6"
   id="line880" />
<line
   fill="none"
   stroke="#0E94D2"
   stroke-width="2"
   stroke-miterlimit="10"
   x1="383.8"
   y1="235.8"
   x2="383.8"
   y2="280.6"
   id="line882" />
<line
   fill="none"
   stroke="#0E94D2"
   stroke-width="2"
   stroke-miterlimit="10"
   x1="520.5"
   y1="235.8"
   x2="520.5"
   y2="276"
   id="line884" />
</svg>
