<?xml version="1.0" encoding="UTF-8" standalone="no"?>
<svg
   xmlns:dc="http://purl.org/dc/elements/1.1/"
   xmlns:cc="http://creativecommons.org/ns#"
   xmlns:rdf="http://www.w3.org/1999/02/22-rdf-syntax-ns#"
   xmlns:svg="http://www.w3.org/2000/svg"
   xmlns="http://www.w3.org/2000/svg"
   xmlns:sodipodi="http://sodipodi.sourceforge.net/DTD/sodipodi-0.dtd"
   xmlns:inkscape="http://www.inkscape.org/namespaces/inkscape"
   inkscape:version="1.0 (4035a4f, 2020-05-01)"
   sodipodi:docname="SDN.svg"
   xml:space="preserve"
   enable-background="new 0 0 390.1 191.8"
   viewBox="0 0 390.1 191.8"
   y="0px"
   x="0px"
   id="Layer_1"
   version="1.1"><metadata
   id="metadata72"><rdf:RDF><cc:Work
       rdf:about=""><dc:format>image/svg+xml</dc:format><dc:type
         rdf:resource="http://purl.org/dc/dcmitype/StillImage" /></cc:Work></rdf:RDF></metadata><defs
   id="defs70" />
<sodipodi:namedview
   showgrid="false"
   pagecolor="#ffffff"
   objecttolerance="10"
   inkscape:zoom="2.8796636"
   inkscape:window-y="203"
   inkscape:window-x="0"
   inkscape:window-width="1440"
   inkscape:window-maximized="1"
   inkscape:window-height="855"
   inkscape:pageshadow="2"
   inkscape:pageopacity="0"
   inkscape:document-rotation="0"
   inkscape:cy="95.900003"
   inkscape:cx="190.3"
   inkscape:current-layer="Layer_1"
   id="namedview1158"
   guidetolerance="10"
   gridtolerance="10"
   borderopacity="1"
   bordercolor="#666666">
	</sodipodi:namedview>
<rect
   height="191.8"
   width="390.1"
   fill="#FFFFFF"
   id="rect1060" />
<polygon
   points="74.3,132.2 22.6,132.2 22.6,183.9 74.3,183.9 "
   fill="#218FCF"
   id="polygon1062" />
<polyline
   points="72.9,133.5 72.9,182.5 23.9,182.5 23.9,133.5 72.9,133.5 "
   fill="#FFFFFF"
   id="polyline1064" />
<g
   id="g1074">
	<polygon
   points="59.7,146 66,142.3 59.7,138.6 59.7,141 30.7,141 30.7,143.7 59.7,143.7  "
   fill="#218FCF"
   id="polygon1066" />
	<polygon
   points="37,171.3 30.7,175 37,178.6 37,176.4 66,176.4 66,173.6 37,173.6  "
   fill="#218FCF"
   id="polygon1068" />
	<polygon
   points="59.7,162.7 30.7,162.7 30.7,165.5 59.7,165.5 59.7,167.8 66,164.1 59.7,160.4     "
   fill="#218FCF"
   id="polygon1070" />
	<polygon
   points="30.7,153.2 37,156.9 37,154.6 66,154.6 66,151.9 37,151.9 37,149.5  "
   fill="#218FCF"
   id="polygon1072" />
</g>
<polygon
   points="282.8,132.2 231.1,132.2 231.1,183.9 282.8,183.9 "
   fill="#218FCF"
   id="polygon1076" />
<polyline
   points="281.4,133.5 281.4,182.5 232.5,182.5 232.5,133.5 281.4,133.5 "
   fill="#FFFFFF"
   id="polyline1078" />
<g
   id="g1088">
	<polygon
   points="268.2,146 274.6,142.3 268.2,138.6 268.2,141 239.2,141 239.2,143.7 268.2,143.7     "
   fill="#218FCF"
   id="polygon1080" />
	<polygon
   points="245.5,171.3 239.2,175 245.5,178.6 245.5,176.4 274.6,176.4 274.6,173.6    245.5,173.6  "
   fill="#218FCF"
   id="polygon1082" />
	<polygon
   points="268.2,162.7 239.2,162.7 239.2,165.5 268.2,165.5 268.2,167.8 274.6,164.1    268.2,160.4  "
   fill="#218FCF"
   id="polygon1084" />
	<polygon
   points="239.2,153.2 245.5,156.9 245.5,154.6 274.6,154.6 274.6,151.9 245.5,151.9    245.5,149.5  "
   fill="#218FCF"
   id="polygon1086" />
</g>
<polygon
   points="173.9,32.5 122.2,32.5 122.2,84.2 173.9,84.2 "
   fill="#218FCF"
   id="polygon1090" />
<polyline
   points="172.5,33.9 172.5,82.9 123.6,82.9 123.6,33.9 172.5,33.9 "
   fill="#FFFFFF"
   id="polyline1092" />
<g
   id="g1102">
	<polygon
   points="159.3,46.3 165.7,42.7 159.3,39 159.3,41.3 130.3,41.3 130.3,44.1 159.3,44.1     "
   fill="#218FCF"
   id="polygon1094" />
	<polygon
   points="136.6,71.7 130.3,75.4 136.6,79 136.6,76.7 165.7,76.7 165.7,74 136.6,74  "
   fill="#218FCF"
   id="polygon1096" />
	<polygon
   points="159.3,63.1 130.3,63.1 130.3,65.8 159.3,65.8 159.3,68.1 165.7,64.5 159.3,60.8     "
   fill="#218FCF"
   id="polygon1098" />
	<polygon
   points="130.3,53.6 136.6,57.2 136.6,54.9 165.7,54.9 165.7,52.2 136.6,52.2 136.6,49.9     "
   fill="#218FCF"
   id="polygon1100" />
</g>
<line
   y2="162.6"
   x2="224.3"
   y1="162.6"
   x1="76.1"
   stroke-miterlimit="10"
   stroke-width="2"
   stroke="#000000"
   fill="none"
   id="line1104" />
<line
   y2="64.4"
   x2="113.8"
   y1="129.2"
   x1="43.8"
   stroke-miterlimit="10"
   stroke-width="2"
   stroke="#000000"
   fill="none"
   id="line1106" />
<line
   y2="64.4"
   x2="178.4"
   y1="129.2"
   x1="248.5"
   stroke-miterlimit="10"
   stroke-width="2"
   stroke="#000000"
   fill="none"
   id="line1108" />
<text
   style="-inkscape-font-specification:Metropolis;font-family:Metropolis;font-weight:normal;font-style:normal;font-stretch:normal;font-variant:normal;"
   id="text36"
   font-size="12px"
   font-family="'Metropolis-Regular'"
   transform="matrix(1 0 0 1 9.4136 42.6698)">Progammable</text>
<text
   style="-inkscape-font-specification:Metropolis;font-family:Metropolis;font-weight:normal;font-style:normal;font-stretch:normal;font-variant:normal;"
   id="text38"
   font-size="12px"
   font-family="'Metropolis-Regular'"
   transform="matrix(1 0 0 1 31.0136 54.6698)">Switch</text>
<text
   style="-inkscape-font-specification:Metropolis;font-family:Metropolis;font-weight:normal;font-style:normal;font-stretch:normal;font-variant:normal;"
   font-size="12px"
   font-family="'Metropolis-Regular'"
   transform="matrix(1 0 0 1 109.5267 14.0845)"
   id="text6_2_">Software-Defined Network</text>
<g
   id="g1124">
	<g
   id="g1122">
		<line
   y2="49.9"
   x2="110.2"
   y1="49.9"
   x1="81.8"
   stroke-miterlimit="10"
   stroke="#000000"
   fill="none"
   id="line1116" />
		<g
   id="g1120">
			<polygon
   points="109.5,52.4 113.8,49.9 109.5,47.4    "
   id="polygon1118" />
		</g>
	</g>
</g>
<text
   style="-inkscape-font-specification:Metropolis;font-family:Metropolis;font-weight:normal;font-style:normal;font-stretch:normal;font-variant:normal;"
   id="text46"
   font-size="12px"
   font-family="'Metropolis-Regular'"
   transform="matrix(1 0 0 1 324.2023 59.0653)">Controller</text>
<g
   transform="translate(10,-6)"
   id="g1139">
	<g
   id="g1137">
		<line
   y2="62.7"
   x2="312.3"
   y1="62.7"
   x1="283.8"
   stroke-miterlimit="10"
   stroke="#000000"
   fill="none"
   id="line1131" />
		<g
   id="g1135">
			<polygon
   points="280.2,62.7 284.5,60.2 284.5,65.2    "
   id="polygon1133" />
		</g>
	</g>
</g>
<g
   transform="matrix(0.8892308,0,0,0.8892308,19.76123,6.2189173)"
   id="g1151">
	<g
   id="g1149">
		
			<line
   y2="57.2"
   x2="181.4"
   y1="57.2"
   x1="178.4"
   stroke-miterlimit="8.8923"
   stroke-width="2"
   stroke="#218FCF"
   fill="none"
   id="line1143" />
		
			<line
   y2="57.2"
   x2="237.1"
   y1="57.2"
   x1="188"
   stroke-dasharray="6.5502,6.5502"
   stroke-miterlimit="8.8923"
   stroke-width="2"
   stroke="#218FCF"
   fill="none"
   id="line1145" />
		
			<line
   y2="57.2"
   x2="243.4"
   y1="57.2"
   x1="240.4"
   stroke-miterlimit="8.8923"
   stroke-width="2"
   stroke="#218FCF"
   fill="none"
   id="line1147" />
	</g>
</g>
<line
   y2="80.4"
   x2="241.8"
   y1="151.4"
   x1="76.1"
   stroke-dasharray="6"
   stroke-miterlimit="10"
   stroke-width="2"
   stroke="#218FCF"
   fill="none"
   id="line1153" />
<line
   y2="129.2"
   x2="262.3"
   y1="82.9"
   x1="262.3"
   stroke-dasharray="6"
   stroke-miterlimit="10"
   stroke-width="2"
   stroke="#218FCF"
   fill="none"
   id="line1155" />
<g
   transform="matrix(0.54315792,0,0,0.54315792,230.3903,24.116232)"
   id="g867">
	<path
   d="M59.5,14.5c24.8,0,45,20.2,45,45s-20.2,45-45,45s-45-20.2-45-45S34.7,14.5,59.5,14.5 M59.5,12   C33.3,12,12,33.3,12,59.5S33.3,107,59.5,107S107,85.7,107,59.5S85.7,12,59.5,12z"
   fill="#820024"
   id="path4" />
	<circle
   r="7.5"
   cy="69.3"
   cx="71.8"
   fill="#820024"
   id="circle6" />
	<circle
   r="7.5"
   cy="80.1"
   cx="44.5"
   fill="#820024"
   id="circle8" />
	<circle
   r="7.5"
   cy="42.8"
   cx="81.9"
   fill="#820024"
   id="circle10" />
	<path
   d="M44.4,36.6c3.4,0,6.2,2.8,6.2,6.2S47.8,49,44.4,49c-3.4,0-6.3-2.8-6.3-6.2S40.9,36.6,44.4,36.6    M44.4,34.1c-4.8,0-8.8,3.9-8.8,8.8s3.9,8.8,8.8,8.8c4.8,0,8.8-3.9,8.8-8.8C53.2,38,49.2,34.1,44.4,34.1z"
   fill="#820024"
   id="path12" />
	<rect
   height="16.2"
   width="2.5"
   fill="#820024"
   y="54.4"
   x="43.5"
   id="rect14" />
	<rect
   height="2.5"
   width="16.2"
   fill="#820024"
   y="41.8"
   x="55.9"
   id="rect16" />
	
		<rect
   height="16.2"
   width="2.5"
   fill="#820024"
   transform="matrix(0.7071 -0.7071 0.7071 0.7071 -22.634 58.3448)"
   y="48.4"
   x="57.9"
   id="rect18" />
</g>
</svg>
