<?xml version="1.0" encoding="UTF-8" standalone="no"?>
<svg
   xmlns:dc="http://purl.org/dc/elements/1.1/"
   xmlns:cc="http://creativecommons.org/ns#"
   xmlns:rdf="http://www.w3.org/1999/02/22-rdf-syntax-ns#"
   xmlns:svg="http://www.w3.org/2000/svg"
   xmlns="http://www.w3.org/2000/svg"
   xmlns:sodipodi="http://sodipodi.sourceforge.net/DTD/sodipodi-0.dtd"
   xmlns:inkscape="http://www.inkscape.org/namespaces/inkscape"
   version="1.1"
   id="Layer_1"
   x="0px"
   y="0px"
   viewBox="0 0 632.6 209.5"
   enable-background="new 0 0 632.6 209.5"
   xml:space="preserve"
   sodipodi:docname="Security-silos-nsx.svg"
   inkscape:version="1.0 (4035a4fb49, 2020-05-01)"><metadata
   id="metadata506"><rdf:RDF><cc:Work
       rdf:about=""><dc:format>image/svg+xml</dc:format><dc:type
         rdf:resource="http://purl.org/dc/dcmitype/StillImage" /></cc:Work></rdf:RDF></metadata><defs
   id="defs504" /><sodipodi:namedview
   inkscape:document-rotation="0"
   pagecolor="#ffffff"
   bordercolor="#666666"
   borderopacity="1"
   objecttolerance="10"
   gridtolerance="10"
   guidetolerance="10"
   inkscape:pageopacity="0"
   inkscape:pageshadow="2"
   inkscape:window-width="1671"
   inkscape:window-height="480"
   id="namedview502"
   showgrid="false"
   inkscape:zoom="1.7341132"
   inkscape:cx="316.3"
   inkscape:cy="104.75"
   inkscape:window-x="0"
   inkscape:window-y="203"
   inkscape:window-maximized="0"
   inkscape:current-layer="Layer_1" />
<rect
   fill="#FFFFFF"
   width="632.6"
   height="209.5"
   id="rect10" />
<rect
   x="8.9"
   y="30.8"
   fill="#78BE43"
   width="137.1"
   height="172.4"
   id="rect12" />
<rect
   x="167.4"
   y="30.8"
   fill="#397D3C"
   width="137.1"
   height="172.4"
   id="rect14" />
<path
   fill="#1295D3"
   d="M91.6,8.9c0.1,0,0.3,0,0.4,0c9.4,0.2,17.2,8.3,18.2,18.7l0.2,2.2l2.2,0.2c6.5,0.6,11.5,7.2,11.3,15.2  c-0.2,8.1-5.8,14.6-12.4,14.6c-0.1,0-0.2,0-0.3,0c-0.2,0-0.8,0-1.8,0c-4.8,0-18.6,0-32.2,0.1c-13.5,0-27.6,0.1-32.4,0.1  c-0.9,0-1.4,0-1.7,0c-6.6-0.2-12.7-6.4-12.5-12.8c0.1-6.4,5.5-11.6,11.8-11.6c0.1,0,0.2,0,0.3,0c1,0,2,0.2,2.9,0.4l2.7,0.7L49,34  c1.6-7.1,8-12.4,15.2-12.4c0.1,0,0.2,0,0.4,0c2.3,0.1,4.3,0.5,6.3,1.4l2.5,1.2l1-2.6C77.4,13.8,84.1,8.9,91.6,8.9"
   id="path16" />
<path
   fill="#1295D3"
   d="M91.6,6.3c-8.8,0-16.3,5.9-19.6,14.4c-2.3-1-4.7-1.7-7.3-1.8c-0.1,0-0.3,0-0.4,0c-8.7,0-15.9,6.1-17.7,14.5  c-1.1-0.3-2.4-0.5-3.5-0.5c-0.1,0-0.2,0-0.3,0c-7.8,0-14.2,6.3-14.4,14.2c-0.2,8,7.1,15.3,15,15.5c0.2,0,0.8,0,1.7,0  c9.6,0,55-0.2,64.5-0.2c0.9,0,1.4,0,1.7,0c0.1,0,0.2,0,0.3,0c8.1,0,14.8-7.7,15-17.1c0.2-9.3-5.8-17.1-13.7-17.8  c-1-11.6-9.8-20.8-20.7-21.1C92,6.3,91.7,6.3,91.6,6.3L91.6,6.3z"
   id="path18" />
<path
   fill="#1295D3"
   d="M250.2,6.3c-8.8,0-16.3,5.9-19.6,14.4c-2.3-1-4.7-1.7-7.3-1.8c-0.1,0-0.3,0-0.4,0c-8.7,0-15.9,6.1-17.7,14.5  c-1.1-0.3-2.4-0.5-3.5-0.5c-0.1,0-0.2,0-0.3,0c-7.8,0-14.2,6.3-14.4,14.2c-0.2,8,7.1,15.3,15,15.5c0.2,0,0.8,0,1.7,0  c9.6,0,55-0.2,64.5-0.2c0.9,0,1.4,0,1.7,0c0.1,0,0.2,0,0.3,0c8.1,0,14.8-7.7,15-17.1c0.2-9.3-5.8-17.1-13.7-17.8  c-1-11.6-9.8-20.8-20.7-21.1C250.5,6.3,250.3,6.3,250.2,6.3L250.2,6.3z"
   id="path20" />
<g
   id="g26">
	<path
   fill="#FFFFFF"
   d="M95.7,26c0.3,0,0.5,0.2,0.5,0.5v17.8c0,0.3-0.2,0.5-0.5,0.5h-8.2h-0.8v0.8v7.9c0,0.3-0.2,0.5-0.5,0.5H68.6   c-0.3,0-0.5-0.2-0.5-0.5V35.8c0-0.3,0.2-0.5,0.5-0.5h8.2h0.8v-0.8v-7.9c0-0.3,0.2-0.5,0.5-0.5L95.7,26 M95.7,25.1H78.2   c-0.7,0-1.4,0.6-1.4,1.4v7.9h-8.2c-0.7,0-1.4,0.6-1.4,1.4v17.8c0,0.8,0.6,1.4,1.4,1.4h17.5c0.7,0,1.4-0.6,1.4-1.4v-7.9h8.2   c0.7,0,1.4-0.6,1.4-1.4V26.5C97.1,25.8,96.5,25.1,95.7,25.1L95.7,25.1z"
   id="path22" />
	<path
   fill="#FFFFFF"
   d="M90.6,30.8h-7.3c-0.7,0-1.3,0.6-1.3,1.3v7.3c0,0.3,0.1,0.5,0.2,0.7c-0.2-0.2-0.5-0.3-0.9-0.3H74   c-0.7,0-1.3,0.6-1.3,1.3v7.3c0,0.7,0.6,1.3,1.3,1.3h7.3c0.7,0,1.3-0.6,1.3-1.3v-7.3c0-0.3-0.1-0.5-0.2-0.7c0.2,0.2,0.5,0.3,0.9,0.3   h7.3c0.7,0,1.3-0.6,1.3-1.3v-7.3C91.9,31.4,91.3,30.8,90.6,30.8z"
   id="path24" />
</g>
<text
   id="text186_5_"
   transform="translate(40.4936,80.9692)"
   enable-background="new    "><tspan
     x="0"
     y="0"
     fill="#ffffff"
     font-family="'Metropolis-Regular'"
     font-size="12px"
     id="tspan28"
     style="font-style:normal;font-variant:normal;font-weight:normal;font-stretch:normal;font-family:Metropolis;-inkscape-font-specification:Metropolis">On-Premises</tspan><tspan
     x="19.9"
     y="12"
     fill="#ffffff"
     font-family="'Metropolis-Regular'"
     font-size="12px"
     id="tspan30"
     style="font-style:normal;font-variant:normal;font-weight:normal;font-stretch:normal;font-family:Metropolis;-inkscape-font-specification:Metropolis">SDDC</tspan></text>
<text
   id="text186_1_"
   transform="matrix(1 0 0 1 191.6313 80.9692)"
   enable-background="new    "><tspan
     x="0"
     y="0"
     fill="#FFFFFF"
     font-family="'Metropolis-Regular'"
     font-size="12px"
     id="tspan33"
     style="-inkscape-font-specification:Metropolis;font-family:Metropolis;font-weight:normal;font-style:normal;font-stretch:normal;font-variant:normal;">Virtual Desktop</tspan><tspan
     x="5.7"
     y="12"
     fill="#FFFFFF"
     font-family="'Metropolis-Regular'"
     font-size="12px"
     id="tspan35"
     style="-inkscape-font-specification:Metropolis;font-family:Metropolis;font-weight:normal;font-style:normal;font-stretch:normal;font-variant:normal;">Infrastructure</tspan></text>
<g
   id="Devices__x2B__Hardware_Expanded_AQ">
	<g
   id="g44">
		<path
   fill="#FFFFFF"
   d="M253.8,58.4c-0.6-0.4-2.2-1-2.9-1.3l-0.5-4.9h-1l0.5,5.6l0.3,0.1c0.5,0.2,1.6,0.6,2.3,1H242    c0.7-0.3,1.9-0.8,2.3-1l0.3-0.1l0.7-5.6h-1l-0.7,4.9c-0.7,0.3-2.3,0.9-2.9,1.3c-0.3,0.2-0.4,0.5-0.3,0.9c0.1,0.3,0.4,0.5,0.7,0.5    h12c0.3,0,0.6-0.2,0.7-0.5C254.2,58.9,254.1,58.6,253.8,58.4z"
   id="path38" />
		<path
   fill="#FFFFFF"
   d="M263.8,26.1h-33.1c-1,0-1.8,0.8-1.8,1.9V49c0,1,0.8,1.9,1.9,1.9h33.2c1,0,1.9-0.9,1.9-1.9V28.1    C265.8,27,264.9,26.1,263.8,26.1z M264.9,49c0,0.5-0.4,1-0.9,1h-33.2c-0.5,0-0.9-0.4-0.9-0.9V28c0-0.5,0.4-0.9,0.9-0.9h33.1    c0.6,0,1,0.5,1,1L264.9,49L264.9,49z"
   id="path40" />
		<rect
   x="232.9"
   y="45.8"
   fill="#FFFFFF"
   width="29.2"
   height="1"
   id="rect42" />
	</g>
</g>
<rect
   x="326"
   y="30.8"
   fill="#006EA4"
   width="137.1"
   height="172.4"
   id="rect47" />
<path
   fill="#1295D3"
   d="M408.7,6.3c-8.8,0-16.3,5.9-19.6,14.4c-2.3-1-4.7-1.7-7.3-1.8c-0.1,0-0.3,0-0.4,0c-8.7,0-15.9,6.1-17.7,14.5  c-1.1-0.3-2.4-0.5-3.5-0.5c-0.1,0-0.2,0-0.3,0c-7.8,0-14.2,6.3-14.4,14.2c-0.2,8,7.1,15.3,15,15.5c0.2,0,0.8,0,1.7,0  c9.6,0,55-0.2,64.5-0.2c0.9,0,1.4,0,1.7,0c0.1,0,0.2,0,0.3,0c8.1,0,14.8-7.7,15-17.1c0.2-9.3-5.8-17.1-13.7-17.8  c-1-11.6-9.8-20.8-20.7-21.1C409,6.3,408.8,6.3,408.7,6.3L408.7,6.3z"
   id="path49" />
<rect
   x="486.6"
   y="30.8"
   fill="#F89820"
   width="137.1"
   height="172.4"
   id="rect51" />
<path
   fill="#1295D3"
   d="M569.4,6.3c-8.8,0-16.3,5.9-19.6,14.4c-2.3-1-4.7-1.7-7.3-1.8c-0.1,0-0.3,0-0.4,0c-8.7,0-15.9,6.1-17.7,14.5  c-1.1-0.3-2.4-0.5-3.5-0.5c-0.1,0-0.2,0-0.3,0c-7.8,0-14.2,6.3-14.4,14.2c-0.2,8,7.1,15.3,15,15.5c0.2,0,0.8,0,1.7,0  c9.6,0,55-0.2,64.5-0.2c0.9,0,1.4,0,1.7,0c0.1,0,0.2,0,0.3,0c8.1,0,14.8-7.7,15-17.1c0.2-9.3-5.8-17.1-13.7-17.8  c-1-11.6-9.8-20.8-20.7-21.1C569.7,6.3,569.5,6.3,569.4,6.3L569.4,6.3z"
   id="path53" />
<g
   id="g61">
	<path
   fill="#FFFFFF"
   d="M404.5,53.5c0.6,0,1.1-0.5,1.1-1.1s-0.5-1.1-1.1-1.1c-0.6,0-1.1,0.5-1.1,1.1S403.9,53.5,404.5,53.5z"
   id="path55" />
	<path
   fill="#FFFFFF"
   d="M414.5,23.1v-1.5l0,0v-2.7c0-0.8-0.7-1.5-1.5-1.5h-17.1c-0.8,0-1.4,0.6-1.4,1.4v2.7l0,0V23l0,0v26.5l0,0V51   l0,0v3.3c0,0.8,0.6,1.4,1.4,1.4h17.2c0.8,0,1.4-0.6,1.4-1.4V51l0,0v-1.5l0,0V23.1L414.5,23.1z M412.5,53.8h-16v-2.7h16V53.8z    M412.5,49.6h-16V23.1h16V49.6z M412.5,21.6h-16v-2.1h16V21.6z"
   id="path57" />
	<path
   fill="#FFFFFF"
   d="M402.8,20.9h3.4c0.2,0,0.3-0.1,0.3-0.3v-0.4c0-0.2-0.1-0.3-0.3-0.3h-3.4c-0.2,0-0.3,0.1-0.3,0.3v0.3   C402.5,20.7,402.6,20.9,402.8,20.9z"
   id="path59" />
</g>
<g
   id="g103">
	<rect
   x="531.5"
   y="33.6"
   fill="#FFFFFF"
   width="5.2"
   height="0.5"
   id="rect63" />
	<rect
   x="539.2"
   y="33.6"
   fill="#FFFFFF"
   width="5.2"
   height="0.5"
   id="rect65" />
	<g
   id="g99">
		<g
   id="g77">
			<rect
   x="539.8"
   y="37.4"
   fill="#FFFFFF"
   width="0.5"
   height="2.1"
   id="rect67" />
			<rect
   x="537.7"
   y="37.4"
   fill="#FFFFFF"
   width="0.5"
   height="2.1"
   id="rect69" />
			<rect
   x="535.6"
   y="37.4"
   fill="#FFFFFF"
   width="0.5"
   height="2.1"
   id="rect71" />
			<rect
   x="533.5"
   y="37.4"
   fill="#FFFFFF"
   width="0.5"
   height="2.1"
   id="rect73" />
			<rect
   x="531.4"
   y="37.4"
   fill="#FFFFFF"
   width="0.5"
   height="2.1"
   id="rect75" />
		</g>
		<g
   id="g97">
			<rect
   x="539.8"
   y="41.9"
   fill="#FFFFFF"
   width="0.5"
   height="2.1"
   id="rect79" />
			<rect
   x="541.9"
   y="37.4"
   fill="#FFFFFF"
   width="0.5"
   height="2.1"
   id="rect81" />
			<rect
   x="541.9"
   y="41.9"
   fill="#FFFFFF"
   width="0.5"
   height="2.1"
   id="rect83" />
			<rect
   x="543.9"
   y="37.4"
   fill="#FFFFFF"
   width="0.5"
   height="2.1"
   id="rect85" />
			<rect
   x="543.9"
   y="41.9"
   fill="#FFFFFF"
   width="0.5"
   height="2.1"
   id="rect87" />
			<rect
   x="537.7"
   y="41.9"
   fill="#FFFFFF"
   width="0.5"
   height="2.1"
   id="rect89" />
			<rect
   x="535.6"
   y="41.9"
   fill="#FFFFFF"
   width="0.5"
   height="2.1"
   id="rect91" />
			<rect
   x="533.5"
   y="41.9"
   fill="#FFFFFF"
   width="0.5"
   height="2.1"
   id="rect93" />
			<rect
   x="531.4"
   y="41.9"
   fill="#FFFFFF"
   width="0.5"
   height="2.1"
   id="rect95" />
		</g>
	</g>
	<path
   fill="#FFFFFF"
   d="M546.2,45.2v-9.3v-0.6v-3.6h-1.8V31h-5.2v0.8h-9.7v3.6v0.6v9.3H528v0.5h19.8v-0.5H546.2z M545.7,35.3h-14.3   v0.6h14.3v9.3h-15.7v-13h15.7V35.3z"
   id="path101" />
</g>
<g
   id="Clouds__x2B__Infrastructure_Expanded_AQ">
	<path
   fill="#FFFFFF"
   d="M587.8,30.3c0,0,0.1,0,0.1,0c2.6,0.1,4.8,2.3,5,5.2l0.1,0.6l0.6,0.1c1.8,0.2,3.2,2,3.1,4.2   c-0.1,2.2-1.6,4-3.4,4c0,0-0.1,0-0.1,0c-0.1,0-0.2,0-0.5,0c-1.3,0-5.2,0-8.9,0c-3.8,0-7.6,0-9,0c-0.3,0-0.4,0-0.5,0   c-1.8-0.1-3.5-1.8-3.5-3.6c0-1.8,1.5-3.2,3.3-3.2c0,0,0.1,0,0.1,0c0.3,0,0.5,0.1,0.8,0.1l0.7,0.2l0.2-0.7c0.4-2,2.2-3.4,4.2-3.4   c0,0,0.1,0,0.1,0c0.6,0,1.2,0.1,1.7,0.4l0.7,0.3l0.3-0.7C583.8,31.7,585.7,30.3,587.8,30.3 M587.8,29.6c-2.4,0-4.5,1.6-5.4,4   c-0.6-0.3-1.3-0.5-2-0.5c0,0-0.1,0-0.1,0c-2.4,0-4.4,1.7-4.9,4c-0.3-0.1-0.7-0.1-1-0.1c0,0-0.1,0-0.1,0c-2.1,0-3.9,1.7-4,3.9   c-0.1,2.2,2,4.2,4.2,4.3c0.1,0,0.2,0,0.5,0c2.7,0,15.2-0.1,17.9-0.1c0.3,0,0.4,0,0.5,0c0,0,0.1,0,0.1,0c2.2,0,4.1-2.1,4.2-4.7   c0.1-2.6-1.6-4.7-3.8-4.9c-0.3-3.2-2.7-5.8-5.7-5.8C587.9,29.6,587.8,29.6,587.8,29.6L587.8,29.6z"
   id="path105" />
</g>
<polyline
   fill="none"
   stroke="#FFFFFF"
   stroke-miterlimit="10"
   points="538.2,48 538.2,56.8 583.8,56.8 583.8,48 "
   id="polyline108" />
<text
   id="text186_2_"
   transform="matrix(1 0 0 1 351.2956 80.9692)"
   fill="#FFFFFF"
   font-family="'Metropolis-Regular'"
   font-size="12px"
   style="-inkscape-font-specification:Metropolis;font-family:Metropolis;font-weight:normal;font-style:normal;font-stretch:normal;font-variant:normal;">Mobile Devices</text>
<text
   id="text186_3_"
   transform="translate(521.8494,80.9692)"
   fill="#ffffff"
   font-family="'Metropolis-Regular'"
   font-size="12px"
   style="font-style:normal;font-variant:normal;font-weight:normal;font-stretch:normal;font-family:Metropolis;-inkscape-font-specification:Metropolis">Multicloud</text>
<rect
   x="8.9"
   y="96.4"
   opacity="0.73"
   fill="#0091A0"
   width="614.8"
   height="106.8"
   id="rect112" />
<g
   id="g126">
	<path
   fill="#3E4044"
   d="M53.5,101H38.2c-0.8,0-1.4,0.6-1.4,1.4v15.3c0,0.8,0.6,1.4,1.4,1.4h15.3c0.8,0,1.4-0.6,1.4-1.4v-15.3   C54.9,101.6,54.2,101,53.5,101L53.5,101z"
   id="path114" />
	<path
   fill="#FFFFFF"
   d="M53.5,101.4c0.5,0,0.9,0.4,0.9,0.9v15.3c0,0.5-0.4,0.9-0.9,0.9H38.2c-0.5,0-0.9-0.4-0.9-0.9v-15.3   c0-0.5,0.4-0.9,0.9-0.9L53.5,101.4"
   id="path116" />
	<g
   id="g124">
		<path
   fill="#3E4044"
   d="M42.9,110.7h-2.1l-0.4,0.9h-0.5l1.7-3.8H42l1.7,3.8h-0.5L42.9,110.7z M42.7,110.3l-0.9-2l-0.9,2H42.7z"
   id="path118" />
		<path
   fill="#3E4044"
   d="M44.6,107.8h1.5c0.8,0,1.4,0.5,1.4,1.2c0,0.7-0.6,1.2-1.4,1.2h-1.1v1.4h-0.4L44.6,107.8z M46.1,109.8    c0.6,0,1-0.3,1-0.8c0-0.5-0.4-0.8-1-0.8h-1v1.6L46.1,109.8L46.1,109.8z"
   id="path120" />
		<path
   fill="#3E4044"
   d="M48.5,107.8h1.5c0.8,0,1.4,0.5,1.4,1.2c0,0.7-0.6,1.2-1.4,1.2H49v1.4h-0.4L48.5,107.8z M50,109.8    c0.6,0,1-0.3,1-0.8c0-0.5-0.4-0.8-1-0.8h-1v1.6L50,109.8L50,109.8z"
   id="path122" />
	</g>
</g>
<g
   id="g140">
	<path
   fill="#3E4044"
   d="M85.1,101H69.8c-0.8,0-1.4,0.6-1.4,1.4v15.3c0,0.8,0.6,1.4,1.4,1.4h15.3c0.8,0,1.4-0.6,1.4-1.4v-15.3   C86.5,101.6,85.8,101,85.1,101L85.1,101z"
   id="path128" />
	<path
   fill="#FFFFFF"
   d="M85.1,101.4c0.5,0,0.9,0.4,0.9,0.9v15.3c0,0.5-0.4,0.9-0.9,0.9H69.8c-0.5,0-0.9-0.4-0.9-0.9v-15.3   c0-0.5,0.4-0.9,0.9-0.9L85.1,101.4"
   id="path130" />
	<g
   id="g138">
		<path
   fill="#3E4044"
   d="M74.5,110.7h-2.1l-0.4,0.9h-0.5l1.7-3.8h0.5l1.7,3.8h-0.5L74.5,110.7z M74.3,110.3l-0.9-2l-0.9,2H74.3z"
   id="path132" />
		<path
   fill="#3E4044"
   d="M76.2,107.8h1.5c0.8,0,1.4,0.5,1.4,1.2c0,0.7-0.6,1.2-1.4,1.2h-1.1v1.4h-0.4V107.8z M77.7,109.8    c0.6,0,1-0.3,1-0.8c0-0.5-0.4-0.8-1-0.8h-1v1.6L77.7,109.8L77.7,109.8z"
   id="path134" />
		<path
   fill="#3E4044"
   d="M80.1,107.8h1.5c0.8,0,1.4,0.5,1.4,1.2c0,0.7-0.6,1.2-1.4,1.2h-1.1v1.4h-0.4V107.8z M81.6,109.8    c0.6,0,1-0.3,1-0.8c0-0.5-0.4-0.8-1-0.8h-1v1.6L81.6,109.8L81.6,109.8z"
   id="path136" />
	</g>
</g>
<g
   id="g154">
	<path
   fill="#3E4044"
   d="M116.7,101h-15.3c-0.8,0-1.4,0.6-1.4,1.4v15.3c0,0.8,0.6,1.4,1.4,1.4h15.3c0.8,0,1.4-0.6,1.4-1.4v-15.3   C118,101.6,117.4,101,116.7,101L116.7,101z"
   id="path142" />
	<path
   fill="#FFFFFF"
   d="M116.7,101.4c0.5,0,0.9,0.4,0.9,0.9v15.3c0,0.5-0.4,0.9-0.9,0.9h-15.3c-0.5,0-0.9-0.4-0.9-0.9v-15.3   c0-0.5,0.4-0.9,0.9-0.9L116.7,101.4"
   id="path144" />
	<g
   id="g152">
		<path
   fill="#3E4044"
   d="M106,110.7h-2.1l-0.4,0.9h-0.5l1.7-3.8h0.5l1.7,3.8h-0.5L106,110.7z M105.9,110.3l-0.9-2l-0.9,2H105.9z"
   id="path146" />
		<path
   fill="#3E4044"
   d="M107.8,107.8h1.5c0.8,0,1.4,0.5,1.4,1.2c0,0.7-0.6,1.2-1.4,1.2h-1.1v1.4h-0.4V107.8z M109.3,109.8    c0.6,0,1-0.3,1-0.8c0-0.5-0.4-0.8-1-0.8h-1v1.6L109.3,109.8L109.3,109.8z"
   id="path148" />
		<path
   fill="#3E4044"
   d="M111.7,107.8h1.5c0.8,0,1.4,0.5,1.4,1.2c0,0.7-0.6,1.2-1.4,1.2h-1.1v1.4h-0.4V107.8z M113.2,109.8    c0.6,0,1-0.3,1-0.8c0-0.5-0.4-0.8-1-0.8h-1v1.6L113.2,109.8L113.2,109.8z"
   id="path150" />
	</g>
</g>
<g
   id="g168">
	<path
   fill="#FFFFFF"
   d="M42.8,126c3.8,0,6.9,3.1,6.9,6.9c0,3.8-3.1,6.9-6.9,6.9s-6.9-3.1-6.9-6.9C35.9,129.1,39,126,42.8,126    M42.8,125.6c-4,0-7.2,3.2-7.2,7.2c0,4,3.2,7.2,7.2,7.2s7.2-3.2,7.2-7.2C50,128.9,46.7,125.6,42.8,125.6L42.8,125.6z"
   id="path156" />
	<g
   id="g166">
		<polygon
   fill="#FFFFFF"
   points="39.8,132.5 37,132.5 37,133.3 39.8,133.3 39.8,133.9 41.6,132.9 39.8,131.9   "
   id="polygon158" />
		<polygon
   fill="#FFFFFF"
   points="48.5,132.5 45.7,132.5 45.7,131.9 43.9,132.9 45.7,133.9 45.7,133.3 48.5,133.3   "
   id="polygon160" />
		<polygon
   fill="#FFFFFF"
   points="41.7,129 42.4,129 42.4,131.8 43.1,131.8 43.1,129 43.8,129 42.8,127.3   "
   id="polygon162" />
		<polygon
   fill="#FFFFFF"
   points="43.1,133.9 42.4,133.9 42.4,136.7 41.7,136.7 42.8,138.5 43.8,136.7 43.1,136.7   "
   id="polygon164" />
	</g>
</g>
<g
   id="Networking__x2B__Security_EXP_AQ">
	<path
   fill="#FFFFFF"
   d="M70.4,126.1v13.6H56.7v-13.6H70.4 M70.8,125.7H56.4v14.4h14.4V125.7L70.8,125.7z"
   id="path170" />
	<g
   id="g180">
		<polygon
   fill="#FFFFFF"
   points="66.7,129.5 68.5,128.5 66.7,127.5 66.7,128.1 58.6,128.1 58.6,128.9 66.7,128.9   "
   id="polygon172" />
		<polygon
   fill="#FFFFFF"
   points="60.4,136.6 58.6,137.6 60.4,138.6 60.4,138 68.5,138 68.5,137.2 60.4,137.2   "
   id="polygon174" />
		<polygon
   fill="#FFFFFF"
   points="66.7,134.2 58.6,134.2 58.6,135 66.7,135 66.7,135.6 68.5,134.6 66.7,133.5   "
   id="polygon176" />
		<polygon
   fill="#FFFFFF"
   points="58.6,131.5 60.4,132.6 60.4,131.9 68.5,131.9 68.5,131.2 60.4,131.2 60.4,130.5   "
   id="polygon178" />
	</g>
</g>
<g
   id="g187">
	<path
   fill="#FFFFFF"
   d="M88.2,135.1c0-0.1,0.1-0.2,0.2-0.3v-1.9h0.9c0.1-0.2,0.2-0.3,0.2-0.5h-3v-2.8h5.5v2l0.2,0.4l0.3-0.5v-1.9   h0.9l0.2-0.5h-4.1v-2.9H95v2.5l0.3,0.7c0,0.1,0.1,0.1,0.1,0.2h1.1v2.2c0.2,0.4,0.3,0.7,0.5,1v-0.3v-2.8V129v-3.3H78.4v3.3v0.5v2.8   v0.5v3.3h9.4C87.9,135.8,88,135.4,88.2,135.1z M95.5,126.2h1v2.8h-1V126.2z M87.9,132.9v2.8h-5.5v-2.8H87.9z M80.5,132.4v-2.8H86   v2.8H80.5z M83.5,126.2H89v2.8h-5.5V126.2z M78.9,126.2H83v2.8h-4.1V126.2z M78.9,129.5H80v2.8h-1.1V129.5z M81.9,135.7h-3v-2.8h3   V135.7z"
   id="path183" />
	<path
   fill="#FFFFFF"
   d="M96.9,134.4c-0.3-0.6-1.6-3.3-2.3-4.7c0-0.1-0.1-0.1-0.2-0.1l0,0c-0.1,0-0.2,0.1-0.2,0.1l-1.9,4   c0,0.1-0.1,0.1-0.1,0l-1-2c0-0.1-0.1-0.1-0.2-0.1l0,0c-0.1,0-0.2,0.1-0.2,0.1c-0.5,1.1-1.6,3.2-1.8,3.7c-0.3,0.5-0.4,1.1-0.4,1.7   c0,1.6,1.1,3,2.4,3h3.4c1.7,0,3-1.6,3-3.7C97.4,135.7,97.2,135,96.9,134.4z M94.7,138.8c-0.1,0.1-0.2,0.1-0.3,0.1   c-0.1-0.1-0.1-0.2-0.1-0.3c1-1.5,0.5-2.9,0-3.6c-0.4,1.6-0.9,2.6-1.9,2.6h0c-0.5,0-0.9-0.4-1.2-0.7c-0.2,0.6-0.3,1.4,0.3,1.8   c0.1,0.1,0.1,0.2,0.1,0.3c0,0.1-0.1,0.1-0.2,0.1c0,0-0.1,0-0.1,0c-1-0.6-0.8-2.1-0.4-2.8c0-0.1,0.1-0.1,0.2-0.1   c0.1,0,0.2,0,0.2,0.1c0.2,0.2,0.7,0.8,1.1,0.9c0.7,0,1.1-0.7,1.5-2.5v0c0-0.1,0.1-0.2,0.1-0.2c0.1,0,0.2,0,0.3,0   C95.2,135,95.9,137,94.7,138.8z"
   id="path185" />
</g>
<g
   id="g213">
	<path
   fill="#FFFFFF"
   d="M118,138.4h-7.5l-3.6-3.8v-3.5l3.5-3.8h7.6V138.4z M110.7,138.1h7.1v-10.5h-7.2l-3.3,3.7v3.3L110.7,138.1z"
   id="path189" />
	<circle
   fill="#FFFFFF"
   cx="112.3"
   cy="129.6"
   r="0.9"
   id="circle191" />
	<circle
   fill="#FFFFFF"
   cx="112.3"
   cy="133.1"
   r="0.9"
   id="circle193" />
	<circle
   fill="#FFFFFF"
   cx="108.8"
   cy="133.1"
   r="0.9"
   id="circle195" />
	<circle
   fill="#FFFFFF"
   cx="112.3"
   cy="136.5"
   r="0.9"
   id="circle197" />
	
		<rect
   x="109.7"
   y="131.3"
   transform="matrix(0.7071 -0.7071 0.7071 0.7071 -60.5013 116.7423)"
   fill="#FFFFFF"
   width="1.9"
   height="0.3"
   id="rect199" />
	
		<rect
   x="110.5"
   y="133.9"
   transform="matrix(0.7071 -0.7071 0.7071 0.7071 -62.9512 117.7485)"
   fill="#FFFFFF"
   width="0.3"
   height="1.9"
   id="rect201" />
	<rect
   x="110.2"
   y="132.9"
   fill="#FFFFFF"
   width="1"
   height="0.3"
   id="rect203" />
	<g
   id="g211">
		<polygon
   fill="#FFFFFF"
   points="115.7,130.4 117.1,129.6 115.7,128.8 115.7,129.3 113.6,129.3 113.6,129.9 115.7,129.9   "
   id="polygon205" />
		<polygon
   fill="#FFFFFF"
   points="115.7,132.8 113.6,132.8 113.6,133.4 115.7,133.4 115.7,133.9 117.1,133.1 115.7,132.3   "
   id="polygon207" />
		<polygon
   fill="#FFFFFF"
   points="115.7,136.2 113.6,136.2 113.6,136.8 115.7,136.8 115.7,137.3 117.1,136.5 115.7,135.7   "
   id="polygon209" />
	</g>
</g>
<g
   id="g227">
	<path
   fill="#3E4044"
   d="M212,101h-15.3c-0.8,0-1.4,0.6-1.4,1.4v15.3c0,0.8,0.6,1.4,1.4,1.4H212c0.8,0,1.4-0.6,1.4-1.4v-15.3   C213.4,101.6,212.8,101,212,101L212,101z"
   id="path215" />
	<path
   fill="#FFFFFF"
   d="M212,101.4c0.5,0,0.9,0.4,0.9,0.9v15.3c0,0.5-0.4,0.9-0.9,0.9h-15.3c-0.5,0-0.9-0.4-0.9-0.9v-15.3   c0-0.5,0.4-0.9,0.9-0.9L212,101.4"
   id="path217" />
	<g
   id="g225">
		<path
   fill="#3E4044"
   d="M201.4,110.7h-2.1l-0.4,0.9h-0.5l1.7-3.8h0.5l1.7,3.8h-0.5L201.4,110.7z M201.2,110.3l-0.9-2l-0.9,2H201.2    z"
   id="path219" />
		<path
   fill="#3E4044"
   d="M203.2,107.8h1.5c0.8,0,1.4,0.5,1.4,1.2c0,0.7-0.6,1.2-1.4,1.2h-1.1v1.4h-0.4V107.8z M204.7,109.8    c0.6,0,1-0.3,1-0.8c0-0.5-0.4-0.8-1-0.8h-1v1.6L204.7,109.8L204.7,109.8z"
   id="path221" />
		<path
   fill="#3E4044"
   d="M207.1,107.8h1.5c0.8,0,1.4,0.5,1.4,1.2c0,0.7-0.6,1.2-1.4,1.2h-1.1v1.4h-0.4V107.8z M208.5,109.8    c0.6,0,1-0.3,1-0.8c0-0.5-0.4-0.8-1-0.8h-1v1.6L208.5,109.8L208.5,109.8z"
   id="path223" />
	</g>
</g>
<g
   id="g241">
	<path
   fill="#3E4044"
   d="M243.6,101h-15.3c-0.8,0-1.4,0.6-1.4,1.4v15.3c0,0.8,0.6,1.4,1.4,1.4h15.3c0.8,0,1.4-0.6,1.4-1.4v-15.3   C245,101.6,244.4,101,243.6,101L243.6,101z"
   id="path229" />
	<path
   fill="#FFFFFF"
   d="M243.6,101.4c0.5,0,0.9,0.4,0.9,0.9v15.3c0,0.5-0.4,0.9-0.9,0.9h-15.3c-0.5,0-0.9-0.4-0.9-0.9v-15.3   c0-0.5,0.4-0.9,0.9-0.9L243.6,101.4"
   id="path231" />
	<g
   id="g239">
		<path
   fill="#3E4044"
   d="M233,110.7h-2.1l-0.4,0.9H230l1.7-3.8h0.5l1.7,3.8h-0.5L233,110.7z M232.8,110.3l-0.9-2l-0.9,2H232.8z"
   id="path233" />
		<path
   fill="#3E4044"
   d="M234.8,107.8h1.5c0.8,0,1.4,0.5,1.4,1.2c0,0.7-0.6,1.2-1.4,1.2h-1.1v1.4h-0.4V107.8z M236.2,109.8    c0.6,0,1-0.3,1-0.8c0-0.5-0.4-0.8-1-0.8h-1v1.6L236.2,109.8L236.2,109.8z"
   id="path235" />
		<path
   fill="#3E4044"
   d="M238.7,107.8h1.5c0.8,0,1.4,0.5,1.4,1.2c0,0.7-0.6,1.2-1.4,1.2h-1.1v1.4h-0.4    C238.7,111.6,238.7,107.8,238.7,107.8z M240.1,109.8c0.6,0,1-0.3,1-0.8c0-0.5-0.4-0.8-1-0.8h-1v1.6L240.1,109.8L240.1,109.8z"
   id="path237" />
	</g>
</g>
<g
   id="g255">
	<path
   fill="#3E4044"
   d="M275.2,101h-15.3c-0.8,0-1.4,0.6-1.4,1.4v15.3c0,0.8,0.6,1.4,1.4,1.4h15.3c0.8,0,1.4-0.6,1.4-1.4v-15.3   C276.6,101.6,276,101,275.2,101L275.2,101z"
   id="path243" />
	<path
   fill="#FFFFFF"
   d="M275.2,101.4c0.5,0,0.9,0.4,0.9,0.9v15.3c0,0.5-0.4,0.9-0.9,0.9h-15.3c-0.5,0-0.9-0.4-0.9-0.9v-15.3   c0-0.5,0.4-0.9,0.9-0.9L275.2,101.4"
   id="path245" />
	<g
   id="g253">
		<path
   fill="#3E4044"
   d="M264.6,110.7h-2.1l-0.4,0.9h-0.5l1.7-3.8h0.5l1.7,3.8h-0.5L264.6,110.7z M264.4,110.3l-0.9-2l-0.9,2H264.4    z"
   id="path247" />
		<path
   fill="#3E4044"
   d="M266.4,107.8h1.5c0.8,0,1.4,0.5,1.4,1.2c0,0.7-0.6,1.2-1.4,1.2h-1.1v1.4h-0.4V107.8z M267.8,109.8    c0.6,0,1-0.3,1-0.8c0-0.5-0.4-0.8-1-0.8h-1v1.6L267.8,109.8L267.8,109.8z"
   id="path249" />
		<path
   fill="#3E4044"
   d="M270.2,107.8h1.5c0.8,0,1.4,0.5,1.4,1.2c0,0.7-0.6,1.2-1.4,1.2h-1.1v1.4h-0.4    C270.2,111.6,270.2,107.8,270.2,107.8z M271.7,109.8c0.6,0,1-0.3,1-0.8c0-0.5-0.4-0.8-1-0.8h-1v1.6L271.7,109.8L271.7,109.8z"
   id="path251" />
	</g>
</g>
<g
   id="g269">
	<path
   fill="#FFFFFF"
   d="M201.3,126.2c3.7,0,6.7,3,6.7,6.7c0,3.7-3,6.7-6.7,6.7c-3.7,0-6.7-3-6.7-6.7   C194.6,129.2,197.6,126.2,201.3,126.2 M201.3,125.8c-3.9,0-7.1,3.2-7.1,7.1c0,3.9,3.2,7.1,7.1,7.1c3.9,0,7.1-3.2,7.1-7.1   C208.4,129,205.2,125.8,201.3,125.8L201.3,125.8z"
   id="path257" />
	<g
   id="g267">
		<polygon
   fill="#FFFFFF"
   points="198.4,132.5 195.7,132.5 195.7,133.3 198.4,133.3 198.4,133.9 200.2,132.9 198.4,131.9   "
   id="polygon259" />
		<polygon
   fill="#FFFFFF"
   points="207,132.5 204.2,132.5 204.2,131.9 202.5,132.9 204.2,133.9 204.2,133.3 207,133.3   "
   id="polygon261" />
		<polygon
   fill="#FFFFFF"
   points="200.3,129.1 200.9,129.1 200.9,131.8 201.7,131.8 201.7,129.1 202.3,129.1 201.3,127.4   "
   id="polygon263" />
		<polygon
   fill="#FFFFFF"
   points="201.7,133.9 200.9,133.9 200.9,136.7 200.3,136.7 201.3,138.4 202.3,136.7 201.7,136.7   "
   id="polygon265" />
	</g>
</g>
<g
   id="Networking__x2B__Security_EXP_AQ_1_">
	<path
   fill="#FFFFFF"
   d="M228.8,126.2v13.5h-13.5v-13.5H228.8 M229.2,125.8H215V140h14.2V125.8L229.2,125.8z"
   id="path271" />
	<g
   id="g281">
		<polygon
   fill="#FFFFFF"
   points="225.2,129.6 226.9,128.6 225.2,127.6 225.2,128.2 217.2,128.2 217.2,128.9 225.2,128.9   "
   id="polygon273" />
		<polygon
   fill="#FFFFFF"
   points="219,136.5 217.2,137.5 219,138.5 219,137.9 226.9,137.9 226.9,137.2 219,137.2   "
   id="polygon275" />
		<polygon
   fill="#FFFFFF"
   points="225.2,134.2 217.2,134.2 217.2,134.9 225.2,134.9 225.2,135.6 226.9,134.6 225.2,133.5   "
   id="polygon277" />
		<polygon
   fill="#FFFFFF"
   points="217.2,131.6 219,132.6 219,131.9 226.9,131.9 226.9,131.2 219,131.2 219,130.5   "
   id="polygon279" />
	</g>
</g>
<g
   id="g288">
	<path
   fill="#FFFFFF"
   d="M246.7,135.1c0-0.1,0.1-0.2,0.2-0.3v-1.9h0.9c0.1-0.2,0.2-0.3,0.2-0.5h-3v-2.8h5.5v2l0.2,0.4l0.3-0.5v-1.9   h0.9l0.2-0.5H248v-2.9h5.5v2.5l0.3,0.7c0,0.1,0.1,0.1,0.1,0.2h1.1v2.2c0.2,0.4,0.3,0.7,0.5,1v-0.3v-2.8V129v-3.3h-18.5v3.3v0.5v2.8   v0.5v3.3h9.4C246.4,135.8,246.5,135.4,246.7,135.1z M254,126.2h1v2.8h-1V126.2z M246.4,132.9v2.8h-5.5v-2.8H246.4z M239,132.4v-2.8   h5.5v2.8H239z M242.1,126.2h5.5v2.8h-5.5V126.2z M237.5,126.2h4.1v2.8h-4.1V126.2z M237.5,129.5h1.1v2.8h-1.1L237.5,129.5z    M240.4,135.7h-3v-2.8h3V135.7z"
   id="path284" />
	<path
   fill="#FFFFFF"
   d="M255.4,134.4c-0.3-0.6-1.6-3.3-2.3-4.7c0-0.1-0.1-0.1-0.2-0.1l0,0c-0.1,0-0.2,0.1-0.2,0.1l-1.9,4   c0,0.1-0.1,0.1-0.1,0l-1-2c0-0.1-0.1-0.1-0.2-0.1l0,0c-0.1,0-0.2,0.1-0.2,0.1c-0.5,1.1-1.6,3.2-1.8,3.7c-0.3,0.5-0.4,1.1-0.4,1.7   c0,1.6,1.1,3,2.4,3h3.4c1.7,0,3-1.6,3-3.7C255.9,135.7,255.7,135,255.4,134.4z M253.2,138.8c-0.1,0.1-0.2,0.1-0.3,0.1   c-0.1-0.1-0.1-0.2-0.1-0.3c1-1.5,0.5-2.9,0-3.6c-0.4,1.6-0.9,2.6-1.9,2.6h0c-0.5,0-0.9-0.4-1.2-0.7c-0.2,0.6-0.3,1.4,0.3,1.8   c0.1,0.1,0.1,0.2,0.1,0.3c0,0.1-0.1,0.1-0.2,0.1c0,0-0.1,0-0.1,0c-1-0.6-0.8-2.1-0.4-2.8c0-0.1,0.1-0.1,0.2-0.1   c0.1,0,0.2,0,0.2,0.1c0.2,0.2,0.7,0.8,1.1,0.9c0.7,0,1.1-0.7,1.5-2.5v0c0-0.1,0.1-0.2,0.1-0.2c0.1,0,0.2,0,0.3,0   C253.8,135,254.5,137,253.2,138.8z"
   id="path286" />
</g>
<g
   id="g314">
	<path
   fill="#FFFFFF"
   d="M276.6,138.4h-7.5l-3.6-3.8v-3.5l3.5-3.8h7.6V138.4z M269.2,138.1h7.1v-10.5h-7.2l-3.3,3.7v3.3L269.2,138.1   z"
   id="path290" />
	<circle
   fill="#FFFFFF"
   cx="270.8"
   cy="129.6"
   r="0.9"
   id="circle292" />
	<circle
   fill="#FFFFFF"
   cx="270.8"
   cy="133.1"
   r="0.9"
   id="circle294" />
	<circle
   fill="#FFFFFF"
   cx="267.4"
   cy="133.1"
   r="0.9"
   id="circle296" />
	<circle
   fill="#FFFFFF"
   cx="270.8"
   cy="136.5"
   r="0.9"
   id="circle298" />
	
		<rect
   x="268.3"
   y="131.3"
   transform="matrix(0.7071 -0.7071 0.7071 0.7071 -14.0655 228.8482)"
   fill="#FFFFFF"
   width="1.9"
   height="0.3"
   id="rect300" />
	
		<rect
   x="269.1"
   y="133.9"
   transform="matrix(0.7071 -0.7071 0.7071 0.7071 -16.5155 229.8544)"
   fill="#FFFFFF"
   width="0.3"
   height="1.9"
   id="rect302" />
	<rect
   x="268.7"
   y="132.9"
   fill="#FFFFFF"
   width="1"
   height="0.3"
   id="rect304" />
	<g
   id="g312">
		<polygon
   fill="#FFFFFF"
   points="274.3,130.4 275.6,129.6 274.3,128.8 274.3,129.3 272.1,129.3 272.1,129.9 274.3,129.9   "
   id="polygon306" />
		<polygon
   fill="#FFFFFF"
   points="274.3,132.8 272.1,132.8 272.1,133.4 274.3,133.4 274.3,133.9 275.6,133.1 274.3,132.3   "
   id="polygon308" />
		<polygon
   fill="#FFFFFF"
   points="274.3,136.2 272.1,136.2 272.1,136.8 274.3,136.8 274.3,137.3 275.6,136.5 274.3,135.7   "
   id="polygon310" />
	</g>
</g>
<g
   id="g328">
	<path
   fill="#3E4044"
   d="M531.2,101h-15.3c-0.8,0-1.4,0.6-1.4,1.4v15.3c0,0.8,0.6,1.4,1.4,1.4h15.3c0.8,0,1.4-0.6,1.4-1.4v-15.3   C532.6,101.6,532,101,531.2,101L531.2,101z"
   id="path316" />
	<path
   fill="#FFFFFF"
   d="M531.2,101.4c0.5,0,0.9,0.4,0.9,0.9v15.3c0,0.5-0.4,0.9-0.9,0.9h-15.3c-0.5,0-0.9-0.4-0.9-0.9v-15.3   c0-0.5,0.4-0.9,0.9-0.9L531.2,101.4"
   id="path318" />
	<g
   id="g326">
		<path
   fill="#3E4044"
   d="M520.6,110.7h-2.1l-0.4,0.9h-0.5l1.7-3.8h0.5l1.7,3.8H521L520.6,110.7z M520.4,110.3l-0.9-2l-0.9,2H520.4z    "
   id="path320" />
		<path
   fill="#3E4044"
   d="M522.4,107.8h1.5c0.8,0,1.4,0.5,1.4,1.2c0,0.7-0.6,1.2-1.4,1.2h-1.1v1.4h-0.4V107.8z M523.9,109.8    c0.6,0,1-0.3,1-0.8c0-0.5-0.4-0.8-1-0.8h-1v1.6L523.9,109.8L523.9,109.8z"
   id="path322" />
		<path
   fill="#3E4044"
   d="M526.3,107.8h1.5c0.8,0,1.4,0.5,1.4,1.2c0,0.7-0.6,1.2-1.4,1.2h-1.1v1.4h-0.4V107.8z M527.7,109.8    c0.6,0,1-0.3,1-0.8c0-0.5-0.4-0.8-1-0.8h-1v1.6L527.7,109.8L527.7,109.8z"
   id="path324" />
	</g>
</g>
<g
   id="g342">
	<path
   fill="#3E4044"
   d="M562.8,101h-15.3c-0.8,0-1.4,0.6-1.4,1.4v15.3c0,0.8,0.6,1.4,1.4,1.4h15.3c0.8,0,1.4-0.6,1.4-1.4v-15.3   C564.2,101.6,563.6,101,562.8,101L562.8,101z"
   id="path330" />
	<path
   fill="#FFFFFF"
   d="M562.8,101.4c0.5,0,0.9,0.4,0.9,0.9v15.3c0,0.5-0.4,0.9-0.9,0.9h-15.3c-0.5,0-0.9-0.4-0.9-0.9v-15.3   c0-0.5,0.4-0.9,0.9-0.9L562.8,101.4"
   id="path332" />
	<g
   id="g340">
		<path
   fill="#3E4044"
   d="M552.2,110.7h-2.1l-0.4,0.9h-0.5l1.7-3.8h0.5l1.7,3.8h-0.5L552.2,110.7z M552,110.3l-0.9-2l-0.9,2H552z"
   id="path334" />
		<path
   fill="#3E4044"
   d="M554,107.8h1.5c0.8,0,1.4,0.5,1.4,1.2c0,0.7-0.6,1.2-1.4,1.2h-1.1v1.4H554V107.8z M555.4,109.8    c0.6,0,1-0.3,1-0.8c0-0.5-0.4-0.8-1-0.8h-1v1.6L555.4,109.8L555.4,109.8z"
   id="path336" />
		<path
   fill="#3E4044"
   d="M557.9,107.8h1.5c0.8,0,1.4,0.5,1.4,1.2c0,0.7-0.6,1.2-1.4,1.2h-1.1v1.4h-0.4V107.8z M559.3,109.8    c0.6,0,1-0.3,1-0.8c0-0.5-0.4-0.8-1-0.8h-1v1.6L559.3,109.8L559.3,109.8z"
   id="path338" />
	</g>
</g>
<g
   id="g356">
	<path
   fill="#3E4044"
   d="M594.4,101h-15.3c-0.8,0-1.4,0.6-1.4,1.4v15.3c0,0.8,0.6,1.4,1.4,1.4h15.3c0.8,0,1.4-0.6,1.4-1.4v-15.3   C595.8,101.6,595.2,101,594.4,101L594.4,101z"
   id="path344" />
	<path
   fill="#FFFFFF"
   d="M594.4,101.4c0.5,0,0.9,0.4,0.9,0.9v15.3c0,0.5-0.4,0.9-0.9,0.9h-15.3c-0.5,0-0.9-0.4-0.9-0.9v-15.3   c0-0.5,0.4-0.9,0.9-0.9L594.4,101.4"
   id="path346" />
	<g
   id="g354">
		<path
   fill="#3E4044"
   d="M583.8,110.7h-2.1l-0.4,0.9h-0.5l1.7-3.8h0.5l1.7,3.8h-0.5L583.8,110.7z M583.6,110.3l-0.9-2l-0.9,2H583.6    z"
   id="path348" />
		<path
   fill="#3E4044"
   d="M585.6,107.8h1.5c0.8,0,1.4,0.5,1.4,1.2c0,0.7-0.6,1.2-1.4,1.2H586v1.4h-0.4V107.8z M587,109.8    c0.6,0,1-0.3,1-0.8c0-0.5-0.4-0.8-1-0.8h-1v1.6L587,109.8L587,109.8z"
   id="path350" />
		<path
   fill="#3E4044"
   d="M589.4,107.8h1.5c0.8,0,1.4,0.5,1.4,1.2c0,0.7-0.6,1.2-1.4,1.2h-1.1v1.4h-0.4V107.8z M590.9,109.8    c0.6,0,1-0.3,1-0.8c0-0.5-0.4-0.8-1-0.8h-1v1.6L590.9,109.8L590.9,109.8z"
   id="path352" />
	</g>
</g>
<g
   id="g370">
	<path
   fill="#FFFFFF"
   d="M521.7,126.1c3.8,0,6.8,3.1,6.8,6.8c0,3.8-3.1,6.8-6.8,6.8c-3.8,0-6.8-3.1-6.8-6.8   C514.9,129.1,518,126.1,521.7,126.1 M521.7,125.7c-4,0-7.2,3.2-7.2,7.2s3.2,7.2,7.2,7.2c4,0,7.2-3.2,7.2-7.2   S525.7,125.7,521.7,125.7L521.7,125.7z"
   id="path358" />
	<g
   id="g368">
		<polygon
   fill="#FFFFFF"
   points="518.8,132.5 516,132.5 516,133.3 518.8,133.3 518.8,133.9 520.6,132.9 518.8,131.9   "
   id="polygon360" />
		<polygon
   fill="#FFFFFF"
   points="527.5,132.5 524.7,132.5 524.7,131.9 522.9,132.9 524.7,133.9 524.7,133.3 527.5,133.3   "
   id="polygon362" />
		<polygon
   fill="#FFFFFF"
   points="520.7,129 521.4,129 521.4,131.8 522.1,131.8 522.1,129 522.8,129 521.7,127.3   "
   id="polygon364" />
		<polygon
   fill="#FFFFFF"
   points="522.1,133.9 521.4,133.9 521.4,136.7 520.7,136.7 521.7,138.5 522.8,136.7 522.1,136.7   "
   id="polygon366" />
	</g>
</g>
<g
   id="Networking__x2B__Security_EXP_AQ_3_">
	<path
   fill="#FFFFFF"
   d="M559.3,127v11.8h-11.8V127H559.3 M559.6,126.7h-12.4v12.4h12.4V126.7L559.6,126.7z"
   id="path372" />
	<g
   id="g382">
		<polygon
   fill="#FFFFFF"
   points="556.1,130 557.6,129.1 556.1,128.2 556.1,128.8 549.1,128.8 549.1,129.4 556.1,129.4   "
   id="polygon374" />
		<polygon
   fill="#FFFFFF"
   points="550.7,136.1 549.1,137 550.7,137.8 550.7,137.3 557.6,137.3 557.6,136.6 550.7,136.6   "
   id="polygon376" />
		<polygon
   fill="#FFFFFF"
   points="556.1,134 549.1,134 549.1,134.7 556.1,134.7 556.1,135.2 557.6,134.3 556.1,133.5   "
   id="polygon378" />
		<polygon
   fill="#FFFFFF"
   points="549.1,131.7 550.7,132.6 550.7,132.1 557.6,132.1 557.6,131.4 550.7,131.4 550.7,130.8   "
   id="polygon380" />
	</g>
</g>
<g
   id="g389">
	<path
   fill="#FFFFFF"
   d="M586.6,135.1c0-0.1,0.1-0.2,0.2-0.3v-1.9h0.9c0.1-0.2,0.2-0.3,0.2-0.5h-3v-2.8h5.5v2l0.2,0.4l0.3-0.5v-1.9   h0.9l0.2-0.5h-4.1v-2.9h5.5v2.5l0.3,0.7c0,0.1,0.1,0.1,0.1,0.2h1.1v2.2c0.2,0.4,0.3,0.7,0.5,1v-0.3v-2.8V129v-3.3h-18.5v3.3v0.5   v2.8v0.5v3.3h9.4C586.3,135.8,586.4,135.4,586.6,135.1z M593.9,126.2h1v2.8h-1V126.2z M586.3,132.9v2.8h-5.5v-2.8H586.3z    M578.9,132.4v-2.8h5.5v2.8H578.9z M581.9,126.2h5.5v2.8h-5.5V126.2z M577.3,126.2h4.1v2.8h-4.1V126.2z M577.3,129.5h1.1v2.8h-1.1   V129.5z M580.3,135.7h-3v-2.8h3V135.7z"
   id="path385" />
	<path
   fill="#FFFFFF"
   d="M595.3,134.4c-0.3-0.6-1.6-3.3-2.3-4.7c0-0.1-0.1-0.1-0.2-0.1l0,0c-0.1,0-0.2,0.1-0.2,0.1l-1.9,4   c0,0.1-0.1,0.1-0.1,0l-1-2c0-0.1-0.1-0.1-0.2-0.1l0,0c-0.1,0-0.2,0.1-0.2,0.1c-0.5,1.1-1.6,3.2-1.8,3.7c-0.3,0.5-0.4,1.1-0.4,1.7   c0,1.6,1.1,3,2.4,3h3.4c1.7,0,3-1.6,3-3.7C595.8,135.7,595.6,135,595.3,134.4z M593.1,138.8c-0.1,0.1-0.2,0.1-0.3,0.1   c-0.1-0.1-0.1-0.2-0.1-0.3c1-1.5,0.5-2.9,0-3.6c-0.4,1.6-0.9,2.6-1.9,2.6h0c-0.5,0-0.9-0.4-1.2-0.7c-0.2,0.6-0.3,1.4,0.3,1.8   c0.1,0.1,0.1,0.2,0.1,0.3c0,0.1-0.1,0.1-0.2,0.1c0,0-0.1,0-0.1,0c-1-0.6-0.8-2.1-0.4-2.8c0-0.1,0.1-0.1,0.2-0.1   c0.1,0,0.2,0,0.2,0.1c0.2,0.2,0.7,0.8,1.1,0.9c0.7,0,1.1-0.7,1.5-2.5v0c0-0.1,0.1-0.2,0.1-0.2c0.1,0,0.2,0,0.3,0   C593.7,135,594.3,137,593.1,138.8z"
   id="path387" />
</g>
<g
   id="g403">
	<path
   fill="#3E4044"
   d="M370.6,101h-15.3c-0.8,0-1.4,0.6-1.4,1.4v15.3c0,0.8,0.6,1.4,1.4,1.4h15.3c0.8,0,1.4-0.6,1.4-1.4v-15.3   C371.9,101.6,371.3,101,370.6,101L370.6,101z"
   id="path391" />
	<path
   fill="#FFFFFF"
   d="M370.6,101.4c0.5,0,0.9,0.4,0.9,0.9v15.3c0,0.5-0.4,0.9-0.9,0.9h-15.3c-0.5,0-0.9-0.4-0.9-0.9v-15.3   c0-0.5,0.4-0.9,0.9-0.9L370.6,101.4"
   id="path393" />
	<g
   id="g401">
		<path
   fill="#3E4044"
   d="M359.9,110.7h-2.1l-0.4,0.9H357l1.7-3.8h0.5l1.7,3.8h-0.5L359.9,110.7z M359.8,110.3l-0.9-2l-0.9,2H359.8z    "
   id="path395" />
		<path
   fill="#3E4044"
   d="M361.7,107.8h1.5c0.8,0,1.4,0.5,1.4,1.2c0,0.7-0.6,1.2-1.4,1.2h-1.1v1.4h-0.4L361.7,107.8z M363.2,109.8    c0.6,0,1-0.3,1-0.8c0-0.5-0.4-0.8-1-0.8h-1v1.6L363.2,109.8L363.2,109.8z"
   id="path397" />
		<path
   fill="#3E4044"
   d="M365.6,107.8h1.5c0.8,0,1.4,0.5,1.4,1.2c0,0.7-0.6,1.2-1.4,1.2H366v1.4h-0.4    C365.6,111.6,365.6,107.8,365.6,107.8z M367.1,109.8c0.6,0,1-0.3,1-0.8c0-0.5-0.4-0.8-1-0.8h-1v1.6L367.1,109.8L367.1,109.8z"
   id="path399" />
	</g>
</g>
<g
   id="g417">
	<path
   fill="#3E4044"
   d="M402.1,101h-15.3c-0.8,0-1.4,0.6-1.4,1.4v15.3c0,0.8,0.6,1.4,1.4,1.4h15.3c0.8,0,1.4-0.6,1.4-1.4v-15.3   C403.5,101.6,402.9,101,402.1,101L402.1,101z"
   id="path405" />
	<path
   fill="#FFFFFF"
   d="M402.1,101.4c0.5,0,0.9,0.4,0.9,0.9v15.3c0,0.5-0.4,0.9-0.9,0.9h-15.3c-0.5,0-0.9-0.4-0.9-0.9v-15.3   c0-0.5,0.4-0.9,0.9-0.9L402.1,101.4"
   id="path407" />
	<g
   id="g415">
		<path
   fill="#3E4044"
   d="M391.5,110.7h-2.1l-0.4,0.9h-0.5l1.7-3.8h0.5l1.7,3.8h-0.5L391.5,110.7z M391.3,110.3l-0.9-2l-0.9,2H391.3    z"
   id="path409" />
		<path
   fill="#3E4044"
   d="M393.3,107.8h1.5c0.8,0,1.4,0.5,1.4,1.2c0,0.7-0.6,1.2-1.4,1.2h-1.1v1.4h-0.4V107.8z M394.8,109.8    c0.6,0,1-0.3,1-0.8c0-0.5-0.4-0.8-1-0.8h-1v1.6L394.8,109.8L394.8,109.8z"
   id="path411" />
		<path
   fill="#3E4044"
   d="M397.2,107.8h1.5c0.8,0,1.4,0.5,1.4,1.2c0,0.7-0.6,1.2-1.4,1.2h-1.1v1.4h-0.4    C397.2,111.6,397.2,107.8,397.2,107.8z M398.7,109.8c0.6,0,1-0.3,1-0.8c0-0.5-0.4-0.8-1-0.8h-1v1.6L398.7,109.8L398.7,109.8z"
   id="path413" />
	</g>
</g>
<g
   id="g431">
	<path
   fill="#3E4044"
   d="M433.7,101h-15.3c-0.8,0-1.4,0.6-1.4,1.4v15.3c0,0.8,0.6,1.4,1.4,1.4h15.3c0.8,0,1.4-0.6,1.4-1.4v-15.3   C435.1,101.6,434.5,101,433.7,101L433.7,101z"
   id="path419" />
	<path
   fill="#FFFFFF"
   d="M433.7,101.4c0.5,0,0.9,0.4,0.9,0.9v15.3c0,0.5-0.4,0.9-0.9,0.9h-15.3c-0.5,0-0.9-0.4-0.9-0.9v-15.3   c0-0.5,0.4-0.9,0.9-0.9L433.7,101.4"
   id="path421" />
	<g
   id="g429">
		<path
   fill="#3E4044"
   d="M423.1,110.7H421l-0.4,0.9h-0.5l1.7-3.8h0.5l1.7,3.8h-0.5L423.1,110.7z M422.9,110.3l-0.9-2l-0.9,2H422.9z    "
   id="path423" />
		<path
   fill="#3E4044"
   d="M424.9,107.8h1.5c0.8,0,1.4,0.5,1.4,1.2c0,0.7-0.6,1.2-1.4,1.2h-1.1v1.4h-0.4V107.8z M426.4,109.8    c0.6,0,1-0.3,1-0.8c0-0.5-0.4-0.8-1-0.8h-1v1.6L426.4,109.8L426.4,109.8z"
   id="path425" />
		<path
   fill="#3E4044"
   d="M428.8,107.8h1.5c0.8,0,1.4,0.5,1.4,1.2c0,0.7-0.6,1.2-1.4,1.2h-1.1v1.4h-0.4    C428.8,111.6,428.8,107.8,428.8,107.8z M430.2,109.8c0.6,0,1-0.3,1-0.8c0-0.5-0.4-0.8-1-0.8h-1v1.6L430.2,109.8L430.2,109.8z"
   id="path427" />
	</g>
</g>
<g
   id="Networking__x2B__Security_EXP_AQ_2_">
	<path
   fill="#FFFFFF"
   d="M367.9,126.1v13.6h-13.6v-13.6H367.9 M368.3,125.7h-14.4v14.4h14.4V125.7L368.3,125.7z"
   id="path433" />
	<g
   id="g443">
		<polygon
   fill="#FFFFFF"
   points="364.2,129.5 366,128.5 364.2,127.5 364.2,128.1 356.1,128.1 356.1,128.9 364.2,128.9   "
   id="polygon435" />
		<polygon
   fill="#FFFFFF"
   points="357.9,136.6 356.1,137.6 357.9,138.6 357.9,138 366,138 366,137.2 357.9,137.2   "
   id="polygon437" />
		<polygon
   fill="#FFFFFF"
   points="364.2,134.2 356.1,134.2 356.1,135 364.2,135 364.2,135.6 366,134.6 364.2,133.5   "
   id="polygon439" />
		<polygon
   fill="#FFFFFF"
   points="356.1,131.5 357.9,132.6 357.9,131.9 366,131.9 366,131.2 357.9,131.2 357.9,130.5   "
   id="polygon441" />
	</g>
</g>
<g
   id="g450">
	<path
   fill="#FFFFFF"
   d="M394.7,135.1c0-0.1,0.1-0.2,0.2-0.3v-1.9h0.9c0.1-0.2,0.2-0.3,0.2-0.5h-3v-2.8h5.5v2l0.2,0.4l0.3-0.5v-1.9   h0.9l0.2-0.5H396v-2.9h5.5v2.5l0.3,0.7c0,0.1,0.1,0.1,0.1,0.2h1.1v2.2c0.2,0.4,0.3,0.7,0.5,1v-0.3v-2.8V129v-3.3h-18.5v3.3v0.5v2.8   v0.5v3.3h9.4C394.3,135.8,394.5,135.4,394.7,135.1z M401.9,126.2h1v2.8h-1V126.2z M394.3,132.9v2.8h-5.5v-2.8H394.3z M387,132.4   v-2.8h5.5v2.8H387z M390,126.2h5.5v2.8H390V126.2z M385.4,126.2h4.1v2.8h-4.1V126.2z M385.4,129.5h1.1v2.8h-1.1V129.5z    M388.4,135.7h-3v-2.8h3V135.7z"
   id="path446" />
	<path
   fill="#FFFFFF"
   d="M403.3,134.4c-0.3-0.6-1.6-3.3-2.3-4.7c0-0.1-0.1-0.1-0.2-0.1l0,0c-0.1,0-0.2,0.1-0.2,0.1l-1.9,4   c0,0.1-0.1,0.1-0.1,0l-1-2c0-0.1-0.1-0.1-0.2-0.1l0,0c-0.1,0-0.2,0.1-0.2,0.1c-0.5,1.1-1.6,3.2-1.8,3.7c-0.3,0.5-0.4,1.1-0.4,1.7   c0,1.6,1.1,3,2.4,3h3.4c1.7,0,3-1.6,3-3.7C403.8,135.7,403.7,135,403.3,134.4z M401.2,138.8c-0.1,0.1-0.2,0.1-0.3,0.1   c-0.1-0.1-0.1-0.2-0.1-0.3c1-1.5,0.5-2.9,0-3.6c-0.4,1.6-0.9,2.6-1.9,2.6h0c-0.5,0-0.9-0.4-1.2-0.7c-0.2,0.6-0.3,1.4,0.3,1.8   c0.1,0.1,0.1,0.2,0.1,0.3c0,0.1-0.1,0.1-0.2,0.1c0,0-0.1,0-0.1,0c-1-0.6-0.8-2.1-0.4-2.8c0-0.1,0.1-0.1,0.2-0.1   c0.1,0,0.2,0,0.2,0.1c0.2,0.2,0.7,0.8,1.1,0.9c0.7,0,1.1-0.7,1.5-2.5v0c0-0.1,0.1-0.2,0.1-0.2c0.1,0,0.2,0,0.3,0   C401.7,135,402.4,137,401.2,138.8z"
   id="path448" />
</g>
<g
   id="g476">
	<path
   fill="#FFFFFF"
   d="M435.1,138.4h-7.5l-3.6-3.8v-3.5l3.5-3.8h7.6V138.4z M427.8,138.1h7.1v-10.5h-7.2l-3.3,3.7v3.3L427.8,138.1   z"
   id="path452" />
	<circle
   fill="#FFFFFF"
   cx="429.3"
   cy="129.6"
   r="0.9"
   id="circle454" />
	<circle
   fill="#FFFFFF"
   cx="429.3"
   cy="133.1"
   r="0.9"
   id="circle456" />
	<circle
   fill="#FFFFFF"
   cx="425.9"
   cy="133.1"
   r="0.9"
   id="circle458" />
	<circle
   fill="#FFFFFF"
   cx="429.3"
   cy="136.5"
   r="0.9"
   id="circle460" />
	
		<rect
   x="426.8"
   y="131.3"
   transform="matrix(0.7071 -0.7071 0.7071 0.7071 32.3703 340.9541)"
   fill="#FFFFFF"
   width="1.9"
   height="0.3"
   id="rect462" />
	
		<rect
   x="427.6"
   y="133.9"
   transform="matrix(0.7071 -0.7071 0.7071 0.7071 29.9203 341.9603)"
   fill="#FFFFFF"
   width="0.3"
   height="1.9"
   id="rect464" />
	<rect
   x="427.3"
   y="132.9"
   fill="#FFFFFF"
   width="1"
   height="0.3"
   id="rect466" />
	<g
   id="g474">
		<polygon
   fill="#FFFFFF"
   points="432.8,130.4 434.2,129.6 432.8,128.8 432.8,129.3 430.7,129.3 430.7,129.9 432.8,129.9   "
   id="polygon468" />
		<polygon
   fill="#FFFFFF"
   points="432.8,132.8 430.7,132.8 430.7,133.4 432.8,133.4 432.8,133.9 434.2,133.1 432.8,132.3   "
   id="polygon470" />
		<polygon
   fill="#FFFFFF"
   points="432.8,136.2 430.7,136.2 430.7,136.8 432.8,136.8 432.8,137.3 434.2,136.5 432.8,135.7   "
   id="polygon472" />
	</g>
</g>
<path
   fill="#79459B"
   d="M538.7,196.6H98.9c-12.3,0-22.4-10-22.4-22.4v0c0-12.3,10-22.4,22.4-22.4h439.8c12.3,0,22.4,10,22.4,22.4v0  C561,186.6,551,196.6,538.7,196.6z"
   id="path478" />
<g
   id="g494">
	<g
   id="g486">
		<polygon
   fill="#FFFFFF"
   points="90.6,163.6 90.6,169.6 85,173.8 80.1,171 79.5,172.1 84.4,174.8 84.4,182.2 81.3,184 81.9,185     85.6,182.9 85.6,174.8 91.8,170.1 91.7,163.6   "
   id="polygon480" />
		<path
   fill="#FFFFFF"
   d="M98.9,151.9c-12.3,0-22.4,10-22.4,22.4c0,12.3,10,22.4,22.4,22.4s22.4-10,22.4-22.4    C121.2,162,111.2,151.9,98.9,151.9z M96.8,153.2v4.3l-5.6,3.5l-5.4-3.4C88.9,155.2,92.7,153.6,96.8,153.2z M98.9,195.5    c-2.2,0-4.3-0.3-6.4-1v-7l6.4-3.6l6.3,3.6v4.3h1.2v-4.3l5.6-3.5l-0.7-1l-5.5,3.5l-6.9-4l-7,4l-5.1-3.2l-0.6,1l5.2,3.2v6.5    c-8-3.1-13.6-10.8-13.6-19.8c0-6.3,2.8-12,7.2-15.9l6.3,4l6.8-4.3v-5c0.3,0,0.6,0,0.8,0c5.2,0,9.9,1.9,13.6,5l-5.6,3.2l-6.4-3.7    l-0.6,1l7.1,4l6.6-3.8c3.1,2.9,5.2,6.7,6.2,10.9l-6.8,4.2v8.5l4.2,2.7C113.3,191.3,106.6,195.5,98.9,195.5z M117.6,184.2l-3.6-2.3    v-7.2l5.8-3.7c0.1,1,0.2,2.1,0.2,3.2C120.1,177.8,119.2,181.2,117.6,184.2z"
   id="path482" />
		<polygon
   fill="#FFFFFF"
   points="108,163.8 106.8,163.8 106.8,170.7 110.9,173.2 111.5,172.3 108,170   "
   id="polygon484" />
	</g>
	<g
   id="g492">
		<path
   fill-rule="evenodd"
   clip-rule="evenodd"
   fill="#FFFFFF"
   d="M102.4,170L102.4,170l0.1-3.4c0-1.9-1.5-3.4-3.3-3.4h-0.6    c-1.8,0-3.3,1.6-3.3,3.4v3.4h0.1c-1.5,1.1-2.5,2.9-2.5,4.8c0,3.3,2.7,6,6,6c3.3,0,6-2.7,6-6C104.9,172.8,103.9,171,102.4,170z     M96.4,166.6c0-1.2,0.9-2.3,2.1-2.3h0.6c1.2,0,2.1,1,2.1,2.3v2.8c-0.7-0.3-1.5-0.5-2.4-0.5c-0.8,0-1.6,0.2-2.4,0.5L96.4,166.6    L96.4,166.6z M98.9,179.6c-2.6,0-4.8-2.2-4.8-4.8c0-2.6,2.2-4.8,4.8-4.8c2.6,0,4.8,2.2,4.8,4.8    C103.7,177.5,101.5,179.6,98.9,179.6z"
   id="path488" />
		<path
   fill-rule="evenodd"
   clip-rule="evenodd"
   fill="#FFFFFF"
   d="M98.9,173.2c-0.6,0-1,0.4-1,1c0,0.4,0.2,0.7,0.5,0.8v1    c0,0.1,0.1,0.3,0.3,0.3h0.5c0.1,0,0.3-0.1,0.3-0.3v-1c0.3-0.2,0.5-0.5,0.5-0.8C99.9,173.7,99.4,173.2,98.9,173.2z"
   id="path490" />
	</g>
</g>
<text
   id="text186_4_"
   transform="translate(299.321,171.6925)"
   enable-background="new    "><tspan
     x="0"
     y="0"
     fill="#ffffff"
     font-family="'Metropolis-Regular'"
     font-size="12px"
     id="tspan496"
     style="font-style:normal;font-variant:normal;font-weight:normal;font-stretch:normal;font-family:Metropolis;-inkscape-font-specification:Metropolis">NSX</tspan><tspan
     x="-45"
     y="12"
     fill="#ffffff"
     font-family="'Metropolis-Regular'"
     font-size="12px"
     id="tspan498"
     style="font-style:normal;font-variant:normal;font-weight:normal;font-stretch:normal;font-family:Metropolis;-inkscape-font-specification:Metropolis">Micro-Segmentation</tspan></text>
</svg>
