<?xml version="1.0" encoding="UTF-8" standalone="no"?>
<!-- Generator: Adobe Illustrator 23.0.4, SVG Export Plug-In . SVG Version: 6.00 Build 0)  -->

<svg
   xmlns:dc="http://purl.org/dc/elements/1.1/"
   xmlns:cc="http://creativecommons.org/ns#"
   xmlns:rdf="http://www.w3.org/1999/02/22-rdf-syntax-ns#"
   xmlns:svg="http://www.w3.org/2000/svg"
   xmlns="http://www.w3.org/2000/svg"
   xmlns:sodipodi="http://sodipodi.sourceforge.net/DTD/sodipodi-0.dtd"
   xmlns:inkscape="http://www.inkscape.org/namespaces/inkscape"
   version="1.1"
   id="Layer_1"
   x="0px"
   y="0px"
   viewBox="0 0 494.6 457.2"
   enable-background="new 0 0 494.6 457.2"
   xml:space="preserve"
   sodipodi:docname="Single-Tier Topology.svg"
   inkscape:version="0.92.4 (5da689c313, 2019-01-14)"><metadata
   id="metadata1748"><rdf:RDF><cc:Work
       rdf:about=""><dc:format>image/svg+xml</dc:format><dc:type
         rdf:resource="http://purl.org/dc/dcmitype/StillImage" /><dc:title></dc:title></cc:Work></rdf:RDF></metadata><defs
   id="defs1746" /><sodipodi:namedview
   pagecolor="#ffffff"
   bordercolor="#666666"
   borderopacity="1"
   objecttolerance="10"
   gridtolerance="10"
   guidetolerance="10"
   inkscape:pageopacity="0"
   inkscape:pageshadow="2"
   inkscape:window-width="1920"
   inkscape:window-height="1017"
   id="namedview1744"
   showgrid="false"
   inkscape:zoom="1.459993"
   inkscape:cx="247.3"
   inkscape:cy="228.60001"
   inkscape:window-x="-8"
   inkscape:window-y="-8"
   inkscape:window-maximized="1"
   inkscape:current-layer="Layer_1" />


<text
   transform="matrix(1 0 0 1 196.1717 317.1969)"
   fill="#7AB929"
   font-family="'Metropolis-Regular'"
   font-size="14px"
   id="text1673">Tier-0 Gateway</text>

<text
   transform="matrix(1 0 0 1 192.288 98.5131)"
   font-family="'Metropolis-Regular'"
   font-size="14px"
   id="text1675">Physical Routers</text>

<g
   id="g1689">
	<path
   fill="#7AB929"
   d="M246.9,208c24.1-0.2,43.8,19.1,44.1,43.2s-19.1,43.8-43.2,44.1c-24.1,0.2-43.8-19.1-44.1-43.2   C203.4,228,222.8,208.2,246.9,208 M246.8,205.6c-25.4,0.3-45.8,21.1-45.6,46.5c0.3,25.4,21.1,45.8,46.5,45.6s45.8-21.1,45.6-46.5   S272.3,205.3,246.8,205.6L246.8,205.6z"
   id="path1677" />
	<g
   id="g1687">
		<polygon
   fill="#7AB929"
   points="228.5,249.4 210.7,249.6 210.7,254.4 228.5,254.2 228.5,258.3 239.8,251.7 228.4,245.3   "
   id="polygon1679" />
		<polygon
   fill="#7AB929"
   points="283.9,248.8 266.1,249 266.1,244.9 254.8,251.5 266.2,258 266.1,253.8 283.9,253.7   "
   id="polygon1681" />
		<polygon
   fill="#7AB929"
   points="240.5,227.2 244.6,227.1 244.8,244.9 249.7,244.8 249.5,227.1 253.6,227 246.9,215.8   "
   id="polygon1683" />
		<polygon
   fill="#7AB929"
   points="249.8,258.3 244.9,258.4 245.1,276.2 241,276.2 247.7,287.5 254.1,276.1 250,276.1   "
   id="polygon1685" />
	</g>
</g>
<g
   id="g1703">
	<path
   fill="#717074"
   d="M385.1,50.9c24.1-0.2,43.8,19.1,44.1,43.2s-19.1,43.8-43.2,44.1c-24.1,0.2-43.8-19.1-44.1-43.2   S361,51.2,385.1,50.9 M385.1,48.5c-25.4,0.3-45.8,21.1-45.6,46.5s21.1,45.8,46.5,45.6c25.4-0.3,45.8-21.1,45.6-46.5   S410.5,48.2,385.1,48.5L385.1,48.5z"
   id="path1691" />
	<g
   id="g1701">
		<polygon
   fill="#717074"
   points="366.7,92.3 348.9,92.5 348.9,97.3 366.7,97.2 366.8,101.3 378,94.6 366.6,88.2   "
   id="polygon1693" />
		<polygon
   fill="#717074"
   points="422.1,91.7 404.3,91.9 404.3,87.8 393.1,94.5 404.4,100.9 404.4,96.8 422.2,96.6   "
   id="polygon1695" />
		<polygon
   fill="#717074"
   points="378.7,70.1 382.9,70 383,87.8 387.9,87.8 387.7,70 391.8,69.9 385.2,58.7   "
   id="polygon1697" />
		<polygon
   fill="#717074"
   points="388,101.3 383.2,101.3 383.4,119.1 379.3,119.1 385.9,130.4 392.3,119 388.2,119   "
   id="polygon1699" />
	</g>
</g>
<g
   id="g1717">
	<path
   fill="#717074"
   d="M108.6,50.9c24.1-0.2,43.8,19.1,44.1,43.2s-19.1,43.8-43.2,44.1c-24.1,0.2-43.8-19.1-44.1-43.2   C65.2,70.9,84.6,51.2,108.6,50.9 M108.6,48.5C83.2,48.8,62.8,69.6,63,95s21.1,45.8,46.5,45.6c25.4-0.3,45.8-21.1,45.6-46.5   C154.9,68.6,134,48.2,108.6,48.5L108.6,48.5z"
   id="path1705" />
	<g
   id="g1715">
		<polygon
   fill="#717074"
   points="90.2,92.3 72.4,92.5 72.5,97.3 90.3,97.2 90.3,101.3 101.6,94.6 90.2,88.2   "
   id="polygon1707" />
		<polygon
   fill="#717074"
   points="145.7,91.7 127.9,91.9 127.8,87.8 116.6,94.5 128,100.9 127.9,96.8 145.7,96.6   "
   id="polygon1709" />
		<polygon
   fill="#717074"
   points="102.3,70.1 106.4,70 106.6,87.8 111.4,87.8 111.2,70 115.3,69.9 108.7,58.7   "
   id="polygon1711" />
		<polygon
   fill="#717074"
   points="111.6,101.3 106.7,101.3 106.9,119.1 102.8,119.1 109.4,130.4 115.9,119 111.7,119   "
   id="polygon1713" />
	</g>
</g>
<text
   transform="matrix(1 0 0 1 72.1495 433.5048)"
   fill="#2BB9CF"
   font-family="'Metropolis-Regular'"
   font-size="14px"
   id="text1719">Segment A</text>

<line
   fill="none"
   stroke="#2BB9CF"
   stroke-miterlimit="10"
   x1="56.6"
   y1="415.1"
   x2="161.6"
   y2="415.1"
   id="line1721" />
<line
   fill="none"
   stroke="#2BB9CF"
   stroke-miterlimit="10"
   x1="163"
   y1="409.2"
   x2="163"
   y2="421"
   id="line1723" />
<line
   fill="none"
   stroke="#2BB9CF"
   stroke-miterlimit="10"
   x1="55.1"
   y1="409.2"
   x2="55.1"
   y2="421"
   id="line1725" />
<text
   transform="matrix(1 0 0 1 348.8674 433.5048)"
   fill="#1B8ECE"
   font-family="'Metropolis-Regular'"
   font-size="14px"
   id="text1727">Segment B</text>

<line
   fill="none"
   stroke="#1B8ECE"
   stroke-miterlimit="10"
   x1="333"
   y1="415.1"
   x2="438"
   y2="415.1"
   id="line1729" />
<line
   fill="none"
   stroke="#1B8ECE"
   stroke-miterlimit="10"
   x1="439.5"
   y1="409.2"
   x2="439.5"
   y2="421"
   id="line1731" />
<line
   fill="none"
   stroke="#1B8ECE"
   stroke-miterlimit="10"
   x1="331.6"
   y1="409.2"
   x2="331.6"
   y2="421"
   id="line1733" />
<polyline
   fill="none"
   stroke="#2BB9CF"
   stroke-miterlimit="10"
   points="109.3,409.2 109.3,251.4 193.4,251.4 "
   id="polyline1735"
   style="stroke-width:1;stroke-miterlimit:10;stroke-dasharray:6,1;stroke-dashoffset:0" />
<polyline
   fill="none"
   stroke="#1B8ECE"
   stroke-miterlimit="10"
   points="385.3,409.2 385.3,251.4 301.2,251.4 "
   id="polyline1737"
   style="stroke-width:1;stroke-miterlimit:10;stroke-dasharray:6,1;stroke-dashoffset:0" />
<polyline
   fill="none"
   stroke="#717074"
   stroke-miterlimit="10"
   points="108.8,148.1 108.8,239 193.4,239 "
   id="polyline1739" />
<polyline
   fill="none"
   stroke="#717074"
   stroke-miterlimit="10"
   points="384.2,148.1 384.2,239 299.6,239 "
   id="polyline1741" />
</svg>