<?xml version="1.0" encoding="UTF-8" standalone="no"?>
<svg
   xmlns:dc="http://purl.org/dc/elements/1.1/"
   xmlns:cc="http://creativecommons.org/ns#"
   xmlns:rdf="http://www.w3.org/1999/02/22-rdf-syntax-ns#"
   xmlns:svg="http://www.w3.org/2000/svg"
   xmlns="http://www.w3.org/2000/svg"
   xmlns:sodipodi="http://sodipodi.sourceforge.net/DTD/sodipodi-0.dtd"
   xmlns:inkscape="http://www.inkscape.org/namespaces/inkscape"
   version="1.1"
   id="Layer_1"
   x="0px"
   y="0px"
   viewBox="0 0 388.65446 432.62845"
   enable-background="new 0 0 364.3 460.4"
   xml:space="preserve"
   sodipodi:docname="SNAT.svg"
   inkscape:version="1.0 (4035a4fb49, 2020-05-01)"
   width="388.65445"
   height="432.62845"><metadata
   id="metadata107"><rdf:RDF><cc:Work
       rdf:about=""><dc:format>image/svg+xml</dc:format><dc:type
         rdf:resource="http://purl.org/dc/dcmitype/StillImage" /><dc:title></dc:title></cc:Work></rdf:RDF></metadata><defs
   id="defs105" /><sodipodi:namedview
   pagecolor="#ffffff"
   bordercolor="#666666"
   borderopacity="1"
   objecttolerance="10"
   gridtolerance="10"
   guidetolerance="10"
   inkscape:pageopacity="0"
   inkscape:pageshadow="2"
   inkscape:window-width="1920"
   inkscape:window-height="1017"
   id="namedview103"
   showgrid="false"
   inkscape:zoom="1.4498454"
   inkscape:cx="304.31273"
   inkscape:cy="201.38563"
   inkscape:window-x="1912"
   inkscape:window-y="-8"
   inkscape:window-maximized="1"
   inkscape:current-layer="Layer_1"
   inkscape:document-rotation="0" />
<path
   fill="#00c1d5"
   d="m 241.3305,263.90231 c 15.1,-0.2 27.5,12 27.7,27.1 0.2,15.1 -12,27.5 -27.1,27.7 -15.1,0.2 -27.5,-12 -27.7,-27.1 -0.2,-15.2 12,-27.6 27.1,-27.7 m 0,-1.5 c -16,0.2 -28.8,13.2 -28.6,29.2 0.2,16 13.2,28.8 29.2,28.6 16,-0.2 28.8,-13.2 28.6,-29.2 -0.2,-16 -13.3,-28.8 -29.2,-28.6 z"
   id="path2" />
<g
   id="g12"
   transform="translate(-9.7695,-12.297688)">
	<polygon
   fill="#00c1d5"
   points="239.6,307.8 246.7,303.6 239.5,299.6 239.5,302.2 228.4,302.3 228.4,305.3 239.6,305.2 "
   id="polygon4" />
	<polygon
   fill="#00c1d5"
   points="263.2,307.5 263.2,305 274.4,304.8 274.3,301.8 263.2,301.9 263.1,299.3 256.1,303.5 "
   id="polygon6" />
	<polygon
   fill="#00c1d5"
   points="252.7,288.1 255.3,288.1 251.1,281.1 247.1,288.2 249.7,288.2 249.8,299.3 252.9,299.3 "
   id="polygon8" />
	<polygon
   fill="#00c1d5"
   points="251.6,326 255.6,318.9 253.1,318.9 252.9,307.8 249.9,307.8 250,319 247.4,319 "
   id="polygon10" />
</g>
<g
   id="g26"
   transform="translate(-9.7695,-12.297688)">
	<path
   fill="#78be20"
   d="m 251.1,144 c 15.1,-0.2 27.5,12 27.7,27.1 0.2,15.1 -12,27.5 -27.1,27.7 -15.1,0.2 -27.5,-12 -27.7,-27.1 -0.2,-15.1 12,-27.5 27.1,-27.7 m 0,-1.5 c -16,0.2 -28.8,13.2 -28.6,29.2 0.2,16 13.2,28.8 29.2,28.6 16,-0.2 28.8,-13.2 28.6,-29.2 -0.2,-15.9 -13.3,-28.7 -29.2,-28.6 z"
   id="path14" />
	<g
   id="g24">
		<polygon
   fill="#78be20"
   points="239.6,175.6 246.7,171.5 239.5,167.4 239.5,170 228.4,170.1 228.4,173.2 239.6,173.1 "
   id="polygon16" />
		<polygon
   fill="#78be20"
   points="263.2,175.4 263.2,172.8 274.4,172.7 274.3,169.7 263.2,169.8 263.1,167.2 256.1,171.4 "
   id="polygon18" />
		<polygon
   fill="#78be20"
   points="252.7,156 255.3,156 251.1,148.9 247.1,156.1 249.7,156 249.8,167.2 252.9,167.2 "
   id="polygon20" />
		<polygon
   fill="#78be20"
   points="251.6,193.9 255.6,186.8 253.1,186.8 252.9,175.6 249.9,175.7 250,186.8 247.4,186.9 "
   id="polygon22" />
	</g>
</g>
<line
   fill="none"
   stroke="#00c1d5"
   stroke-miterlimit="10"
   x1="126.0305"
   y1="353.7023"
   x2="207.13049"
   y2="353.7023"
   id="line28" />
<g
   id="g34"
   transform="translate(-9.7695,-12.297688)">
	<line
   fill="none"
   stroke="#00c1d5"
   stroke-miterlimit="10"
   x1="218.10001"
   y1="362"
   x2="218.10001"
   y2="370.10001"
   id="line30" />
	<line
   fill="none"
   stroke="#00c1d5"
   stroke-miterlimit="10"
   x1="134.60001"
   y1="362"
   x2="134.60001"
   y2="370.10001"
   id="line32" />
</g>
<g
   id="g44"
   transform="translate(-9.7695,-12.297688)">
	<polygon
   fill="#00c1d5"
   points="191.2,411 190.4,411 190.4,382.3 162.2,382.3 162.2,410.5 187,410.5 187,411.3 161.4,411.3 161.4,381.5 191.2,381.5 "
   id="polygon36" />
	<g
   id="g42">
		<path
   fill="#00c1d5"
   d="m 170.4,394.6 h 0.7 l 1.3,3.4 1.3,-3.4 h 0.7 l -1.7,4.1 h -0.6 z"
   id="path38" />
		<path
   fill="#00c1d5"
   d="m 181.4,396.1 v 2.6 h -0.6 v -2.5 c 0,-0.7 -0.4,-1.1 -0.9,-1.1 -0.6,0 -1.1,0.4 -1.1,1 v 2.6 h -0.6 v -2.5 c 0,-0.7 -0.4,-1.1 -0.9,-1.1 -0.6,0 -1.1,0.4 -1.1,1 v 2.6 h -0.6 v -4.1 h 0.6 v 0.6 c 0.2,-0.4 0.6,-0.7 1.2,-0.7 0.6,0 1.1,0.3 1.3,0.9 0.2,-0.5 0.7,-0.9 1.3,-0.9 0.8,0 1.4,0.7 1.4,1.6 z"
   id="path40" />
	</g>
</g>
<line
   fill="none"
   stroke="#00c1d5"
   stroke-miterlimit="10"
   x1="165.83051"
   y1="356.30231"
   x2="165.83051"
   y2="366.80231"
   id="line46" />
<polyline
   fill="none"
   stroke="#00c1d5"
   stroke-miterlimit="10"
   points="218.3,316.9 206.8,316.9 206.8,362 "
   id="polyline48"
   transform="translate(-9.7695,-12.297688)" />
<line
   fill="none"
   stroke="#717074"
   stroke-miterlimit="10"
   x1="241.4305"
   y1="195.80232"
   x2="241.4305"
   y2="252.70232"
   id="line50" />
<g
   id="g64"
   transform="translate(-9.7695,-12.297688)">
	<path
   fill="#717074"
   d="m 251.1,13.8 c 15.1,-0.2 27.5,12 27.7,27.1 C 279,56 266.8,68.4 251.7,68.6 236.6,68.8 224.2,56.6 224,41.5 223.8,26.4 236,14 251.1,13.8 m 0,-1.5 c -16,0.2 -28.8,13.2 -28.6,29.2 0.2,16 13.2,28.8 29.2,28.6 16,-0.2 28.8,-13.2 28.6,-29.2 -0.2,-16 -13.3,-28.8 -29.2,-28.6 z"
   id="path52" />
	<g
   id="g62">
		<polygon
   fill="#717074"
   points="239.6,45.4 246.7,41.3 239.5,37.2 239.5,39.8 228.4,39.9 228.4,43 239.6,42.8 "
   id="polygon54" />
		<polygon
   fill="#717074"
   points="263.2,45.2 263.2,42.6 274.4,42.5 274.3,39.4 263.2,39.6 263.1,37 256.1,41.2 "
   id="polygon56" />
		<polygon
   fill="#717074"
   points="252.7,25.8 255.3,25.8 251.1,18.7 247.1,25.8 249.7,25.8 249.8,37 252.9,36.9 "
   id="polygon58" />
		<polygon
   fill="#717074"
   points="251.6,63.7 255.6,56.6 253.1,56.6 252.9,45.4 249.9,45.5 250,56.6 247.4,56.6 "
   id="polygon60" />
	</g>
</g>
<line
   fill="none"
   stroke="#717074"
   stroke-miterlimit="10"
   x1="241.4305"
   y1="65.502312"
   x2="241.4305"
   y2="122.50231"
   id="line66" />
<text
   font-family="Metropolis-Regular"
   font-size="14px"
   id="text68"
   x="133.5358"
   y="24.530712">Physical</text>


<text
   font-family="Metropolis-Regular"
   font-size="14px"
   id="text70"
   x="138.0358"
   y="41.330711">Router</text>


<text
   font-size="14px"
   id="text72"
   x="249.22476"
   y="256.18805"
   style="font-size:24px;font-family:Metropolis-Regular;fill:#1a428a">Source NAT</text>


<text
   font-size="14px"
   id="text74"
   style="font-size:14px;font-family:Metropolis-Regular;fill:#00c1d5"
   x="272.54099"
   y="296.66125">T1-GW-01</text>


<text
   font-size="14px"
   id="text76"
   style="font-size:14px;font-family:Metropolis-Regular;fill:#78be20"
   x="270.89233"
   y="163.42538">T0-GW-01</text>


<text
   font-size="14px"
   id="text78"
   x="244.05814"
   y="121.83508"
   style="font-size:14px;font-family:Metropolis-Regular">192.168.100.2</text>


<text
   font-size="14px"
   id="text80"
   x="244.05814"
   y="75.79174"
   style="font-size:14px;font-family:Metropolis-Regular">192.168.100.1</text>


<text
   fill="#00c1d5"
   font-family="Metropolis-Regular"
   font-size="14px"
   id="text82"
   x="10"
   y="327.18222">Source IP: 172.16.101.11</text>


<text
   fill="#00c1d5"
   font-family="Metropolis-Regular"
   font-size="14px"
   id="text84"
   y="343.9823">Translated IP: 80.80.80.1</text>


<text
   font-size="14px"
   id="text86"
   style="font-size:14px;font-family:Metropolis-Regular"
   x="223.8129"
   y="357.7644">NAT-Segment</text>


<text
   font-size="12px"
   id="text88"
   style="font-size:12px;font-family:Metropolis-Regular"
   x="141.48351"
   y="414.6055">NAT VM</text>


<text
   fill="#00c1d5"
   font-family="Metropolis-Regular"
   font-size="12px"
   id="text90"
   x="124.2101"
   y="432.44681">IP: 172.16.101.11</text>


<g
   id="g100"
   transform="translate(-9.7695,-12.297688)">
	<g
   id="g98">
		<path
   fill="none"
   stroke="#78be20"
   stroke-miterlimit="10"
   stroke-dasharray="4, 4"
   d="m 167.2,377.3 c 0,-11.2 13.5,-23.8 27.7,-34.9 24.1,-18.8 36.9,-19.4 44.6,-34.6 4.8,-9.5 2.8,-15.1 2.2,-44.3 -0.5,-20.8 0.8,-4.6 0.9,-55 0.1,-47.7 -1,-98.5 -1.7,-124"
   id="path92" />
		<g
   id="g96">
			<polygon
   fill="#78be20"
   points="240.9,77.3 236.1,86 246,85.8 "
   id="polygon94" />
		</g>
	</g>
</g>
</svg>
