<?xml version="1.0" encoding="UTF-8" standalone="no"?>
<svg
   xmlns:dc="http://purl.org/dc/elements/1.1/"
   xmlns:cc="http://creativecommons.org/ns#"
   xmlns:rdf="http://www.w3.org/1999/02/22-rdf-syntax-ns#"
   xmlns:svg="http://www.w3.org/2000/svg"
   xmlns="http://www.w3.org/2000/svg"
   xmlns:sodipodi="http://sodipodi.sourceforge.net/DTD/sodipodi-0.dtd"
   xmlns:inkscape="http://www.inkscape.org/namespaces/inkscape"
   xml:space="preserve"
   enable-background="new 0 0 686.3 477.3"
   viewBox="0 0 686.3 477.3"
   y="0px"
   x="0px"
   sodipodi:docname="StandardSwitch_SharedNetwork.svg"
   inkscape:version="1.0 (4035a4f, 2020-05-01)"
   id="Layer_1"
   version="1.1"><metadata
   id="metadata255"><rdf:RDF><cc:Work
       rdf:about=""><dc:format>image/svg+xml</dc:format><dc:type
         rdf:resource="http://purl.org/dc/dcmitype/StillImage" /></cc:Work></rdf:RDF></metadata><defs
   id="defs253" />
<rect
   id="rect10"
   height="476.8"
   width="685.8"
   fill="#FFFFFF"
   y="0.5"
   x="0.5" />
<sodipodi:namedview
   inkscape:document-rotation="0"
   showgrid="false"
   pagecolor="#ffffff"
   objecttolerance="10"
   inkscape:zoom="1.3886056"
   inkscape:window-y="23"
   inkscape:window-x="0"
   inkscape:window-width="1587"
   inkscape:window-maximized="0"
   inkscape:window-height="931"
   inkscape:pageshadow="2"
   inkscape:pageopacity="0"
   inkscape:cy="238.64999"
   inkscape:cx="343.14999"
   inkscape:current-layer="Layer_1"
   id="namedview6475"
   guidetolerance="10"
   gridtolerance="10"
   borderopacity="1"
   bordercolor="#666666">
	</sodipodi:namedview>
<rect
   height="101.9"
   width="580.6"
   fill="#19BFD3"
   y="204.5"
   x="49.5"
   id="rect6017" />
<text
   style="-inkscape-font-specification:Metropolis;font-family:Metropolis;font-weight:normal;font-style:normal;font-stretch:normal;font-variant:normal;"
   font-size="14px"
   font-family="'Metropolis-Regular'"
   transform="matrix(1 0 0 1 179.2125 321.1177)"
   id="text2344_5_">Uplink Ports</text>
<text
   style="font-style:normal;font-variant:normal;font-weight:normal;font-stretch:normal;font-size:14px;font-family:Metropolis;-inkscape-font-specification:'Metropolis, Normal';font-variant-ligatures:normal;font-variant-caps:normal;font-variant-numeric:normal;font-variant-east-asian:normal"
   font-size="14px"
   font-family="'Metropolis-Regular'"
   id="text2344_6_"
   x="196.56755"
   y="391.0163"><tspan
     sodipodi:role="line"
     id="tspan1733"
     x="196.56755"
     y="391.0163">ESXi Host</tspan></text>
<text
   y="292.79019"
   x="507.22986"
   style="font-style:normal;font-variant:normal;font-weight:normal;font-stretch:normal;font-size:14px;font-family:Metropolis;-inkscape-font-specification:'Metropolis, Normal';font-variant-ligatures:normal;font-variant-caps:normal;font-variant-numeric:normal;font-variant-east-asian:normal;fill:#ffffff"
   font-size="14px"
   font-family="'Metropolis-Regular'"
   id="text2344_8_"><tspan
     y="292.79019"
     x="507.22986"
     id="tspan1487"
     sodipodi:role="line">Standard Switch</tspan></text>
<text
   style="-inkscape-font-specification:Metropolis;font-family:Metropolis;font-weight:normal;font-style:normal;font-stretch:normal;font-variant:normal;"
   font-size="14px"
   font-family="'Metropolis-Regular'"
   transform="matrix(1 0 0 1 172.7144 438.0395)"
   id="text2344_7_">Physical NICs</text>

<text
   style="-inkscape-font-specification:Metropolis;font-family:Metropolis;font-weight:normal;font-style:normal;font-stretch:normal;font-variant:normal;"
   font-size="14px"
   font-family="'Metropolis-Regular'"
   transform="matrix(1 0 0 1 34.1185 157.9972)"
   id="text2344_4_">ESXi</text>
<rect
   height="36.2"
   width="141.8"
   stroke-miterlimit="10"
   stroke="#000000"
   fill="#FFFFFF"
   y="288.2"
   x="268.9"
   id="rect6026" />
<g
   id="g6050">
	<path
   d="M296.7,316.2h-18c-1.2,0-2.2-1-2.2-2.2v-15.3c0-1.2,1-2.2,2.2-2.2h18c1.2,0,2.2,1,2.2,2.2   V314C299,315.2,298,316.2,296.7,316.2z"
   fill="#3E4044"
   id="path6028" />
	<path
   d="M278.7,297c-0.9,0-1.6,0.7-1.6,1.6v15.3c0,0.9,0.7,1.6,1.6,1.6h18c0.9,0,1.6-0.7,1.6-1.6   v-15.3c0-0.9-0.7-1.6-1.6-1.6H278.7z"
   fill="#FFFFFF"
   id="path6030" />
	<path
   d="M296.7,314.8h-18c-0.4,0-0.8-0.3-0.8-0.8v-15.3c0-0.4,0.3-0.8,0.8-0.8h18   c0.4,0,0.8,0.3,0.8,0.8V314C297.5,314.5,297.2,314.8,296.7,314.8z M278.7,298.1c-0.3,0-0.5,0.2-0.5,0.5v15.3c0,0.3,0.2,0.5,0.5,0.5   h18c0.3,0,0.5-0.2,0.5-0.5v-15.3c0-0.3-0.2-0.5-0.5-0.5H278.7z"
   fill="#3E4044"
   id="path6032" />
	<path
   d="M295.4,299.3h-15.3c-0.4,0-0.6,0.3-0.6,0.6v7.7c0,0.4,0.3,0.6,0.6,0.6h0.6v1.9   c0,0.4,0.3,0.6,0.6,0.6h1.9v1.9c0,0.4,0.3,0.6,0.6,0.6h7.7c0.4,0,0.6-0.3,0.6-0.6v-1.9h1.9c0.4,0,0.6-0.3,0.6-0.6v-1.8h0.6   c0.4,0,0.6-0.3,0.6-0.6V300C296.1,299.6,295.8,299.3,295.4,299.3z"
   fill="#3E4044"
   id="path6034" />
	<path
   d="M281.3,312.1H280c-0.4,0-0.6,0.3-0.6,0.6s0.3,0.6,0.6,0.6h1.3c0.4,0,0.6-0.3,0.6-0.6   S281.7,312.1,281.3,312.1z"
   fill="#3E4044"
   id="path6036" />
	<path
   d="M295.4,312.1h-1.3c-0.4,0-0.6,0.3-0.6,0.6s0.3,0.6,0.6,0.6h1.3c0.4,0,0.6-0.3,0.6-0.6   S295.8,312.1,295.4,312.1z"
   fill="#3E4044"
   id="path6038" />
	<path
   d="M282.6,305.7c0.4,0,0.6-0.3,0.6-0.6v-2.5c0-0.4-0.3-0.6-0.6-0.6s-0.6,0.3-0.6,0.6v2.6   C282,305.4,282.3,305.7,282.6,305.7z"
   fill="#FFFFFF"
   id="path6040" />
	<path
   d="M285.2,305.7c0.4,0,0.6-0.3,0.6-0.6v-2.5c0-0.4-0.3-0.6-0.6-0.6s-0.6,0.3-0.6,0.6v2.6   C284.6,305.4,284.8,305.7,285.2,305.7z"
   fill="#FFFFFF"
   id="path6042" />
	<path
   d="M287.7,305.7c0.4,0,0.6-0.3,0.6-0.6v-2.5c0-0.4-0.3-0.6-0.6-0.6s-0.6,0.3-0.6,0.6v2.6   C287.1,305.4,287.4,305.7,287.7,305.7z"
   fill="#FFFFFF"
   id="path6044" />
	<path
   d="M290.3,305.7c0.4,0,0.6-0.3,0.6-0.6v-2.5c0-0.4-0.3-0.6-0.6-0.6s-0.6,0.3-0.6,0.6v2.6   C289.7,305.4,289.9,305.7,290.3,305.7z"
   fill="#FFFFFF"
   id="path6046" />
	<path
   d="M292.8,305.7c0.4,0,0.6-0.3,0.6-0.6v-2.5c0-0.4-0.3-0.6-0.6-0.6c-0.4,0-0.6,0.3-0.6,0.6v2.6   C292.2,305.4,292.5,305.7,292.8,305.7z"
   fill="#FFFFFF"
   id="path6048" />
</g>
<g
   id="g6050_1_">
	<path
   d="M330.3,316.2h-18c-1.2,0-2.2-1-2.2-2.2v-15.3c0-1.2,1-2.2,2.2-2.2h18c1.2,0,2.2,1,2.2,2.2   V314C332.6,315.2,331.6,316.2,330.3,316.2z"
   fill="#3E4044"
   id="path6028_1_" />
	<path
   d="M312.3,297c-0.9,0-1.6,0.7-1.6,1.6v15.3c0,0.9,0.7,1.6,1.6,1.6h18c0.9,0,1.6-0.7,1.6-1.6   v-15.3c0-0.9-0.7-1.6-1.6-1.6H312.3z"
   fill="#FFFFFF"
   id="path6030_1_" />
	<path
   d="M330.3,314.8h-18c-0.4,0-0.8-0.3-0.8-0.8v-15.3c0-0.4,0.3-0.8,0.8-0.8h18   c0.4,0,0.8,0.3,0.8,0.8V314C331.1,314.5,330.8,314.8,330.3,314.8z M312.3,298.1c-0.3,0-0.5,0.2-0.5,0.5v15.3c0,0.3,0.2,0.5,0.5,0.5   h18c0.3,0,0.5-0.2,0.5-0.5v-15.3c0-0.3-0.2-0.5-0.5-0.5H312.3z"
   fill="#3E4044"
   id="path6032_1_" />
	<path
   d="M329,299.3h-15.3c-0.4,0-0.6,0.3-0.6,0.6v7.7c0,0.4,0.3,0.6,0.6,0.6h0.6v1.9   c0,0.4,0.3,0.6,0.6,0.6h1.9v1.9c0,0.4,0.3,0.6,0.6,0.6h7.7c0.4,0,0.6-0.3,0.6-0.6v-1.9h1.9c0.4,0,0.6-0.3,0.6-0.6v-1.8h0.6   c0.4,0,0.6-0.3,0.6-0.6V300C329.7,299.6,329.4,299.3,329,299.3z"
   fill="#3E4044"
   id="path6034_1_" />
	<path
   d="M314.9,312.1h-1.3c-0.4,0-0.6,0.3-0.6,0.6s0.3,0.6,0.6,0.6h1.3c0.4,0,0.6-0.3,0.6-0.6   S315.3,312.1,314.9,312.1z"
   fill="#3E4044"
   id="path6036_1_" />
	<path
   d="M329,312.1h-1.3c-0.4,0-0.6,0.3-0.6,0.6s0.3,0.6,0.6,0.6h1.3c0.4,0,0.6-0.3,0.6-0.6   S329.4,312.1,329,312.1z"
   fill="#3E4044"
   id="path6038_1_" />
	<path
   d="M316.2,305.7c0.4,0,0.6-0.3,0.6-0.6v-2.5c0-0.4-0.3-0.6-0.6-0.6s-0.6,0.3-0.6,0.6v2.6   C315.6,305.4,315.9,305.7,316.2,305.7z"
   fill="#FFFFFF"
   id="path6040_1_" />
	<path
   d="M318.8,305.7c0.4,0,0.6-0.3,0.6-0.6v-2.5c0-0.4-0.3-0.6-0.6-0.6s-0.6,0.3-0.6,0.6v2.6   C318.2,305.4,318.4,305.7,318.8,305.7z"
   fill="#FFFFFF"
   id="path6042_1_" />
	<path
   d="M321.3,305.7c0.4,0,0.6-0.3,0.6-0.6v-2.5c0-0.4-0.3-0.6-0.6-0.6s-0.6,0.3-0.6,0.6v2.6   C320.7,305.4,321,305.7,321.3,305.7z"
   fill="#FFFFFF"
   id="path6044_1_" />
	<path
   d="M323.9,305.7c0.4,0,0.6-0.3,0.6-0.6v-2.5c0-0.4-0.3-0.6-0.6-0.6s-0.6,0.3-0.6,0.6v2.6   C323.3,305.4,323.5,305.7,323.9,305.7z"
   fill="#FFFFFF"
   id="path6046_1_" />
	<path
   d="M326.4,305.7c0.4,0,0.6-0.3,0.6-0.6v-2.5c0-0.4-0.3-0.6-0.6-0.6c-0.4,0-0.6,0.3-0.6,0.6   v2.6C325.8,305.4,326.1,305.7,326.4,305.7z"
   fill="#FFFFFF"
   id="path6048_1_" />
</g>
<g
   id="g6050_2_">
	<path
   d="M363.9,316.2h-18c-1.2,0-2.2-1-2.2-2.2v-15.3c0-1.2,1-2.2,2.2-2.2h18c1.2,0,2.2,1,2.2,2.2   V314C366.2,315.2,365.2,316.2,363.9,316.2z"
   fill="#3E4044"
   id="path6028_2_" />
	<path
   d="M345.9,297c-0.9,0-1.6,0.7-1.6,1.6v15.3c0,0.9,0.7,1.6,1.6,1.6h18c0.9,0,1.6-0.7,1.6-1.6   v-15.3c0-0.9-0.7-1.6-1.6-1.6H345.9z"
   fill="#FFFFFF"
   id="path6030_2_" />
	<path
   d="M363.9,314.8h-18c-0.4,0-0.8-0.3-0.8-0.8v-15.3c0-0.4,0.3-0.8,0.8-0.8h18   c0.4,0,0.8,0.3,0.8,0.8V314C364.7,314.5,364.4,314.8,363.9,314.8z M345.9,298.1c-0.3,0-0.5,0.2-0.5,0.5v15.3c0,0.3,0.2,0.5,0.5,0.5   h18c0.3,0,0.5-0.2,0.5-0.5v-15.3c0-0.3-0.2-0.5-0.5-0.5H345.9z"
   fill="#3E4044"
   id="path6032_2_" />
	<path
   d="M362.6,299.3h-15.3c-0.4,0-0.6,0.3-0.6,0.6v7.7c0,0.4,0.3,0.6,0.6,0.6h0.6v1.9   c0,0.4,0.3,0.6,0.6,0.6h1.9v1.9c0,0.4,0.3,0.6,0.6,0.6h7.7c0.4,0,0.6-0.3,0.6-0.6v-1.9h1.9c0.4,0,0.6-0.3,0.6-0.6v-1.8h0.6   c0.4,0,0.6-0.3,0.6-0.6V300C363.3,299.6,363,299.3,362.6,299.3z"
   fill="#3E4044"
   id="path6034_2_" />
	<path
   d="M348.5,312.1h-1.3c-0.4,0-0.6,0.3-0.6,0.6s0.3,0.6,0.6,0.6h1.3c0.4,0,0.6-0.3,0.6-0.6   S348.9,312.1,348.5,312.1z"
   fill="#3E4044"
   id="path6036_2_" />
	<path
   d="M362.6,312.1h-1.3c-0.4,0-0.6,0.3-0.6,0.6s0.3,0.6,0.6,0.6h1.3c0.4,0,0.6-0.3,0.6-0.6   S363,312.1,362.6,312.1z"
   fill="#3E4044"
   id="path6038_2_" />
	<path
   d="M349.8,305.7c0.4,0,0.6-0.3,0.6-0.6v-2.5c0-0.4-0.3-0.6-0.6-0.6s-0.6,0.3-0.6,0.6v2.6   C349.2,305.4,349.5,305.7,349.8,305.7z"
   fill="#FFFFFF"
   id="path6040_2_" />
	<path
   d="M352.4,305.7c0.4,0,0.6-0.3,0.6-0.6v-2.5c0-0.4-0.3-0.6-0.6-0.6s-0.6,0.3-0.6,0.6v2.6   C351.8,305.4,352,305.7,352.4,305.7z"
   fill="#FFFFFF"
   id="path6042_2_" />
	<path
   d="M354.9,305.7c0.4,0,0.6-0.3,0.6-0.6v-2.5c0-0.4-0.3-0.6-0.6-0.6s-0.6,0.3-0.6,0.6v2.6   C354.3,305.4,354.6,305.7,354.9,305.7z"
   fill="#FFFFFF"
   id="path6044_2_" />
	<path
   d="M357.5,305.7c0.4,0,0.6-0.3,0.6-0.6v-2.5c0-0.4-0.3-0.6-0.6-0.6s-0.6,0.3-0.6,0.6v2.6   C356.9,305.4,357.1,305.7,357.5,305.7z"
   fill="#FFFFFF"
   id="path6046_2_" />
	<path
   d="M360,305.7c0.4,0,0.6-0.3,0.6-0.6v-2.5c0-0.4-0.3-0.6-0.6-0.6c-0.4,0-0.6,0.3-0.6,0.6v2.6   C359.4,305.4,359.7,305.7,360,305.7z"
   fill="#FFFFFF"
   id="path6048_2_" />
</g>
<g
   id="g6074">
	<path
   d="M397.5,316.2h-18c-1.2,0-2.2-1-2.2-2.2v-15.3c0-1.2,1-2.2,2.2-2.2h18c1.2,0,2.2,1,2.2,2.2   V314C399.7,315.2,398.7,316.2,397.5,316.2z"
   fill="#3E4044"
   id="path6052" />
	<path
   d="M379.5,297c-0.9,0-1.6,0.7-1.6,1.6v15.3c0,0.9,0.7,1.6,1.6,1.6h18c0.9,0,1.6-0.7,1.6-1.6   v-15.3c0-0.9-0.7-1.6-1.6-1.6H379.5z"
   fill="#FFFFFF"
   id="path6054" />
	<path
   d="M397.5,314.8h-18c-0.4,0-0.8-0.3-0.8-0.8v-15.3c0-0.4,0.3-0.8,0.8-0.8h18   c0.4,0,0.8,0.3,0.8,0.8V314C398.3,314.5,397.9,314.8,397.5,314.8z M379.5,298.1c-0.3,0-0.5,0.2-0.5,0.5v15.3c0,0.3,0.2,0.5,0.5,0.5   h18c0.3,0,0.5-0.2,0.5-0.5v-15.3c0-0.3-0.2-0.5-0.5-0.5H379.5z"
   fill="#3E4044"
   id="path6056" />
	<path
   d="M396.2,299.3h-15.3c-0.4,0-0.6,0.3-0.6,0.6v7.7c0,0.4,0.3,0.6,0.6,0.6h0.6v1.9   c0,0.4,0.3,0.6,0.6,0.6h1.9v1.9c0,0.4,0.3,0.6,0.6,0.6h7.7c0.4,0,0.6-0.3,0.6-0.6v-1.9h1.9c0.4,0,0.6-0.3,0.6-0.6v-1.8h0.6   c0.4,0,0.6-0.3,0.6-0.6V300C396.8,299.6,396.6,299.3,396.2,299.3z"
   fill="#3E4044"
   id="path6058" />
	<path
   d="M382.1,312.1h-1.3c-0.4,0-0.6,0.3-0.6,0.6s0.3,0.6,0.6,0.6h1.3c0.4,0,0.6-0.3,0.6-0.6   S382.5,312.1,382.1,312.1z"
   fill="#3E4044"
   id="path6060" />
	<path
   d="M396.2,312.1h-1.3c-0.4,0-0.6,0.3-0.6,0.6s0.3,0.6,0.6,0.6h1.3c0.4,0,0.6-0.3,0.6-0.6   S396.6,312.1,396.2,312.1z"
   fill="#3E4044"
   id="path6062" />
	<path
   d="M383.4,305.7c0.4,0,0.6-0.3,0.6-0.6v-2.5c0-0.4-0.3-0.6-0.6-0.6s-0.6,0.3-0.6,0.6v2.6   C382.8,305.4,383.1,305.7,383.4,305.7z"
   fill="#FFFFFF"
   id="path6064" />
	<path
   d="M386,305.7c0.4,0,0.6-0.3,0.6-0.6v-2.5c0-0.4-0.3-0.6-0.6-0.6s-0.6,0.3-0.6,0.6v2.6   C385.3,305.4,385.6,305.7,386,305.7z"
   fill="#FFFFFF"
   id="path6066" />
	<path
   d="M388.5,305.7c0.4,0,0.6-0.3,0.6-0.6v-2.5c0-0.4-0.3-0.6-0.6-0.6s-0.6,0.3-0.6,0.6v2.6   C387.9,305.4,388.2,305.7,388.5,305.7z"
   fill="#FFFFFF"
   id="path6068" />
	<path
   d="M391.1,305.7c0.4,0,0.6-0.3,0.6-0.6v-2.5c0-0.4-0.3-0.6-0.6-0.6s-0.6,0.3-0.6,0.6v2.6   C390.4,305.4,390.7,305.7,391.1,305.7z"
   fill="#FFFFFF"
   id="path6070" />
	<path
   d="M393.6,305.7c0.4,0,0.6-0.3,0.6-0.6v-2.5c0-0.4-0.3-0.6-0.6-0.6c-0.4,0-0.6,0.3-0.6,0.6v2.6   C393,305.4,393.3,305.7,393.6,305.7z"
   fill="#FFFFFF"
   id="path6072" />
</g>
<g
   id="Devices__x2B__Hardware_Expanded_AQ_4_">
	<g
   id="g6086">
		<path
   d="M288.5,430.1v8h8v-8H288.5z M295.9,437.4h-6.7v-6.6h6.6v6.6H295.9z"
   fill="#3E4044"
   id="path6076" />
		<path
   d="M285.3,434.4h2.4v-0.7h-2.4c-0.1-1.2-1.2-2.1-2.4-2.1c-1.3,0-2.4,1.1-2.4,2.4    c0,1.4,1.1,2.4,2.4,2.4C284.2,436.5,285.2,435.6,285.3,434.4z M281.2,434.1c0-1,0.8-1.8,1.8-1.8s1.8,0.8,1.8,1.8s-0.8,1.8-1.8,1.8    C282,435.8,281.2,435.1,281.2,434.1z"
   fill="#3E4044"
   id="path6078" />
		<polygon
   points="278.9,427.1 278.9,427.7 300.1,427.7 300.1,440 278.9,440 278.9,440.7     300.7,440.7 300.7,427.1   "
   fill="#3E4044"
   id="polygon6080" />
		<path
   d="M274.7,443.4h3.4v-19.1h-3.4V443.4z M275.4,425h2.1v17.7h-2.1V425z"
   fill="#3E4044"
   id="path6082" />
		<polygon
   points="297.3,443.1 295.6,443.1 295.6,441.4 294.9,441.4 294.9,443.1 293.5,443.1     293.5,441.4 292.8,441.4 292.8,443.1 291.3,443.1 291.3,441.4 290.6,441.4 290.6,443.1 289.2,443.1 289.2,441.4 288.5,441.4     288.5,443.1 286.9,443.1 286.9,441.4 286.2,441.4 286.2,443.8 298,443.8 298,441.4 297.3,441.4   "
   fill="#3E4044"
   id="polygon6084" />
	</g>
</g>
<g
   id="Devices__x2B__Hardware_Expanded_AQ_5_">
	<g
   id="g6086_1_">
		<path
   d="M322.1,430.1v8h8v-8H322.1z M329.4,437.4h-6.6v-6.6h6.6V437.4z"
   fill="#3E4044"
   id="path6076_1_" />
		<path
   d="M318.9,434.4h2.4v-0.7h-2.4c-0.1-1.2-1.2-2.1-2.4-2.1c-1.3,0-2.4,1.1-2.4,2.4    c0,1.4,1.1,2.4,2.4,2.4C317.8,436.5,318.8,435.6,318.9,434.4z M314.8,434.1c0-1,0.8-1.8,1.8-1.8s1.8,0.8,1.8,1.8s-0.8,1.8-1.8,1.8    C315.6,435.8,314.8,435.1,314.8,434.1z"
   fill="#3E4044"
   id="path6078_1_" />
		<polygon
   points="312.5,427.1 312.5,427.7 333.6,427.7 333.6,440 312.5,440 312.5,440.7     334.3,440.7 334.3,427.1   "
   fill="#3E4044"
   id="polygon6080_1_" />
		<path
   d="M308.3,443.4h3.4v-19.1h-3.4V443.4z M309,425h2.1v17.7H309V425z"
   fill="#3E4044"
   id="path6082_1_" />
		<polygon
   points="330.9,443.1 329.1,443.1 329.1,441.4 328.5,441.4 328.5,443.1 327,443.1     327,441.4 326.4,441.4 326.4,443.1 324.9,443.1 324.9,441.4 324.2,441.4 324.2,443.1 322.7,443.1 322.7,441.4 322.1,441.4     322.1,443.1 320.5,443.1 320.5,441.4 319.8,441.4 319.8,443.8 331.5,443.8 331.5,441.4 330.9,441.4   "
   fill="#3E4044"
   id="polygon6084_1_" />
	</g>
</g>
<g
   id="Devices__x2B__Hardware_Expanded_AQ_6_">
	<g
   id="g6086_2_">
		<path
   d="M355.7,430.1v8h8v-8H355.7z M363,437.4h-6.6v-6.6h6.6V437.4z"
   fill="#3E4044"
   id="path6076_2_" />
		<path
   d="M352.5,434.4h2.4v-0.7h-2.4c-0.1-1.2-1.2-2.1-2.4-2.1c-1.3,0-2.4,1.1-2.4,2.4    c0,1.4,1.1,2.4,2.4,2.4C351.4,436.5,352.4,435.6,352.5,434.4z M348.4,434.1c0-1,0.8-1.8,1.8-1.8s1.8,0.8,1.8,1.8s-0.8,1.8-1.8,1.8    C349.2,435.8,348.4,435.1,348.4,434.1z"
   fill="#3E4044"
   id="path6078_2_" />
		<polygon
   points="346.1,427.1 346.1,427.7 367.2,427.7 367.2,440 346.1,440 346.1,440.7     367.9,440.7 367.9,427.1   "
   fill="#3E4044"
   id="polygon6080_2_" />
		<path
   d="M341.9,443.4h3.4v-19.1h-3.4V443.4z M342.6,425h2.1v17.7h-2.1V425z"
   fill="#3E4044"
   id="path6082_2_" />
		<polygon
   points="364.4,443.1 362.7,443.1 362.7,441.4 362.1,441.4 362.1,443.1 360.6,443.1     360.6,441.4 359.9,441.4 359.9,443.1 358.5,443.1 358.5,441.4 357.8,441.4 357.8,443.1 356.3,443.1 356.3,441.4 355.7,441.4     355.7,443.1 354,443.1 354,441.4 353.4,441.4 353.4,443.8 365.1,443.8 365.1,441.4 364.4,441.4   "
   fill="#3E4044"
   id="polygon6084_2_" />
	</g>
</g>
<g
   id="Devices__x2B__Hardware_Expanded_AQ_7_">
	<g
   id="g6086_3_">
		<path
   d="M389.2,430.1v8h8v-8H389.2z M396.6,437.4H390v-6.6h6.6V437.4z"
   fill="#3E4044"
   id="path6076_3_" />
		<path
   d="M386.1,434.4h2.4v-0.7h-2.4c-0.1-1.2-1.2-2.1-2.4-2.1c-1.3,0-2.4,1.1-2.4,2.4    c0,1.4,1.1,2.4,2.4,2.4C384.9,436.5,386,435.6,386.1,434.4z M382,434.1c0-1,0.8-1.8,1.8-1.8s1.8,0.8,1.8,1.8s-0.8,1.8-1.8,1.8    C382.8,435.8,382,435.1,382,434.1z"
   fill="#3E4044"
   id="path6078_3_" />
		<polygon
   points="379.7,427.1 379.7,427.7 400.8,427.7 400.8,440 379.7,440 379.7,440.7     401.5,440.7 401.5,427.1   "
   fill="#3E4044"
   id="polygon6080_3_" />
		<path
   d="M375.5,443.4h3.4v-19.1h-3.4V443.4z M376.1,425h2.1v17.7h-2.1V425z"
   fill="#3E4044"
   id="path6082_3_" />
		<polygon
   points="398,443.1 396.3,443.1 396.3,441.4 395.7,441.4 395.7,443.1 394.2,443.1     394.2,441.4 393.5,441.4 393.5,443.1 392.1,443.1 392.1,441.4 391.4,441.4 391.4,443.1 389.9,443.1 389.9,441.4 389.2,441.4     389.2,443.1 387.6,443.1 387.6,441.4 386.9,441.4 386.9,443.8 398.7,443.8 398.7,441.4 398,441.4   "
   fill="#3E4044"
   id="polygon6084_3_" />
	</g>
</g>
<g
   id="g6122">
	<path
   d="M398.1,373.7v26.7h-120v-26.7H398.1 M401.5,370.4H274.7v33.3h126.7L401.5,370.4L401.5,370.4z"
   id="path6102" />
	<path
   d="M337.8,383L337.8,383c2,0,3.6,1.5,4,3.3c0.4,2.1-1.1,4.3-3.3,4.7c-0.3,0-0.4,0-0.7,0c-2,0-3.6-1.5-4-3.3   c-0.4-2.1,1.1-4.3,3.3-4.7C337.3,383,337.6,383,337.8,383 M337.8,380.4c-0.4,0-0.8,0-1.1,0.1c-3.6,0.7-6.1,4-5.5,7.7   c0.5,3.2,3.3,5.6,6.5,5.6c0.4,0,0.8,0,1.1-0.1c3.6-0.7,6.1-4,5.5-7.7C343.8,382.6,341,380.4,337.8,380.4L337.8,380.4z"
   id="path6104" />
	<g
   id="g6112">
		<rect
   height="13.3"
   width="3.3"
   y="380.4"
   x="283.8"
   id="rect6106" />
		<rect
   height="13.3"
   width="3.3"
   y="380.4"
   x="290.5"
   id="rect6108" />
		<rect
   height="13.3"
   width="3.3"
   y="380.4"
   x="297.2"
   id="rect6110" />
	</g>
	<g
   id="g6120">
		<rect
   height="13.3"
   width="3.3"
   y="380.4"
   x="373.7"
   id="rect6114" />
		<rect
   height="13.3"
   width="3.3"
   y="380.4"
   x="380.4"
   id="rect6116" />
		<rect
   height="13.3"
   width="3.3"
   y="380.4"
   x="387.1"
   id="rect6118" />
	</g>
</g>
<line
   y2="370.4"
   x2="287.7"
   y1="316.2"
   x1="287.7"
   stroke-miterlimit="10"
   stroke-width="2"
   stroke="#000000"
   fill="none"
   id="line6124" />
<line
   y2="370.4"
   x2="389.2"
   y1="316.2"
   x1="389.2"
   stroke-miterlimit="10"
   stroke-width="2"
   stroke="#000000"
   fill="none"
   id="line6126" />
<line
   y2="419.2"
   x2="287.7"
   y1="403.7"
   x1="287.7"
   stroke-miterlimit="10"
   stroke-width="2"
   stroke="#000000"
   fill="none"
   id="line6128" />
<line
   y2="370.4"
   x2="321.4"
   y1="316.2"
   x1="321.4"
   stroke-miterlimit="10"
   stroke-width="2"
   stroke="#000000"
   fill="none"
   id="line6124_1_" />
<line
   y2="419.2"
   x2="321.4"
   y1="403.7"
   x1="321.4"
   stroke-miterlimit="10"
   stroke-width="2"
   stroke="#000000"
   fill="none"
   id="line6128_1_" />
<line
   y2="370.4"
   x2="355.7"
   y1="316.2"
   x1="355.7"
   stroke-miterlimit="10"
   stroke-width="2"
   stroke="#000000"
   fill="none"
   id="line6124_2_" />
<line
   y2="419.2"
   x2="355.7"
   y1="403.7"
   x1="355.7"
   stroke-miterlimit="10"
   stroke-width="2"
   stroke="#000000"
   fill="none"
   id="line6128_2_" />
<line
   y2="419.2"
   x2="389.2"
   y1="403.7"
   x1="389.2"
   stroke-miterlimit="10"
   stroke-width="2"
   stroke="#000000"
   fill="none"
   id="line6134" />
<rect
   height="206.2"
   width="634.8"
   stroke-dasharray="6"
   stroke-miterlimit="10"
   stroke-width="2"
   stroke="#000000"
   fill="none"
   y="137.1"
   x="25.7"
   id="rect6136" />
<text
   style="-inkscape-font-specification:Metropolis;font-family:Metropolis;font-weight:normal;font-style:normal;font-stretch:normal;font-variant:normal;"
   id="text117"
   font-size="12px"
   font-family="'Metropolis-Regular'"
   transform="matrix(1 0 0 1 529.9619 157.9978)">iSCSI Storage</text>
<text
   style="-inkscape-font-specification:Metropolis;font-family:Metropolis;font-weight:normal;font-style:normal;font-stretch:normal;font-variant:normal;"
   id="text119"
   font-size="12px"
   font-family="'Metropolis-Regular'"
   transform="matrix(1 0 0 1 527.3618 169.9978)">VMkernel Port</text>
<rect
   height="54.6"
   width="78.4"
   stroke-miterlimit="10"
   stroke="#000000"
   fill="#ECECEB"
   y="177.2"
   x="529.6"
   id="rect6233" />
<g
   id="g6257">
	<path
   d="M577.8,214.4h-18c-1.2,0-2.2-1-2.2-2.2v-15.3c0-1.2,1-2.2,2.2-2.2h18c1.2,0,2.2,1,2.2,2.2   v15.3C580,213.4,579,214.4,577.8,214.4z"
   fill="#3E4044"
   id="path6235" />
	<path
   d="M559.8,195.2c-0.9,0-1.6,0.7-1.6,1.6v15.3c0,0.9,0.7,1.6,1.6,1.6h18c0.9,0,1.6-0.7,1.6-1.6   v-15.3c0-0.9-0.7-1.6-1.6-1.6H559.8z"
   fill="#FFFFFF"
   id="path6237" />
	<path
   d="M577.8,212.9h-18c-0.4,0-0.8-0.3-0.8-0.8v-15.3c0-0.4,0.3-0.8,0.8-0.8h18   c0.4,0,0.8,0.3,0.8,0.8v15.3C578.5,212.6,578.2,212.9,577.8,212.9z M559.8,196.3c-0.3,0-0.5,0.2-0.5,0.5v15.3   c0,0.3,0.2,0.5,0.5,0.5h18c0.3,0,0.5-0.2,0.5-0.5v-15.3c0-0.3-0.2-0.5-0.5-0.5H559.8z"
   fill="#3E4044"
   id="path6239" />
	<path
   d="M576.5,197.5h-15.3c-0.4,0-0.6,0.3-0.6,0.6v7.7c0,0.4,0.3,0.6,0.6,0.6h0.6v1.9   c0,0.4,0.3,0.6,0.6,0.6h1.9v1.9c0,0.4,0.3,0.6,0.6,0.6h7.7c0.4,0,0.6-0.3,0.6-0.6v-1.9h1.9c0.4,0,0.6-0.3,0.6-0.6v-1.9h0.6   c0.4,0,0.6-0.3,0.6-0.6v-7.7C577.1,197.8,576.8,197.5,576.5,197.5z"
   fill="#3E4044"
   id="path6241" />
	<path
   d="M562.4,210.2h-1.3c-0.4,0-0.6,0.3-0.6,0.6c0,0.4,0.3,0.6,0.6,0.6h1.3c0.4,0,0.6-0.3,0.6-0.6   S562.7,210.2,562.4,210.2z"
   fill="#3E4044"
   id="path6243" />
	<path
   d="M576.5,210.2h-1.3c-0.4,0-0.6,0.3-0.6,0.6c0,0.4,0.3,0.6,0.6,0.6h1.3c0.4,0,0.6-0.3,0.6-0.6   S576.8,210.2,576.5,210.2z"
   fill="#3E4044"
   id="path6245" />
	<path
   d="M563.7,203.8c0.4,0,0.6-0.3,0.6-0.6v-2.5c0-0.4-0.3-0.6-0.6-0.6c-0.4,0-0.6,0.3-0.6,0.6v2.6   C563,203.6,563.3,203.8,563.7,203.8z"
   fill="#FFFFFF"
   id="path6247" />
	<path
   d="M566.2,203.8c0.4,0,0.6-0.3,0.6-0.6v-2.5c0-0.4-0.3-0.6-0.6-0.6s-0.6,0.3-0.6,0.6v2.6   C565.6,203.6,565.9,203.8,566.2,203.8z"
   fill="#FFFFFF"
   id="path6249" />
	<path
   d="M568.8,203.8c0.4,0,0.6-0.3,0.6-0.6v-2.5c0-0.4-0.3-0.6-0.6-0.6s-0.6,0.3-0.6,0.6v2.6   C568.1,203.6,568.4,203.8,568.8,203.8z"
   fill="#FFFFFF"
   id="path6251" />
	<path
   d="M571.4,203.8c0.4,0,0.6-0.3,0.6-0.6v-2.5c0-0.4-0.3-0.6-0.6-0.6s-0.6,0.3-0.6,0.6v2.6   C570.7,203.6,571,203.8,571.4,203.8z"
   fill="#FFFFFF"
   id="path6253" />
	<path
   d="M573.9,203.8c0.4,0,0.6-0.3,0.6-0.6v-2.5c0-0.4-0.3-0.6-0.6-0.6s-0.6,0.3-0.6,0.6v2.6   C573.3,203.6,573.6,203.8,573.9,203.8z"
   fill="#FFFFFF"
   id="path6255" />
</g>
<text
   style="-inkscape-font-specification:Metropolis;font-family:Metropolis;font-weight:normal;font-style:normal;font-stretch:normal;font-variant:normal;"
   id="text134"
   font-size="12px"
   font-family="'Metropolis-Regular'"
   transform="matrix(1 0 0 1 424.5393 157.9975)">Management</text>
<text
   style="-inkscape-font-specification:Metropolis;font-family:Metropolis;font-weight:normal;font-style:normal;font-stretch:normal;font-variant:normal;"
   id="text136"
   font-size="12px"
   font-family="'Metropolis-Regular'"
   transform="matrix(1 0 0 1 420.6393 169.9975)">VMkernel Port</text>
<rect
   height="54.6"
   width="78.4"
   stroke-miterlimit="10"
   stroke="#000000"
   fill="#ECECEB"
   y="177.2"
   x="422.8"
   id="rect6264" />
<g
   id="g6288">
	<path
   d="M471,214.4h-18c-1.2,0-2.2-1-2.2-2.2v-15.3c0-1.2,1-2.2,2.2-2.2h18c1.2,0,2.2,1,2.2,2.2v15.3   C473.2,213.4,472.2,214.4,471,214.4z"
   fill="#3E4044"
   id="path6266" />
	<path
   d="M453,195.2c-0.9,0-1.6,0.7-1.6,1.6v15.3c0,0.9,0.7,1.6,1.6,1.6h18c0.9,0,1.6-0.7,1.6-1.6   v-15.3c0-0.9-0.7-1.6-1.6-1.6H453z"
   fill="#FFFFFF"
   id="path6268" />
	<path
   d="M471,212.9h-18c-0.4,0-0.8-0.3-0.8-0.8v-15.3c0-0.4,0.3-0.8,0.8-0.8h18   c0.4,0,0.8,0.3,0.8,0.8v15.3C471.7,212.6,471.4,212.9,471,212.9z M453,196.3c-0.3,0-0.5,0.2-0.5,0.5v15.3c0,0.3,0.2,0.5,0.5,0.5h18   c0.3,0,0.5-0.2,0.5-0.5v-15.3c0-0.3-0.2-0.5-0.5-0.5H453z"
   fill="#3E4044"
   id="path6270" />
	<path
   d="M469.7,197.5h-15.3c-0.4,0-0.6,0.3-0.6,0.6v7.7c0,0.4,0.3,0.6,0.6,0.6h0.6v1.9   c0,0.4,0.3,0.6,0.6,0.6h1.9v1.9c0,0.4,0.3,0.6,0.6,0.6h7.7c0.4,0,0.6-0.3,0.6-0.6v-1.9h1.9c0.4,0,0.6-0.3,0.6-0.6v-1.9h0.6   c0.4,0,0.6-0.3,0.6-0.6v-7.7C470.3,197.8,470,197.5,469.7,197.5z"
   fill="#3E4044"
   id="path6272" />
	<path
   d="M455.6,210.2h-1.3c-0.4,0-0.6,0.3-0.6,0.6c0,0.4,0.3,0.6,0.6,0.6h1.3c0.4,0,0.6-0.3,0.6-0.6   S455.9,210.2,455.6,210.2z"
   fill="#3E4044"
   id="path6274" />
	<path
   d="M469.7,210.2h-1.3c-0.4,0-0.6,0.3-0.6,0.6c0,0.4,0.3,0.6,0.6,0.6h1.3c0.4,0,0.6-0.3,0.6-0.6   S470,210.2,469.7,210.2z"
   fill="#3E4044"
   id="path6276" />
	<path
   d="M456.9,203.8c0.4,0,0.6-0.3,0.6-0.6v-2.5c0-0.4-0.3-0.6-0.6-0.6s-0.6,0.3-0.6,0.6v2.6   C456.2,203.6,456.5,203.8,456.9,203.8z"
   fill="#FFFFFF"
   id="path6278" />
	<path
   d="M459.4,203.8c0.4,0,0.6-0.3,0.6-0.6v-2.5c0-0.4-0.3-0.6-0.6-0.6c-0.4,0-0.6,0.3-0.6,0.6v2.6   C458.8,203.6,459.1,203.8,459.4,203.8z"
   fill="#FFFFFF"
   id="path6280" />
	<path
   d="M462,203.8c0.4,0,0.6-0.3,0.6-0.6v-2.5c0-0.4-0.3-0.6-0.6-0.6s-0.6,0.3-0.6,0.6v2.6   C461.3,203.6,461.6,203.8,462,203.8z"
   fill="#FFFFFF"
   id="path6282" />
	<path
   d="M464.6,203.8c0.4,0,0.6-0.3,0.6-0.6v-2.5c0-0.4-0.3-0.6-0.6-0.6s-0.6,0.3-0.6,0.6v2.6   C463.9,203.6,464.2,203.8,464.6,203.8z"
   fill="#FFFFFF"
   id="path6284" />
	<path
   d="M467.1,203.8c0.4,0,0.6-0.3,0.6-0.6v-2.5c0-0.4-0.3-0.6-0.6-0.6c-0.4,0-0.6,0.3-0.6,0.6v2.6   C466.5,203.6,466.8,203.8,467.1,203.8z"
   fill="#FFFFFF"
   id="path6286" />
</g>
<g
   id="g6381">
	<rect
   height="48.9"
   width="141.8"
   fill="#218FCF"
   y="182.9"
   x="71.2"
   id="rect6290" />
	<text
   style="font-style:normal;font-variant:normal;font-weight:normal;font-stretch:normal;font-size:14px;font-family:Metropolis;-inkscape-font-specification:'Metropolis, Normal';font-variant-ligatures:normal;font-variant-caps:normal;font-variant-numeric:normal;font-variant-east-asian:normal;fill:#ffffff"
   id="text152"
   font-size="14px"
   font-family="'Metropolis-Regular'"
   fill="#FFFFFF"
   x="104.55955"
   y="211.5941"><tspan
     y="211.5941"
     x="104.55955"
     id="tspan1070"
     sodipodi:role="line">Accounting</tspan></text>
	<text
   style="font-style:normal;font-variant:normal;font-weight:normal;font-stretch:normal;font-family:Metropolis;-inkscape-font-specification:Metropolis"
   id="text154"
   font-size="14px"
   font-family="'Metropolis-Regular'"
   fill="#ffffff"
   x="104.42217"
   y="225.5941">Port Group</text>
	<g
   id="g6319">
		<path
   d="M112.4,192.8h-18c-1.2,0-2.2-1-2.2-2.2v-15.3c0-1.2,1-2.2,2.2-2.2h18c1.2,0,2.2,1,2.2,2.2    v15.3C114.6,191.8,113.6,192.8,112.4,192.8z"
   fill="#3E4044"
   id="path6297" />
		<path
   d="M94.4,173.6c-0.9,0-1.6,0.7-1.6,1.6v15.3c0,0.9,0.7,1.6,1.6,1.6h18c0.9,0,1.6-0.7,1.6-1.6    v-15.3c0-0.9-0.7-1.6-1.6-1.6H94.4z"
   fill="#FFFFFF"
   id="path6299" />
		<path
   d="M112.4,191.3h-18c-0.4,0-0.8-0.3-0.8-0.8v-15.3c0-0.4,0.3-0.8,0.8-0.8h18    c0.4,0,0.8,0.3,0.8,0.8v15.3C113.1,191,112.8,191.3,112.4,191.3z M94.4,174.7c-0.3,0-0.5,0.2-0.5,0.5v15.3c0,0.3,0.2,0.5,0.5,0.5    h18c0.3,0,0.5-0.2,0.5-0.5v-15.3c0-0.3-0.2-0.5-0.5-0.5H94.4z"
   fill="#3E4044"
   id="path6301" />
		<path
   d="M111,175.8H95.7c-0.4,0-0.6,0.3-0.6,0.6v7.7c0,0.4,0.3,0.6,0.6,0.6h0.6v1.9    c0,0.4,0.3,0.6,0.6,0.6h1.9v1.9c0,0.4,0.3,0.6,0.6,0.6h7.8c0.4,0,0.6-0.3,0.6-0.6v-1.9h1.9c0.4,0,0.6-0.3,0.6-0.6v-1.9h0.6    c0.4,0,0.6-0.3,0.6-0.6v-7.7C111.7,176.1,111.4,175.8,111,175.8z"
   fill="#3E4044"
   id="path6303" />
		<path
   d="M97,188.6h-1.3c-0.4,0-0.6,0.3-0.6,0.6s0.3,0.6,0.6,0.6H97c0.4,0,0.6-0.3,0.6-0.6    S97.3,188.6,97,188.6z"
   fill="#3E4044"
   id="path6305" />
		<path
   d="M111,188.6h-1.3c-0.4,0-0.6,0.3-0.6,0.6s0.3,0.6,0.6,0.6h1.3c0.4,0,0.6-0.3,0.6-0.6    S111.4,188.6,111,188.6z"
   fill="#3E4044"
   id="path6307" />
		<path
   d="M98.3,182.2c0.4,0,0.6-0.3,0.6-0.6v-2.5c0-0.4-0.3-0.6-0.6-0.6c-0.4,0-0.6,0.3-0.6,0.6v2.6    C97.6,181.9,97.9,182.2,98.3,182.2z"
   fill="#FFFFFF"
   id="path6309" />
		<path
   d="M100.8,182.2c0.4,0,0.6-0.3,0.6-0.6v-2.5c0-0.4-0.3-0.6-0.6-0.6c-0.4,0-0.6,0.3-0.6,0.6v2.6    C100.2,181.9,100.5,182.2,100.8,182.2z"
   fill="#FFFFFF"
   id="path6311" />
		<path
   d="M103.4,182.2c0.4,0,0.6-0.3,0.6-0.6v-2.5c0-0.4-0.3-0.6-0.6-0.6c-0.4,0-0.6,0.3-0.6,0.6v2.6    C102.7,181.9,103,182.2,103.4,182.2z"
   fill="#FFFFFF"
   id="path6313" />
		<path
   d="M105.9,182.2c0.4,0,0.6-0.3,0.6-0.6v-2.5c0-0.4-0.3-0.6-0.6-0.6c-0.4,0-0.6,0.3-0.6,0.6v2.6    C105.3,181.9,105.6,182.2,105.9,182.2z"
   fill="#FFFFFF"
   id="path6315" />
		<path
   d="M108.5,182.2c0.4,0,0.6-0.3,0.6-0.6v-2.5c0-0.4-0.3-0.6-0.6-0.6c-0.4,0-0.6,0.3-0.6,0.6v2.6    C107.9,181.9,108.1,182.2,108.5,182.2z"
   fill="#FFFFFF"
   id="path6317" />
	</g>
	<g
   id="Devices__x2B__Hardware_Expanded_AQ">
		<g
   id="g6331">
			<path
   d="M104.1,68.6v7.8h7.8v-7.8H104.1z M111.2,75.7h-6.4v-6.4h6.4V75.7z"
   fill="#3E4044"
   id="path6321" />
			<path
   d="M101.1,72.8h2.4v-0.7h-2.4c-0.2-1.1-1.1-2-2.3-2c-1.3,0-2.4,1.1-2.4,2.4s1.1,2.4,2.4,2.4     C99.9,74.8,100.9,73.9,101.1,72.8z M97.1,72.5c0-0.9,0.8-1.7,1.7-1.7c0.9,0,1.7,0.8,1.7,1.7s-0.8,1.7-1.7,1.7     C97.8,74.2,97.1,73.4,97.1,72.5z"
   fill="#3E4044"
   id="path6323" />
			<polygon
   points="94.8,65.6 94.8,66.3 115.3,66.3 115.3,78.2 94.8,78.2 94.8,78.9 116,78.9      116,65.6    "
   fill="#3E4044"
   id="polygon6325" />
			<path
   d="M90.8,81.5h3.3V63h-3.3V81.5z M91.4,63.7h2v17.2h-2V63.7z"
   fill="#3E4044"
   id="path6327" />
			<polygon
   points="112.6,81.2 111,81.2 111,79.5 110.3,79.5 110.3,81.2 108.9,81.2 108.9,79.5      108.2,79.5 108.2,81.2 106.8,81.2 106.8,79.5 106.2,79.5 106.2,81.2 104.8,81.2 104.8,79.5 104.1,79.5 104.1,81.2 102.5,81.2      102.5,79.5 101.8,79.5 101.8,81.9 113.3,81.9 113.3,79.5 112.6,79.5    "
   fill="#3E4044"
   id="polygon6329" />
		</g>
	</g>
	
		<rect
   height="41"
   width="41"
   stroke-miterlimit="10"
   stroke-width="2"
   stroke="#006EA4"
   fill="none"
   y="18.2"
   x="82.9"
   id="rect6334" />
	
		<text
   style="-inkscape-font-specification:Metropolis;font-family:Metropolis;font-weight:normal;font-style:normal;font-stretch:normal;font-variant:normal;"
   font-size="12px"
   font-family="'Metropolis-Regular'"
   fill="#006EA4"
   transform="matrix(1 0 0 1 93.6487 42.0778)"
   id="text102_1_">VM</text>
	
		<line
   y2="170.8"
   x2="103.4"
   y1="86.3"
   x1="103.4"
   stroke-miterlimit="10"
   stroke-width="2"
   stroke="#3E4044"
   fill="none"
   id="line6337" />
	<g
   id="g6361">
		<path
   d="M189,192.8h-18c-1.2,0-2.2-1-2.2-2.2v-15.3c0-1.2,1-2.2,2.2-2.2h18c1.2,0,2.2,1,2.2,2.2    v15.3C191.3,191.8,190.3,192.8,189,192.8z"
   fill="#3E4044"
   id="path6339" />
		<path
   d="M171.1,173.6c-0.9,0-1.6,0.7-1.6,1.6v15.3c0,0.9,0.7,1.6,1.6,1.6h18c0.9,0,1.6-0.7,1.6-1.6    v-15.3c0-0.9-0.7-1.6-1.6-1.6H171.1z"
   fill="#FFFFFF"
   id="path6341" />
		<path
   d="M189,191.3h-18c-0.4,0-0.8-0.3-0.8-0.8v-15.3c0-0.4,0.3-0.8,0.8-0.8h18    c0.4,0,0.8,0.3,0.8,0.8v15.3C189.8,191,189.5,191.3,189,191.3z M171.1,174.7c-0.3,0-0.5,0.2-0.5,0.5v15.3c0,0.3,0.2,0.5,0.5,0.5    h18c0.3,0,0.5-0.2,0.5-0.5v-15.3c0-0.3-0.2-0.5-0.5-0.5H171.1z"
   fill="#3E4044"
   id="path6343" />
		<path
   d="M187.7,175.8h-15.3c-0.4,0-0.6,0.3-0.6,0.6v7.7c0,0.4,0.3,0.6,0.6,0.6h0.6v1.9    c0,0.4,0.3,0.6,0.6,0.6h1.9v1.9c0,0.4,0.3,0.6,0.6,0.6h7.7c0.4,0,0.6-0.3,0.6-0.6v-1.9h1.9c0.4,0,0.6-0.3,0.6-0.6v-1.9h0.6    c0.4,0,0.6-0.3,0.6-0.6v-7.7C188.4,176.1,188.1,175.8,187.7,175.8z"
   fill="#3E4044"
   id="path6345" />
		<path
   d="M173.6,188.6h-1.3c-0.4,0-0.6,0.3-0.6,0.6s0.3,0.6,0.6,0.6h1.3c0.4,0,0.6-0.3,0.6-0.6    S174,188.6,173.6,188.6z"
   fill="#3E4044"
   id="path6347" />
		<path
   d="M187.7,188.6h-1.3c-0.4,0-0.6,0.3-0.6,0.6s0.3,0.6,0.6,0.6h1.3c0.4,0,0.6-0.3,0.6-0.6    S188.1,188.6,187.7,188.6z"
   fill="#3E4044"
   id="path6349" />
		<path
   d="M174.9,182.2c0.4,0,0.6-0.3,0.6-0.6v-2.5c0-0.4-0.3-0.6-0.6-0.6c-0.4,0-0.6,0.3-0.6,0.6v2.6    C174.3,181.9,174.6,182.2,174.9,182.2z"
   fill="#FFFFFF"
   id="path6351" />
		<path
   d="M177.5,182.2c0.4,0,0.6-0.3,0.6-0.6v-2.5c0-0.4-0.3-0.6-0.6-0.6s-0.6,0.3-0.6,0.6v2.6    C176.9,181.9,177.1,182.2,177.5,182.2z"
   fill="#FFFFFF"
   id="path6353" />
		<path
   d="M180,182.2c0.4,0,0.6-0.3,0.6-0.6v-2.5c0-0.4-0.3-0.6-0.6-0.6s-0.6,0.3-0.6,0.6v2.6    C179.4,181.9,179.7,182.2,180,182.2z"
   fill="#FFFFFF"
   id="path6355" />
		<path
   d="M182.6,182.2c0.4,0,0.6-0.3,0.6-0.6v-2.5c0-0.4-0.3-0.6-0.6-0.6s-0.6,0.3-0.6,0.6v2.6    C182,181.9,182.3,182.2,182.6,182.2z"
   fill="#FFFFFF"
   id="path6357" />
		<path
   d="M185.2,182.2c0.4,0,0.6-0.3,0.6-0.6v-2.5c0-0.4-0.3-0.6-0.6-0.6s-0.6,0.3-0.6,0.6v2.6    C184.5,181.9,184.8,182.2,185.2,182.2z"
   fill="#FFFFFF"
   id="path6359" />
	</g>
	<g
   id="Devices__x2B__Hardware_Expanded_AQ_1_">
		<g
   id="g6373">
			<path
   d="M180.8,68.6v7.8h7.8v-7.8H180.8z M187.9,75.7h-6.4v-6.4h6.4V75.7z"
   fill="#3E4044"
   id="path6363" />
			<path
   d="M177.8,72.8h2.4v-0.7h-2.4c-0.2-1.1-1.1-2-2.3-2c-1.3,0-2.4,1.1-2.4,2.4s1.1,2.4,2.4,2.4     C176.6,74.8,177.6,73.9,177.8,72.8z M173.7,72.5c0-0.9,0.8-1.7,1.7-1.7s1.7,0.8,1.7,1.7s-0.8,1.7-1.7,1.7S173.7,73.4,173.7,72.5z     "
   fill="#3E4044"
   id="path6365" />
			<polygon
   points="171.5,65.6 171.5,66.3 192,66.3 192,78.2 171.5,78.2 171.5,78.9 192.6,78.9      192.6,65.6    "
   fill="#3E4044"
   id="polygon6367" />
			<path
   d="M167.5,81.5h3.3V63h-3.3V81.5z M168.1,63.7h2v17.2h-2V63.7z"
   fill="#3E4044"
   id="path6369" />
			<polygon
   points="189.3,81.2 187.6,81.2 187.6,79.5 187,79.5 187,81.2 185.6,81.2 185.6,79.5      184.9,79.5 184.9,81.2 183.5,81.2 183.5,79.5 182.9,79.5 182.9,81.2 181.4,81.2 181.4,79.5 180.8,79.5 180.8,81.2 179.2,81.2      179.2,79.5 178.5,79.5 178.5,81.9 189.9,81.9 189.9,79.5 189.3,79.5    "
   fill="#3E4044"
   id="polygon6371" />
		</g>
	</g>
	
		<rect
   height="41"
   width="41"
   stroke-miterlimit="10"
   stroke-width="2"
   stroke="#006EA4"
   fill="none"
   y="18.2"
   x="159.6"
   id="rect6376" />
	
		<text
   style="-inkscape-font-specification:Metropolis;font-family:Metropolis;font-weight:normal;font-style:normal;font-stretch:normal;font-variant:normal;"
   font-size="12px"
   font-family="'Metropolis-Regular'"
   fill="#006EA4"
   transform="matrix(1 0 0 1 170.3281 42.0778)"
   id="text102_2_">VM</text>
	
		<line
   y2="170.8"
   x2="180.1"
   y1="86.3"
   x1="180.1"
   stroke-miterlimit="10"
   stroke-width="2"
   stroke="#3E4044"
   fill="none"
   id="line6379" />
</g>
<rect
   height="48.9"
   width="141.8"
   fill="#78BE43"
   y="182.9"
   x="250.7"
   id="rect6383" />
<text
   style="font-style:normal;font-variant:normal;font-weight:normal;font-stretch:normal;font-size:14px;font-family:Metropolis;-inkscape-font-specification:'Metropolis, Normal';font-variant-ligatures:normal;font-variant-caps:normal;font-variant-numeric:normal;font-variant-east-asian:normal;fill:#ffffff"
   id="text202"
   font-size="14px"
   font-family="'Metropolis-Regular'"
   fill="#FFFFFF"
   x="304.22601"
   y="211.5941"><tspan
     y="211.5941"
     x="304.22601"
     id="tspan1072"
     sodipodi:role="line">Sales</tspan></text>
<text
   style="font-style:normal;font-variant:normal;font-weight:normal;font-stretch:normal;font-family:Metropolis;-inkscape-font-specification:Metropolis"
   id="text204"
   font-size="14px"
   font-family="'Metropolis-Regular'"
   fill="#ffffff"
   x="283.92218"
   y="225.5941">Port Group</text>
<g
   id="g6412">
	<path
   d="M292.2,192.8h-18c-1.2,0-2.2-1-2.2-2.2v-15.3c0-1.2,1-2.2,2.2-2.2h18c1.2,0,2.2,1,2.2,2.2   v15.3C294.4,191.8,293.4,192.8,292.2,192.8z"
   fill="#3E4044"
   id="path6390" />
	<path
   d="M274.2,173.6c-0.9,0-1.6,0.7-1.6,1.6v15.3c0,0.9,0.7,1.6,1.6,1.6h18c0.9,0,1.6-0.7,1.6-1.6   v-15.3c0-0.9-0.7-1.6-1.6-1.6H274.2z"
   fill="#FFFFFF"
   id="path6392" />
	<path
   d="M292.2,191.3h-18c-0.4,0-0.8-0.3-0.8-0.8v-15.3c0-0.4,0.3-0.8,0.8-0.8h18   c0.4,0,0.8,0.3,0.8,0.8v15.3C293,191,292.6,191.3,292.2,191.3z M274.2,174.7c-0.3,0-0.5,0.2-0.5,0.5v15.3c0,0.3,0.2,0.5,0.5,0.5h18   c0.3,0,0.5-0.2,0.5-0.5v-15.3c0-0.3-0.2-0.5-0.5-0.5H274.2z"
   fill="#3E4044"
   id="path6394" />
	<path
   d="M290.9,175.8h-15.3c-0.4,0-0.6,0.3-0.6,0.6v7.7c0,0.4,0.3,0.6,0.6,0.6h0.6v1.9   c0,0.4,0.3,0.6,0.6,0.6h1.9v1.9c0,0.4,0.3,0.6,0.6,0.6h7.7c0.4,0,0.6-0.3,0.6-0.6v-1.9h1.9c0.4,0,0.6-0.3,0.6-0.6v-1.9h0.6   c0.4,0,0.6-0.3,0.6-0.6v-7.7C291.5,176.1,291.2,175.8,290.9,175.8z"
   fill="#3E4044"
   id="path6396" />
	<path
   d="M276.8,188.6h-1.3c-0.4,0-0.6,0.3-0.6,0.6s0.3,0.6,0.6,0.6h1.3c0.4,0,0.6-0.3,0.6-0.6   S277.2,188.6,276.8,188.6z"
   fill="#3E4044"
   id="path6398" />
	<path
   d="M290.9,188.6h-1.3c-0.4,0-0.6,0.3-0.6,0.6s0.3,0.6,0.6,0.6h1.3c0.4,0,0.6-0.3,0.6-0.6   S291.2,188.6,290.9,188.6z"
   fill="#3E4044"
   id="path6400" />
	<path
   d="M278.1,182.2c0.4,0,0.6-0.3,0.6-0.6v-2.5c0-0.4-0.3-0.6-0.6-0.6s-0.6,0.3-0.6,0.6v2.6   C277.4,181.9,277.7,182.2,278.1,182.2z"
   fill="#FFFFFF"
   id="path6402" />
	<path
   d="M280.6,182.2c0.4,0,0.6-0.3,0.6-0.6v-2.5c0-0.4-0.3-0.6-0.6-0.6s-0.6,0.3-0.6,0.6v2.6   C280,181.9,280.3,182.2,280.6,182.2z"
   fill="#FFFFFF"
   id="path6404" />
	<path
   d="M283.2,182.2c0.4,0,0.6-0.3,0.6-0.6v-2.5c0-0.4-0.3-0.6-0.6-0.6s-0.6,0.3-0.6,0.6v2.6   C282.5,181.9,282.8,182.2,283.2,182.2z"
   fill="#FFFFFF"
   id="path6406" />
	<path
   d="M285.8,182.2c0.4,0,0.6-0.3,0.6-0.6v-2.5c0-0.4-0.3-0.6-0.6-0.6s-0.6,0.3-0.6,0.6v2.6   C285.1,181.9,285.4,182.2,285.8,182.2z"
   fill="#FFFFFF"
   id="path6408" />
	<path
   d="M288.3,182.2c0.4,0,0.6-0.3,0.6-0.6v-2.5c0-0.4-0.3-0.6-0.6-0.6c-0.4,0-0.6,0.3-0.6,0.6v2.6   C287.7,181.9,288,182.2,288.3,182.2z"
   fill="#FFFFFF"
   id="path6410" />
</g>
<g
   id="Devices__x2B__Hardware_Expanded_AQ_3_">
	<g
   id="g6424">
		<path
   d="M283.9,68.6v7.8h7.8v-7.8H283.9z M291,75.7h-6.4v-6.4h6.4V75.7z"
   fill="#3E4044"
   id="path6414" />
		<path
   d="M280.9,72.8h2.4v-0.7h-2.4c-0.2-1.1-1.1-2-2.3-2c-1.3,0-2.4,1.1-2.4,2.4s1.1,2.4,2.4,2.4    C279.8,74.8,280.8,73.9,280.9,72.8z M276.9,72.5c0-0.9,0.8-1.7,1.7-1.7s1.7,0.8,1.7,1.7s-0.8,1.7-1.7,1.7S276.9,73.4,276.9,72.5z"
   fill="#3E4044"
   id="path6416" />
		<polygon
   points="274.6,65.6 274.6,66.3 295.1,66.3 295.1,78.2 274.6,78.2 274.6,78.9 295.8,78.9     295.8,65.6   "
   fill="#3E4044"
   id="polygon6418" />
		<path
   d="M270.6,81.5h3.3V63h-3.3V81.5z M271.3,63.7h2v17.2h-2V63.7z"
   fill="#3E4044"
   id="path6420" />
		<polygon
   points="292.4,81.2 290.8,81.2 290.8,79.5 290.1,79.5 290.1,81.2 288.7,81.2 288.7,79.5     288.1,79.5 288.1,81.2 286.7,81.2 286.7,79.5 286,79.5 286,81.2 284.6,81.2 284.6,79.5 283.9,79.5 283.9,81.2 282.3,81.2     282.3,79.5 281.7,79.5 281.7,81.9 293.1,81.9 293.1,79.5 292.4,79.5   "
   fill="#3E4044"
   id="polygon6422" />
	</g>
</g>
<rect
   height="41"
   width="41"
   stroke-miterlimit="10"
   stroke-width="2"
   stroke="#006EA4"
   fill="none"
   y="18.2"
   x="262.7"
   id="rect6427" />
<text
   style="-inkscape-font-specification:Metropolis;font-family:Metropolis;font-weight:normal;font-style:normal;font-stretch:normal;font-variant:normal;"
   font-size="12px"
   font-family="'Metropolis-Regular'"
   fill="#006EA4"
   transform="matrix(1 0 0 1 273.4759 42.0778)"
   id="text102_4_">VM</text>
<line
   y2="170.8"
   x2="283.3"
   y1="86.3"
   x1="283.3"
   stroke-miterlimit="10"
   stroke-width="2"
   stroke="#3E4044"
   fill="none"
   id="line6430" />
<g
   id="g6454">
	<path
   d="M368.9,192.8h-18c-1.2,0-2.2-1-2.2-2.2v-15.3c0-1.2,1-2.2,2.2-2.2h18c1.2,0,2.2,1,2.2,2.2   v15.3C371.1,191.8,370.1,192.8,368.9,192.8z"
   fill="#3E4044"
   id="path6432" />
	<path
   d="M350.9,173.6c-0.9,0-1.6,0.7-1.6,1.6v15.3c0,0.9,0.7,1.6,1.6,1.6h18c0.9,0,1.6-0.7,1.6-1.6   v-15.3c0-0.9-0.7-1.6-1.6-1.6H350.9z"
   fill="#FFFFFF"
   id="path6434" />
	<path
   d="M368.9,191.3h-18c-0.4,0-0.8-0.3-0.8-0.8v-15.3c0-0.4,0.3-0.8,0.8-0.8h18   c0.4,0,0.8,0.3,0.8,0.8v15.3C369.6,191,369.3,191.3,368.9,191.3z M350.9,174.7c-0.3,0-0.5,0.2-0.5,0.5v15.3c0,0.3,0.2,0.5,0.5,0.5   h18c0.3,0,0.5-0.2,0.5-0.5v-15.3c0-0.3-0.2-0.5-0.5-0.5H350.9z"
   fill="#3E4044"
   id="path6436" />
	<path
   d="M367.5,175.8h-15.3c-0.4,0-0.6,0.3-0.6,0.6v7.7c0,0.4,0.3,0.6,0.6,0.6h0.6v1.9   c0,0.4,0.3,0.6,0.6,0.6h1.9v1.9c0,0.4,0.3,0.6,0.6,0.6h7.7c0.4,0,0.6-0.3,0.6-0.6v-1.9h1.9c0.4,0,0.6-0.3,0.6-0.6v-1.9h0.6   c0.4,0,0.6-0.3,0.6-0.6v-7.7C368.2,176.1,367.9,175.8,367.5,175.8z"
   fill="#3E4044"
   id="path6438" />
	<path
   d="M353.5,188.6h-1.3c-0.4,0-0.6,0.3-0.6,0.6s0.3,0.6,0.6,0.6h1.3c0.4,0,0.6-0.3,0.6-0.6   S353.8,188.6,353.5,188.6z"
   fill="#3E4044"
   id="path6440" />
	<path
   d="M367.5,188.6h-1.3c-0.4,0-0.6,0.3-0.6,0.6s0.3,0.6,0.6,0.6h1.3c0.4,0,0.6-0.3,0.6-0.6   S367.9,188.6,367.5,188.6z"
   fill="#3E4044"
   id="path6442" />
	<path
   d="M354.8,182.2c0.4,0,0.6-0.3,0.6-0.6v-2.5c0-0.4-0.3-0.6-0.6-0.6s-0.6,0.3-0.6,0.6v2.6   C354.1,181.9,354.4,182.2,354.8,182.2z"
   fill="#FFFFFF"
   id="path6444" />
	<path
   d="M357.3,182.2c0.4,0,0.6-0.3,0.6-0.6v-2.5c0-0.4-0.3-0.6-0.6-0.6s-0.6,0.3-0.6,0.6v2.6   C356.7,181.9,357,182.2,357.3,182.2z"
   fill="#FFFFFF"
   id="path6446" />
	<path
   d="M359.9,182.2c0.4,0,0.6-0.3,0.6-0.6v-2.5c0-0.4-0.3-0.6-0.6-0.6s-0.6,0.3-0.6,0.6v2.6   C359.2,181.9,359.5,182.2,359.9,182.2z"
   fill="#FFFFFF"
   id="path6448" />
	<path
   d="M362.4,182.2c0.4,0,0.6-0.3,0.6-0.6v-2.5c0-0.4-0.3-0.6-0.6-0.6s-0.6,0.3-0.6,0.6v2.6   C361.8,181.9,362.1,182.2,362.4,182.2z"
   fill="#FFFFFF"
   id="path6450" />
	<path
   d="M365,182.2c0.4,0,0.6-0.3,0.6-0.6v-2.5c0-0.4-0.3-0.6-0.6-0.6c-0.4,0-0.6,0.3-0.6,0.6v2.6   C364.4,181.9,364.6,182.2,365,182.2z"
   fill="#FFFFFF"
   id="path6452" />
</g>
<g
   id="Devices__x2B__Hardware_Expanded_AQ_2_">
	<g
   id="g6466">
		<path
   d="M360.6,68.6v7.8h7.8v-7.8H360.6z M367.7,75.7h-6.4v-6.4h6.4V75.7z"
   fill="#3E4044"
   id="path6456" />
		<path
   d="M357.6,72.8h2.4v-0.7h-2.4c-0.2-1.1-1.1-2-2.3-2c-1.3,0-2.4,1.1-2.4,2.4s1.1,2.4,2.4,2.4    C356.5,74.8,357.4,73.9,357.6,72.8z M353.6,72.5c0-0.9,0.8-1.7,1.7-1.7c0.9,0,1.7,0.8,1.7,1.7s-0.8,1.7-1.7,1.7    C354.3,74.2,353.6,73.4,353.6,72.5z"
   fill="#3E4044"
   id="path6458" />
		<polygon
   points="351.3,65.6 351.3,66.3 371.8,66.3 371.8,78.2 351.3,78.2 351.3,78.9 372.5,78.9     372.5,65.6   "
   fill="#3E4044"
   id="polygon6460" />
		<path
   d="M347.3,81.5h3.3V63h-3.3V81.5z M347.9,63.7h2v17.2h-2V63.7z"
   fill="#3E4044"
   id="path6462" />
		<polygon
   points="369.1,81.2 367.5,81.2 367.5,79.5 366.8,79.5 366.8,81.2 365.4,81.2 365.4,79.5     364.7,79.5 364.7,81.2 363.3,81.2 363.3,79.5 362.7,79.5 362.7,81.2 361.3,81.2 361.3,79.5 360.6,79.5 360.6,81.2 359,81.2     359,79.5 358.4,79.5 358.4,81.9 369.8,81.9 369.8,79.5 369.1,79.5   "
   fill="#3E4044"
   id="polygon6464" />
	</g>
</g>
<rect
   height="41"
   width="41"
   stroke-miterlimit="10"
   stroke-width="2"
   stroke="#006EA4"
   fill="none"
   y="18.2"
   x="339.4"
   id="rect6469" />
<text
   style="-inkscape-font-specification:Metropolis;font-family:Metropolis;font-weight:normal;font-style:normal;font-stretch:normal;font-variant:normal;"
   font-size="12px"
   font-family="'Metropolis-Regular'"
   fill="#006EA4"
   transform="matrix(1 0 0 1 350.1553 42.0778)"
   id="text102_3_">VM</text>
<line
   y2="170.8"
   x2="359.9"
   y1="86.3"
   x1="359.9"
   stroke-miterlimit="10"
   stroke-width="2"
   stroke="#3E4044"
   fill="none"
   id="line6472" />

</svg>
