<?xml version="1.0" encoding="UTF-8" standalone="no"?>
<svg
   xmlns:dc="http://purl.org/dc/elements/1.1/"
   xmlns:cc="http://creativecommons.org/ns#"
   xmlns:rdf="http://www.w3.org/1999/02/22-rdf-syntax-ns#"
   xmlns:svg="http://www.w3.org/2000/svg"
   xmlns="http://www.w3.org/2000/svg"
   xmlns:sodipodi="http://sodipodi.sourceforge.net/DTD/sodipodi-0.dtd"
   xmlns:inkscape="http://www.inkscape.org/namespaces/inkscape"
   xml:space="preserve"
   enable-background="new 0 0 659.9 681.1"
   viewBox="0 0 659.9 681.1"
   y="0px"
   x="0px"
   sodipodi:docname="StandardSwitch_VLANs.svg"
   inkscape:version="1.0 (4035a4f, 2020-05-01)"
   id="Layer_1"
   version="1.1"><metadata
   id="metadata345"><rdf:RDF><cc:Work
       rdf:about=""><dc:format>image/svg+xml</dc:format><dc:type
         rdf:resource="http://purl.org/dc/dcmitype/StillImage" /></cc:Work></rdf:RDF></metadata><defs
   id="defs343" />
<rect
   id="rect10"
   height="681.1"
   width="659.9"
   fill="#FFFFFF" />
<sodipodi:namedview
   inkscape:document-rotation="0"
   showgrid="false"
   pagecolor="#ffffff"
   objecttolerance="10"
   inkscape:zoom="1.0086625"
   inkscape:window-y="23"
   inkscape:window-x="0"
   inkscape:window-width="1556"
   inkscape:window-maximized="0"
   inkscape:window-height="895"
   inkscape:pageshadow="2"
   inkscape:pageopacity="0"
   inkscape:cy="340.54999"
   inkscape:cx="329.95001"
   inkscape:current-layer="Layer_1"
   id="namedview6475"
   guidetolerance="10"
   gridtolerance="10"
   borderopacity="1"
   bordercolor="#666666">
	</sodipodi:namedview>
<rect
   height="101.9"
   width="580.6"
   fill="#19BFD3"
   y="197.2"
   x="36.3"
   id="rect6017" />
<text
   style="-inkscape-font-specification:Metropolis;font-family:Metropolis;font-weight:normal;font-style:normal;font-stretch:normal;font-variant:normal;"
   font-size="14px"
   font-family="'Metropolis-Regular'"
   transform="matrix(1 0 0 1 165.9824 313.8177)"
   id="text2344_5_">Uplink Ports</text>
<text
   style="-inkscape-font-specification:Metropolis;font-family:Metropolis;font-weight:normal;font-style:normal;font-stretch:normal;font-variant:normal;"
   font-size="14px"
   font-family="'Metropolis-Regular'"
   transform="matrix(1 0 0 1 135.2919 383.7163)"
   id="text2344_6_">Physical Machine</text>
<text
   style="font-style:normal;font-variant:normal;font-weight:normal;font-stretch:normal;font-size:14px;font-family:Metropolis;-inkscape-font-specification:'Metropolis, Normal';font-variant-ligatures:normal;font-variant-caps:normal;font-variant-numeric:normal;font-variant-east-asian:normal"
   font-size="14px"
   font-family="'Metropolis-Regular'"
   id="text2344_8_"
   x="492.61429"
   y="280.89999"><tspan
     sodipodi:role="line"
     id="tspan1145"
     x="492.61429"
     y="280.89999">Standard Switch</tspan></text>
<text
   style="-inkscape-font-specification:Metropolis;font-family:Metropolis;font-weight:normal;font-style:normal;font-stretch:normal;font-variant:normal;"
   font-size="14px"
   font-family="'Metropolis-Regular'"
   transform="matrix(1 0 0 1 159.4843 430.7395)"
   id="text2344_7_">Physical NICs</text>
<text
   style="-inkscape-font-specification:Metropolis;font-family:Metropolis;font-weight:normal;font-style:normal;font-stretch:normal;font-variant:normal;"
   font-size="14px"
   font-family="'Metropolis-Regular'"
   transform="matrix(1 0 0 1 114.232 513.5597)"
   id="text2344_9_">Physical Switch</text>
<text
   style="-inkscape-font-specification:Metropolis;font-family:Metropolis;font-weight:normal;font-style:normal;font-stretch:normal;font-variant:normal;"
   font-size="14px"
   font-family="'Metropolis-Regular'"
   transform="matrix(1 0 0 1 20.8884 150.6972)"
   id="text2344_4_">ESXi</text>
<rect
   height="36.2"
   width="141.8"
   stroke-miterlimit="10"
   stroke="#000000"
   fill="#FFFFFF"
   y="280.9"
   x="255.7"
   id="rect6026" />
<g
   id="g6122">
	<path
   d="M384.9,366.4v26.7h-120v-26.7H384.9 M388.3,363.1H261.5v33.3h126.7L388.3,363.1L388.3,363.1z"
   id="path6102" />
	<path
   d="M324.6,375.7L324.6,375.7c2,0,3.6,1.5,4,3.3c0.4,2.1-1.1,4.3-3.3,4.7c-0.3,0-0.4,0-0.7,0c-2,0-3.6-1.5-4-3.3   c-0.4-2.1,1.1-4.3,3.3-4.7C324.1,375.7,324.4,375.7,324.6,375.7 M324.6,373.1c-0.4,0-0.8,0-1.1,0.1c-3.6,0.7-6.1,4-5.5,7.7   c0.5,3.2,3.3,5.6,6.5,5.6c0.4,0,0.8,0,1.1-0.1c3.6-0.7,6.1-4,5.5-7.7C330.6,375.3,327.8,373.1,324.6,373.1L324.6,373.1z"
   id="path6104" />
	<g
   id="g6112">
		<rect
   height="13.3"
   width="3.3"
   y="373.1"
   x="270.6"
   id="rect6106" />
		<rect
   height="13.3"
   width="3.3"
   y="373.1"
   x="277.3"
   id="rect6108" />
		<rect
   height="13.3"
   width="3.3"
   y="373.1"
   x="284"
   id="rect6110" />
	</g>
	<g
   id="g6120">
		<rect
   height="13.3"
   width="3.3"
   y="373.1"
   x="360.5"
   id="rect6114" />
		<rect
   height="13.3"
   width="3.3"
   y="373.1"
   x="367.2"
   id="rect6116" />
		<rect
   height="13.3"
   width="3.3"
   y="373.1"
   x="373.9"
   id="rect6118" />
	</g>
</g>
<rect
   height="206.2"
   width="634.8"
   stroke-dasharray="6"
   stroke-miterlimit="10"
   stroke-width="2"
   stroke="#000000"
   fill="none"
   y="129.8"
   x="12.5"
   id="rect6136" />
<g
   id="g6222">
	<path
   d="M422.2,495.1v29H227.6v-29L422.2,495.1 M423.8,493.4H226v32.3h197.8V493.4L423.8,493.4z"
   fill="#1295D3"
   id="path6138" />
	<path
   d="M327.7,521.1h-21.1c-1.5,0-2.5-1.3-2.5-2.5v-18c0-1.5,1.3-2.5,2.5-2.5h21.1   c1.3,0,2.3,1,2.5,2.5v18C330.2,520.1,328.9,521.1,327.7,521.1z M306.6,498.5c-1,0-2.1,0.8-2.1,2.1v18c0,1,0.8,2.1,2.1,2.1h21.1   c1,0,2.1-0.8,2.1-2.1v-18c-0.2-1.2-1-2.1-2.1-2.1L306.6,498.5L306.6,498.5z"
   fill="#1295D3"
   id="path6140" />
	<path
   d="M327.5,519.5h-20.9c-0.5,0-1-0.3-1-1v-17.8c0-0.5,0.3-1,1-1h21.1c0.5,0,1,0.3,1,1v18h-0.2   C328.4,519.1,328,519.5,327.5,519.5z M306.6,500c-0.3,0-0.7,0.3-0.7,0.7v17.8c0,0.3,0.3,0.7,0.7,0.7h20.9c0.3,0,0.7-0.3,0.7-0.7   v-0.2h0.2v-17.6c0-0.3-0.3-0.7-0.7-0.7L306.6,500L306.6,500z"
   fill="#1295D3"
   id="path6142" />
	<path
   d="M326.1,501.3h-17.8c-0.5,0-0.8,0.3-0.8,0.8v8.9c0,0.5,0.3,0.8,0.8,0.8h0.8v2.3   c0,0.5,0.3,0.8,0.8,0.8h2.3v2.3c0,0.5,0.3,0.8,0.8,0.8h8.6c0.5,0,0.8-0.3,0.8-0.8V515h2.3c0.5,0,0.8-0.3,0.8-0.8v-2.3h0.8   c0.5,0,0.8-0.3,0.8-0.8v-8.9C326.9,501.7,326.6,501.3,326.1,501.3z"
   fill="#1295D3"
   id="path6144" />
	<path
   d="M309.7,516.3h-1.5c-0.5,0-0.8,0.3-0.8,0.8s0.3,0.8,0.8,0.8h1.5c0.5,0,0.8-0.3,0.8-0.8   C310.4,516.7,310.1,516.3,309.7,516.3z"
   fill="#1295D3"
   id="path6146" />
	<path
   d="M326.1,516.3h-1.5c-0.5,0-0.8,0.3-0.8,0.8s0.3,0.8,0.8,0.8h1.5c0.5,0,0.8-0.3,0.8-0.8   C326.9,516.7,326.6,516.3,326.1,516.3z"
   fill="#1295D3"
   id="path6148" />
	<path
   d="M311.2,508.8c0.5,0,0.8-0.3,0.8-0.8v-3c0-0.5-0.3-0.8-0.8-0.8s-0.8,0.3-0.8,0.8v3   C310.4,508.4,310.7,508.8,311.2,508.8z"
   fill="#FFFFFF"
   id="path6150" />
	<path
   d="M314.2,508.8c0.5,0,0.8-0.3,0.8-0.8v-3c0-0.5-0.3-0.8-0.8-0.8s-0.8,0.5-0.8,1v3   C313.4,508.4,313.7,508.8,314.2,508.8z"
   fill="#FFFFFF"
   id="path6152" />
	<path
   d="M317.2,508.8c0.5,0,0.8-0.3,0.8-0.8v-3c0-0.5-0.3-0.8-0.8-0.8s-0.8,0.3-0.8,0.8v3   C316.3,508.4,316.7,508.8,317.2,508.8z"
   fill="#FFFFFF"
   id="path6154" />
	<path
   d="M320.1,508.8c0.5,0,0.8-0.3,0.8-0.8v-3c0-0.5-0.3-0.8-0.8-0.8s-0.8,0.3-0.8,0.8v3   C319.5,508.4,319.8,508.8,320.1,508.8z"
   fill="#FFFFFF"
   id="path6156" />
	<path
   d="M323.1,508.8c0.5,0,0.8-0.3,0.8-0.8v-3c0-0.5-0.3-0.8-0.8-0.8s-0.8,0.3-0.8,0.8v3   C322.4,508.4,322.8,508.8,323.1,508.8z"
   fill="#FFFFFF"
   id="path6158" />
	<path
   d="M357.9,521.1h-21.1c-1.5,0-2.5-1.3-2.5-2.5v-18c0-1.5,1.3-2.5,2.5-2.5h20.9   c1.3,0,2.5,1,2.6,2.5v18C360.3,520.1,359,521.1,357.9,521.1z M336.8,498.5c-1,0-2.1,0.8-2.1,2.1v18c0,1,0.8,2.1,2.1,2.1h21.1   c1,0,2.1-0.8,2.1-2.1v-18c-0.2-1.2-1.2-2.1-2.3-2.1L336.8,498.5L336.8,498.5z"
   fill="#1295D3"
   id="path6160" />
	<path
   d="M357.7,519.5h-20.9c-0.5,0-1-0.3-1-1v-17.8c0-0.5,0.3-1,1-1h21.1c0.5,0,1,0.3,1,1v18h-0.2   C358.5,519.1,358.2,519.5,357.7,519.5z M336.8,500c-0.3,0-0.7,0.3-0.7,0.7v17.8c0,0.3,0.3,0.7,0.7,0.7h20.9c0.3,0,0.7-0.3,0.7-0.7   v-0.2h0.2v-17.6c0-0.3-0.3-0.7-0.7-0.7L336.8,500L336.8,500z"
   fill="#1295D3"
   id="path6162" />
	<path
   d="M356.2,501.3h-18c-0.5,0-0.8,0.3-0.8,0.8v8.9c0,0.5,0.3,0.8,0.8,0.8h0.8v2.3   c0,0.5,0.3,0.8,0.8,0.8h2.3v2.3c0,0.5,0.3,0.8,0.8,0.8h8.9c0.5,0,0.8-0.3,0.8-0.8V515h2.3c0.5,0,0.8-0.3,0.8-0.8v-2.3h0.3   c0.5,0,0.8-0.3,0.8-0.8v-8.9C357.1,501.7,356.7,501.3,356.2,501.3z"
   fill="#1295D3"
   id="path6164" />
	<path
   d="M339.7,516.3h-1.5c-0.5,0-0.8,0.3-0.8,0.8s0.3,0.8,0.8,0.8h1.5c0.5,0,0.8-0.3,0.8-0.8   C340.6,516.7,340.2,516.3,339.7,516.3z"
   fill="#1295D3"
   id="path6166" />
	<path
   d="M356.2,516.3h-1.5c-0.5,0-0.8,0.3-0.8,0.8s0.3,0.8,0.8,0.8h1.5c0.5,0,0.8-0.3,0.8-0.8   C357.1,516.7,356.7,516.3,356.2,516.3z"
   fill="#1295D3"
   id="path6168" />
	<path
   d="M341.2,508.8c0.5,0,0.8-0.3,0.8-0.8v-3c0-0.5-0.3-0.8-0.8-0.8s-0.8,0.3-0.8,0.8v3   C340.6,508.4,340.9,508.8,341.2,508.8z"
   fill="#FFFFFF"
   id="path6170" />
	<path
   d="M344.2,508.8c0.5,0,0.8-0.3,0.8-0.8v-3c0-0.5-0.3-0.8-0.8-0.8s-0.8,0.3-0.8,0.8v3   C343.5,508.4,343.9,508.8,344.2,508.8z"
   fill="#FFFFFF"
   id="path6172" />
	<path
   d="M347.3,508.8c0.5,0,0.8-0.3,0.8-0.8v-3c0-0.5-0.3-0.8-0.8-0.8s-0.8,0.3-0.8,0.8v3   C346.5,508.4,346.8,508.8,347.3,508.8z"
   fill="#FFFFFF"
   id="path6174" />
	<path
   d="M350.3,508.8c0.5,0,0.8-0.3,0.8-0.8v-3c0-0.5-0.3-0.8-0.8-0.8s-0.8,0.3-0.8,0.8v3   C349.5,508.4,349.8,508.8,350.3,508.8z"
   fill="#FFFFFF"
   id="path6176" />
	<path
   d="M353.3,508.8c0.5,0,0.8-0.3,0.8-0.8v-3c0-0.5-0.3-0.8-0.8-0.8s-0.8,0.3-0.8,0.8v3   C352.4,508.4,352.8,508.8,353.3,508.8z"
   fill="#FFFFFF"
   id="path6178" />
	<path
   d="M387.9,521.1h-21.1c-1.5,0-2.5-1.3-2.5-2.5v-18c0-1.5,1.3-2.5,2.5-2.5h21.1   c1.5,0,2.5,1.2,2.5,2.5v18C390.4,520.1,389,521.1,387.9,521.1z M366.8,498.5c-1,0-2.1,0.8-2.1,2.1v18c0,1,0.8,2.1,2.1,2.1h21.1   c1,0,2.1-0.8,2.1-2.1v-18c0-1.2-0.8-2.1-2.1-2.1L366.8,498.5L366.8,498.5z"
   fill="#1295D3"
   id="path6180" />
	<path
   d="M387.9,519.5h-21.1c-0.5,0-1-0.3-1-1v-17.8c0-0.5,0.3-1,1-1h21.1c0.5,0,1,0.3,1,1v17.8   C388.9,519,388.5,519.5,387.9,519.5z M366.8,500c-0.3,0-0.7,0.3-0.7,0.7v17.8c0,0.3,0.3,0.7,0.7,0.7h21.1c0.3,0,0.7-0.3,0.7-0.7   v-17.8c0-0.3-0.3-0.7-0.7-0.7H366.8z"
   fill="#1295D3"
   id="path6182" />
	<path
   d="M386.4,501.3h-18c-0.5,0-0.8,0.3-0.8,0.8v8.9c0,0.5,0.3,0.8,0.8,0.8h0.8v2.3   c0,0.5,0.3,0.8,0.8,0.8h2.3v2.3c0,0.5,0.3,0.8,0.8,0.8h8.9c0.5,0,0.8-0.3,0.8-0.8V515h2.3c0.5,0,0.8-0.3,0.8-0.8v-2.3h0.8   c0.5,0,0.8-0.3,0.8-0.8v-8.9C387.1,501.7,386.7,501.3,386.4,501.3z"
   fill="#1295D3"
   id="path6184" />
	<path
   d="M369.9,516.3h-1.5c-0.5,0-0.8,0.3-0.8,0.8s0.3,0.8,0.8,0.8h1.5c0.5,0,0.8-0.3,0.8-0.8   C370.6,516.7,370.2,516.3,369.9,516.3z"
   fill="#1295D3"
   id="path6186" />
	<path
   d="M386.4,516.3h-1.5c-0.5,0-0.8,0.3-0.8,0.8s0.3,0.8,0.8,0.8h1.5c0.5,0,0.8-0.3,0.8-0.8   C387.1,516.7,386.7,516.3,386.4,516.3z"
   fill="#1295D3"
   id="path6188" />
	<path
   d="M371.4,508.8c0.5,0,0.8-0.3,0.8-0.8v-3c0-0.5-0.3-0.8-0.8-0.8s-0.8,0.3-0.8,0.8v3   C370.6,508.4,370.9,508.8,371.4,508.8z"
   fill="#FFFFFF"
   id="path6190" />
	<path
   d="M374.4,508.8c0.5,0,0.8-0.3,0.8-0.8v-3c0-0.5-0.3-0.8-0.8-0.8s-0.8,0.3-0.8,0.8v3   C373.7,508.4,374,508.8,374.4,508.8z"
   fill="#FFFFFF"
   id="path6192" />
	<path
   d="M377.3,508.8c0.5,0,0.8-0.3,0.8-0.8v-3c0-0.5-0.3-0.8-0.8-0.8s-0.8,0.3-0.8,0.8v3   C376.7,508.4,377,508.8,377.3,508.8z"
   fill="#FFFFFF"
   id="path6194" />
	<path
   d="M380.3,508.8c0.5,0,0.8-0.3,0.8-0.8v-3c0-0.5-0.3-0.8-0.8-0.8s-0.8,0.3-0.8,0.8v3   C379.6,508.4,380,508.8,380.3,508.8z"
   fill="#FFFFFF"
   id="path6196" />
	<path
   d="M383.4,508.8c0.5,0,0.8-0.3,0.8-0.8v-3c0-0.5-0.3-0.8-0.8-0.8s-0.8,0.5-0.8,1v3   C382.6,508.4,382.9,508.8,383.4,508.8z"
   fill="#FFFFFF"
   id="path6198" />
	<path
   d="M418,521.1h-21.1c-1.5,0-2.5-1.3-2.5-2.5v-18c0-1.5,1.3-2.5,2.5-2.5H418c1.3,0,2.3,1,2.5,2.5   v18C420.5,520.1,419.2,521.1,418,521.1z M396.9,498.5c-1,0-2.1,0.8-2.1,2.1v18c0,1,0.8,2.1,2.1,2.1H418c1,0,2.1-0.8,2.1-2.1v-18   c-0.2-1.2-1-2.1-2.1-2.1L396.9,498.5L396.9,498.5z"
   fill="#1295D3"
   id="path6200" />
	<path
   d="M417.9,519.5h-21.1c-0.5,0-1-0.3-1-1v-17.8c0-0.5,0.3-1,1-1h21.1c0.5,0,1,0.3,1,1v17.8   C418.9,519,418.5,519.5,417.9,519.5z M396.8,500c-0.3,0-0.7,0.3-0.7,0.7v17.8c0,0.3,0.3,0.7,0.7,0.7h21.1c0.3,0,0.7-0.3,0.7-0.7   v-17.8c0-0.3-0.3-0.7-0.7-0.7H396.8z"
   fill="#1295D3"
   id="path6202" />
	<path
   d="M416.4,501.3h-18c-0.5,0-0.8,0.3-0.8,0.8v8.9c0,0.5,0.3,0.8,0.8,0.8h0.8v2.3   c0,0.5,0.3,0.8,0.8,0.8h2.3v2.3c0,0.5,0.3,0.8,0.8,0.8h8.9c0.5,0,0.8-0.3,0.8-0.8V515h2.3c0.5,0,0.8-0.3,0.8-0.8v-2.3h0.8   c0.5,0,0.8-0.3,0.8-0.8v-8.9C417.2,501.7,416.9,501.3,416.4,501.3z"
   fill="#1295D3"
   id="path6204" />
	<path
   d="M400.1,516.3h-1.5c-0.5,0-0.8,0.3-0.8,0.8s0.3,0.8,0.8,0.8h1.5c0.5,0,0.8-0.3,0.8-0.8   C400.7,516.7,400.4,516.3,400.1,516.3z"
   fill="#1295D3"
   id="path6206" />
	<path
   d="M416.4,516.3h-1.5c-0.5,0-0.8,0.3-0.8,0.8s0.3,0.8,0.8,0.8h1.5c0.5,0,0.8-0.3,0.8-0.8   C417.2,516.7,416.9,516.3,416.4,516.3z"
   fill="#1295D3"
   id="path6208" />
	<path
   d="M401.6,508.8c0.5,0,0.8-0.3,0.8-0.8v-3c0-0.5-0.3-0.8-0.8-0.8s-0.8,0.5-0.8,1v3   C400.7,508.4,401.1,508.8,401.6,508.8z"
   fill="#FFFFFF"
   id="path6210" />
	<path
   d="M404.5,508.8c0.5,0,0.8-0.3,0.8-0.8v-3c0-0.5-0.3-0.8-0.8-0.8s-0.8,0.3-0.8,0.8v3   C403.7,508.4,404,508.8,404.5,508.8z"
   fill="#FFFFFF"
   id="path6212" />
	<path
   d="M407.5,508.8c0.5,0,0.8-0.3,0.8-0.8v-3c0-0.5-0.3-0.8-0.8-0.8s-0.8,0.3-0.8,0.8v3   C406.7,508.4,407,508.8,407.5,508.8z"
   fill="#FFFFFF"
   id="path6214" />
	<path
   d="M410.5,508.8c0.5,0,0.8-0.3,0.8-0.8v-3c0-0.5-0.3-0.8-0.8-0.8s-0.8,0.3-0.8,0.8v3   C409.8,508.4,410.1,508.8,410.5,508.8z"
   fill="#FFFFFF"
   id="path6216" />
	<path
   d="M413.4,508.8c0.5,0,0.8-0.3,0.8-0.8v-3c0-0.5-0.3-0.8-0.8-0.8s-0.8,0.3-0.8,0.8v3   C412.8,508.4,413.1,508.8,413.4,508.8z"
   fill="#FFFFFF"
   id="path6218" />
	<path
   d="M297,520.8h-64.3c-1.3,0-2.3-1-2.3-2.3v-17.8c0-1.3,1-2.3,2.3-2.3h64.5c1.3,0,2.3,1,2.3,2.3   v17.8C299.5,519.8,298.4,520.8,297,520.8z"
   fill="#1295D3"
   id="path6220" />
</g>
<line
   y2="553.5"
   x2="647.4"
   y1="553.5"
   x1="116.8"
   stroke-miterlimit="10"
   stroke-width="2"
   stroke="#000000"
   fill="none"
   id="line6224" />
<line
   y2="553.5"
   x2="408.3"
   y1="521.1"
   x1="408.3"
   stroke-miterlimit="10"
   stroke-width="2"
   stroke="#000000"
   fill="none"
   id="line6226" />
<line
   y2="598.4"
   x2="179.2"
   y1="553.5"
   x1="179.2"
   stroke-miterlimit="10"
   stroke-width="2"
   stroke="#000000"
   fill="none"
   id="line6226_1_" />
<line
   y2="598.4"
   x2="322.3"
   y1="553.5"
   x1="322.3"
   stroke-miterlimit="10"
   stroke-width="2"
   stroke="#000000"
   fill="none"
   id="line6226_2_" />
<line
   y2="598.4"
   x2="467.8"
   y1="553.5"
   x1="467.8"
   stroke-miterlimit="10"
   stroke-width="2"
   stroke="#000000"
   fill="none"
   id="line6226_3_" />
<line
   y2="598.4"
   x2="610.5"
   y1="553.5"
   x1="610.5"
   stroke-miterlimit="10"
   stroke-width="2"
   stroke="#000000"
   fill="none"
   id="line6226_4_" />
<text
   y="150.6978"
   x="522.73181"
   style="font-style:normal;font-variant:normal;font-weight:normal;font-stretch:normal;font-size:12px;font-family:Metropolis;-inkscape-font-specification:'Metropolis, Normal';font-variant-ligatures:normal;font-variant-caps:normal;font-variant-numeric:normal;font-variant-east-asian:normal"
   id="text82"
   font-size="12px"
   font-family="'Metropolis-Regular'"><tspan
     y="150.6978"
     x="522.73181"
     id="tspan1146"
     sodipodi:role="line">IP Storage</tspan></text>
<text
   y="162.6978"
   x="511.67688"
   style="font-style:normal;font-variant:normal;font-weight:normal;font-stretch:normal;font-family:Metropolis;-inkscape-font-specification:Metropolis"
   id="text84"
   font-size="12px"
   font-family="'Metropolis-Regular'">VMkernel Port</text>
<rect
   height="77.3"
   width="78.4"
   stroke-miterlimit="10"
   stroke="#000000"
   fill="#ECECEB"
   y="170.1"
   x="516.4"
   id="rect6233" />
<g
   id="g6257">
	<path
   d="M564.6,207.1h-18c-1.2,0-2.2-1-2.2-2.2v-15.3c0-1.2,1-2.2,2.2-2.2h18c1.2,0,2.2,1,2.2,2.2   v15.3C566.8,206.1,565.8,207.1,564.6,207.1z"
   fill="#3E4044"
   id="path6235" />
	<path
   d="M546.6,187.9c-0.9,0-1.6,0.7-1.6,1.6v15.3c0,0.9,0.7,1.6,1.6,1.6h18c0.9,0,1.6-0.7,1.6-1.6   v-15.3c0-0.9-0.7-1.6-1.6-1.6H546.6z"
   fill="#FFFFFF"
   id="path6237" />
	<path
   d="M564.6,205.6h-18c-0.4,0-0.8-0.3-0.8-0.8v-15.3c0-0.4,0.3-0.8,0.8-0.8h18   c0.4,0,0.8,0.3,0.8,0.8v15.3C565.3,205.3,565,205.6,564.6,205.6z M546.6,189c-0.3,0-0.5,0.2-0.5,0.5v15.3c0,0.3,0.2,0.5,0.5,0.5h18   c0.3,0,0.5-0.2,0.5-0.5v-15.3c0-0.3-0.2-0.5-0.5-0.5H546.6z"
   fill="#3E4044"
   id="path6239" />
	<path
   d="M563.3,190.2H548c-0.4,0-0.6,0.3-0.6,0.6v7.7c0,0.4,0.3,0.6,0.6,0.6h0.6v1.9   c0,0.4,0.3,0.6,0.6,0.6h1.9v1.9c0,0.4,0.3,0.6,0.6,0.6h7.7c0.4,0,0.6-0.3,0.6-0.6v-1.9h1.9c0.4,0,0.6-0.3,0.6-0.6v-1.9h0.6   c0.4,0,0.6-0.3,0.6-0.6v-7.7C563.9,190.5,563.6,190.2,563.3,190.2z"
   fill="#3E4044"
   id="path6241" />
	<path
   d="M549.2,202.9h-1.3c-0.4,0-0.6,0.3-0.6,0.6c0,0.4,0.3,0.6,0.6,0.6h1.3c0.4,0,0.6-0.3,0.6-0.6   S549.5,202.9,549.2,202.9z"
   fill="#3E4044"
   id="path6243" />
	<path
   d="M563.3,202.9H562c-0.4,0-0.6,0.3-0.6,0.6c0,0.4,0.3,0.6,0.6,0.6h1.3c0.4,0,0.6-0.3,0.6-0.6   C563.9,203.2,563.6,202.9,563.3,202.9z"
   fill="#3E4044"
   id="path6245" />
	<path
   d="M550.5,196.5c0.4,0,0.6-0.3,0.6-0.6v-2.5c0-0.4-0.3-0.6-0.6-0.6c-0.4,0-0.6,0.3-0.6,0.6v2.6   C549.8,196.3,550.1,196.5,550.5,196.5z"
   fill="#FFFFFF"
   id="path6247" />
	<path
   d="M553,196.5c0.4,0,0.6-0.3,0.6-0.6v-2.5c0-0.4-0.3-0.6-0.6-0.6s-0.6,0.3-0.6,0.6v2.6   C552.4,196.3,552.7,196.5,553,196.5z"
   fill="#FFFFFF"
   id="path6249" />
	<path
   d="M555.6,196.5c0.4,0,0.6-0.3,0.6-0.6v-2.5c0-0.4-0.3-0.6-0.6-0.6s-0.6,0.3-0.6,0.6v2.6   C554.9,196.3,555.2,196.5,555.6,196.5z"
   fill="#FFFFFF"
   id="path6251" />
	<path
   d="M558.2,196.5c0.4,0,0.6-0.3,0.6-0.6v-2.5c0-0.4-0.3-0.6-0.6-0.6s-0.6,0.3-0.6,0.6v2.6   C557.5,196.3,557.8,196.5,558.2,196.5z"
   fill="#FFFFFF"
   id="path6253" />
	<path
   d="M560.7,196.5c0.4,0,0.6-0.3,0.6-0.6v-2.5c0-0.4-0.3-0.6-0.6-0.6s-0.6,0.3-0.6,0.6v2.6   C560.1,196.3,560.4,196.5,560.7,196.5z"
   fill="#FFFFFF"
   id="path6255" />
</g>
<text
   style="-inkscape-font-specification:Metropolis;font-family:Metropolis;font-weight:normal;font-style:normal;font-stretch:normal;font-variant:normal;"
   id="text99"
   font-size="12px"
   font-family="'Metropolis-Regular'"
   transform="matrix(1 0 0 1 411.3092 150.6975)">Management</text>
<text
   style="-inkscape-font-specification:Metropolis;font-family:Metropolis;font-weight:normal;font-style:normal;font-stretch:normal;font-variant:normal;"
   id="text101"
   font-size="12px"
   font-family="'Metropolis-Regular'"
   transform="matrix(1 0 0 1 407.4092 162.6975)">VMkernel Port</text>
<rect
   height="77.3"
   width="78.4"
   stroke-miterlimit="10"
   stroke="#000000"
   fill="#ECECEB"
   y="170.1"
   x="409.6"
   id="rect6264" />
<g
   id="g6288">
	<path
   d="M457.8,207.1h-18c-1.2,0-2.2-1-2.2-2.2v-15.3c0-1.2,1-2.2,2.2-2.2h18c1.2,0,2.2,1,2.2,2.2   v15.3C460,206.1,459,207.1,457.8,207.1z"
   fill="#3E4044"
   id="path6266" />
	<path
   d="M439.8,187.9c-0.9,0-1.6,0.7-1.6,1.6v15.3c0,0.9,0.7,1.6,1.6,1.6h18c0.9,0,1.6-0.7,1.6-1.6   v-15.3c0-0.9-0.7-1.6-1.6-1.6H439.8z"
   fill="#FFFFFF"
   id="path6268" />
	<path
   d="M457.8,205.6h-18c-0.4,0-0.8-0.3-0.8-0.8v-15.3c0-0.4,0.3-0.8,0.8-0.8h18   c0.4,0,0.8,0.3,0.8,0.8v15.3C458.5,205.3,458.2,205.6,457.8,205.6z M439.8,189c-0.3,0-0.5,0.2-0.5,0.5v15.3c0,0.3,0.2,0.5,0.5,0.5   h18c0.3,0,0.5-0.2,0.5-0.5v-15.3c0-0.3-0.2-0.5-0.5-0.5H439.8z"
   fill="#3E4044"
   id="path6270" />
	<path
   d="M456.5,190.2h-15.3c-0.4,0-0.6,0.3-0.6,0.6v7.7c0,0.4,0.3,0.6,0.6,0.6h0.6v1.9   c0,0.4,0.3,0.6,0.6,0.6h1.9v1.9c0,0.4,0.3,0.6,0.6,0.6h7.7c0.4,0,0.6-0.3,0.6-0.6v-1.9h1.9c0.4,0,0.6-0.3,0.6-0.6v-1.9h0.6   c0.4,0,0.6-0.3,0.6-0.6v-7.7C457.1,190.5,456.8,190.2,456.5,190.2z"
   fill="#3E4044"
   id="path6272" />
	<path
   d="M442.4,202.9h-1.3c-0.4,0-0.6,0.3-0.6,0.6c0,0.4,0.3,0.6,0.6,0.6h1.3c0.4,0,0.6-0.3,0.6-0.6   S442.7,202.9,442.4,202.9z"
   fill="#3E4044"
   id="path6274" />
	<path
   d="M456.5,202.9h-1.3c-0.4,0-0.6,0.3-0.6,0.6c0,0.4,0.3,0.6,0.6,0.6h1.3c0.4,0,0.6-0.3,0.6-0.6   S456.8,202.9,456.5,202.9z"
   fill="#3E4044"
   id="path6276" />
	<path
   d="M443.7,196.5c0.4,0,0.6-0.3,0.6-0.6v-2.5c0-0.4-0.3-0.6-0.6-0.6s-0.6,0.3-0.6,0.6v2.6   C443,196.3,443.3,196.5,443.7,196.5z"
   fill="#FFFFFF"
   id="path6278" />
	<path
   d="M446.2,196.5c0.4,0,0.6-0.3,0.6-0.6v-2.5c0-0.4-0.3-0.6-0.6-0.6c-0.4,0-0.6,0.3-0.6,0.6v2.6   C445.6,196.3,445.9,196.5,446.2,196.5z"
   fill="#FFFFFF"
   id="path6280" />
	<path
   d="M448.8,196.5c0.4,0,0.6-0.3,0.6-0.6v-2.5c0-0.4-0.3-0.6-0.6-0.6s-0.6,0.3-0.6,0.6v2.6   C448.1,196.3,448.4,196.5,448.8,196.5z"
   fill="#FFFFFF"
   id="path6282" />
	<path
   d="M451.4,196.5c0.4,0,0.6-0.3,0.6-0.6v-2.5c0-0.4-0.3-0.6-0.6-0.6s-0.6,0.3-0.6,0.6v2.6   C450.7,196.3,451,196.5,451.4,196.5z"
   fill="#FFFFFF"
   id="path6284" />
	<path
   d="M453.9,196.5c0.4,0,0.6-0.3,0.6-0.6v-2.5c0-0.4-0.3-0.6-0.6-0.6c-0.4,0-0.6,0.3-0.6,0.6v2.6   C453.3,196.3,453.6,196.5,453.9,196.5z"
   fill="#FFFFFF"
   id="path6286" />
</g>
<rect
   height="72.5"
   width="141.8"
   fill="#218FCF"
   y="175.6"
   x="58"
   id="rect6290" />
<text
   style="-inkscape-font-specification:Metropolis;font-family:Metropolis;font-weight:normal;font-style:normal;font-stretch:normal;font-variant:normal;"
   id="text117"
   font-size="14px"
   font-family="'Metropolis-Regular'"
   fill="#FFFFFF"
   transform="matrix(1 0 0 1 90.9761 204.2941)">Accounting</text>
<text
   style="-inkscape-font-specification:Metropolis;font-family:Metropolis;font-weight:normal;font-style:normal;font-stretch:normal;font-variant:normal;"
   id="text119"
   font-size="14px"
   font-family="'Metropolis-Regular'"
   fill="#FFFFFF"
   transform="matrix(1 0 0 1 91.7182 218.2941)">Port Group</text>
<g
   id="g6319">
	<path
   d="M99.2,185.5h-18c-1.2,0-2.2-1-2.2-2.2V168c0-1.2,1-2.2,2.2-2.2h18c1.2,0,2.2,1,2.2,2.2v15.3   C101.4,184.5,100.4,185.5,99.2,185.5z"
   fill="#3E4044"
   id="path6297" />
	<path
   d="M81.2,166.3c-0.9,0-1.6,0.7-1.6,1.6v15.3c0,0.9,0.7,1.6,1.6,1.6h18c0.9,0,1.6-0.7,1.6-1.6   v-15.3c0-0.9-0.7-1.6-1.6-1.6H81.2z"
   fill="#FFFFFF"
   id="path6299" />
	<path
   d="M99.2,184h-18c-0.4,0-0.8-0.3-0.8-0.8v-15.3c0-0.4,0.3-0.8,0.8-0.8h18c0.4,0,0.8,0.3,0.8,0.8   v15.3C99.9,183.7,99.6,184,99.2,184z M81.2,167.4c-0.3,0-0.5,0.2-0.5,0.5v15.3c0,0.3,0.2,0.5,0.5,0.5h18c0.3,0,0.5-0.2,0.5-0.5   v-15.3c0-0.3-0.2-0.5-0.5-0.5H81.2z"
   fill="#3E4044"
   id="path6301" />
	<path
   d="M97.8,168.5H82.5c-0.4,0-0.6,0.3-0.6,0.6v7.7c0,0.4,0.3,0.6,0.6,0.6h0.6v1.9   c0,0.4,0.3,0.6,0.6,0.6h1.9v1.9c0,0.4,0.3,0.6,0.6,0.6H94c0.4,0,0.6-0.3,0.6-0.6v-1.9h1.9c0.4,0,0.6-0.3,0.6-0.6v-1.9h0.6   c0.4,0,0.6-0.3,0.6-0.6v-7.7C98.5,168.8,98.2,168.5,97.8,168.5z"
   fill="#3E4044"
   id="path6303" />
	<path
   d="M83.8,181.3h-1.3c-0.4,0-0.6,0.3-0.6,0.6s0.3,0.6,0.6,0.6h1.3c0.4,0,0.6-0.3,0.6-0.6   S84.1,181.3,83.8,181.3z"
   fill="#3E4044"
   id="path6305" />
	<path
   d="M97.8,181.3h-1.3c-0.4,0-0.6,0.3-0.6,0.6s0.3,0.6,0.6,0.6h1.3c0.4,0,0.6-0.3,0.6-0.6   S98.2,181.3,97.8,181.3z"
   fill="#3E4044"
   id="path6307" />
	<path
   d="M85.1,174.9c0.4,0,0.6-0.3,0.6-0.6v-2.5c0-0.4-0.3-0.6-0.6-0.6c-0.4,0-0.6,0.3-0.6,0.6v2.6   C84.4,174.6,84.7,174.9,85.1,174.9z"
   fill="#FFFFFF"
   id="path6309" />
	<path
   d="M87.6,174.9c0.4,0,0.6-0.3,0.6-0.6v-2.5c0-0.4-0.3-0.6-0.6-0.6c-0.4,0-0.6,0.3-0.6,0.6v2.6   C87,174.6,87.3,174.9,87.6,174.9z"
   fill="#FFFFFF"
   id="path6311" />
	<path
   d="M90.2,174.9c0.4,0,0.6-0.3,0.6-0.6v-2.5c0-0.4-0.3-0.6-0.6-0.6c-0.4,0-0.6,0.3-0.6,0.6v2.6   C89.5,174.6,89.8,174.9,90.2,174.9z"
   fill="#FFFFFF"
   id="path6313" />
	<path
   d="M92.7,174.9c0.4,0,0.6-0.3,0.6-0.6v-2.5c0-0.4-0.3-0.6-0.6-0.6c-0.4,0-0.6,0.3-0.6,0.6v2.6   C92.1,174.6,92.4,174.9,92.7,174.9z"
   fill="#FFFFFF"
   id="path6315" />
	<path
   d="M95.3,174.9c0.4,0,0.6-0.3,0.6-0.6v-2.5c0-0.4-0.3-0.6-0.6-0.6c-0.4,0-0.6,0.3-0.6,0.6v2.6   C94.7,174.6,94.9,174.9,95.3,174.9z"
   fill="#FFFFFF"
   id="path6317" />
</g>
<g
   id="Devices__x2B__Hardware_Expanded_AQ">
	<g
   id="g6331">
		<path
   d="M90.9,61.3v7.8h7.8v-7.8H90.9z M98,68.4h-6.4V62H98V68.4z"
   fill="#3E4044"
   id="path6321" />
		<path
   d="M87.9,65.5h2.4v-0.7h-2.4c-0.2-1.1-1.1-2-2.3-2c-1.3,0-2.4,1.1-2.4,2.4s1.1,2.4,2.4,2.4    C86.7,67.5,87.7,66.6,87.9,65.5z M83.9,65.2c0-0.9,0.8-1.7,1.7-1.7c0.9,0,1.7,0.8,1.7,1.7s-0.8,1.7-1.7,1.7    C84.6,66.9,83.9,66.1,83.9,65.2z"
   fill="#3E4044"
   id="path6323" />
		<polygon
   points="81.6,58.3 81.6,59 102.1,59 102.1,70.9 81.6,70.9 81.6,71.6 102.8,71.6     102.8,58.3   "
   fill="#3E4044"
   id="polygon6325" />
		<path
   d="M77.6,74.2h3.3V55.7h-3.3V74.2z M78.2,56.4h2v17.2h-2V56.4z"
   fill="#3E4044"
   id="path6327" />
		<polygon
   points="99.4,73.9 97.8,73.9 97.8,72.2 97.1,72.2 97.1,73.9 95.7,73.9 95.7,72.2     95,72.2 95,73.9 93.6,73.9 93.6,72.2 93,72.2 93,73.9 91.6,73.9 91.6,72.2 90.9,72.2 90.9,73.9 89.3,73.9 89.3,72.2 88.6,72.2     88.6,74.6 100.1,74.6 100.1,72.2 99.4,72.2   "
   fill="#3E4044"
   id="polygon6329" />
	</g>
</g>
<rect
   height="41"
   width="41"
   stroke-miterlimit="10"
   stroke-width="2"
   stroke="#006EA4"
   fill="none"
   y="10.9"
   x="69.7"
   id="rect6334" />
<text
   style="-inkscape-font-specification:Metropolis;font-family:Metropolis;font-weight:normal;font-style:normal;font-stretch:normal;font-variant:normal;"
   font-size="12px"
   font-family="'Metropolis-Regular'"
   fill="#006EA4"
   transform="matrix(1 0 0 1 80.4186 34.7778)"
   id="text102_1_">VM</text>
<line
   y2="163.5"
   x2="90.2"
   y1="79"
   x1="90.2"
   stroke-miterlimit="10"
   stroke-width="2"
   stroke="#3E4044"
   fill="none"
   id="line6337" />
<g
   id="g6361">
	<path
   d="M175.8,185.5h-18c-1.2,0-2.2-1-2.2-2.2V168c0-1.2,1-2.2,2.2-2.2h18c1.2,0,2.2,1,2.2,2.2v15.3   C178.1,184.5,177.1,185.5,175.8,185.5z"
   fill="#3E4044"
   id="path6339" />
	<path
   d="M157.9,166.3c-0.9,0-1.6,0.7-1.6,1.6v15.3c0,0.9,0.7,1.6,1.6,1.6h18c0.9,0,1.6-0.7,1.6-1.6   v-15.3c0-0.9-0.7-1.6-1.6-1.6H157.9z"
   fill="#FFFFFF"
   id="path6341" />
	<path
   d="M175.8,184h-18c-0.4,0-0.8-0.3-0.8-0.8v-15.3c0-0.4,0.3-0.8,0.8-0.8h18   c0.4,0,0.8,0.3,0.8,0.8v15.3C176.6,183.7,176.3,184,175.8,184z M157.9,167.4c-0.3,0-0.5,0.2-0.5,0.5v15.3c0,0.3,0.2,0.5,0.5,0.5h18   c0.3,0,0.5-0.2,0.5-0.5v-15.3c0-0.3-0.2-0.5-0.5-0.5H157.9z"
   fill="#3E4044"
   id="path6343" />
	<path
   d="M174.5,168.5h-15.3c-0.4,0-0.6,0.3-0.6,0.6v7.7c0,0.4,0.3,0.6,0.6,0.6h0.6v1.9   c0,0.4,0.3,0.6,0.6,0.6h1.9v1.9c0,0.4,0.3,0.6,0.6,0.6h7.7c0.4,0,0.6-0.3,0.6-0.6v-1.9h1.9c0.4,0,0.6-0.3,0.6-0.6v-1.9h0.6   c0.4,0,0.6-0.3,0.6-0.6v-7.7C175.2,168.8,174.9,168.5,174.5,168.5z"
   fill="#3E4044"
   id="path6345" />
	<path
   d="M160.4,181.3h-1.3c-0.4,0-0.6,0.3-0.6,0.6s0.3,0.6,0.6,0.6h1.3c0.4,0,0.6-0.3,0.6-0.6   S160.8,181.3,160.4,181.3z"
   fill="#3E4044"
   id="path6347" />
	<path
   d="M174.5,181.3h-1.3c-0.4,0-0.6,0.3-0.6,0.6s0.3,0.6,0.6,0.6h1.3c0.4,0,0.6-0.3,0.6-0.6   S174.9,181.3,174.5,181.3z"
   fill="#3E4044"
   id="path6349" />
	<path
   d="M161.7,174.9c0.4,0,0.6-0.3,0.6-0.6v-2.5c0-0.4-0.3-0.6-0.6-0.6c-0.4,0-0.6,0.3-0.6,0.6v2.6   C161.1,174.6,161.4,174.9,161.7,174.9z"
   fill="#FFFFFF"
   id="path6351" />
	<path
   d="M164.3,174.9c0.4,0,0.6-0.3,0.6-0.6v-2.5c0-0.4-0.3-0.6-0.6-0.6s-0.6,0.3-0.6,0.6v2.6   C163.7,174.6,163.9,174.9,164.3,174.9z"
   fill="#FFFFFF"
   id="path6353" />
	<path
   d="M166.8,174.9c0.4,0,0.6-0.3,0.6-0.6v-2.5c0-0.4-0.3-0.6-0.6-0.6s-0.6,0.3-0.6,0.6v2.6   C166.2,174.6,166.5,174.9,166.8,174.9z"
   fill="#FFFFFF"
   id="path6355" />
	<path
   d="M169.4,174.9c0.4,0,0.6-0.3,0.6-0.6v-2.5c0-0.4-0.3-0.6-0.6-0.6s-0.6,0.3-0.6,0.6v2.6   C168.8,174.6,169.1,174.9,169.4,174.9z"
   fill="#FFFFFF"
   id="path6357" />
	<path
   d="M172,174.9c0.4,0,0.6-0.3,0.6-0.6v-2.5c0-0.4-0.3-0.6-0.6-0.6s-0.6,0.3-0.6,0.6v2.6   C171.3,174.6,171.6,174.9,172,174.9z"
   fill="#FFFFFF"
   id="path6359" />
</g>
<g
   id="Devices__x2B__Hardware_Expanded_AQ_1_">
	<g
   id="g6373">
		<path
   d="M167.6,61.3v7.8h7.8v-7.8H167.6z M174.7,68.4h-6.4V62h6.4V68.4z"
   fill="#3E4044"
   id="path6363" />
		<path
   d="M164.6,65.5h2.4v-0.7h-2.4c-0.2-1.1-1.1-2-2.3-2c-1.3,0-2.4,1.1-2.4,2.4s1.1,2.4,2.4,2.4    C163.4,67.5,164.4,66.6,164.6,65.5z M160.5,65.2c0-0.9,0.8-1.7,1.7-1.7s1.7,0.8,1.7,1.7s-0.8,1.7-1.7,1.7    C161.3,66.9,160.5,66.1,160.5,65.2z"
   fill="#3E4044"
   id="path6365" />
		<polygon
   points="158.3,58.3 158.3,59 178.8,59 178.8,70.9 158.3,70.9 158.3,71.6 179.4,71.6     179.4,58.3   "
   fill="#3E4044"
   id="polygon6367" />
		<path
   d="M154.3,74.2h3.3V55.7h-3.3V74.2z M154.9,56.4h2v17.2h-2V56.4z"
   fill="#3E4044"
   id="path6369" />
		<polygon
   points="176.1,73.9 174.4,73.9 174.4,72.2 173.8,72.2 173.8,73.9 172.4,73.9 172.4,72.2     171.7,72.2 171.7,73.9 170.3,73.9 170.3,72.2 169.7,72.2 169.7,73.9 168.2,73.9 168.2,72.2 167.6,72.2 167.6,73.9 166,73.9     166,72.2 165.3,72.2 165.3,74.6 176.7,74.6 176.7,72.2 176.1,72.2   "
   fill="#3E4044"
   id="polygon6371" />
	</g>
</g>
<rect
   height="41"
   width="41"
   stroke-miterlimit="10"
   stroke-width="2"
   stroke="#006EA4"
   fill="none"
   y="10.9"
   x="146.4"
   id="rect6376" />
<text
   style="-inkscape-font-specification:Metropolis;font-family:Metropolis;font-weight:normal;font-style:normal;font-stretch:normal;font-variant:normal;"
   font-size="12px"
   font-family="'Metropolis-Regular'"
   fill="#006EA4"
   transform="matrix(1 0 0 1 157.098 34.7778)"
   id="text102_2_">VM</text>
<line
   y2="163.5"
   x2="166.9"
   y1="79"
   x1="166.9"
   stroke-miterlimit="10"
   stroke-width="2"
   stroke="#3E4044"
   fill="none"
   id="line6379" />
<rect
   height="72.5"
   width="141.8"
   fill="#78BE43"
   y="175.6"
   x="237.5"
   id="rect6383" />
<text
   style="-inkscape-font-specification:Metropolis;font-family:Metropolis;font-weight:normal;font-style:normal;font-stretch:normal;font-variant:normal;"
   id="text166"
   font-size="14px"
   font-family="'Metropolis-Regular'"
   fill="#FFFFFF"
   transform="matrix(1 0 0 1 290.9666 204.2941)">Sales</text>
<text
   style="-inkscape-font-specification:Metropolis;font-family:Metropolis;font-weight:normal;font-style:normal;font-stretch:normal;font-variant:normal;"
   id="text168"
   font-size="14px"
   font-family="'Metropolis-Regular'"
   fill="#FFFFFF"
   transform="matrix(1 0 0 1 271.1009 218.2941)">Port Group</text>
<g
   id="g6412">
	<path
   d="M279,185.5h-18c-1.2,0-2.2-1-2.2-2.2V168c0-1.2,1-2.2,2.2-2.2h18c1.2,0,2.2,1,2.2,2.2v15.3   C281.2,184.5,280.2,185.5,279,185.5z"
   fill="#3E4044"
   id="path6390" />
	<path
   d="M261,166.3c-0.9,0-1.6,0.7-1.6,1.6v15.3c0,0.9,0.7,1.6,1.6,1.6h18c0.9,0,1.6-0.7,1.6-1.6   v-15.3c0-0.9-0.7-1.6-1.6-1.6H261z"
   fill="#FFFFFF"
   id="path6392" />
	<path
   d="M279,184h-18c-0.4,0-0.8-0.3-0.8-0.8v-15.3c0-0.4,0.3-0.8,0.8-0.8h18c0.4,0,0.8,0.3,0.8,0.8   v15.3C279.8,183.7,279.4,184,279,184z M261,167.4c-0.3,0-0.5,0.2-0.5,0.5v15.3c0,0.3,0.2,0.5,0.5,0.5h18c0.3,0,0.5-0.2,0.5-0.5   v-15.3c0-0.3-0.2-0.5-0.5-0.5H261z"
   fill="#3E4044"
   id="path6394" />
	<path
   d="M277.7,168.5h-15.3c-0.4,0-0.6,0.3-0.6,0.6v7.7c0,0.4,0.3,0.6,0.6,0.6h0.6v1.9   c0,0.4,0.3,0.6,0.6,0.6h1.9v1.9c0,0.4,0.3,0.6,0.6,0.6h7.7c0.4,0,0.6-0.3,0.6-0.6v-1.9h1.9c0.4,0,0.6-0.3,0.6-0.6v-1.9h0.6   c0.4,0,0.6-0.3,0.6-0.6v-7.7C278.3,168.8,278,168.5,277.7,168.5z"
   fill="#3E4044"
   id="path6396" />
	<path
   d="M263.6,181.3h-1.3c-0.4,0-0.6,0.3-0.6,0.6s0.3,0.6,0.6,0.6h1.3c0.4,0,0.6-0.3,0.6-0.6   S264,181.3,263.6,181.3z"
   fill="#3E4044"
   id="path6398" />
	<path
   d="M277.7,181.3h-1.3c-0.4,0-0.6,0.3-0.6,0.6s0.3,0.6,0.6,0.6h1.3c0.4,0,0.6-0.3,0.6-0.6   S278,181.3,277.7,181.3z"
   fill="#3E4044"
   id="path6400" />
	<path
   d="M264.9,174.9c0.4,0,0.6-0.3,0.6-0.6v-2.5c0-0.4-0.3-0.6-0.6-0.6s-0.6,0.3-0.6,0.6v2.6   C264.2,174.6,264.5,174.9,264.9,174.9z"
   fill="#FFFFFF"
   id="path6402" />
	<path
   d="M267.4,174.9c0.4,0,0.6-0.3,0.6-0.6v-2.5c0-0.4-0.3-0.6-0.6-0.6s-0.6,0.3-0.6,0.6v2.6   C266.8,174.6,267.1,174.9,267.4,174.9z"
   fill="#FFFFFF"
   id="path6404" />
	<path
   d="M270,174.9c0.4,0,0.6-0.3,0.6-0.6v-2.5c0-0.4-0.3-0.6-0.6-0.6s-0.6,0.3-0.6,0.6v2.6   C269.3,174.6,269.6,174.9,270,174.9z"
   fill="#FFFFFF"
   id="path6406" />
	<path
   d="M272.6,174.9c0.4,0,0.6-0.3,0.6-0.6v-2.5c0-0.4-0.3-0.6-0.6-0.6s-0.6,0.3-0.6,0.6v2.6   C271.9,174.6,272.2,174.9,272.6,174.9z"
   fill="#FFFFFF"
   id="path6408" />
	<path
   d="M275.1,174.9c0.4,0,0.6-0.3,0.6-0.6v-2.5c0-0.4-0.3-0.6-0.6-0.6c-0.4,0-0.6,0.3-0.6,0.6v2.6   C274.5,174.6,274.8,174.9,275.1,174.9z"
   fill="#FFFFFF"
   id="path6410" />
</g>
<g
   id="Devices__x2B__Hardware_Expanded_AQ_3_">
	<g
   id="g6424">
		<path
   d="M270.7,61.3v7.8h7.8v-7.8H270.7z M277.8,68.4h-6.4V62h6.4V68.4z"
   fill="#3E4044"
   id="path6414" />
		<path
   d="M267.7,65.5h2.4v-0.7h-2.4c-0.2-1.1-1.1-2-2.3-2c-1.3,0-2.4,1.1-2.4,2.4s1.1,2.4,2.4,2.4    C266.6,67.5,267.6,66.6,267.7,65.5z M263.7,65.2c0-0.9,0.8-1.7,1.7-1.7s1.7,0.8,1.7,1.7s-0.8,1.7-1.7,1.7S263.7,66.1,263.7,65.2z"
   fill="#3E4044"
   id="path6416" />
		<polygon
   points="261.4,58.3 261.4,59 281.9,59 281.9,70.9 261.4,70.9 261.4,71.6 282.6,71.6     282.6,58.3   "
   fill="#3E4044"
   id="polygon6418" />
		<path
   d="M257.4,74.2h3.3V55.7h-3.3V74.2z M258.1,56.4h2v17.2h-2V56.4z"
   fill="#3E4044"
   id="path6420" />
		<polygon
   points="279.2,73.9 277.6,73.9 277.6,72.2 276.9,72.2 276.9,73.9 275.5,73.9 275.5,72.2     274.9,72.2 274.9,73.9 273.5,73.9 273.5,72.2 272.8,72.2 272.8,73.9 271.4,73.9 271.4,72.2 270.7,72.2 270.7,73.9 269.1,73.9     269.1,72.2 268.5,72.2 268.5,74.6 279.9,74.6 279.9,72.2 279.2,72.2   "
   fill="#3E4044"
   id="polygon6422" />
	</g>
</g>
<rect
   height="41"
   width="41"
   stroke-miterlimit="10"
   stroke-width="2"
   stroke="#006EA4"
   fill="none"
   y="10.9"
   x="249.5"
   id="rect6427" />
<text
   style="-inkscape-font-specification:Metropolis;font-family:Metropolis;font-weight:normal;font-style:normal;font-stretch:normal;font-variant:normal;"
   font-size="12px"
   font-family="'Metropolis-Regular'"
   fill="#006EA4"
   transform="matrix(1 0 0 1 260.2458 34.7778)"
   id="text102_4_">VM</text>
<line
   y2="163.5"
   x2="270.1"
   y1="79"
   x1="270.1"
   stroke-miterlimit="10"
   stroke-width="2"
   stroke="#3E4044"
   fill="none"
   id="line6430" />
<g
   id="g6454">
	<path
   d="M355.7,185.5h-18c-1.2,0-2.2-1-2.2-2.2V168c0-1.2,1-2.2,2.2-2.2h18c1.2,0,2.2,1,2.2,2.2v15.3   C357.9,184.5,356.9,185.5,355.7,185.5z"
   fill="#3E4044"
   id="path6432" />
	<path
   d="M337.7,166.3c-0.9,0-1.6,0.7-1.6,1.6v15.3c0,0.9,0.7,1.6,1.6,1.6h18c0.9,0,1.6-0.7,1.6-1.6   v-15.3c0-0.9-0.7-1.6-1.6-1.6H337.7z"
   fill="#FFFFFF"
   id="path6434" />
	<path
   d="M355.7,184h-18c-0.4,0-0.8-0.3-0.8-0.8v-15.3c0-0.4,0.3-0.8,0.8-0.8h18   c0.4,0,0.8,0.3,0.8,0.8v15.3C356.4,183.7,356.1,184,355.7,184z M337.7,167.4c-0.3,0-0.5,0.2-0.5,0.5v15.3c0,0.3,0.2,0.5,0.5,0.5h18   c0.3,0,0.5-0.2,0.5-0.5v-15.3c0-0.3-0.2-0.5-0.5-0.5H337.7z"
   fill="#3E4044"
   id="path6436" />
	<path
   d="M354.3,168.5H339c-0.4,0-0.6,0.3-0.6,0.6v7.7c0,0.4,0.3,0.6,0.6,0.6h0.6v1.9   c0,0.4,0.3,0.6,0.6,0.6h1.9v1.9c0,0.4,0.3,0.6,0.6,0.6h7.7c0.4,0,0.6-0.3,0.6-0.6v-1.9h1.9c0.4,0,0.6-0.3,0.6-0.6v-1.9h0.6   c0.4,0,0.6-0.3,0.6-0.6v-7.7C355,168.8,354.7,168.5,354.3,168.5z"
   fill="#3E4044"
   id="path6438" />
	<path
   d="M340.3,181.3H339c-0.4,0-0.6,0.3-0.6,0.6s0.3,0.6,0.6,0.6h1.3c0.4,0,0.6-0.3,0.6-0.6   S340.6,181.3,340.3,181.3z"
   fill="#3E4044"
   id="path6440" />
	<path
   d="M354.3,181.3H353c-0.4,0-0.6,0.3-0.6,0.6s0.3,0.6,0.6,0.6h1.3c0.4,0,0.6-0.3,0.6-0.6   S354.7,181.3,354.3,181.3z"
   fill="#3E4044"
   id="path6442" />
	<path
   d="M341.6,174.9c0.4,0,0.6-0.3,0.6-0.6v-2.5c0-0.4-0.3-0.6-0.6-0.6s-0.6,0.3-0.6,0.6v2.6   C340.9,174.6,341.2,174.9,341.6,174.9z"
   fill="#FFFFFF"
   id="path6444" />
	<path
   d="M344.1,174.9c0.4,0,0.6-0.3,0.6-0.6v-2.5c0-0.4-0.3-0.6-0.6-0.6s-0.6,0.3-0.6,0.6v2.6   C343.5,174.6,343.8,174.9,344.1,174.9z"
   fill="#FFFFFF"
   id="path6446" />
	<path
   d="M346.7,174.9c0.4,0,0.6-0.3,0.6-0.6v-2.5c0-0.4-0.3-0.6-0.6-0.6s-0.6,0.3-0.6,0.6v2.6   C346,174.6,346.3,174.9,346.7,174.9z"
   fill="#FFFFFF"
   id="path6448" />
	<path
   d="M349.2,174.9c0.4,0,0.6-0.3,0.6-0.6v-2.5c0-0.4-0.3-0.6-0.6-0.6s-0.6,0.3-0.6,0.6v2.6   C348.6,174.6,348.9,174.9,349.2,174.9z"
   fill="#FFFFFF"
   id="path6450" />
	<path
   d="M351.8,174.9c0.4,0,0.6-0.3,0.6-0.6v-2.5c0-0.4-0.3-0.6-0.6-0.6c-0.4,0-0.6,0.3-0.6,0.6v2.6   C351.2,174.6,351.4,174.9,351.8,174.9z"
   fill="#FFFFFF"
   id="path6452" />
</g>
<g
   id="Devices__x2B__Hardware_Expanded_AQ_2_">
	<g
   id="g6466">
		<path
   d="M347.4,61.3v7.8h7.8v-7.8H347.4z M354.5,68.4h-6.4V62h6.4V68.4z"
   fill="#3E4044"
   id="path6456" />
		<path
   d="M344.4,65.5h2.4v-0.7h-2.4c-0.2-1.1-1.1-2-2.3-2c-1.3,0-2.4,1.1-2.4,2.4s1.1,2.4,2.4,2.4    C343.3,67.5,344.2,66.6,344.4,65.5z M340.4,65.2c0-0.9,0.8-1.7,1.7-1.7c0.9,0,1.7,0.8,1.7,1.7s-0.8,1.7-1.7,1.7    C341.1,66.9,340.4,66.1,340.4,65.2z"
   fill="#3E4044"
   id="path6458" />
		<polygon
   points="338.1,58.3 338.1,59 358.6,59 358.6,70.9 338.1,70.9 338.1,71.6 359.3,71.6     359.3,58.3   "
   fill="#3E4044"
   id="polygon6460" />
		<path
   d="M334.1,74.2h3.3V55.7h-3.3V74.2z M334.7,56.4h2v17.2h-2V56.4z"
   fill="#3E4044"
   id="path6462" />
		<polygon
   points="355.9,73.9 354.3,73.9 354.3,72.2 353.6,72.2 353.6,73.9 352.2,73.9 352.2,72.2     351.5,72.2 351.5,73.9 350.1,73.9 350.1,72.2 349.5,72.2 349.5,73.9 348.1,73.9 348.1,72.2 347.4,72.2 347.4,73.9 345.8,73.9     345.8,72.2 345.2,72.2 345.2,74.6 356.6,74.6 356.6,72.2 355.9,72.2   "
   fill="#3E4044"
   id="polygon6464" />
	</g>
</g>
<rect
   height="41"
   width="41"
   stroke-miterlimit="10"
   stroke-width="2"
   stroke="#006EA4"
   fill="none"
   y="10.9"
   x="326.2"
   id="rect6469" />
<text
   style="-inkscape-font-specification:Metropolis;font-family:Metropolis;font-weight:normal;font-style:normal;font-stretch:normal;font-variant:normal;"
   font-size="12px"
   font-family="'Metropolis-Regular'"
   fill="#006EA4"
   transform="matrix(1 0 0 1 336.9252 34.7778)"
   id="text102_3_">VM</text>
<line
   y2="163.5"
   x2="346.7"
   y1="79"
   x1="346.7"
   stroke-miterlimit="10"
   stroke-width="2"
   stroke="#3E4044"
   fill="none"
   id="line6472" />
<g
   id="g6050_3_">
	<path
   d="M283.5,308.9h-18c-1.2,0-2.2-1-2.2-2.2v-15.3c0-1.2,1-2.2,2.2-2.2h18c1.2,0,2.2,1,2.2,2.2   v15.3C285.8,307.9,284.8,308.9,283.5,308.9z"
   fill="#3E4044"
   id="path6028_3_" />
	<path
   d="M265.5,289.7c-0.9,0-1.6,0.7-1.6,1.6v15.3c0,0.9,0.7,1.6,1.6,1.6h18   c0.9,0,1.6-0.7,1.6-1.6v-15.3c0-0.9-0.7-1.6-1.6-1.6H265.5z"
   fill="#FFFFFF"
   id="path6030_3_" />
	<path
   d="M283.5,307.5h-18c-0.4,0-0.8-0.3-0.8-0.8v-15.3c0-0.4,0.3-0.8,0.8-0.8h18   c0.4,0,0.8,0.3,0.8,0.8v15.3C284.3,307.2,284,307.5,283.5,307.5z M265.5,290.8c-0.3,0-0.5,0.2-0.5,0.5v15.3c0,0.3,0.2,0.5,0.5,0.5   h18c0.3,0,0.5-0.2,0.5-0.5v-15.3c0-0.3-0.2-0.5-0.5-0.5H265.5z"
   fill="#3E4044"
   id="path6032_3_" />
	<path
   d="M282.2,292h-15.3c-0.4,0-0.6,0.3-0.6,0.6v7.7c0,0.4,0.3,0.6,0.6,0.6h0.6v1.9   c0,0.4,0.3,0.6,0.6,0.6h1.9v1.9c0,0.4,0.3,0.6,0.6,0.6h7.7c0.4,0,0.6-0.3,0.6-0.6v-1.9h1.9c0.4,0,0.6-0.3,0.6-0.6V301h0.6   c0.4,0,0.6-0.3,0.6-0.6v-7.7C282.9,292.3,282.6,292,282.2,292z"
   fill="#3E4044"
   id="path6034_3_" />
	<path
   d="M268.1,304.8h-1.3c-0.4,0-0.6,0.3-0.6,0.6s0.3,0.6,0.6,0.6h1.3c0.4,0,0.6-0.3,0.6-0.6   S268.5,304.8,268.1,304.8z"
   fill="#3E4044"
   id="path6036_3_" />
	<path
   d="M282.2,304.8h-1.3c-0.4,0-0.6,0.3-0.6,0.6s0.3,0.6,0.6,0.6h1.3c0.4,0,0.6-0.3,0.6-0.6   S282.6,304.8,282.2,304.8z"
   fill="#3E4044"
   id="path6038_3_" />
	<path
   d="M269.4,298.4c0.4,0,0.6-0.3,0.6-0.6v-2.5c0-0.4-0.3-0.6-0.6-0.6s-0.6,0.3-0.6,0.6v2.6   C268.8,298.1,269.1,298.4,269.4,298.4z"
   fill="#FFFFFF"
   id="path6040_3_" />
	<path
   d="M272,298.4c0.4,0,0.6-0.3,0.6-0.6v-2.5c0-0.4-0.3-0.6-0.6-0.6s-0.6,0.3-0.6,0.6v2.6   C271.4,298.1,271.6,298.4,272,298.4z"
   fill="#FFFFFF"
   id="path6042_3_" />
	<path
   d="M274.5,298.4c0.4,0,0.6-0.3,0.6-0.6v-2.5c0-0.4-0.3-0.6-0.6-0.6s-0.6,0.3-0.6,0.6v2.6   C273.9,298.1,274.2,298.4,274.5,298.4z"
   fill="#FFFFFF"
   id="path6044_3_" />
	<path
   d="M277.1,298.4c0.4,0,0.6-0.3,0.6-0.6v-2.5c0-0.4-0.3-0.6-0.6-0.6s-0.6,0.3-0.6,0.6v2.6   C276.5,298.1,276.7,298.4,277.1,298.4z"
   fill="#FFFFFF"
   id="path6046_3_" />
	<path
   d="M279.6,298.4c0.4,0,0.6-0.3,0.6-0.6v-2.5c0-0.4-0.3-0.6-0.6-0.6c-0.4,0-0.6,0.3-0.6,0.6   v2.6C279,298.1,279.3,298.4,279.6,298.4z"
   fill="#FFFFFF"
   id="path6048_3_" />
</g>
<g
   id="g6050_1_">
	<path
   d="M317.1,308.9h-18c-1.2,0-2.2-1-2.2-2.2v-15.3c0-1.2,1-2.2,2.2-2.2h18c1.2,0,2.2,1,2.2,2.2   v15.3C319.4,307.9,318.4,308.9,317.1,308.9z"
   fill="#3E4044"
   id="path6028_1_" />
	<path
   d="M299.1,289.7c-0.9,0-1.6,0.7-1.6,1.6v15.3c0,0.9,0.7,1.6,1.6,1.6h18   c0.9,0,1.6-0.7,1.6-1.6v-15.3c0-0.9-0.7-1.6-1.6-1.6H299.1z"
   fill="#FFFFFF"
   id="path6030_1_" />
	<path
   d="M317.1,307.5h-18c-0.4,0-0.8-0.3-0.8-0.8v-15.3c0-0.4,0.3-0.8,0.8-0.8h18   c0.4,0,0.8,0.3,0.8,0.8v15.3C317.9,307.2,317.6,307.5,317.1,307.5z M299.1,290.8c-0.3,0-0.5,0.2-0.5,0.5v15.3   c0,0.3,0.2,0.5,0.5,0.5h18c0.3,0,0.5-0.2,0.5-0.5v-15.3c0-0.3-0.2-0.5-0.5-0.5H299.1z"
   fill="#3E4044"
   id="path6032_1_" />
	<path
   d="M315.8,292h-15.3c-0.4,0-0.6,0.3-0.6,0.6v7.7c0,0.4,0.3,0.6,0.6,0.6h0.6v1.9   c0,0.4,0.3,0.6,0.6,0.6h1.9v1.9c0,0.4,0.3,0.6,0.6,0.6h7.7c0.4,0,0.6-0.3,0.6-0.6v-1.9h1.9c0.4,0,0.6-0.3,0.6-0.6V301h0.6   c0.4,0,0.6-0.3,0.6-0.6v-7.7C316.5,292.3,316.2,292,315.8,292z"
   fill="#3E4044"
   id="path6034_1_" />
	<path
   d="M301.7,304.8h-1.3c-0.4,0-0.6,0.3-0.6,0.6s0.3,0.6,0.6,0.6h1.3c0.4,0,0.6-0.3,0.6-0.6   S302.1,304.8,301.7,304.8z"
   fill="#3E4044"
   id="path6036_1_" />
	<path
   d="M315.8,304.8h-1.3c-0.4,0-0.6,0.3-0.6,0.6s0.3,0.6,0.6,0.6h1.3c0.4,0,0.6-0.3,0.6-0.6   S316.2,304.8,315.8,304.8z"
   fill="#3E4044"
   id="path6038_1_" />
	<path
   d="M303,298.4c0.4,0,0.6-0.3,0.6-0.6v-2.5c0-0.4-0.3-0.6-0.6-0.6s-0.6,0.3-0.6,0.6v2.6   C302.4,298.1,302.7,298.4,303,298.4z"
   fill="#FFFFFF"
   id="path6040_1_" />
	<path
   d="M305.6,298.4c0.4,0,0.6-0.3,0.6-0.6v-2.5c0-0.4-0.3-0.6-0.6-0.6s-0.6,0.3-0.6,0.6v2.6   C305,298.1,305.2,298.4,305.6,298.4z"
   fill="#FFFFFF"
   id="path6042_1_" />
	<path
   d="M308.1,298.4c0.4,0,0.6-0.3,0.6-0.6v-2.5c0-0.4-0.3-0.6-0.6-0.6s-0.6,0.3-0.6,0.6v2.6   C307.5,298.1,307.8,298.4,308.1,298.4z"
   fill="#FFFFFF"
   id="path6044_1_" />
	<path
   d="M310.7,298.4c0.4,0,0.6-0.3,0.6-0.6v-2.5c0-0.4-0.3-0.6-0.6-0.6s-0.6,0.3-0.6,0.6v2.6   C310.1,298.1,310.3,298.4,310.7,298.4z"
   fill="#FFFFFF"
   id="path6046_1_" />
	<path
   d="M313.2,298.4c0.4,0,0.6-0.3,0.6-0.6v-2.5c0-0.4-0.3-0.6-0.6-0.6c-0.4,0-0.6,0.3-0.6,0.6   v2.6C312.6,298.1,312.9,298.4,313.2,298.4z"
   fill="#FFFFFF"
   id="path6048_1_" />
</g>
<g
   id="g6050_2_">
	<path
   d="M350.7,308.9h-18c-1.2,0-2.2-1-2.2-2.2v-15.3c0-1.2,1-2.2,2.2-2.2h18c1.2,0,2.2,1,2.2,2.2   v15.3C353,307.9,352,308.9,350.7,308.9z"
   fill="#3E4044"
   id="path6028_2_" />
	<path
   d="M332.7,289.7c-0.9,0-1.6,0.7-1.6,1.6v15.3c0,0.9,0.7,1.6,1.6,1.6h18   c0.9,0,1.6-0.7,1.6-1.6v-15.3c0-0.9-0.7-1.6-1.6-1.6H332.7z"
   fill="#FFFFFF"
   id="path6030_2_" />
	<path
   d="M350.7,307.5h-18c-0.4,0-0.8-0.3-0.8-0.8v-15.3c0-0.4,0.3-0.8,0.8-0.8h18   c0.4,0,0.8,0.3,0.8,0.8v15.3C351.5,307.2,351.2,307.5,350.7,307.5z M332.7,290.8c-0.3,0-0.5,0.2-0.5,0.5v15.3   c0,0.3,0.2,0.5,0.5,0.5h18c0.3,0,0.5-0.2,0.5-0.5v-15.3c0-0.3-0.2-0.5-0.5-0.5H332.7z"
   fill="#3E4044"
   id="path6032_2_" />
	<path
   d="M349.4,292h-15.3c-0.4,0-0.6,0.3-0.6,0.6v7.7c0,0.4,0.3,0.6,0.6,0.6h0.6v1.9   c0,0.4,0.3,0.6,0.6,0.6h1.9v1.9c0,0.4,0.3,0.6,0.6,0.6h7.7c0.4,0,0.6-0.3,0.6-0.6v-1.9h1.9c0.4,0,0.6-0.3,0.6-0.6V301h0.6   c0.4,0,0.6-0.3,0.6-0.6v-7.7C350.1,292.3,349.8,292,349.4,292z"
   fill="#3E4044"
   id="path6034_2_" />
	<path
   d="M335.3,304.8H334c-0.4,0-0.6,0.3-0.6,0.6s0.3,0.6,0.6,0.6h1.3c0.4,0,0.6-0.3,0.6-0.6   S335.7,304.8,335.3,304.8z"
   fill="#3E4044"
   id="path6036_2_" />
	<path
   d="M349.4,304.8h-1.3c-0.4,0-0.6,0.3-0.6,0.6s0.3,0.6,0.6,0.6h1.3c0.4,0,0.6-0.3,0.6-0.6   S349.8,304.8,349.4,304.8z"
   fill="#3E4044"
   id="path6038_2_" />
	<path
   d="M336.6,298.4c0.4,0,0.6-0.3,0.6-0.6v-2.5c0-0.4-0.3-0.6-0.6-0.6s-0.6,0.3-0.6,0.6v2.6   C336,298.1,336.3,298.4,336.6,298.4z"
   fill="#FFFFFF"
   id="path6040_2_" />
	<path
   d="M339.2,298.4c0.4,0,0.6-0.3,0.6-0.6v-2.5c0-0.4-0.3-0.6-0.6-0.6s-0.6,0.3-0.6,0.6v2.6   C338.6,298.1,338.8,298.4,339.2,298.4z"
   fill="#FFFFFF"
   id="path6042_2_" />
	<path
   d="M341.7,298.4c0.4,0,0.6-0.3,0.6-0.6v-2.5c0-0.4-0.3-0.6-0.6-0.6s-0.6,0.3-0.6,0.6v2.6   C341.1,298.1,341.4,298.4,341.7,298.4z"
   fill="#FFFFFF"
   id="path6044_2_" />
	<path
   d="M344.3,298.4c0.4,0,0.6-0.3,0.6-0.6v-2.5c0-0.4-0.3-0.6-0.6-0.6s-0.6,0.3-0.6,0.6v2.6   C343.7,298.1,343.9,298.4,344.3,298.4z"
   fill="#FFFFFF"
   id="path6046_2_" />
	<path
   d="M346.8,298.4c0.4,0,0.6-0.3,0.6-0.6v-2.5c0-0.4-0.3-0.6-0.6-0.6c-0.4,0-0.6,0.3-0.6,0.6   v2.6C346.2,298.1,346.5,298.4,346.8,298.4z"
   fill="#FFFFFF"
   id="path6048_2_" />
</g>
<g
   id="g6074_1_">
	<path
   d="M384.3,308.9h-18c-1.2,0-2.2-1-2.2-2.2v-15.3c0-1.2,1-2.2,2.2-2.2h18c1.2,0,2.2,1,2.2,2.2   v15.3C386.5,307.9,385.5,308.9,384.3,308.9z"
   fill="#3E4044"
   id="path6052_1_" />
	<path
   d="M366.3,289.7c-0.9,0-1.6,0.7-1.6,1.6v15.3c0,0.9,0.7,1.6,1.6,1.6h18   c0.9,0,1.6-0.7,1.6-1.6v-15.3c0-0.9-0.7-1.6-1.6-1.6H366.3z"
   fill="#FFFFFF"
   id="path6054_1_" />
	<path
   d="M384.3,307.5h-18c-0.4,0-0.8-0.3-0.8-0.8v-15.3c0-0.4,0.3-0.8,0.8-0.8h18   c0.4,0,0.8,0.3,0.8,0.8v15.3C385.1,307.2,384.7,307.5,384.3,307.5z M366.3,290.8c-0.3,0-0.5,0.2-0.5,0.5v15.3   c0,0.3,0.2,0.5,0.5,0.5h18c0.3,0,0.5-0.2,0.5-0.5v-15.3c0-0.3-0.2-0.5-0.5-0.5H366.3z"
   fill="#3E4044"
   id="path6056_1_" />
	<path
   d="M383,292h-15.3c-0.4,0-0.6,0.3-0.6,0.6v7.7c0,0.4,0.3,0.6,0.6,0.6h0.6v1.9   c0,0.4,0.3,0.6,0.6,0.6h1.9v1.9c0,0.4,0.3,0.6,0.6,0.6h7.7c0.4,0,0.6-0.3,0.6-0.6v-1.9h1.9c0.4,0,0.6-0.3,0.6-0.6V301h0.6   c0.4,0,0.6-0.3,0.6-0.6v-7.7C383.6,292.3,383.4,292,383,292z"
   fill="#3E4044"
   id="path6058_1_" />
	<path
   d="M368.9,304.8h-1.3c-0.4,0-0.6,0.3-0.6,0.6s0.3,0.6,0.6,0.6h1.3c0.4,0,0.6-0.3,0.6-0.6   S369.3,304.8,368.9,304.8z"
   fill="#3E4044"
   id="path6060_1_" />
	<path
   d="M383,304.8h-1.3c-0.4,0-0.6,0.3-0.6,0.6s0.3,0.6,0.6,0.6h1.3c0.4,0,0.6-0.3,0.6-0.6   S383.4,304.8,383,304.8z"
   fill="#3E4044"
   id="path6062_1_" />
	<path
   d="M370.2,298.4c0.4,0,0.6-0.3,0.6-0.6v-2.5c0-0.4-0.3-0.6-0.6-0.6s-0.6,0.3-0.6,0.6v2.6   C369.6,298.1,369.9,298.4,370.2,298.4z"
   fill="#FFFFFF"
   id="path6064_1_" />
	<path
   d="M372.8,298.4c0.4,0,0.6-0.3,0.6-0.6v-2.5c0-0.4-0.3-0.6-0.6-0.6s-0.6,0.3-0.6,0.6v2.6   C372.1,298.1,372.4,298.4,372.8,298.4z"
   fill="#FFFFFF"
   id="path6066_1_" />
	<path
   d="M375.3,298.4c0.4,0,0.6-0.3,0.6-0.6v-2.5c0-0.4-0.3-0.6-0.6-0.6s-0.6,0.3-0.6,0.6v2.6   C374.7,298.1,375,298.4,375.3,298.4z"
   fill="#FFFFFF"
   id="path6068_1_" />
	<path
   d="M377.9,298.4c0.4,0,0.6-0.3,0.6-0.6v-2.5c0-0.4-0.3-0.6-0.6-0.6s-0.6,0.3-0.6,0.6v2.6   C377.2,298.1,377.5,298.4,377.9,298.4z"
   fill="#FFFFFF"
   id="path6070_1_" />
	<path
   d="M380.4,298.4c0.4,0,0.6-0.3,0.6-0.6v-2.5c0-0.4-0.3-0.6-0.6-0.6c-0.4,0-0.6,0.3-0.6,0.6   v2.6C379.8,298.1,380.1,298.4,380.4,298.4z"
   fill="#FFFFFF"
   id="path6072_1_" />
</g>
<g
   id="Devices__x2B__Hardware_Expanded_AQ_4_">
	<g
   id="g6086">
		<path
   d="M275.3,422.8v8h8v-8H275.3z M282.7,430.1H276v-6.6h6.6v6.6H282.7z"
   fill="#3E4044"
   id="path6076" />
		<path
   d="M272.1,427.1h2.4v-0.7h-2.4c-0.1-1.2-1.2-2.1-2.4-2.1c-1.3,0-2.4,1.1-2.4,2.4    c0,1.4,1.1,2.4,2.4,2.4C271,429.2,272,428.3,272.1,427.1z M268,426.8c0-1,0.8-1.8,1.8-1.8s1.8,0.8,1.8,1.8s-0.8,1.8-1.8,1.8    C268.8,428.5,268,427.8,268,426.8z"
   fill="#3E4044"
   id="path6078" />
		<polygon
   points="265.7,419.8 265.7,420.4 286.9,420.4 286.9,432.7 265.7,432.7 265.7,433.4     287.5,433.4 287.5,419.8   "
   fill="#3E4044"
   id="polygon6080" />
		<path
   d="M261.5,436.1h3.4V417h-3.4V436.1z M262.2,417.7h2.1v17.7h-2.1V417.7z"
   fill="#3E4044"
   id="path6082" />
		<polygon
   points="284.1,435.8 282.4,435.8 282.4,434.1 281.7,434.1 281.7,435.8 280.3,435.8     280.3,434.1 279.6,434.1 279.6,435.8 278.1,435.8 278.1,434.1 277.4,434.1 277.4,435.8 276,435.8 276,434.1 275.3,434.1     275.3,435.8 273.7,435.8 273.7,434.1 273,434.1 273,436.5 284.8,436.5 284.8,434.1 284.1,434.1   "
   fill="#3E4044"
   id="polygon6084" />
	</g>
</g>
<g
   id="Devices__x2B__Hardware_Expanded_AQ_5_">
	<g
   id="g6086_1_">
		<path
   d="M308.9,422.8v8h8v-8H308.9z M316.2,430.1h-6.6v-6.6h6.6V430.1z"
   fill="#3E4044"
   id="path6076_1_" />
		<path
   d="M305.7,427.1h2.4v-0.7h-2.4c-0.1-1.2-1.2-2.1-2.4-2.1c-1.3,0-2.4,1.1-2.4,2.4    c0,1.4,1.1,2.4,2.4,2.4C304.6,429.2,305.6,428.3,305.7,427.1z M301.6,426.8c0-1,0.8-1.8,1.8-1.8s1.8,0.8,1.8,1.8s-0.8,1.8-1.8,1.8    C302.4,428.5,301.6,427.8,301.6,426.8z"
   fill="#3E4044"
   id="path6078_1_" />
		<polygon
   points="299.3,419.8 299.3,420.4 320.4,420.4 320.4,432.7 299.3,432.7 299.3,433.4     321.1,433.4 321.1,419.8   "
   fill="#3E4044"
   id="polygon6080_1_" />
		<path
   d="M295.1,436.1h3.4V417h-3.4V436.1z M295.8,417.7h2.1v17.7h-2.1V417.7z"
   fill="#3E4044"
   id="path6082_1_" />
		<polygon
   points="317.7,435.8 315.9,435.8 315.9,434.1 315.3,434.1 315.3,435.8 313.8,435.8     313.8,434.1 313.2,434.1 313.2,435.8 311.7,435.8 311.7,434.1 311,434.1 311,435.8 309.5,435.8 309.5,434.1 308.9,434.1     308.9,435.8 307.3,435.8 307.3,434.1 306.6,434.1 306.6,436.5 318.3,436.5 318.3,434.1 317.7,434.1   "
   fill="#3E4044"
   id="polygon6084_1_" />
	</g>
</g>
<g
   id="Devices__x2B__Hardware_Expanded_AQ_6_">
	<g
   id="g6086_2_">
		<path
   d="M342.5,422.8v8h8v-8H342.5z M349.8,430.1h-6.6v-6.6h6.6V430.1z"
   fill="#3E4044"
   id="path6076_2_" />
		<path
   d="M339.3,427.1h2.4v-0.7h-2.4c-0.1-1.2-1.2-2.1-2.4-2.1c-1.3,0-2.4,1.1-2.4,2.4    c0,1.4,1.1,2.4,2.4,2.4C338.2,429.2,339.2,428.3,339.3,427.1z M335.2,426.8c0-1,0.8-1.8,1.8-1.8s1.8,0.8,1.8,1.8s-0.8,1.8-1.8,1.8    C336,428.5,335.2,427.8,335.2,426.8z"
   fill="#3E4044"
   id="path6078_2_" />
		<polygon
   points="332.9,419.8 332.9,420.4 354,420.4 354,432.7 332.9,432.7 332.9,433.4     354.7,433.4 354.7,419.8   "
   fill="#3E4044"
   id="polygon6080_2_" />
		<path
   d="M328.7,436.1h3.4V417h-3.4V436.1z M329.4,417.7h2.1v17.7h-2.1V417.7z"
   fill="#3E4044"
   id="path6082_2_" />
		<polygon
   points="351.2,435.8 349.5,435.8 349.5,434.1 348.9,434.1 348.9,435.8 347.4,435.8     347.4,434.1 346.7,434.1 346.7,435.8 345.3,435.8 345.3,434.1 344.6,434.1 344.6,435.8 343.1,435.8 343.1,434.1 342.5,434.1     342.5,435.8 340.8,435.8 340.8,434.1 340.2,434.1 340.2,436.5 351.9,436.5 351.9,434.1 351.2,434.1   "
   fill="#3E4044"
   id="polygon6084_2_" />
	</g>
</g>
<g
   id="Devices__x2B__Hardware_Expanded_AQ_7_">
	<g
   id="g6086_3_">
		<path
   d="M376,422.8v8h8v-8H376z M383.4,430.1h-6.6v-6.6h6.6V430.1z"
   fill="#3E4044"
   id="path6076_3_" />
		<path
   d="M372.9,427.1h2.4v-0.7h-2.4c-0.1-1.2-1.2-2.1-2.4-2.1c-1.3,0-2.4,1.1-2.4,2.4    c0,1.4,1.1,2.4,2.4,2.4C371.7,429.2,372.8,428.3,372.9,427.1z M368.8,426.8c0-1,0.8-1.8,1.8-1.8s1.8,0.8,1.8,1.8s-0.8,1.8-1.8,1.8    C369.6,428.5,368.8,427.8,368.8,426.8z"
   fill="#3E4044"
   id="path6078_3_" />
		<polygon
   points="366.5,419.8 366.5,420.4 387.6,420.4 387.6,432.7 366.5,432.7 366.5,433.4     388.3,433.4 388.3,419.8   "
   fill="#3E4044"
   id="polygon6080_3_" />
		<path
   d="M362.3,436.1h3.4V417h-3.4V436.1z M362.9,417.7h2.1v17.7h-2.1V417.7z"
   fill="#3E4044"
   id="path6082_3_" />
		<polygon
   points="384.8,435.8 383.1,435.8 383.1,434.1 382.5,434.1 382.5,435.8 381,435.8     381,434.1 380.3,434.1 380.3,435.8 378.9,435.8 378.9,434.1 378.2,434.1 378.2,435.8 376.7,435.8 376.7,434.1 376,434.1     376,435.8 374.4,435.8 374.4,434.1 373.7,434.1 373.7,436.5 385.5,436.5 385.5,434.1 384.8,434.1   "
   fill="#3E4044"
   id="polygon6084_3_" />
	</g>
</g>
<line
   y2="363.1"
   x2="274.5"
   y1="308.9"
   x1="274.5"
   stroke-miterlimit="10"
   stroke-width="2"
   stroke="#000000"
   fill="none"
   id="line6124_3_" />
<line
   y2="363.1"
   x2="376"
   y1="308.9"
   x1="376"
   stroke-miterlimit="10"
   stroke-width="2"
   stroke="#000000"
   fill="none"
   id="line6126_1_" />
<line
   y2="411.9"
   x2="274.5"
   y1="396.4"
   x1="274.5"
   stroke-miterlimit="10"
   stroke-width="2"
   stroke="#000000"
   fill="none"
   id="line6128_3_" />
<line
   y2="363.1"
   x2="308.2"
   y1="308.9"
   x1="308.2"
   stroke-miterlimit="10"
   stroke-width="2"
   stroke="#000000"
   fill="none"
   id="line6124_1_" />
<line
   y2="411.9"
   x2="308.2"
   y1="396.4"
   x1="308.2"
   stroke-miterlimit="10"
   stroke-width="2"
   stroke="#000000"
   fill="none"
   id="line6128_1_" />
<line
   y2="363.1"
   x2="342.5"
   y1="308.9"
   x1="342.5"
   stroke-miterlimit="10"
   stroke-width="2"
   stroke="#000000"
   fill="none"
   id="line6124_2_" />
<line
   y2="411.9"
   x2="342.5"
   y1="396.4"
   x1="342.5"
   stroke-miterlimit="10"
   stroke-width="2"
   stroke="#000000"
   fill="none"
   id="line6128_2_" />
<line
   y2="411.9"
   x2="376"
   y1="396.4"
   x1="376"
   stroke-miterlimit="10"
   stroke-width="2"
   stroke="#000000"
   fill="none"
   id="line6134_1_" />
<line
   y2="493.4"
   x2="274.5"
   y1="439.8"
   x1="274.5"
   stroke-miterlimit="10"
   stroke-width="2"
   stroke="#000000"
   fill="none"
   id="line6128_6_" />
<line
   y2="493.4"
   x2="308.2"
   y1="439.8"
   x1="308.2"
   stroke-miterlimit="10"
   stroke-width="2"
   stroke="#000000"
   fill="none"
   id="line6128_5_" />
<line
   y2="493.4"
   x2="342.5"
   y1="439.8"
   x1="342.5"
   stroke-miterlimit="10"
   stroke-width="2"
   stroke="#000000"
   fill="none"
   id="line6128_4_" />
<line
   y2="493.4"
   x2="376"
   y1="439.8"
   x1="376"
   stroke-miterlimit="10"
   stroke-width="2"
   stroke="#000000"
   fill="none"
   id="line6134_2_" />
<g
   id="g305">
	<rect
   id="rect302"
   height="20.3"
   width="78.2"
   stroke-miterlimit="10"
   stroke="#000000"
   fill="#ECECEB"
   y="224.3"
   x="89.8" />
	<text
   style="-inkscape-font-specification:Metropolis;font-family:Metropolis;font-weight:normal;font-style:normal;font-stretch:normal;font-variant:normal;"
   font-size="10px"
   font-family="'Metropolis-Regular'"
   transform="matrix(1 0 0 1 104.9751 237.2595)"
   id="text2344_1_">VLAN 105</text>
</g>
<g
   id="g310">
	<rect
   id="rect307"
   height="20.3"
   width="78.2"
   stroke-miterlimit="10"
   stroke="#000000"
   fill="#ECECEB"
   y="224.3"
   x="269.3" />
	<text
   style="-inkscape-font-specification:Metropolis;font-family:Metropolis;font-weight:normal;font-style:normal;font-stretch:normal;font-variant:normal;"
   font-size="10px"
   font-family="'Metropolis-Regular'"
   transform="matrix(1 0 0 1 284.4751 237.2595)"
   id="text2344_3_">VLAN 106</text>
</g>
<rect
   id="rect312"
   height="20.3"
   width="70.9"
   stroke-miterlimit="10"
   stroke="#000000"
   fill="#ECECEB"
   y="224.3"
   x="413.3" />
<text
   style="-inkscape-font-specification:Metropolis;font-family:Metropolis;font-weight:normal;font-style:normal;font-stretch:normal;font-variant:normal;"
   font-size="10px"
   font-family="'Metropolis-Regular'"
   transform="matrix(1 0 0 1 427.8401 237.2593)"
   id="text2344_10_">VLAN 10</text>
<rect
   id="rect315"
   height="20.3"
   width="70.9"
   stroke-miterlimit="10"
   stroke="#000000"
   fill="#ECECEB"
   y="224.3"
   x="520.1" />
<text
   style="-inkscape-font-specification:Metropolis;font-family:Metropolis;font-weight:normal;font-style:normal;font-stretch:normal;font-variant:normal;"
   font-size="10px"
   font-family="'Metropolis-Regular'"
   transform="matrix(1 0 0 1 534.6226 237.2593)"
   id="text2344_11_">VLAN 13</text>
<g
   id="g322">
	<text
   style="-inkscape-font-specification:Metropolis;font-family:Metropolis;font-weight:normal;font-style:normal;font-stretch:normal;font-variant:normal;"
   font-size="14px"
   font-family="'Metropolis-Regular'"
   transform="matrix(1 0 0 1 130.7597 650.392)"
   id="text2344_15_">VLAN 105</text>
	<g
   id="Clouds__x2B__Infrastructure_Expanded_AQ">
		<path
   id="path319"
   d="M178,609.8c0.1,0,0.3,0,0.4,0c9.1,0.2,16.6,8,17.6,18.1l0.2,2.1l2.1,0.2c6.3,0.6,11.1,7,10.9,14.7    c-0.2,7.8-5.6,14.1-12,14.1c-0.1,0-0.2,0-0.3,0c-0.2,0-0.8,0-1.7,0c-4.6,0-18,0-31.1,0.1c-13.1,0-26.7,0.1-31.3,0.1    c-0.9,0-1.4,0-1.6,0c-6.4-0.2-12.3-6.2-12.1-12.4c0.1-6.2,5.3-11.2,11.4-11.2c0.1,0,0.2,0,0.3,0c1,0,1.9,0.2,2.8,0.4l2.6,0.7    l0.6-2.6c1.5-6.9,7.7-12,14.7-12c0.1,0,0.2,0,0.4,0c2.2,0.1,4.2,0.5,6.1,1.4l2.4,1.2l1-2.5C164.2,614.6,170.7,609.8,178,609.8     M178,607.3c-8.5,0-15.8,5.7-19,13.9c-2.2-1-4.5-1.6-7.1-1.7c-0.1,0-0.3,0-0.4,0c-8.4,0-15.4,5.9-17.1,14    c-1.1-0.3-2.3-0.5-3.4-0.5c-0.1,0-0.2,0-0.3,0c-7.5,0-13.7,6.1-13.9,13.7c-0.2,7.7,6.9,14.8,14.5,15c0.2,0,0.8,0,1.6,0    c9.3,0,53.2-0.2,62.4-0.2c0.9,0,1.4,0,1.6,0c0.1,0,0.2,0,0.3,0c7.8,0,14.3-7.4,14.5-16.5c0.2-9-5.6-16.5-13.2-17.2    c-1-11.2-9.5-20.1-20-20.4C178.3,607.3,178.1,607.3,178,607.3L178,607.3z"
   fill="#0995D3" />
	</g>
</g>
<g
   id="g328">
	<text
   style="-inkscape-font-specification:Metropolis;font-family:Metropolis;font-weight:normal;font-style:normal;font-stretch:normal;font-variant:normal;"
   font-size="14px"
   font-family="'Metropolis-Regular'"
   transform="matrix(1 0 0 1 275.99 650.392)"
   id="text2344_16_">VLAN 106</text>
	<g
   id="Clouds__x2B__Infrastructure_Expanded_AQ_1_">
		<path
   id="path325"
   d="M323.2,609.8c0.1,0,0.3,0,0.4,0c9.1,0.2,16.6,8,17.6,18.1l0.2,2.1l2.1,0.2c6.3,0.6,11.1,7,10.9,14.7    c-0.2,7.8-5.6,14.1-12,14.1c-0.1,0-0.2,0-0.3,0c-0.2,0-0.8,0-1.7,0c-4.6,0-18,0-31.1,0.1c-13.1,0-26.7,0.1-31.3,0.1    c-0.9,0-1.4,0-1.6,0c-6.4-0.2-12.3-6.2-12.1-12.4c0.1-6.2,5.3-11.2,11.4-11.2c0.1,0,0.2,0,0.3,0c1,0,1.9,0.2,2.8,0.4l2.6,0.7    l0.6-2.6c1.5-6.9,7.7-12,14.7-12c0.1,0,0.2,0,0.4,0c2.2,0.1,4.2,0.5,6.1,1.4l2.4,1.2l1-2.5C309.4,614.6,315.9,609.8,323.2,609.8     M323.2,607.3c-8.5,0-15.8,5.7-19,13.9c-2.2-1-4.5-1.6-7.1-1.7c-0.1,0-0.3,0-0.4,0c-8.4,0-15.4,5.9-17.1,14    c-1.1-0.3-2.3-0.5-3.4-0.5c-0.1,0-0.2,0-0.3,0c-7.5,0-13.7,6.1-13.9,13.7c-0.2,7.7,6.9,14.8,14.5,15c0.2,0,0.8,0,1.6,0    c9.3,0,53.2-0.2,62.4-0.2c0.9,0,1.4,0,1.6,0c0.1,0,0.2,0,0.3,0c7.8,0,14.3-7.4,14.5-16.5c0.2-9-5.6-16.5-13.2-17.2    c-1-11.2-9.5-20.1-20-20.4C323.5,607.3,323.3,607.3,323.2,607.3L323.2,607.3z"
   fill="#0995D3" />
	</g>
</g>
<g
   id="g334">
	<text
   style="-inkscape-font-specification:Metropolis;font-family:Metropolis;font-weight:normal;font-style:normal;font-stretch:normal;font-variant:normal;"
   font-size="14px"
   font-family="'Metropolis-Regular'"
   transform="matrix(1 0 0 1 425.3719 650.392)"
   id="text2344_17_">VLAN 10</text>
	<g
   id="Clouds__x2B__Infrastructure_Expanded_AQ_2_">
		<path
   id="path331"
   d="M468.5,609.8c0.1,0,0.3,0,0.4,0c9.1,0.2,16.6,8,17.6,18.1l0.2,2.1l2.1,0.2c6.3,0.6,11.1,7,10.9,14.7    c-0.2,7.8-5.6,14.1-12,14.1c-0.1,0-0.2,0-0.3,0c-0.2,0-0.8,0-1.7,0c-4.6,0-18,0-31.1,0.1c-13.1,0-26.7,0.1-31.3,0.1    c-0.9,0-1.4,0-1.6,0c-6.4-0.2-12.3-6.2-12.1-12.4c0.1-6.2,5.3-11.2,11.4-11.2c0.1,0,0.2,0,0.3,0c1,0,1.9,0.2,2.8,0.4l2.6,0.7    l0.6-2.6c1.5-6.9,7.7-12,14.7-12c0.1,0,0.2,0,0.4,0c2.2,0.1,4.2,0.5,6.1,1.4l2.4,1.2l1-2.5C454.7,614.6,461.2,609.8,468.5,609.8     M468.5,607.3c-8.5,0-15.8,5.7-19,13.9c-2.2-1-4.5-1.6-7.1-1.7c-0.1,0-0.3,0-0.4,0c-8.4,0-15.4,5.9-17.1,14    c-1.1-0.3-2.3-0.5-3.4-0.5c-0.1,0-0.2,0-0.3,0c-7.5,0-13.7,6.1-13.9,13.7c-0.2,7.7,6.9,14.8,14.5,15c0.2,0,0.8,0,1.6,0    c9.3,0,53.2-0.2,62.4-0.2c0.9,0,1.4,0,1.6,0c0.1,0,0.2,0,0.3,0c7.8,0,14.3-7.4,14.5-16.5c0.2-9-5.6-16.5-13.2-17.2    c-1-11.2-9.5-20.1-20-20.4C468.8,607.3,468.6,607.3,468.5,607.3L468.5,607.3z"
   fill="#0995D3" />
	</g>
</g>
<g
   id="g340">
	<text
   style="-inkscape-font-specification:Metropolis;font-family:Metropolis;font-weight:normal;font-style:normal;font-stretch:normal;font-variant:normal;"
   font-size="14px"
   font-family="'Metropolis-Regular'"
   transform="matrix(1 0 0 1 571.3649 650.392)"
   id="text2344_18_">VLAN 13</text>
	<g
   id="Clouds__x2B__Infrastructure_Expanded_AQ_3_">
		<path
   id="path337"
   d="M613.7,609.8c0.1,0,0.3,0,0.4,0c9.1,0.2,16.6,8,17.6,18.1l0.2,2.1l2.1,0.2c6.3,0.6,11.1,7,10.9,14.7    c-0.2,7.8-5.6,14.1-12,14.1c-0.1,0-0.2,0-0.3,0c-0.2,0-0.8,0-1.7,0c-4.6,0-18,0-31.1,0.1c-13.1,0-26.7,0.1-31.3,0.1    c-0.9,0-1.4,0-1.6,0c-6.4-0.2-12.3-6.2-12.1-12.4c0.1-6.2,5.3-11.2,11.4-11.2c0.1,0,0.2,0,0.3,0c1,0,1.9,0.2,2.8,0.4l2.6,0.7    l0.6-2.6c1.5-6.9,7.7-12,14.7-12c0.1,0,0.2,0,0.4,0c2.2,0.1,4.2,0.5,6.1,1.4l2.4,1.2l1-2.5C599.9,614.6,606.4,609.8,613.7,609.8     M613.7,607.3c-8.5,0-15.8,5.7-19,13.9c-2.2-1-4.5-1.6-7.1-1.7c-0.1,0-0.3,0-0.4,0c-8.4,0-15.4,5.9-17.1,14    c-1.1-0.3-2.3-0.5-3.4-0.5c-0.1,0-0.2,0-0.3,0c-7.5,0-13.7,6.1-13.9,13.7c-0.2,7.7,6.9,14.8,14.5,15c0.2,0,0.8,0,1.6,0    c9.3,0,53.2-0.2,62.4-0.2c0.9,0,1.4,0,1.6,0c0.1,0,0.2,0,0.3,0c7.8,0,14.3-7.4,14.5-16.5c0.2-9-5.6-16.5-13.2-17.2    c-1-11.2-9.5-20.1-20-20.4C614,607.3,613.8,607.3,613.7,607.3L613.7,607.3z"
   fill="#0995D3" />
	</g>
</g>
</svg>
