<?xml version="1.0" encoding="UTF-8" standalone="no"?>
<svg
   xmlns:dc="http://purl.org/dc/elements/1.1/"
   xmlns:cc="http://creativecommons.org/ns#"
   xmlns:rdf="http://www.w3.org/1999/02/22-rdf-syntax-ns#"
   xmlns:svg="http://www.w3.org/2000/svg"
   xmlns="http://www.w3.org/2000/svg"
   xmlns:sodipodi="http://sodipodi.sourceforge.net/DTD/sodipodi-0.dtd"
   xmlns:inkscape="http://www.inkscape.org/namespaces/inkscape"
   inkscape:version="1.0 (4035a4f, 2020-05-01)"
   sodipodi:docname="StandardSwitch_MultipleSwitches.svg"
   xml:space="preserve"
   enable-background="new 0 0 766.8 563.8"
   viewBox="0 0 766.8 563.8"
   y="0px"
   x="0px"
   id="Layer_1"
   version="1.1"><metadata
   id="metadata7122"><rdf:RDF><cc:Work
       rdf:about=""><dc:format>image/svg+xml</dc:format><dc:type
         rdf:resource="http://purl.org/dc/dcmitype/StillImage" /></cc:Work></rdf:RDF></metadata><defs
   id="defs7120">
	
	
	
	
	
	
		
	
	
	
	
	
		
	
</defs><sodipodi:namedview
   inkscape:current-layer="Layer_1"
   inkscape:window-maximized="0"
   inkscape:window-y="23"
   inkscape:window-x="0"
   inkscape:cy="281.89999"
   inkscape:cx="383.39999"
   inkscape:zoom="1.285917"
   showgrid="false"
   id="namedview7118"
   inkscape:window-height="933"
   inkscape:window-width="1663"
   inkscape:pageshadow="2"
   inkscape:pageopacity="0"
   guidetolerance="10"
   gridtolerance="10"
   objecttolerance="10"
   borderopacity="1"
   bordercolor="#666666"
   pagecolor="#ffffff"
   inkscape:document-rotation="0" />
<rect
   id="rect6481"
   height="564.3"
   width="766.8"
   fill="#FFFFFF" />
<rect
   id="rect6483"
   height="366.6"
   width="732.8"
   stroke-dasharray="6"
   stroke-miterlimit="10"
   stroke-width="2"
   stroke="#000000"
   fill="none"
   y="12.8"
   x="17" />
<rect
   id="rect6485"
   height="135.6"
   width="151.4"
   fill="#19BFD3"
   y="183.7"
   x="57.7" />
<text
   enable-background="new    "
   transform="matrix(1 0 0 1 685.7051 319.3586)"
   id="text2344_5_"><tspan
     style="-inkscape-font-specification:Metropolis;font-family:Metropolis;font-weight:normal;font-style:normal;font-stretch:normal;font-variant:normal;"
     id="tspan6487"
     font-size="14px"
     font-family="'Metropolis-Regular'"
     y="0"
     x="0">Uplink</tspan><tspan
     style="-inkscape-font-specification:Metropolis;font-family:Metropolis;font-weight:normal;font-style:normal;font-stretch:normal;font-variant:normal;"
     id="tspan6489"
     font-size="14px"
     font-family="'Metropolis-Regular'"
     y="16.8"
     x="3.6">Ports</tspan></text>
<text
   style="-inkscape-font-specification:Metropolis;font-family:Metropolis;font-weight:normal;font-style:normal;font-stretch:normal;font-variant:normal;"
   font-size="14px"
   font-family="'Metropolis-Regular'"
   transform="matrix(1 0 0 1 80.898 280.9981)"
   id="text2344_1_">Standard Switch</text>
<rect
   id="rect6493"
   height="135.60001"
   width="151.39999"
   fill="#19bfd3"
   y="182.92235"
   x="235.87766" />
<text
   style="line-height:0;-inkscape-font-specification:Metropolis;font-family:Metropolis;font-weight:normal;font-style:normal;font-stretch:normal;font-variant:normal;"
   font-size="14px"
   font-family="Metropolis-Regular"
   transform="translate(260.3369,280.9981)"
   id="text2344_3_">Standard Switch</text>
<rect
   id="rect6496"
   height="135.6"
   width="118.5"
   fill="#19BFD3"
   y="183.7"
   x="412.5" />
<rect
   id="rect6498"
   height="135.6"
   width="118.5"
   fill="#19BFD3"
   y="183.7"
   x="556" />
<text
   style="-inkscape-font-specification:Metropolis;font-family:Metropolis;font-weight:normal;font-style:normal;font-stretch:normal;font-variant:normal;"
   font-size="14px"
   font-family="'Metropolis-Regular'"
   transform="matrix(1 0 0 1 419.3355 280.9981)"
   id="text2344_9_">Standard Switch</text>
<text
   style="-inkscape-font-specification:Metropolis;font-family:Metropolis;font-weight:normal;font-style:normal;font-stretch:normal;font-variant:normal;"
   font-size="14px"
   font-family="'Metropolis-Regular'"
   transform="matrix(1 0 0 1 561.103 280.9981)"
   id="text2344_10_">Standard Switch</text>
<text
   style="-inkscape-font-specification:Metropolis;font-family:Metropolis;font-weight:normal;font-style:normal;font-stretch:normal;font-variant:normal;"
   font-size="14px"
   font-family="'Metropolis-Regular'"
   transform="matrix(1 0 0 1 25.3522 40.1604)"
   id="text2344_4_">ESXi</text>
<g
   id="g6553">
	<rect
   id="rect6503"
   height="36.2"
   width="94.7"
   stroke-miterlimit="10"
   stroke="#000000"
   fill="#FFFFFF"
   y="301.2"
   x="424.4" />
	<g
   id="g6527">
		<path
   id="path6505"
   d="M453.9,329.2h-18c-1.2,0-2.2-1-2.2-2.2v-15.3c0-1.2,1-2.2,2.2-2.2h18c1.2,0,2.2,1,2.2,2.2V327    C456.2,328.2,455.2,329.2,453.9,329.2z"
   fill="#3E4044" />
		<path
   id="path6507"
   d="M435.9,310c-0.9,0-1.6,0.7-1.6,1.6V327c0,0.9,0.7,1.6,1.6,1.6h18c0.9,0,1.6-0.7,1.6-1.6v-15.3    c0-0.9-0.7-1.6-1.6-1.6H435.9z"
   fill="#FFFFFF" />
		<path
   id="path6509"
   d="M453.9,327.8h-18c-0.4,0-0.8-0.3-0.8-0.8v-15.3c0-0.4,0.3-0.8,0.8-0.8h18c0.4,0,0.8,0.3,0.8,0.8V327    C454.7,327.4,454.4,327.8,453.9,327.8z M435.9,311.1c-0.3,0-0.5,0.2-0.5,0.5V327c0,0.3,0.2,0.5,0.5,0.5h18c0.3,0,0.5-0.2,0.5-0.5    v-15.3c0-0.3-0.2-0.5-0.5-0.5H435.9z"
   fill="#3E4044" />
		<path
   id="path6511"
   d="M452.6,312.3h-15.3c-0.4,0-0.6,0.3-0.6,0.6v7.7c0,0.4,0.3,0.6,0.6,0.6h0.6v1.9c0,0.4,0.3,0.6,0.6,0.6h1.9    v1.9c0,0.4,0.3,0.6,0.6,0.6h7.7c0.4,0,0.6-0.3,0.6-0.6v-1.9h1.9c0.4,0,0.6-0.3,0.6-0.6v-1.9h0.6c0.4,0,0.6-0.3,0.6-0.6V313    C453.3,312.6,453,312.3,452.6,312.3z"
   fill="#3E4044" />
		<path
   id="path6513"
   d="M438.5,325.1h-1.3c-0.4,0-0.6,0.3-0.6,0.6c0,0.4,0.3,0.6,0.6,0.6h1.3c0.4,0,0.6-0.3,0.6-0.6    C439.2,325.4,438.9,325.1,438.5,325.1z"
   fill="#3E4044" />
		<path
   id="path6515"
   d="M452.6,325.1h-1.3c-0.4,0-0.6,0.3-0.6,0.6c0,0.4,0.3,0.6,0.6,0.6h1.3c0.4,0,0.6-0.3,0.6-0.6    C453.3,325.4,453,325.1,452.6,325.1z"
   fill="#3E4044" />
		<path
   id="path6517"
   d="M439.8,318.7c0.4,0,0.6-0.3,0.6-0.6v-2.5c0-0.4-0.3-0.6-0.6-0.6s-0.6,0.3-0.6,0.6v2.6    C439.2,318.4,439.5,318.7,439.8,318.7z"
   fill="#FFFFFF" />
		<path
   id="path6519"
   d="M442.4,318.7c0.4,0,0.6-0.3,0.6-0.6v-2.5c0-0.4-0.3-0.6-0.6-0.6s-0.6,0.3-0.6,0.6v2.6    C441.8,318.4,442,318.7,442.4,318.7z"
   fill="#FFFFFF" />
		<path
   id="path6521"
   d="M444.9,318.7c0.4,0,0.6-0.3,0.6-0.6v-2.5c0-0.4-0.3-0.6-0.6-0.6c-0.4,0-0.6,0.3-0.6,0.6v2.6    C444.3,318.4,444.6,318.7,444.9,318.7z"
   fill="#FFFFFF" />
		<path
   id="path6523"
   d="M447.5,318.7c0.4,0,0.6-0.3,0.6-0.6v-2.5c0-0.4-0.3-0.6-0.6-0.6s-0.6,0.3-0.6,0.6v2.6    C446.9,318.4,447.1,318.7,447.5,318.7z"
   fill="#FFFFFF" />
		<path
   id="path6525"
   d="M450,318.7c0.4,0,0.6-0.3,0.6-0.6v-2.5c0-0.4-0.3-0.6-0.6-0.6s-0.6,0.3-0.6,0.6v2.6    C449.4,318.4,449.7,318.7,450,318.7z"
   fill="#FFFFFF" />
	</g>
	<g
   id="g6551">
		<path
   id="path6529"
   d="M508.7,329.2h-18c-1.2,0-2.2-1-2.2-2.2v-15.3c0-1.2,1-2.2,2.2-2.2h18c1.2,0,2.2,1,2.2,2.2V327    C510.9,328.2,509.9,329.2,508.7,329.2z"
   fill="#3E4044" />
		<path
   id="path6531"
   d="M490.7,310c-0.9,0-1.6,0.7-1.6,1.6V327c0,0.9,0.7,1.6,1.6,1.6h18c0.9,0,1.6-0.7,1.6-1.6v-15.3    c0-0.9-0.7-1.6-1.6-1.6H490.7z"
   fill="#FFFFFF" />
		<path
   id="path6533"
   d="M508.7,327.8h-18c-0.4,0-0.8-0.3-0.8-0.8v-15.3c0-0.4,0.3-0.8,0.8-0.8h18c0.4,0,0.8,0.3,0.8,0.8V327    C509.4,327.4,509.1,327.8,508.7,327.8z M490.7,311.1c-0.3,0-0.5,0.2-0.5,0.5V327c0,0.3,0.2,0.5,0.5,0.5h18c0.3,0,0.5-0.2,0.5-0.5    v-15.3c0-0.3-0.2-0.5-0.5-0.5H490.7z"
   fill="#3E4044" />
		<path
   id="path6535"
   d="M507.4,312.3H492c-0.4,0-0.6,0.3-0.6,0.6v7.7c0,0.4,0.3,0.6,0.6,0.6h0.6v1.9c0,0.4,0.3,0.6,0.6,0.6h1.9    v1.9c0,0.4,0.3,0.6,0.6,0.6h7.7c0.4,0,0.6-0.3,0.6-0.6v-1.9h1.9c0.4,0,0.6-0.3,0.6-0.6v-1.9h0.6c0.4,0,0.6-0.3,0.6-0.6V313    C508,312.6,507.7,312.3,507.4,312.3z"
   fill="#3E4044" />
		<path
   id="path6537"
   d="M493.3,325.1H492c-0.4,0-0.6,0.3-0.6,0.6c0,0.4,0.3,0.6,0.6,0.6h1.3c0.4,0,0.6-0.3,0.6-0.6    C493.9,325.4,493.6,325.1,493.3,325.1z"
   fill="#3E4044" />
		<path
   id="path6539"
   d="M507.4,325.1h-1.3c-0.4,0-0.6,0.3-0.6,0.6c0,0.4,0.3,0.6,0.6,0.6h1.3c0.4,0,0.6-0.3,0.6-0.6    C508,325.4,507.7,325.1,507.4,325.1z"
   fill="#3E4044" />
		<path
   id="path6541"
   d="M494.6,318.7c0.4,0,0.6-0.3,0.6-0.6v-2.5c0-0.4-0.3-0.6-0.6-0.6s-0.6,0.3-0.6,0.6v2.6    C493.9,318.4,494.2,318.7,494.6,318.7z"
   fill="#FFFFFF" />
		<path
   id="path6543"
   d="M497.1,318.7c0.4,0,0.6-0.3,0.6-0.6v-2.5c0-0.4-0.3-0.6-0.6-0.6s-0.6,0.3-0.6,0.6v2.6    C496.5,318.4,496.8,318.7,497.1,318.7z"
   fill="#FFFFFF" />
		<path
   id="path6545"
   d="M499.7,318.7c0.4,0,0.6-0.3,0.6-0.6v-2.5c0-0.4-0.3-0.6-0.6-0.6c-0.4,0-0.6,0.3-0.6,0.6v2.6    C499,318.4,499.3,318.7,499.7,318.7z"
   fill="#FFFFFF" />
		<path
   id="path6547"
   d="M502.3,318.7c0.4,0,0.6-0.3,0.6-0.6v-2.5c0-0.4-0.3-0.6-0.6-0.6s-0.6,0.3-0.6,0.6v2.6    C501.6,318.4,501.9,318.7,502.3,318.7z"
   fill="#FFFFFF" />
		<path
   id="path6549"
   d="M504.8,318.7c0.4,0,0.6-0.3,0.6-0.6v-2.5c0-0.4-0.3-0.6-0.6-0.6s-0.6,0.3-0.6,0.6v2.6    C504.2,318.4,504.5,318.7,504.8,318.7z"
   fill="#FFFFFF" />
	</g>
</g>
<g
   id="g6605">
	<rect
   id="rect6555"
   height="36.2"
   width="94.7"
   stroke-miterlimit="10"
   stroke="#000000"
   fill="#FFFFFF"
   y="301.2"
   x="265.4" />
	<g
   id="g6579">
		<path
   id="path6557"
   d="M294.9,329.2h-18c-1.2,0-2.2-1-2.2-2.2v-15.3c0-1.2,1-2.2,2.2-2.2h18c1.2,0,2.2,1,2.2,2.2V327    C297.2,328.2,296.2,329.2,294.9,329.2z"
   fill="#3E4044" />
		<path
   id="path6559"
   d="M277,310c-0.9,0-1.6,0.7-1.6,1.6V327c0,0.9,0.7,1.6,1.6,1.6h18c0.9,0,1.6-0.7,1.6-1.6v-15.3    c0-0.9-0.7-1.6-1.6-1.6H277z"
   fill="#FFFFFF" />
		<path
   id="path6561"
   d="M294.9,327.8h-18c-0.4,0-0.8-0.3-0.8-0.8v-15.3c0-0.4,0.3-0.8,0.8-0.8h18c0.4,0,0.8,0.3,0.8,0.8V327    C295.7,327.4,295.4,327.8,294.9,327.8z M277,311.1c-0.3,0-0.5,0.2-0.5,0.5V327c0,0.3,0.2,0.5,0.5,0.5h18c0.3,0,0.5-0.2,0.5-0.5    v-15.3c0-0.3-0.2-0.5-0.5-0.5H277z"
   fill="#3E4044" />
		<path
   id="path6563"
   d="M293.6,312.3h-15.3c-0.4,0-0.6,0.3-0.6,0.6v7.7c0,0.4,0.3,0.6,0.6,0.6h0.6v1.9c0,0.4,0.3,0.6,0.6,0.6h1.9    v1.9c0,0.4,0.3,0.6,0.6,0.6h7.7c0.4,0,0.6-0.3,0.6-0.6v-1.9h1.9c0.4,0,0.6-0.3,0.6-0.6v-1.9h0.6c0.4,0,0.6-0.3,0.6-0.6V313    C294.3,312.6,294,312.3,293.6,312.3z"
   fill="#3E4044" />
		<path
   id="path6565"
   d="M279.5,325.1h-1.3c-0.4,0-0.6,0.3-0.6,0.6c0,0.4,0.3,0.6,0.6,0.6h1.3c0.4,0,0.6-0.3,0.6-0.6    C280.2,325.4,279.9,325.1,279.5,325.1z"
   fill="#3E4044" />
		<path
   id="path6567"
   d="M293.6,325.1h-1.3c-0.4,0-0.6,0.3-0.6,0.6c0,0.4,0.3,0.6,0.6,0.6h1.3c0.4,0,0.6-0.3,0.6-0.6    C294.3,325.4,294,325.1,293.6,325.1z"
   fill="#3E4044" />
		<path
   id="path6569"
   d="M280.8,318.7c0.4,0,0.6-0.3,0.6-0.6v-2.5c0-0.4-0.3-0.6-0.6-0.6c-0.4,0-0.6,0.3-0.6,0.6v2.6    C280.2,318.4,280.5,318.7,280.8,318.7z"
   fill="#FFFFFF" />
		<path
   id="path6571"
   d="M283.4,318.7c0.4,0,0.6-0.3,0.6-0.6v-2.5c0-0.4-0.3-0.6-0.6-0.6s-0.6,0.3-0.6,0.6v2.6    C282.8,318.4,283,318.7,283.4,318.7z"
   fill="#FFFFFF" />
		<path
   id="path6573"
   d="M285.9,318.7c0.4,0,0.6-0.3,0.6-0.6v-2.5c0-0.4-0.3-0.6-0.6-0.6s-0.6,0.3-0.6,0.6v2.6    C285.3,318.4,285.6,318.7,285.9,318.7z"
   fill="#FFFFFF" />
		<path
   id="path6575"
   d="M288.5,318.7c0.4,0,0.6-0.3,0.6-0.6v-2.5c0-0.4-0.3-0.6-0.6-0.6s-0.6,0.3-0.6,0.6v2.6    C287.9,318.4,288.1,318.7,288.5,318.7z"
   fill="#FFFFFF" />
		<path
   id="path6577"
   d="M291,318.7c0.4,0,0.6-0.3,0.6-0.6v-2.5c0-0.4-0.3-0.6-0.6-0.6s-0.6,0.3-0.6,0.6v2.6    C290.4,318.4,290.7,318.7,291,318.7z"
   fill="#FFFFFF" />
	</g>
	<g
   id="g6603">
		<path
   id="path6581"
   d="M349.7,329.2h-18c-1.2,0-2.2-1-2.2-2.2v-15.3c0-1.2,1-2.2,2.2-2.2h18c1.2,0,2.2,1,2.2,2.2V327    C351.9,328.2,350.9,329.2,349.7,329.2z"
   fill="#3E4044" />
		<path
   id="path6583"
   d="M331.7,310c-0.9,0-1.6,0.7-1.6,1.6V327c0,0.9,0.7,1.6,1.6,1.6h18c0.9,0,1.6-0.7,1.6-1.6v-15.3    c0-0.9-0.7-1.6-1.6-1.6H331.7z"
   fill="#FFFFFF" />
		<path
   id="path6585"
   d="M349.7,327.8h-18c-0.4,0-0.8-0.3-0.8-0.8v-15.3c0-0.4,0.3-0.8,0.8-0.8h18c0.4,0,0.8,0.3,0.8,0.8V327    C350.4,327.4,350.1,327.8,349.7,327.8z M331.7,311.1c-0.3,0-0.5,0.2-0.5,0.5V327c0,0.3,0.2,0.5,0.5,0.5h18c0.3,0,0.5-0.2,0.5-0.5    v-15.3c0-0.3-0.2-0.5-0.5-0.5H331.7z"
   fill="#3E4044" />
		<path
   id="path6587"
   d="M348.4,312.3H333c-0.4,0-0.6,0.3-0.6,0.6v7.7c0,0.4,0.3,0.6,0.6,0.6h0.6v1.9c0,0.4,0.3,0.6,0.6,0.6h1.9    v1.9c0,0.4,0.3,0.6,0.6,0.6h7.7c0.4,0,0.6-0.3,0.6-0.6v-1.9h1.9c0.4,0,0.6-0.3,0.6-0.6v-1.9h0.6c0.4,0,0.6-0.3,0.6-0.6V313    C349,312.6,348.7,312.3,348.4,312.3z"
   fill="#3E4044" />
		<path
   id="path6589"
   d="M334.3,325.1H333c-0.4,0-0.6,0.3-0.6,0.6c0,0.4,0.3,0.6,0.6,0.6h1.3c0.4,0,0.6-0.3,0.6-0.6    C334.9,325.4,334.6,325.1,334.3,325.1z"
   fill="#3E4044" />
		<path
   id="path6591"
   d="M348.4,325.1h-1.3c-0.4,0-0.6,0.3-0.6,0.6c0,0.4,0.3,0.6,0.6,0.6h1.3c0.4,0,0.6-0.3,0.6-0.6    C349,325.4,348.7,325.1,348.4,325.1z"
   fill="#3E4044" />
		<path
   id="path6593"
   d="M335.6,318.7c0.4,0,0.6-0.3,0.6-0.6v-2.5c0-0.4-0.3-0.6-0.6-0.6c-0.4,0-0.6,0.3-0.6,0.6v2.6    C334.9,318.4,335.2,318.7,335.6,318.7z"
   fill="#FFFFFF" />
		<path
   id="path6595"
   d="M338.1,318.7c0.4,0,0.6-0.3,0.6-0.6v-2.5c0-0.4-0.3-0.6-0.6-0.6s-0.6,0.3-0.6,0.6v2.6    C337.5,318.4,337.8,318.7,338.1,318.7z"
   fill="#FFFFFF" />
		<path
   id="path6597"
   d="M340.7,318.7c0.4,0,0.6-0.3,0.6-0.6v-2.5c0-0.4-0.3-0.6-0.6-0.6s-0.6,0.3-0.6,0.6v2.6    C340,318.4,340.3,318.7,340.7,318.7z"
   fill="#FFFFFF" />
		<path
   id="path6599"
   d="M343.3,318.7c0.4,0,0.6-0.3,0.6-0.6v-2.5c0-0.4-0.3-0.6-0.6-0.6s-0.6,0.3-0.6,0.6v2.6    C342.6,318.4,342.9,318.7,343.3,318.7z"
   fill="#FFFFFF" />
		<path
   id="path6601"
   d="M345.8,318.7c0.4,0,0.6-0.3,0.6-0.6v-2.5c0-0.4-0.3-0.6-0.6-0.6s-0.6,0.3-0.6,0.6v2.6    C345.2,318.4,345.5,318.7,345.8,318.7z"
   fill="#FFFFFF" />
	</g>
</g>
<g
   id="g6657">
	<rect
   id="rect6607"
   height="36.2"
   width="94.7"
   stroke-miterlimit="10"
   stroke="#000000"
   fill="#FFFFFF"
   y="301.2"
   x="86" />
	<g
   id="g6631">
		<path
   id="path6609"
   d="M115.5,329.2h-18c-1.2,0-2.2-1-2.2-2.2v-15.3c0-1.2,1-2.2,2.2-2.2h18c1.2,0,2.2,1,2.2,2.2V327    C117.7,328.2,116.7,329.2,115.5,329.2z"
   fill="#3E4044" />
		<path
   id="path6611"
   d="M97.5,310c-0.9,0-1.6,0.7-1.6,1.6V327c0,0.9,0.7,1.6,1.6,1.6h18c0.9,0,1.6-0.7,1.6-1.6v-15.3    c0-0.9-0.7-1.6-1.6-1.6H97.5z"
   fill="#FFFFFF" />
		<path
   id="path6613"
   d="M115.5,327.8h-18c-0.4,0-0.8-0.3-0.8-0.8v-15.3c0-0.4,0.3-0.8,0.8-0.8h18c0.4,0,0.8,0.3,0.8,0.8V327    C116.3,327.4,115.9,327.8,115.5,327.8z M97.5,311.1c-0.3,0-0.5,0.2-0.5,0.5V327c0,0.3,0.2,0.5,0.5,0.5h18c0.3,0,0.5-0.2,0.5-0.5    v-15.3c0-0.3-0.2-0.5-0.5-0.5H97.5z"
   fill="#3E4044" />
		<path
   id="path6615"
   d="M114.2,312.3H98.8c-0.4,0-0.6,0.3-0.6,0.6v7.7c0,0.4,0.3,0.6,0.6,0.6h0.6v1.9c0,0.4,0.3,0.6,0.6,0.6h1.9    v1.9c0,0.4,0.3,0.6,0.6,0.6h7.7c0.4,0,0.6-0.3,0.6-0.6v-1.9h1.9c0.4,0,0.6-0.3,0.6-0.6v-1.9h0.6c0.4,0,0.6-0.3,0.6-0.6V313    C114.8,312.6,114.5,312.3,114.2,312.3z"
   fill="#3E4044" />
		<path
   id="path6617"
   d="M100.1,325.1h-1.3c-0.4,0-0.6,0.3-0.6,0.6c0,0.4,0.3,0.6,0.6,0.6h1.3c0.4,0,0.6-0.3,0.6-0.6    C100.7,325.4,100.5,325.1,100.1,325.1z"
   fill="#3E4044" />
		<path
   id="path6619"
   d="M114.2,325.1h-1.3c-0.4,0-0.6,0.3-0.6,0.6c0,0.4,0.3,0.6,0.6,0.6h1.3c0.4,0,0.6-0.3,0.6-0.6    C114.8,325.4,114.5,325.1,114.2,325.1z"
   fill="#3E4044" />
		<path
   id="path6621"
   d="M101.4,318.7c0.4,0,0.6-0.3,0.6-0.6v-2.5c0-0.4-0.3-0.6-0.6-0.6c-0.4,0-0.6,0.3-0.6,0.6v2.6    C100.7,318.4,101,318.7,101.4,318.7z"
   fill="#FFFFFF" />
		<path
   id="path6623"
   d="M103.9,318.7c0.4,0,0.6-0.3,0.6-0.6v-2.5c0-0.4-0.3-0.6-0.6-0.6c-0.4,0-0.6,0.3-0.6,0.6v2.6    C103.3,318.4,103.6,318.7,103.9,318.7z"
   fill="#FFFFFF" />
		<path
   id="path6625"
   d="M106.5,318.7c0.4,0,0.6-0.3,0.6-0.6v-2.5c0-0.4-0.3-0.6-0.6-0.6c-0.4,0-0.6,0.3-0.6,0.6v2.6    C105.9,318.4,106.1,318.7,106.5,318.7z"
   fill="#FFFFFF" />
		<path
   id="path6627"
   d="M109.1,318.7c0.4,0,0.6-0.3,0.6-0.6v-2.5c0-0.4-0.3-0.6-0.6-0.6c-0.4,0-0.6,0.3-0.6,0.6v2.6    C108.4,318.4,108.7,318.7,109.1,318.7z"
   fill="#FFFFFF" />
		<path
   id="path6629"
   d="M111.6,318.7c0.4,0,0.6-0.3,0.6-0.6v-2.5c0-0.4-0.3-0.6-0.6-0.6c-0.4,0-0.6,0.3-0.6,0.6v2.6    C111,318.4,111.3,318.7,111.6,318.7z"
   fill="#FFFFFF" />
	</g>
	<g
   id="g6655">
		<path
   id="path6633"
   d="M170.2,329.2h-18c-1.2,0-2.2-1-2.2-2.2v-15.3c0-1.2,1-2.2,2.2-2.2h18c1.2,0,2.2,1,2.2,2.2V327    C172.5,328.2,171.5,329.2,170.2,329.2z"
   fill="#3E4044" />
		<path
   id="path6635"
   d="M152.3,310c-0.9,0-1.6,0.7-1.6,1.6V327c0,0.9,0.7,1.6,1.6,1.6h18c0.9,0,1.6-0.7,1.6-1.6v-15.3    c0-0.9-0.7-1.6-1.6-1.6H152.3z"
   fill="#FFFFFF" />
		<path
   id="path6637"
   d="M170.2,327.8h-18c-0.4,0-0.8-0.3-0.8-0.8v-15.3c0-0.4,0.3-0.8,0.8-0.8h18c0.4,0,0.8,0.3,0.8,0.8V327    C171,327.4,170.7,327.8,170.2,327.8z M152.3,311.1c-0.3,0-0.5,0.2-0.5,0.5V327c0,0.3,0.2,0.5,0.5,0.5h18c0.3,0,0.5-0.2,0.5-0.5    v-15.3c0-0.3-0.2-0.5-0.5-0.5H152.3z"
   fill="#3E4044" />
		<path
   id="path6639"
   d="M168.9,312.3h-15.3c-0.4,0-0.6,0.3-0.6,0.6v7.7c0,0.4,0.3,0.6,0.6,0.6h0.6v1.9c0,0.4,0.3,0.6,0.6,0.6h1.9    v1.9c0,0.4,0.3,0.6,0.6,0.6h7.7c0.4,0,0.6-0.3,0.6-0.6v-1.9h1.9c0.4,0,0.6-0.3,0.6-0.6v-1.9h0.6c0.4,0,0.6-0.3,0.6-0.6V313    C169.6,312.6,169.3,312.3,168.9,312.3z"
   fill="#3E4044" />
		<path
   id="path6641"
   d="M154.8,325.1h-1.3c-0.4,0-0.6,0.3-0.6,0.6c0,0.4,0.3,0.6,0.6,0.6h1.3c0.4,0,0.6-0.3,0.6-0.6    C155.5,325.4,155.2,325.1,154.8,325.1z"
   fill="#3E4044" />
		<path
   id="path6643"
   d="M168.9,325.1h-1.3c-0.4,0-0.6,0.3-0.6,0.6c0,0.4,0.3,0.6,0.6,0.6h1.3c0.4,0,0.6-0.3,0.6-0.6    C169.6,325.4,169.3,325.1,168.9,325.1z"
   fill="#3E4044" />
		<path
   id="path6645"
   d="M156.1,318.7c0.4,0,0.6-0.3,0.6-0.6v-2.5c0-0.4-0.3-0.6-0.6-0.6c-0.4,0-0.6,0.3-0.6,0.6v2.6    C155.5,318.4,155.8,318.7,156.1,318.7z"
   fill="#FFFFFF" />
		<path
   id="path6647"
   d="M158.7,318.7c0.4,0,0.6-0.3,0.6-0.6v-2.5c0-0.4-0.3-0.6-0.6-0.6s-0.6,0.3-0.6,0.6v2.6    C158.1,318.4,158.3,318.7,158.7,318.7z"
   fill="#FFFFFF" />
		<path
   id="path6649"
   d="M161.2,318.7c0.4,0,0.6-0.3,0.6-0.6v-2.5c0-0.4-0.3-0.6-0.6-0.6s-0.6,0.3-0.6,0.6v2.6    C160.6,318.4,160.9,318.7,161.2,318.7z"
   fill="#FFFFFF" />
		<path
   id="path6651"
   d="M163.8,318.7c0.4,0,0.6-0.3,0.6-0.6v-2.5c0-0.4-0.3-0.6-0.6-0.6s-0.6,0.3-0.6,0.6v2.6    C163.2,318.4,163.5,318.7,163.8,318.7z"
   fill="#FFFFFF" />
		<path
   id="path6653"
   d="M166.4,318.7c0.4,0,0.6-0.3,0.6-0.6v-2.5c0-0.4-0.3-0.6-0.6-0.6c-0.4,0-0.6,0.3-0.6,0.6v2.6    C165.7,318.4,166,318.7,166.4,318.7z"
   fill="#FFFFFF" />
	</g>
</g>
<g
   id="g6709">
	<rect
   id="rect6659"
   height="36.2"
   width="94.7"
   stroke-miterlimit="10"
   stroke="#000000"
   fill="#FFFFFF"
   y="301.2"
   x="567.9" />
	<g
   id="g6683">
		<path
   id="path6661"
   d="M597.4,329.2h-18c-1.2,0-2.2-1-2.2-2.2v-15.3c0-1.2,1-2.2,2.2-2.2h18c1.2,0,2.2,1,2.2,2.2V327    C599.6,328.2,598.6,329.2,597.4,329.2z"
   fill="#3E4044" />
		<path
   id="path6663"
   d="M579.4,310c-0.9,0-1.6,0.7-1.6,1.6V327c0,0.9,0.7,1.6,1.6,1.6h18c0.9,0,1.6-0.7,1.6-1.6v-15.3    c0-0.9-0.7-1.6-1.6-1.6H579.4z"
   fill="#FFFFFF" />
		<path
   id="path6665"
   d="M597.4,327.8h-18c-0.4,0-0.8-0.3-0.8-0.8v-15.3c0-0.4,0.3-0.8,0.8-0.8h18c0.4,0,0.8,0.3,0.8,0.8V327    C598.2,327.4,597.8,327.8,597.4,327.8z M579.4,311.1c-0.3,0-0.5,0.2-0.5,0.5V327c0,0.3,0.2,0.5,0.5,0.5h18c0.3,0,0.5-0.2,0.5-0.5    v-15.3c0-0.3-0.2-0.5-0.5-0.5H579.4z"
   fill="#3E4044" />
		<path
   id="path6667"
   d="M596.1,312.3h-15.3c-0.4,0-0.6,0.3-0.6,0.6v7.7c0,0.4,0.3,0.6,0.6,0.6h0.6v1.9c0,0.4,0.3,0.6,0.6,0.6h1.9    v1.9c0,0.4,0.3,0.6,0.6,0.6h7.7c0.4,0,0.6-0.3,0.6-0.6v-1.9h1.9c0.4,0,0.6-0.3,0.6-0.6v-1.9h0.6c0.4,0,0.6-0.3,0.6-0.6V313    C596.7,312.6,596.4,312.3,596.1,312.3z"
   fill="#3E4044" />
		<path
   id="path6669"
   d="M582,325.1h-1.3c-0.4,0-0.6,0.3-0.6,0.6c0,0.4,0.3,0.6,0.6,0.6h1.3c0.4,0,0.6-0.3,0.6-0.6    C582.6,325.4,582.4,325.1,582,325.1z"
   fill="#3E4044" />
		<path
   id="path6671"
   d="M596.1,325.1h-1.3c-0.4,0-0.6,0.3-0.6,0.6c0,0.4,0.3,0.6,0.6,0.6h1.3c0.4,0,0.6-0.3,0.6-0.6    C596.7,325.4,596.4,325.1,596.1,325.1z"
   fill="#3E4044" />
		<path
   id="path6673"
   d="M583.3,318.7c0.4,0,0.6-0.3,0.6-0.6v-2.5c0-0.4-0.3-0.6-0.6-0.6s-0.6,0.3-0.6,0.6v2.6    C582.6,318.4,582.9,318.7,583.3,318.7z"
   fill="#FFFFFF" />
		<path
   id="path6675"
   d="M585.8,318.7c0.4,0,0.6-0.3,0.6-0.6v-2.5c0-0.4-0.3-0.6-0.6-0.6c-0.4,0-0.6,0.3-0.6,0.6v2.6    C585.2,318.4,585.5,318.7,585.8,318.7z"
   fill="#FFFFFF" />
		<path
   id="path6677"
   d="M588.4,318.7c0.4,0,0.6-0.3,0.6-0.6v-2.5c0-0.4-0.3-0.6-0.6-0.6s-0.6,0.3-0.6,0.6v2.6    C587.8,318.4,588,318.7,588.4,318.7z"
   fill="#FFFFFF" />
		<path
   id="path6679"
   d="M591,318.7c0.4,0,0.6-0.3,0.6-0.6v-2.5c0-0.4-0.3-0.6-0.6-0.6s-0.6,0.3-0.6,0.6v2.6    C590.3,318.4,590.6,318.7,591,318.7z"
   fill="#FFFFFF" />
		<path
   id="path6681"
   d="M593.5,318.7c0.4,0,0.6-0.3,0.6-0.6v-2.5c0-0.4-0.3-0.6-0.6-0.6c-0.4,0-0.6,0.3-0.6,0.6v2.6    C592.9,318.4,593.2,318.7,593.5,318.7z"
   fill="#FFFFFF" />
	</g>
	<g
   id="g6707">
		<path
   id="path6685"
   d="M652.1,329.2h-18c-1.2,0-2.2-1-2.2-2.2v-15.3c0-1.2,1-2.2,2.2-2.2h18c1.2,0,2.2,1,2.2,2.2V327    C654.4,328.2,653.4,329.2,652.1,329.2z"
   fill="#3E4044" />
		<path
   id="path6687"
   d="M634.2,310c-0.9,0-1.6,0.7-1.6,1.6V327c0,0.9,0.7,1.6,1.6,1.6h18c0.9,0,1.6-0.7,1.6-1.6v-15.3    c0-0.9-0.7-1.6-1.6-1.6H634.2z"
   fill="#FFFFFF" />
		<path
   id="path6689"
   d="M652.1,327.8h-18c-0.4,0-0.8-0.3-0.8-0.8v-15.3c0-0.4,0.3-0.8,0.8-0.8h18c0.4,0,0.8,0.3,0.8,0.8V327    C652.9,327.4,652.6,327.8,652.1,327.8z M634.2,311.1c-0.3,0-0.5,0.2-0.5,0.5V327c0,0.3,0.2,0.5,0.5,0.5h18c0.3,0,0.5-0.2,0.5-0.5    v-15.3c0-0.3-0.2-0.5-0.5-0.5H634.2z"
   fill="#3E4044" />
		<path
   id="path6691"
   d="M650.8,312.3h-15.3c-0.4,0-0.6,0.3-0.6,0.6v7.7c0,0.4,0.3,0.6,0.6,0.6h0.6v1.9c0,0.4,0.3,0.6,0.6,0.6h1.9    v1.9c0,0.4,0.3,0.6,0.6,0.6h7.7c0.4,0,0.6-0.3,0.6-0.6v-1.9h1.9c0.4,0,0.6-0.3,0.6-0.6v-1.9h0.6c0.4,0,0.6-0.3,0.6-0.6V313    C651.5,312.6,651.2,312.3,650.8,312.3z"
   fill="#3E4044" />
		<path
   id="path6693"
   d="M636.7,325.1h-1.3c-0.4,0-0.6,0.3-0.6,0.6c0,0.4,0.3,0.6,0.6,0.6h1.3c0.4,0,0.6-0.3,0.6-0.6    C637.4,325.4,637.1,325.1,636.7,325.1z"
   fill="#3E4044" />
		<path
   id="path6695"
   d="M650.8,325.1h-1.3c-0.4,0-0.6,0.3-0.6,0.6c0,0.4,0.3,0.6,0.6,0.6h1.3c0.4,0,0.6-0.3,0.6-0.6    C651.5,325.4,651.2,325.1,650.8,325.1z"
   fill="#3E4044" />
		<path
   id="path6697"
   d="M638,318.7c0.4,0,0.6-0.3,0.6-0.6v-2.5c0-0.4-0.3-0.6-0.6-0.6s-0.6,0.3-0.6,0.6v2.6    C637.4,318.4,637.7,318.7,638,318.7z"
   fill="#FFFFFF" />
		<path
   id="path6699"
   d="M640.6,318.7c0.4,0,0.6-0.3,0.6-0.6v-2.5c0-0.4-0.3-0.6-0.6-0.6c-0.4,0-0.6,0.3-0.6,0.6v2.6    C640,318.4,640.2,318.7,640.6,318.7z"
   fill="#FFFFFF" />
		<path
   id="path6701"
   d="M643.1,318.7c0.4,0,0.6-0.3,0.6-0.6v-2.5c0-0.4-0.3-0.6-0.6-0.6s-0.6,0.3-0.6,0.6v2.6    C642.5,318.4,642.8,318.7,643.1,318.7z"
   fill="#FFFFFF" />
		<path
   id="path6703"
   d="M645.7,318.7c0.4,0,0.6-0.3,0.6-0.6v-2.5c0-0.4-0.3-0.6-0.6-0.6s-0.6,0.3-0.6,0.6v2.6    C645.1,318.4,645.3,318.7,645.7,318.7z"
   fill="#FFFFFF" />
		<path
   id="path6705"
   d="M648.3,318.7c0.4,0,0.6-0.3,0.6-0.6v-2.5c0-0.4-0.3-0.6-0.6-0.6c-0.4,0-0.6,0.3-0.6,0.6v2.6    C647.6,318.4,647.9,318.7,648.3,318.7z"
   fill="#FFFFFF" />
	</g>
</g>
<polyline
   id="polyline6711"
   points="351.1,475.8 351.1,421.6 444.7,329.2 "
   stroke-miterlimit="10"
   stroke-width="2"
   stroke="#000000"
   fill="none" />
<polyline
   id="polyline6713"
   points="385.7,475.8 385.7,421.6 499.7,329.2 "
   stroke-miterlimit="10"
   stroke-width="2"
   stroke="#000000"
   fill="none" />
<polyline
   id="polyline6715"
   points="420.3,475.8 420.3,421.6 588.4,331 "
   stroke-miterlimit="10"
   stroke-width="2"
   stroke="#000000"
   fill="none" />
<polyline
   id="polyline6717"
   points="455.5,475.8 455.5,421.6 643.1,331 "
   stroke-miterlimit="10"
   stroke-width="2"
   stroke="#000000"
   fill="none" />
<text
   style="-inkscape-font-specification:Metropolis;font-family:Metropolis;font-weight:normal;font-style:normal;font-stretch:normal;font-variant:normal;"
   font-size="14px"
   font-family="'Metropolis-Regular'"
   transform="matrix(1 0 0 1 94.7178 499.3665)"
   id="text2344_6_">Physical Host</text>
<text
   style="-inkscape-font-specification:Metropolis;font-family:Metropolis;font-weight:normal;font-style:normal;font-stretch:normal;font-variant:normal;"
   font-size="14px"
   font-family="'Metropolis-Regular'"
   transform="matrix(1 0 0 1 94.3888 547.0489)"
   id="text2344_7_">Physical NICs</text>
<g
   id="g6861">
	<g
   id="Devices__x2B__Hardware_Expanded_AQ_4_">
		<g
   id="g6731">
			<path
   id="path6721"
   d="M211.4,536.7v9h9v-9H211.4z M219.6,544.8h-7.4v-7.4h7.4V544.8z"
   fill="#3E4044" />
			<path
   id="path6723"
   d="M207.9,541.5h2.7v-0.8h-2.7c-0.2-1.3-1.3-2.4-2.7-2.4c-1.5,0-2.7,1.2-2.7,2.7c0,1.5,1.2,2.7,2.7,2.7     C206.6,543.9,207.7,542.8,207.9,541.5z M203.3,541.2c0-1.1,0.9-2,2-2s2,0.9,2,2s-0.9,2-2,2S203.3,542.2,203.3,541.2z"
   fill="#3E4044" />
			<polygon
   id="polygon6725"
   points="200.7,533.2 200.7,534 224.3,534 224.3,547.7 200.7,547.7 200.7,548.5 225.1,548.5 225.1,533.2         "
   fill="#3E4044" />
			<path
   id="path6727"
   d="M196,551.6h3.8v-21.4H196V551.6z M196.8,531h2.3v19.8h-2.3V531z"
   fill="#3E4044" />
			<polygon
   id="polygon6729"
   points="221.2,551.2 219.3,551.2 219.3,549.3 218.6,549.3 218.6,551.2 216.9,551.2 216.9,549.3      216.2,549.3 216.2,551.2 214.6,551.2 214.6,549.3 213.8,549.3 213.8,551.2 212.2,551.2 212.2,549.3 211.4,549.3 211.4,551.2      209.6,551.2 209.6,549.3 208.8,549.3 208.8,552 222,552 222,549.3 221.2,549.3    "
   fill="#3E4044" />
		</g>
	</g>
	<g
   id="Devices__x2B__Hardware_Expanded_AQ_5_">
		<g
   id="g6744">
			<path
   id="path6734"
   d="M246,536.7v9h9v-9H246z M254.2,544.8h-7.4v-7.4h7.4V544.8z"
   fill="#3E4044" />
			<path
   id="path6736"
   d="M242.5,541.5h2.7v-0.8h-2.7c-0.2-1.3-1.3-2.4-2.7-2.4c-1.5,0-2.7,1.2-2.7,2.7c0,1.5,1.2,2.7,2.7,2.7     C241.2,543.9,242.3,542.8,242.5,541.5z M237.9,541.2c0-1.1,0.9-2,2-2s2,0.9,2,2s-0.9,2-2,2S237.9,542.2,237.9,541.2z"
   fill="#3E4044" />
			<polygon
   id="polygon6738"
   points="235.3,533.2 235.3,534 258.9,534 258.9,547.7 235.3,547.7 235.3,548.5 259.7,548.5 259.7,533.2         "
   fill="#3E4044" />
			<path
   id="path6740"
   d="M230.6,551.6h3.8v-21.4h-3.8V551.6z M231.3,531h2.3v19.8h-2.3V531z"
   fill="#3E4044" />
			<polygon
   id="polygon6742"
   points="255.8,551.2 253.9,551.2 253.9,549.3 253.1,549.3 253.1,551.2 251.5,551.2 251.5,549.3      250.8,549.3 250.8,551.2 249.1,551.2 249.1,549.3 248.4,549.3 248.4,551.2 246.7,551.2 246.7,549.3 246,549.3 246,551.2      244.1,551.2 244.1,549.3 243.4,549.3 243.4,552 256.6,552 256.6,549.3 255.8,549.3    "
   fill="#3E4044" />
		</g>
	</g>
	<g
   id="Devices__x2B__Hardware_Expanded_AQ_6_">
		<g
   id="g6757">
			<path
   id="path6747"
   d="M280.6,536.7v9h9v-9H280.6z M288.8,544.8h-7.4v-7.4h7.4V544.8z"
   fill="#3E4044" />
			<path
   id="path6749"
   d="M277.1,541.5h2.7v-0.8h-2.7c-0.2-1.3-1.3-2.4-2.7-2.4c-1.5,0-2.7,1.2-2.7,2.7c0,1.5,1.2,2.7,2.7,2.7     C275.8,543.9,276.9,542.8,277.1,541.5z M272.4,541.2c0-1.1,0.9-2,2-2s2,0.9,2,2s-0.9,2-2,2S272.4,542.2,272.4,541.2z"
   fill="#3E4044" />
			<polygon
   id="polygon6751"
   points="269.8,533.2 269.8,534 293.5,534 293.5,547.7 269.8,547.7 269.8,548.5 294.3,548.5 294.3,533.2         "
   fill="#3E4044" />
			<path
   id="path6753"
   d="M265.2,551.6h3.8v-21.4h-3.8V551.6z M265.9,531h2.3v19.8h-2.3V531z"
   fill="#3E4044" />
			<polygon
   id="polygon6755"
   points="290.4,551.2 288.5,551.2 288.5,549.3 287.7,549.3 287.7,551.2 286.1,551.2 286.1,549.3      285.3,549.3 285.3,551.2 283.7,551.2 283.7,549.3 283,549.3 283,551.2 281.3,551.2 281.3,549.3 280.6,549.3 280.6,551.2      278.7,551.2 278.7,549.3 278,549.3 278,552 291.1,552 291.1,549.3 290.4,549.3    "
   fill="#3E4044" />
		</g>
	</g>
	<g
   id="Devices__x2B__Hardware_Expanded_AQ_7_">
		<g
   id="g6770">
			<path
   id="path6760"
   d="M315.8,536.7v9h9v-9H315.8z M324,544.8h-7.4v-7.4h7.4V544.8z"
   fill="#3E4044" />
			<path
   id="path6762"
   d="M312.3,541.5h2.7v-0.8h-2.7c-0.2-1.3-1.3-2.4-2.7-2.4c-1.5,0-2.7,1.2-2.7,2.7c0,1.5,1.2,2.7,2.7,2.7     C311,543.9,312.1,542.8,312.3,541.5z M307.7,541.2c0-1.1,0.9-2,2-2s2,0.9,2,2s-0.9,2-2,2S307.7,542.2,307.7,541.2z"
   fill="#3E4044" />
			<polygon
   id="polygon6764"
   points="305.1,533.2 305.1,534 328.7,534 328.7,547.7 305.1,547.7 305.1,548.5 329.5,548.5 329.5,533.2         "
   fill="#3E4044" />
			<path
   id="path6766"
   d="M300.4,551.6h3.8v-21.4h-3.8V551.6z M301.2,531h2.3v19.8h-2.3V531z"
   fill="#3E4044" />
			<polygon
   id="polygon6768"
   points="325.6,551.2 323.7,551.2 323.7,549.3 323,549.3 323,551.2 321.3,551.2 321.3,549.3 320.6,549.3      320.6,551.2 319,551.2 319,549.3 318.2,549.3 318.2,551.2 316.5,551.2 316.5,549.3 315.8,549.3 315.8,551.2 313.9,551.2      313.9,549.3 313.2,549.3 313.2,552 326.4,552 326.4,549.3 325.6,549.3    "
   fill="#3E4044" />
		</g>
	</g>
	<path
   id="path6773"
   d="M469.5,480.7v26.7H202v-26.7H469.5 M472.8,477.4H198.6v33.3h274.2V477.4L472.8,477.4z" />
	<path
   id="path6775"
   d="M335.7,490.1L335.7,490.1c2,0,3.6,1.5,4,3.3c0.4,2.1-1.1,4.3-3.3,4.7c-0.3,0-0.4,0-0.7,0c-2,0-3.6-1.5-4-3.3   c-0.4-2.1,1.1-4.3,3.3-4.7C335.2,490.1,335.5,490.1,335.7,490.1 M335.7,487.4c-0.4,0-0.8,0-1.1,0.1c-3.6,0.7-6.1,4-5.5,7.7   c0.5,3.2,3.3,5.6,6.5,5.6c0.4,0,0.8,0,1.1-0.1c3.6-0.7,6.1-4,5.5-7.7C341.7,489.7,338.9,487.4,335.7,487.4L335.7,487.4z" />
	<g
   id="g6783">
		<rect
   id="rect6777"
   height="13.3"
   width="3.3"
   y="487.4"
   x="207.7" />
		<rect
   id="rect6779"
   height="13.3"
   width="3.3"
   y="487.4"
   x="214.4" />
		<rect
   id="rect6781"
   height="13.3"
   width="3.3"
   y="487.4"
   x="221.1" />
	</g>
	<g
   id="g6791">
		<rect
   id="rect6785"
   height="13.3"
   width="3.3"
   y="487.4"
   x="445.1" />
		<rect
   id="rect6787"
   height="13.3"
   width="3.3"
   y="487.4"
   x="451.8" />
		<rect
   id="rect6789"
   height="13.3"
   width="3.3"
   y="487.4"
   x="458.4" />
	</g>
	<line
   id="line6793"
   y2="521.1"
   x2="210.6"
   y1="510.7"
   x1="210.6"
   stroke-miterlimit="10"
   stroke-width="2"
   stroke="#000000"
   fill="none" />
	<line
   id="line6795"
   y2="521.1"
   x2="245.1"
   y1="510.7"
   x1="245.1"
   stroke-miterlimit="10"
   stroke-width="2"
   stroke="#000000"
   fill="none" />
	<line
   id="line6797"
   y2="521.1"
   x2="279.7"
   y1="510.7"
   x1="279.7"
   stroke-miterlimit="10"
   stroke-width="2"
   stroke="#000000"
   fill="none" />
	<line
   id="line6799"
   y2="521.1"
   x2="314.9"
   y1="510.7"
   x1="314.9"
   stroke-miterlimit="10"
   stroke-width="2"
   stroke="#000000"
   fill="none" />
	<g
   id="Devices__x2B__Hardware_Expanded_AQ_11_">
		<g
   id="g6811">
			<path
   id="path6801"
   d="M351.9,536.7v9h9v-9H351.9z M360.1,544.8h-7.4v-7.4h7.4V544.8z"
   fill="#3E4044" />
			<path
   id="path6803"
   d="M348.4,541.5h2.7v-0.8h-2.7c-0.2-1.3-1.3-2.4-2.7-2.4c-1.5,0-2.7,1.2-2.7,2.7c0,1.5,1.2,2.7,2.7,2.7     C347.1,543.9,348.2,542.8,348.4,541.5z M343.8,541.2c0-1.1,0.9-2,2-2s2,0.9,2,2s-0.9,2-2,2S343.8,542.2,343.8,541.2z"
   fill="#3E4044" />
			<polygon
   id="polygon6805"
   points="341.2,533.2 341.2,534 364.8,534 364.8,547.7 341.2,547.7 341.2,548.5 365.6,548.5 365.6,533.2         "
   fill="#3E4044" />
			<path
   id="path6807"
   d="M336.5,551.6h3.8v-21.4h-3.8V551.6z M337.3,531h2.3v19.8h-2.3V531z"
   fill="#3E4044" />
			<polygon
   id="polygon6809"
   points="361.7,551.2 359.8,551.2 359.8,549.3 359.1,549.3 359.1,551.2 357.4,551.2 357.4,549.3      356.7,549.3 356.7,551.2 355.1,551.2 355.1,549.3 354.3,549.3 354.3,551.2 352.7,551.2 352.7,549.3 351.9,549.3 351.9,551.2      350.1,551.2 350.1,549.3 349.3,549.3 349.3,552 362.5,552 362.5,549.3 361.7,549.3    "
   fill="#3E4044" />
		</g>
	</g>
	<g
   id="Devices__x2B__Hardware_Expanded_AQ_10_">
		<g
   id="g6824">
			<path
   id="path6814"
   d="M386.5,536.7v9h9v-9H386.5z M394.7,544.8h-7.4v-7.4h7.4V544.8z"
   fill="#3E4044" />
			<path
   id="path6816"
   d="M383,541.5h2.7v-0.8H383c-0.2-1.3-1.3-2.4-2.7-2.4c-1.5,0-2.7,1.2-2.7,2.7c0,1.5,1.2,2.7,2.7,2.7     C381.7,543.9,382.8,542.8,383,541.5z M378.4,541.2c0-1.1,0.9-2,2-2s2,0.9,2,2s-0.9,2-2,2S378.4,542.2,378.4,541.2z"
   fill="#3E4044" />
			<polygon
   id="polygon6818"
   points="375.8,533.2 375.8,534 399.4,534 399.4,547.7 375.8,547.7 375.8,548.5 400.2,548.5 400.2,533.2         "
   fill="#3E4044" />
			<path
   id="path6820"
   d="M371.1,551.6h3.8v-21.4h-3.8V551.6z M371.8,531h2.3v19.8h-2.3V531z"
   fill="#3E4044" />
			<polygon
   id="polygon6822"
   points="396.3,551.2 394.4,551.2 394.4,549.3 393.6,549.3 393.6,551.2 392,551.2 392,549.3 391.3,549.3      391.3,551.2 389.6,551.2 389.6,549.3 388.9,549.3 388.9,551.2 387.2,551.2 387.2,549.3 386.5,549.3 386.5,551.2 384.6,551.2      384.6,549.3 383.9,549.3 383.9,552 397.1,552 397.1,549.3 396.3,549.3    "
   fill="#3E4044" />
		</g>
	</g>
	<g
   id="Devices__x2B__Hardware_Expanded_AQ_9_">
		<g
   id="g6837">
			<path
   id="path6827"
   d="M421.1,536.7v9h9v-9H421.1z M429.3,544.8h-7.4v-7.4h7.4V544.8z"
   fill="#3E4044" />
			<path
   id="path6829"
   d="M417.6,541.5h2.7v-0.8h-2.7c-0.2-1.3-1.3-2.4-2.7-2.4c-1.5,0-2.7,1.2-2.7,2.7c0,1.5,1.2,2.7,2.7,2.7     C416.3,543.9,417.4,542.8,417.6,541.5z M412.9,541.2c0-1.1,0.9-2,2-2s2,0.9,2,2s-0.9,2-2,2S412.9,542.2,412.9,541.2z"
   fill="#3E4044" />
			<polygon
   id="polygon6831"
   points="410.3,533.2 410.3,534 434,534 434,547.7 410.3,547.7 410.3,548.5 434.8,548.5 434.8,533.2         "
   fill="#3E4044" />
			<path
   id="path6833"
   d="M405.7,551.6h3.8v-21.4h-3.8V551.6z M406.4,531h2.3v19.8h-2.3V531z"
   fill="#3E4044" />
			<polygon
   id="polygon6835"
   points="430.9,551.2 429,551.2 429,549.3 428.2,549.3 428.2,551.2 426.6,551.2 426.6,549.3 425.8,549.3      425.8,551.2 424.2,551.2 424.2,549.3 423.5,549.3 423.5,551.2 421.8,551.2 421.8,549.3 421.1,549.3 421.1,551.2 419.2,551.2      419.2,549.3 418.5,549.3 418.5,552 431.6,552 431.6,549.3 430.9,549.3    "
   fill="#3E4044" />
		</g>
	</g>
	<g
   id="Devices__x2B__Hardware_Expanded_AQ_8_">
		<g
   id="g6850">
			<path
   id="path6840"
   d="M456.3,536.7v9h9v-9H456.3z M464.5,544.8H457v-7.4h7.4V544.8z"
   fill="#3E4044" />
			<path
   id="path6842"
   d="M452.8,541.5h2.7v-0.8h-2.7c-0.2-1.3-1.3-2.4-2.7-2.4c-1.5,0-2.7,1.2-2.7,2.7c0,1.5,1.2,2.7,2.7,2.7     C451.5,543.9,452.6,542.8,452.8,541.5z M448.2,541.2c0-1.1,0.9-2,2-2s2,0.9,2,2s-0.9,2-2,2S448.2,542.2,448.2,541.2z"
   fill="#3E4044" />
			<polygon
   id="polygon6844"
   points="445.6,533.2 445.6,534 469.2,534 469.2,547.7 445.6,547.7 445.6,548.5 470,548.5 470,533.2         "
   fill="#3E4044" />
			<path
   id="path6846"
   d="M440.9,551.6h3.8v-21.4h-3.8V551.6z M441.7,531h2.3v19.8h-2.3V531z"
   fill="#3E4044" />
			<polygon
   id="polygon6848"
   points="466.1,551.2 464.2,551.2 464.2,549.3 463.5,549.3 463.5,551.2 461.8,551.2 461.8,549.3      461.1,549.3 461.1,551.2 459.5,551.2 459.5,549.3 458.7,549.3 458.7,551.2 457,551.2 457,549.3 456.3,549.3 456.3,551.2      454.4,551.2 454.4,549.3 453.7,549.3 453.7,552 466.9,552 466.9,549.3 466.1,549.3    "
   fill="#3E4044" />
		</g>
	</g>
	<line
   id="line6853"
   y2="521.1"
   x2="351.1"
   y1="510.7"
   x1="351.1"
   stroke-miterlimit="10"
   stroke-width="2"
   stroke="#000000"
   fill="none" />
	<line
   id="line6855"
   y2="521.1"
   x2="385.6"
   y1="510.7"
   x1="385.6"
   stroke-miterlimit="10"
   stroke-width="2"
   stroke="#000000"
   fill="none" />
	<line
   id="line6857"
   y2="521.1"
   x2="420.2"
   y1="510.7"
   x1="420.2"
   stroke-miterlimit="10"
   stroke-width="2"
   stroke="#000000"
   fill="none" />
	<line
   id="line6859"
   y2="521.1"
   x2="455.4"
   y1="510.7"
   x1="455.4"
   stroke-miterlimit="10"
   stroke-width="2"
   stroke="#000000"
   fill="none" />
</g>
<text
   y="134.0927"
   x="581.75177"
   style="font-style:normal;font-variant:normal;font-weight:normal;font-stretch:normal;font-size:12px;font-family:sans-serif;-inkscape-font-specification:'sans-serif, Normal';font-variant-ligatures:normal;font-variant-caps:normal;font-variant-numeric:normal;font-variant-east-asian:normal"
   enable-background="new    "
   id="text2344_2_"><tspan
     y="134.0927"
     x="581.75177"
     id="tspan1170"
     sodipodi:role="line">IP Storage</tspan></text>
<rect
   id="rect6868"
   height="54.6"
   width="78.4"
   stroke-miterlimit="10"
   stroke="#000000"
   fill="#ECECEB"
   y="153.3"
   x="575.4" />
<g
   id="g6892">
	<path
   id="path6870"
   d="M623.6,190.5h-18c-1.2,0-2.2-1-2.2-2.2v-15.3c0-1.2,1-2.2,2.2-2.2h18c1.2,0,2.2,1,2.2,2.2v15.3   C625.8,189.5,624.8,190.5,623.6,190.5z"
   fill="#3E4044" />
	<path
   id="path6872"
   d="M605.6,171.3c-0.9,0-1.6,0.7-1.6,1.6v15.3c0,0.9,0.7,1.6,1.6,1.6h18c0.9,0,1.6-0.7,1.6-1.6v-15.3   c0-0.9-0.7-1.6-1.6-1.6H605.6z"
   fill="#FFFFFF" />
	<path
   id="path6874"
   d="M623.6,189h-18c-0.4,0-0.8-0.3-0.8-0.8v-15.3c0-0.4,0.3-0.8,0.8-0.8h18c0.4,0,0.8,0.3,0.8,0.8v15.3   C624.4,188.7,624,189,623.6,189z M605.6,172.4c-0.3,0-0.5,0.2-0.5,0.5v15.3c0,0.3,0.2,0.5,0.5,0.5h18c0.3,0,0.5-0.2,0.5-0.5v-15.3   c0-0.3-0.2-0.5-0.5-0.5H605.6z"
   fill="#3E4044" />
	<path
   id="path6876"
   d="M622.3,173.6h-15.3c-0.4,0-0.6,0.3-0.6,0.6v7.7c0,0.4,0.3,0.6,0.6,0.6h0.6v1.9c0,0.4,0.3,0.6,0.6,0.6h1.9   v1.9c0,0.4,0.3,0.6,0.6,0.6h7.7c0.4,0,0.6-0.3,0.6-0.6v-1.9h1.9c0.4,0,0.6-0.3,0.6-0.6v-1.9h0.6c0.4,0,0.6-0.3,0.6-0.6v-7.7   C622.9,173.9,622.6,173.6,622.3,173.6z"
   fill="#3E4044" />
	<path
   id="path6878"
   d="M608.2,186.3h-1.3c-0.4,0-0.6,0.3-0.6,0.6c0,0.4,0.3,0.6,0.6,0.6h1.3c0.4,0,0.6-0.3,0.6-0.6   C608.9,186.6,608.6,186.3,608.2,186.3z"
   fill="#3E4044" />
	<path
   id="path6880"
   d="M622.3,186.3H621c-0.4,0-0.6,0.3-0.6,0.6c0,0.4,0.3,0.6,0.6,0.6h1.3c0.4,0,0.6-0.3,0.6-0.6   C622.9,186.6,622.6,186.3,622.3,186.3z"
   fill="#3E4044" />
	<path
   id="path6882"
   d="M609.5,179.9c0.4,0,0.6-0.3,0.6-0.6v-2.5c0-0.4-0.3-0.6-0.6-0.6s-0.6,0.3-0.6,0.6v2.6   C608.9,179.7,609.1,179.9,609.5,179.9z"
   fill="#FFFFFF" />
	<path
   id="path6884"
   d="M612,179.9c0.4,0,0.6-0.3,0.6-0.6v-2.5c0-0.4-0.3-0.6-0.6-0.6s-0.6,0.3-0.6,0.6v2.6   C611.4,179.7,611.7,179.9,612,179.9z"
   fill="#FFFFFF" />
	<path
   id="path6886"
   d="M614.6,179.9c0.4,0,0.6-0.3,0.6-0.6v-2.5c0-0.4-0.3-0.6-0.6-0.6s-0.6,0.3-0.6,0.6v2.6   C614,179.7,614.2,179.9,614.6,179.9z"
   fill="#FFFFFF" />
	<path
   id="path6888"
   d="M617.2,179.9c0.4,0,0.6-0.3,0.6-0.6v-2.5c0-0.4-0.3-0.6-0.6-0.6c-0.4,0-0.6,0.3-0.6,0.6v2.6   C616.5,179.7,616.8,179.9,617.2,179.9z"
   fill="#FFFFFF" />
	<path
   id="path6890"
   d="M619.7,179.9c0.4,0,0.6-0.3,0.6-0.6v-2.5c0-0.4-0.3-0.6-0.6-0.6s-0.6,0.3-0.6,0.6v2.6   C619.1,179.7,619.4,179.9,619.7,179.9z"
   fill="#FFFFFF" />
</g>
<text
   enable-background="new    "
   transform="matrix(1 0 0 1 434.3222 134.0924)"
   id="text2344_12_"><tspan
     style="-inkscape-font-specification:Metropolis;font-family:Metropolis;font-weight:normal;font-style:normal;font-stretch:normal;font-variant:normal;"
     id="tspan6894"
     font-size="12px"
     font-family="'Metropolis-Regular'"
     y="0"
     x="0">Management</tspan><tspan
     style="-inkscape-font-specification:Metropolis;font-family:Metropolis;font-weight:normal;font-style:normal;font-stretch:normal;font-variant:normal;"
     id="tspan6896"
     font-size="12px"
     font-family="'Metropolis-Regular'"
     y="12"
     x="-3.9">VMkernel Port</tspan></text>
<rect
   id="rect6899"
   height="54.6"
   width="78.4"
   stroke-miterlimit="10"
   stroke="#000000"
   fill="#ECECEB"
   y="153.3"
   x="432.6" />
<g
   id="g6923">
	<path
   id="path6901"
   d="M480.8,190.5h-18c-1.2,0-2.2-1-2.2-2.2v-15.3c0-1.2,1-2.2,2.2-2.2h18c1.2,0,2.2,1,2.2,2.2v15.3   C483,189.5,482,190.5,480.8,190.5z"
   fill="#3E4044" />
	<path
   id="path6903"
   d="M462.8,171.3c-0.9,0-1.6,0.7-1.6,1.6v15.3c0,0.9,0.7,1.6,1.6,1.6h18c0.9,0,1.6-0.7,1.6-1.6v-15.3   c0-0.9-0.7-1.6-1.6-1.6H462.8z"
   fill="#FFFFFF" />
	<path
   id="path6905"
   d="M480.8,189h-18c-0.4,0-0.8-0.3-0.8-0.8v-15.3c0-0.4,0.3-0.8,0.8-0.8h18c0.4,0,0.8,0.3,0.8,0.8v15.3   C481.6,188.7,481.2,189,480.8,189z M462.8,172.4c-0.3,0-0.5,0.2-0.5,0.5v15.3c0,0.3,0.2,0.5,0.5,0.5h18c0.3,0,0.5-0.2,0.5-0.5   v-15.3c0-0.3-0.2-0.5-0.5-0.5H462.8z"
   fill="#3E4044" />
	<path
   id="path6907"
   d="M479.5,173.6h-15.3c-0.4,0-0.6,0.3-0.6,0.6v7.7c0,0.4,0.3,0.6,0.6,0.6h0.6v1.9c0,0.4,0.3,0.6,0.6,0.6h1.9   v1.9c0,0.4,0.3,0.6,0.6,0.6h7.7c0.4,0,0.6-0.3,0.6-0.6v-1.9h1.9c0.4,0,0.6-0.3,0.6-0.6v-1.9h0.6c0.4,0,0.6-0.3,0.6-0.6v-7.7   C480.1,173.9,479.8,173.6,479.5,173.6z"
   fill="#3E4044" />
	<path
   id="path6909"
   d="M465.4,186.3h-1.3c-0.4,0-0.6,0.3-0.6,0.6c0,0.4,0.3,0.6,0.6,0.6h1.3c0.4,0,0.6-0.3,0.6-0.6   C466,186.6,465.8,186.3,465.4,186.3z"
   fill="#3E4044" />
	<path
   id="path6911"
   d="M479.5,186.3h-1.3c-0.4,0-0.6,0.3-0.6,0.6c0,0.4,0.3,0.6,0.6,0.6h1.3c0.4,0,0.6-0.3,0.6-0.6   C480.1,186.6,479.8,186.3,479.5,186.3z"
   fill="#3E4044" />
	<path
   id="path6913"
   d="M466.7,179.9c0.4,0,0.6-0.3,0.6-0.6v-2.5c0-0.4-0.3-0.6-0.6-0.6s-0.6,0.3-0.6,0.6v2.6   C466,179.7,466.3,179.9,466.7,179.9z"
   fill="#FFFFFF" />
	<path
   id="path6915"
   d="M469.2,179.9c0.4,0,0.6-0.3,0.6-0.6v-2.5c0-0.4-0.3-0.6-0.6-0.6c-0.4,0-0.6,0.3-0.6,0.6v2.6   C468.6,179.7,468.9,179.9,469.2,179.9z"
   fill="#FFFFFF" />
	<path
   id="path6917"
   d="M471.8,179.9c0.4,0,0.6-0.3,0.6-0.6v-2.5c0-0.4-0.3-0.6-0.6-0.6s-0.6,0.3-0.6,0.6v2.6   C471.2,179.7,471.4,179.9,471.8,179.9z"
   fill="#FFFFFF" />
	<path
   id="path6919"
   d="M474.4,179.9c0.4,0,0.6-0.3,0.6-0.6v-2.5c0-0.4-0.3-0.6-0.6-0.6c-0.4,0-0.6,0.3-0.6,0.6v2.6   C473.7,179.7,474,179.9,474.4,179.9z"
   fill="#FFFFFF" />
	<path
   id="path6921"
   d="M476.9,179.9c0.4,0,0.6-0.3,0.6-0.6v-2.5c0-0.4-0.3-0.6-0.6-0.6c-0.4,0-0.6,0.3-0.6,0.6v2.6   C476.3,179.7,476.6,179.9,476.9,179.9z"
   fill="#FFFFFF" />
</g>
<rect
   x="62.5"
   y="195.89999"
   fill="#218fcf"
   width="141.8"
   height="48.900002"
   id="rect6925" /><text
   id="text2344_14_"
   enable-background="new    "
   x="95.85955"
   y="222.5786"
   style="font-style:normal;font-variant:normal;font-weight:normal;font-stretch:normal;font-size:14px;font-family:Metropolis;-inkscape-font-specification:'Metropolis, Normal';font-variant-ligatures:normal;font-variant-caps:normal;font-variant-numeric:normal;font-variant-east-asian:normal;fill:#ffffff"><tspan
     sodipodi:role="line"
     id="tspan3990"
     x="95.85955"
     y="222.5786">Accounting</tspan></text><g
   id="g6954">
		<path
   fill="#3e4044"
   d="m 103.6,205.7 h -18 c -1.2,0 -2.2,-1 -2.2,-2.2 v -15.3 c 0,-1.2 1,-2.2 2.2,-2.2 h 18 c 1.2,0 2.2,1 2.2,2.2 v 15.3 c 0.1,1.3 -1,2.2 -2.2,2.2 z"
   id="path6932" />
		<path
   fill="#ffffff"
   d="m 85.6,186.6 c -0.9,0 -1.6,0.7 -1.6,1.6 v 15.3 c 0,0.9 0.7,1.6 1.6,1.6 h 18 c 0.9,0 1.6,-0.7 1.6,-1.6 v -15.3 c 0,-0.9 -0.7,-1.6 -1.6,-1.6 z"
   id="path6934" />
		<path
   fill="#3e4044"
   d="m 103.6,204.3 h -18 c -0.4,0 -0.8,-0.3 -0.8,-0.8 v -15.3 c 0,-0.4 0.3,-0.8 0.8,-0.8 h 18 c 0.4,0 0.8,0.3 0.8,0.8 v 15.3 c 0,0.5 -0.3,0.8 -0.8,0.8 z m -18,-16.6 c -0.3,0 -0.5,0.2 -0.5,0.5 v 15.3 c 0,0.3 0.2,0.5 0.5,0.5 h 18 c 0.3,0 0.5,-0.2 0.5,-0.5 v -15.3 c 0,-0.3 -0.2,-0.5 -0.5,-0.5 z"
   id="path6936" />
		<path
   fill="#3e4044"
   d="M 102.3,188.8 H 87 c -0.4,0 -0.6,0.3 -0.6,0.6 v 7.7 c 0,0.4 0.3,0.6 0.6,0.6 h 0.6 v 1.9 c 0,0.4 0.3,0.6 0.6,0.6 h 1.9 v 1.9 c 0,0.4 0.3,0.6 0.6,0.6 h 7.7 c 0.4,0 0.6,-0.3 0.6,-0.6 v -1.9 h 1.9 c 0.4,0 0.6,-0.3 0.6,-0.6 v -1.9 h 0.6 c 0.4,0 0.6,-0.3 0.6,-0.6 v -7.7 c 0.3,-0.3 0,-0.6 -0.4,-0.6 z"
   id="path6938" />
		<path
   fill="#3e4044"
   d="M 88.2,201.6 H 87 c -0.4,0 -0.6,0.3 -0.6,0.6 0,0.4 0.3,0.6 0.6,0.6 h 1.3 c 0.4,0 0.6,-0.3 0.6,-0.6 0,-0.3 -0.3,-0.6 -0.7,-0.6 z"
   id="path6940" />
		<path
   fill="#3e4044"
   d="M 102.3,201.6 H 101 c -0.4,0 -0.6,0.3 -0.6,0.6 0,0.4 0.3,0.6 0.6,0.6 h 1.3 c 0.4,0 0.6,-0.3 0.6,-0.6 0.1,-0.3 -0.2,-0.6 -0.6,-0.6 z"
   id="path6942" />
		<path
   fill="#ffffff"
   d="m 89.5,195.2 c 0.4,0 0.6,-0.3 0.6,-0.6 V 192 c 0,-0.4 -0.3,-0.6 -0.6,-0.6 -0.4,0 -0.6,0.3 -0.6,0.6 v 2.6 c 0,0.3 0.3,0.6 0.6,0.6 z"
   id="path6944" />
		<path
   fill="#ffffff"
   d="m 92.1,195.2 c 0.4,0 0.6,-0.3 0.6,-0.6 V 192 c 0,-0.4 -0.3,-0.6 -0.6,-0.6 -0.4,0 -0.6,0.3 -0.6,0.6 v 2.6 c -0.1,0.3 0.2,0.6 0.6,0.6 z"
   id="path6946" />
		<path
   fill="#ffffff"
   d="m 94.6,195.2 c 0.4,0 0.6,-0.3 0.6,-0.6 V 192 c 0,-0.4 -0.3,-0.6 -0.6,-0.6 -0.4,0 -0.6,0.3 -0.6,0.6 v 2.6 c 0,0.3 0.3,0.6 0.6,0.6 z"
   id="path6948" />
		<path
   fill="#ffffff"
   d="m 97.2,195.2 c 0.4,0 0.6,-0.3 0.6,-0.6 V 192 c 0,-0.4 -0.3,-0.6 -0.6,-0.6 -0.4,0 -0.6,0.3 -0.6,0.6 v 2.6 c 0,0.3 0.2,0.6 0.6,0.6 z"
   id="path6950" />
		<path
   fill="#ffffff"
   d="m 99.7,195.2 c 0.4,0 0.6,-0.3 0.6,-0.6 V 192 c 0,-0.4 -0.3,-0.6 -0.6,-0.6 -0.4,0 -0.6,0.3 -0.6,0.6 v 2.6 c 0,0.3 0.3,0.6 0.6,0.6 z"
   id="path6952" />
	</g><g
   id="Devices__x2B__Hardware_Expanded_AQ">
		<g
   id="g6966">
			<path
   fill="#3e4044"
   d="m 95.4,81.6 v 7.8 h 7.8 v -7.8 z m 7.1,7.1 H 96 v -6.4 h 6.4 v 6.4 z"
   id="path6956" />
			<path
   fill="#3e4044"
   d="m 92.3,85.8 h 2.4 v -0.7 h -2.4 c -0.2,-1.1 -1.1,-2 -2.3,-2 -1.3,0 -2.4,1.1 -2.4,2.4 0,1.3 1.1,2.4 2.4,2.4 1.2,-0.1 2.2,-1 2.3,-2.1 z m -4,-0.3 c 0,-0.9 0.8,-1.7 1.7,-1.7 0.9,0 1.7,0.8 1.7,1.7 0,0.9 -0.8,1.7 -1.7,1.7 -0.9,0 -1.7,-0.8 -1.7,-1.7 z"
   id="path6958" />
			<polygon
   fill="#3e4044"
   points="106.6,79.3 106.6,91.2 86.1,91.2 86.1,91.8 107.2,91.8 107.2,78.6 86.1,78.6 86.1,79.3 "
   id="polygon6960" />
			<path
   fill="#3e4044"
   d="m 82,94.5 h 3.3 V 76 H 82 Z m 0.7,-17.8 h 2 v 17.2 h -2 z"
   id="path6962" />
			<polygon
   fill="#3e4044"
   points="102.2,92.5 101.6,92.5 101.6,94.2 100.2,94.2 100.2,92.5 99.5,92.5 99.5,94.2 98.1,94.2 98.1,92.5 97.4,92.5 97.4,94.2 96,94.2 96,92.5 95.4,92.5 95.4,94.2 93.8,94.2 93.8,92.5 93.1,92.5 93.1,94.9 104.5,94.9 104.5,92.5 103.9,92.5 103.9,94.2 102.2,94.2 "
   id="polygon6964" />
		</g>
	</g><rect
   x="74.099998"
   y="31.200001"
   fill="none"
   stroke="#006ea4"
   stroke-width="2"
   stroke-miterlimit="10"
   width="41"
   height="41"
   id="rect6969" /><text
   id="text102_1_"
   fill="#006ea4"
   font-family="'Metropolis-Regular'"
   font-size="12px"
   style="font-style:normal;font-variant:normal;font-weight:normal;font-stretch:normal;font-family:Metropolis;-inkscape-font-specification:Metropolis"
   x="84.882401"
   y="55.062302">VM</text><line
   fill="none"
   stroke="#3e4044"
   stroke-width="2"
   stroke-miterlimit="10"
   x1="94.699997"
   y1="99.199997"
   x2="94.699997"
   y2="183.7"
   id="line6972" /><g
   id="g6996">
		<path
   fill="#3e4044"
   d="m 180.3,205.7 h -18 c -1.2,0 -2.2,-1 -2.2,-2.2 v -15.3 c 0,-1.2 1,-2.2 2.2,-2.2 h 18 c 1.2,0 2.2,1 2.2,2.2 v 15.3 c 0,1.3 -1,2.2 -2.2,2.2 z"
   id="path6974" />
		<path
   fill="#ffffff"
   d="m 162.3,186.6 c -0.9,0 -1.6,0.7 -1.6,1.6 v 15.3 c 0,0.9 0.7,1.6 1.6,1.6 h 18 c 0.9,0 1.6,-0.7 1.6,-1.6 v -15.3 c 0,-0.9 -0.7,-1.6 -1.6,-1.6 z"
   id="path6976" />
		<path
   fill="#3e4044"
   d="m 180.3,204.3 h -18 c -0.4,0 -0.8,-0.3 -0.8,-0.8 v -15.3 c 0,-0.4 0.3,-0.8 0.8,-0.8 h 18 c 0.4,0 0.8,0.3 0.8,0.8 v 15.3 c 0,0.5 -0.4,0.8 -0.8,0.8 z m -18,-16.6 c -0.3,0 -0.5,0.2 -0.5,0.5 v 15.3 c 0,0.3 0.2,0.5 0.5,0.5 h 18 c 0.3,0 0.5,-0.2 0.5,-0.5 v -15.3 c 0,-0.3 -0.2,-0.5 -0.5,-0.5 z"
   id="path6978" />
		<path
   fill="#3e4044"
   d="m 179,188.8 h -15.3 c -0.4,0 -0.6,0.3 -0.6,0.6 v 7.7 c 0,0.4 0.3,0.6 0.6,0.6 h 0.6 v 1.9 c 0,0.4 0.3,0.6 0.6,0.6 h 1.9 v 1.9 c 0,0.4 0.3,0.6 0.6,0.6 h 7.7 c 0.4,0 0.6,-0.3 0.6,-0.6 v -1.9 h 1.9 c 0.4,0 0.6,-0.3 0.6,-0.6 v -1.9 h 0.6 c 0.4,0 0.6,-0.3 0.6,-0.6 v -7.7 c 0.2,-0.3 -0.1,-0.6 -0.4,-0.6 z"
   id="path6980" />
		<path
   fill="#3e4044"
   d="m 164.9,201.6 h -1.3 c -0.4,0 -0.6,0.3 -0.6,0.6 0,0.4 0.3,0.6 0.6,0.6 h 1.3 c 0.4,0 0.6,-0.3 0.6,-0.6 0.1,-0.3 -0.2,-0.6 -0.6,-0.6 z"
   id="path6982" />
		<path
   fill="#3e4044"
   d="m 179,201.6 h -1.3 c -0.4,0 -0.6,0.3 -0.6,0.6 0,0.4 0.3,0.6 0.6,0.6 h 1.3 c 0.4,0 0.6,-0.3 0.6,-0.6 0,-0.3 -0.3,-0.6 -0.6,-0.6 z"
   id="path6984" />
		<path
   fill="#ffffff"
   d="m 166.2,195.2 c 0.4,0 0.6,-0.3 0.6,-0.6 V 192 c 0,-0.4 -0.3,-0.6 -0.6,-0.6 -0.3,0 -0.6,0.3 -0.6,0.6 v 2.6 c 0,0.3 0.2,0.6 0.6,0.6 z"
   id="path6986" />
		<path
   fill="#ffffff"
   d="m 168.7,195.2 c 0.4,0 0.6,-0.3 0.6,-0.6 V 192 c 0,-0.4 -0.3,-0.6 -0.6,-0.6 -0.3,0 -0.6,0.3 -0.6,0.6 v 2.6 c 0,0.3 0.3,0.6 0.6,0.6 z"
   id="path6988" />
		<path
   fill="#ffffff"
   d="m 171.3,195.2 c 0.4,0 0.6,-0.3 0.6,-0.6 V 192 c 0,-0.4 -0.3,-0.6 -0.6,-0.6 -0.3,0 -0.6,0.3 -0.6,0.6 v 2.6 c 0,0.3 0.3,0.6 0.6,0.6 z"
   id="path6990" />
		<path
   fill="#ffffff"
   d="m 173.9,195.2 c 0.4,0 0.6,-0.3 0.6,-0.6 V 192 c 0,-0.4 -0.3,-0.6 -0.6,-0.6 -0.3,0 -0.6,0.3 -0.6,0.6 v 2.6 c -0.1,0.3 0.2,0.6 0.6,0.6 z"
   id="path6992" />
		<path
   fill="#ffffff"
   d="m 176.4,195.2 c 0.4,0 0.6,-0.3 0.6,-0.6 V 192 c 0,-0.4 -0.3,-0.6 -0.6,-0.6 -0.4,0 -0.6,0.3 -0.6,0.6 v 2.6 c 0,0.3 0.3,0.6 0.6,0.6 z"
   id="path6994" />
	</g><g
   id="Devices__x2B__Hardware_Expanded_AQ_1_">
		<g
   id="g7008">
			<path
   fill="#3e4044"
   d="m 172,81.6 v 7.8 h 7.8 v -7.8 z m 7.1,7.1 h -6.4 v -6.4 h 6.4 z"
   id="path6998" />
			<path
   fill="#3e4044"
   d="m 169,85.8 h 2.4 V 85.1 H 169 c -0.2,-1.1 -1.1,-2 -2.3,-2 -1.3,0 -2.4,1.1 -2.4,2.4 0,1.3 1.1,2.4 2.4,2.4 1.2,-0.1 2.2,-1 2.3,-2.1 z m -4,-0.3 c 0,-0.9 0.8,-1.7 1.7,-1.7 0.9,0 1.7,0.8 1.7,1.7 0,0.9 -0.8,1.7 -1.7,1.7 -0.9,0 -1.7,-0.8 -1.7,-1.7 z"
   id="path7000" />
			<polygon
   fill="#3e4044"
   points="183.2,79.3 183.2,91.2 162.8,91.2 162.8,91.8 183.9,91.8 183.9,78.6 162.8,78.6 162.8,79.3 "
   id="polygon7002" />
			<path
   fill="#3e4044"
   d="M 158.7,94.5 H 162 V 76 h -3.3 z m 0.7,-17.8 h 2 v 17.2 h -2 z"
   id="path7004" />
			<polygon
   fill="#3e4044"
   points="178.9,92.5 178.2,92.5 178.2,94.2 176.8,94.2 176.8,92.5 176.2,92.5 176.2,94.2 174.8,94.2 174.8,92.5 174.1,92.5 174.1,94.2 172.7,94.2 172.7,92.5 172,92.5 172,94.2 170.5,94.2 170.5,92.5 169.8,92.5 169.8,94.9 181.2,94.9 181.2,92.5 180.5,92.5 180.5,94.2 178.9,94.2 "
   id="polygon7006" />
		</g>
	</g><rect
   x="150.8"
   y="31.200001"
   fill="none"
   stroke="#006ea4"
   stroke-width="2"
   stroke-miterlimit="10"
   width="41"
   height="41"
   id="rect7011" /><text
   id="text102_2_"
   fill="#006ea4"
   font-family="'Metropolis-Regular'"
   font-size="12px"
   style="font-style:normal;font-variant:normal;font-weight:normal;font-stretch:normal;font-family:Metropolis;-inkscape-font-specification:Metropolis"
   x="161.56171"
   y="55.062302">VM</text><line
   fill="none"
   stroke="#3e4044"
   stroke-width="2"
   stroke-miterlimit="10"
   x1="171.39999"
   y1="99.199997"
   x2="171.39999"
   y2="183.7"
   id="line7014" />
<rect
   id="rect7018"
   height="48.9"
   width="141.8"
   fill="#78BE43"
   y="195.9"
   x="241.9" />
<text
   enable-background="new    "
   id="text2344_13_"
   style="font-style:normal;font-variant:normal;font-weight:normal;font-stretch:normal;font-size:14px;font-family:Metropolis;-inkscape-font-specification:'Metropolis, Normal';font-variant-ligatures:normal;font-variant-caps:normal;font-variant-numeric:normal;font-variant-east-asian:normal;fill:#ffffff;"
   x="295.42599"
   y="222.5786"><tspan
     sodipodi:role="line"
     id="tspan4002"
     x="295.42599"
     y="222.5786">Sales</tspan></text>
<g
   id="g7047">
	<path
   id="path7025"
   d="M283.5,205.7h-18c-1.2,0-2.2-1-2.2-2.2v-15.3c0-1.2,1-2.2,2.2-2.2h18c1.2,0,2.2,1,2.2,2.2v15.3   C285.7,204.8,284.7,205.7,283.5,205.7z"
   fill="#3E4044" />
	<path
   id="path7027"
   d="M265.5,186.6c-0.9,0-1.6,0.7-1.6,1.6v15.3c0,0.9,0.7,1.6,1.6,1.6h18c0.9,0,1.6-0.7,1.6-1.6v-15.3   c0-0.9-0.7-1.6-1.6-1.6H265.5z"
   fill="#FFFFFF" />
	<path
   id="path7029"
   d="M283.5,204.3h-18c-0.4,0-0.8-0.3-0.8-0.8v-15.3c0-0.4,0.3-0.8,0.8-0.8h18c0.4,0,0.8,0.3,0.8,0.8v15.3   C284.2,204,283.9,204.3,283.5,204.3z M265.5,187.7c-0.3,0-0.5,0.2-0.5,0.5v15.3c0,0.3,0.2,0.5,0.5,0.5h18c0.3,0,0.5-0.2,0.5-0.5   v-15.3c0-0.3-0.2-0.5-0.5-0.5H265.5z"
   fill="#3E4044" />
	<path
   id="path7031"
   d="M282.1,188.8h-15.3c-0.4,0-0.6,0.3-0.6,0.6v7.7c0,0.4,0.3,0.6,0.6,0.6h0.6v1.9c0,0.4,0.3,0.6,0.6,0.6h1.9   v1.9c0,0.4,0.3,0.6,0.6,0.6h7.7c0.4,0,0.6-0.3,0.6-0.6v-1.9h1.9c0.4,0,0.6-0.3,0.6-0.6v-1.9h0.6c0.4,0,0.6-0.3,0.6-0.6v-7.7   C282.8,189.1,282.5,188.8,282.1,188.8z"
   fill="#3E4044" />
	<path
   id="path7033"
   d="M268.1,201.6h-1.3c-0.4,0-0.6,0.3-0.6,0.6c0,0.4,0.3,0.6,0.6,0.6h1.3c0.4,0,0.6-0.3,0.6-0.6   C268.7,201.9,268.4,201.6,268.1,201.6z"
   fill="#3E4044" />
	<path
   id="path7035"
   d="M282.1,201.6h-1.3c-0.4,0-0.6,0.3-0.6,0.6c0,0.4,0.3,0.6,0.6,0.6h1.3c0.4,0,0.6-0.3,0.6-0.6   C282.8,201.9,282.5,201.6,282.1,201.6z"
   fill="#3E4044" />
	<path
   id="path7037"
   d="M269.4,195.2c0.4,0,0.6-0.3,0.6-0.6V192c0-0.4-0.3-0.6-0.6-0.6s-0.6,0.3-0.6,0.6v2.6   C268.7,194.9,269,195.2,269.4,195.2z"
   fill="#FFFFFF" />
	<path
   id="path7039"
   d="M271.9,195.2c0.4,0,0.6-0.3,0.6-0.6V192c0-0.4-0.3-0.6-0.6-0.6c-0.4,0-0.6,0.3-0.6,0.6v2.6   C271.3,194.9,271.6,195.2,271.9,195.2z"
   fill="#FFFFFF" />
	<path
   id="path7041"
   d="M274.5,195.2c0.4,0,0.6-0.3,0.6-0.6V192c0-0.4-0.3-0.6-0.6-0.6s-0.6,0.3-0.6,0.6v2.6   C273.8,194.9,274.1,195.2,274.5,195.2z"
   fill="#FFFFFF" />
	<path
   id="path7043"
   d="M277,195.2c0.4,0,0.6-0.3,0.6-0.6V192c0-0.4-0.3-0.6-0.6-0.6c-0.4,0-0.6,0.3-0.6,0.6v2.6   C276.4,194.9,276.7,195.2,277,195.2z"
   fill="#FFFFFF" />
	<path
   id="path7045"
   d="M279.6,195.2c0.4,0,0.6-0.3,0.6-0.6V192c0-0.4-0.3-0.6-0.6-0.6c-0.4,0-0.6,0.3-0.6,0.6v2.6   C278.9,194.9,279.2,195.2,279.6,195.2z"
   fill="#FFFFFF" />
</g>
<g
   id="Devices__x2B__Hardware_Expanded_AQ_3_">
	<g
   id="g7059">
		<path
   id="path7049"
   d="M275.2,81.6v7.8h7.8v-7.8H275.2z M282.3,88.7h-6.4v-6.4h6.4V88.7z"
   fill="#3E4044" />
		<path
   id="path7051"
   d="M272.2,85.8h2.4v-0.7h-2.4c-0.2-1.1-1.1-2-2.3-2c-1.3,0-2.4,1.1-2.4,2.4s1.1,2.4,2.4,2.4    C271,87.8,272,86.9,272.2,85.8z M268.2,85.5c0-0.9,0.8-1.7,1.7-1.7c0.9,0,1.7,0.8,1.7,1.7c0,0.9-0.8,1.7-1.7,1.7    C268.9,87.2,268.2,86.4,268.2,85.5z"
   fill="#3E4044" />
		<polygon
   id="polygon7053"
   points="265.9,78.6 265.9,79.3 286.4,79.3 286.4,91.2 265.9,91.2 265.9,91.8 287,91.8 287,78.6   "
   fill="#3E4044" />
		<path
   id="path7055"
   d="M261.9,94.5h3.3V76h-3.3V94.5z M262.5,76.7h2v17.2h-2V76.7z"
   fill="#3E4044" />
		<polygon
   id="polygon7057"
   points="283.7,94.2 282.1,94.2 282.1,92.5 281.4,92.5 281.4,94.2 280,94.2 280,92.5 279.3,92.5     279.3,94.2 277.9,94.2 277.9,92.5 277.3,92.5 277.3,94.2 275.8,94.2 275.8,92.5 275.2,92.5 275.2,94.2 273.6,94.2 273.6,92.5     272.9,92.5 272.9,94.9 284.4,94.9 284.4,92.5 283.7,92.5   "
   fill="#3E4044" />
	</g>
</g>
<rect
   id="rect7062"
   height="41"
   width="41"
   stroke-miterlimit="10"
   stroke-width="2"
   stroke="#006EA4"
   fill="none"
   y="31.2"
   x="254" />
<text
   style="-inkscape-font-specification:Metropolis;font-family:Metropolis;font-weight:normal;font-style:normal;font-stretch:normal;font-variant:normal;"
   font-size="12px"
   font-family="'Metropolis-Regular'"
   fill="#006EA4"
   transform="matrix(1 0 0 1 264.7096 55.0623)"
   id="text102_4_">VM</text>
<line
   id="line7065"
   y2="183.7"
   x2="274.5"
   y1="99.2"
   x1="274.5"
   stroke-miterlimit="10"
   stroke-width="2"
   stroke="#3E4044"
   fill="none" />
<g
   id="g7089">
	<path
   id="path7067"
   d="M360.1,205.7h-18c-1.2,0-2.2-1-2.2-2.2v-15.3c0-1.2,1-2.2,2.2-2.2h18c1.2,0,2.2,1,2.2,2.2v15.3   C362.4,204.8,361.4,205.7,360.1,205.7z"
   fill="#3E4044" />
	<path
   id="path7069"
   d="M342.1,186.6c-0.9,0-1.6,0.7-1.6,1.6v15.3c0,0.9,0.7,1.6,1.6,1.6h18c0.9,0,1.6-0.7,1.6-1.6v-15.3   c0-0.9-0.7-1.6-1.6-1.6H342.1z"
   fill="#FFFFFF" />
	<path
   id="path7071"
   d="M360.1,204.3h-18c-0.4,0-0.8-0.3-0.8-0.8v-15.3c0-0.4,0.3-0.8,0.8-0.8h18c0.4,0,0.8,0.3,0.8,0.8v15.3   C360.9,204,360.6,204.3,360.1,204.3z M342.1,187.7c-0.3,0-0.5,0.2-0.5,0.5v15.3c0,0.3,0.2,0.5,0.5,0.5h18c0.3,0,0.5-0.2,0.5-0.5   v-15.3c0-0.3-0.2-0.5-0.5-0.5H342.1z"
   fill="#3E4044" />
	<path
   id="path7073"
   d="M358.8,188.8h-15.3c-0.4,0-0.6,0.3-0.6,0.6v7.7c0,0.4,0.3,0.6,0.6,0.6h0.6v1.9c0,0.4,0.3,0.6,0.6,0.6h1.9   v1.9c0,0.4,0.3,0.6,0.6,0.6h7.7c0.4,0,0.6-0.3,0.6-0.6v-1.9h1.9c0.4,0,0.6-0.3,0.6-0.6v-1.9h0.6c0.4,0,0.6-0.3,0.6-0.6v-7.7   C359.5,189.1,359.2,188.8,358.8,188.8z"
   fill="#3E4044" />
	<path
   id="path7075"
   d="M344.7,201.6h-1.3c-0.4,0-0.6,0.3-0.6,0.6c0,0.4,0.3,0.6,0.6,0.6h1.3c0.4,0,0.6-0.3,0.6-0.6   C345.4,201.9,345.1,201.6,344.7,201.6z"
   fill="#3E4044" />
	<path
   id="path7077"
   d="M358.8,201.6h-1.3c-0.4,0-0.6,0.3-0.6,0.6c0,0.4,0.3,0.6,0.6,0.6h1.3c0.4,0,0.6-0.3,0.6-0.6   C359.5,201.9,359.2,201.6,358.8,201.6z"
   fill="#3E4044" />
	<path
   id="path7079"
   d="M346,195.2c0.4,0,0.6-0.3,0.6-0.6V192c0-0.4-0.3-0.6-0.6-0.6s-0.6,0.3-0.6,0.6v2.6   C345.4,194.9,345.7,195.2,346,195.2z"
   fill="#FFFFFF" />
	<path
   id="path7081"
   d="M348.6,195.2c0.4,0,0.6-0.3,0.6-0.6V192c0-0.4-0.3-0.6-0.6-0.6c-0.4,0-0.6,0.3-0.6,0.6v2.6   C347.9,194.9,348.2,195.2,348.6,195.2z"
   fill="#FFFFFF" />
	<path
   id="path7083"
   d="M351.1,195.2c0.4,0,0.6-0.3,0.6-0.6V192c0-0.4-0.3-0.6-0.6-0.6s-0.6,0.3-0.6,0.6v2.6   C350.5,194.9,350.8,195.2,351.1,195.2z"
   fill="#FFFFFF" />
	<path
   id="path7085"
   d="M353.7,195.2c0.4,0,0.6-0.3,0.6-0.6V192c0-0.4-0.3-0.6-0.6-0.6c-0.4,0-0.6,0.3-0.6,0.6v2.6   C353.1,194.9,353.3,195.2,353.7,195.2z"
   fill="#FFFFFF" />
	<path
   id="path7087"
   d="M356.2,195.2c0.4,0,0.6-0.3,0.6-0.6V192c0-0.4-0.3-0.6-0.6-0.6c-0.4,0-0.6,0.3-0.6,0.6v2.6   C355.6,194.9,355.9,195.2,356.2,195.2z"
   fill="#FFFFFF" />
</g>
<g
   id="Devices__x2B__Hardware_Expanded_AQ_2_">
	<g
   id="g7101">
		<path
   id="path7091"
   d="M351.9,81.6v7.8h7.8v-7.8H351.9z M359,88.7h-6.4v-6.4h6.4V88.7z"
   fill="#3E4044" />
		<path
   id="path7093"
   d="M348.9,85.8h2.4v-0.7h-2.4c-0.2-1.1-1.1-2-2.3-2c-1.3,0-2.4,1.1-2.4,2.4s1.1,2.4,2.4,2.4    C347.7,87.8,348.7,86.9,348.9,85.8z M344.8,85.5c0-0.9,0.8-1.7,1.7-1.7c0.9,0,1.7,0.8,1.7,1.7c0,0.9-0.8,1.7-1.7,1.7    C345.6,87.2,344.8,86.4,344.8,85.5z"
   fill="#3E4044" />
		<polygon
   id="polygon7095"
   points="342.6,78.6 342.6,79.3 363.1,79.3 363.1,91.2 342.6,91.2 342.6,91.8 363.7,91.8 363.7,78.6   "
   fill="#3E4044" />
		<path
   id="path7097"
   d="M338.6,94.5h3.3V76h-3.3V94.5z M339.2,76.7h2v17.2h-2V76.7z"
   fill="#3E4044" />
		<polygon
   id="polygon7099"
   points="360.4,94.2 358.7,94.2 358.7,92.5 358.1,92.5 358.1,94.2 356.7,94.2 356.7,92.5 356,92.5     356,94.2 354.6,94.2 354.6,92.5 354,92.5 354,94.2 352.5,94.2 352.5,92.5 351.9,92.5 351.9,94.2 350.3,94.2 350.3,92.5     349.6,92.5 349.6,94.9 361,94.9 361,92.5 360.4,92.5   "
   fill="#3E4044" />
	</g>
</g>
<rect
   id="rect7104"
   height="41"
   width="41"
   stroke-miterlimit="10"
   stroke-width="2"
   stroke="#006EA4"
   fill="none"
   y="31.2"
   x="330.6" />
<text
   style="-inkscape-font-specification:Metropolis;font-family:Metropolis;font-weight:normal;font-style:normal;font-stretch:normal;font-variant:normal;"
   font-size="12px"
   font-family="'Metropolis-Regular'"
   fill="#006EA4"
   transform="matrix(1 0 0 1 341.3889 55.0623)"
   id="text102_3_">VM</text>
<line
   id="line7107"
   y2="183.7"
   x2="351.2"
   y1="99.2"
   x1="351.2"
   stroke-miterlimit="10"
   stroke-width="2"
   stroke="#3E4044"
   fill="none" />
<polyline
   id="polyline7109"
   points="105.9,331.5 210.6,421.6 210.6,475.8 "
   stroke-miterlimit="10"
   stroke-width="2"
   stroke="#000000"
   fill="none" />
<polyline
   id="polyline7111"
   points="161.2,331.5 245.2,421.6 245.2,475.8 "
   stroke-miterlimit="10"
   stroke-width="2"
   stroke="#000000"
   fill="none" />
<polyline
   id="polyline7113"
   points="285.9,329.2 279.8,421.6 279.8,475.8 "
   stroke-miterlimit="10"
   stroke-width="2"
   stroke="#000000"
   fill="none" />
<polyline
   id="polyline7115"
   points="340.7,329.2 315,421.6 315,475.8 "
   stroke-miterlimit="10"
   stroke-width="2"
   stroke="#000000"
   fill="none" />
<text
   xml:space="preserve"
   style="font-style:normal;font-variant:normal;font-weight:normal;font-stretch:normal;font-size:14px;line-height:1.25;font-family:Metropolis;-inkscape-font-specification:'Metropolis, Normal';font-variant-ligatures:normal;font-variant-caps:normal;font-variant-numeric:normal;font-variant-east-asian:normal;fill:#ffffff;fill-opacity:1;stroke:none"
   x="95.722176"
   y="237.96248"
   id="text3994"><tspan
     sodipodi:role="line"
     id="tspan4000"
     x="95.722176"
     y="237.96248">Port Group</tspan></text><text
   style="font-style:normal;font-variant:normal;font-weight:normal;font-stretch:normal;font-size:14px;font-family:Metropolis;-inkscape-font-specification:'Metropolis, Normal';font-variant-ligatures:normal;font-variant-caps:normal;font-variant-numeric:normal;font-variant-east-asian:normal;fill:#ffffff;"
   id="text2344_13_-5"
   enable-background="new    "
   x="275.12216"
   y="237.3279"><tspan
     sodipodi:role="line"
     id="tspan4022"
     x="275.12216"
     y="237.3279">Port Group</tspan></text><text
   y="146.05843"
   x="571.58575"
   id="text2344_2_-8"
   enable-background="new    "
   style="font-style:normal;font-variant:normal;font-weight:normal;font-stretch:normal;font-size:12px;font-family:sans-serif;-inkscape-font-specification:'sans-serif, Normal';font-variant-ligatures:normal;font-variant-caps:normal;font-variant-numeric:normal;font-variant-east-asian:normal"><tspan
     y="146.05843"
     x="571.58575"
     id="tspan1190"
     sodipodi:role="line">VMkernel Port</tspan></text></svg>
