<?xml version="1.0" encoding="utf-8"?>
<!-- Generator: Adobe Illustrator 23.0.4, SVG Export Plug-In . SVG Version: 6.00 Build 0)  -->
<svg version="1.1" id="Layer_1" xmlns="http://www.w3.org/2000/svg" xmlns:xlink="http://www.w3.org/1999/xlink" x="0px" y="0px"
	 viewBox="0 0 766.1 519.8" enable-background="new 0 0 766.1 519.8" xml:space="preserve">
<rect x="9.9" y="18.6" fill="#F2F2F2" stroke="#000000" stroke-miterlimit="10" width="648.6" height="494.3"/>
<rect x="29.7" y="48.4" fill="#FFFFFF" stroke="#000000" stroke-miterlimit="10" width="608.9" height="218.1"/>
<rect x="29.7" y="290.2" fill="#FFFFFF" stroke="#000000" stroke-miterlimit="10" width="284.6" height="184.5"/>
<rect x="354" y="290.2" fill="#FFFFFF" stroke="#000000" stroke-miterlimit="10" width="284.6" height="184.5"/>
<text transform="matrix(1 0 0 1 51.4838 89.7754)" font-family="'Metropolis-Regular'" font-size="14px">Web Tier</text>
<text transform="matrix(1 0 0 1 53.4016 161.9771)" font-family="'Metropolis-Regular'" font-size="14px">App Tier</text>
<text transform="matrix(1 0 0 1 57.1746 234.1792)" font-family="'Metropolis-Regular'" font-size="14px">DB Tier</text>
<text transform="matrix(1 0 0 1 29.279 500.7981)" font-family="'Metropolis-Regular'" font-size="14px">Network Perimeter</text>
<g>
	<polygon fill="#78BE20" points="296.1,106.3 260.9,106.3 260.9,65.3 302,65.3 302,106 300.9,106 300.9,66.3 262,66.3 262,105.3 
		296.1,105.3 	"/>
	<g>
		<path fill="#78BE20" d="M273.3,83.4h0.9l1.9,4.6l1.8-4.6h0.9l-2.3,5.6h-0.8L273.3,83.4z"/>
		<path fill="#78BE20" d="M288.5,85.4V89h-0.8v-3.4c0-0.9-0.5-1.5-1.3-1.5c-0.9,0-1.5,0.6-1.5,1.4v3.6h-0.8v-3.4
			c0-0.9-0.5-1.5-1.3-1.5c-0.9,0-1.5,0.6-1.5,1.4v3.6h-0.9v-5.6h0.8v0.8c0.3-0.6,0.9-1,1.6-1c0.8,0,1.5,0.5,1.8,1.2
			c0.2-0.7,1-1.2,1.8-1.2C287.6,83.2,288.5,84.1,288.5,85.4z"/>
	</g>
</g>
<g>
	<polygon fill="#78BE20" points="400.4,106.3 365.2,106.3 365.2,65.3 406.2,65.3 406.2,106 405.2,106 405.2,66.3 366.3,66.3 
		366.3,105.3 400.4,105.3 	"/>
	<g>
		<path fill="#78BE20" d="M377.5,83.4h0.9l1.9,4.6l1.8-4.6h0.9l-2.3,5.6h-0.8L377.5,83.4z"/>
		<path fill="#78BE20" d="M392.7,85.4V89h-0.8v-3.4c0-0.9-0.5-1.5-1.3-1.5c-0.9,0-1.5,0.6-1.5,1.4v3.6h-0.8v-3.4
			c0-0.9-0.5-1.5-1.3-1.5c-0.9,0-1.5,0.6-1.5,1.4v3.6h-0.8v-5.6h0.8v0.8c0.3-0.6,0.9-1,1.6-1c0.8,0,1.5,0.5,1.8,1.2
			c0.2-0.7,1-1.2,1.8-1.2C391.9,83.2,392.7,84.1,392.7,85.4z"/>
	</g>
</g>
<g>
	<polygon fill="#78BE20" points="504.7,106.3 469.4,106.3 469.4,65.3 510.5,65.3 510.5,106 509.4,106 509.4,66.3 470.5,66.3 
		470.5,105.3 504.7,105.3 	"/>
	<g>
		<path fill="#78BE20" d="M481.8,83.4h0.9l1.9,4.6l1.8-4.6h0.9L485,89h-0.8L481.8,83.4z"/>
		<path fill="#78BE20" d="M497,85.4V89h-0.8v-3.4c0-0.9-0.5-1.5-1.3-1.5c-0.9,0-1.5,0.6-1.5,1.4v3.6h-0.8v-3.4
			c0-0.9-0.5-1.5-1.3-1.5c-0.9,0-1.5,0.6-1.5,1.4v3.6H489v-5.6h0.8v0.8c0.3-0.6,0.9-1,1.6-1c0.8,0,1.5,0.5,1.8,1.2
			c0.2-0.7,1-1.2,1.8-1.2C496.2,83.2,497,84.1,497,85.4z"/>
	</g>
</g>
<g>
	<polygon fill="#78BE20" points="608.9,106.3 573.7,106.3 573.7,65.3 614.8,65.3 614.8,106 613.7,106 613.7,66.3 574.8,66.3 
		574.8,105.3 608.9,105.3 	"/>
	<g>
		<path fill="#78BE20" d="M586,83.4h0.9l1.9,4.6l1.8-4.6h0.9l-2.3,5.6h-0.8L586,83.4z"/>
		<path fill="#78BE20" d="M601.2,85.4V89h-0.8v-3.4c0-0.9-0.5-1.5-1.3-1.5c-0.9,0-1.5,0.6-1.5,1.4v3.6h-0.8v-3.4
			c0-0.9-0.5-1.5-1.3-1.5c-0.9,0-1.5,0.6-1.5,1.4v3.6h-0.8v-5.6h0.8v0.8c0.3-0.6,0.9-1,1.6-1c0.8,0,1.5,0.5,1.8,1.2
			c0.2-0.7,1-1.2,1.8-1.2C600.4,83.2,601.2,84.1,601.2,85.4z"/>
	</g>
</g>
<g>
	<polygon fill="#0091DA" points="296.1,178.5 260.9,178.5 260.9,137.5 302,137.5 302,178.2 300.9,178.2 300.9,138.5 262,138.5 
		262,177.5 296.1,177.5 	"/>
	<g>
		<path fill="#0091DA" d="M273.3,155.6h0.9l1.9,4.6l1.8-4.6h0.9l-2.3,5.6h-0.8L273.3,155.6z"/>
		<path fill="#0091DA" d="M288.5,157.6v3.6h-0.8v-3.4c0-0.9-0.5-1.5-1.3-1.5c-0.9,0-1.5,0.6-1.5,1.4v3.6h-0.8v-3.4
			c0-0.9-0.5-1.5-1.3-1.5c-0.9,0-1.5,0.6-1.5,1.4v3.6h-0.9v-5.6h0.8v0.8c0.3-0.6,0.9-1,1.6-1c0.8,0,1.5,0.5,1.8,1.2
			c0.2-0.7,1-1.2,1.8-1.2C287.6,155.4,288.5,156.3,288.5,157.6z"/>
	</g>
</g>
<g>
	<polygon fill="#0091DA" points="400.4,178.5 365.2,178.5 365.2,137.5 406.2,137.5 406.2,178.2 405.2,178.2 405.2,138.5 
		366.3,138.5 366.3,177.5 400.4,177.5 	"/>
	<g>
		<path fill="#0091DA" d="M377.5,155.6h0.9l1.9,4.6l1.8-4.6h0.9l-2.3,5.6h-0.8L377.5,155.6z"/>
		<path fill="#0091DA" d="M392.7,157.6v3.6h-0.8v-3.4c0-0.9-0.5-1.5-1.3-1.5c-0.9,0-1.5,0.6-1.5,1.4v3.6h-0.8v-3.4
			c0-0.9-0.5-1.5-1.3-1.5c-0.9,0-1.5,0.6-1.5,1.4v3.6h-0.8v-5.6h0.8v0.8c0.3-0.6,0.9-1,1.6-1c0.8,0,1.5,0.5,1.8,1.2
			c0.2-0.7,1-1.2,1.8-1.2C391.9,155.4,392.7,156.3,392.7,157.6z"/>
	</g>
</g>
<g>
	<polygon fill="#0091DA" points="504.7,178.5 469.4,178.5 469.4,137.5 510.5,137.5 510.5,178.2 509.4,178.2 509.4,138.5 
		470.5,138.5 470.5,177.5 504.7,177.5 	"/>
	<g>
		<path fill="#0091DA" d="M481.8,155.6h0.9l1.9,4.6l1.8-4.6h0.9l-2.3,5.6h-0.8L481.8,155.6z"/>
		<path fill="#0091DA" d="M497,157.6v3.6h-0.8v-3.4c0-0.9-0.5-1.5-1.3-1.5c-0.9,0-1.5,0.6-1.5,1.4v3.6h-0.8v-3.4
			c0-0.9-0.5-1.5-1.3-1.5c-0.9,0-1.5,0.6-1.5,1.4v3.6H489v-5.6h0.8v0.8c0.3-0.6,0.9-1,1.6-1c0.8,0,1.5,0.5,1.8,1.2
			c0.2-0.7,1-1.2,1.8-1.2C496.2,155.4,497,156.3,497,157.6z"/>
	</g>
</g>
<g>
	<polygon fill="#0091DA" points="608.9,178.5 573.7,178.5 573.7,137.5 614.8,137.5 614.8,178.2 613.7,178.2 613.7,138.5 
		574.8,138.5 574.8,177.5 608.9,177.5 	"/>
	<g>
		<path fill="#0091DA" d="M586,155.6h0.9l1.9,4.6l1.8-4.6h0.9l-2.3,5.6h-0.8L586,155.6z"/>
		<path fill="#0091DA" d="M601.2,157.6v3.6h-0.8v-3.4c0-0.9-0.5-1.5-1.3-1.5c-0.9,0-1.5,0.6-1.5,1.4v3.6h-0.8v-3.4
			c0-0.9-0.5-1.5-1.3-1.5c-0.9,0-1.5,0.6-1.5,1.4v3.6h-0.8v-5.6h0.8v0.8c0.3-0.6,0.9-1,1.6-1c0.8,0,1.5,0.5,1.8,1.2
			c0.2-0.7,1-1.2,1.8-1.2C600.4,155.4,601.2,156.3,601.2,157.6z"/>
	</g>
</g>
<g>
	<polygon fill="#00C1D5" points="296.1,250.7 260.9,250.7 260.9,209.7 302,209.7 302,250.4 300.9,250.4 300.9,210.7 262,210.7 
		262,249.7 296.1,249.7 	"/>
	<g>
		<path fill="#00C1D5" d="M273.3,227.8h0.9l1.9,4.6l1.8-4.6h0.9l-2.3,5.6h-0.8L273.3,227.8z"/>
		<path fill="#00C1D5" d="M288.5,229.8v3.6h-0.8V230c0-0.9-0.5-1.5-1.3-1.5c-0.9,0-1.5,0.6-1.5,1.4v3.6h-0.8v-3.4
			c0-0.9-0.5-1.5-1.3-1.5c-0.9,0-1.5,0.6-1.5,1.4v3.6h-0.9v-5.8h0.8v0.8c0.3-0.6,0.9-1,1.6-1c0.8,0,1.5,0.5,1.8,1.2
			c0.2-0.7,1-1.2,1.8-1.2C287.6,227.6,288.5,228.5,288.5,229.8z"/>
	</g>
</g>
<g>
	<text transform="matrix(1 0 0 1 63.8366 382.4495)" font-family="'Metropolis-Regular'" font-size="14px">Shared</text>
	<text transform="matrix(1 0 0 1 59.8366 399.2495)" font-family="'Metropolis-Regular'" font-size="14px">Services</text>
	<g>
		<g>
			<polygon fill="#717074" points="212.7,374.9 177.5,374.9 177.5,333.8 218.5,333.8 218.5,374.6 217.4,374.6 217.4,334.9 
				178.5,334.9 178.5,373.8 212.7,373.8 			"/>
			<g>
				<path fill="#717074" d="M189.8,351.9h0.9l1.9,4.6l1.8-4.6h0.9l-2.3,5.6h-0.8L189.8,351.9z"/>
				<path fill="#717074" d="M205,354v3.6h-0.8v-3.4c0-0.9-0.5-1.5-1.3-1.5c-0.9,0-1.5,0.6-1.5,1.4v3.6h-0.8v-3.4
					c0-0.9-0.5-1.5-1.3-1.5c-0.9,0-1.5,0.6-1.5,1.4v3.6H197v-5.6h0.8v0.8c0.3-0.6,0.9-1,1.6-1c0.8,0,1.5,0.5,1.8,1.2
					c0.2-0.7,1-1.2,1.8-1.2C204.2,351.8,205,352.7,205,354z"/>
			</g>
		</g>
		<g>
			<polygon fill="#717074" points="278.3,374.9 243.1,374.9 243.1,333.8 284.2,333.8 284.2,374.6 283.1,374.6 283.1,334.9 
				244.2,334.9 244.2,373.8 278.3,373.8 			"/>
			<g>
				<path fill="#717074" d="M255.4,351.9h0.9l1.9,4.6l1.8-4.6h0.9l-2.3,5.6h-0.8L255.4,351.9z"/>
				<path fill="#717074" d="M270.6,354v3.6h-0.8v-3.4c0-0.9-0.5-1.5-1.3-1.5c-0.9,0-1.5,0.6-1.5,1.4v3.6h-0.8v-3.4
					c0-0.9-0.5-1.5-1.3-1.5c-0.9,0-1.5,0.6-1.5,1.4v3.6h-0.8v-5.6h0.8v0.8c0.3-0.6,0.9-1,1.6-1c0.8,0,1.5,0.5,1.8,1.2
					c0.2-0.7,1-1.2,1.8-1.2C269.8,351.8,270.6,352.7,270.6,354z"/>
			</g>
		</g>
		<g>
			<polygon fill="#717074" points="212.7,431.1 177.5,431.1 177.5,390 218.5,390 218.5,430.7 217.4,430.7 217.4,391.1 178.5,391.1 
				178.5,430 212.7,430 			"/>
			<g>
				<path fill="#717074" d="M189.8,408.1h0.9l1.9,4.6l1.8-4.6h0.9l-2.3,5.6h-0.8L189.8,408.1z"/>
				<path fill="#717074" d="M205,410.1v3.6h-0.8v-3.4c0-0.9-0.5-1.5-1.3-1.5c-0.9,0-1.5,0.6-1.5,1.4v3.6h-0.8v-3.4
					c0-0.9-0.5-1.5-1.3-1.5c-0.9,0-1.5,0.6-1.5,1.4v3.6H197v-5.6h0.8v0.8c0.3-0.6,0.9-1,1.6-1c0.8,0,1.5,0.5,1.8,1.2
					c0.2-0.7,1-1.2,1.8-1.2C204.2,408,205,408.9,205,410.1z"/>
			</g>
		</g>
		<g>
			<polygon fill="#717074" points="278.3,431.1 243.1,431.1 243.1,390 284.2,390 284.2,430.7 283.1,430.7 283.1,391.1 244.2,391.1 
				244.2,430 278.3,430 			"/>
			<g>
				<path fill="#717074" d="M255.4,408.1h0.9l1.9,4.6l1.8-4.6h0.9l-2.3,5.6h-0.8L255.4,408.1z"/>
				<path fill="#717074" d="M270.6,410.1v3.6h-0.8v-3.4c0-0.9-0.5-1.5-1.3-1.5c-0.9,0-1.5,0.6-1.5,1.4v3.6h-0.8v-3.4
					c0-0.9-0.5-1.5-1.3-1.5c-0.9,0-1.5,0.6-1.5,1.4v3.6h-0.8v-5.6h0.8v0.8c0.3-0.6,0.9-1,1.6-1c0.8,0,1.5,0.5,1.8,1.2
					c0.2-0.7,1-1.2,1.8-1.2C269.8,408,270.6,408.9,270.6,410.1z"/>
			</g>
		</g>
	</g>
</g>
<g>
	<polygon fill="#00C1D5" points="400.4,250.7 365.2,250.7 365.2,209.7 406.2,209.7 406.2,250.4 405.2,250.4 405.2,210.7 
		366.3,210.7 366.3,249.7 400.4,249.7 	"/>
	<g>
		<path fill="#00C1D5" d="M377.5,227.8h0.9l1.9,4.6l1.8-4.6h0.9l-2.3,5.6h-0.8L377.5,227.8z"/>
		<path fill="#00C1D5" d="M392.7,229.8v3.6h-0.8V230c0-0.9-0.5-1.5-1.3-1.5c-0.9,0-1.5,0.6-1.5,1.4v3.6h-0.8v-3.4
			c0-0.9-0.5-1.5-1.3-1.5c-0.9,0-1.5,0.6-1.5,1.4v3.6h-0.8v-5.8h0.8v0.8c0.3-0.6,0.9-1,1.6-1c0.8,0,1.5,0.5,1.8,1.2
			c0.2-0.7,1-1.2,1.8-1.2C391.9,227.6,392.7,228.5,392.7,229.8z"/>
	</g>
</g>
<g>
	<polygon fill="#00C1D5" points="504.7,250.7 469.4,250.7 469.4,209.7 510.5,209.7 510.5,250.4 509.4,250.4 509.4,210.7 
		470.5,210.7 470.5,249.7 504.7,249.7 	"/>
	<g>
		<path fill="#00C1D5" d="M481.8,227.8h0.9l1.9,4.6l1.8-4.6h0.9l-2.3,5.6h-0.8L481.8,227.8z"/>
		<path fill="#00C1D5" d="M497,229.8v3.6h-0.8V230c0-0.9-0.5-1.5-1.3-1.5c-0.9,0-1.5,0.6-1.5,1.4v3.6h-0.8v-3.4
			c0-0.9-0.5-1.5-1.3-1.5c-0.9,0-1.5,0.6-1.5,1.4v3.6H489v-5.8h0.8v0.8c0.3-0.6,0.9-1,1.6-1c0.8,0,1.5,0.5,1.8,1.2
			c0.2-0.7,1-1.2,1.8-1.2C496.2,227.6,497,228.5,497,229.8z"/>
	</g>
</g>
<g>
	<polygon fill="#00C1D5" points="608.9,250.7 573.7,250.7 573.7,209.7 614.8,209.7 614.8,250.4 613.7,250.4 613.7,210.7 
		574.8,210.7 574.8,249.7 608.9,249.7 	"/>
	<g>
		<path fill="#00C1D5" d="M586,227.8h0.9l1.9,4.6l1.8-4.6h0.9l-2.3,5.6h-0.8L586,227.8z"/>
		<path fill="#00C1D5" d="M601.2,229.8v3.6h-0.8V230c0-0.9-0.5-1.5-1.3-1.5c-0.9,0-1.5,0.6-1.5,1.4v3.6h-0.8v-3.4
			c0-0.9-0.5-1.5-1.3-1.5c-0.9,0-1.5,0.6-1.5,1.4v3.6h-0.8v-5.8h0.8v0.8c0.3-0.6,0.9-1,1.6-1c0.8,0,1.5,0.5,1.8,1.2
			c0.2-0.7,1-1.2,1.8-1.2C600.4,227.6,601.2,228.5,601.2,229.8z"/>
	</g>
</g>
<line fill="none" stroke="#000000" stroke-miterlimit="10" x1="36.2" y1="121.9" x2="623.4" y2="121.9"/>
<line fill="none" stroke="#000000" stroke-miterlimit="10" x1="36.2" y1="194.1" x2="623.4" y2="194.1"/>
<g>
	<circle fill="#0091DA" cx="151" cy="85.8" r="21.1"/>
	<g>
		<path fill="#FFFFFF" d="M143.3,90.6c-0.2,0-0.4-0.2-0.4-0.4c0-4.4,3.6-8,8-8c0.2,0,0.4,0.2,0.4,0.4s-0.2,0.4-0.4,0.4
			c-4,0-7.2,3.2-7.2,7.2C143.7,90.5,143.6,90.6,143.3,90.6z"/>
		<g>
			<path fill-rule="evenodd" clip-rule="evenodd" fill="#FFFFFF" d="M156.5,81.8V76c0-2.9-2.3-5.3-5.1-5.3h-0.9
				c-2.8,0-5.1,2.4-5.1,5.3v5.8c-2.9,1.8-4.8,5-4.8,8.7c0,5.7,4.6,10.3,10.3,10.3s10.3-4.6,10.3-10.3
				C161.3,86.9,159.4,83.6,156.5,81.8z M146.2,76c0-2.5,1.9-4.5,4.3-4.5h0.9c2.4,0,4.3,2,4.3,4.5v5.3c-1.4-0.7-3-1.2-4.8-1.2
				c-1.7,0-3.3,0.4-4.8,1.2V76H146.2z M151,100c-5.3,0-9.5-4.3-9.5-9.5s4.3-9.5,9.5-9.5s9.5,4.3,9.5,9.5S156.2,100,151,100z"/>
			<path fill-rule="evenodd" clip-rule="evenodd" fill="#FFFFFF" d="M151,87.8c-0.9,0-1.7,0.8-1.7,1.7c0,0.6,0.3,1.2,0.8,1.5v1.8
				c0,0.2,0.2,0.5,0.5,0.5h0.8c0.2,0,0.5-0.2,0.5-0.5V91c0.5-0.3,0.8-0.8,0.8-1.5C152.7,88.6,151.9,87.8,151,87.8z"/>
		</g>
	</g>
</g>
<g>
	<circle fill="#0091DA" cx="151" cy="158" r="21.1"/>
	<g>
		<path fill="#FFFFFF" d="M143.3,162.8c-0.2,0-0.4-0.2-0.4-0.4c0-4.4,3.6-8,8-8c0.2,0,0.4,0.2,0.4,0.4c0,0.2-0.2,0.4-0.4,0.4
			c-4,0-7.2,3.2-7.2,7.2C143.7,162.7,143.6,162.8,143.3,162.8z"/>
		<g>
			<path fill-rule="evenodd" clip-rule="evenodd" fill="#FFFFFF" d="M156.5,154v-5.8c0-2.9-2.3-5.3-5.1-5.3h-0.9
				c-2.8,0-5.1,2.4-5.1,5.3v5.8c-2.9,1.8-4.8,5-4.8,8.7c0,5.7,4.6,10.3,10.3,10.3s10.3-4.6,10.3-10.3
				C161.3,159.1,159.4,155.8,156.5,154z M146.2,148.2c0-2.5,1.9-4.5,4.3-4.5h0.9c2.4,0,4.3,2,4.3,4.5v5.3c-1.4-0.7-3-1.2-4.8-1.2
				c-1.7,0-3.3,0.4-4.8,1.2v-5.3H146.2z M151,172.2c-5.3,0-9.5-4.3-9.5-9.5c0-5.2,4.3-9.5,9.5-9.5s9.5,4.3,9.5,9.5
				C160.5,167.9,156.2,172.2,151,172.2z"/>
			<path fill-rule="evenodd" clip-rule="evenodd" fill="#FFFFFF" d="M151,160c-0.9,0-1.7,0.8-1.7,1.7c0,0.6,0.3,1.2,0.8,1.5v1.8
				c0,0.2,0.2,0.5,0.5,0.5h0.8c0.2,0,0.5-0.2,0.5-0.5v-1.8c0.5-0.3,0.8-0.8,0.8-1.5C152.7,160.8,151.9,160,151,160z"/>
		</g>
	</g>
</g>
<g>
	<circle fill="#0091DA" cx="714.6" cy="48.4" r="42"/>
	<path fill="#FFFFFF" d="M723.8,41.1c0.1,0,0.2,0,0.3,0c6,0.1,11,5.3,11.6,12l0.1,1.4l1.4,0.1c4.2,0.4,7.4,4.7,7.2,9.7
		c-0.1,5.2-3.7,9.3-8,9.3c-0.1,0-0.1,0-0.2,0c-0.1,0-0.5,0-1.1,0c-3,0-11.9,0-20.6,0.1c-8.7,0-17.7,0.1-20.8,0.1c-0.6,0-0.9,0-1,0
		c-4.2-0.1-8.1-4.1-8-8.2s3.5-7.4,7.6-7.4c0.1,0,0.1,0,0.2,0c0.7,0,1.3,0.1,1.9,0.3l1.7,0.5l0.4-1.7c1-4.6,5.1-7.9,9.7-7.9
		c0.1,0,0.2,0,0.2,0c1.4,0,2.8,0.4,4,1l1.6,0.8l0.6-1.7C714.7,44.3,719,41.1,723.8,41.1 M723.8,39.5c-5.6,0-10.5,3.8-12.6,9.2
		c-1.4-0.7-3-1.1-4.7-1.1c-0.1,0-0.2,0-0.3,0c-5.5,0-10.2,3.9-11.3,9.3c-0.7-0.2-1.5-0.3-2.3-0.3c-0.1,0-0.2,0-0.2,0
		c-5,0-9.1,4-9.2,9c-0.1,5.1,4.5,9.8,9.6,9.9c0.1,0,0.5,0,1.1,0c6.1,0,35.3-0.1,41.3-0.1c0.6,0,0.9,0,1.1,0c0.1,0,0.1,0,0.2,0
		c5.2,0,9.5-4.9,9.6-11c0.2-6-3.7-10.9-8.7-11.4c-0.7-7.4-6.3-13.3-13.2-13.5C724,39.5,723.9,39.5,723.8,39.5L723.8,39.5z"/>
	<text transform="matrix(1 0 0 1 688.4146 33.0682)" fill="#FFFFFF" font-family="'Metropolis-Regular'" font-size="14px">Internet</text>
</g>
<g>
	<circle fill="#0091DA" cx="151" cy="230.2" r="21.1"/>
	<g>
		<path fill="#FFFFFF" d="M143.3,235c-0.2,0-0.4-0.2-0.4-0.4c0-4.4,3.6-8,8-8c0.2,0,0.4,0.2,0.4,0.4c0,0.2-0.2,0.4-0.4,0.4
			c-4,0-7.2,3.2-7.2,7.2C143.7,234.9,143.6,235,143.3,235z"/>
		<g>
			<path fill-rule="evenodd" clip-rule="evenodd" fill="#FFFFFF" d="M156.5,226.2v-5.8c0-2.9-2.3-5.3-5.1-5.3h-0.9
				c-2.8,0-5.1,2.4-5.1,5.3v5.8c-2.9,1.8-4.8,5-4.8,8.7c0,5.7,4.6,10.3,10.3,10.3s10.3-4.6,10.3-10.3
				C161.3,231.3,159.4,228.1,156.5,226.2z M146.2,220.4c0-2.5,1.9-4.5,4.3-4.5h0.9c2.4,0,4.3,2,4.3,4.5v5.3c-1.4-0.7-3-1.2-4.8-1.2
				c-1.7,0-3.3,0.4-4.8,1.2v-5.3H146.2z M151,244.4c-5.3,0-9.5-4.3-9.5-9.5c0-5.2,4.3-9.5,9.5-9.5s9.5,4.3,9.5,9.5
				C160.5,240.1,156.2,244.4,151,244.4z"/>
			<path fill-rule="evenodd" clip-rule="evenodd" fill="#FFFFFF" d="M151,232.2c-0.9,0-1.7,0.8-1.7,1.7c0,0.6,0.3,1.2,0.8,1.5v1.8
				c0,0.2,0.2,0.5,0.5,0.5h0.8c0.2,0,0.5-0.2,0.5-0.5v-1.8c0.5-0.3,0.8-0.8,0.8-1.5C152.7,233,151.9,232.2,151,232.2z"/>
		</g>
	</g>
</g>
<g>
	<text transform="matrix(1 0 0 1 397.244 386.4287)" font-family="'Metropolis-Regular'" font-size="14px">Users</text>
	<g>
		<g>
			<circle fill="#717074" cx="508.7" cy="355.8" r="21.1"/>
			<g>
				<path fill="#FFFFFF" d="M508.7,355.1c4.8,0,9.2,2,12.5,5.7c0.2,0.3,0.4,0.6,0.4,1v5.8c0,0.8-0.6,1.4-1.3,1.4h-23.2
					c-0.7,0-1.3-0.6-1.3-1.4v-5.8c0-0.4,0.1-0.7,0.4-1c0.2-0.2,0.4-0.5,0.7-0.7C500.1,356.8,504.3,355.1,508.7,355.1 M508.7,354.2
					c-4.5,0-8.9,1.7-12.4,5.2c-0.2,0.2-0.5,0.5-0.7,0.7c-0.4,0.4-0.6,1-0.6,1.5v5.8c0,1.2,0.9,2.2,2.1,2.2h23.2c1.2,0,2.1-1,2.1-2.2
					v-5.8c0-0.6-0.2-1.1-0.6-1.5C518.3,356.2,513.5,354.2,508.7,354.2L508.7,354.2z"/>
				<path fill="#FFFFFF" d="M508.7,338.8c3.6,0,6.6,2.9,6.6,6.6s-2.9,6.6-6.6,6.6c-3.6,0-6.6-2.9-6.6-6.6S505.1,338.8,508.7,338.8
					 M508.7,338c-4.1,0-7.4,3.3-7.4,7.4s3.3,7.4,7.4,7.4c4.1,0,7.4-3.3,7.4-7.4S512.8,338,508.7,338L508.7,338z"/>
			</g>
		</g>
		<g>
			<circle fill="#717074" cx="574.3" cy="355.8" r="21.1"/>
			<g>
				<path fill="#FFFFFF" d="M574.3,355.1c4.8,0,9.2,2,12.5,5.7c0.2,0.3,0.4,0.6,0.4,1v5.8c0,0.8-0.6,1.4-1.3,1.4h-23.2
					c-0.7,0-1.3-0.6-1.3-1.4v-5.8c0-0.4,0.1-0.7,0.4-1c0.2-0.2,0.4-0.5,0.7-0.7C565.7,356.8,569.9,355.1,574.3,355.1 M574.3,354.2
					c-4.5,0-8.9,1.7-12.4,5.2c-0.2,0.2-0.5,0.5-0.7,0.7c-0.4,0.4-0.6,1-0.6,1.5v5.8c0,1.2,0.9,2.2,2.1,2.2h23.2c1.2,0,2.1-1,2.1-2.2
					v-5.8c0-0.6-0.2-1.1-0.6-1.5C583.9,356.2,579.1,354.2,574.3,354.2L574.3,354.2z"/>
				<path fill="#FFFFFF" d="M574.3,338.8c3.6,0,6.6,2.9,6.6,6.6s-2.9,6.6-6.6,6.6c-3.6,0-6.6-2.9-6.6-6.6S570.7,338.8,574.3,338.8
					 M574.3,338c-4.1,0-7.4,3.3-7.4,7.4s3.3,7.4,7.4,7.4c4.1,0,7.4-3.3,7.4-7.4S578.4,338,574.3,338L574.3,338z"/>
			</g>
		</g>
		<g>
			<circle fill="#717074" cx="508.7" cy="409.1" r="21.1"/>
			<g>
				<path fill="#FFFFFF" d="M508.7,408.4c4.8,0,9.2,2,12.5,5.7c0.2,0.3,0.4,0.6,0.4,1v5.8c0,0.8-0.6,1.4-1.3,1.4h-23.2
					c-0.7,0-1.3-0.6-1.3-1.4v-5.8c0-0.4,0.1-0.7,0.4-1c0.2-0.2,0.4-0.5,0.7-0.7C500.1,410.1,504.3,408.4,508.7,408.4 M508.7,407.5
					c-4.5,0-8.9,1.7-12.4,5.2c-0.2,0.2-0.5,0.5-0.7,0.7c-0.4,0.4-0.6,1-0.6,1.5v5.8c0,1.2,0.9,2.2,2.1,2.2h23.2c1.2,0,2.1-1,2.1-2.2
					v-5.8c0-0.6-0.2-1.1-0.6-1.5C518.3,409.5,513.5,407.5,508.7,407.5L508.7,407.5z"/>
				<path fill="#FFFFFF" d="M508.7,392.1c3.6,0,6.6,2.9,6.6,6.6s-2.9,6.6-6.6,6.6c-3.6,0-6.6-2.9-6.6-6.6S505.1,392.1,508.7,392.1
					 M508.7,391.3c-4.1,0-7.4,3.3-7.4,7.4s3.3,7.4,7.4,7.4c4.1,0,7.4-3.3,7.4-7.4S512.8,391.3,508.7,391.3L508.7,391.3z"/>
			</g>
		</g>
		<g>
			<circle fill="#717074" cx="574.3" cy="409.1" r="21.1"/>
			<g>
				<path fill="#FFFFFF" d="M574.3,408.4c4.8,0,9.2,2,12.5,5.7c0.2,0.3,0.4,0.6,0.4,1v5.8c0,0.8-0.6,1.4-1.3,1.4h-23.2
					c-0.7,0-1.3-0.6-1.3-1.4v-5.8c0-0.4,0.1-0.7,0.4-1c0.2-0.2,0.4-0.5,0.7-0.7C565.7,410.1,569.9,408.4,574.3,408.4 M574.3,407.5
					c-4.5,0-8.9,1.7-12.4,5.2c-0.2,0.2-0.5,0.5-0.7,0.7c-0.4,0.4-0.6,1-0.6,1.5v5.8c0,1.2,0.9,2.2,2.1,2.2h23.2c1.2,0,2.1-1,2.1-2.2
					v-5.8c0-0.6-0.2-1.1-0.6-1.5C583.9,409.5,579.1,407.5,574.3,407.5L574.3,407.5z"/>
				<path fill="#FFFFFF" d="M574.3,392.1c3.6,0,6.6,2.9,6.6,6.6s-2.9,6.6-6.6,6.6c-3.6,0-6.6-2.9-6.6-6.6S570.7,392.1,574.3,392.1
					 M574.3,391.3c-4.1,0-7.4,3.3-7.4,7.4s3.3,7.4,7.4,7.4c4.1,0,7.4-3.3,7.4-7.4S578.4,391.3,574.3,391.3L574.3,391.3z"/>
			</g>
		</g>
	</g>
</g>
<g>
	<circle fill="#1A428A" cx="665.6" cy="48.4" r="21.1"/>
	<g>
		<path fill="#FFFFFF" d="M666,51.5c0.1-0.1,0.1-0.3,0.2-0.5v-2.6h1.3c0.1-0.2,0.2-0.5,0.3-0.7h-4.3v-4h7.7v2.8l0.3,0.6l0.4-0.7
			v-2.7h1.3l0.3-0.7h-5.7v-4h7.7v3.5l0.5,0.9c0,0.1,0.1,0.1,0.1,0.2h1.5v3c0.2,0.5,0.5,1,0.7,1.4v-0.5v-4v-0.7v-4.7h-25.9v4.7v0.7v4
			v0.7v4.7h13C665.5,52.5,665.7,52,666,51.5z M676.2,39.1h1.3v4h-1.3V39.1z M665.5,48.4v4h-7.7v-4H665.5z M655.2,47.7v-4h7.7v4
			H655.2z M659.5,39.1h7.7v4h-7.7V39.1z M653,39.1h5.7v4H653V39.1z M653,43.7h1.5v4H653V43.7z M657.2,52.3H653v-4h4.2V52.3z"/>
		<path fill="#FFFFFF" d="M678.1,50.5c-0.4-0.8-2.2-4.6-3.2-6.5c-0.1-0.1-0.2-0.2-0.3-0.2l0,0c-0.1,0-0.3,0.1-0.3,0.2l-2.7,5.5
			c0,0.1-0.1,0.1-0.2,0l-1.3-2.7c-0.1-0.1-0.2-0.2-0.3-0.2l0,0c-0.1,0-0.3,0.1-0.3,0.2c-0.7,1.5-2.2,4.5-2.5,5.2
			c-0.4,0.7-0.6,1.5-0.6,2.3c0,2.3,1.6,4.2,3.4,4.2h4.8c2.3,0,4.2-2.3,4.2-5.1C678.8,52.3,678.6,51.3,678.1,50.5z M675.1,56.7
			c-0.1,0.2-0.3,0.2-0.5,0.1s-0.2-0.3-0.1-0.5c1.3-2,0.8-4,0-5c-0.5,2.2-1.2,3.6-2.6,3.6l0,0c-0.7,0-1.3-0.6-1.7-1
			c-0.3,0.8-0.4,2,0.5,2.5c0.2,0.1,0.2,0.3,0.1,0.5c-0.1,0.1-0.2,0.2-0.3,0.2s-0.1,0-0.2-0.1c-1.4-0.9-1-2.9-0.5-3.9
			c0.1-0.1,0.2-0.2,0.3-0.2s0.2,0,0.3,0.1c0.2,0.3,1,1.2,1.5,1.2c0.9,0,1.5-0.9,2.1-3.6l0,0c0-0.1,0.1-0.2,0.2-0.3
			c0.1-0.1,0.3,0,0.4,0C675.8,51.3,676.8,54.1,675.1,56.7z"/>
	</g>
</g>
</svg>
