<?xml version="1.0" encoding="UTF-8" standalone="no"?>
<svg
   xmlns:dc="http://purl.org/dc/elements/1.1/"
   xmlns:cc="http://creativecommons.org/ns#"
   xmlns:rdf="http://www.w3.org/1999/02/22-rdf-syntax-ns#"
   xmlns:svg="http://www.w3.org/2000/svg"
   xmlns="http://www.w3.org/2000/svg"
   xmlns:sodipodi="http://sodipodi.sourceforge.net/DTD/sodipodi-0.dtd"
   xmlns:inkscape="http://www.inkscape.org/namespaces/inkscape"
   inkscape:version="1.0 (4035a4fb49, 2020-05-01)"
   sodipodi:docname="VCN.svg"
   xml:space="preserve"
   enable-background="new 0 0 604 322.3"
   viewBox="0 0 604 458.59999"
   y="0px"
   x="0px"
   id="Layer_1"
   version="1.1"
   width="604"
   height="458.59998"><metadata
   id="metadata739"><rdf:RDF><cc:Work
       rdf:about=""><dc:format>image/svg+xml</dc:format><dc:type
         rdf:resource="http://purl.org/dc/dcmitype/StillImage" /><dc:title /></cc:Work></rdf:RDF></metadata><defs
   id="defs737" /><sodipodi:namedview
   inkscape:current-layer="g866"
   inkscape:window-maximized="1"
   inkscape:window-y="-8"
   inkscape:window-x="1912"
   inkscape:cy="297.44999"
   inkscape:cx="302"
   inkscape:zoom="1.7041198"
   showgrid="false"
   id="namedview735"
   inkscape:window-height="1017"
   inkscape:window-width="1920"
   inkscape:pageshadow="2"
   inkscape:pageopacity="0"
   guidetolerance="10"
   gridtolerance="10"
   objecttolerance="10"
   borderopacity="1"
   bordercolor="#666666"
   pagecolor="#ffffff"
   inkscape:document-rotation="0" />
<rect
   y="136.3"
   fill="#ececeb"
   width="604"
   height="322.90341"
   id="rect741"
   x="0"
   inkscape:transform-center-x="297.60853"
   inkscape:transform-center-y="45.341066"
   style="stroke-width:1" />
<path
   id="path510"
   d="m 65.8,382.4 c -6,0 -11.1,4 -13.4,9.8 -1.5,-0.7 -3.2,-1.1 -5,-1.2 -0.1,0 -0.2,0 -0.3,0 -5.9,0 -10.8,4.1 -12,9.8 -0.8,-0.2 -1.6,-0.4 -2.4,-0.4 -0.1,0 -0.1,0 -0.2,0 -5.3,0 -9.6,4.3 -9.8,9.6 -0.1,5.4 4.9,10.4 10.2,10.5 0.1,0 0.6,0 1.1,0 6.5,0 37.4,-0.1 43.9,-0.1 0.6,0 1,0 1.1,0 0.1,0 0.1,0 0.2,0 5.5,0 10.1,-5.2 10.2,-11.6 0.1,-6.3 -3.9,-11.6 -9.3,-12.1 -0.7,-7.9 -6.7,-14.1 -14.1,-14.3 0,0 -0.2,0 -0.2,0 z"
   fill="#1295d3" />
<g
   id="Clouds__x2B__Infrastructure_Expanded_AQ_1_"
   transform="translate(0,136.3)">
	<path
   id="path512"
   d="m 187.7,247.8 c 0.1,0 0.2,0 0.3,0 6.4,0.1 11.7,5.6 12.4,12.7 l 0.1,1.5 1.5,0.1 c 4.4,0.4 7.8,4.9 7.7,10.3 -0.1,5.5 -3.9,9.9 -8.4,9.9 -0.1,0 -0.1,0 -0.2,0 -0.1,0 -0.6,0 -1.2,0 -3.2,0 -12.7,0 -21.9,0.1 -9.2,0 -18.8,0.1 -22,0.1 -0.6,0 -1,0 -1.1,0 -4.5,-0.1 -8.6,-4.4 -8.5,-8.7 0.1,-4.4 3.7,-7.9 8,-7.9 0.1,0 0.1,0 0.2,0 0.7,0 1.3,0.1 2,0.3 l 1.8,0.5 0.4,-1.8 c 1.1,-4.9 5.4,-8.4 10.3,-8.4 0.1,0 0.1,0 0.3,0 1.5,0.1 3,0.4 4.3,1 l 1.7,0.8 0.7,-1.8 c 1.9,-5.3 6.5,-8.7 11.6,-8.7 m 0,-1.7 c -6,0 -11.1,4 -13.4,9.8 -1.5,-0.7 -3.2,-1.1 -5,-1.2 -0.1,0 -0.2,0 -0.3,0 -5.9,0 -10.8,4.1 -12,9.8 -0.8,-0.2 -1.6,-0.4 -2.4,-0.4 -0.1,0 -0.1,0 -0.2,0 -5.3,0 -9.6,4.3 -9.8,9.6 -0.1,5.4 4.9,10.4 10.2,10.5 0.1,0 0.6,0 1.1,0 6.5,0 37.4,-0.1 43.9,-0.1 0.6,0 1,0 1.1,0 0.1,0 0.1,0 0.2,0 5.5,0 10.1,-5.2 10.2,-11.6 0.1,-6.3 -3.9,-11.6 -9.3,-12.1 -0.7,-7.9 -6.7,-14.1 -14.1,-14.3 0.1,0 -0.1,0 -0.2,0 z"
   fill="#1295d3" />
</g>
<g
   id="Clouds__x2B__Infrastructure_Expanded_AQ"
   transform="translate(0,136.3)">
	<path
   id="path515"
   d="m 324.1,257.8 c -0.7,-7.9 -6.7,-14.1 -14.1,-14.3 -0.1,0 -0.2,0 -0.4,0 -6,0 -11.1,4 -13.4,9.8 -1.5,-0.7 -3.2,-1.1 -5,-1.2 -0.1,0 -0.2,0 -0.3,0 -5.9,0 -10.8,4.1 -12,9.8 -0.8,-0.2 -1.6,-0.4 -2.4,-0.4 -0.1,0 -0.1,0 -0.2,0 -5.3,0 -9.6,4.3 -9.8,9.6 -0.1,5.4 4.9,10.4 10.2,10.5 0.1,0 0.6,0 1.1,0 6.5,0 37.4,-0.1 43.9,-0.1 0.6,0 1,0 1.1,0 0.1,0 0.1,0 0.2,0 5.5,0 10.1,-5.2 10.2,-11.6 0.3,-6.4 -3.8,-11.6 -9.1,-12.1 z m -47.2,22.1 c -4.5,-0.1 -8.6,-4.4 -8.5,-8.7 0.1,-4.4 3.7,-7.9 8,-7.9 0.1,0 0.1,0 0.2,0 0.7,0 1.3,0.1 2,0.3 l 1.8,0.5 0.4,-1.8 c 1.1,-4.9 5.4,-8.4 10.3,-8.4 0.1,0 0.1,0 0.3,0 1.5,0.1 3,0.4 4.3,1 l 1.4,0.7 v 24.3 c -8.2,0 -16.1,0.1 -19.1,0.1 -0.6,-0.1 -1.1,-0.1 -1.1,-0.1 z"
   fill="#1295d3" />
</g>
<g
   id="g558"
   transform="translate(0,136.3)">
	<rect
   id="rect518"
   height="1.8"
   width="17.6"
   fill="#1295d3"
   y="241.2"
   x="400.29999" />
	<rect
   id="rect520"
   height="1.8"
   width="17.6"
   fill="#1295d3"
   y="241.2"
   x="426.5" />
	<g
   id="g554">
		<g
   id="g532">
			<rect
   id="rect522"
   height="7"
   width="1.8"
   fill="#1295d3"
   y="254"
   x="428.29999" />
			<rect
   id="rect524"
   height="7"
   width="1.8"
   fill="#1295d3"
   y="254"
   x="421.29999" />
			<rect
   id="rect526"
   height="7"
   width="1.8"
   fill="#1295d3"
   y="254"
   x="414.29999" />
			<rect
   id="rect528"
   height="7"
   width="1.8"
   fill="#1295d3"
   y="254"
   x="407.20001" />
			<rect
   id="rect530"
   height="7"
   width="1.8"
   fill="#1295d3"
   y="254"
   x="400.20001" />
		</g>
		<g
   id="g552">
			<rect
   id="rect534"
   height="7"
   width="1.8"
   fill="#1295d3"
   y="269.29999"
   x="428.29999" />
			<rect
   id="rect536"
   height="7"
   width="1.8"
   fill="#1295d3"
   y="254"
   x="435.39999" />
			<rect
   id="rect538"
   height="7"
   width="1.8"
   fill="#1295d3"
   y="269.29999"
   x="435.39999" />
			<rect
   id="rect540"
   height="7"
   width="1.8"
   fill="#1295d3"
   y="254"
   x="442.39999" />
			<rect
   id="rect542"
   height="7"
   width="1.8"
   fill="#1295d3"
   y="269.29999"
   x="442.39999" />
			<rect
   id="rect544"
   height="7"
   width="1.8"
   fill="#1295d3"
   y="269.29999"
   x="421.29999" />
			<rect
   id="rect546"
   height="7"
   width="1.8"
   fill="#1295d3"
   y="269.29999"
   x="414.29999" />
			<rect
   id="rect548"
   height="7"
   width="1.8"
   fill="#1295d3"
   y="269.29999"
   x="407.20001" />
			<rect
   id="rect550"
   height="7"
   width="1.8"
   fill="#1295d3"
   y="269.29999"
   x="400.20001" />
		</g>
	</g>
	<path
   id="path556"
   d="M 450.1,280.4 V 249 247 234.9 h -6 v -2.5 h -17.6 v 2.5 h -32.6 v 12.1 2 31.4 h -5.3 v 1.8 h 66.8 v -1.8 z M 448.4,247 h -48.1 v 2 h 48.1 v 31.4 h -52.7 v -43.7 h 52.7 z"
   fill="#1295d3" />
</g>
<g
   id="Migration__x2B__Recovery_Expanded_AQ"
   transform="translate(0,136.3)">
	<g
   id="g618">
		<polygon
   id="polygon560"
   points="542.2,244.5 542.2,278.1 543.9,278.1 543.9,246.2 568.6,246.2 568.6,281.5 519.4,281.5 519.4,218.2 542.3,218.2 542.3,241.1 544,241.1 544,216.5 517.7,216.5 517.7,281.5 514.1,281.5 514.1,283.3 573.9,283.3 573.9,281.5 570.3,281.5 570.3,244.5 "
   fill="#1295d3" />
		<rect
   id="rect562"
   height="1.8"
   width="1.8"
   fill="#1295d3"
   y="221.7"
   x="522.90002" />
		<rect
   id="rect564"
   height="1.8"
   width="1.8"
   fill="#1295d3"
   y="221.7"
   x="529.90002" />
		<rect
   id="rect566"
   height="1.8"
   width="1.8"
   fill="#1295d3"
   y="221.7"
   x="537" />
		<rect
   id="rect568"
   height="1.8"
   width="1.8"
   fill="#1295d3"
   y="228.7"
   x="522.90002" />
		<rect
   id="rect570"
   height="1.8"
   width="1.8"
   fill="#1295d3"
   y="228.7"
   x="529.90002" />
		<rect
   id="rect572"
   height="1.8"
   width="1.8"
   fill="#1295d3"
   y="228.7"
   x="537" />
		<rect
   id="rect574"
   height="1.8"
   width="1.8"
   fill="#1295d3"
   y="235.8"
   x="522.90002" />
		<rect
   id="rect576"
   height="1.8"
   width="1.8"
   fill="#1295d3"
   y="235.8"
   x="529.90002" />
		<rect
   id="rect578"
   height="1.8"
   width="1.8"
   fill="#1295d3"
   y="235.8"
   x="537" />
		<rect
   id="rect580"
   height="1.8"
   width="1.8"
   fill="#1295d3"
   y="242.8"
   x="522.90002" />
		<rect
   id="rect582"
   height="1.8"
   width="1.8"
   fill="#1295d3"
   y="242.8"
   x="529.90002" />
		<rect
   id="rect584"
   height="1.8"
   width="1.8"
   fill="#1295d3"
   y="242.8"
   x="537" />
		<rect
   id="rect586"
   height="1.8"
   width="1.8"
   fill="#1295d3"
   y="249.8"
   x="522.90002" />
		<rect
   id="rect588"
   height="1.8"
   width="1.8"
   fill="#1295d3"
   y="249.8"
   x="529.90002" />
		<rect
   id="rect590"
   height="1.8"
   width="1.8"
   fill="#1295d3"
   y="249.8"
   x="537" />
		<rect
   id="rect592"
   height="1.8"
   width="1.8"
   fill="#1295d3"
   y="256.79999"
   x="522.90002" />
		<rect
   id="rect594"
   height="1.8"
   width="1.8"
   fill="#1295d3"
   y="256.79999"
   x="529.90002" />
		<rect
   id="rect596"
   height="1.8"
   width="1.8"
   fill="#1295d3"
   y="256.79999"
   x="537" />
		<rect
   id="rect598"
   height="1.8"
   width="1.8"
   fill="#1295d3"
   y="263.89999"
   x="522.90002" />
		<rect
   id="rect600"
   height="1.8"
   width="1.8"
   fill="#1295d3"
   y="263.89999"
   x="529.90002" />
		<rect
   id="rect602"
   height="1.8"
   width="1.8"
   fill="#1295d3"
   y="263.89999"
   x="537" />
		<rect
   id="rect604"
   height="1.8"
   width="1.8"
   fill="#1295d3"
   y="270.89999"
   x="522.90002" />
		<rect
   id="rect606"
   height="1.8"
   width="1.8"
   fill="#1295d3"
   y="270.89999"
   x="529.90002" />
		<rect
   id="rect608"
   height="1.8"
   width="1.8"
   fill="#1295d3"
   y="270.89999"
   x="537" />
		<rect
   id="rect610"
   height="1.8"
   width="14.1"
   fill="#1295d3"
   y="251.10001"
   x="549.29999" />
		<rect
   id="rect612"
   height="1.8"
   width="14.1"
   fill="#1295d3"
   y="258.10001"
   x="549.29999" />
		<rect
   id="rect614"
   height="1.8"
   width="14.1"
   fill="#1295d3"
   y="265.10001"
   x="549.29999" />
		<rect
   id="rect616"
   height="1.8"
   width="14.1"
   fill="#1295d3"
   y="272.20001"
   x="549.29999" />
	</g>
</g>
<text
   style="font-style:normal;font-variant:normal;font-weight:normal;font-stretch:normal;font-family:Metropolis;-inkscape-font-specification:Metropolis"
   font-size="12px"
   font-family="'Metropolis-Regular'"
   fill="#020202"
   id="text186_2_"
   x="17.6297"
   y="439.65231">Private Cloud</text>
<text
   style="font-style:normal;font-variant:normal;font-weight:normal;font-stretch:normal;font-family:Metropolis;-inkscape-font-specification:Metropolis"
   font-size="12px"
   font-family="'Metropolis-Regular'"
   fill="#020202"
   id="text186_1_"
   x="142.03239"
   y="439.65231">Public Cloud</text>
<text
   style="font-style:normal;font-variant:normal;font-weight:normal;font-stretch:normal;font-family:Metropolis;-inkscape-font-specification:Metropolis"
   font-size="12px"
   font-family="'Metropolis-Regular'"
   fill="#020202"
   id="text186_6_"
   x="87.772301"
   y="246.6925">Virtual Machines</text>
<text
   style="font-style:normal;font-variant:normal;font-weight:normal;font-stretch:normal;line-height:0;font-family:Metropolis;-inkscape-font-specification:Metropolis"
   font-size="12px"
   font-family="Metropolis-Regular"
   fill="#020202"
   id="text186_7_"
   x="266.9632"
   y="246.6925">Containers</text>
<text
   style="font-style:normal;font-variant:normal;font-weight:normal;font-stretch:normal;font-family:Metropolis;-inkscape-font-specification:Metropolis"
   font-size="14px"
   font-family="'Metropolis-Regular'"
   fill="#020202"
   id="text186_9_"
   x="228.02609"
   y="356.64099">Virtual Cloud Network</text>
<text
   style="font-style:normal;font-variant:normal;font-weight:normal;font-stretch:normal;font-family:Metropolis;-inkscape-font-specification:Metropolis"
   font-size="12px"
   font-family="'Metropolis-Regular'"
   fill="#020202"
   id="text186_8_"
   x="429.48111"
   y="246.6925">Bare Metal</text>
<text
   style="font-style:normal;font-variant:normal;font-weight:normal;font-stretch:normal;font-family:Metropolis;-inkscape-font-specification:Metropolis"
   font-size="12px"
   font-family="'Metropolis-Regular'"
   fill="#020202"
   id="text186_3_"
   x="262.24789"
   y="439.65231">Hybrid Cloud</text>
<text
   style="font-style:normal;font-variant:normal;font-weight:normal;font-stretch:normal;font-family:Metropolis;-inkscape-font-specification:Metropolis"
   font-size="12px"
   font-family="'Metropolis-Regular'"
   fill="#020202"
   id="text186_4_"
   x="387.7901"
   y="439.65231">Data Center</text>
<text
   style="font-style:normal;font-variant:normal;font-weight:normal;font-stretch:normal;font-family:Metropolis;-inkscape-font-specification:Metropolis"
   font-size="12px"
   font-family="'Metropolis-Regular'"
   fill="#020202"
   id="text186_5_"
   x="506.06079"
   y="439.65231">Branch/Edge</text>
<line
   id="line630"
   y2="261.29999"
   x2="522.90002"
   y1="261.29999"
   x1="81.099998"
   stroke-miterlimit="10"
   stroke-width="2"
   stroke="#218fcf"
   fill="none" />
<g
   id="g640"
   transform="translate(0,136.3)">
	<polygon
   id="polygon632"
   points="107,31.7 163.2,31.7 163.2,87.5 161.7,87.5 161.7,33.2 108.5,33.2 108.5,86.5 155.1,86.5 155.1,87.9 107,87.9 "
   fill="#1295d3" />
	<g
   id="g638">
		<path
   id="path634"
   d="m 123.8,56.5 h 1.2 l 2.5,6.3 2.5,-6.3 h 1.2 l -3.2,7.6 h -1.1 z"
   fill="#1295d3" />
		<path
   id="path636"
   d="m 144.7,59.3 v 4.9 h -1.1 v -4.7 c 0,-1.2 -0.7,-2.1 -1.8,-2.1 -1.2,0 -2.1,0.8 -2.1,2 v 4.9 h -1.1 v -4.7 c 0,-1.2 -0.7,-2.1 -1.8,-2.1 -1.2,0 -2.1,0.8 -2.1,2 V 64 h -1.1 v -7.5 h 1.1 v 1.1 c 0.4,-0.8 1.2,-1.3 2.2,-1.3 1.1,0 2.1,0.7 2.5,1.6 0.3,-1 1.3,-1.6 2.5,-1.6 1.6,0 2.8,1.3 2.8,3 z"
   fill="#1295d3" />
	</g>
</g>
<g
   id="g654"
   transform="translate(0,136.3)">
	<path
   id="path642"
   d="M 325.1,87.2 H 270.3 V 32.4 h 54.8 z m -53.4,-1.4 h 51.9 V 33.9 h -51.9 z"
   fill="#1295d3" />
	<g
   id="g652">
		<polygon
   id="polygon644"
   points="275.4,38.2 283.7,38.2 283.7,39.7 276.9,39.7 276.9,80 283.7,80 283.7,81.5 275.4,81.5 "
   fill="#1295d3" />
		<polygon
   id="polygon646"
   points="287.5,38.2 295.8,38.2 295.8,39.7 288.9,39.7 288.9,80 295.8,80 295.8,81.5 287.5,81.5 "
   fill="#1295d3" />
		<polygon
   id="polygon648"
   points="299.6,38.2 307.9,38.2 307.9,39.7 301,39.7 301,80 307.9,80 307.9,81.5 299.6,81.5 "
   fill="#1295d3" />
		<polygon
   id="polygon650"
   points="311.6,38.2 320,38.2 320,39.7 313.1,39.7 313.1,80 320,80 320,81.5 311.6,81.5 "
   fill="#1295d3" />
	</g>
</g>
<g
   id="g722"
   transform="translate(0,136.3)">
	<g
   id="g658">
		<path
   id="path656"
   d="M 471.1,38.8 V 91.7 H 449.3 V 38.8 h 21.8 m 1.7,-1.8 h -25.4 v 56.4 h 25.4 z"
   fill="#1295d3" />
	</g>
	<g
   id="g674">
		<rect
   id="rect660"
   height="1.8"
   width="10.6"
   fill="#1295d3"
   y="43.5"
   x="454.89999" />
		<rect
   id="rect662"
   height="1.8"
   width="10.6"
   fill="#1295d3"
   y="50.599998"
   x="454.89999" />
		<rect
   id="rect664"
   height="1.8"
   width="10.6"
   fill="#1295d3"
   y="57.599998"
   x="454.89999" />
		<rect
   id="rect666"
   height="1.8"
   width="10.6"
   fill="#1295d3"
   y="64.699997"
   x="454.89999" />
		<rect
   id="rect668"
   height="1.8"
   width="10.6"
   fill="#1295d3"
   y="71.699997"
   x="454.89999" />
		<rect
   id="rect670"
   height="1.8"
   width="10.6"
   fill="#1295d3"
   y="78.800003"
   x="454.89999" />
		<rect
   id="rect672"
   height="1.8"
   width="10.6"
   fill="#1295d3"
   y="85.900002"
   x="454.89999" />
	</g>
	<polygon
   id="polygon676"
   points="468.4,28.1 471,35.1 472.8,35.1 472.8,35 469.4,26.3 450.5,26.3 447.4,35.1 449.1,35.1 451.6,28.1 "
   fill="#1295d3" />
	<g
   id="g698">
		<g
   id="g680">
			<polygon
   id="polygon678"
   points="476.2,87.9 492.3,87.9 492.3,42.2 476.2,42.2 476.2,40.4 494,40.4 494,89.7 476.2,89.7 "
   fill="#1295d3" />
		</g>
		<g
   id="g694">
			<rect
   id="rect682"
   height="1.8"
   width="10.6"
   fill="#1295d3"
   y="46.099998"
   x="476.20001" />
			<rect
   id="rect684"
   height="1.8"
   width="10.6"
   fill="#1295d3"
   y="53.200001"
   x="476.20001" />
			<rect
   id="rect686"
   height="1.8"
   width="10.6"
   fill="#1295d3"
   y="60.299999"
   x="476.20001" />
			<rect
   id="rect688"
   height="1.8"
   width="10.6"
   fill="#1295d3"
   y="67.300003"
   x="476.20001" />
			<rect
   id="rect690"
   height="1.8"
   width="10.6"
   fill="#1295d3"
   y="74.400002"
   x="476.20001" />
			<rect
   id="rect692"
   height="1.8"
   width="10.6"
   fill="#1295d3"
   y="81.5"
   x="476.20001" />
		</g>
		<polygon
   id="polygon696"
   points="476.2,31.6 488.9,31.6 491.8,38.6 493.8,38.6 493.8,38.6 490.1,29.8 476.2,29.8 "
   fill="#1295d3" />
	</g>
	<g
   id="g720">
		<g
   id="g702">
			<polygon
   id="polygon700"
   points="426.5,40.4 444.4,40.4 444.4,42.2 428.3,42.2 428.3,87.9 444.4,87.9 444.4,89.7 426.5,89.7 "
   fill="#1295d3" />
		</g>
		<g
   id="g716">
			<rect
   id="rect704"
   height="1.8"
   width="10.6"
   fill="#1295d3"
   y="46.099998"
   x="433.79999" />
			<rect
   id="rect706"
   height="1.8"
   width="10.6"
   fill="#1295d3"
   y="53.200001"
   x="433.79999" />
			<rect
   id="rect708"
   height="1.8"
   width="10.6"
   fill="#1295d3"
   y="60.299999"
   x="433.79999" />
			<rect
   id="rect710"
   height="1.8"
   width="10.6"
   fill="#1295d3"
   y="67.300003"
   x="433.79999" />
			<rect
   id="rect712"
   height="1.8"
   width="10.6"
   fill="#1295d3"
   y="74.400002"
   x="433.79999" />
			<rect
   id="rect714"
   height="1.8"
   width="10.6"
   fill="#1295d3"
   y="81.5"
   x="433.79999" />
		</g>
		<polygon
   id="polygon718"
   points="444.4,31.6 431.7,31.6 428.8,38.6 426.8,38.6 426.8,38.6 430.5,29.8 444.4,29.8 "
   fill="#1295d3" />
	</g>
</g>
<g
   id="g732"
   transform="translate(0,136.3)">
	<g
   id="g730">
		<line
   id="line724"
   y2="127"
   x2="297.10001"
   y1="125"
   x1="297.10001"
   stroke-miterlimit="10"
   stroke-width="2"
   stroke="#218fcf"
   fill="none" />
		
			<line
   id="line726"
   y2="192.3"
   x2="297.10001"
   y1="131"
   x1="297.10001"
   stroke-dasharray="3.9537, 3.9537"
   stroke-miterlimit="10"
   stroke-width="2"
   stroke="#218fcf"
   fill="none" />
		<line
   id="line728"
   y2="196.3"
   x2="297.10001"
   y1="194.3"
   x1="297.10001"
   stroke-miterlimit="10"
   stroke-width="2"
   stroke="#218fcf"
   fill="none" />
	</g>
</g>
<rect
   fill="#78be43"
   width="604"
   height="136.3"
   id="rect743"
   x="0"
   y="0" /><text
   id="text186_6_-6"
   fill="#ffffff"
   font-family="'Metropolis-Regular'"
   font-size="14px"
   style="font-style:normal;font-variant:normal;font-weight:normal;font-stretch:normal;font-family:Metropolis;-inkscape-font-specification:Metropolis"
   x="184.5708"
   y="25.875496">Network Virtualization and Security</text><g
   id="g878"
   transform="translate(-2.4560547e-6,-1.6948242e-5)"><g
     id="g866"><text
       y="109.17731"
       x="271.92682"
       id="text186_12_"
       fill="#ffffff"
       font-family="'Metropolis-Regular'"
       font-size="12px"
       style="font-style:normal;font-variant:normal;font-weight:normal;font-stretch:normal;font-family:Metropolis;-inkscape-font-specification:Metropolis">VMware SD-WAN </text><rect
       x="248.60001"
       y="89.300003"
       fill="none"
       stroke="#ffffff"
       stroke-miterlimit="10"
       width="148.8"
       height="31.700001"
       id="rect864" /></g><g
     id="g871"><text
       id="text186_13_"
       transform="translate(443.3294,108.5905)"
       fill="#ffffff"
       font-family="'Metropolis-Regular'"
       font-size="12px"
       style="font-style:normal;font-variant:normal;font-weight:normal;font-stretch:normal;font-family:Metropolis;-inkscape-font-specification:Metropolis">Hybrid Cloud Extension</text><rect
       x="436.20001"
       y="89.300003"
       fill="none"
       stroke="#ffffff"
       stroke-miterlimit="10"
       width="148.8"
       height="31.700001"
       id="rect869" /></g><g
     id="g876"><text
       id="text186_11_"
       transform="translate(28.0984,108.5905)"
       fill="#ffffff"
       font-family="'Metropolis-Regular'"
       font-size="12px"
       style="font-style:normal;font-variant:normal;font-weight:normal;font-stretch:normal;font-family:Metropolis;-inkscape-font-specification:Metropolis">NSX Advanced Load Balancer</text><rect
       x="17.799999"
       y="89.300003"
       fill="none"
       stroke="#ffffff"
       stroke-miterlimit="10"
       width="191.89999"
       height="31.700001"
       id="rect874" /></g></g><g
   id="g895"
   transform="translate(-2.4560547e-6,-1.6948242e-5)"><g
     id="g883"><text
       id="text186_7_-1"
       transform="translate(74.3548,66.6871)"
       fill="#ffffff"
       font-family="'Metropolis-Regular'"
       font-size="12px"
       style="font-style:normal;font-variant:normal;font-weight:normal;font-stretch:normal;font-family:Metropolis;-inkscape-font-specification:Metropolis">NSX Data Center</text><rect
       x="52.5"
       y="47.400002"
       fill="none"
       stroke="#ffffff"
       stroke-miterlimit="10"
       width="140.5"
       height="31.700001"
       id="rect881" /></g><g
     id="g888"><text
       id="text186_10_"
       transform="translate(402.1757,66.6871)"
       fill="#ffffff"
       font-family="'Metropolis-Regular'"
       font-size="12px"
       style="font-style:normal;font-variant:normal;font-weight:normal;font-stretch:normal;font-family:Metropolis;-inkscape-font-specification:Metropolis">NSX Distributed IDS/IPS</text><rect
       x="393.60001"
       y="47.400002"
       fill="none"
       stroke="#ffffff"
       stroke-miterlimit="10"
       width="156.7"
       height="31.700001"
       id="rect886" /></g><g
     id="g893"><text
       id="text186_8_-5"
       transform="translate(262.3538,66.687)"
       fill="#ffffff"
       font-family="'Metropolis-Regular'"
       font-size="12px"
       style="font-style:normal;font-variant:normal;font-weight:normal;font-stretch:normal;font-family:Metropolis;-inkscape-font-specification:Metropolis">NSX Cloud</text><rect
       x="246.7"
       y="47.400002"
       fill="none"
       stroke="#ffffff"
       stroke-miterlimit="10"
       width="93.099998"
       height="31.700001"
       id="rect891" /></g></g></svg>
