<?xml version="1.0" encoding="UTF-8" standalone="no"?>
<svg
   xmlns:dc="http://purl.org/dc/elements/1.1/"
   xmlns:cc="http://creativecommons.org/ns#"
   xmlns:rdf="http://www.w3.org/1999/02/22-rdf-syntax-ns#"
   xmlns:svg="http://www.w3.org/2000/svg"
   xmlns="http://www.w3.org/2000/svg"
   xmlns:sodipodi="http://sodipodi.sourceforge.net/DTD/sodipodi-0.dtd"
   xmlns:inkscape="http://www.inkscape.org/namespaces/inkscape"
   inkscape:version="1.0 (4035a4f, 2020-05-01)"
   sodipodi:docname="VMNetworking_PortGroups.svg"
   xml:space="preserve"
   enable-background="new 0 0 443.9 261.3"
   viewBox="0 0 443.9 261.3"
   y="0px"
   x="0px"
   id="Layer_1"
   version="1.1"><metadata
   id="metadata9361"><rdf:RDF><cc:Work
       rdf:about=""><dc:format>image/svg+xml</dc:format><dc:type
         rdf:resource="http://purl.org/dc/dcmitype/StillImage" /></cc:Work></rdf:RDF></metadata><defs
   id="defs9359" /><sodipodi:namedview
   inkscape:current-layer="Layer_1"
   inkscape:window-maximized="0"
   inkscape:window-y="23"
   inkscape:window-x="0"
   inkscape:cy="130.64999"
   inkscape:cx="221.95"
   inkscape:zoom="2.2482541"
   showgrid="false"
   id="namedview9357"
   inkscape:window-height="880"
   inkscape:window-width="1632"
   inkscape:pageshadow="2"
   inkscape:pageopacity="0"
   guidetolerance="10"
   gridtolerance="10"
   objecttolerance="10"
   borderopacity="1"
   bordercolor="#666666"
   pagecolor="#ffffff"
   inkscape:document-rotation="0" />
<rect
   id="rect9127"
   height="261.3"
   width="443.9"
   fill="#FFFFFF" />
<rect
   id="rect9129"
   height="88.5"
   width="419.5"
   stroke-miterlimit="10"
   stroke-width="2"
   stroke="#19BFD3"
   fill="none"
   y="165.3"
   x="12.2"
   style="fill:#19bfd3;fill-opacity:1" />
<text
   style="-inkscape-font-specification:Metropolis;font-family:Metropolis;font-weight:normal;font-style:normal;font-stretch:normal;font-variant:normal;fill:#ffffff;"
   font-size="14px"
   font-family="'Metropolis-Regular'"
   transform="matrix(1 0 0 1 176.1937 244.9524)"
   id="text2344_3_">Virtual Switch</text>
<rect
   id="rect9132"
   height="48.9"
   width="141.8"
   fill="#218FCF"
   y="172.3"
   x="35" />
<text
   y="200.3887"
   x="68.792892"
   style="font-style:normal;font-variant:normal;font-weight:normal;font-stretch:normal;font-size:14px;font-family:Metropolis;-inkscape-font-specification:'Metropolis, Normal';font-variant-ligatures:normal;font-variant-caps:normal;font-variant-numeric:normal;font-variant-east-asian:normal;fill:#ffffff;"
   enable-background="new    "
   id="text2344_1_"><tspan
     y="200.3887"
     x="68.792892"
     id="tspan1025"
     sodipodi:role="line">Production</tspan></text>
<g
   id="g9161">
	<path
   id="path9139"
   d="M76.2,182.2h-18c-1.2,0-2.2-1-2.2-2.2v-15.3c0-1.2,1-2.2,2.2-2.2h18c1.2,0,2.2,1,2.2,2.2V180   C78.4,181.2,77.4,182.2,76.2,182.2z"
   fill="#3E4044" />
	<path
   id="path9141"
   d="M58.2,163c-0.9,0-1.6,0.7-1.6,1.6V180c0,0.9,0.7,1.6,1.6,1.6h18c0.9,0,1.6-0.7,1.6-1.6v-15.3   c0-0.9-0.7-1.6-1.6-1.6H58.2z"
   fill="#FFFFFF" />
	<path
   id="path9143"
   d="M76.2,180.7h-18c-0.4,0-0.8-0.3-0.8-0.8v-15.3c0-0.4,0.3-0.8,0.8-0.8h18c0.4,0,0.8,0.3,0.8,0.8V180   C76.9,180.4,76.6,180.7,76.2,180.7z M58.2,164.1c-0.3,0-0.5,0.2-0.5,0.5V180c0,0.3,0.2,0.5,0.5,0.5h18c0.3,0,0.5-0.2,0.5-0.5v-15.3   c0-0.3-0.2-0.5-0.5-0.5H58.2z"
   fill="#3E4044" />
	<path
   id="path9145"
   d="M74.8,165.3H59.5c-0.4,0-0.6,0.3-0.6,0.6v7.7c0,0.4,0.3,0.6,0.6,0.6h0.6v1.9c0,0.4,0.3,0.6,0.6,0.6h1.9v1.9   c0,0.4,0.3,0.6,0.6,0.6H71c0.4,0,0.6-0.3,0.6-0.6v-1.9h1.9c0.4,0,0.6-0.3,0.6-0.6v-1.9h0.6c0.4,0,0.6-0.3,0.6-0.6v-7.7   C75.5,165.6,75.2,165.3,74.8,165.3z"
   fill="#3E4044" />
	<path
   id="path9147"
   d="M60.8,178h-1.3c-0.4,0-0.6,0.3-0.6,0.6s0.3,0.6,0.6,0.6h1.3c0.4,0,0.6-0.3,0.6-0.6S61.1,178,60.8,178z"
   fill="#3E4044" />
	<path
   id="path9149"
   d="M74.8,178h-1.3c-0.4,0-0.6,0.3-0.6,0.6s0.3,0.6,0.6,0.6h1.3c0.4,0,0.6-0.3,0.6-0.6S75.2,178,74.8,178z"
   fill="#3E4044" />
	<path
   id="path9151"
   d="M62.1,171.6c0.4,0,0.6-0.3,0.6-0.6v-2.5c0-0.4-0.3-0.6-0.6-0.6s-0.6,0.3-0.6,0.6v2.6   C61.4,171.4,61.7,171.6,62.1,171.6z"
   fill="#FFFFFF" />
	<path
   id="path9153"
   d="M64.6,171.6c0.4,0,0.6-0.3,0.6-0.6v-2.5c0-0.4-0.3-0.6-0.6-0.6c-0.4,0-0.6,0.3-0.6,0.6v2.6   C64,171.4,64.3,171.6,64.6,171.6z"
   fill="#FFFFFF" />
	<path
   id="path9155"
   d="M67.2,171.6c0.4,0,0.6-0.3,0.6-0.6v-2.5c0-0.4-0.3-0.6-0.6-0.6s-0.6,0.3-0.6,0.6v2.6   C66.5,171.4,66.8,171.6,67.2,171.6z"
   fill="#FFFFFF" />
	<path
   id="path9157"
   d="M69.7,171.6c0.4,0,0.6-0.3,0.6-0.6v-2.5c0-0.4-0.3-0.6-0.6-0.6s-0.6,0.3-0.6,0.6v2.6   C69.1,171.4,69.4,171.6,69.7,171.6z"
   fill="#FFFFFF" />
	<path
   id="path9159"
   d="M72.3,171.6c0.4,0,0.6-0.3,0.6-0.6v-2.5c0-0.4-0.3-0.6-0.6-0.6c-0.4,0-0.6,0.3-0.6,0.6v2.6   C71.7,171.4,71.9,171.6,72.3,171.6z"
   fill="#FFFFFF" />
</g>
<g
   id="Devices__x2B__Hardware_Expanded_AQ">
	<g
   id="g9173">
		<path
   id="path9163"
   d="M67.9,58v7.8h7.8V58H67.9z M75,65.1h-6.4v-6.4H75V65.1z"
   fill="#3E4044" />
		<path
   id="path9165"
   d="M64.9,62.2h2.4v-0.7h-2.4c-0.2-1.1-1.1-2-2.3-2c-1.3,0-2.4,1.1-2.4,2.4c0,1.3,1.1,2.4,2.4,2.4    C63.8,64.3,64.7,63.4,64.9,62.2z M60.9,61.9c0-0.9,0.8-1.7,1.7-1.7c0.9,0,1.7,0.8,1.7,1.7s-0.8,1.7-1.7,1.7    C61.6,63.6,60.9,62.8,60.9,61.9z"
   fill="#3E4044" />
		<polygon
   id="polygon9167"
   points="58.6,55.1 58.6,55.7 79.1,55.7 79.1,67.6 58.6,67.6 58.6,68.3 79.8,68.3 79.8,55.1   "
   fill="#3E4044" />
		<path
   id="path9169"
   d="M54.6,70.9h3.3V52.4h-3.3V70.9z M55.2,53.1h2v17.2h-2V53.1z"
   fill="#3E4044" />
		<polygon
   id="polygon9171"
   points="76.4,70.6 74.8,70.6 74.8,68.9 74.1,68.9 74.1,70.6 72.7,70.6 72.7,68.9 72,68.9 72,70.6     70.6,70.6 70.6,68.9 70,68.9 70,70.6 68.6,70.6 68.6,68.9 67.9,68.9 67.9,70.6 66.3,70.6 66.3,68.9 65.7,68.9 65.7,71.3     77.1,71.3 77.1,68.9 76.4,68.9   "
   fill="#3E4044" />
	</g>
</g>
<rect
   id="rect9176"
   height="41"
   width="41"
   stroke-miterlimit="10"
   stroke-width="2"
   stroke="#006EA4"
   fill="none"
   y="7.6"
   x="46.7" />
<text
   style="-inkscape-font-specification:Metropolis;font-family:Metropolis;font-weight:normal;font-style:normal;font-stretch:normal;font-variant:normal;"
   font-size="12px"
   font-family="'Metropolis-Regular'"
   fill="#006EA4"
   transform="matrix(1 0 0 1 57.4246 31.4942)"
   id="text102_1_">VM</text>
<line
   id="line9179"
   y2="160.2"
   x2="67.2"
   y1="75.7"
   x1="67.2"
   stroke-miterlimit="10"
   stroke-width="2"
   stroke="#3E4044"
   fill="none" />
<g
   id="g9203">
	<path
   id="path9181"
   d="M152.8,182.2h-18c-1.2,0-2.2-1-2.2-2.2v-15.3c0-1.2,1-2.2,2.2-2.2h18c1.2,0,2.2,1,2.2,2.2V180   C155.1,181.2,154.1,182.2,152.8,182.2z"
   fill="#3E4044" />
	<path
   id="path9183"
   d="M134.9,163c-0.9,0-1.6,0.7-1.6,1.6V180c0,0.9,0.7,1.6,1.6,1.6h18c0.9,0,1.6-0.7,1.6-1.6v-15.3   c0-0.9-0.7-1.6-1.6-1.6H134.9z"
   fill="#FFFFFF" />
	<path
   id="path9185"
   d="M152.8,180.7h-18c-0.4,0-0.8-0.3-0.8-0.8v-15.3c0-0.4,0.3-0.8,0.8-0.8h18c0.4,0,0.8,0.3,0.8,0.8V180   C153.6,180.4,153.3,180.7,152.8,180.7z M134.9,164.1c-0.3,0-0.5,0.2-0.5,0.5V180c0,0.3,0.2,0.5,0.5,0.5h18c0.3,0,0.5-0.2,0.5-0.5   v-15.3c0-0.3-0.2-0.5-0.5-0.5H134.9z"
   fill="#3E4044" />
	<path
   id="path9187"
   d="M151.5,165.3h-15.3c-0.4,0-0.6,0.3-0.6,0.6v7.7c0,0.4,0.3,0.6,0.6,0.6h0.6v1.9c0,0.4,0.3,0.6,0.6,0.6h1.9   v1.9c0,0.4,0.3,0.6,0.6,0.6h7.7c0.4,0,0.6-0.3,0.6-0.6v-1.9h1.9c0.4,0,0.6-0.3,0.6-0.6v-1.9h0.6c0.4,0,0.6-0.3,0.6-0.6v-7.7   C152.2,165.6,151.9,165.3,151.5,165.3z"
   fill="#3E4044" />
	<path
   id="path9189"
   d="M137.5,178h-1.3c-0.4,0-0.6,0.3-0.6,0.6s0.3,0.6,0.6,0.6h1.3c0.4,0,0.6-0.3,0.6-0.6S137.8,178,137.5,178z"
   fill="#3E4044" />
	<path
   id="path9191"
   d="M151.5,178h-1.3c-0.4,0-0.6,0.3-0.6,0.6s0.3,0.6,0.6,0.6h1.3c0.4,0,0.6-0.3,0.6-0.6S151.9,178,151.5,178z"
   fill="#3E4044" />
	<path
   id="path9193"
   d="M138.7,171.6c0.4,0,0.6-0.3,0.6-0.6v-2.5c0-0.4-0.3-0.6-0.6-0.6s-0.6,0.3-0.6,0.6v2.6   C138.1,171.4,138.4,171.6,138.7,171.6z"
   fill="#FFFFFF" />
	<path
   id="path9195"
   d="M141.3,171.6c0.4,0,0.6-0.3,0.6-0.6v-2.5c0-0.4-0.3-0.6-0.6-0.6c-0.4,0-0.6,0.3-0.6,0.6v2.6   C140.7,171.4,141,171.6,141.3,171.6z"
   fill="#FFFFFF" />
	<path
   id="path9197"
   d="M143.9,171.6c0.4,0,0.6-0.3,0.6-0.6v-2.5c0-0.4-0.3-0.6-0.6-0.6c-0.4,0-0.6,0.3-0.6,0.6v2.6   C143.2,171.4,143.5,171.6,143.9,171.6z"
   fill="#FFFFFF" />
	<path
   id="path9199"
   d="M146.4,171.6c0.4,0,0.6-0.3,0.6-0.6v-2.5c0-0.4-0.3-0.6-0.6-0.6c-0.4,0-0.6,0.3-0.6,0.6v2.6   C145.8,171.4,146.1,171.6,146.4,171.6z"
   fill="#FFFFFF" />
	<path
   id="path9201"
   d="M149,171.6c0.4,0,0.6-0.3,0.6-0.6v-2.5c0-0.4-0.3-0.6-0.6-0.6s-0.6,0.3-0.6,0.6v2.6   C148.3,171.4,148.6,171.6,149,171.6z"
   fill="#FFFFFF" />
</g>
<g
   id="Devices__x2B__Hardware_Expanded_AQ_1_">
	<g
   id="g9215">
		<path
   id="path9205"
   d="M144.6,58v7.8h7.8V58H144.6z M151.7,65.1h-6.4v-6.4h6.4V65.1z"
   fill="#3E4044" />
		<path
   id="path9207"
   d="M141.6,62.2h2.4v-0.7h-2.4c-0.2-1.1-1.1-2-2.3-2c-1.3,0-2.4,1.1-2.4,2.4c0,1.3,1.1,2.4,2.4,2.4    C140.4,64.3,141.4,63.4,141.6,62.2z M137.6,61.9c0-0.9,0.8-1.7,1.7-1.7s1.7,0.8,1.7,1.7s-0.8,1.7-1.7,1.7S137.6,62.8,137.6,61.9z"
   fill="#3E4044" />
		<polygon
   id="polygon9209"
   points="135.3,55.1 135.3,55.7 155.8,55.7 155.8,67.6 135.3,67.6 135.3,68.3 156.4,68.3 156.4,55.1   "
   fill="#3E4044" />
		<path
   id="path9211"
   d="M131.3,70.9h3.3V52.4h-3.3V70.9z M131.9,53.1h2v17.2h-2V53.1z"
   fill="#3E4044" />
		<polygon
   id="polygon9213"
   points="153.1,70.6 151.4,70.6 151.4,68.9 150.8,68.9 150.8,70.6 149.4,70.6 149.4,68.9 148.7,68.9     148.7,70.6 147.3,70.6 147.3,68.9 146.7,68.9 146.7,70.6 145.2,70.6 145.2,68.9 144.6,68.9 144.6,70.6 143,70.6 143,68.9     142.3,68.9 142.3,71.3 153.7,71.3 153.7,68.9 153.1,68.9   "
   fill="#3E4044" />
	</g>
</g>
<rect
   id="rect9218"
   height="41"
   width="41"
   stroke-miterlimit="10"
   stroke-width="2"
   stroke="#006EA4"
   fill="none"
   y="7.6"
   x="123.4" />
<text
   style="-inkscape-font-specification:Metropolis;font-family:Metropolis;font-weight:normal;font-style:normal;font-stretch:normal;font-variant:normal;"
   font-size="12px"
   font-family="'Metropolis-Regular'"
   fill="#006EA4"
   transform="matrix(1 0 0 1 134.1039 31.4942)"
   id="text102_2_">VM</text>
<line
   id="line9221"
   y2="160.2"
   x2="143.9"
   y1="75.7"
   x1="143.9"
   stroke-miterlimit="10"
   stroke-width="2"
   stroke="#3E4044"
   fill="none" />
<rect
   id="rect9223"
   height="48.9"
   width="141.8"
   fill="#78BE43"
   y="172.3"
   x="267.1" />

<g
   id="g9252">
	<path
   id="path9230"
   d="M295.7,182.2h-18c-1.2,0-2.2-1-2.2-2.2v-15.3c0-1.2,1-2.2,2.2-2.2h18c1.2,0,2.2,1,2.2,2.2V180   C297.9,181.2,296.9,182.2,295.7,182.2z"
   fill="#3E4044" />
	<path
   id="path9232"
   d="M277.7,163c-0.9,0-1.6,0.7-1.6,1.6V180c0,0.9,0.7,1.6,1.6,1.6h18c0.9,0,1.6-0.7,1.6-1.6v-15.3   c0-0.9-0.7-1.6-1.6-1.6H277.7z"
   fill="#FFFFFF" />
	<path
   id="path9234"
   d="M295.7,180.7h-18c-0.4,0-0.8-0.3-0.8-0.8v-15.3c0-0.4,0.3-0.8,0.8-0.8h18c0.4,0,0.8,0.3,0.8,0.8V180   C296.4,180.4,296.1,180.7,295.7,180.7z M277.7,164.1c-0.3,0-0.5,0.2-0.5,0.5V180c0,0.3,0.2,0.5,0.5,0.5h18c0.3,0,0.5-0.2,0.5-0.5   v-15.3c0-0.3-0.2-0.5-0.5-0.5H277.7z"
   fill="#3E4044" />
	<path
   id="path9236"
   d="M294.3,165.3H279c-0.4,0-0.6,0.3-0.6,0.6v7.7c0,0.4,0.3,0.6,0.6,0.6h0.6v1.9c0,0.4,0.3,0.6,0.6,0.6h1.9v1.9   c0,0.4,0.3,0.6,0.6,0.6h7.7c0.4,0,0.6-0.3,0.6-0.6v-1.9h1.9c0.4,0,0.6-0.3,0.6-0.6v-1.9h0.6c0.4,0,0.6-0.3,0.6-0.6v-7.7   C295,165.6,294.7,165.3,294.3,165.3z"
   fill="#3E4044" />
	<path
   id="path9238"
   d="M280.3,178H279c-0.4,0-0.6,0.3-0.6,0.6s0.3,0.6,0.6,0.6h1.3c0.4,0,0.6-0.3,0.6-0.6S280.6,178,280.3,178z"
   fill="#3E4044" />
	<path
   id="path9240"
   d="M294.3,178h-1.3c-0.4,0-0.6,0.3-0.6,0.6s0.3,0.6,0.6,0.6h1.3c0.4,0,0.6-0.3,0.6-0.6S294.7,178,294.3,178z"
   fill="#3E4044" />
	<path
   id="path9242"
   d="M281.6,171.6c0.4,0,0.6-0.3,0.6-0.6v-2.5c0-0.4-0.3-0.6-0.6-0.6s-0.6,0.3-0.6,0.6v2.6   C280.9,171.4,281.2,171.6,281.6,171.6z"
   fill="#FFFFFF" />
	<path
   id="path9244"
   d="M284.1,171.6c0.4,0,0.6-0.3,0.6-0.6v-2.5c0-0.4-0.3-0.6-0.6-0.6c-0.4,0-0.6,0.3-0.6,0.6v2.6   C283.5,171.4,283.8,171.6,284.1,171.6z"
   fill="#FFFFFF" />
	<path
   id="path9246"
   d="M286.7,171.6c0.4,0,0.6-0.3,0.6-0.6v-2.5c0-0.4-0.3-0.6-0.6-0.6s-0.6,0.3-0.6,0.6v2.6   C286,171.4,286.3,171.6,286.7,171.6z"
   fill="#FFFFFF" />
	<path
   id="path9248"
   d="M289.2,171.6c0.4,0,0.6-0.3,0.6-0.6v-2.5c0-0.4-0.3-0.6-0.6-0.6c-0.4,0-0.6,0.3-0.6,0.6v2.6   C288.6,171.4,288.9,171.6,289.2,171.6z"
   fill="#FFFFFF" />
	<path
   id="path9250"
   d="M291.8,171.6c0.4,0,0.6-0.3,0.6-0.6v-2.5c0-0.4-0.3-0.6-0.6-0.6c-0.4,0-0.6,0.3-0.6,0.6v2.6   C291.2,171.4,291.4,171.6,291.8,171.6z"
   fill="#FFFFFF" />
</g>
<g
   id="Devices__x2B__Hardware_Expanded_AQ_3_">
	<g
   id="g9264">
		<path
   id="path9254"
   d="M287.4,58v7.8h7.8V58H287.4z M294.5,65.1h-6.4v-6.4h6.4V65.1z"
   fill="#3E4044" />
		<path
   id="path9256"
   d="M284.4,62.2h2.4v-0.7h-2.4c-0.2-1.1-1.1-2-2.3-2c-1.3,0-2.4,1.1-2.4,2.4c0,1.3,1.1,2.4,2.4,2.4    C283.3,64.3,284.2,63.4,284.4,62.2z M280.4,61.9c0-0.9,0.8-1.7,1.7-1.7c0.9,0,1.7,0.8,1.7,1.7s-0.8,1.7-1.7,1.7    C281.1,63.6,280.4,62.8,280.4,61.9z"
   fill="#3E4044" />
		<polygon
   id="polygon9258"
   points="278.1,55.1 278.1,55.7 298.6,55.7 298.6,67.6 278.1,67.6 278.1,68.3 299.3,68.3 299.3,55.1   "
   fill="#3E4044" />
		<path
   id="path9260"
   d="M274.1,70.9h3.3V52.4h-3.3V70.9z M274.7,53.1h2v17.2h-2V53.1z"
   fill="#3E4044" />
		<polygon
   id="polygon9262"
   points="295.9,70.6 294.3,70.6 294.3,68.9 293.6,68.9 293.6,70.6 292.2,70.6 292.2,68.9 291.5,68.9     291.5,70.6 290.1,70.6 290.1,68.9 289.5,68.9 289.5,70.6 288.1,70.6 288.1,68.9 287.4,68.9 287.4,70.6 285.8,70.6 285.8,68.9     285.2,68.9 285.2,71.3 296.6,71.3 296.6,68.9 295.9,68.9   "
   fill="#3E4044" />
	</g>
</g>
<rect
   id="rect9267"
   height="41"
   width="41"
   stroke-miterlimit="10"
   stroke-width="2"
   stroke="#006EA4"
   fill="none"
   y="7.6"
   x="266.2" />
<text
   style="-inkscape-font-specification:Metropolis;font-family:Metropolis;font-weight:normal;font-style:normal;font-stretch:normal;font-variant:normal;"
   font-size="12px"
   font-family="'Metropolis-Regular'"
   fill="#006EA4"
   transform="matrix(1 0 0 1 276.9219 31.4942)"
   id="text102_4_">VM</text>
<line
   id="line9270"
   y2="160.2"
   x2="286.7"
   y1="75.7"
   x1="286.7"
   stroke-miterlimit="10"
   stroke-width="2"
   stroke="#3E4044"
   fill="none" />
<g
   id="g9294">
	<path
   id="path9272"
   d="M397.5,182.2h-18c-1.2,0-2.2-1-2.2-2.2v-15.3c0-1.2,1-2.2,2.2-2.2h18c1.2,0,2.2,1,2.2,2.2V180   C399.7,181.2,398.7,182.2,397.5,182.2z"
   fill="#3E4044" />
	<path
   id="path9274"
   d="M379.5,163c-0.9,0-1.6,0.7-1.6,1.6V180c0,0.9,0.7,1.6,1.6,1.6h18c0.9,0,1.6-0.7,1.6-1.6v-15.3   c0-0.9-0.7-1.6-1.6-1.6H379.5z"
   fill="#FFFFFF" />
	<path
   id="path9276"
   d="M397.5,180.7h-18c-0.4,0-0.8-0.3-0.8-0.8v-15.3c0-0.4,0.3-0.8,0.8-0.8h18c0.4,0,0.8,0.3,0.8,0.8V180   C398.3,180.4,398,180.7,397.5,180.7z M379.5,164.1c-0.3,0-0.5,0.2-0.5,0.5V180c0,0.3,0.2,0.5,0.5,0.5h18c0.3,0,0.5-0.2,0.5-0.5   v-15.3c0-0.3-0.2-0.5-0.5-0.5H379.5z"
   fill="#3E4044" />
	<path
   id="path9278"
   d="M396.2,165.3h-15.3c-0.4,0-0.6,0.3-0.6,0.6v7.7c0,0.4,0.3,0.6,0.6,0.6h0.6v1.9c0,0.4,0.3,0.6,0.6,0.6h1.9   v1.9c0,0.4,0.3,0.6,0.6,0.6h7.7c0.4,0,0.6-0.3,0.6-0.6v-1.9h1.9c0.4,0,0.6-0.3,0.6-0.6v-1.9h0.6c0.4,0,0.6-0.3,0.6-0.6v-7.7   C396.8,165.6,396.6,165.3,396.2,165.3z"
   fill="#3E4044" />
	<path
   id="path9280"
   d="M382.1,178h-1.3c-0.4,0-0.6,0.3-0.6,0.6s0.3,0.6,0.6,0.6h1.3c0.4,0,0.6-0.3,0.6-0.6S382.5,178,382.1,178z"
   fill="#3E4044" />
	<path
   id="path9282"
   d="M396.2,178h-1.3c-0.4,0-0.6,0.3-0.6,0.6s0.3,0.6,0.6,0.6h1.3c0.4,0,0.6-0.3,0.6-0.6S396.6,178,396.2,178z"
   fill="#3E4044" />
	<path
   id="path9284"
   d="M383.4,171.6c0.4,0,0.6-0.3,0.6-0.6v-2.5c0-0.4-0.3-0.6-0.6-0.6c-0.4,0-0.6,0.3-0.6,0.6v2.6   C382.8,171.4,383.1,171.6,383.4,171.6z"
   fill="#FFFFFF" />
	<path
   id="path9286"
   d="M386,171.6c0.4,0,0.6-0.3,0.6-0.6v-2.5c0-0.4-0.3-0.6-0.6-0.6s-0.6,0.3-0.6,0.6v2.6   C385.3,171.4,385.6,171.6,386,171.6z"
   fill="#FFFFFF" />
	<path
   id="path9288"
   d="M388.5,171.6c0.4,0,0.6-0.3,0.6-0.6v-2.5c0-0.4-0.3-0.6-0.6-0.6s-0.6,0.3-0.6,0.6v2.6   C387.9,171.4,388.2,171.6,388.5,171.6z"
   fill="#FFFFFF" />
	<path
   id="path9290"
   d="M391.1,171.6c0.4,0,0.6-0.3,0.6-0.6v-2.5c0-0.4-0.3-0.6-0.6-0.6s-0.6,0.3-0.6,0.6v2.6   C390.4,171.4,390.7,171.6,391.1,171.6z"
   fill="#FFFFFF" />
	<path
   id="path9292"
   d="M393.6,171.6c0.4,0,0.6-0.3,0.6-0.6v-2.5c0-0.4-0.3-0.6-0.6-0.6s-0.6,0.3-0.6,0.6v2.6   C393,171.4,393.3,171.6,393.6,171.6z"
   fill="#FFFFFF" />
</g>
<g
   id="Devices__x2B__Hardware_Expanded_AQ_2_">
	<g
   id="g9306">
		<path
   id="path9296"
   d="M389.3,58v7.8h7.8V58H389.3z M396.4,65.1h-6.4v-6.4h6.4V65.1z"
   fill="#3E4044" />
		<path
   id="path9298"
   d="M386.2,62.2h2.4v-0.7h-2.4c-0.2-1.1-1.1-2-2.3-2c-1.3,0-2.4,1.1-2.4,2.4c0,1.3,1.1,2.4,2.4,2.4    C385.1,64.3,386.1,63.4,386.2,62.2z M382.2,61.9c0-0.9,0.8-1.7,1.7-1.7c0.9,0,1.7,0.8,1.7,1.7s-0.8,1.7-1.7,1.7    C383,63.6,382.2,62.8,382.2,61.9z"
   fill="#3E4044" />
		<polygon
   id="polygon9300"
   points="380,55.1 380,55.7 400.5,55.7 400.5,67.6 380,67.6 380,68.3 401.1,68.3 401.1,55.1   "
   fill="#3E4044" />
		<path
   id="path9302"
   d="M375.9,70.9h3.3V52.4h-3.3V70.9z M376.6,53.1h2v17.2h-2V53.1z"
   fill="#3E4044" />
		<polygon
   id="polygon9304"
   points="397.8,70.6 396.1,70.6 396.1,68.9 395.5,68.9 395.5,70.6 394.1,70.6 394.1,68.9 393.4,68.9     393.4,70.6 392,70.6 392,68.9 391.3,68.9 391.3,70.6 389.9,70.6 389.9,68.9 389.3,68.9 389.3,70.6 387.7,70.6 387.7,68.9     387,68.9 387,71.3 398.4,71.3 398.4,68.9 397.8,68.9   "
   fill="#3E4044" />
	</g>
</g>
<rect
   id="rect9309"
   height="41"
   width="41"
   stroke-miterlimit="10"
   stroke-width="2"
   stroke="#006EA4"
   fill="none"
   y="7.6"
   x="368" />
<text
   style="-inkscape-font-specification:Metropolis;font-family:Metropolis;font-weight:normal;font-style:normal;font-stretch:normal;font-variant:normal;"
   font-size="12px"
   font-family="'Metropolis-Regular'"
   fill="#006EA4"
   transform="matrix(1 0 0 1 378.7777 31.4942)"
   id="text102_3_">VM</text>
<line
   id="line9312"
   y2="160.2"
   x2="388.6"
   y1="75.7"
   x1="388.6"
   stroke-miterlimit="10"
   stroke-width="2"
   stroke="#3E4044"
   fill="none" />
<g
   id="g9336">
	<path
   id="path9314"
   d="M347,182.2h-18c-1.2,0-2.2-1-2.2-2.2v-15.3c0-1.2,1-2.2,2.2-2.2h18c1.2,0,2.2,1,2.2,2.2V180   C349.2,181.2,348.2,182.2,347,182.2z"
   fill="#3E4044" />
	<path
   id="path9316"
   d="M329,163c-0.9,0-1.6,0.7-1.6,1.6V180c0,0.9,0.7,1.6,1.6,1.6h18c0.9,0,1.6-0.7,1.6-1.6v-15.3   c0-0.9-0.7-1.6-1.6-1.6H329z"
   fill="#FFFFFF" />
	<path
   id="path9318"
   d="M347,180.7h-18c-0.4,0-0.8-0.3-0.8-0.8v-15.3c0-0.4,0.3-0.8,0.8-0.8h18c0.4,0,0.8,0.3,0.8,0.8V180   C347.7,180.4,347.4,180.7,347,180.7z M329,164.1c-0.3,0-0.5,0.2-0.5,0.5V180c0,0.3,0.2,0.5,0.5,0.5h18c0.3,0,0.5-0.2,0.5-0.5v-15.3   c0-0.3-0.2-0.5-0.5-0.5H329z"
   fill="#3E4044" />
	<path
   id="path9320"
   d="M345.7,165.3h-15.3c-0.4,0-0.6,0.3-0.6,0.6v7.7c0,0.4,0.3,0.6,0.6,0.6h0.6v1.9c0,0.4,0.3,0.6,0.6,0.6h1.9   v1.9c0,0.4,0.3,0.6,0.6,0.6h7.7c0.4,0,0.6-0.3,0.6-0.6v-1.9h1.9c0.4,0,0.6-0.3,0.6-0.6v-1.9h0.6c0.4,0,0.6-0.3,0.6-0.6v-7.7   C346.3,165.6,346,165.3,345.7,165.3z"
   fill="#3E4044" />
	<path
   id="path9322"
   d="M331.6,178h-1.3c-0.4,0-0.6,0.3-0.6,0.6s0.3,0.6,0.6,0.6h1.3c0.4,0,0.6-0.3,0.6-0.6S331.9,178,331.6,178z"
   fill="#3E4044" />
	<path
   id="path9324"
   d="M345.7,178h-1.3c-0.4,0-0.6,0.3-0.6,0.6s0.3,0.6,0.6,0.6h1.3c0.4,0,0.6-0.3,0.6-0.6S346,178,345.7,178z"
   fill="#3E4044" />
	<path
   id="path9326"
   d="M332.9,171.6c0.4,0,0.6-0.3,0.6-0.6v-2.5c0-0.4-0.3-0.6-0.6-0.6s-0.6,0.3-0.6,0.6v2.6   C332.2,171.4,332.5,171.6,332.9,171.6z"
   fill="#FFFFFF" />
	<path
   id="path9328"
   d="M335.4,171.6c0.4,0,0.6-0.3,0.6-0.6v-2.5c0-0.4-0.3-0.6-0.6-0.6s-0.6,0.3-0.6,0.6v2.6   C334.8,171.4,335.1,171.6,335.4,171.6z"
   fill="#FFFFFF" />
	<path
   id="path9330"
   d="M338,171.6c0.4,0,0.6-0.3,0.6-0.6v-2.5c0-0.4-0.3-0.6-0.6-0.6c-0.4,0-0.6,0.3-0.6,0.6v2.6   C337.3,171.4,337.6,171.6,338,171.6z"
   fill="#FFFFFF" />
	<path
   id="path9332"
   d="M340.6,171.6c0.4,0,0.6-0.3,0.6-0.6v-2.5c0-0.4-0.3-0.6-0.6-0.6s-0.6,0.3-0.6,0.6v2.6   C339.9,171.4,340.2,171.6,340.6,171.6z"
   fill="#FFFFFF" />
	<path
   id="path9334"
   d="M343.1,171.6c0.4,0,0.6-0.3,0.6-0.6v-2.5c0-0.4-0.3-0.6-0.6-0.6s-0.6,0.3-0.6,0.6v2.6   C342.5,171.4,342.8,171.6,343.1,171.6z"
   fill="#FFFFFF" />
</g>
<g
   id="Devices__x2B__Hardware_Expanded_AQ_4_">
	<g
   id="g9348">
		<path
   id="path9338"
   d="M338.7,58v7.8h7.8V58H338.7z M345.8,65.1h-6.4v-6.4h6.4V65.1z"
   fill="#3E4044" />
		<path
   id="path9340"
   d="M335.7,62.2h2.4v-0.7h-2.4c-0.2-1.1-1.1-2-2.3-2c-1.3,0-2.4,1.1-2.4,2.4c0,1.3,1.1,2.4,2.4,2.4    C334.6,64.3,335.5,63.4,335.7,62.2z M331.7,61.9c0-0.9,0.8-1.7,1.7-1.7c0.9,0,1.7,0.8,1.7,1.7s-0.8,1.7-1.7,1.7    C332.5,63.6,331.7,62.8,331.7,61.9z"
   fill="#3E4044" />
		<polygon
   id="polygon9342"
   points="329.4,55.1 329.4,55.7 349.9,55.7 349.9,67.6 329.4,67.6 329.4,68.3 350.6,68.3 350.6,55.1   "
   fill="#3E4044" />
		<path
   id="path9344"
   d="M325.4,70.9h3.3V52.4h-3.3V70.9z M326.1,53.1h2v17.2h-2V53.1z"
   fill="#3E4044" />
		<polygon
   id="polygon9346"
   points="347.2,70.6 345.6,70.6 345.6,68.9 344.9,68.9 344.9,70.6 343.5,70.6 343.5,68.9 342.9,68.9     342.9,70.6 341.5,70.6 341.5,68.9 340.8,68.9 340.8,70.6 339.4,70.6 339.4,68.9 338.7,68.9 338.7,70.6 337.1,70.6 337.1,68.9     336.5,68.9 336.5,71.3 347.9,71.3 347.9,68.9 347.2,68.9   "
   fill="#3E4044" />
	</g>
</g>
<rect
   id="rect9351"
   height="41"
   width="41"
   stroke-miterlimit="10"
   stroke-width="2"
   stroke="#006EA4"
   fill="none"
   y="7.6"
   x="317.5" />
<text
   style="-inkscape-font-specification:Metropolis;font-family:Metropolis;font-weight:normal;font-style:normal;font-stretch:normal;font-variant:normal;"
   font-size="12px"
   font-family="'Metropolis-Regular'"
   fill="#006EA4"
   transform="matrix(1 0 0 1 328.2381 31.4942)"
   id="text102_5_">VM</text>
<line
   id="line9354"
   y2="160.2"
   x2="338.1"
   y1="75.7"
   x1="338.1"
   stroke-miterlimit="10"
   stroke-width="2"
   stroke="#3E4044"
   fill="none" />
<text
   y="213.78082"
   x="68.222176"
   id="text2344_1_-1"
   enable-background="new    "
   style="font-style:normal;font-variant:normal;font-weight:normal;font-stretch:normal;font-size:14px;font-family:Metropolis;-inkscape-font-specification:'Metropolis, Normal';font-variant-ligatures:normal;font-variant-caps:normal;font-variant-numeric:normal;font-variant-east-asian:normal;fill:#ffffff;"><tspan
     y="213.78082"
     x="68.222176"
     id="tspan1023"
     sodipodi:role="line">Port Group</tspan></text><text
   id="text2344_1_-8"
   enable-background="new    "
   style="font-style:normal;font-variant:normal;font-weight:normal;font-stretch:normal;font-size:14px;font-family:Metropolis;-inkscape-font-specification:'Metropolis, Normal';font-variant-ligatures:normal;font-variant-caps:normal;font-variant-numeric:normal;font-variant-east-asian:normal;fill:#ffffff"
   x="292.57251"
   y="199.71994"><tspan
     y="199.71994"
     x="292.57251"
     id="tspan1051"
     sodipodi:role="line">Development</tspan></text><text
   style="font-style:normal;font-variant:normal;font-weight:normal;font-stretch:normal;font-size:14px;font-family:Metropolis;-inkscape-font-specification:'Metropolis, Normal';font-variant-ligatures:normal;font-variant-caps:normal;font-variant-numeric:normal;font-variant-east-asian:normal;fill:#ffffff"
   enable-background="new    "
   id="text2344_1_-1-0"
   x="300.32217"
   y="213.11205"><tspan
     sodipodi:role="line"
     id="tspan1023-6"
     x="300.32217"
     y="213.11205">Port Group</tspan></text></svg>
