<?xml version="1.0" encoding="UTF-8" standalone="no"?>
<svg
   xmlns:dc="http://purl.org/dc/elements/1.1/"
   xmlns:cc="http://creativecommons.org/ns#"
   xmlns:rdf="http://www.w3.org/1999/02/22-rdf-syntax-ns#"
   xmlns:svg="http://www.w3.org/2000/svg"
   xmlns="http://www.w3.org/2000/svg"
   xmlns:sodipodi="http://sodipodi.sourceforge.net/DTD/sodipodi-0.dtd"
   xmlns:inkscape="http://www.inkscape.org/namespaces/inkscape"
   height="214.60001"
   width="205.63098"
   version="1.1"
   id="Layer_1"
   x="0px"
   y="0px"
   viewBox="0 0 205.63097 214.60001"
   enable-background="new 0 0 265.2 263.9"
   xml:space="preserve"
   sodipodi:docname="VMNetworking_VirtualNIC.svg"
   inkscape:version="1.0 (4035a4f, 2020-05-01)"><metadata
   id="metadata9125"><rdf:RDF><cc:Work
       rdf:about=""><dc:format>image/svg+xml</dc:format><dc:type
         rdf:resource="http://purl.org/dc/dcmitype/StillImage" /><dc:title /></cc:Work></rdf:RDF></metadata><defs
   id="defs9123" /><sodipodi:namedview
   inkscape:snap-to-guides="false"
   inkscape:document-rotation="0"
   pagecolor="#ffffff"
   bordercolor="#666666"
   borderopacity="1"
   objecttolerance="10"
   gridtolerance="10"
   guidetolerance="10"
   inkscape:pageopacity="0"
   inkscape:pageshadow="2"
   inkscape:window-width="1750"
   inkscape:window-height="1004"
   id="namedview9121"
   showgrid="false"
   inkscape:zoom="3.7092264"
   inkscape:cx="102.81549"
   inkscape:cy="107.3"
   inkscape:window-x="0"
   inkscape:window-y="23"
   inkscape:window-maximized="0"
   inkscape:current-layer="Layer_1" />
<rect
   y="-7.8999996"
   x="-27.769016"
   fill="#ffffff"
   width="265.20001"
   height="263.89999"
   id="rect9065" />

<text
   y="61.238297"
   x="1.5439376"
   id="text2344_5_"
   font-family="'Metropolis-Regular'"
   font-size="14px"
   style="font-style:normal;font-variant:normal;font-weight:normal;font-stretch:normal;font-family:Metropolis;-inkscape-font-specification:Metropolis">Virtual NIC</text>
<rect
   x="63.830986"
   y="165.70001"
   fill="#218fcf"
   width="141.8"
   height="48.900002"
   id="rect9069" />
<text
   y="205.79181"
   x="95.258888"
   id="text2344_1_"
   enable-background="new    "
   style="font-style:normal;font-variant:normal;font-weight:normal;font-stretch:normal;font-size:14.6667px;font-family:Metropolis;-inkscape-font-specification:'Metropolis, Normal';font-variant-ligatures:normal;font-variant-caps:normal;font-variant-numeric:normal;font-variant-east-asian:normal;letter-spacing:0px;fill:#ffffff"><tspan
     sodipodi:role="line"
     id="tspan41"
     x="95.258888"
     y="205.79181">Port Group</tspan></text>
<g
   transform="translate(-11.769015,-7.8999996)"
   id="g9098">
	<path
   fill="#3e4044"
   d="m 116.7,183.5 h -18 c -1.2,0 -2.2,-1 -2.2,-2.2 V 166 c 0,-1.2 1,-2.2 2.2,-2.2 h 18 c 1.2,0 2.2,1 2.2,2.2 v 15.3 c 0.1,1.2 -0.9,2.2 -2.2,2.2 z"
   id="path9076" />
	<path
   fill="#ffffff"
   d="m 98.8,164.3 c -0.9,0 -1.6,0.7 -1.6,1.6 v 15.3 c 0,0.9 0.7,1.6 1.6,1.6 h 18 c 0.9,0 1.6,-0.7 1.6,-1.6 v -15.3 c 0,-0.9 -0.7,-1.6 -1.6,-1.6 z"
   id="path9078" />
	<path
   fill="#3e4044"
   d="m 116.7,182 h -18 c -0.4,0 -0.8,-0.3 -0.8,-0.8 v -15.3 c 0,-0.4 0.3,-0.8 0.8,-0.8 h 18 c 0.4,0 0.8,0.3 0.8,0.8 v 15.3 c 0,0.5 -0.3,0.8 -0.8,0.8 z M 98.8,165.4 c -0.3,0 -0.5,0.2 -0.5,0.5 v 15.3 c 0,0.3 0.2,0.5 0.5,0.5 h 18 c 0.3,0 0.5,-0.2 0.5,-0.5 v -15.3 c 0,-0.3 -0.2,-0.5 -0.5,-0.5 z"
   id="path9080" />
	<path
   fill="#3e4044"
   d="m 115.4,166.6 h -15.3 c -0.4,0 -0.6,0.3 -0.6,0.6 v 7.7 c 0,0.4 0.3,0.6 0.6,0.6 h 0.6 v 1.9 c 0,0.4 0.3,0.6 0.6,0.6 h 1.9 v 1.9 c 0,0.4 0.3,0.6 0.6,0.6 h 7.7 c 0.4,0 0.6,-0.3 0.6,-0.6 V 178 h 1.9 c 0.4,0 0.6,-0.3 0.6,-0.6 v -1.9 h 0.6 c 0.4,0 0.6,-0.3 0.6,-0.6 v -7.7 c 0.3,-0.3 0,-0.6 -0.4,-0.6 z"
   id="path9082" />
	<path
   fill="#3e4044"
   d="M 101.3,179.3 H 100 c -0.4,0 -0.6,0.3 -0.6,0.6 0,0.3 0.3,0.6 0.6,0.6 h 1.3 c 0.4,0 0.6,-0.3 0.6,-0.6 0,-0.3 -0.2,-0.6 -0.6,-0.6 z"
   id="path9084" />
	<path
   fill="#3e4044"
   d="m 115.4,179.3 h -1.3 c -0.4,0 -0.6,0.3 -0.6,0.6 0,0.3 0.3,0.6 0.6,0.6 h 1.3 c 0.4,0 0.6,-0.3 0.6,-0.6 0,-0.3 -0.2,-0.6 -0.6,-0.6 z"
   id="path9086" />
	<path
   fill="#ffffff"
   d="m 102.6,172.9 c 0.4,0 0.6,-0.3 0.6,-0.6 v -2.5 c 0,-0.4 -0.3,-0.6 -0.6,-0.6 -0.4,0 -0.6,0.3 -0.6,0.6 v 2.6 c 0,0.3 0.3,0.5 0.6,0.5 z"
   id="path9088" />
	<path
   fill="#ffffff"
   d="m 105.2,172.9 c 0.4,0 0.6,-0.3 0.6,-0.6 v -2.5 c 0,-0.4 -0.3,-0.6 -0.6,-0.6 -0.4,0 -0.6,0.3 -0.6,0.6 v 2.6 c 0,0.3 0.3,0.5 0.6,0.5 z"
   id="path9090" />
	<path
   fill="#ffffff"
   d="m 107.8,172.9 c 0.4,0 0.6,-0.3 0.6,-0.6 v -2.5 c 0,-0.4 -0.3,-0.6 -0.6,-0.6 -0.3,0 -0.6,0.3 -0.6,0.6 v 2.6 c -0.1,0.3 0.2,0.5 0.6,0.5 z"
   id="path9092" />
	<path
   fill="#ffffff"
   d="m 110.3,172.9 c 0.4,0 0.6,-0.3 0.6,-0.6 v -2.5 c 0,-0.4 -0.3,-0.6 -0.6,-0.6 -0.3,0 -0.6,0.3 -0.6,0.6 v 2.6 c 0,0.3 0.3,0.5 0.6,0.5 z"
   id="path9094" />
	<path
   fill="#ffffff"
   d="m 112.9,172.9 c 0.4,0 0.6,-0.3 0.6,-0.6 v -2.5 c 0,-0.4 -0.3,-0.6 -0.6,-0.6 -0.4,0 -0.6,0.3 -0.6,0.6 v 2.6 c -0.1,0.3 0.2,0.5 0.6,0.5 z"
   id="path9096" />
</g>
<g
   transform="translate(-11.769015,-7.8999996)"
   id="Devices__x2B__Hardware_Expanded_AQ">
	<g
   id="g9110">
		<path
   fill="#3e4044"
   d="m 108.5,59.3 v 7.8 h 7.8 v -7.8 z m 7.1,7.1 h -6.4 V 60 h 6.4 z"
   id="path9100" />
		<path
   fill="#3e4044"
   d="m 105.5,63.5 h 2.4 v -0.7 h -2.4 c -0.2,-1.1 -1.1,-2 -2.3,-2 -1.3,0 -2.4,1.1 -2.4,2.4 0,1.3 1.1,2.4 2.4,2.4 1.1,0 2.1,-0.9 2.3,-2.1 z m -4,-0.3 c 0,-0.9 0.8,-1.7 1.7,-1.7 0.9,0 1.7,0.8 1.7,1.7 0,0.9 -0.8,1.7 -1.7,1.7 -0.9,0 -1.7,-0.8 -1.7,-1.7 z"
   id="path9102" />
		<polygon
   fill="#3e4044"
   points="99.2,68.9 99.2,69.6 120.3,69.6 120.3,56.4 99.2,56.4 99.2,57 119.7,57 119.7,68.9 "
   id="polygon9104" />
		<path
   fill="#3e4044"
   d="m 95.2,72.2 h 3.3 V 53.7 h -3.3 z m 0.6,-17.8 h 2 v 17.2 h -2 z"
   id="path9106" />
		<polygon
   fill="#3e4044"
   points="110.6,71.9 109.1,71.9 109.1,70.2 108.5,70.2 108.5,71.9 106.9,71.9 106.9,70.2 106.2,70.2 106.2,72.6 117.6,72.6 117.6,70.2 117,70.2 117,71.9 115.3,71.9 115.3,70.2 114.7,70.2 114.7,71.9 113.3,71.9 113.3,70.2 112.6,70.2 112.6,71.9 111.2,71.9 111.2,70.2 110.6,70.2 "
   id="polygon9108" />
	</g>
</g>
<rect
   x="75.530991"
   y="1"
   fill="none"
   stroke="#006ea4"
   stroke-width="2"
   stroke-miterlimit="10"
   width="41"
   height="41"
   id="rect9113" />
<text
   y="24.897402"
   x="86.232887"
   id="text102_1_"
   fill="#006ea4"
   font-family="'Metropolis-Regular'"
   font-size="12px"
   style="font-style:normal;font-variant:normal;font-weight:normal;font-stretch:normal;font-family:Metropolis;-inkscape-font-specification:Metropolis">VM</text>

<line
   fill="none"
   stroke="#3e4044"
   stroke-width="2"
   stroke-miterlimit="10"
   x1="96.030991"
   y1="69.099998"
   x2="96.030991"
   y2="153.60001"
   id="line9118" />
<text
   style="font-style:normal;font-variant:normal;font-weight:normal;font-stretch:normal;font-size:14px;font-family:Metropolis;-inkscape-font-specification:'Metropolis, Normal';font-variant-ligatures:normal;font-variant-caps:normal;font-variant-numeric:normal;font-variant-east-asian:normal"
   font-size="14px"
   font-family="'Metropolis-Regular'"
   id="text2344_5_-7"
   x="3.6500015"
   y="161.26141"><tspan
     sodipodi:role="line"
     id="tspan58"
     x="3.6500015"
     y="161.26141">Virtual Port</tspan></text><text
   style="font-style:normal;font-variant:normal;font-weight:normal;font-stretch:normal;font-size:14.6667px;font-family:Metropolis;-inkscape-font-specification:'Metropolis, Normal';font-variant-ligatures:normal;font-variant-caps:normal;font-variant-numeric:normal;font-variant-east-asian:normal;letter-spacing:0px;fill:#ffffff"
   enable-background="new    "
   id="text2344_1_-1"
   x="95.856781"
   y="191.91467"><tspan
     y="191.91467"
     x="95.856781"
     id="tspan868"
     sodipodi:role="line">Production</tspan></text></svg>
