<?xml version="1.0" encoding="UTF-8" standalone="no"?>
<svg
   xmlns:dc="http://purl.org/dc/elements/1.1/"
   xmlns:cc="http://creativecommons.org/ns#"
   xmlns:rdf="http://www.w3.org/1999/02/22-rdf-syntax-ns#"
   xmlns:svg="http://www.w3.org/2000/svg"
   xmlns="http://www.w3.org/2000/svg"
   xmlns:sodipodi="http://sodipodi.sourceforge.net/DTD/sodipodi-0.dtd"
   xmlns:inkscape="http://www.inkscape.org/namespaces/inkscape"
   version="1.1"
   id="Layer_1"
   x="0px"
   y="0px"
   viewBox="0 0 604 357.1"
   enable-background="new 0 0 604 357.1"
   xml:space="preserve"
   sodipodi:docname="VMware Virtual Cloud Network Additional Products.svg"
   inkscape:version="1.0 (4035a4fb49, 2020-05-01)"><metadata
   id="metadata2167"><rdf:RDF><cc:Work
       rdf:about=""><dc:format>image/svg+xml</dc:format><dc:type
         rdf:resource="http://purl.org/dc/dcmitype/StillImage" /></cc:Work></rdf:RDF></metadata><defs
   id="defs2165" /><sodipodi:namedview
   inkscape:document-rotation="0"
   pagecolor="#ffffff"
   bordercolor="#666666"
   borderopacity="1"
   objecttolerance="10"
   gridtolerance="10"
   guidetolerance="10"
   inkscape:pageopacity="0"
   inkscape:pageshadow="2"
   inkscape:window-width="1920"
   inkscape:window-height="1017"
   id="namedview2163"
   showgrid="false"
   inkscape:zoom="1.8145695"
   inkscape:cx="302"
   inkscape:cy="178.55"
   inkscape:window-x="1912"
   inkscape:window-y="-8"
   inkscape:window-maximized="1"
   inkscape:current-layer="g2111" />
<rect
   y="220.8"
   fill="#ECECEB"
   width="604"
   height="136.3"
   id="rect1983" />
<rect
   y="84.4"
   fill="#78BE43"
   width="604"
   height="136.3"
   id="rect1985" />
<path
   fill="#1295D3"
   d="M65.8,280.8c-6,0-11.1,4-13.4,9.8c-1.5-0.7-3.2-1.1-5-1.2c-0.1,0-0.2,0-0.3,0c-5.9,0-10.8,4.1-12,9.8  c-0.8-0.2-1.6-0.4-2.4-0.4c-0.1,0-0.1,0-0.2,0c-5.3,0-9.6,4.3-9.8,9.6c-0.1,5.4,4.9,10.4,10.2,10.5c0.1,0,0.6,0,1.1,0  c6.5,0,37.4-0.1,43.9-0.1c0.6,0,1,0,1.1,0c0.1,0,0.1,0,0.2,0c5.5,0,10.1-5.2,10.2-11.6c0.1-6.3-3.9-11.6-9.3-12.1  c-0.7-7.9-6.7-14.1-14.1-14.3C66,280.8,65.8,280.8,65.8,280.8L65.8,280.8z"
   id="path1987" />
<g
   id="Clouds__x2B__Infrastructure_Expanded_AQ_1_">
	<path
   fill="#1295D3"
   d="M187.7,282.6c0.1,0,0.2,0,0.3,0c6.4,0.1,11.7,5.6,12.4,12.7l0.1,1.5l1.5,0.1c4.4,0.4,7.8,4.9,7.7,10.3   c-0.1,5.5-3.9,9.9-8.4,9.9c-0.1,0-0.1,0-0.2,0c-0.1,0-0.6,0-1.2,0c-3.2,0-12.7,0-21.9,0.1c-9.2,0-18.8,0.1-22,0.1c-0.6,0-1,0-1.1,0   c-4.5-0.1-8.6-4.4-8.5-8.7c0.1-4.4,3.7-7.9,8-7.9c0.1,0,0.1,0,0.2,0c0.7,0,1.3,0.1,2,0.3l1.8,0.5l0.4-1.8c1.1-4.9,5.4-8.4,10.3-8.4   c0.1,0,0.1,0,0.3,0c1.5,0.1,3,0.4,4.3,1l1.7,0.8l0.7-1.8C178,285.9,182.6,282.6,187.7,282.6 M187.7,280.8c-6,0-11.1,4-13.4,9.8   c-1.5-0.7-3.2-1.1-5-1.2c-0.1,0-0.2,0-0.3,0c-5.9,0-10.8,4.1-12,9.8c-0.8-0.2-1.6-0.4-2.4-0.4c-0.1,0-0.1,0-0.2,0   c-5.3,0-9.6,4.3-9.8,9.6c-0.1,5.4,4.9,10.4,10.2,10.5c0.1,0,0.6,0,1.1,0c6.5,0,37.4-0.1,43.9-0.1c0.6,0,1,0,1.1,0   c0.1,0,0.1,0,0.2,0c5.5,0,10.1-5.2,10.2-11.6c0.1-6.3-3.9-11.6-9.3-12.1c-0.7-7.9-6.7-14.1-14.1-14.3   C188,280.8,187.8,280.8,187.7,280.8L187.7,280.8z"
   id="path1989" />
</g>
<g
   id="Clouds__x2B__Infrastructure_Expanded_AQ">
	<path
   fill="#1295D3"
   d="M324.1,292.5c-0.7-7.9-6.7-14.1-14.1-14.3c-0.1,0-0.2,0-0.4,0c-6,0-11.1,4-13.4,9.8c-1.5-0.7-3.2-1.1-5-1.2   c-0.1,0-0.2,0-0.3,0c-5.9,0-10.8,4.1-12,9.8c-0.8-0.2-1.6-0.4-2.4-0.4c-0.1,0-0.1,0-0.2,0c-5.3,0-9.6,4.3-9.8,9.6   c-0.1,5.4,4.9,10.4,10.2,10.5c0.1,0,0.6,0,1.1,0c6.5,0,37.4-0.1,43.9-0.1c0.6,0,1,0,1.1,0c0.1,0,0.1,0,0.2,0   c5.5,0,10.1-5.2,10.2-11.6C333.5,298.3,329.4,293,324.1,292.5z M276.9,314.7c-4.5-0.1-8.6-4.4-8.5-8.7c0.1-4.4,3.7-7.9,8-7.9   c0.1,0,0.1,0,0.2,0c0.7,0,1.3,0.1,2,0.3l1.8,0.5l0.4-1.8c1.1-4.9,5.4-8.4,10.3-8.4c0.1,0,0.1,0,0.3,0c1.5,0.1,3,0.4,4.3,1l1.4,0.7   v24.3c-8.2,0-16.1,0.1-19.1,0.1C277.4,314.7,276.9,314.7,276.9,314.7z"
   id="path1992" />
</g>
<g
   id="g2035">
	<rect
   x="400.3"
   y="275.9"
   fill="#1295D3"
   width="17.6"
   height="1.8"
   id="rect1995" />
	<rect
   x="426.5"
   y="275.9"
   fill="#1295D3"
   width="17.6"
   height="1.8"
   id="rect1997" />
	<g
   id="g2031">
		<g
   id="g2009">
			<rect
   x="428.3"
   y="288.7"
   fill="#1295D3"
   width="1.8"
   height="7"
   id="rect1999" />
			<rect
   x="421.3"
   y="288.7"
   fill="#1295D3"
   width="1.8"
   height="7"
   id="rect2001" />
			<rect
   x="414.3"
   y="288.7"
   fill="#1295D3"
   width="1.8"
   height="7"
   id="rect2003" />
			<rect
   x="407.2"
   y="288.7"
   fill="#1295D3"
   width="1.8"
   height="7"
   id="rect2005" />
			<rect
   x="400.2"
   y="288.7"
   fill="#1295D3"
   width="1.8"
   height="7"
   id="rect2007" />
		</g>
		<g
   id="g2029">
			<rect
   x="428.3"
   y="304.1"
   fill="#1295D3"
   width="1.8"
   height="7"
   id="rect2011" />
			<rect
   x="435.4"
   y="288.7"
   fill="#1295D3"
   width="1.8"
   height="7"
   id="rect2013" />
			<rect
   x="435.4"
   y="304.1"
   fill="#1295D3"
   width="1.8"
   height="7"
   id="rect2015" />
			<rect
   x="442.4"
   y="288.7"
   fill="#1295D3"
   width="1.8"
   height="7"
   id="rect2017" />
			<rect
   x="442.4"
   y="304.1"
   fill="#1295D3"
   width="1.8"
   height="7"
   id="rect2019" />
			<rect
   x="421.3"
   y="304.1"
   fill="#1295D3"
   width="1.8"
   height="7"
   id="rect2021" />
			<rect
   x="414.3"
   y="304.1"
   fill="#1295D3"
   width="1.8"
   height="7"
   id="rect2023" />
			<rect
   x="407.2"
   y="304.1"
   fill="#1295D3"
   width="1.8"
   height="7"
   id="rect2025" />
			<rect
   x="400.2"
   y="304.1"
   fill="#1295D3"
   width="1.8"
   height="7"
   id="rect2027" />
		</g>
	</g>
	<path
   fill="#1295D3"
   d="M450.1,315.2v-31.4v-2v-12.1h-6v-2.5h-17.6v2.5h-32.6v12.1v2v31.4h-5.3v1.8h66.8v-1.8H450.1z M448.4,281.8   h-48.1v2h48.1v31.4h-52.7v-43.7h52.7V281.8z"
   id="path2033" />
</g>
<g
   id="Migration__x2B__Recovery_Expanded_AQ">
	<g
   id="g2095">
		<polygon
   fill="#1295D3"
   points="570.3,316.3 570.3,279.2 542.2,279.2 542.2,312.8 543.9,312.8 543.9,281 568.6,281 568.6,316.3     519.4,316.3 519.4,253 542.3,253 542.3,275.9 544,275.9 544,251.2 517.7,251.2 517.7,316.3 514.1,316.3 514.1,318 573.9,318     573.9,316.3   "
   id="polygon2037" />
		<rect
   x="522.9"
   y="256.4"
   fill="#1295D3"
   width="1.8"
   height="1.8"
   id="rect2039" />
		<rect
   x="529.9"
   y="256.4"
   fill="#1295D3"
   width="1.8"
   height="1.8"
   id="rect2041" />
		<rect
   x="537"
   y="256.4"
   fill="#1295D3"
   width="1.8"
   height="1.8"
   id="rect2043" />
		<rect
   x="522.9"
   y="263.5"
   fill="#1295D3"
   width="1.8"
   height="1.8"
   id="rect2045" />
		<rect
   x="529.9"
   y="263.5"
   fill="#1295D3"
   width="1.8"
   height="1.8"
   id="rect2047" />
		<rect
   x="537"
   y="263.5"
   fill="#1295D3"
   width="1.8"
   height="1.8"
   id="rect2049" />
		<rect
   x="522.9"
   y="270.5"
   fill="#1295D3"
   width="1.8"
   height="1.8"
   id="rect2051" />
		<rect
   x="529.9"
   y="270.5"
   fill="#1295D3"
   width="1.8"
   height="1.8"
   id="rect2053" />
		<rect
   x="537"
   y="270.5"
   fill="#1295D3"
   width="1.8"
   height="1.8"
   id="rect2055" />
		<rect
   x="522.9"
   y="277.5"
   fill="#1295D3"
   width="1.8"
   height="1.8"
   id="rect2057" />
		<rect
   x="529.9"
   y="277.5"
   fill="#1295D3"
   width="1.8"
   height="1.8"
   id="rect2059" />
		<rect
   x="537"
   y="277.5"
   fill="#1295D3"
   width="1.8"
   height="1.8"
   id="rect2061" />
		<rect
   x="522.9"
   y="284.6"
   fill="#1295D3"
   width="1.8"
   height="1.8"
   id="rect2063" />
		<rect
   x="529.9"
   y="284.6"
   fill="#1295D3"
   width="1.8"
   height="1.8"
   id="rect2065" />
		<rect
   x="537"
   y="284.6"
   fill="#1295D3"
   width="1.8"
   height="1.8"
   id="rect2067" />
		<rect
   x="522.9"
   y="291.6"
   fill="#1295D3"
   width="1.8"
   height="1.8"
   id="rect2069" />
		<rect
   x="529.9"
   y="291.6"
   fill="#1295D3"
   width="1.8"
   height="1.8"
   id="rect2071" />
		<rect
   x="537"
   y="291.6"
   fill="#1295D3"
   width="1.8"
   height="1.8"
   id="rect2073" />
		<rect
   x="522.9"
   y="298.6"
   fill="#1295D3"
   width="1.8"
   height="1.8"
   id="rect2075" />
		<rect
   x="529.9"
   y="298.6"
   fill="#1295D3"
   width="1.8"
   height="1.8"
   id="rect2077" />
		<rect
   x="537"
   y="298.6"
   fill="#1295D3"
   width="1.8"
   height="1.8"
   id="rect2079" />
		<rect
   x="522.9"
   y="305.7"
   fill="#1295D3"
   width="1.8"
   height="1.8"
   id="rect2081" />
		<rect
   x="529.9"
   y="305.7"
   fill="#1295D3"
   width="1.8"
   height="1.8"
   id="rect2083" />
		<rect
   x="537"
   y="305.7"
   fill="#1295D3"
   width="1.8"
   height="1.8"
   id="rect2085" />
		<rect
   x="549.3"
   y="285.8"
   fill="#1295D3"
   width="14.1"
   height="1.8"
   id="rect2087" />
		<rect
   x="549.3"
   y="292.9"
   fill="#1295D3"
   width="14.1"
   height="1.8"
   id="rect2089" />
		<rect
   x="549.3"
   y="299.9"
   fill="#1295D3"
   width="14.1"
   height="1.8"
   id="rect2091" />
		<rect
   x="549.3"
   y="306.9"
   fill="#1295D3"
   width="14.1"
   height="1.8"
   id="rect2093" />
	</g>
</g>
<text
   id="text186_2_"
   transform="matrix(1 0 0 1 17.6297 338.1096)"
   fill="#020202"
   font-family="'Metropolis-Regular'"
   font-size="12px"
   style="-inkscape-font-specification:Metropolis;font-family:Metropolis;font-weight:normal;font-style:normal;font-stretch:normal;font-variant:normal;">Private Cloud</text>
<text
   id="text186_1_"
   transform="matrix(1 0 0 1 142.0324 338.1096)"
   fill="#020202"
   font-family="'Metropolis-Regular'"
   font-size="12px"
   style="-inkscape-font-specification:Metropolis;font-family:Metropolis;font-weight:normal;font-style:normal;font-stretch:normal;font-variant:normal;">Public Cloud</text>
<text
   id="text186_9_"
   transform="translate(228.0261,255.0983)"
   fill="#020202"
   font-family="Metropolis-Regular"
   font-size="14px"
   style="line-height:0;-inkscape-font-specification:Metropolis;font-family:Metropolis;font-weight:normal;font-style:normal;font-stretch:normal;font-variant:normal;">Virtual Cloud Network</text>
<text
   id="text186_6_"
   transform="matrix(1 0 0 1 184.5708 110.2956)"
   fill="#FFFFFF"
   font-family="'Metropolis-Regular'"
   font-size="14px"
   style="-inkscape-font-specification:Metropolis;font-family:Metropolis;font-weight:normal;font-style:normal;font-stretch:normal;font-variant:normal;">Network Virtualization and Security</text>
<rect
   fill="#218FCF"
   width="604"
   height="84.4"
   id="rect2102" />
<text
   id="text186_14_"
   transform="matrix(1 0 0 1 202.8409 20.2033)"
   fill="#FFFFFF"
   font-family="'Metropolis-Regular'"
   font-size="14px"
   style="-inkscape-font-specification:Metropolis;font-family:Metropolis;font-weight:normal;font-style:normal;font-stretch:normal;font-variant:normal;">Management and Automation</text>
<text
   id="text186_3_"
   transform="matrix(1 0 0 1 262.2479 338.1096)"
   fill="#020202"
   font-family="'Metropolis-Regular'"
   font-size="12px"
   style="-inkscape-font-specification:Metropolis;font-family:Metropolis;font-weight:normal;font-style:normal;font-stretch:normal;font-variant:normal;">Hybrid Cloud</text>
<text
   id="text186_4_"
   transform="matrix(1 0 0 1 387.7901 338.1096)"
   fill="#020202"
   font-family="'Metropolis-Regular'"
   font-size="12px"
   style="-inkscape-font-specification:Metropolis;font-family:Metropolis;font-weight:normal;font-style:normal;font-stretch:normal;font-variant:normal;">Data Center</text>
<text
   id="text186_5_"
   transform="matrix(1 0 0 1 506.0608 338.1096)"
   fill="#020202"
   font-family="'Metropolis-Regular'"
   font-size="12px"
   style="-inkscape-font-specification:Metropolis;font-family:Metropolis;font-weight:normal;font-style:normal;font-stretch:normal;font-variant:normal;">Branch/Edge</text>
<g
   id="g2123">
	<g
   id="g2111">
		
			<text
   y="193.0106"
   x="271.2565"
   id="text186_12_"
   fill="#ffffff"
   font-family="'Metropolis-Regular'"
   font-size="12px"
   style="font-style:normal;font-variant:normal;font-weight:normal;font-stretch:normal;font-family:Metropolis;-inkscape-font-specification:Metropolis">VMware SD-WAN </text>
		<rect
   x="248.6"
   y="173.8"
   fill="none"
   stroke="#FFFFFF"
   stroke-miterlimit="10"
   width="148.8"
   height="31.7"
   id="rect2109" />
	</g>
	<g
   id="g2116">
		
			<text
   id="text186_13_"
   transform="matrix(1 0 0 1 443.3294 193.0106)"
   fill="#FFFFFF"
   font-family="'Metropolis-Regular'"
   font-size="12px"
   style="-inkscape-font-specification:Metropolis;font-family:Metropolis;font-weight:normal;font-style:normal;font-stretch:normal;font-variant:normal;">Hybrid Cloud Extension</text>
		<rect
   x="436.2"
   y="173.8"
   fill="none"
   stroke="#FFFFFF"
   stroke-miterlimit="10"
   width="148.8"
   height="31.7"
   id="rect2114" />
	</g>
	<g
   id="g2121">
		
			<text
   id="text186_11_"
   transform="matrix(1 0 0 1 28.0984 193.0106)"
   fill="#FFFFFF"
   font-family="'Metropolis-Regular'"
   font-size="12px"
   style="-inkscape-font-specification:Metropolis;font-family:Metropolis;font-weight:normal;font-style:normal;font-stretch:normal;font-variant:normal;">NSX Advanced Load Balancer</text>
		<rect
   x="17.8"
   y="173.8"
   fill="none"
   stroke="#FFFFFF"
   stroke-miterlimit="10"
   width="191.9"
   height="31.7"
   id="rect2119" />
	</g>
</g>
<g
   id="g2128">
	
		<text
   id="text186_15_"
   transform="matrix(1 0 0 1 26.2074 53.4555)"
   fill="#FFFFFF"
   font-family="'Metropolis-Regular'"
   font-size="12px"
   style="-inkscape-font-specification:Metropolis;font-family:Metropolis;font-weight:normal;font-style:normal;font-stretch:normal;font-variant:normal;">NSX Intelligence</text>
	<rect
   x="17.6"
   y="34.2"
   fill="none"
   stroke="#FFFFFF"
   stroke-miterlimit="10"
   width="111.4"
   height="31.7"
   id="rect2126" />
</g>
<g
   id="g2133">
	
		<text
   id="text186_17_"
   transform="matrix(1 0 0 1 479.3006 53.4558)"
   fill="#FFFFFF"
   font-family="'Metropolis-Regular'"
   font-size="12px"
   style="-inkscape-font-specification:Metropolis;font-family:Metropolis;font-weight:normal;font-style:normal;font-stretch:normal;font-variant:normal;">Tanzu Service Mesh</text>
	<rect
   x="472"
   y="34.2"
   fill="none"
   stroke="#FFFFFF"
   stroke-miterlimit="10"
   width="127.4"
   height="31.7"
   id="rect2131" />
</g>
<g
   id="g2138">
	
		<text
   id="text186_16_"
   transform="matrix(1 0 0 1 330.1963 53.4558)"
   fill="#FFFFFF"
   font-family="'Metropolis-Regular'"
   font-size="12px"
   style="-inkscape-font-specification:Metropolis;font-family:Metropolis;font-weight:normal;font-style:normal;font-stretch:normal;font-variant:normal;">vRealize Automation</text>
	<rect
   x="322.3"
   y="34.2"
   fill="none"
   stroke="#FFFFFF"
   stroke-miterlimit="10"
   width="133"
   height="31.7"
   id="rect2136" />
</g>
<g
   id="g2143">
	
		<text
   id="text186_18_"
   transform="matrix(1 0 0 1 155.1529 53.4558)"
   fill="#FFFFFF"
   font-family="'Metropolis-Regular'"
   font-size="12px"
   style="-inkscape-font-specification:Metropolis;font-family:Metropolis;font-weight:normal;font-style:normal;font-stretch:normal;font-variant:normal;">vRealize Network Insight</text>
	<rect
   x="145.7"
   y="34.2"
   fill="none"
   stroke="#FFFFFF"
   stroke-miterlimit="10"
   width="160"
   height="31.7"
   id="rect2141" />
</g>
<g
   id="g2160">
	<g
   id="g2148">
		
			<text
   id="text186_7_"
   transform="matrix(1 0 0 1 74.3548 151.1071)"
   fill="#FFFFFF"
   font-family="'Metropolis-Regular'"
   font-size="12px"
   style="-inkscape-font-specification:Metropolis;font-family:Metropolis;font-weight:normal;font-style:normal;font-stretch:normal;font-variant:normal;">NSX Data Center</text>
		<rect
   x="52.5"
   y="131.8"
   fill="none"
   stroke="#FFFFFF"
   stroke-miterlimit="10"
   width="140.5"
   height="31.7"
   id="rect2146" />
	</g>
	<g
   id="g2153">
		
			<text
   id="text186_10_"
   transform="matrix(1 0 0 1 402.1757 151.1071)"
   fill="#FFFFFF"
   font-family="'Metropolis-Regular'"
   font-size="12px"
   style="-inkscape-font-specification:Metropolis;font-family:Metropolis;font-weight:normal;font-style:normal;font-stretch:normal;font-variant:normal;">NSX Distributed IDS/IPS</text>
		<rect
   x="393.6"
   y="131.8"
   fill="none"
   stroke="#FFFFFF"
   stroke-miterlimit="10"
   width="156.7"
   height="31.7"
   id="rect2151" />
	</g>
	<g
   id="g2158">
		
			<text
   id="text186_8_"
   transform="matrix(1 0 0 1 262.3538 151.1071)"
   fill="#FFFFFF"
   font-family="'Metropolis-Regular'"
   font-size="12px"
   style="-inkscape-font-specification:Metropolis;font-family:Metropolis;font-weight:normal;font-style:normal;font-stretch:normal;font-variant:normal;">NSX Cloud</text>
		<rect
   x="246.7"
   y="131.8"
   fill="none"
   stroke="#FFFFFF"
   stroke-miterlimit="10"
   width="93.1"
   height="31.7"
   id="rect2156" />
	</g>
</g>
</svg>
