<?xml version="1.0" encoding="UTF-8" standalone="no"?>
<svg
   xmlns:dc="http://purl.org/dc/elements/1.1/"
   xmlns:cc="http://creativecommons.org/ns#"
   xmlns:rdf="http://www.w3.org/1999/02/22-rdf-syntax-ns#"
   xmlns:svg="http://www.w3.org/2000/svg"
   xmlns="http://www.w3.org/2000/svg"
   xmlns:sodipodi="http://sodipodi.sourceforge.net/DTD/sodipodi-0.dtd"
   xmlns:inkscape="http://www.inkscape.org/namespaces/inkscape"
   inkscape:version="1.0 (4035a4f, 2020-05-01)"
   sodipodi:docname="slide_07.svg"
   xml:space="preserve"
   enable-background="new 0 0 707.8 247.7"
   viewBox="0 0 707.8 247.7"
   y="0px"
   x="0px"
   id="Layer_1"
   version="1.1"><metadata
   id="metadata1836"><rdf:RDF><cc:Work
       rdf:about=""><dc:format>image/svg+xml</dc:format><dc:type
         rdf:resource="http://purl.org/dc/dcmitype/StillImage" /></cc:Work></rdf:RDF></metadata><defs
   id="defs1834" /><sodipodi:namedview
   inkscape:current-layer="Layer_1"
   inkscape:window-maximized="0"
   inkscape:window-y="203"
   inkscape:window-x="0"
   inkscape:cy="123.85"
   inkscape:cx="353.89999"
   inkscape:zoom="1.54846"
   showgrid="false"
   id="namedview1832"
   inkscape:window-height="480"
   inkscape:window-width="689"
   inkscape:pageshadow="2"
   inkscape:pageopacity="0"
   guidetolerance="10"
   gridtolerance="10"
   objecttolerance="10"
   borderopacity="1"
   bordercolor="#666666"
   pagecolor="#ffffff" />
<rect
   id="rect1649"
   height="247.7"
   width="707.8"
   fill="#FFFFFF" />
<rect
   id="rect1651"
   height="65.9"
   width="169"
   fill="#ECECEB"
   y="134.7"
   x="316.2" />
<path
   id="path1653"
   d="M127.5,94.2c0.1,0,0.2,0,0.3,0c6.4,0.1,11.7,5.6,12.4,12.7l0.1,1.5l1.5,0.1c4.4,0.4,7.8,4.9,7.7,10.3  c-0.1,5.5-3.9,9.9-8.4,9.9c-0.1,0-0.1,0-0.2,0c-0.1,0-0.6,0-1.2,0c-3.2,0-12.7,0-21.9,0.1c-9.2,0-18.8,0.1-22,0.1c-0.6,0-1,0-1.1,0  c-4.5-0.1-8.6-4.4-8.5-8.7c0.1-4.4,3.7-7.9,8-7.9c0.1,0,0.1,0,0.2,0c0.7,0,1.3,0.1,2,0.3l1.8,0.5l0.4-1.8c1.1-4.9,5.4-8.4,10.3-8.4  c0.1,0,0.1,0,0.3,0c1.5,0.1,3,0.4,4.3,1l1.7,0.8l0.7-1.8C117.8,97.6,122.4,94.2,127.5,94.2"
   fill="#1E4488" />
<path
   id="path1655"
   d="M127.5,92.4c-6,0-11.1,4-13.4,9.8c-1.5-0.7-3.2-1.1-5-1.2c-0.1,0-0.2,0-0.3,0c-5.9,0-10.8,4.1-12,9.8  c-0.8-0.2-1.6-0.4-2.4-0.4c-0.1,0-0.1,0-0.2,0c-5.3,0-9.6,4.3-9.8,9.6c-0.1,5.4,4.9,10.4,10.2,10.5c0.1,0,0.6,0,1.1,0  c6.5,0,37.4-0.1,43.9-0.1c0.6,0,1,0,1.1,0c0.1,0,0.1,0,0.2,0c5.5,0,10.1-5.2,10.2-11.6c0.1-6.3-3.9-11.6-9.3-12.1  c-0.7-7.9-6.7-14.1-14.1-14.3C127.7,92.4,127.6,92.4,127.5,92.4L127.5,92.4z"
   fill="#1E4488" />
<path
   id="path1657"
   d="M597.4,130.7c-6,0-11.1,4-13.4,9.8  c-1.5-0.7-3.2-1.1-5-1.2c-0.1,0-0.2,0-0.3,0c-5.9,0-10.8,4.1-12,9.8c-0.8-0.2-1.6-0.4-2.4-0.4c-0.1,0-0.1,0-0.2,0  c-5.3,0-9.6,4.3-9.8,9.6c-0.1,5.4,4.9,10.4,10.2,10.5c0.1,0,0.6,0,1.1,0c6.5,0,37.4-0.1,43.9-0.1c0.6,0,1,0,1.1,0c0.1,0,0.1,0,0.2,0  c5.5,0,10.1-5.2,10.2-11.6c0.1-6.3-3.9-11.6-9.3-12.1c-0.7-7.9-6.7-14.1-14.1-14.3C597.6,130.7,597.5,130.7,597.4,130.7L597.4,130.7  z"
   stroke-miterlimit="10"
   stroke-width="2"
   stroke="#19BFD3"
   fill="none" />
<text
   style="line-height:0;-inkscape-font-specification:Metropolis;font-family:Metropolis;font-weight:normal;font-style:normal;font-stretch:normal;font-variant:normal;"
   font-size="12px"
   font-family="Metropolis-Regular"
   fill="#020202"
   transform="translate(168.9642,122.8094)"
   id="text186_1_">Private Cloud</text>
<text
   style="-inkscape-font-specification:Metropolis;font-family:Metropolis;font-weight:normal;font-style:normal;font-stretch:normal;font-variant:normal;"
   font-size="12px"
   font-family="'Metropolis-Regular'"
   fill="#020202"
   transform="matrix(1 0 0 1 117.6878 238.194)"
   id="text186_6_">Data Center</text>
<text
   enable-background="new    "
   transform="matrix(1 0 0 1 330.1549 158.8134)"
   id="text186_5_"><tspan
     style="-inkscape-font-specification:Metropolis;font-family:Metropolis;font-weight:normal;font-style:normal;font-stretch:normal;font-variant:normal;"
     id="tspan1661"
     font-size="12px"
     font-family="'Metropolis-Regular'"
     fill="#020202"
     y="0"
     x="0">Secure Access/</tspan><tspan
     style="-inkscape-font-specification:Metropolis;font-family:Metropolis;font-weight:normal;font-style:normal;font-stretch:normal;font-variant:normal;"
     id="tspan1663"
     font-size="12px"
     font-family="'Metropolis-Regular'"
     fill="#020202"
     y="12"
     x="-3.5">Service Insertion</tspan></text>
<text
   style="-inkscape-font-specification:Metropolis;font-family:Metropolis;font-weight:normal;font-style:normal;font-stretch:normal;font-variant:normal;"
   font-size="12px"
   font-family="'Metropolis-Regular'"
   fill="#020202"
   transform="matrix(1 0 0 1 433.1236 229.8607)"
   id="text186_3_">Branch</text>
<text
   style="-inkscape-font-specification:Metropolis;font-family:Metropolis;font-weight:normal;font-style:normal;font-stretch:normal;font-variant:normal;"
   font-size="12px"
   font-family="'Metropolis-Regular'"
   fill="#020202"
   transform="matrix(1 0 0 1 510.6877 229.8607)"
   id="text186_4_">Remote Users</text>
<text
   style="-inkscape-font-specification:Metropolis;font-family:Metropolis;font-weight:normal;font-style:normal;font-stretch:normal;font-variant:normal;"
   font-size="12px"
   font-family="'Metropolis-Regular'"
   fill="#020202"
   transform="matrix(1 0 0 1 631.5264 153.2268)"
   id="text186_7_">SaaS Cloud</text>
<text
   style="-inkscape-font-specification:Metropolis;font-family:Metropolis;font-weight:normal;font-style:normal;font-stretch:normal;font-variant:normal;"
   font-size="12px"
   font-family="'Metropolis-Regular'"
   fill="#020202"
   transform="matrix(1 0 0 1 594.1827 99.009)"
   id="text186_8_">Multi-Cloud</text>
<text
   style="-inkscape-font-specification:Metropolis;font-family:Metropolis;font-weight:normal;font-style:normal;font-stretch:normal;font-variant:normal;"
   font-size="12px"
   font-family="'Metropolis-Regular'"
   fill="#020202"
   transform="matrix(1 0 0 1 623.4235 30.687)"
   id="text186_9_">Hybrid Cloud</text>
<text
   enable-background="new    "
   transform="matrix(1 0 0 1 23.9165 183.5875)"
   id="text186_2_"><tspan
     style="-inkscape-font-specification:Metropolis;font-family:Metropolis;font-weight:normal;font-style:normal;font-stretch:normal;font-variant:normal;"
     id="tspan1671"
     font-size="12px"
     font-family="'Metropolis-Regular'"
     fill="#020202"
     y="0"
     x="0">Traditional</tspan><tspan
     style="-inkscape-font-specification:Metropolis;font-family:Metropolis;font-weight:normal;font-style:normal;font-stretch:normal;font-variant:normal;"
     id="tspan1673"
     font-size="12px"
     font-family="'Metropolis-Regular'"
     fill="#020202"
     y="12"
     x="30.7">Apps</tspan></text>
<g
   id="g1688">
	<path
   id="path1676"
   d="M158.5,82.8h-28.9c-1.4,0-2.6,1.1-2.6,2.6v28.9c0,1.4,1.1,2.6,2.6,2.6h28.9c1.4,0,2.6-1.1,2.6-2.6V85.3   C161.1,83.9,159.9,82.8,158.5,82.8L158.5,82.8z"
   fill="#19BFD3" />
	<path
   id="path1678"
   d="M158.5,83.7c0.9,0,1.7,0.8,1.7,1.7v28.9c0,0.9-0.8,1.7-1.7,1.7h-28.9c-0.9,0-1.7-0.8-1.7-1.7V85.3   c0-0.9,0.8-1.7,1.7-1.7L158.5,83.7"
   fill="#FFFFFF" />
	<g
   id="g1686">
		<path
   id="path1680"
   d="M138.5,101.1h-4l-0.7,1.6h-0.9l3.2-7.1h0.9l3.2,7.1h-0.9L138.5,101.1z M138.1,100.3l-1.6-3.8l-1.6,3.8    H138.1z"
   fill="#19BFD3" />
		<path
   id="path1682"
   d="M141.8,95.6h2.9c1.5,0,2.6,0.9,2.6,2.3c0,1.3-1.1,2.3-2.6,2.3h-2.1v2.6h-0.8V95.6z M144.6,99.4    c1.1,0,2-0.6,2-1.5c0-1-0.8-1.5-2-1.5h-1.9v3L144.6,99.4L144.6,99.4z"
   fill="#19BFD3" />
		<path
   id="path1684"
   d="M149.1,95.6h2.9c1.5,0,2.6,0.9,2.6,2.3c0,1.3-1.1,2.3-2.6,2.3H150v2.6h-0.8L149.1,95.6z M151.9,99.4    c1.1,0,2-0.6,2-1.5c0-1-0.8-1.5-2-1.5H150v3L151.9,99.4L151.9,99.4z"
   fill="#19BFD3" />
	</g>
</g>
<g
   id="g1702">
	<path
   id="path1690"
   d="M130.2,166.5h-28.9c-1.4,0-2.6,1.1-2.6,2.6V198c0,1.4,1.1,2.6,2.6,2.6h28.9c1.4,0,2.6-1.1,2.6-2.6v-28.9   C132.8,167.7,131.6,166.5,130.2,166.5L130.2,166.5z"
   fill="#19BFD3" />
	<path
   id="path1692"
   d="M130.2,167.4c0.9,0,1.7,0.8,1.7,1.7V198c0,0.9-0.8,1.7-1.7,1.7h-28.9c-0.9,0-1.7-0.8-1.7-1.7v-28.9   c0-0.9,0.8-1.7,1.7-1.7L130.2,167.4"
   fill="#FFFFFF" />
	<g
   id="g1700">
		<path
   id="path1694"
   d="M110.2,184.9h-4l-0.7,1.6h-0.9l3.2-7.1h0.9l3.2,7.1h-0.9L110.2,184.9z M109.8,184.1l-1.6-3.8l-1.6,3.8    H109.8z"
   fill="#19BFD3" />
		<path
   id="path1696"
   d="M113.5,179.4h2.9c1.5,0,2.6,0.9,2.6,2.3c0,1.3-1.1,2.3-2.6,2.3h-2.1v2.6h-0.8L113.5,179.4z M116.3,183.2    c1.1,0,2-0.6,2-1.5c0-1-0.8-1.5-2-1.5h-1.9v3L116.3,183.2L116.3,183.2z"
   fill="#19BFD3" />
		<path
   id="path1698"
   d="M120.9,179.4h2.9c1.5,0,2.6,0.9,2.6,2.3c0,1.3-1.1,2.3-2.6,2.3h-2.1v2.6h-0.8    C120.9,186.5,120.9,179.4,120.9,179.4z M123.6,183.2c1.1,0,2-0.6,2-1.5c0-1-0.8-1.5-2-1.5h-1.9v3L123.6,183.2L123.6,183.2z"
   fill="#19BFD3" />
	</g>
</g>
<g
   id="g1716">
	<path
   id="path1704"
   d="M174.7,166.5h-28.9c-1.4,0-2.6,1.1-2.6,2.6V198c0,1.4,1.1,2.6,2.6,2.6h28.9c1.4,0,2.6-1.1,2.6-2.6v-28.9   C177.3,167.7,176.1,166.5,174.7,166.5L174.7,166.5z"
   fill="#19BFD3" />
	<path
   id="path1706"
   d="M174.7,167.4c0.9,0,1.7,0.8,1.7,1.7V198c0,0.9-0.8,1.7-1.7,1.7h-28.9c-0.9,0-1.7-0.8-1.7-1.7v-28.9   c0-0.9,0.8-1.7,1.7-1.7L174.7,167.4"
   fill="#FFFFFF" />
	<g
   id="g1714">
		<path
   id="path1708"
   d="M154.6,184.9h-4l-0.7,1.6H149l3.2-7.1h0.9l3.2,7.1h-0.9L154.6,184.9z M154.3,184.1l-1.6-3.8l-1.6,3.8    H154.3z"
   fill="#19BFD3" />
		<path
   id="path1710"
   d="M158,179.4h2.9c1.5,0,2.6,0.9,2.6,2.3c0,1.3-1.1,2.3-2.6,2.3h-2.1v2.6H158V179.4z M160.7,183.2    c1.1,0,2-0.6,2-1.5c0-1-0.8-1.5-2-1.5h-1.9v3L160.7,183.2L160.7,183.2z"
   fill="#19BFD3" />
		<path
   id="path1712"
   d="M165.3,179.4h2.9c1.5,0,2.6,0.9,2.6,2.3c0,1.3-1.1,2.3-2.6,2.3h-2.1v2.6h-0.8L165.3,179.4z M168.1,183.2    c1.1,0,2-0.6,2-1.5c0-1-0.8-1.5-2-1.5h-1.9v3L168.1,183.2L168.1,183.2z"
   fill="#19BFD3" />
	</g>
</g>
<g
   id="g1740">
	<path
   id="path1718"
   d="M275.3,199v-37.6h-60v-2.6h-20v2.6h-0.1V199h-7.6v2.5h95V199H275.3z M197.8,163.9h75v7.4h-71v2.5h71v25.1   h-75V163.9z"
   fill="#1E4488" />
	<rect
   id="rect1720"
   height="2.5"
   width="7.5"
   fill="#1E4488"
   y="180.1"
   x="201.5" />
	<rect
   id="rect1722"
   height="2.5"
   width="7.5"
   fill="#1E4488"
   y="190.1"
   x="201.5" />
	<rect
   id="rect1724"
   height="2.5"
   width="7.5"
   fill="#1E4488"
   y="180.1"
   x="216.5" />
	<rect
   id="rect1726"
   height="2.5"
   width="7.5"
   fill="#1E4488"
   y="190.1"
   x="216.5" />
	<rect
   id="rect1728"
   height="2.5"
   width="7.5"
   fill="#1E4488"
   y="180.1"
   x="231.5" />
	<rect
   id="rect1730"
   height="2.5"
   width="7.5"
   fill="#1E4488"
   y="190.1"
   x="231.5" />
	<rect
   id="rect1732"
   height="2.5"
   width="7.5"
   fill="#1E4488"
   y="180.1"
   x="246.5" />
	<rect
   id="rect1734"
   height="2.5"
   width="7.5"
   fill="#1E4488"
   y="190.1"
   x="246.5" />
	<rect
   id="rect1736"
   height="2.5"
   width="7.5"
   fill="#1E4488"
   y="180.1"
   x="261.5" />
	<rect
   id="rect1738"
   height="2.5"
   width="7.5"
   fill="#1E4488"
   y="190.1"
   x="261.5" />
</g>
<g
   id="Migration__x2B__Recovery_Expanded_AQ">
	<g
   id="g1800">
		<polygon
   id="polygon1742"
   points="477.1,211.1 477.1,177.7 451.8,177.7 451.8,208 453.4,208 453.4,179.3 475.5,179.3 475.5,211.1     431.2,211.1 431.2,154.1 451.9,154.1 451.9,174.7 453.4,174.7 453.4,152.5 429.7,152.5 429.7,211.1 426.4,211.1 426.4,212.7     480.3,212.7 480.3,211.1   "
   fill="#1295D3" />
		<rect
   id="rect1744"
   height="1.6"
   width="1.6"
   fill="#1295D3"
   y="157.2"
   x="434.4" />
		<rect
   id="rect1746"
   height="1.6"
   width="1.6"
   fill="#1295D3"
   y="157.2"
   x="440.7" />
		<rect
   id="rect1748"
   height="1.6"
   width="1.6"
   fill="#1295D3"
   y="157.2"
   x="447.1" />
		<rect
   id="rect1750"
   height="1.6"
   width="1.6"
   fill="#1295D3"
   y="163.5"
   x="434.4" />
		<rect
   id="rect1752"
   height="1.6"
   width="1.6"
   fill="#1295D3"
   y="163.5"
   x="440.7" />
		<rect
   id="rect1754"
   height="1.6"
   width="1.6"
   fill="#1295D3"
   y="163.5"
   x="447.1" />
		<rect
   id="rect1756"
   height="1.6"
   width="1.6"
   fill="#1295D3"
   y="169.9"
   x="434.4" />
		<rect
   id="rect1758"
   height="1.6"
   width="1.6"
   fill="#1295D3"
   y="169.9"
   x="440.7" />
		<rect
   id="rect1760"
   height="1.6"
   width="1.6"
   fill="#1295D3"
   y="169.9"
   x="447.1" />
		<rect
   id="rect1762"
   height="1.6"
   width="1.6"
   fill="#1295D3"
   y="176.2"
   x="434.4" />
		<rect
   id="rect1764"
   height="1.6"
   width="1.6"
   fill="#1295D3"
   y="176.2"
   x="440.7" />
		<rect
   id="rect1766"
   height="1.6"
   width="1.6"
   fill="#1295D3"
   y="176.2"
   x="447.1" />
		<rect
   id="rect1768"
   height="1.6"
   width="1.6"
   fill="#1295D3"
   y="182.5"
   x="434.4" />
		<rect
   id="rect1770"
   height="1.6"
   width="1.6"
   fill="#1295D3"
   y="182.5"
   x="440.7" />
		<rect
   id="rect1772"
   height="1.6"
   width="1.6"
   fill="#1295D3"
   y="182.5"
   x="447.1" />
		<rect
   id="rect1774"
   height="1.6"
   width="1.6"
   fill="#1295D3"
   y="188.9"
   x="434.4" />
		<rect
   id="rect1776"
   height="1.6"
   width="1.6"
   fill="#1295D3"
   y="188.9"
   x="440.7" />
		<rect
   id="rect1778"
   height="1.6"
   width="1.6"
   fill="#1295D3"
   y="188.9"
   x="447.1" />
		<rect
   id="rect1780"
   height="1.6"
   width="1.6"
   fill="#1295D3"
   y="195.2"
   x="434.4" />
		<rect
   id="rect1782"
   height="1.6"
   width="1.6"
   fill="#1295D3"
   y="195.2"
   x="440.7" />
		<rect
   id="rect1784"
   height="1.6"
   width="1.6"
   fill="#1295D3"
   y="195.2"
   x="447.1" />
		<rect
   id="rect1786"
   height="1.6"
   width="1.6"
   fill="#1295D3"
   y="201.6"
   x="434.4" />
		<rect
   id="rect1788"
   height="1.6"
   width="1.6"
   fill="#1295D3"
   y="201.6"
   x="440.7" />
		<rect
   id="rect1790"
   height="1.6"
   width="1.6"
   fill="#1295D3"
   y="201.6"
   x="447.1" />
		<rect
   id="rect1792"
   height="1.6"
   width="12.7"
   fill="#1295D3"
   y="183.7"
   x="458.2" />
		<rect
   id="rect1794"
   height="1.6"
   width="12.7"
   fill="#1295D3"
   y="190"
   x="458.2" />
		<rect
   id="rect1796"
   height="1.6"
   width="12.7"
   fill="#1295D3"
   y="196.4"
   x="458.2" />
		<rect
   id="rect1798"
   height="1.6"
   width="12.7"
   fill="#1295D3"
   y="202.7"
   x="458.2" />
	</g>
</g>
<g
   id="Clouds__x2B__Infrastructure_Expanded_AQ">
	<g
   id="g1811">
		<path
   id="path1803"
   d="M494.5,100.9c0.3,0,0.7,0,1.2,0c0.7-0.9,1.5-1.8,2.4-2.5c-1.6,0-2.8,0-3.6,0c-0.4,0-0.7,0-0.8,0    c-2.7-0.1-5.3-2.7-5.2-5.3c0.1-2.6,2.2-4.7,4.8-4.7h0.1c0.4,0,0.8,0.1,1.2,0.2l2.6,0.7l0.6-2.6c0.7-3.1,3.4-5.4,6.5-5.4h0.2    c1,0,1.9,0.2,2.7,0.6l2.4,1.2l1-2.5c1.3-3.5,4.3-5.7,7.6-5.7c0.1,0,0.1,0,0.2,0c4.2,0.1,7.6,3.7,8.1,8.4l0.1,0.7    c0.7-0.9,1.4-1.6,2.2-2.3c-1.1-5.2-5.2-9.1-10.3-9.2c-0.1,0-0.2,0-0.3,0c-4.5,0-8.3,3-10,7.3c-1.1-0.6-2.4-0.9-3.7-0.9    c-0.1,0-0.2,0-0.2,0c-4.4,0-8.1,3.1-9,7.3c-0.6-0.2-1.2-0.2-1.8-0.3c-0.1,0-0.1,0-0.2,0c-4,0-7.2,3.2-7.3,7.2    c-0.1,4.1,3.6,7.8,7.6,7.9C493.7,100.9,494,100.9,494.5,100.9z"
   fill="#79459B" />
		<path
   id="path1805"
   d="M575,90.1c-0.5-5-4.2-8.9-8.9-9.1c-0.1,0-0.2,0-0.2,0c-3.8,0-7.1,2.5-8.5,6.2c-0.9-0.4-1.9-0.7-3-0.7    c0.5,0.9,0.9,1.8,1.2,2.7c0.2,0.1,0.5,0.1,0.7,0.2l2.4,1.2l1-2.5c1.1-2.8,3.5-4.6,6.1-4.6h0.2c3.3,0.1,6.1,3,6.5,6.8l0.2,2.1    l2.1,0.2c2.1,0.2,3.7,2.4,3.6,5.1c-0.1,2.7-1.8,4.9-4,4.9h-0.1c-0.1,0-0.4,0-0.8,0c-1.3,0-4.3,0-7.8,0c0.2,0.8,0.3,1.6,0.4,2.5    c3.4,0,6.2,0,7.5,0c0.4,0,0.6,0,0.7,0h0.1c3.5,0,6.4-3.3,6.5-7.4C581,93.7,578.4,90.4,575,90.1z"
   fill="#79459B" />
		<g
   id="g1809">
			<path
   id="path1807"
   d="M539.6,82.4c0.1,0,0.2,0,0.3,0c6.1,0.1,11.2,5.4,11.8,12.3l0.2,2.1L554,97c4.1,0.4,7.3,4.7,7.1,9.7     c-0.1,5.2-3.6,9.4-7.8,9.4h-0.2c-0.1,0-0.5,0-1.2,0c-3.3,0-12.9,0-22.2,0.1c-9.4,0-19,0.1-22.3,0.1c-0.6,0-1,0-1.1,0     c-4.2-0.1-8-4.1-7.9-8.1s3.4-7.3,7.4-7.3h0.2c0.6,0,1.3,0.1,1.8,0.3l2.6,0.7l0.6-2.6c1-4.6,5.1-8,9.8-8c0.1,0,0.2,0,0.2,0     c1.4,0,2.8,0.4,4,1l2.4,1.2l1-2.5C530.3,85.6,534.7,82.4,539.6,82.4 M539.6,79.9c-6.1,0-11.3,4.1-13.6,9.9     c-1.5-0.7-3.2-1.2-5.1-1.2c-0.1,0-0.2,0-0.3,0c-6,0-11,4.2-12.2,10c-0.8-0.2-1.6-0.3-2.5-0.3c-0.1,0-0.2,0-0.2,0     c-5.4,0-9.8,4.3-9.9,9.7c-0.1,5.5,4.9,10.6,10.4,10.7c0.1,0,0.5,0,1.2,0c6.6,0,38-0.1,44.5-0.1c0.6,0,1,0,1.1,0     c0.1,0,0.2,0,0.2,0c5.6,0,10.2-5.3,10.3-11.8c0.2-6.4-4-11.8-9.4-12.3c-0.7-8-6.8-14.3-14.3-14.5     C539.8,79.9,539.7,79.9,539.6,79.9L539.6,79.9z"
   fill="#79459B" />
		</g>
	</g>
</g>
<g
   id="Clouds__x2B__Infrastructure_Expanded_AQ_1_">
	<path
   id="path1814"
   d="M603.7,22c-0.8-8.7-7.4-15.6-15.5-15.8c-0.2,0-0.2,0-0.4,0c-6.6,0-12.2,4.4-14.7,10.8   c-1.7-0.8-3.5-1.2-5.5-1.3c-0.1,0-0.2,0-0.3,0c-6.5,0-11.9,4.6-13.3,10.8c-0.9-0.2-1.8-0.4-2.6-0.4c-0.1,0-0.2,0-0.2,0   c-5.8,0-10.6,4.7-10.8,10.6c-0.2,6,5.3,11.5,11.2,11.6c0.2,0,0.6,0,1.2,0c7.2,0,41.2-0.2,48.4-0.2c0.7,0,1.1,0,1.2,0   c0.1,0,0.2,0,0.2,0c6,0,11.1-5.7,11.2-12.8S609.5,22.5,603.7,22z M551.7,46.4c-5-0.2-9.5-4.8-9.4-9.6c0.1-4.8,4.1-8.7,8.8-8.7   c0.1,0,0.2,0,0.2,0c0.8,0,1.5,0.2,2.2,0.3l2,0.5l0.5-2c1.2-5.3,6-9.3,11.4-9.3c0.1,0,0.2,0,0.3,0c1.7,0.1,3.3,0.4,4.7,1.1l1.5,0.8   v26.8c-9.1,0-17.7,0.1-21,0.1C552.2,46.4,551.7,46.4,551.7,46.4z"
   fill="#1E4488" />
</g>
<polyline
   id="polyline1817"
   points="464.5,170.7 464.5,149.8 542.3,149.8 "
   stroke-miterlimit="10"
   stroke-width="2"
   stroke="#686B70"
   fill="none" />
<polyline
   id="polyline1819"
   points="447.1,146.9 447.1,92.4 480.3,92.4 "
   stroke-miterlimit="10"
   stroke-width="2"
   stroke="#686B70"
   fill="none" />
<polyline
   id="polyline1821"
   points="436.8,146.9 436.8,32 534.1,32 "
   stroke-miterlimit="10"
   stroke-width="2"
   stroke="#686B70"
   fill="none" />
<line
   id="line1823"
   y2="189.7"
   x2="421.3"
   y1="189.7"
   x1="294.1"
   stroke-miterlimit="10"
   stroke="#3E4044"
   fill="none" />
<circle
   id="circle1825"
   r="5.5"
   cy="189.7"
   cx="364.4" />
<rect
   id="rect1827"
   height="148.7"
   width="284.3"
   stroke-miterlimit="10"
   stroke-width="2"
   stroke="#686B70"
   fill="none"
   y="67.4"
   x="9.8" />
<line
   id="line1829"
   y2="235.9"
   x2="492.2"
   y1="217"
   x1="492.2"
   stroke-miterlimit="10"
   stroke="#020202"
   fill="none" />
</svg>
