<?xml version="1.0" encoding="UTF-8" standalone="no"?>
<svg
   xmlns:dc="http://purl.org/dc/elements/1.1/"
   xmlns:cc="http://creativecommons.org/ns#"
   xmlns:rdf="http://www.w3.org/1999/02/22-rdf-syntax-ns#"
   xmlns:svg="http://www.w3.org/2000/svg"
   xmlns="http://www.w3.org/2000/svg"
   xmlns:sodipodi="http://sodipodi.sourceforge.net/DTD/sodipodi-0.dtd"
   xmlns:inkscape="http://www.inkscape.org/namespaces/inkscape"
   version="1.1"
   id="Layer_1"
   x="0px"
   y="0px"
   viewBox="0 0 423.37476 228.41869"
   enable-background="new 0 0 450 228"
   xml:space="preserve"
   sodipodi:docname="VPN-usecase.svg"
   width="423.37476"
   height="228.41869"
   inkscape:version="1.0 (4035a4fb49, 2020-05-01)"><metadata
   id="metadata166"><rdf:RDF><cc:Work
       rdf:about=""><dc:format>image/svg+xml</dc:format><dc:type
         rdf:resource="http://purl.org/dc/dcmitype/StillImage" /><dc:title></dc:title></cc:Work></rdf:RDF></metadata><defs
   id="defs164">
	
	
	
	
	
	
	
	
	
	
	
	
	
	
	
	
	
	
	
	
	
	
	
	
	
	
	
	
	
</defs><sodipodi:namedview
   inkscape:pagecheckerboard="false"
   inkscape:document-rotation="0"
   pagecolor="#ffffff"
   bordercolor="#666666"
   borderopacity="1"
   objecttolerance="10"
   gridtolerance="10"
   guidetolerance="10"
   inkscape:pageopacity="0"
   inkscape:pageshadow="2"
   inkscape:window-width="1920"
   inkscape:window-height="1013"
   id="namedview162"
   showgrid="false"
   inkscape:snap-object-midpoints="true"
   fit-margin-top="0"
   fit-margin-left="0"
   fit-margin-right="0"
   fit-margin-bottom="0"
   inkscape:zoom="2.0620029"
   inkscape:cx="-69.247332"
   inkscape:cy="114.08952"
   inkscape:window-x="1911"
   inkscape:window-y="-9"
   inkscape:window-maximized="1"
   inkscape:current-layer="Layer_1" />

<rect
   y="0"
   x="0"
   height="228.41869"
   width="423.37476"
   id="rect80"
   style="fill:#ffffff;fill-opacity:1;fill-rule:evenodd" /><line
   id="line8"
   y2="169.58952"
   x2="36.774742"
   y1="146.08952"
   x1="36.774742"
   stroke-miterlimit="10"
   stroke-width="2"
   stroke="#1295d3"
   fill="none" /><line
   id="line10"
   y2="146.08952"
   x2="70.374741"
   y1="102.38952"
   x1="70.374741"
   stroke-miterlimit="10"
   stroke-width="2"
   stroke="#1295d3"
   fill="none" /><line
   id="line12"
   y2="169.58952"
   x2="103.97475"
   y1="146.08952"
   x1="103.97475"
   stroke-miterlimit="10"
   stroke-width="2"
   stroke="#1295d3"
   fill="none" /><g
   id="g26"
   transform="translate(-20.325257,0.08951502)">
		<path
   id="path14"
   d="m 90.7,37.7 c 17.5,0 31.8,14.3 31.8,31.8 0,17.5 -14.3,31.8 -31.8,31.8 -17.5,0 -31.9,-14.2 -31.9,-31.7 0,-17.5 14.3,-31.9 31.9,-31.9 m 0,-1.7 c -18.6,0 -33.6,15 -33.6,33.6 0,18.6 15.1,33.6 33.6,33.6 18.5,0 33.6,-15.1 33.6,-33.6 C 124.3,51.1 109.2,36 90.7,36 Z"
   fill="#218fcf" />
		<g
   id="g24">
			<polygon
   id="polygon16"
   points="76.9,64.8 76.9,67.8 64,67.8 64,71.3 76.9,71.3 76.9,74.3 85.2,69.6 "
   fill="#218fcf" />
			<polygon
   id="polygon18"
   points="117.4,71.3 117.4,67.8 104.4,67.8 104.4,64.8 96.2,69.6 104.4,74.3 104.4,71.3 "
   fill="#218fcf" />
			<polygon
   id="polygon20"
   points="90.7,43.5 85.9,51.7 88.9,51.7 88.9,64.7 92.4,64.7 92.4,51.7 95.4,51.7 "
   fill="#218fcf" />
			<polygon
   id="polygon22"
   points="92.4,87.5 92.4,74.5 88.9,74.5 88.9,87.5 85.9,87.5 90.7,95.7 95.4,87.5 "
   fill="#218fcf" />
		</g>
	</g><g
   id="g36"
   transform="translate(-20.325257,0.08951502)">
		<path
   id="path28"
   d="m 39.9,169.5 v 34.4 H 74.3 V 203.6 203 169.5 Z M 40.8,203 V 170.4 H 73.4 V 203 Z"
   fill="#1295d3" />
		<g
   id="g34">
			<polygon
   id="polygon30"
   points="52.7,183.5 50.4,189.3 48.1,183.5 46.9,183.5 49.9,190.5 50.9,190.5 53.9,183.5 "
   fill="#1295d3" />
			<path
   id="path32"
   d="m 63.6,183.3 c -1.1,0 -2,0.5 -2.3,1.5 -0.4,-0.9 -1.3,-1.5 -2.3,-1.5 -0.9,0 -1.7,0.5 -2,1.2 v -1 h -1 v 7 h 1 V 186 c 0,-1 0.8,-1.8 1.9,-1.8 1,0 1.6,0.8 1.6,2 v 4.4 h 1 V 186 c 0,-1 0.8,-1.8 1.9,-1.8 1,0 1.6,0.8 1.6,2 v 4.4 h 1 V 186 c 0.2,-1.5 -0.8,-2.7 -2.4,-2.7 z"
   fill="#1295d3" />
		</g>
	</g><g
   id="g46"
   transform="translate(-20.325257,0.08951502)">
		<path
   id="path38"
   d="m 107.1,169.5 v 34.4 h 34.4 V 203.6 203 169.5 Z M 108,203 v -32.6 h 32.6 V 203 Z"
   fill="#1295d3" />
		<g
   id="g44">
			<polygon
   id="polygon40"
   points="119.9,183.5 117.6,189.3 115.3,183.5 114.1,183.5 117.1,190.5 118.1,190.5 121.1,183.5 "
   fill="#1295d3" />
			<path
   id="path42"
   d="m 130.8,183.3 c -1.1,0 -2,0.5 -2.3,1.5 -0.4,-0.9 -1.3,-1.5 -2.3,-1.5 -0.9,0 -1.7,0.5 -2,1.2 v -1 h -1 v 7 h 1 V 186 c 0,-1 0.8,-1.8 1.9,-1.8 1,0 1.6,0.8 1.6,2 v 4.4 h 1 V 186 c 0,-1 0.8,-1.8 1.9,-1.8 1,0 1.6,0.8 1.6,2 v 4.4 h 1 V 186 c 0.2,-1.5 -0.8,-2.7 -2.4,-2.7 z"
   fill="#1295d3" />
		</g>
	</g><g
   id="Clouds__x2B__Infrastructure_Expanded_AQ"
   transform="translate(-20.325257,0.08951502)">
		<path
   id="path48"
   d="m 240.9,9.9 c 0.1,0 0.4,0 0.5,0 11.7,0.3 21.4,10.3 22.6,23.3 l 0.3,2.7 2.7,0.3 c 8.1,0.8 14.3,9 14,18.9 -0.3,10 -7.2,18.1 -15.4,18.1 -0.1,0 -0.3,0 -0.4,0 -0.3,0 -1,0 -2.2,0 -5.9,0 -23.2,0 -40,0.1 -16.9,0 -34.4,0.1 -40.3,0.1 -1.2,0 -1.8,0 -2.1,0 -8.2,-0.3 -15.8,-8 -15.6,-16 0.1,-8 6.8,-14.4 14.7,-14.4 0.1,0 0.3,0 0.4,0 1.3,0 2.4,0.3 3.6,0.5 l 3.3,0.9 0.8,-3.3 c 1.9,-8.9 9.9,-15.4 18.9,-15.4 0.1,0 0.3,0 0.5,0 2.8,0.1 5.4,0.6 7.8,1.8 l 3.1,1.5 1.3,-3.2 c 3.8,-9.7 12.1,-15.9 21.5,-15.9 m 0,-3.2 c -10.9,0 -20.3,7.3 -24.4,17.9 -2.8,-1.3 -5.8,-2.1 -9.1,-2.2 -0.1,0 -0.4,0 -0.5,0 -10.8,0 -19.8,7.6 -22,18 -1.4,-0.4 -3,-0.6 -4.4,-0.6 -0.1,0 -0.3,0 -0.4,0 -9.6,0 -17.6,7.8 -17.9,17.6 -0.3,9.9 8.9,19 18.7,19.3 0.3,0 1,0 2.1,0 12,0 68.4,-0.3 80.3,-0.3 1.2,0 1.8,0 2.1,0 0.1,0 0.3,0 0.4,0 10,0 18.4,-9.5 18.7,-21.2 C 284.8,43.6 277.3,34 267.5,33.1 266,18.6 255.1,7.2 241.6,6.8 241.3,6.7 241.1,6.7 240.9,6.7 Z"
   fill="#1295d3" />
	</g><text
   id="text51"
   font-size="16px"
   font-family="Metropolis-SemiBold"
   x="170.96384"
   y="64.456116">Internet</text><path
   id="path53"
   d="m 284.87474,29.089515 c -1.1,0 -2,3.6 -2,8 0,4.4 0.9,8 2,8 h -160 c -1.1,0 -2,-3.6 -2,-8 0,-4.4 0.9,-8 2,-8 z"
   fill="#78be43" /><ellipse
   id="ellipse55"
   ry="8"
   rx="2"
   cy="37.089516"
   cx="284.87473"
   fill="#397d3c" /><ellipse
   id="ellipse57"
   ry="8"
   rx="2"
   cy="37.089516"
   cx="124.87474"
   fill="#397d3c" /><text
   id="text59"
   font-size="12px"
   font-family="Metropolis-SemiBold"
   fill="#ffffff"
   x="152.31195"
   y="41.748714">Secure VPN Tunnel</text><text
   id="text61"
   font-size="12px"
   font-family="Metropolis-SemiBold"
   fill="#218fcf"
   x="4.6756434"
   y="217.96492">10.1.1.0/24</text><text
   id="text63"
   font-size="12px"
   font-family="Metropolis-SemiBold"
   fill="#f89820"
   x="341.03714"
   y="217.96492">10.2.1.0/24</text><g
   id="g91"
   transform="translate(-20.325257,0.08951502)">
		<circle
   id="circle69"
   r="20.299999"
   cy="42.599998"
   cx="121.4"
   fill="#19bfd3" />
		<g
   id="g89">
			<g
   id="g77">
				<path
   id="path71"
   d="m 120.3,53.2 -0.8,1.8 h -0.3 l -0.8,-1.8 h 0.3 l 0.6,1.5 0.6,-1.5 z"
   fill="#ffffff" />
				<path
   id="path73"
   d="m 120.7,53.2 h 0.8 c 0.4,0 0.7,0.2 0.7,0.6 0,0.3 -0.3,0.6 -0.7,0.6 H 121 V 55 h -0.3 z m 0.7,1 c 0.3,0 0.4,-0.1 0.4,-0.3 0,-0.2 -0.2,-0.3 -0.4,-0.3 H 121 v 0.7 h 0.4 z"
   fill="#ffffff" />
				<path
   id="path75"
   d="m 122.6,53.2 h 0.3 l 1,1.4 v -1.4 h 0.3 V 55 h -0.3 l -1,-1.4 V 55 h -0.3 z"
   fill="#ffffff" />
			</g>
			<polygon
   id="polygon79"
   points="109.7,54.2 117.5,54.2 117.5,54.9 109.1,54.9 109.1,30.2 133.8,30.2 133.8,54.9 125.3,54.9 125.3,54.2 133.2,54.2 133.2,30.8 109.7,30.8 "
   fill="#ffffff" />
			<g
   id="g87">
				<path
   id="path81"
   d="m 120.9,40.9 c 0,-0.2 -0.2,-0.3 -0.3,-0.3 -1.8,0 -3.2,1.4 -3.2,3.2 0,0.2 0.2,0.3 0.3,0.3 0.2,0 0.3,-0.2 0.3,-0.3 0,-1.4 1.1,-2.5 2.5,-2.5 0.3,-0.1 0.4,-0.2 0.4,-0.4 z"
   fill="#ffffff"
   clip-rule="evenodd"
   fill-rule="evenodd" />
				<path
   id="path83"
   d="m 124.7,39.3 h 0.2 v -3.5 c 0,-1.8 -1.4,-3.3 -3.1,-3.3 h -0.6 c -1.7,0 -3.1,1.5 -3.1,3.3 v 3.5 h 0.2 c -1.8,1.1 -3,3 -3,5.3 0,3.4 2.8,6.2 6.2,6.2 3.4,0 6.2,-2.8 6.2,-6.2 -0.1,-2.2 -1.3,-4.2 -3,-5.3 z m -6,-3.5 c 0,-1.4 1.1,-2.6 2.5,-2.6 h 0.6 c 1.4,0 2.5,1.2 2.5,2.6 v 3.3 c -0.8,-0.4 -1.8,-0.7 -2.8,-0.7 -1,0 -1.9,0.2 -2.8,0.7 z m 2.7,14.3 c -3,0 -5.5,-2.5 -5.5,-5.5 0,-3 2.5,-5.5 5.5,-5.5 3.1,0 5.5,2.5 5.5,5.5 0.1,3 -2.4,5.5 -5.5,5.5 z"
   fill="#ffffff"
   clip-rule="evenodd"
   fill-rule="evenodd" />
				<path
   id="path85"
   d="m 121.4,43 c -0.6,0 -1,0.4 -1,1 0,0.4 0.2,0.7 0.5,0.9 V 46 c 0,0.2 0.1,0.3 0.3,0.3 h 0.5 c 0.2,0 0.3,-0.1 0.3,-0.3 v -1.1 c 0.3,-0.2 0.5,-0.5 0.5,-0.9 0,-0.6 -0.5,-1 -1.1,-1 z"
   fill="#ffffff"
   clip-rule="evenodd"
   fill-rule="evenodd" />
			</g>
		</g>
	</g><g
   id="g105"
   transform="translate(-20.325257,0.08951502)">
		<path
   id="path93"
   d="m 359.8,37.7 c 17.5,0 31.8,14.3 31.8,31.8 0,17.5 -14.3,31.8 -31.8,31.8 C 342.3,101.3 328,87 328,69.5 328,52 342.3,37.7 359.8,37.7 m 0,-1.7 c -18.5,0 -33.6,15.1 -33.6,33.6 0,18.5 15.1,33.6 33.6,33.6 18.5,0 33.6,-15.1 33.6,-33.6 0,-18.5 -15,-33.6 -33.6,-33.6 z"
   fill="#f89820" />
		<g
   id="g103">
			<polygon
   id="polygon95"
   points="346.1,64.8 346.1,67.8 333.2,67.8 333.2,71.3 346.1,71.3 346.1,74.3 354.4,69.6 "
   fill="#f89820" />
			<polygon
   id="polygon97"
   points="386.6,71.3 386.6,67.8 373.5,67.8 373.5,64.8 365.3,69.6 373.5,74.3 373.5,71.3 "
   fill="#f89820" />
			<polygon
   id="polygon99"
   points="359.8,43.5 355.1,51.7 358.1,51.7 358.1,64.7 361.6,64.7 361.6,51.7 364.6,51.7 "
   fill="#f89820" />
			<polygon
   id="polygon101"
   points="361.6,87.5 361.6,74.5 358.1,74.5 358.1,87.5 355.1,87.5 359.8,95.7 364.6,87.5 "
   fill="#f89820" />
		</g>
	</g><circle
   id="circle107"
   r="20.299999"
   cy="42.689514"
   cx="308.67471"
   fill="#f89820" /><g
   id="g127"
   transform="translate(-20.325257,0.08951502)">
		<g
   id="g115">
			<path
   id="path109"
   d="m 327.9,53.2 -0.8,1.8 h -0.3 L 326,53.2 h 0.3 l 0.6,1.5 0.6,-1.5 z"
   fill="#ffffff" />
			<path
   id="path111"
   d="m 328.3,53.2 h 0.8 c 0.4,0 0.7,0.2 0.7,0.6 0,0.3 -0.3,0.6 -0.7,0.6 h -0.5 V 55 h -0.3 z m 0.7,1 c 0.3,0 0.4,-0.1 0.4,-0.3 0,-0.2 -0.2,-0.3 -0.4,-0.3 h -0.4 v 0.7 h 0.4 z"
   fill="#ffffff" />
			<path
   id="path113"
   d="m 330.2,53.2 h 0.3 l 1,1.4 v -1.4 h 0.3 V 55 h -0.3 l -1,-1.4 V 55 h -0.3 z"
   fill="#ffffff" />
		</g>
		<polygon
   id="polygon117"
   points="317.3,54.2 325.1,54.2 325.1,54.9 316.7,54.9 316.7,30.2 341.4,30.2 341.4,54.9 332.9,54.9 332.9,54.2 340.7,54.2 340.7,30.8 317.3,30.8 "
   fill="#ffffff" />
		<g
   id="g125">
			<path
   id="path119"
   d="m 328.5,40.9 c 0,-0.2 -0.2,-0.3 -0.3,-0.3 -1.8,0 -3.2,1.4 -3.2,3.2 0,0.2 0.2,0.3 0.3,0.3 0.2,0 0.3,-0.2 0.3,-0.3 0,-1.4 1.1,-2.5 2.5,-2.5 0.3,-0.1 0.4,-0.2 0.4,-0.4 z"
   fill="#ffffff"
   clip-rule="evenodd"
   fill-rule="evenodd" />
			<path
   id="path121"
   d="m 332.3,39.3 h 0.2 v -3.5 c 0,-1.8 -1.4,-3.3 -3.1,-3.3 h -0.6 c -1.7,0 -3.1,1.5 -3.1,3.3 v 3.5 h 0.2 c -1.8,1.1 -3,3 -3,5.3 0,3.4 2.8,6.2 6.2,6.2 3.4,0 6.2,-2.8 6.2,-6.2 -0.1,-2.2 -1.3,-4.2 -3,-5.3 z m -6,-3.5 c 0,-1.4 1.1,-2.6 2.5,-2.6 h 0.6 c 1.4,0 2.5,1.2 2.5,2.6 v 3.3 c -0.8,-0.4 -1.8,-0.7 -2.8,-0.7 -1,0 -1.9,0.2 -2.8,0.7 z m 2.7,14.3 c -3,0 -5.5,-2.5 -5.5,-5.5 0,-3 2.5,-5.5 5.5,-5.5 3,0 5.5,2.5 5.5,5.5 0.1,3 -2.4,5.5 -5.5,5.5 z"
   fill="#ffffff"
   clip-rule="evenodd"
   fill-rule="evenodd" />
			<path
   id="path123"
   d="m 329,43 c -0.6,0 -1,0.4 -1,1 0,0.4 0.2,0.7 0.5,0.9 V 46 c 0,0.2 0.1,0.3 0.3,0.3 h 0.5 c 0.2,0 0.3,-0.1 0.3,-0.3 v -1.1 c 0.3,-0.2 0.5,-0.5 0.5,-0.9 0,-0.6 -0.5,-1 -1.1,-1 z"
   fill="#ffffff"
   clip-rule="evenodd"
   fill-rule="evenodd" />
		</g>
	</g><line
   id="line129"
   y2="146.08952"
   x2="131.27475"
   y1="146.08952"
   x1="9.3747444"
   stroke-miterlimit="10"
   stroke-width="2"
   stroke="#218fcf"
   fill="none" /><line
   id="line131"
   y2="169.58952"
   x2="305.87473"
   y1="146.08952"
   x1="305.87473"
   stroke-miterlimit="10"
   stroke-width="2"
   stroke="#f89820"
   fill="none" /><line
   id="line133"
   y2="146.08952"
   x2="339.4747"
   y1="102.38952"
   x1="339.4747"
   stroke-miterlimit="10"
   stroke-width="2"
   stroke="#f89820"
   fill="none" /><line
   id="line135"
   y2="169.58952"
   x2="373.07474"
   y1="146.08952"
   x1="373.07474"
   stroke-miterlimit="10"
   stroke-width="2"
   stroke="#f89820"
   fill="none" /><g
   id="g145"
   transform="translate(-20.325257,0.08951502)">
		<path
   id="path137"
   d="m 309,169.5 v 34.4 h 34.4 v -0.3 -0.6 -33.5 z m 0.9,33.5 v -32.6 h 32.6 V 203 Z"
   fill="#f89820" />
		<g
   id="g143">
			<polygon
   id="polygon139"
   points="321.9,183.5 319.6,189.3 317.2,183.5 316.1,183.5 319.1,190.5 320.1,190.5 323,183.5 "
   fill="#f89820" />
			<path
   id="path141"
   d="m 332.8,183.3 c -1.1,0 -2,0.5 -2.3,1.5 -0.4,-0.9 -1.3,-1.5 -2.3,-1.5 -0.9,0 -1.7,0.5 -2,1.2 v -1 h -1 v 7 h 1 V 186 c 0,-1 0.8,-1.8 1.9,-1.8 1,0 1.6,0.8 1.6,2 v 4.4 h 1 V 186 c 0,-1 0.8,-1.8 1.9,-1.8 1,0 1.6,0.8 1.6,2 v 4.4 h 1 V 186 c 0.2,-1.5 -0.9,-2.7 -2.4,-2.7 z"
   fill="#f89820" />
		</g>
	</g><g
   id="g155"
   transform="translate(-20.325257,0.08951502)">
		<path
   id="path147"
   d="m 376.2,169.5 v 34.4 h 34.4 v -0.3 -0.6 -33.5 z m 0.9,33.5 v -32.6 h 32.6 V 203 Z"
   fill="#f89820" />
		<g
   id="g153">
			<polygon
   id="polygon149"
   points="389.1,183.5 386.8,189.3 384.4,183.5 383.3,183.5 386.3,190.5 387.3,190.5 390.2,183.5 "
   fill="#f89820" />
			<path
   id="path151"
   d="m 400,183.3 c -1.1,0 -2,0.5 -2.3,1.5 -0.4,-0.9 -1.3,-1.5 -2.3,-1.5 -0.9,0 -1.7,0.5 -2,1.2 v -1 h -1 v 7 h 1 V 186 c 0,-1 0.8,-1.8 1.9,-1.8 1,0 1.6,0.8 1.6,2 v 4.4 h 1 V 186 c 0,-1 0.8,-1.8 1.9,-1.8 1,0 1.6,0.8 1.6,2 v 4.4 h 1 V 186 c 0.2,-1.5 -0.9,-2.7 -2.4,-2.7 z"
   fill="#f89820" />
		</g>
	</g><line
   id="line157"
   y2="146.08952"
   x2="400.37473"
   y1="146.08952"
   x1="278.57474"
   stroke-miterlimit="10"
   stroke-width="2"
   stroke="#f89820"
   fill="none" />
</svg>
