<?xml version="1.0" encoding="UTF-8" standalone="no"?>
<svg
   xmlns:dc="http://purl.org/dc/elements/1.1/"
   xmlns:cc="http://creativecommons.org/ns#"
   xmlns:rdf="http://www.w3.org/1999/02/22-rdf-syntax-ns#"
   xmlns:svg="http://www.w3.org/2000/svg"
   xmlns="http://www.w3.org/2000/svg"
   xmlns:sodipodi="http://sodipodi.sourceforge.net/DTD/sodipodi-0.dtd"
   xmlns:inkscape="http://www.inkscape.org/namespaces/inkscape"
   version="1.1"
   id="Layer_1"
   x="0px"
   y="0px"
   viewBox="0 0 957.6 540"
   enable-background="new 0 0 957.6 540"
   xml:space="preserve"
   sodipodi:docname="vSphere-VMware-Cloud-Foundation.svg"
   inkscape:version="1.0 (4035a4fb49, 2020-05-01)"><metadata
   id="metadata3400"><rdf:RDF><cc:Work
       rdf:about=""><dc:format>image/svg+xml</dc:format><dc:type
         rdf:resource="http://purl.org/dc/dcmitype/StillImage" /><dc:title></dc:title></cc:Work></rdf:RDF></metadata><defs
   id="defs3398"><clipPath
     id="clipEmfPath1"
     clipPathUnits="userSpaceOnUse"><path
       id="path989"
       d="M 21.033071,21.033071 L 120.18898,21.033071 L 120.18898,108.17008 L 21.033071,108.17008 z" /></clipPath><pattern
     y="0"
     x="0"
     height="6"
     width="6"
     patternUnits="userSpaceOnUse"
     id="EMFhbasepattern" /></defs><sodipodi:namedview
   pagecolor="#ffffff"
   bordercolor="#666666"
   borderopacity="1"
   objecttolerance="10"
   gridtolerance="10"
   guidetolerance="10"
   inkscape:pageopacity="0"
   inkscape:pageshadow="2"
   inkscape:window-width="1920"
   inkscape:window-height="1017"
   id="namedview3396"
   showgrid="false"
   inkscape:zoom="0.83139468"
   inkscape:cx="624.03967"
   inkscape:cy="290.34661"
   inkscape:window-x="1912"
   inkscape:window-y="-8"
   inkscape:window-maximized="1"
   inkscape:current-layer="Layer_1"
   inkscape:document-rotation="0" /><rect
   x="94.6"
   y="102.5"
   fill="#1E4488"
   width="768.5"
   height="336.4"
   id="rect3076" /><path
   fill="#78BE43"
   d="M116.3,11v64.2h64.2v-0.5v-1.1V11H116.3z M118,73.5V12.7h60.8v60.8H118z"
   id="path3078" /><g
   id="g3084"><path
     fill="#78BE43"
     d="M135.6,39.3h1.4l2.9,7.2l2.8-7.2h1.4l-3.6,8.7h-1.2L135.6,39.3z"
     id="path3080" /><path
     fill="#78BE43"
     d="M159.3,42.5v5.5h-1.3v-5.4c0-1.4-0.8-2.4-2-2.4c-1.4,0-2.4,0.9-2.4,2.2V48h-1.3v-5.4c0-1.4-0.8-2.4-2-2.4   c-1.4,0-2.4,0.9-2.4,2.2v5.5h-1.3v-8.6h1.3v1.3c0.4-0.9,1.4-1.5,2.5-1.5c1.3,0,2.4,0.7,2.8,1.8c0.3-1.1,1.5-1.8,2.8-1.8   C158.1,39.1,159.3,40.6,159.3,42.5z"
     id="path3082" /></g><path
   fill="#78BE43"
   d="M211.8,11v64.2H276v-0.5v-1.1V11H211.8z M213.5,73.5V12.7h60.8v60.8H213.5z"
   id="path3086" /><g
   id="g3092"><path
     fill="#78BE43"
     d="M231.1,39.3h1.4l2.9,7.2l2.8-7.2h1.4l-3.6,8.7h-1.2L231.1,39.3z"
     id="path3088" /><path
     fill="#78BE43"
     d="M254.9,42.5v5.5h-1.3v-5.4c0-1.4-0.8-2.4-2-2.4c-1.4,0-2.4,0.9-2.4,2.2V48h-1.3v-5.4c0-1.4-0.8-2.4-2-2.4   c-1.4,0-2.4,0.9-2.4,2.2v5.5h-1.3v-8.6h1.3v1.3c0.4-0.9,1.4-1.5,2.5-1.5c1.3,0,2.4,0.7,2.8,1.8c0.3-1.1,1.5-1.8,2.8-1.8   C253.6,39.1,254.9,40.6,254.9,42.5z"
     id="path3090" /></g><path
   fill="#78BE43"
   d="M307.3,11v64.2h64.2v-0.5v-1.1V11H307.3z M309,73.5V12.7h60.8v60.8H309z"
   id="path3094" /><g
   id="g3100"><path
     fill="#78BE43"
     d="M326.6,39.3h1.4l2.9,7.2l2.8-7.2h1.4l-3.6,8.7h-1.2L326.6,39.3z"
     id="path3096" /><path
     fill="#78BE43"
     d="M350.4,42.5v5.5h-1.3v-5.4c0-1.4-0.8-2.4-2-2.4c-1.4,0-2.4,0.9-2.4,2.2V48h-1.3v-5.4c0-1.4-0.8-2.4-2-2.4   c-1.4,0-2.4,0.9-2.4,2.2v5.5h-1.3v-8.6h1.3v1.3c0.4-0.9,1.4-1.5,2.5-1.5c1.3,0,2.4,0.7,2.8,1.8c0.3-1.1,1.5-1.8,2.8-1.8   C349.1,39.1,350.4,40.6,350.4,42.5z"
     id="path3098" /></g><g
   id="g3130"><g
     id="g3118"><polygon
       fill="#0995D3"
       points="643.3,74.5 640.4,71.6 641.5,70.4 643.3,72.2 645.1,70.4 646.3,71.6   "
       id="polygon3102" /><path
       fill="#0995D3"
       d="M637.8,69l-5.2-5.2l1.2-1.2l5.2,5.2L637.8,69z M630,61.3l-5.2-5.2l1.2-1.2l5.2,5.2L630,61.3z M622.2,53.5    l-5.2-5.2l1.2-1.2l5.2,5.2L622.2,53.5z"
       id="path3104" /><polygon
       fill="#0995D3"
       points="614.5,45.8 611.5,42.7 614.5,39.8 615.6,41 613.9,42.7 615.6,44.5   "
       id="polygon3106" /><path
       fill="#0995D3"
       d="M618.2,38.4l-1.2-1.2l5.2-5.2l1.2,1.2L618.2,38.4z M626,30.6l-1.2-1.2l5.2-5.2l1.2,1.2L626,30.6z     M633.8,22.9l-1.2-1.2l5.2-5.2l1.2,1.2L633.8,22.9z"
       id="path3108" /><polygon
       fill="#0995D3"
       points="645.1,15.2 643.3,13.4 641.5,15.2 640.3,14 643.3,11 646.2,14   "
       id="polygon3110" /><path
       fill="#0995D3"
       d="M668.4,38.5l-5.2-5.2l1.2-1.2l5.2,5.2L668.4,38.5z M660.6,30.7l-5.2-5.2l1.2-1.2l5.2,5.2L660.6,30.7z     M652.8,22.9l-5.2-5.2l1.2-1.2l5.2,5.2L652.8,22.9z"
       id="path3112" /><polygon
       fill="#0995D3"
       points="672.1,45.8 671,44.6 672.7,42.8 671,41.1 672.1,39.9 675,42.8   "
       id="polygon3114" /><path
       fill="#0995D3"
       d="M648.9,69l-1.2-1.2l5.2-5.2l1.2,1.2L648.9,69z M656.6,61.3l-1.2-1.2l5.2-5.2l1.2,1.2L656.6,61.3z     M664.3,53.5l-1.2-1.2l5.2-5.2l1.2,1.2L664.3,53.5z"
       id="path3116" /></g><path
     fill="#0995D3"
     d="M643.3,27.8c0.1,0,0.3,0,0.4,0.1l14.6,14.6c0.1,0.1,0.1,0.3,0.1,0.4c0,0.1,0,0.3-0.1,0.4l-14.6,14.6   c-0.1,0.1-0.3,0.1-0.4,0.1c-0.1,0-0.3,0-0.4-0.1l-14.5-14.6c-0.1-0.1-0.1-0.3-0.1-0.4c0-0.1,0-0.3,0.1-0.4L642.9,28   C643.1,27.8,643.2,27.8,643.3,27.8 M643.3,26.1c-0.6,0-1.1,0.2-1.6,0.7l-14.5,14.5c-0.9,0.9-0.9,2.3,0,3.1l14.6,14.6   c0.5,0.5,1,0.7,1.6,0.7s1.1-0.2,1.6-0.7l14.6-14.6c0.9-0.9,0.9-2.3,0-3.1l-14.7-14.5C644.5,26.3,643.9,26.1,643.3,26.1L643.3,26.1z   "
     id="path3120" /><g
     id="g3128"><path
       fill="#0995D3"
       d="M638.3,44.8h-3.8l-0.7,1.5H633l3-6.9h0.9l3,6.9H639L638.3,44.8z M638,44l-1.6-3.6l-1.6,3.6H638z"
       id="path3122" /><path
       fill="#0995D3"
       d="M641.3,39.4h2.8c1.4,0,2.5,0.9,2.5,2.2s-1.1,2.2-2.5,2.2h-2v2.5h-0.8V39.4z M643.9,43.1    c1.1,0,1.9-0.5,1.9-1.5c0-0.9-0.7-1.5-1.9-1.5h-1.9v2.9H643.9z"
       id="path3124" /><path
       fill="#0995D3"
       d="M648,39.4h2.8c1.4,0,2.5,0.9,2.5,2.2s-1.1,2.2-2.5,2.2h-2v2.5H648V39.4z M650.7,43.1    c1.1,0,1.9-0.5,1.9-1.5c0-0.9-0.7-1.5-1.9-1.5h-1.9v2.9H650.7z"
       id="path3126" /></g></g><g
   id="g3160"><g
     id="g3148"><polygon
       fill="#0995D3"
       points="726.2,74.5 723.3,71.6 724.4,70.4 726.2,72.2 727.9,70.4 729.1,71.6   "
       id="polygon3132" /><path
       fill="#0995D3"
       d="M720.7,69l-5.2-5.2l1.2-1.2l5.2,5.2L720.7,69z M712.9,61.3l-5.2-5.2l1.2-1.2l5.2,5.2L712.9,61.3z     M705.1,53.5l-5.2-5.2l1.2-1.2l5.2,5.2L705.1,53.5z"
       id="path3134" /><polygon
       fill="#0995D3"
       points="697.4,45.8 694.4,42.7 697.4,39.8 698.5,41 696.8,42.7 698.5,44.5   "
       id="polygon3136" /><path
       fill="#0995D3"
       d="M701.1,38.4l-1.2-1.2l5.2-5.2l1.2,1.2L701.1,38.4z M708.9,30.6l-1.2-1.2l5.2-5.2l1.2,1.2L708.9,30.6z     M716.6,22.9l-1.2-1.2l5.2-5.2l1.2,1.2L716.6,22.9z"
       id="path3138" /><polygon
       fill="#0995D3"
       points="727.9,15.2 726.1,13.4 724.4,15.2 723.2,14 726.1,11 729.1,14   "
       id="polygon3140" /><path
       fill="#0995D3"
       d="M751.2,38.5l-5.2-5.2l1.2-1.2l5.2,5.2L751.2,38.5z M743.5,30.7l-5.2-5.2l1.2-1.2l5.2,5.2L743.5,30.7z     M735.7,22.9l-5.2-5.2l1.2-1.2l5.2,5.2L735.7,22.9z"
       id="path3142" /><polygon
       fill="#0995D3"
       points="755,45.8 753.8,44.6 755.6,42.8 753.8,41.1 755,39.9 757.9,42.8   "
       id="polygon3144" /><path
       fill="#0995D3"
       d="M731.8,69l-1.2-1.2l5.2-5.2l1.2,1.2L731.8,69z M739.5,61.3l-1.2-1.2l5.2-5.2l1.2,1.2L739.5,61.3z     M747.2,53.5l-1.2-1.2l5.2-5.2l1.2,1.2L747.2,53.5z"
       id="path3146" /></g><path
     fill="#0995D3"
     d="M726.1,27.8c0.1,0,0.3,0,0.4,0.1l14.6,14.6c0.1,0.1,0.1,0.3,0.1,0.4c0,0.1,0,0.3-0.1,0.4l-14.6,14.6   c-0.1,0.1-0.3,0.1-0.4,0.1c-0.1,0-0.3,0-0.4-0.1l-14.5-14.6c-0.1-0.1-0.1-0.3-0.1-0.4c0-0.1,0-0.3,0.1-0.4L725.8,28   C725.9,27.8,726.1,27.8,726.1,27.8 M726.1,26.1c-0.6,0-1.1,0.2-1.6,0.7L710,41.3c-0.9,0.9-0.9,2.3,0,3.1l14.6,14.6   c0.5,0.5,1,0.7,1.6,0.7c0.6,0,1.1-0.2,1.6-0.7l14.6-14.6c0.9-0.9,0.9-2.3,0-3.1l-14.7-14.5C727.3,26.3,726.7,26.1,726.1,26.1   L726.1,26.1z"
     id="path3150" /><g
     id="g3158"><path
       fill="#0995D3"
       d="M721.2,44.8h-3.8l-0.7,1.5h-0.9l3-6.9h0.9l3,6.9h-0.9L721.2,44.8z M720.9,44l-1.6-3.6l-1.6,3.6H720.9z"
       id="path3152" /><path
       fill="#0995D3"
       d="M724.1,39.4h2.8c1.4,0,2.5,0.9,2.5,2.2s-1.1,2.2-2.5,2.2h-2v2.5h-0.8L724.1,39.4z M726.8,43.1    c1.1,0,1.9-0.5,1.9-1.5c0-0.9-0.7-1.5-1.9-1.5h-1.9v2.9H726.8z"
       id="path3154" /><path
       fill="#0995D3"
       d="M730.9,39.4h2.8c1.4,0,2.5,0.9,2.5,2.2s-1.1,2.2-2.5,2.2h-2v2.5h-0.8V39.4z M733.6,43.1    c1.1,0,1.9-0.5,1.9-1.5c0-0.9-0.7-1.5-1.9-1.5h-1.9v2.9H733.6z"
       id="path3156" /></g></g><g
   id="g3190"><g
     id="g3178"><polygon
       fill="#0995D3"
       points="809.1,74.5 806.1,71.6 807.3,70.4 809.1,72.2 810.8,70.4 812,71.6   "
       id="polygon3162" /><path
       fill="#0995D3"
       d="M803.5,69l-5.2-5.2l1.2-1.2l5.2,5.2L803.5,69z M795.8,61.3l-5.2-5.2l1.2-1.2l5.2,5.2L795.8,61.3z     M788,53.5l-5.2-5.2l1.2-1.2l5.2,5.2L788,53.5z"
       id="path3164" /><polygon
       fill="#0995D3"
       points="780.2,45.8 777.2,42.7 780.2,39.8 781.4,41 779.6,42.7 781.4,44.5   "
       id="polygon3166" /><path
       fill="#0995D3"
       d="M784,38.4l-1.2-1.2l5.2-5.2l1.2,1.2L784,38.4z M791.8,30.6l-1.2-1.2l5.2-5.2l1.2,1.2L791.8,30.6z     M799.5,22.9l-1.2-1.2l5.2-5.2l1.2,1.2L799.5,22.9z"
       id="path3168" /><polygon
       fill="#0995D3"
       points="810.8,15.2 809,13.4 807.3,15.2 806.1,14 809,11 812,14   "
       id="polygon3170" /><path
       fill="#0995D3"
       d="M834.1,38.5l-5.2-5.2l1.2-1.2l5.2,5.2L834.1,38.5z M826.3,30.7l-5.2-5.2l1.2-1.2l5.2,5.2L826.3,30.7z     M818.6,22.9l-5.2-5.2l1.2-1.2l5.2,5.2L818.6,22.9z"
       id="path3172" /><polygon
       fill="#0995D3"
       points="837.9,45.8 836.7,44.6 838.5,42.8 836.7,41.1 837.9,39.9 840.8,42.8   "
       id="polygon3174" /><path
       fill="#0995D3"
       d="M814.6,69l-1.2-1.2l5.2-5.2l1.2,1.2L814.6,69z M822.4,61.3l-1.2-1.2l5.2-5.2l1.2,1.2L822.4,61.3z     M830.1,53.5l-1.2-1.2l5.2-5.2l1.2,1.2L830.1,53.5z"
       id="path3176" /></g><path
     fill="#0995D3"
     d="M809,27.8c0.1,0,0.3,0,0.4,0.1L824,42.5c0.1,0.1,0.1,0.3,0.1,0.4c0,0.1,0,0.3-0.1,0.4l-14.6,14.6   c-0.1,0.1-0.3,0.1-0.4,0.1s-0.3,0-0.4-0.1l-14.5-14.6c-0.1-0.1-0.1-0.3-0.1-0.4c0-0.1,0-0.3,0.1-0.4L808.7,28   C808.8,27.8,808.9,27.8,809,27.8 M809,26.1c-0.6,0-1.1,0.2-1.6,0.7l-14.5,14.5c-0.9,0.9-0.9,2.3,0,3.1l14.6,14.6   c0.5,0.5,1,0.7,1.6,0.7c0.6,0,1.1-0.2,1.6-0.7l14.6-14.6c0.9-0.9,0.9-2.3,0-3.1l-14.7-14.5C810.2,26.3,809.6,26.1,809,26.1   L809,26.1z"
     id="path3180" /><g
     id="g3188"><path
       fill="#0995D3"
       d="M804.1,44.8h-3.8l-0.7,1.5h-0.9l3-6.9h0.9l3,6.9h-0.9L804.1,44.8z M803.7,44l-1.6-3.6l-1.6,3.6H803.7z"
       id="path3182" /><path
       fill="#0995D3"
       d="M807,39.4h2.8c1.4,0,2.5,0.9,2.5,2.2s-1.1,2.2-2.5,2.2h-2v2.5H807V39.4z M809.7,43.1    c1.1,0,1.9-0.5,1.9-1.5c0-0.9-0.7-1.5-1.9-1.5h-1.9v2.9H809.7z"
       id="path3184" /><path
       fill="#0995D3"
       d="M813.8,39.4h2.8c1.4,0,2.5,0.9,2.5,2.2s-1.1,2.2-2.5,2.2h-2v2.5h-0.8V39.4z M816.4,43.1    c1.1,0,1.9-0.5,1.9-1.5c0-0.9-0.7-1.5-1.9-1.5h-1.9v2.9H816.4z"
       id="path3186" /></g></g><text
   fill="#ffffff"
   font-family="'Metropolis-SemiBold'"
   font-size="18px"
   id="text3192"
   style="font-style:normal;font-variant:normal;font-weight:600;font-stretch:normal;font-family:Metropolis;-inkscape-font-specification:'Metropolis Semi-Bold'"
   x="366.14496"
   y="132.8419">VMware Cloud Foundation</text>
<text
   fill="#ffffff"
   font-family="'Metropolis-SemiBold'"
   font-size="18px"
   id="text3194"
   style="font-style:normal;font-variant:normal;font-weight:600;font-stretch:normal;font-family:Metropolis;-inkscape-font-specification:'Metropolis Semi-Bold'"
   x="365.75809"
   y="229.1721">Virtualization Management</text>
<text
   fill="#ffffff"
   font-family="'Metropolis-SemiBold'"
   font-size="18px"
   id="text3196"
   style="font-style:normal;font-variant:normal;font-weight:600;font-stretch:normal;font-family:Metropolis;-inkscape-font-specification:'Metropolis Semi-Bold'"
   x="445.4538"
   y="328.2547">Storage</text>

<text
   transform="translate(613.2988,523.9814)"
   fill="#218fcf"
   font-family="'Metropolis-SemiBold'"
   font-size="18px"
   id="text3200"
   style="font-style:normal;font-variant:normal;font-weight:600;font-stretch:normal;font-family:Metropolis;-inkscape-font-specification:'Metropolis Semi-Bold'">Public Cloud</text>
<text
   y="328.2547"
   x="110.2419"
   fill="#ffffff"
   font-family="'Metropolis-SemiBold'"
   font-size="18px"
   id="text3202"
   style="font-style:normal;font-variant:normal;font-weight:600;font-stretch:normal;font-family:Metropolis;-inkscape-font-specification:'Metropolis Semi-Bold'">Compute</text>
<text
   transform="translate(764.1992,328.2547)"
   fill="#ffffff"
   font-family="'Metropolis-SemiBold'"
   font-size="18px"
   id="text3204"
   style="font-style:normal;font-variant:normal;font-weight:600;font-stretch:normal;font-family:Metropolis;-inkscape-font-specification:'Metropolis Semi-Bold'">Network</text>
<g
   id="g3228"
   transform="translate(-1.9786846)"><path
     fill="#ffffff"
     d="m 499.1,156.3 v 0 c 0.5,0 0.9,-0.3 0.9,-0.9 0,-0.6 -0.3,-0.8 -0.8,-0.8 -0.5,0 -0.9,0.3 -0.9,0.9 0,0.6 0.3,0.8 0.8,0.8 z"
     id="path3206" /><path
     fill="#ffffff"
     d="m 495.7,156.3 v 0 c 0.5,0 0.9,-0.3 0.9,-0.9 0,-0.6 -0.3,-0.8 -0.8,-0.8 -0.5,0 -0.9,0.3 -0.9,0.9 0,0.6 0.3,0.8 0.8,0.8 z"
     id="path3208" /><path
     fill="#ffffff"
     d="m 492.3,156.3 v 0 c 0.5,0 0.9,-0.3 0.9,-0.9 0,-0.6 -0.3,-0.8 -0.8,-0.8 -0.5,0 -0.9,0.3 -0.9,0.9 0,0.6 0.3,0.8 0.8,0.8 z"
     id="path3210" /><path
     fill="#ffffff"
     d="m 483.5,189 h -31.8 v -37.2 h 50.7 v 7.4 h -47.8 v 1.7 h 47.8 v 18.3 c 0.6,0.1 1.1,0.3 1.7,0.5 V 150.1 H 450 v 40.5 h 32.9 c 0.2,-0.5 0.4,-1 0.6,-1.6 z"
     id="path3212" /><path
     fill="#ffffff"
     d="m 511.9,196.4 c -0.5,-0.1 -0.9,0.3 -0.9,0.7 -0.9,6.8 -7.4,11.6 -14.2,10.7 -3.3,-0.5 -6.3,-2.2 -8.3,-4.9 -2,-2.6 -2.8,-5.9 -2.4,-9.3 0.7,-4.9 4.2,-8.9 8.9,-10.3 l 0.1,2.3 5.3,-3.5 -5.8,-2.9 0.1,2.4 c -5.5,1.5 -9.6,6.1 -10.4,11.8 -0.5,3.7 0.4,7.5 2.7,10.5 2.3,3 5.7,5 9.5,5.5 0.7,0.1 1.4,0.1 2,0.1 7,0 13.1,-5.1 14.1,-12.2 0.1,-0.4 -0.3,-0.8 -0.7,-0.9 z"
     id="path3214" /><path
     fill="#ffffff"
     stroke="#010101"
     stroke-width="2"
     stroke-miterlimit="10"
     d="M 499.3,198.1"
     id="path3216" /><g
     id="g3222"><path
       fill="#ffffff"
       d="m 498.7,193.3 0.8,0.9 c 0.3,-0.2 0.7,-0.3 1,-0.3 0.1,0 0.2,0 0.3,0.1 l 1.8,-1.8 0.5,-0.5 c 0.9,0.4 2,0.2 2.8,-0.5 0.8,-0.7 0.9,-1.8 0.5,-2.8 l -1.3,1.3 -1,-0.3 -0.3,-1.1 1.3,-1.3 c -0.9,-0.3 -2,-0.2 -2.8,0.5 -0.8,0.7 -0.9,1.8 -0.5,2.8 l -0.5,0.5 z"
       id="path3218" /><path
       fill="#ffffff"
       d="m 497.2,197.5 c -0.1,-0.5 0,-1.2 0.5,-1.6 l 0.1,-0.1 -0.8,-0.8 -3,3 -0.5,0.5 c -0.9,-0.4 -2,-0.2 -2.8,0.5 -0.7,0.7 -0.9,1.8 -0.5,2.8 l 1.3,-1.3 1.1,0.3 0.3,1.1 -1.3,1.3 c 0.9,0.3 2,0.2 2.8,-0.5 0.8,-0.7 0.9,-1.8 0.5,-2.8 l 0.5,-0.5 z"
       id="path3220" /></g><path
     fill="#ffffff"
     d="m 506.9,200.9 -4.3,-4.5 -0.9,-0.5 c 0,-0.2 -0.1,-0.4 -0.3,-0.5 l -0.4,-0.5 c -0.3,-0.3 -0.9,-0.3 -1.2,0 l -1.6,1.6 c -0.3,0.3 -0.3,0.9 0,1.2 l 0.9,0.6 0.4,0.7 4.5,4.7 0.8,0.2 2.3,-2.2 z"
     id="path3224" /><path
     fill="#ffffff"
     d="m 499.2,195.1 -4.6,-4.8 v -1.1 l -1.8,-1.2 -1,1 1.3,1.8 h 1 l 4.5,4.8 z"
     id="path3226" /></g><g
   id="g3252"><path
     fill="#FFFFFF"
     d="M787,285.1c-1.6,0-2.8,1.3-2.8,2.8c0,0.8,0.3,1.5,0.8,2c0.5,0.5,1.2,0.8,2,0.8c1.5,0,2.8-1.2,2.8-2.8   c0-0.8-0.3-1.5-0.8-2C788.4,285.4,787.7,285.1,787,285.1z"
     id="path3230" /><path
     fill="#FFFFFF"
     d="M819.3,285.1c-1.6,0-2.8,1.3-2.8,2.8c0,0.8,0.3,1.5,0.8,2c0.5,0.5,1.2,0.8,2,0.8c1.5,0,2.8-1.2,2.8-2.8   c0-0.8-0.3-1.5-0.8-2C820.8,285.4,820.1,285.1,819.3,285.1z"
     id="path3232" /><path
     fill="#FFFFFF"
     d="M802.3,293.6c-1.6,0-2.8,1.3-2.8,2.8c0,0.8,0.3,1.5,0.8,2s1.2,0.8,2,0.8c1.5,0,2.8-1.2,2.8-2.8   c0-0.8-0.3-1.5-0.8-2C803.7,293.9,803,293.6,802.3,293.6z"
     id="path3234" /><path
     fill="#FFFFFF"
     d="M799.1,277.5c1.1,0,2.1-0.7,2.6-1.7c0.2-0.3,0.2-0.7,0.2-1.1c0-0.8-0.3-1.5-0.8-2c-0.5-0.6-1.2-0.8-2-0.8   c-1.6,0-2.8,1.3-2.8,2.8c0,0.8,0.3,1.5,0.8,2C797.7,277.2,798.4,277.5,799.1,277.5z"
     id="path3236" /><path
     fill="#FFFFFF"
     d="M779.9,271.9c-1.6,0-2.8,1.3-2.8,2.8c0,0.8,0.3,1.5,0.8,2c0.5,0.5,1.2,0.8,2,0.8c1.1,0,2.1-0.7,2.6-1.7   c0.2-0.3,0.2-0.7,0.2-1.1c0-0.8-0.3-1.5-0.8-2C781.3,272.2,780.6,271.9,779.9,271.9z"
     id="path3238" /><path
     fill="#FFFFFF"
     d="M781.5,266.6c0.2-0.3,0.2-0.7,0.2-1.1c0-0.8-0.3-1.5-0.8-2c-0.5-0.6-1.2-0.8-2-0.8c-1.6,0-2.8,1.3-2.8,2.8   c0,0.8,0.3,1.5,0.8,2s1.2,0.8,2,0.8C780,268.4,781,267.6,781.5,266.6z"
     id="path3240" /><path
     fill="#FFFFFF"
     d="M790.1,255.6c1.1,0,2.1-0.7,2.6-1.7c0.2-0.3,0.2-0.7,0.2-1.1c0-0.8-0.3-1.5-0.8-2c-0.5-0.6-1.2-0.8-2-0.8   c-1.6,0-2.8,1.3-2.8,2.8c0,0.8,0.3,1.5,0.8,2C788.6,255.4,789.4,255.6,790.1,255.6z"
     id="path3242" /><path
     fill="#FFFFFF"
     d="M816.1,255.6c1.1,0,2.1-0.7,2.6-1.7c0.2-0.3,0.2-0.7,0.2-1.1c0-0.8-0.3-1.5-0.8-2c-0.5-0.6-1.2-0.8-2-0.8   c-1.6,0-2.8,1.3-2.8,2.8c0,0.8,0.3,1.5,0.8,2C814.6,255.4,815.3,255.6,816.1,255.6z"
     id="path3244" /><path
     fill="#FFFFFF"
     d="M827.4,272.7c-0.5-0.6-1.2-0.8-2-0.8c-1.6,0-2.8,1.3-2.8,2.8c0,0.8,0.3,1.5,0.8,2s1.2,0.8,2,0.8   c1.1,0,2.1-0.7,2.6-1.7c0.2-0.3,0.2-0.7,0.2-1.1C828.2,273.9,827.9,273.3,827.4,272.7z"
     id="path3246" /><rect
     x="787.9"
     y="280"
     transform="matrix(0.6955 -0.7185 0.7185 0.6955 39.7629 655.2032)"
     fill="#FFFFFF"
     width="10.1"
     height="1.4"
     id="rect3248" /><polygon
     fill="#FFFFFF"
     points="816.4,275 821.5,275 821.5,273.6 817,273.6 816.7,273.4 816.7,256.7 815.3,256.7 815.3,272    807.9,264.7 790.2,264.7 790.2,264.6 790.8,264.6 790.8,256.8 789.4,256.8 789.4,264.6 790,264.6 790,264.7 782.9,264.7    782.9,266.1 788.6,266.1 782.3,272.3 783.3,273.3 790.3,266.4 796.3,272.4 797.3,271.3 792,266.1 807.3,266.1 815.3,274    801.9,287.2 790.9,287.2 790.9,288.6 801.5,288.6 801.5,292.5 802.9,292.5 802.9,288.6 815.6,288.6 815.6,287.2 803.9,287.2    816.3,274.9  "
     id="polygon3250" /></g><g
   id="g3256"
   transform="translate(0.2290863)"><path
     fill="#ffffff"
     d="m 504.9,251 c 0,-4.6 -13.2,-7.1 -26.2,-7.1 -13,0 -26.2,2.4 -26.2,7.1 0,4.6 13.2,7.1 26.2,7.1 10.1,0 20.4,-1.5 24.4,-4.3 V 266 c -0.1,0.1 -0.1,0.3 -0.1,0.5 0,2.2 -9.3,5.3 -24.4,5.3 -15.1,0 -24.4,-3.1 -24.4,-5.3 v -8.3 c 0,-0.5 -0.4,-0.8 -0.8,-0.8 -0.4,0 -0.8,0.4 -0.8,0.8 v 8.3 c 0,4.6 13.2,7.1 26.2,7.1 10.3,0 20.7,-1.5 24.6,-4.5 V 282 c -0.1,0.1 -0.1,0.3 -0.1,0.5 0,2.2 -9.3,5.3 -24.4,5.3 -15.1,0 -24.4,-3.1 -24.4,-5.3 v -8.2 c 0,-0.5 -0.4,-0.8 -0.8,-0.8 -0.4,0 -0.8,0.4 -0.8,0.8 v 8.1 c 0,4.6 13.2,7.1 26.2,7.1 10.3,0 20.7,-1.5 24.6,-4.5 v 13 c -0.1,0.1 -0.1,0.3 -0.1,0.5 0,2.2 -9.3,5.3 -24.4,5.3 -15.1,0 -24.4,-3.1 -24.4,-5.3 v -8.2 c 0,-0.5 -0.4,-0.8 -0.8,-0.8 -0.4,0 -0.8,0.4 -0.8,0.8 v 8.1 c 0,4.6 13.2,7.1 26.2,7.1 12.5,0 25.3,-2.2 26.1,-6.6 h 0.2 v -47.4 h -0.3 c -0.5,-0.2 -0.5,-0.3 -0.5,-0.5 z m -26.2,5.3 c -15.1,0 -24.4,-3.1 -24.4,-5.3 0,-2.2 9.3,-5.3 24.4,-5.3 15.1,0 24.4,3.1 24.4,5.3 0,2.2 -9.3,5.3 -24.4,5.3 z"
     id="path3254" /></g><g
   transform="translate(-4)"
   id="g3336"><g
     id="g3282"><g
       id="g3278"><path
         fill="#ffffff"
         d="m 175.5,253.9 v 10 h -45.7 v -10 h 45.7 m 1.5,-1.4 h -48.5 v 12.8 H 177 Z"
         id="path3258" /><g
         id="g3276"><rect
           x="171"
           y="256.79999"
           fill="#ffffff"
           width="1.4"
           height="4.3000002"
           id="rect3260" /><rect
           x="168.10001"
           y="256.79999"
           fill="#ffffff"
           width="1.4"
           height="4.3000002"
           id="rect3262" /><rect
           x="165.3"
           y="256.79999"
           fill="#ffffff"
           width="1.4"
           height="4.3000002"
           id="rect3264" /><rect
           x="162.39999"
           y="256.79999"
           fill="#ffffff"
           width="1.4"
           height="4.3000002"
           id="rect3266" /><rect
           x="159.60001"
           y="256.79999"
           fill="#ffffff"
           width="1.4"
           height="4.3000002"
           id="rect3268" /><rect
           x="156.7"
           y="256.79999"
           fill="#ffffff"
           width="1.4"
           height="4.3000002"
           id="rect3270" /><rect
           x="153.8"
           y="256.79999"
           fill="#ffffff"
           width="1.4"
           height="4.3000002"
           id="rect3272" /><rect
           x="150.89999"
           y="256.79999"
           fill="#ffffff"
           width="1.4"
           height="4.3000002"
           id="rect3274" /></g></g><circle
       fill="#ffffff"
       cx="134.10001"
       cy="258.89999"
       r="1.4"
       id="circle3280" /></g><g
     id="g3308"><g
       id="g3304"><path
         fill="#ffffff"
         d="m 175.5,269.5 v 10 h -45.7 v -10 h 45.7 m 1.5,-1.4 H 128.5 V 281 H 177 Z"
         id="path3284" /><g
         id="g3302"><rect
           x="171"
           y="272.5"
           fill="#ffffff"
           width="1.4"
           height="4.3000002"
           id="rect3286" /><rect
           x="168.10001"
           y="272.5"
           fill="#ffffff"
           width="1.4"
           height="4.3000002"
           id="rect3288" /><rect
           x="165.3"
           y="272.5"
           fill="#ffffff"
           width="1.4"
           height="4.3000002"
           id="rect3290" /><rect
           x="162.39999"
           y="272.5"
           fill="#ffffff"
           width="1.4"
           height="4.3000002"
           id="rect3292" /><rect
           x="159.60001"
           y="272.5"
           fill="#ffffff"
           width="1.4"
           height="4.3000002"
           id="rect3294" /><rect
           x="156.7"
           y="272.5"
           fill="#ffffff"
           width="1.4"
           height="4.3000002"
           id="rect3296" /><rect
           x="153.8"
           y="272.5"
           fill="#ffffff"
           width="1.4"
           height="4.3000002"
           id="rect3298" /><rect
           x="150.89999"
           y="272.5"
           fill="#ffffff"
           width="1.4"
           height="4.3000002"
           id="rect3300" /></g></g><circle
       fill="#ffffff"
       cx="134.10001"
       cy="274.5"
       r="1.4"
       id="circle3306" /></g><g
     id="g3334"><g
       id="g3330"><path
         fill="#ffffff"
         d="m 175.5,285.2 v 10 h -45.7 v -10 h 45.7 m 1.5,-1.4 h -48.5 v 12.8 H 177 Z"
         id="path3310" /><g
         id="g3328"><rect
           x="171"
           y="288.20001"
           fill="#ffffff"
           width="1.4"
           height="4.3000002"
           id="rect3312" /><rect
           x="168.10001"
           y="288.20001"
           fill="#ffffff"
           width="1.4"
           height="4.3000002"
           id="rect3314" /><rect
           x="165.3"
           y="288.20001"
           fill="#ffffff"
           width="1.4"
           height="4.3000002"
           id="rect3316" /><rect
           x="162.39999"
           y="288.20001"
           fill="#ffffff"
           width="1.4"
           height="4.3000002"
           id="rect3318" /><rect
           x="159.60001"
           y="288.20001"
           fill="#ffffff"
           width="1.4"
           height="4.3000002"
           id="rect3320" /><rect
           x="156.7"
           y="288.20001"
           fill="#ffffff"
           width="1.4"
           height="4.3000002"
           id="rect3322" /><rect
           x="153.8"
           y="288.20001"
           fill="#ffffff"
           width="1.4"
           height="4.3000002"
           id="rect3324" /><rect
           x="150.89999"
           y="288.20001"
           fill="#ffffff"
           width="1.4"
           height="4.3000002"
           id="rect3326" /></g></g><circle
       fill="#ffffff"
       cx="134.10001"
       cy="290.29999"
       r="1.4"
       id="circle3332" /></g></g><polyline
   fill="none"
   stroke="#19BFD3"
   stroke-width="2"
   stroke-miterlimit="10"
   points="516,170.4 802.3,170.4 802.3,237 "
   id="polyline3358" /><polyline
   fill="none"
   stroke="#19BFD3"
   stroke-width="2"
   stroke-miterlimit="10"
   points="433,170.4 146.7,170.4 146.7,237 "
   id="polyline3360" /><line
   fill="none"
   stroke="#19BFD3"
   stroke-width="2"
   stroke-miterlimit="10"
   x1="184.7"
   y1="274.5"
   x2="441.6"
   y2="274.5"
   id="line3362" /><line
   fill="none"
   stroke="#19BFD3"
   stroke-width="2"
   stroke-miterlimit="10"
   x1="94.6"
   y1="339"
   x2="863"
   y2="339"
   id="line3364" /><line
   fill="none"
   stroke="#19BFD3"
   stroke-width="2"
   stroke-miterlimit="10"
   x1="512.1"
   y1="274.5"
   x2="769.1"
   y2="274.5"
   id="line3366" /><g
   id="Clouds__x2B__Infrastructure_Expanded_AQ"><path
     fill="#0995D3"
     d="M804.9,481.7c0.1,0,0.3,0,0.4,0c9.1,0.2,16.6,8,17.6,18.1l0.2,2.1l2.1,0.2c6.3,0.6,11.1,7,10.9,14.7   c-0.2,7.8-5.6,14.1-12,14.1c-0.1,0-0.2,0-0.3,0c-0.2,0-0.8,0-1.7,0c-4.6,0-18,0-31.1,0.1c-13.1,0-26.7,0.1-31.3,0.1   c-0.9,0-1.4,0-1.6,0c-6.4-0.2-12.3-6.2-12.1-12.4c0.1-6.2,5.3-11.2,11.4-11.2c0.1,0,0.2,0,0.3,0c1,0,1.9,0.2,2.8,0.4l2.6,0.7   l0.6-2.6c1.5-6.9,7.7-12,14.7-12c0.1,0,0.2,0,0.4,0c2.2,0.1,4.2,0.5,6.1,1.4l2.4,1.2l1-2.5C791.1,486.5,797.6,481.7,804.9,481.7    M804.9,479.2c-8.5,0-15.8,5.7-19,13.9c-2.2-1-4.5-1.6-7.1-1.7c-0.1,0-0.3,0-0.4,0c-8.4,0-15.4,5.9-17.1,14   c-1.1-0.3-2.3-0.5-3.4-0.5c-0.1,0-0.2,0-0.3,0c-7.5,0-13.7,6.1-13.9,13.7c-0.2,7.7,6.9,14.8,14.5,15c0.2,0,0.8,0,1.6,0   c9.3,0,53.2-0.2,62.4-0.2c0.9,0,1.4,0,1.6,0c0.1,0,0.2,0,0.3,0c7.8,0,14.3-7.4,14.5-16.5c0.2-9-5.6-16.5-13.2-17.2   c-1-11.2-9.5-20.1-20-20.4C805.2,479.2,805,479.2,804.9,479.2L804.9,479.2z"
     id="path3368" /></g><text
   transform="translate(221.777,523.9814)"
   fill="#218fcf"
   font-family="'Metropolis-SemiBold'"
   font-size="18px"
   id="text3371"
   style="font-style:normal;font-variant:normal;font-weight:600;font-stretch:normal;font-family:Metropolis;-inkscape-font-specification:'Metropolis Semi-Bold'">Private Cloud</text>
<path
   fill="#0995D3"
   d="M172.1,479.2c-8.5,0-15.8,5.7-19,13.9c-2.2-1-4.5-1.6-7.1-1.7c-0.1,0-0.3,0-0.4,0c-8.4,0-15.4,5.9-17.1,14  c-1.1-0.3-2.3-0.5-3.4-0.5c-0.1,0-0.2,0-0.3,0c-7.5,0-13.7,6.1-13.9,13.7c-0.2,7.7,6.9,14.8,14.5,15c0.2,0,0.8,0,1.6,0  c9.3,0,53.2-0.2,62.4-0.2c0.9,0,1.4,0,1.6,0c0.1,0,0.2,0,0.3,0c7.8,0,14.3-7.4,14.5-16.5c0.2-9-5.6-16.5-13.2-17.2  c-1-11.2-9.5-20.1-20-20.4C172.4,479.2,172.2,479.2,172.1,479.2L172.1,479.2z"
   id="path3373" /><g
   id="g3383"><g
     id="g3381"><line
       fill="none"
       stroke="#0995D3"
       stroke-width="2"
       stroke-miterlimit="10"
       x1="146.7"
       y1="444.2"
       x2="146.7"
       y2="472"
       id="line3375" /><g
       id="g3379"><polygon
         fill="#0995D3"
         points="141.7,470.6 146.7,479.2 151.7,470.6    "
         id="polygon3377" /></g></g></g><g
   id="g3393"><g
     id="g3391"><line
       fill="none"
       stroke="#0995D3"
       stroke-width="2"
       stroke-miterlimit="10"
       x1="776.1"
       y1="444.2"
       x2="776.1"
       y2="472"
       id="line3385" /><g
       id="g3389"><polygon
         fill="#0995D3"
         points="771.1,470.6 776.1,479.2 781.1,470.6    "
         id="polygon3387" /></g></g></g><rect
   y="242.94595"
   x="101.2103"
   height="96.958008"
   width="96.958"
   id="rect1062"
   style="fill:none;fill-opacity:1;stroke:#f8981d;stroke-width:2.5;stroke-miterlimit:4;stroke-dasharray:none;stroke-opacity:1;stop-color:#000000" /></svg>
