<?xml version="1.0" encoding="UTF-8" standalone="no"?>
<svg
   xmlns:dc="http://purl.org/dc/elements/1.1/"
   xmlns:cc="http://creativecommons.org/ns#"
   xmlns:rdf="http://www.w3.org/1999/02/22-rdf-syntax-ns#"
   xmlns:svg="http://www.w3.org/2000/svg"
   xmlns="http://www.w3.org/2000/svg"
   xmlns:sodipodi="http://sodipodi.sourceforge.net/DTD/sodipodi-0.dtd"
   xmlns:inkscape="http://www.inkscape.org/namespaces/inkscape"
   version="1.1"
   id="Layer_1"
   x="0px"
   y="0px"
   viewBox="0 0 450 231.7"
   enable-background="new 0 0 450 231.7"
   xml:space="preserve"
   sodipodi:docname="vsphere-drs.svg"
   inkscape:version="1.0 (4035a4fb49, 2020-05-01)"><metadata
   id="metadata331"><rdf:RDF><cc:Work
       rdf:about=""><dc:format>image/svg+xml</dc:format><dc:type
         rdf:resource="http://purl.org/dc/dcmitype/StillImage" /></cc:Work></rdf:RDF></metadata><defs
   id="defs329" /><sodipodi:namedview
   inkscape:document-rotation="0"
   pagecolor="#ffffff"
   bordercolor="#666666"
   borderopacity="1"
   objecttolerance="10"
   gridtolerance="10"
   guidetolerance="10"
   inkscape:pageopacity="0"
   inkscape:pageshadow="2"
   inkscape:window-width="1920"
   inkscape:window-height="986"
   id="namedview327"
   showgrid="false"
   inkscape:zoom="2.3311111"
   inkscape:cx="225"
   inkscape:cy="115.85"
   inkscape:window-x="-11"
   inkscape:window-y="-11"
   inkscape:window-maximized="1"
   inkscape:current-layer="Layer_1" />
<rect
   fill="#FFFFFF"
   width="450"
   height="231.7"
   id="rect2" />
<rect
   x="7.2"
   y="6.7"
   fill="none"
   stroke="#000000"
   stroke-miterlimit="10"
   width="435.7"
   height="130.5"
   id="rect4" />
<rect
   x="15.9"
   y="28.2"
   fill="#FFFFFF"
   stroke="#000000"
   stroke-miterlimit="10"
   stroke-dasharray="2,0,0"
   width="118.8"
   height="85.8"
   id="rect6" />
<rect
   x="18.5"
   y="51.6"
   fill="#ECECEB"
   width="34.6"
   height="34"
   id="rect8" />
<rect
   x="58.3"
   y="51.6"
   fill="#ECECEB"
   width="34.6"
   height="34"
   id="rect10" />
<rect
   x="18.5"
   y="94.3"
   fill="#F89820"
   width="113.6"
   height="17"
   id="rect12" />
<rect
   x="97.5"
   y="38.5"
   width="34.6"
   height="34"
   id="rect14" />
<text
   y="106.1293"
   x="62.166859"
   fill="#ffffff"
   font-family="Metropolis-SemiBold"
   font-size="12px"
   id="text16">ESXi</text>
<rect
   x="165.6"
   y="28.2"
   fill="#FFFFFF"
   stroke="#000000"
   stroke-miterlimit="10"
   stroke-dasharray="2,0,0"
   width="118.8"
   height="85.8"
   id="rect18" />
<rect
   x="168.3"
   y="51.6"
   fill="#ECECEB"
   width="34.6"
   height="34"
   id="rect20" />
<rect
   x="208"
   y="51.6"
   fill="#ECECEB"
   width="34.6"
   height="34"
   id="rect22" />
<rect
   x="168.3"
   y="94.3"
   fill="#F89820"
   width="113.6"
   height="17"
   id="rect24" />
<rect
   x="247.2"
   y="38.5"
   fill="#ECECEB"
   width="34.6"
   height="34"
   id="rect26" />
<text
   y="106.1293"
   x="211.89206"
   fill="#ffffff"
   font-family="Metropolis-SemiBold"
   font-size="12px"
   id="text28">ESXi</text>

<text
   transform="matrix(1 0 0 1 176.8837 224.8345)"
   font-family="'Metropolis-SemiBold'"
   font-size="12px"
   id="text32">Physical Servers</text>
<rect
   x="316.8"
   y="28.2"
   fill="#FFFFFF"
   stroke="#000000"
   stroke-miterlimit="10"
   stroke-dasharray="2,0,0"
   width="118.8"
   height="85.8"
   id="rect34" />
<rect
   x="319.4"
   y="51.6"
   fill="#ECECEB"
   width="34.6"
   height="34"
   id="rect36" />
<rect
   x="359.2"
   y="51.6"
   fill="#ECECEB"
   width="34.6"
   height="34"
   id="rect38" />
<rect
   x="319.4"
   y="94.3"
   fill="#F89820"
   width="113.6"
   height="17"
   id="rect40" />
<rect
   x="398.4"
   y="51.6"
   fill="#ECECEB"
   width="34.6"
   height="34"
   id="rect42" />
<text
   y="106.55828"
   x="361.34335"
   fill="#ffffff"
   font-family="Metropolis-SemiBold"
   font-size="12px"
   id="text44">ESXi</text>
<g
   id="g54">
	<g
   id="g52">
		<polyline
   fill="none"
   stroke="#000000"
   stroke-width="2"
   stroke-miterlimit="10"
   points="115,36 115,15.6 264.5,15.6 264.5,28.8       "
   id="polyline46" />
		<g
   id="g50">
			<polygon
   points="259.5,27.4 264.5,36 269.5,27.4    "
   id="polygon48" />
		</g>
	</g>
</g>
<g
   id="g76">
	<path
   fill="#1295D3"
   d="M120.3,183v20h-90v-20H120.3 M122.8,180.5h-95v25h95V180.5L122.8,180.5z"
   id="path56" />
	<path
   fill="#1295D3"
   d="M75.1,190L75.1,190c1.5,0,2.7,1.1,3,2.5c0.3,1.6-0.8,3.2-2.5,3.5c-0.2,0-0.3,0-0.5,0c-1.5,0-2.7-1.1-3-2.5   c-0.3-1.6,0.8-3.2,2.5-3.5C74.7,190,74.9,190,75.1,190 M75.1,188c-0.3,0-0.6,0-0.8,0.1c-2.7,0.5-4.6,3-4.1,5.8   c0.4,2.4,2.5,4.2,4.9,4.2c0.3,0,0.6,0,0.8-0.1c2.7-0.5,4.6-3,4.1-5.8C79.6,189.7,77.5,188,75.1,188L75.1,188z"
   id="path58" />
	<g
   id="g66">
		<rect
   x="34.6"
   y="188"
   fill="#1295D3"
   width="2.5"
   height="10"
   id="rect60" />
		<rect
   x="39.6"
   y="188"
   fill="#1295D3"
   width="2.5"
   height="10"
   id="rect62" />
		<rect
   x="44.6"
   y="188"
   fill="#1295D3"
   width="2.5"
   height="10"
   id="rect64" />
	</g>
	<g
   id="g74">
		<rect
   x="102"
   y="188"
   fill="#1295D3"
   width="2.5"
   height="10"
   id="rect68" />
		<rect
   x="107"
   y="188"
   fill="#1295D3"
   width="2.5"
   height="10"
   id="rect70" />
		<rect
   x="112"
   y="188"
   fill="#1295D3"
   width="2.5"
   height="10"
   id="rect72" />
	</g>
</g>
<g
   id="g98">
	<path
   fill="#1295D3"
   d="M270,183v20h-90v-20H270 M272.5,180.5h-95v25h95V180.5L272.5,180.5z"
   id="path78" />
	<path
   fill="#1295D3"
   d="M224.8,190L224.8,190c1.5,0,2.7,1.1,3,2.5c0.3,1.6-0.8,3.2-2.5,3.5c-0.2,0-0.3,0-0.5,0   c-1.5,0-2.7-1.1-3-2.5c-0.3-1.6,0.8-3.2,2.5-3.5C224.4,190,224.6,190,224.8,190 M224.8,188c-0.3,0-0.6,0-0.8,0.1   c-2.7,0.5-4.6,3-4.1,5.8c0.4,2.4,2.5,4.2,4.9,4.2c0.3,0,0.6,0,0.8-0.1c2.7-0.5,4.6-3,4.1-5.8C229.3,189.7,227.2,188,224.8,188   L224.8,188z"
   id="path80" />
	<g
   id="g88">
		<rect
   x="184.3"
   y="188"
   fill="#1295D3"
   width="2.5"
   height="10"
   id="rect82" />
		<rect
   x="189.3"
   y="188"
   fill="#1295D3"
   width="2.5"
   height="10"
   id="rect84" />
		<rect
   x="194.3"
   y="188"
   fill="#1295D3"
   width="2.5"
   height="10"
   id="rect86" />
	</g>
	<g
   id="g96">
		<rect
   x="251.7"
   y="188"
   fill="#1295D3"
   width="2.5"
   height="10"
   id="rect90" />
		<rect
   x="256.7"
   y="188"
   fill="#1295D3"
   width="2.5"
   height="10"
   id="rect92" />
		<rect
   x="261.7"
   y="188"
   fill="#1295D3"
   width="2.5"
   height="10"
   id="rect94" />
	</g>
</g>
<g
   id="g120">
	<path
   fill="#1295D3"
   d="M421.2,183v20h-90v-20H421.2 M423.7,180.5h-95v25h95V180.5L423.7,180.5z"
   id="path100" />
	<path
   fill="#1295D3"
   d="M376,190L376,190c1.5,0,2.7,1.1,3,2.5c0.3,1.6-0.8,3.2-2.5,3.5c-0.2,0-0.3,0-0.5,0c-1.5,0-2.7-1.1-3-2.5   c-0.3-1.6,0.8-3.2,2.5-3.5C375.6,190,375.8,190,376,190 M376,188c-0.3,0-0.6,0-0.8,0.1c-2.7,0.5-4.6,3-4.1,5.8   c0.4,2.4,2.5,4.2,4.9,4.2c0.3,0,0.6,0,0.8-0.1c2.7-0.5,4.6-3,4.1-5.8C380.5,189.7,378.4,188,376,188L376,188z"
   id="path102" />
	<g
   id="g110">
		<rect
   x="335.5"
   y="188"
   fill="#1295D3"
   width="2.5"
   height="10"
   id="rect104" />
		<rect
   x="340.5"
   y="188"
   fill="#1295D3"
   width="2.5"
   height="10"
   id="rect106" />
		<rect
   x="345.5"
   y="188"
   fill="#1295D3"
   width="2.5"
   height="10"
   id="rect108" />
	</g>
	<g
   id="g118">
		<rect
   x="402.9"
   y="188"
   fill="#1295D3"
   width="2.5"
   height="10"
   id="rect112" />
		<rect
   x="407.9"
   y="188"
   fill="#1295D3"
   width="2.5"
   height="10"
   id="rect114" />
		<rect
   x="412.9"
   y="188"
   fill="#1295D3"
   width="2.5"
   height="10"
   id="rect116" />
	</g>
</g>
<polygon
   fill="#218FCF"
   points="15.9,142.3 134.7,142.3 75.1,176.8 "
   id="polygon122" />
<polygon
   fill="#218FCF"
   points="165.6,142.3 284.4,142.3 224.8,176.8 "
   id="polygon124" />
<polygon
   fill="#218FCF"
   points="316.8,142.3 435.6,142.3 376,176.8 "
   id="polygon126" />
<g
   id="g148">
	<g
   id="g136">
		<g
   id="g134">
			<path
   fill="#1295D3"
   d="M32.7,63.1h-2.1l-0.4,0.9h-0.5l1.7-3.8h0.5l1.7,3.8h-0.5L32.7,63.1z M32.5,62.6l-0.9-2l-0.9,2H32.5z"
   id="path128" />
			<path
   fill="#1295D3"
   d="M34.5,60.1h1.6c0.8,0,1.4,0.5,1.4,1.2c0,0.7-0.6,1.2-1.4,1.2H35v1.4h-0.4V60.1z M36,62.2     c0.6,0,1.1-0.3,1.1-0.8c0-0.5-0.4-0.8-1.1-0.8h-1.1v1.6H36z"
   id="path130" />
			<path
   fill="#1295D3"
   d="M38.5,60.1H40c0.8,0,1.4,0.5,1.4,1.2c0,0.7-0.6,1.2-1.4,1.2h-1.1v1.4h-0.4V60.1z M39.9,62.2     c0.6,0,1.1-0.3,1.1-0.8c0-0.5-0.4-0.8-1.1-0.8h-1.1v1.6H39.9z"
   id="path132" />
		</g>
	</g>
	<g
   id="g144">
		<g
   id="g142">
			<path
   fill="#1295D3"
   d="M31.8,74.8c0-1.1,0.9-2,2-2s2,0.9,2,2c0,1.1-0.9,2-2,2C32.7,76.7,31.8,75.8,31.8,74.8z M35.2,74.8     c0-0.8-0.7-1.6-1.5-1.6s-1.5,0.7-1.5,1.6c0,0.8,0.7,1.6,1.5,1.6S35.2,75.6,35.2,74.8z"
   id="path138" />
			<path
   fill="#1295D3"
   d="M36.6,76.1l0.3-0.4c0.3,0.3,0.7,0.6,1.3,0.6c0.6,0,0.9-0.3,0.9-0.7c0-0.4-0.4-0.6-1-0.7     c-0.8-0.1-1.3-0.4-1.3-1.1c0-0.6,0.6-1.1,1.3-1.1c0.6,0,1,0.2,1.3,0.6L39,73.7c-0.3-0.3-0.7-0.5-1.1-0.5c-0.5,0-0.8,0.3-0.8,0.7     c0,0.4,0.4,0.5,1,0.7c0.7,0.2,1.3,0.4,1.3,1.1c0,0.6-0.5,1.1-1.3,1.1C37.4,76.7,36.9,76.5,36.6,76.1z"
   id="path140" />
		</g>
	</g>
	<path
   fill="#1295D3"
   d="M47.6,54.7H24c-1.2,0-2.1,0.9-2.1,2.1v23.6c0,1.2,0.9,2.1,2.1,2.1h23.6c1.2,0,2.1-0.9,2.1-2.1V56.9   C49.7,55.7,48.8,54.7,47.6,54.7z M47.6,81.8H24c-0.8,0-1.4-0.6-1.4-1.4V56.9c0-0.8,0.6-1.4,1.4-1.4h23.6c0.8,0,1.4,0.6,1.4,1.4   v11.4H24.3V69H49v11.4C49,81.2,48.4,81.8,47.6,81.8z"
   id="path146" />
</g>
<g
   id="g170">
	<g
   id="g158">
		<g
   id="g156">
			<path
   fill="#1295D3"
   d="M181.9,63.1h-2.1l-0.4,0.9h-0.5l1.7-3.8h0.5l1.7,3.8h-0.5L181.9,63.1z M181.7,62.6l-0.9-2l-0.9,2H181.7z"
   id="path150" />
			<path
   fill="#1295D3"
   d="M183.7,60.1h1.6c0.8,0,1.4,0.5,1.4,1.2c0,0.7-0.6,1.2-1.4,1.2h-1.1v1.4h-0.4V60.1z M185.1,62.2     c0.6,0,1.1-0.3,1.1-0.8c0-0.5-0.4-0.8-1.1-0.8h-1.1v1.6H185.1z"
   id="path152" />
			<path
   fill="#1295D3"
   d="M187.6,60.1h1.6c0.8,0,1.4,0.5,1.4,1.2c0,0.7-0.6,1.2-1.4,1.2H188v1.4h-0.4V60.1z M189.1,62.2     c0.6,0,1.1-0.3,1.1-0.8c0-0.5-0.4-0.8-1.1-0.8H188v1.6H189.1z"
   id="path154" />
		</g>
	</g>
	<g
   id="g166">
		<g
   id="g164">
			<path
   fill="#1295D3"
   d="M180.9,74.8c0-1.1,0.9-2,2-2s2,0.9,2,2c0,1.1-0.9,2-2,2C181.8,76.7,180.9,75.8,180.9,74.8z M184.3,74.8     c0-0.8-0.7-1.6-1.5-1.6c-0.8,0-1.5,0.7-1.5,1.6c0,0.8,0.7,1.6,1.5,1.6C183.7,76.3,184.3,75.6,184.3,74.8z"
   id="path160" />
			<path
   fill="#1295D3"
   d="M185.7,76.1l0.3-0.4c0.3,0.3,0.7,0.6,1.3,0.6c0.6,0,0.9-0.3,0.9-0.7c0-0.4-0.4-0.6-1-0.7     c-0.8-0.1-1.3-0.4-1.3-1.1c0-0.6,0.6-1.1,1.3-1.1c0.6,0,1,0.2,1.3,0.6l-0.3,0.3c-0.3-0.3-0.7-0.5-1.1-0.5c-0.5,0-0.8,0.3-0.8,0.7     c0,0.4,0.4,0.5,1,0.7c0.7,0.2,1.3,0.4,1.3,1.1c0,0.6-0.5,1.1-1.3,1.1C186.6,76.7,186.1,76.5,185.7,76.1z"
   id="path162" />
		</g>
	</g>
	<path
   fill="#1295D3"
   d="M196.7,54.7h-23.6c-1.2,0-2.1,0.9-2.1,2.1v23.6c0,1.2,0.9,2.1,2.1,2.1h23.6c1.2,0,2.1-0.9,2.1-2.1V56.9   C198.9,55.7,197.9,54.7,196.7,54.7z M196.7,81.8h-23.6c-0.8,0-1.4-0.6-1.4-1.4V56.9c0-0.8,0.6-1.4,1.4-1.4h23.6   c0.8,0,1.4,0.6,1.4,1.4v11.4h-24.7V69h24.7v11.4C198.1,81.2,197.5,81.8,196.7,81.8z"
   id="path168" />
</g>
<g
   id="g192">
	<g
   id="g180">
		<g
   id="g178">
			<path
   fill="#1295D3"
   d="M222.2,63.1H220l-0.4,0.9h-0.5l1.7-3.8h0.5l1.7,3.8h-0.5L222.2,63.1z M222,62.6l-0.9-2l-0.9,2H222z"
   id="path172" />
			<path
   fill="#1295D3"
   d="M224,60.1h1.6c0.8,0,1.4,0.5,1.4,1.2c0,0.7-0.6,1.2-1.4,1.2h-1.1v1.4H224V60.1z M225.5,62.2     c0.6,0,1.1-0.3,1.1-0.8c0-0.5-0.4-0.8-1.1-0.8h-1.1v1.6H225.5z"
   id="path174" />
			<path
   fill="#1295D3"
   d="M227.9,60.1h1.6c0.8,0,1.4,0.5,1.4,1.2c0,0.7-0.6,1.2-1.4,1.2h-1.1v1.4h-0.4V60.1z M229.4,62.2     c0.6,0,1.1-0.3,1.1-0.8c0-0.5-0.4-0.8-1.1-0.8h-1.1v1.6H229.4z"
   id="path176" />
		</g>
	</g>
	<g
   id="g188">
		<g
   id="g186">
			<path
   fill="#1295D3"
   d="M221.2,74.8c0-1.1,0.9-2,2-2s2,0.9,2,2c0,1.1-0.9,2-2,2C222.1,76.7,221.2,75.8,221.2,74.8z M224.7,74.8     c0-0.8-0.7-1.6-1.5-1.6c-0.8,0-1.5,0.7-1.5,1.6c0,0.8,0.7,1.6,1.5,1.6C224,76.3,224.7,75.6,224.7,74.8z"
   id="path182" />
			<path
   fill="#1295D3"
   d="M226,76.1l0.3-0.4c0.3,0.3,0.7,0.6,1.3,0.6c0.6,0,0.9-0.3,0.9-0.7c0-0.4-0.4-0.6-1-0.7     c-0.8-0.1-1.3-0.4-1.3-1.1c0-0.6,0.6-1.1,1.3-1.1c0.6,0,1,0.2,1.3,0.6l-0.3,0.3c-0.3-0.3-0.7-0.5-1.1-0.5c-0.5,0-0.8,0.3-0.8,0.7     c0,0.4,0.4,0.5,1,0.7c0.7,0.2,1.3,0.4,1.3,1.1c0,0.6-0.5,1.1-1.3,1.1C226.9,76.7,226.4,76.5,226,76.1z"
   id="path184" />
		</g>
	</g>
	<path
   fill="#1295D3"
   d="M237,54.7h-23.6c-1.2,0-2.1,0.9-2.1,2.1v23.6c0,1.2,0.9,2.1,2.1,2.1H237c1.2,0,2.1-0.9,2.1-2.1V56.9   C239.2,55.7,238.2,54.7,237,54.7z M237,81.8h-23.6c-0.8,0-1.4-0.6-1.4-1.4V56.9c0-0.8,0.6-1.4,1.4-1.4H237c0.8,0,1.4,0.6,1.4,1.4   v11.4h-24.7V69h24.7v11.4C238.5,81.2,237.8,81.8,237,81.8z"
   id="path190" />
</g>
<g
   id="g214">
	<g
   id="g202">
		<g
   id="g200">
			<path
   fill="#1295D3"
   d="M261.4,49.9h-2.1l-0.4,0.9h-0.5l1.7-3.8h0.5l1.7,3.8h-0.5L261.4,49.9z M261.3,49.5l-0.9-2l-0.9,2H261.3z"
   id="path194" />
			<path
   fill="#1295D3"
   d="M263.3,46.9h1.6c0.8,0,1.4,0.5,1.4,1.2c0,0.7-0.6,1.2-1.4,1.2h-1.1v1.4h-0.4V46.9z M264.7,49     c0.6,0,1.1-0.3,1.1-0.8c0-0.5-0.4-0.8-1.1-0.8h-1.1V49H264.7z"
   id="path196" />
			<path
   fill="#1295D3"
   d="M267.2,46.9h1.6c0.8,0,1.4,0.5,1.4,1.2c0,0.7-0.6,1.2-1.4,1.2h-1.1v1.4h-0.4V46.9z M268.6,49     c0.6,0,1.1-0.3,1.1-0.8c0-0.5-0.4-0.8-1.1-0.8h-1.1V49H268.6z"
   id="path198" />
		</g>
	</g>
	<g
   id="g210">
		<g
   id="g208">
			<path
   fill="#1295D3"
   d="M260.5,61.6c0-1.1,0.9-2,2-2s2,0.9,2,2c0,1.1-0.9,2-2,2C261.4,63.5,260.5,62.6,260.5,61.6z M263.9,61.6     c0-0.8-0.7-1.6-1.5-1.6s-1.5,0.7-1.5,1.6c0,0.8,0.7,1.6,1.5,1.6S263.9,62.4,263.9,61.6z"
   id="path204" />
			<path
   fill="#1295D3"
   d="M265.3,62.9l0.3-0.4c0.3,0.3,0.7,0.6,1.3,0.6c0.6,0,0.9-0.3,0.9-0.7c0-0.4-0.4-0.6-1-0.7     c-0.8-0.1-1.3-0.4-1.3-1.1c0-0.6,0.6-1.1,1.3-1.1c0.6,0,1,0.2,1.3,0.6l-0.3,0.3c-0.3-0.3-0.7-0.5-1.1-0.5c-0.5,0-0.8,0.3-0.8,0.7     c0,0.4,0.4,0.5,1,0.7c0.7,0.2,1.3,0.4,1.3,1.1c0,0.6-0.5,1.1-1.3,1.1C266.2,63.5,265.7,63.3,265.3,62.9z"
   id="path206" />
		</g>
	</g>
	<path
   fill="#1295D3"
   d="M276.3,41.5h-23.6c-1.2,0-2.1,0.9-2.1,2.1v23.6c0,1.2,0.9,2.1,2.1,2.1h23.6c1.2,0,2.1-0.9,2.1-2.1V43.7   C278.4,42.5,277.5,41.5,276.3,41.5z M276.3,68.6h-23.6c-0.8,0-1.4-0.6-1.4-1.4V43.7c0-0.8,0.6-1.4,1.4-1.4h23.6   c0.8,0,1.4,0.6,1.4,1.4v11.4H253v0.7h24.7v11.4C277.7,68,277.1,68.6,276.3,68.6z"
   id="path212" />
</g>
<g
   id="g236">
	<g
   id="g224">
		<g
   id="g222">
			<path
   fill="#1295D3"
   d="M333.7,63.1h-2.1l-0.4,0.9h-0.5l1.7-3.8h0.5l1.7,3.8h-0.5L333.7,63.1z M333.5,62.6l-0.9-2l-0.9,2H333.5z"
   id="path216" />
			<path
   fill="#1295D3"
   d="M335.5,60.1h1.6c0.8,0,1.4,0.5,1.4,1.2c0,0.7-0.6,1.2-1.4,1.2h-1.1v1.4h-0.4V60.1z M336.9,62.2     c0.6,0,1.1-0.3,1.1-0.8c0-0.5-0.4-0.8-1.1-0.8h-1.1v1.6H336.9z"
   id="path218" />
			<path
   fill="#1295D3"
   d="M339.4,60.1h1.6c0.8,0,1.4,0.5,1.4,1.2c0,0.7-0.6,1.2-1.4,1.2h-1.1v1.4h-0.4V60.1z M340.9,62.2     c0.6,0,1.1-0.3,1.1-0.8c0-0.5-0.4-0.8-1.1-0.8h-1.1v1.6H340.9z"
   id="path220" />
		</g>
	</g>
	<g
   id="g232">
		<g
   id="g230">
			<path
   fill="#1295D3"
   d="M332.7,74.8c0-1.1,0.9-2,2-2s2,0.9,2,2c0,1.1-0.9,2-2,2C333.6,76.7,332.7,75.8,332.7,74.8z M336.2,74.8     c0-0.8-0.7-1.6-1.5-1.6s-1.5,0.7-1.5,1.6c0,0.8,0.7,1.6,1.5,1.6S336.2,75.6,336.2,74.8z"
   id="path226" />
			<path
   fill="#1295D3"
   d="M337.5,76.1l0.3-0.4c0.3,0.3,0.7,0.6,1.3,0.6c0.6,0,0.9-0.3,0.9-0.7c0-0.4-0.4-0.6-1-0.7     c-0.8-0.1-1.3-0.4-1.3-1.1c0-0.6,0.6-1.1,1.3-1.1c0.6,0,1,0.2,1.3,0.6l-0.3,0.3c-0.3-0.3-0.7-0.5-1.1-0.5c-0.5,0-0.8,0.3-0.8,0.7     c0,0.4,0.4,0.5,1,0.7c0.7,0.2,1.3,0.4,1.3,1.1c0,0.6-0.5,1.1-1.3,1.1C338.4,76.7,337.9,76.5,337.5,76.1z"
   id="path228" />
		</g>
	</g>
	<path
   fill="#1295D3"
   d="M348.5,54.7H325c-1.2,0-2.1,0.9-2.1,2.1v23.6c0,1.2,0.9,2.1,2.1,2.1h23.6c1.2,0,2.1-0.9,2.1-2.1V56.9   C350.7,55.7,349.7,54.7,348.5,54.7z M348.5,81.8H325c-0.8,0-1.4-0.6-1.4-1.4V56.9c0-0.8,0.6-1.4,1.4-1.4h23.6   c0.8,0,1.4,0.6,1.4,1.4v11.4h-24.7V69h24.7v11.4C349.9,81.2,349.3,81.8,348.5,81.8z"
   id="path234" />
</g>
<g
   id="g258">
	<g
   id="g246">
		<g
   id="g244">
			<path
   fill="#1295D3"
   d="M372.9,63.1h-2.1l-0.4,0.9h-0.5l1.7-3.8h0.5l1.7,3.8h-0.5L372.9,63.1z M372.7,62.6l-0.9-2l-0.9,2H372.7z"
   id="path238" />
			<path
   fill="#1295D3"
   d="M374.7,60.1h1.6c0.8,0,1.4,0.5,1.4,1.2c0,0.7-0.6,1.2-1.4,1.2h-1.1v1.4h-0.4V60.1z M376.2,62.2     c0.6,0,1.1-0.3,1.1-0.8c0-0.5-0.4-0.8-1.1-0.8h-1.1v1.6H376.2z"
   id="path240" />
			<path
   fill="#1295D3"
   d="M378.6,60.1h1.6c0.8,0,1.4,0.5,1.4,1.2c0,0.7-0.6,1.2-1.4,1.2h-1.1v1.4h-0.4V60.1z M380.1,62.2     c0.6,0,1.1-0.3,1.1-0.8c0-0.5-0.4-0.8-1.1-0.8h-1.1v1.6H380.1z"
   id="path242" />
		</g>
	</g>
	<g
   id="g254">
		<g
   id="g252">
			<path
   fill="#1295D3"
   d="M371.9,74.8c0-1.1,0.9-2,2-2s2,0.9,2,2c0,1.1-0.9,2-2,2C372.9,76.7,371.9,75.8,371.9,74.8z M375.4,74.8     c0-0.8-0.7-1.6-1.5-1.6s-1.5,0.7-1.5,1.6c0,0.8,0.7,1.6,1.5,1.6S375.4,75.6,375.4,74.8z"
   id="path248" />
			<path
   fill="#1295D3"
   d="M376.7,76.1l0.3-0.4c0.3,0.3,0.7,0.6,1.3,0.6c0.6,0,0.9-0.3,0.9-0.7c0-0.4-0.4-0.6-1-0.7     c-0.8-0.1-1.3-0.4-1.3-1.1c0-0.6,0.6-1.1,1.3-1.1c0.6,0,1,0.2,1.3,0.6l-0.3,0.3c-0.3-0.3-0.7-0.5-1.1-0.5c-0.5,0-0.8,0.3-0.8,0.7     c0,0.4,0.4,0.5,1,0.7c0.7,0.2,1.3,0.4,1.3,1.1c0,0.6-0.5,1.1-1.3,1.1C377.6,76.7,377.1,76.5,376.7,76.1z"
   id="path250" />
		</g>
	</g>
	<path
   fill="#1295D3"
   d="M387.8,54.7h-23.6c-1.2,0-2.1,0.9-2.1,2.1v23.6c0,1.2,0.9,2.1,2.1,2.1h23.6c1.2,0,2.1-0.9,2.1-2.1V56.9   C389.9,55.7,389,54.7,387.8,54.7z M387.8,81.8h-23.6c-0.8,0-1.4-0.6-1.4-1.4V56.9c0-0.8,0.6-1.4,1.4-1.4h23.6   c0.8,0,1.4,0.6,1.4,1.4v11.4h-24.7V69h24.7v11.4C389.2,81.2,388.5,81.8,387.8,81.8z"
   id="path256" />
</g>
<g
   id="g280">
	<g
   id="g268">
		<g
   id="g266">
			<path
   fill="#1295D3"
   d="M412.6,63.1h-2.1l-0.4,0.9h-0.5l1.7-3.8h0.5l1.7,3.8H413L412.6,63.1z M412.4,62.6l-0.9-2l-0.9,2H412.4z"
   id="path260" />
			<path
   fill="#1295D3"
   d="M414.4,60.1h1.6c0.8,0,1.4,0.5,1.4,1.2c0,0.7-0.6,1.2-1.4,1.2h-1.1v1.4h-0.4V60.1z M415.9,62.2     c0.6,0,1.1-0.3,1.1-0.8c0-0.5-0.4-0.8-1.1-0.8h-1.1v1.6H415.9z"
   id="path262" />
			<path
   fill="#1295D3"
   d="M418.3,60.1h1.6c0.8,0,1.4,0.5,1.4,1.2c0,0.7-0.6,1.2-1.4,1.2h-1.1v1.4h-0.4V60.1z M419.8,62.2     c0.6,0,1.1-0.3,1.1-0.8c0-0.5-0.4-0.8-1.1-0.8h-1.1v1.6H419.8z"
   id="path264" />
		</g>
	</g>
	<g
   id="g276">
		<g
   id="g274">
			<path
   fill="#1295D3"
   d="M411.6,74.8c0-1.1,0.9-2,2-2s2,0.9,2,2c0,1.1-0.9,2-2,2C412.6,76.7,411.6,75.8,411.6,74.8z M415.1,74.8     c0-0.8-0.7-1.6-1.5-1.6s-1.5,0.7-1.5,1.6c0,0.8,0.7,1.6,1.5,1.6S415.1,75.6,415.1,74.8z"
   id="path270" />
			<path
   fill="#1295D3"
   d="M416.4,76.1l0.3-0.4c0.3,0.3,0.7,0.6,1.3,0.6c0.6,0,0.9-0.3,0.9-0.7c0-0.4-0.4-0.6-1-0.7     c-0.8-0.1-1.3-0.4-1.3-1.1c0-0.6,0.6-1.1,1.3-1.1c0.6,0,1,0.2,1.3,0.6l-0.3,0.3c-0.3-0.3-0.7-0.5-1.1-0.5c-0.5,0-0.8,0.3-0.8,0.7     c0,0.4,0.4,0.5,1,0.7c0.7,0.2,1.3,0.4,1.3,1.1c0,0.6-0.5,1.1-1.3,1.1C417.3,76.7,416.8,76.5,416.4,76.1z"
   id="path272" />
		</g>
	</g>
	<path
   fill="#1295D3"
   d="M427.5,54.7h-23.6c-1.2,0-2.1,0.9-2.1,2.1v23.6c0,1.2,0.9,2.1,2.1,2.1h23.6c1.2,0,2.1-0.9,2.1-2.1V56.9   C429.6,55.7,428.6,54.7,427.5,54.7z M427.5,81.8h-23.6c-0.8,0-1.4-0.6-1.4-1.4V56.9c0-0.8,0.6-1.4,1.4-1.4h23.6   c0.8,0,1.4,0.6,1.4,1.4v11.4h-24.7V69h24.7v11.4C428.9,81.2,428.2,81.8,427.5,81.8z"
   id="path278" />
</g>
<g
   id="g302">
	<g
   id="g290">
		<g
   id="g288">
			<path
   fill="#1295D3"
   d="M72.5,63.1h-2.1l-0.4,0.9h-0.5l1.7-3.8h0.5l1.7,3.8h-0.5L72.5,63.1z M72.3,62.6l-0.9-2l-0.9,2H72.3z"
   id="path282" />
			<path
   fill="#1295D3"
   d="M74.3,60.1h1.6c0.8,0,1.4,0.5,1.4,1.2c0,0.7-0.6,1.2-1.4,1.2h-1.1v1.4h-0.4V60.1z M75.7,62.2     c0.6,0,1.1-0.3,1.1-0.8c0-0.5-0.4-0.8-1.1-0.8h-1.1v1.6H75.7z"
   id="path284" />
			<path
   fill="#1295D3"
   d="M78.2,60.1h1.6c0.8,0,1.4,0.5,1.4,1.2c0,0.7-0.6,1.2-1.4,1.2h-1.1v1.4h-0.4V60.1z M79.7,62.2     c0.6,0,1.1-0.3,1.1-0.8c0-0.5-0.4-0.8-1.1-0.8h-1.1v1.6H79.7z"
   id="path286" />
		</g>
	</g>
	<g
   id="g298">
		<g
   id="g296">
			<path
   fill="#1295D3"
   d="M71.5,74.8c0-1.1,0.9-2,2-2s2,0.9,2,2c0,1.1-0.9,2-2,2C72.4,76.7,71.5,75.8,71.5,74.8z M74.9,74.8     c0-0.8-0.7-1.6-1.5-1.6s-1.5,0.7-1.5,1.6c0,0.8,0.7,1.6,1.5,1.6S74.9,75.6,74.9,74.8z"
   id="path292" />
			<path
   fill="#1295D3"
   d="M76.3,76.1l0.3-0.4c0.3,0.3,0.7,0.6,1.3,0.6c0.6,0,0.9-0.3,0.9-0.7c0-0.4-0.4-0.6-1-0.7     c-0.8-0.1-1.3-0.4-1.3-1.1c0-0.6,0.6-1.1,1.3-1.1c0.6,0,1,0.2,1.3,0.6l-0.3,0.3c-0.3-0.3-0.7-0.5-1.1-0.5c-0.5,0-0.8,0.3-0.8,0.7     c0,0.4,0.4,0.5,1,0.7c0.7,0.2,1.3,0.4,1.3,1.1c0,0.6-0.5,1.1-1.3,1.1C77.2,76.7,76.7,76.5,76.3,76.1z"
   id="path294" />
		</g>
	</g>
	<path
   fill="#1295D3"
   d="M87.3,54.7H63.8c-1.2,0-2.1,0.9-2.1,2.1v23.6c0,1.2,0.9,2.1,2.1,2.1h23.6c1.2,0,2.1-0.9,2.1-2.1V56.9   C89.5,55.7,88.5,54.7,87.3,54.7z M87.3,81.8H63.8c-0.8,0-1.4-0.6-1.4-1.4V56.9c0-0.8,0.6-1.4,1.4-1.4h23.6c0.8,0,1.4,0.6,1.4,1.4   v11.4H64.1V69h24.7v11.4C88.7,81.2,88.1,81.8,87.3,81.8z"
   id="path300" />
</g>
<g
   id="g324">
	<g
   id="g312">
		<g
   id="g310">
			<path
   fill="#FFFFFF"
   d="M111.9,49.1h-2.1l-0.4,0.9h-0.5l1.7-3.8h0.5l1.7,3.8h-0.5L111.9,49.1z M111.7,48.7l-0.9-2l-0.9,2H111.7z"
   id="path304" />
			<path
   fill="#FFFFFF"
   d="M113.7,46.2h1.6c0.8,0,1.4,0.5,1.4,1.2c0,0.7-0.6,1.2-1.4,1.2h-1.1V50h-0.4V46.2z M115.2,48.2     c0.6,0,1.1-0.3,1.1-0.8c0-0.5-0.4-0.8-1.1-0.8h-1.1v1.6H115.2z"
   id="path306" />
			<path
   fill="#FFFFFF"
   d="M117.6,46.2h1.6c0.8,0,1.4,0.5,1.4,1.2c0,0.7-0.6,1.2-1.4,1.2h-1.1V50h-0.4V46.2z M119.1,48.2     c0.6,0,1.1-0.3,1.1-0.8c0-0.5-0.4-0.8-1.1-0.8h-1.1v1.6H119.1z"
   id="path308" />
		</g>
	</g>
	<g
   id="g320">
		<g
   id="g318">
			<path
   fill="#FFFFFF"
   d="M110.9,60.8c0-1.1,0.9-2,2-2s2,0.9,2,2c0,1.1-0.9,2-2,2C111.8,62.8,110.9,61.9,110.9,60.8z M114.4,60.8     c0-0.8-0.7-1.6-1.5-1.6c-0.8,0-1.5,0.7-1.5,1.6c0,0.8,0.7,1.6,1.5,1.6S114.4,61.7,114.4,60.8z"
   id="path314" />
			<path
   fill="#FFFFFF"
   d="M115.7,62.2l0.3-0.4c0.3,0.3,0.7,0.6,1.3,0.6c0.6,0,0.9-0.3,0.9-0.7c0-0.4-0.4-0.6-1-0.7     c-0.8-0.1-1.3-0.4-1.3-1.1c0-0.6,0.6-1.1,1.3-1.1c0.6,0,1,0.2,1.3,0.6l-0.3,0.3c-0.3-0.3-0.7-0.5-1.1-0.5c-0.5,0-0.8,0.3-0.8,0.7     c0,0.4,0.4,0.5,1,0.7c0.7,0.2,1.3,0.4,1.3,1.1c0,0.6-0.5,1.1-1.3,1.1C116.6,62.8,116.1,62.6,115.7,62.2z"
   id="path316" />
		</g>
	</g>
	<path
   fill="#FFFFFF"
   d="M126.8,40.8h-23.6c-1.2,0-2.1,0.9-2.1,2.1v23.6c0,1.2,0.9,2.1,2.1,2.1h23.6c1.2,0,2.1-0.9,2.1-2.1V43   C128.9,41.8,127.9,40.8,126.8,40.8z M126.8,67.9h-23.6c-0.8,0-1.4-0.6-1.4-1.4V43c0-0.8,0.6-1.4,1.4-1.4h23.6   c0.8,0,1.4,0.6,1.4,1.4v11.4h-24.7v0.7h24.7v11.4C128.2,67.3,127.5,67.9,126.8,67.9z"
   id="path322" />
</g>
</svg>
