<?xml version="1.0" encoding="UTF-8" standalone="no"?>
<svg
   xmlns:dc="http://purl.org/dc/elements/1.1/"
   xmlns:cc="http://creativecommons.org/ns#"
   xmlns:rdf="http://www.w3.org/1999/02/22-rdf-syntax-ns#"
   xmlns:svg="http://www.w3.org/2000/svg"
   xmlns="http://www.w3.org/2000/svg"
   xmlns:sodipodi="http://sodipodi.sourceforge.net/DTD/sodipodi-0.dtd"
   xmlns:inkscape="http://www.inkscape.org/namespaces/inkscape"
   version="1.1"
   id="Layer_1"
   x="0px"
   y="0px"
   viewBox="0 0 450 234.6"
   enable-background="new 0 0 450 234.6"
   xml:space="preserve"
   sodipodi:docname="vsphere-ha.svg"
   inkscape:version="1.0 (4035a4fb49, 2020-05-01)"><metadata
   id="metadata355"><rdf:RDF><cc:Work
       rdf:about=""><dc:format>image/svg+xml</dc:format><dc:type
         rdf:resource="http://purl.org/dc/dcmitype/StillImage" /></cc:Work></rdf:RDF></metadata><defs
   id="defs353" /><sodipodi:namedview
   inkscape:document-rotation="0"
   pagecolor="#ffffff"
   bordercolor="#666666"
   borderopacity="1"
   objecttolerance="10"
   gridtolerance="10"
   guidetolerance="10"
   inkscape:pageopacity="0"
   inkscape:pageshadow="2"
   inkscape:window-width="1920"
   inkscape:window-height="986"
   id="namedview351"
   showgrid="false"
   inkscape:zoom="2.3311111"
   inkscape:cx="225"
   inkscape:cy="117.3"
   inkscape:window-x="-11"
   inkscape:window-y="-11"
   inkscape:window-maximized="1"
   inkscape:current-layer="Layer_1" />
<rect
   fill="#FFFFFF"
   width="450"
   height="234.6"
   id="rect2" />
<rect
   x="7.2"
   y="7.2"
   fill="none"
   stroke="#000000"
   stroke-miterlimit="10"
   width="435.7"
   height="130.5"
   id="rect4" />
<rect
   x="15.9"
   y="28.7"
   fill="#811427"
   stroke="#000000"
   stroke-miterlimit="10"
   stroke-dasharray="2,0,0"
   width="118.8"
   height="85.8"
   id="rect6" />
<rect
   x="18.5"
   y="52.1"
   fill="#ECECEB"
   width="34.6"
   height="34"
   id="rect8" />
<g
   id="g30">
	<g
   id="g18">
		<g
   id="g16">
			<path
   fill="#1295D3"
   d="M32.7,63.5h-2.1l-0.4,0.9h-0.5l1.7-3.8h0.5l1.7,3.8h-0.5L32.7,63.5z M32.5,63.1l-0.9-2l-0.9,2H32.5z"
   id="path10" />
			<path
   fill="#1295D3"
   d="M34.5,60.5h1.6c0.8,0,1.4,0.5,1.4,1.2c0,0.7-0.6,1.2-1.4,1.2H35v1.4h-0.4V60.5z M36,62.6     c0.6,0,1.1-0.3,1.1-0.8c0-0.5-0.4-0.8-1.1-0.8h-1.1v1.6H36z"
   id="path12" />
			<path
   fill="#1295D3"
   d="M38.5,60.5H40c0.8,0,1.4,0.5,1.4,1.2c0,0.7-0.6,1.2-1.4,1.2h-1.1v1.4h-0.4V60.5z M39.9,62.6     c0.6,0,1.1-0.3,1.1-0.8c0-0.5-0.4-0.8-1.1-0.8h-1.1v1.6H39.9z"
   id="path14" />
		</g>
	</g>
	<g
   id="g26">
		<g
   id="g24">
			<path
   fill="#1295D3"
   d="M31.8,75.2c0-1.1,0.9-2,2-2s2,0.9,2,2c0,1.1-0.9,2-2,2C32.7,77.2,31.8,76.2,31.8,75.2z M35.2,75.2     c0-0.8-0.7-1.6-1.5-1.6s-1.5,0.7-1.5,1.6c0,0.8,0.7,1.6,1.5,1.6S35.2,76,35.2,75.2z"
   id="path20" />
			<path
   fill="#1295D3"
   d="M36.6,76.5l0.3-0.4c0.3,0.3,0.7,0.6,1.3,0.6c0.6,0,0.9-0.3,0.9-0.7c0-0.4-0.4-0.6-1-0.7     c-0.8-0.1-1.3-0.4-1.3-1.1c0-0.6,0.6-1.1,1.3-1.1c0.6,0,1,0.2,1.3,0.6L39,74.1c-0.3-0.3-0.7-0.5-1.1-0.5c-0.5,0-0.8,0.3-0.8,0.7     c0,0.4,0.4,0.5,1,0.7c0.7,0.2,1.3,0.4,1.3,1.1c0,0.6-0.5,1.1-1.3,1.1C37.4,77.2,36.9,76.9,36.6,76.5z"
   id="path22" />
		</g>
	</g>
	<path
   fill="#1295D3"
   d="M47.6,55.2H24c-1.2,0-2.1,0.9-2.1,2.1v23.6c0,1.2,0.9,2.1,2.1,2.1h23.6c1.2,0,2.1-0.9,2.1-2.1V57.3   C49.7,56.1,48.8,55.2,47.6,55.2z M47.6,82.2H24c-0.8,0-1.4-0.6-1.4-1.4V57.3c0-0.8,0.6-1.4,1.4-1.4h23.6c0.8,0,1.4,0.6,1.4,1.4   v11.4H24.3v0.7H49v11.4C49,81.6,48.4,82.2,47.6,82.2z"
   id="path28" />
</g>
<rect
   x="58.3"
   y="52.1"
   fill="#ECECEB"
   width="34.6"
   height="34"
   id="rect32" />
<rect
   x="18.5"
   y="94.7"
   fill="#F89820"
   width="113.6"
   height="17"
   id="rect34" />
<rect
   x="97.5"
   y="38.9"
   width="34.6"
   height="34"
   id="rect36" />
<text
   y="106.556"
   x="61.737881"
   fill="#ffffff"
   font-family="Metropolis-SemiBold"
   font-size="12px"
   id="text38">ESXi</text>
<rect
   x="165.6"
   y="28.7"
   fill="#FFFFFF"
   stroke="#000000"
   stroke-miterlimit="10"
   stroke-dasharray="2,0,0"
   width="118.8"
   height="85.8"
   id="rect40" />
<rect
   x="168.3"
   y="52.1"
   fill="#ECECEB"
   width="34.6"
   height="34"
   id="rect42" />
<rect
   x="208"
   y="38.9"
   fill="#78BE43"
   width="34.6"
   height="34"
   id="rect44" />
<rect
   x="168.3"
   y="94.7"
   fill="#F89820"
   width="113.6"
   height="17"
   id="rect46" />
<rect
   x="247.2"
   y="38.9"
   fill="#78BE43"
   width="34.6"
   height="34"
   id="rect48" />
<text
   y="106.556"
   x="211.2953"
   fill="#ffffff"
   font-family="Metropolis-SemiBold"
   font-size="12px"
   id="text50">ESXi</text>

<text
   transform="matrix(1 0 0 1 176.8837 225.2612)"
   font-family="'Metropolis-SemiBold'"
   font-size="12px"
   id="text54">Physical Servers</text>
<rect
   x="316.8"
   y="28.7"
   fill="#FFFFFF"
   stroke="#000000"
   stroke-miterlimit="10"
   stroke-dasharray="2,0,0"
   width="118.8"
   height="85.8"
   id="rect56" />
<rect
   x="319.4"
   y="38.9"
   fill="#78BE43"
   width="34.6"
   height="34"
   id="rect58" />
<rect
   x="359.2"
   y="52.1"
   fill="#ECECEB"
   width="34.6"
   height="34"
   id="rect60" />
<rect
   x="319.4"
   y="94.7"
   fill="#F89820"
   width="113.6"
   height="17"
   id="rect62" />
<rect
   x="398.4"
   y="52.1"
   fill="#ECECEB"
   width="34.6"
   height="34"
   id="rect64" />
<text
   y="106.556"
   x="362.46249"
   fill="#ffffff"
   font-family="Metropolis-SemiBold"
   font-size="12px"
   id="text66">ESXi</text>
<g
   id="g76">
	<g
   id="g74">
		<polyline
   fill="none"
   stroke="#000000"
   stroke-width="2"
   stroke-miterlimit="10"
   points="74.4,21.8 74.4,16 336.8,16 336.8,29.3       "
   id="polyline68" />
		<g
   id="g72">
			<polygon
   points="331.8,27.8 336.7,36.4 341.7,27.8    "
   id="polygon70" />
		</g>
	</g>
</g>
<g
   id="g98">
	<path
   fill="#1295D3"
   d="M120.3,183.4v20h-90v-20H120.3 M122.8,180.9h-95v25h95V180.9L122.8,180.9z"
   id="path78" />
	<path
   fill="#1295D3"
   d="M75.1,190.4L75.1,190.4c1.5,0,2.7,1.1,3,2.5c0.3,1.6-0.8,3.2-2.5,3.5c-0.2,0-0.3,0-0.5,0   c-1.5,0-2.7-1.1-3-2.5c-0.3-1.6,0.8-3.2,2.5-3.5C74.7,190.4,74.9,190.4,75.1,190.4 M75.1,188.4c-0.3,0-0.6,0-0.8,0.1   c-2.7,0.5-4.6,3-4.1,5.8c0.4,2.4,2.5,4.2,4.9,4.2c0.3,0,0.6,0,0.8-0.1c2.7-0.5,4.6-3,4.1-5.8C79.6,190.1,77.5,188.4,75.1,188.4   L75.1,188.4z"
   id="path80" />
	<g
   id="g88">
		<rect
   x="34.6"
   y="188.4"
   fill="#1295D3"
   width="2.5"
   height="10"
   id="rect82" />
		<rect
   x="39.6"
   y="188.4"
   fill="#1295D3"
   width="2.5"
   height="10"
   id="rect84" />
		<rect
   x="44.6"
   y="188.4"
   fill="#1295D3"
   width="2.5"
   height="10"
   id="rect86" />
	</g>
	<g
   id="g96">
		<rect
   x="102"
   y="188.4"
   fill="#1295D3"
   width="2.5"
   height="10"
   id="rect90" />
		<rect
   x="107"
   y="188.4"
   fill="#1295D3"
   width="2.5"
   height="10"
   id="rect92" />
		<rect
   x="112"
   y="188.4"
   fill="#1295D3"
   width="2.5"
   height="10"
   id="rect94" />
	</g>
</g>
<g
   id="g120">
	<path
   fill="#1295D3"
   d="M270,183.4v20h-90v-20H270 M272.5,180.9h-95v25h95V180.9L272.5,180.9z"
   id="path100" />
	<path
   fill="#1295D3"
   d="M224.8,190.4L224.8,190.4c1.5,0,2.7,1.1,3,2.5c0.3,1.6-0.8,3.2-2.5,3.5c-0.2,0-0.3,0-0.5,0   c-1.5,0-2.7-1.1-3-2.5c-0.3-1.6,0.8-3.2,2.5-3.5C224.4,190.4,224.6,190.4,224.8,190.4 M224.8,188.4c-0.3,0-0.6,0-0.8,0.1   c-2.7,0.5-4.6,3-4.1,5.8c0.4,2.4,2.5,4.2,4.9,4.2c0.3,0,0.6,0,0.8-0.1c2.7-0.5,4.6-3,4.1-5.8C229.3,190.1,227.2,188.4,224.8,188.4   L224.8,188.4z"
   id="path102" />
	<g
   id="g110">
		<rect
   x="184.3"
   y="188.4"
   fill="#1295D3"
   width="2.5"
   height="10"
   id="rect104" />
		<rect
   x="189.3"
   y="188.4"
   fill="#1295D3"
   width="2.5"
   height="10"
   id="rect106" />
		<rect
   x="194.3"
   y="188.4"
   fill="#1295D3"
   width="2.5"
   height="10"
   id="rect108" />
	</g>
	<g
   id="g118">
		<rect
   x="251.7"
   y="188.4"
   fill="#1295D3"
   width="2.5"
   height="10"
   id="rect112" />
		<rect
   x="256.7"
   y="188.4"
   fill="#1295D3"
   width="2.5"
   height="10"
   id="rect114" />
		<rect
   x="261.7"
   y="188.4"
   fill="#1295D3"
   width="2.5"
   height="10"
   id="rect116" />
	</g>
</g>
<g
   id="g142">
	<path
   fill="#1295D3"
   d="M421.2,183.4v20h-90v-20H421.2 M423.7,180.9h-95v25h95V180.9L423.7,180.9z"
   id="path122" />
	<path
   fill="#1295D3"
   d="M376,190.4L376,190.4c1.5,0,2.7,1.1,3,2.5c0.3,1.6-0.8,3.2-2.5,3.5c-0.2,0-0.3,0-0.5,0   c-1.5,0-2.7-1.1-3-2.5c-0.3-1.6,0.8-3.2,2.5-3.5C375.6,190.4,375.8,190.4,376,190.4 M376,188.4c-0.3,0-0.6,0-0.8,0.1   c-2.7,0.5-4.6,3-4.1,5.8c0.4,2.4,2.5,4.2,4.9,4.2c0.3,0,0.6,0,0.8-0.1c2.7-0.5,4.6-3,4.1-5.8C380.5,190.1,378.4,188.4,376,188.4   L376,188.4z"
   id="path124" />
	<g
   id="g132">
		<rect
   x="335.5"
   y="188.4"
   fill="#1295D3"
   width="2.5"
   height="10"
   id="rect126" />
		<rect
   x="340.5"
   y="188.4"
   fill="#1295D3"
   width="2.5"
   height="10"
   id="rect128" />
		<rect
   x="345.5"
   y="188.4"
   fill="#1295D3"
   width="2.5"
   height="10"
   id="rect130" />
	</g>
	<g
   id="g140">
		<rect
   x="402.9"
   y="188.4"
   fill="#1295D3"
   width="2.5"
   height="10"
   id="rect134" />
		<rect
   x="407.9"
   y="188.4"
   fill="#1295D3"
   width="2.5"
   height="10"
   id="rect136" />
		<rect
   x="412.9"
   y="188.4"
   fill="#1295D3"
   width="2.5"
   height="10"
   id="rect138" />
	</g>
</g>
<polygon
   fill="#811427"
   points="15.9,142.7 134.7,142.7 75.1,177.2 "
   id="polygon144" />
<polygon
   fill="#218FCF"
   points="165.6,142.7 284.4,142.7 224.8,177.2 "
   id="polygon146" />
<polygon
   fill="#218FCF"
   points="316.8,142.7 435.6,142.7 376,177.2 "
   id="polygon148" />
<polyline
   fill="none"
   stroke="#000000"
   stroke-width="2"
   stroke-miterlimit="10"
   points="11.9,32.3 11.9,22.5 138.7,22.5   138.7,32.3 "
   id="polyline150" />
<g
   id="g172">
	<g
   id="g160">
		<g
   id="g158">
			<path
   fill="#1295D3"
   d="M72.5,63.5h-2.1l-0.4,0.9h-0.5l1.7-3.8h0.5l1.7,3.8h-0.5L72.5,63.5z M72.3,63.1l-0.9-2l-0.9,2H72.3z"
   id="path152" />
			<path
   fill="#1295D3"
   d="M74.3,60.5h1.6c0.8,0,1.4,0.5,1.4,1.2c0,0.7-0.6,1.2-1.4,1.2h-1.1v1.4h-0.4V60.5z M75.7,62.6     c0.6,0,1.1-0.3,1.1-0.8c0-0.5-0.4-0.8-1.1-0.8h-1.1v1.6H75.7z"
   id="path154" />
			<path
   fill="#1295D3"
   d="M78.2,60.5h1.6c0.8,0,1.4,0.5,1.4,1.2c0,0.7-0.6,1.2-1.4,1.2h-1.1v1.4h-0.4V60.5z M79.7,62.6     c0.6,0,1.1-0.3,1.1-0.8c0-0.5-0.4-0.8-1.1-0.8h-1.1v1.6H79.7z"
   id="path156" />
		</g>
	</g>
	<g
   id="g168">
		<g
   id="g166">
			<path
   fill="#1295D3"
   d="M71.5,75.2c0-1.1,0.9-2,2-2s2,0.9,2,2c0,1.1-0.9,2-2,2C72.4,77.2,71.5,76.2,71.5,75.2z M74.9,75.2     c0-0.8-0.7-1.6-1.5-1.6s-1.5,0.7-1.5,1.6c0,0.8,0.7,1.6,1.5,1.6S74.9,76,74.9,75.2z"
   id="path162" />
			<path
   fill="#1295D3"
   d="M76.3,76.5l0.3-0.4c0.3,0.3,0.7,0.6,1.3,0.6c0.6,0,0.9-0.3,0.9-0.7c0-0.4-0.4-0.6-1-0.7     c-0.8-0.1-1.3-0.4-1.3-1.1c0-0.6,0.6-1.1,1.3-1.1c0.6,0,1,0.2,1.3,0.6l-0.3,0.3c-0.3-0.3-0.7-0.5-1.1-0.5c-0.5,0-0.8,0.3-0.8,0.7     c0,0.4,0.4,0.5,1,0.7c0.7,0.2,1.3,0.4,1.3,1.1c0,0.6-0.5,1.1-1.3,1.1C77.2,77.2,76.7,76.9,76.3,76.5z"
   id="path164" />
		</g>
	</g>
	<path
   fill="#1295D3"
   d="M87.3,55.2H63.8c-1.2,0-2.1,0.9-2.1,2.1v23.6c0,1.2,0.9,2.1,2.1,2.1h23.6c1.2,0,2.1-0.9,2.1-2.1V57.3   C89.5,56.1,88.5,55.2,87.3,55.2z M87.3,82.2H63.8c-0.8,0-1.4-0.6-1.4-1.4V57.3c0-0.8,0.6-1.4,1.4-1.4h23.6c0.8,0,1.4,0.6,1.4,1.4   v11.4H64.1v0.7h24.7v11.4C88.7,81.6,88.1,82.2,87.3,82.2z"
   id="path170" />
</g>
<g
   id="g194">
	<g
   id="g182">
		<g
   id="g180">
			<path
   fill="#1295D3"
   d="M182.2,63.5h-2.1l-0.4,0.9h-0.5l1.7-3.8h0.5l1.7,3.8h-0.5L182.2,63.5z M182,63.1l-0.9-2l-0.9,2H182z"
   id="path174" />
			<path
   fill="#1295D3"
   d="M184,60.5h1.6c0.8,0,1.4,0.5,1.4,1.2c0,0.7-0.6,1.2-1.4,1.2h-1.1v1.4H184V60.5z M185.5,62.6     c0.6,0,1.1-0.3,1.1-0.8c0-0.5-0.4-0.8-1.1-0.8h-1.1v1.6H185.5z"
   id="path176" />
			<path
   fill="#1295D3"
   d="M187.9,60.5h1.6c0.8,0,1.4,0.5,1.4,1.2c0,0.7-0.6,1.2-1.4,1.2h-1.1v1.4h-0.4V60.5z M189.4,62.6     c0.6,0,1.1-0.3,1.1-0.8c0-0.5-0.4-0.8-1.1-0.8h-1.1v1.6H189.4z"
   id="path178" />
		</g>
	</g>
	<g
   id="g190">
		<g
   id="g188">
			<path
   fill="#1295D3"
   d="M181.2,75.2c0-1.1,0.9-2,2-2s2,0.9,2,2c0,1.1-0.9,2-2,2C182.1,77.2,181.2,76.2,181.2,75.2z M184.7,75.2     c0-0.8-0.7-1.6-1.5-1.6c-0.8,0-1.5,0.7-1.5,1.6c0,0.8,0.7,1.6,1.5,1.6C184,76.8,184.7,76,184.7,75.2z"
   id="path184" />
			<path
   fill="#1295D3"
   d="M186,76.5l0.3-0.4c0.3,0.3,0.7,0.6,1.3,0.6c0.6,0,0.9-0.3,0.9-0.7c0-0.4-0.4-0.6-1-0.7     c-0.8-0.1-1.3-0.4-1.3-1.1c0-0.6,0.6-1.1,1.3-1.1c0.6,0,1,0.2,1.3,0.6l-0.3,0.3c-0.3-0.3-0.7-0.5-1.1-0.5c-0.5,0-0.8,0.3-0.8,0.7     c0,0.4,0.4,0.5,1,0.7c0.7,0.2,1.3,0.4,1.3,1.1c0,0.6-0.5,1.1-1.3,1.1C186.9,77.2,186.4,76.9,186,76.5z"
   id="path186" />
		</g>
	</g>
	<path
   fill="#1295D3"
   d="M197.1,55.2h-23.6c-1.2,0-2.1,0.9-2.1,2.1v23.6c0,1.2,0.9,2.1,2.1,2.1h23.6c1.2,0,2.1-0.9,2.1-2.1V57.3   C199.2,56.1,198.2,55.2,197.1,55.2z M197.1,82.2h-23.6c-0.8,0-1.4-0.6-1.4-1.4V57.3c0-0.8,0.6-1.4,1.4-1.4h23.6   c0.8,0,1.4,0.6,1.4,1.4v11.4h-24.7v0.7h24.7v11.4C198.5,81.6,197.8,82.2,197.1,82.2z"
   id="path192" />
</g>
<g
   id="g216">
	<g
   id="g204">
		<g
   id="g202">
			<path
   fill="#FFFFFF"
   d="M222.2,49.6H220l-0.4,0.9h-0.5l1.7-3.8h0.5l1.7,3.8h-0.5L222.2,49.6z M222,49.2l-0.9-2l-0.9,2H222z"
   id="path196" />
			<path
   fill="#FFFFFF"
   d="M224,46.6h1.6c0.8,0,1.4,0.5,1.4,1.2c0,0.7-0.6,1.2-1.4,1.2h-1.1v1.4H224V46.6z M225.5,48.7     c0.6,0,1.1-0.3,1.1-0.8c0-0.5-0.4-0.8-1.1-0.8h-1.1v1.6H225.5z"
   id="path198" />
			<path
   fill="#FFFFFF"
   d="M227.9,46.6h1.6c0.8,0,1.4,0.5,1.4,1.2c0,0.7-0.6,1.2-1.4,1.2h-1.1v1.4h-0.4V46.6z M229.4,48.7     c0.6,0,1.1-0.3,1.1-0.8c0-0.5-0.4-0.8-1.1-0.8h-1.1v1.6H229.4z"
   id="path200" />
		</g>
	</g>
	<g
   id="g212">
		<g
   id="g210">
			<path
   fill="#FFFFFF"
   d="M221.2,61.3c0-1.1,0.9-2,2-2s2,0.9,2,2c0,1.1-0.9,2-2,2C222.1,63.2,221.2,62.3,221.2,61.3z M224.7,61.3     c0-0.8-0.7-1.6-1.5-1.6c-0.8,0-1.5,0.7-1.5,1.6c0,0.8,0.7,1.6,1.5,1.6C224,62.9,224.7,62.1,224.7,61.3z"
   id="path206" />
			<path
   fill="#FFFFFF"
   d="M226,62.6l0.3-0.4c0.3,0.3,0.7,0.6,1.3,0.6c0.6,0,0.9-0.3,0.9-0.7c0-0.4-0.4-0.6-1-0.7     c-0.8-0.1-1.3-0.4-1.3-1.1c0-0.6,0.6-1.1,1.3-1.1c0.6,0,1,0.2,1.3,0.6l-0.3,0.3c-0.3-0.3-0.7-0.5-1.1-0.5c-0.5,0-0.8,0.3-0.8,0.7     c0,0.4,0.4,0.5,1,0.7c0.7,0.2,1.3,0.4,1.3,1.1c0,0.6-0.5,1.1-1.3,1.1C226.9,63.2,226.4,63,226,62.6z"
   id="path208" />
		</g>
	</g>
	<path
   fill="#FFFFFF"
   d="M237,41.2h-23.6c-1.2,0-2.1,0.9-2.1,2.1v23.6c0,1.2,0.9,2.1,2.1,2.1H237c1.2,0,2.1-0.9,2.1-2.1V43.4   C239.2,42.2,238.2,41.2,237,41.2z M237,68.3h-23.6c-0.8,0-1.4-0.6-1.4-1.4V43.4c0-0.8,0.6-1.4,1.4-1.4H237c0.8,0,1.4,0.6,1.4,1.4   v11.4h-24.7v0.7h24.7v11.4C238.5,67.7,237.8,68.3,237,68.3z"
   id="path214" />
</g>
<g
   id="g238">
	<g
   id="g226">
		<g
   id="g224">
			<path
   fill="#FFFFFF"
   d="M261.4,50.3h-2.1l-0.4,0.9h-0.5l1.7-3.8h0.5l1.7,3.8h-0.5L261.4,50.3z M261.3,49.9l-0.9-2l-0.9,2H261.3z"
   id="path218" />
			<path
   fill="#FFFFFF"
   d="M263.3,47.3h1.6c0.8,0,1.4,0.5,1.4,1.2c0,0.7-0.6,1.2-1.4,1.2h-1.1v1.4h-0.4V47.3z M264.7,49.4     c0.6,0,1.1-0.3,1.1-0.8c0-0.5-0.4-0.8-1.1-0.8h-1.1v1.6H264.7z"
   id="path220" />
			<path
   fill="#FFFFFF"
   d="M267.2,47.3h1.6c0.8,0,1.4,0.5,1.4,1.2c0,0.7-0.6,1.2-1.4,1.2h-1.1v1.4h-0.4V47.3z M268.6,49.4     c0.6,0,1.1-0.3,1.1-0.8c0-0.5-0.4-0.8-1.1-0.8h-1.1v1.6H268.6z"
   id="path222" />
		</g>
	</g>
	<g
   id="g234">
		<g
   id="g232">
			<path
   fill="#FFFFFF"
   d="M260.5,62c0-1.1,0.9-2,2-2s2,0.9,2,2c0,1.1-0.9,2-2,2C261.4,64,260.5,63.1,260.5,62z M263.9,62     c0-0.8-0.7-1.6-1.5-1.6s-1.5,0.7-1.5,1.6c0,0.8,0.7,1.6,1.5,1.6S263.9,62.9,263.9,62z"
   id="path228" />
			<path
   fill="#FFFFFF"
   d="M265.3,63.4l0.3-0.4c0.3,0.3,0.7,0.6,1.3,0.6c0.6,0,0.9-0.3,0.9-0.7c0-0.4-0.4-0.6-1-0.7     c-0.8-0.1-1.3-0.4-1.3-1.1c0-0.6,0.6-1.1,1.3-1.1c0.6,0,1,0.2,1.3,0.6l-0.3,0.3c-0.3-0.3-0.7-0.5-1.1-0.5c-0.5,0-0.8,0.3-0.8,0.7     c0,0.4,0.4,0.5,1,0.7c0.7,0.2,1.3,0.4,1.3,1.1c0,0.6-0.5,1.1-1.3,1.1C266.2,64,265.7,63.7,265.3,63.4z"
   id="path230" />
		</g>
	</g>
	<path
   fill="#FFFFFF"
   d="M276.3,42h-23.6c-1.2,0-2.1,0.9-2.1,2.1v23.6c0,1.2,0.9,2.1,2.1,2.1h23.6c1.2,0,2.1-0.9,2.1-2.1V44.1   C278.4,42.9,277.5,42,276.3,42z M276.3,69h-23.6c-0.8,0-1.4-0.6-1.4-1.4V44.1c0-0.8,0.6-1.4,1.4-1.4h23.6c0.8,0,1.4,0.6,1.4,1.4   v11.4H253v0.7h24.7v11.4C277.7,68.4,277.1,69,276.3,69z"
   id="path236" />
</g>
<g
   id="g260">
	<g
   id="g248">
		<g
   id="g246">
			<path
   fill="#FFFFFF"
   d="M333.7,50.3h-2.1l-0.4,0.9h-0.5l1.7-3.8h0.5l1.7,3.8h-0.5L333.7,50.3z M333.5,49.9l-0.9-2l-0.9,2H333.5z"
   id="path240" />
			<path
   fill="#FFFFFF"
   d="M335.5,47.3h1.6c0.8,0,1.4,0.5,1.4,1.2c0,0.7-0.6,1.2-1.4,1.2h-1.1v1.4h-0.4V47.3z M336.9,49.4     c0.6,0,1.1-0.3,1.1-0.8c0-0.5-0.4-0.8-1.1-0.8h-1.1v1.6H336.9z"
   id="path242" />
			<path
   fill="#FFFFFF"
   d="M339.4,47.3h1.6c0.8,0,1.4,0.5,1.4,1.2c0,0.7-0.6,1.2-1.4,1.2h-1.1v1.4h-0.4V47.3z M340.9,49.4     c0.6,0,1.1-0.3,1.1-0.8c0-0.5-0.4-0.8-1.1-0.8h-1.1v1.6H340.9z"
   id="path244" />
		</g>
	</g>
	<g
   id="g256">
		<g
   id="g254">
			<path
   fill="#FFFFFF"
   d="M332.7,62c0-1.1,0.9-2,2-2s2,0.9,2,2c0,1.1-0.9,2-2,2C333.6,64,332.7,63.1,332.7,62z M336.2,62     c0-0.8-0.7-1.6-1.5-1.6s-1.5,0.7-1.5,1.6c0,0.8,0.7,1.6,1.5,1.6S336.2,62.9,336.2,62z"
   id="path250" />
			<path
   fill="#FFFFFF"
   d="M337.5,63.4l0.3-0.4c0.3,0.3,0.7,0.6,1.3,0.6c0.6,0,0.9-0.3,0.9-0.7c0-0.4-0.4-0.6-1-0.7     c-0.8-0.1-1.3-0.4-1.3-1.1c0-0.6,0.6-1.1,1.3-1.1c0.6,0,1,0.2,1.3,0.6l-0.3,0.3c-0.3-0.3-0.7-0.5-1.1-0.5c-0.5,0-0.8,0.3-0.8,0.7     c0,0.4,0.4,0.5,1,0.7c0.7,0.2,1.3,0.4,1.3,1.1c0,0.6-0.5,1.1-1.3,1.1C338.4,64,337.9,63.7,337.5,63.4z"
   id="path252" />
		</g>
	</g>
	<path
   fill="#FFFFFF"
   d="M348.5,42H325c-1.2,0-2.1,0.9-2.1,2.1v23.6c0,1.2,0.9,2.1,2.1,2.1h23.6c1.2,0,2.1-0.9,2.1-2.1V44.1   C350.7,42.9,349.7,42,348.5,42z M348.5,69H325c-0.8,0-1.4-0.6-1.4-1.4V44.1c0-0.8,0.6-1.4,1.4-1.4h23.6c0.8,0,1.4,0.6,1.4,1.4v11.4   h-24.7v0.7h24.7v11.4C349.9,68.4,349.3,69,348.5,69z"
   id="path258" />
</g>
<g
   id="g282">
	<g
   id="g270">
		<g
   id="g268">
			<path
   fill="#1295D3"
   d="M373.3,64.2h-2.1l-0.4,0.9h-0.5l1.7-3.8h0.5l1.7,3.8h-0.5L373.3,64.2z M373.2,63.8l-0.9-2l-0.9,2H373.2z"
   id="path262" />
			<path
   fill="#1295D3"
   d="M375.2,61.3h1.6c0.8,0,1.4,0.5,1.4,1.2c0,0.7-0.6,1.2-1.4,1.2h-1.1v1.4h-0.4V61.3z M376.6,63.3     c0.6,0,1.1-0.3,1.1-0.8c0-0.5-0.4-0.8-1.1-0.8h-1.1v1.6H376.6z"
   id="path264" />
			<path
   fill="#1295D3"
   d="M379.1,61.3h1.6c0.8,0,1.4,0.5,1.4,1.2c0,0.7-0.6,1.2-1.4,1.2h-1.1v1.4h-0.4V61.3z M380.5,63.3     c0.6,0,1.1-0.3,1.1-0.8c0-0.5-0.4-0.8-1.1-0.8h-1.1v1.6H380.5z"
   id="path266" />
		</g>
	</g>
	<g
   id="g278">
		<g
   id="g276">
			<path
   fill="#1295D3"
   d="M372.4,75.9c0-1.1,0.9-2,2-2s2,0.9,2,2c0,1.1-0.9,2-2,2C373.3,77.9,372.4,77,372.4,75.9z M375.8,75.9     c0-0.8-0.7-1.6-1.5-1.6c-0.8,0-1.5,0.7-1.5,1.6c0,0.8,0.7,1.6,1.5,1.6S375.8,76.8,375.8,75.9z"
   id="path272" />
			<path
   fill="#1295D3"
   d="M377.2,77.3l0.3-0.4c0.3,0.3,0.7,0.6,1.3,0.6c0.6,0,0.9-0.3,0.9-0.7c0-0.4-0.4-0.6-1-0.7     c-0.8-0.1-1.3-0.4-1.3-1.1c0-0.6,0.6-1.1,1.3-1.1c0.6,0,1,0.2,1.3,0.6l-0.3,0.3c-0.3-0.3-0.7-0.5-1.1-0.5c-0.5,0-0.8,0.3-0.8,0.7     c0,0.4,0.4,0.5,1,0.7c0.7,0.2,1.3,0.4,1.3,1.1c0,0.6-0.5,1.1-1.3,1.1C378.1,77.9,377.6,77.7,377.2,77.3z"
   id="path274" />
		</g>
	</g>
	<path
   fill="#1295D3"
   d="M388.2,55.9h-23.6c-1.2,0-2.1,0.9-2.1,2.1v23.6c0,1.2,0.9,2.1,2.1,2.1h23.6c1.2,0,2.1-0.9,2.1-2.1V58   C390.4,56.9,389.4,55.9,388.2,55.9z M388.2,83h-23.6c-0.8,0-1.4-0.6-1.4-1.4V58c0-0.8,0.6-1.4,1.4-1.4h23.6c0.8,0,1.4,0.6,1.4,1.4   v11.4h-24.7v0.7h24.7v11.4C389.6,82.3,389,83,388.2,83z"
   id="path280" />
</g>
<g
   id="g304">
	<g
   id="g292">
		<g
   id="g290">
			<path
   fill="#1295D3"
   d="M412.6,64.2h-2.1l-0.4,0.9h-0.5l1.7-3.8h0.5l1.7,3.8H413L412.6,64.2z M412.4,63.8l-0.9-2l-0.9,2H412.4z"
   id="path284" />
			<path
   fill="#1295D3"
   d="M414.4,61.3h1.6c0.8,0,1.4,0.5,1.4,1.2c0,0.7-0.6,1.2-1.4,1.2h-1.1v1.4h-0.4V61.3z M415.9,63.3     c0.6,0,1.1-0.3,1.1-0.8c0-0.5-0.4-0.8-1.1-0.8h-1.1v1.6H415.9z"
   id="path286" />
			<path
   fill="#1295D3"
   d="M418.3,61.3h1.6c0.8,0,1.4,0.5,1.4,1.2c0,0.7-0.6,1.2-1.4,1.2h-1.1v1.4h-0.4V61.3z M419.8,63.3     c0.6,0,1.1-0.3,1.1-0.8c0-0.5-0.4-0.8-1.1-0.8h-1.1v1.6H419.8z"
   id="path288" />
		</g>
	</g>
	<g
   id="g300">
		<g
   id="g298">
			<path
   fill="#1295D3"
   d="M411.6,75.9c0-1.1,0.9-2,2-2s2,0.9,2,2c0,1.1-0.9,2-2,2C412.6,77.9,411.6,77,411.6,75.9z M415.1,75.9     c0-0.8-0.7-1.6-1.5-1.6s-1.5,0.7-1.5,1.6c0,0.8,0.7,1.6,1.5,1.6S415.1,76.8,415.1,75.9z"
   id="path294" />
			<path
   fill="#1295D3"
   d="M416.4,77.3l0.3-0.4c0.3,0.3,0.7,0.6,1.3,0.6c0.6,0,0.9-0.3,0.9-0.7c0-0.4-0.4-0.6-1-0.7     c-0.8-0.1-1.3-0.4-1.3-1.1c0-0.6,0.6-1.1,1.3-1.1c0.6,0,1,0.2,1.3,0.6l-0.3,0.3c-0.3-0.3-0.7-0.5-1.1-0.5c-0.5,0-0.8,0.3-0.8,0.7     c0,0.4,0.4,0.5,1,0.7c0.7,0.2,1.3,0.4,1.3,1.1c0,0.6-0.5,1.1-1.3,1.1C417.3,77.9,416.8,77.7,416.4,77.3z"
   id="path296" />
		</g>
	</g>
	<path
   fill="#1295D3"
   d="M427.5,55.9h-23.6c-1.2,0-2.1,0.9-2.1,2.1v23.6c0,1.2,0.9,2.1,2.1,2.1h23.6c1.2,0,2.1-0.9,2.1-2.1V58   C429.6,56.9,428.6,55.9,427.5,55.9z M427.5,83h-23.6c-0.8,0-1.4-0.6-1.4-1.4V58c0-0.8,0.6-1.4,1.4-1.4h23.6c0.8,0,1.4,0.6,1.4,1.4   v11.4h-24.7v0.7h24.7v11.4C428.9,82.3,428.2,83,427.5,83z"
   id="path302" />
</g>
<g
   id="g326">
	<g
   id="g314">
		<g
   id="g312">
			<path
   fill="#FFFFFF"
   d="M111.7,50.3h-2.1l-0.4,0.9h-0.5l1.7-3.8h0.5l1.7,3.8h-0.5L111.7,50.3z M111.5,49.9l-0.9-2l-0.9,2H111.5z"
   id="path306" />
			<path
   fill="#FFFFFF"
   d="M113.5,47.3h1.6c0.8,0,1.4,0.5,1.4,1.2c0,0.7-0.6,1.2-1.4,1.2H114v1.4h-0.4V47.3z M115,49.4     c0.6,0,1.1-0.3,1.1-0.8c0-0.5-0.4-0.8-1.1-0.8h-1.1v1.6H115z"
   id="path308" />
			<path
   fill="#FFFFFF"
   d="M117.5,47.3h1.6c0.8,0,1.4,0.5,1.4,1.2c0,0.7-0.6,1.2-1.4,1.2h-1.1v1.4h-0.4V47.3z M118.9,49.4     c0.6,0,1.1-0.3,1.1-0.8c0-0.5-0.4-0.8-1.1-0.8h-1.1v1.6H118.9z"
   id="path310" />
		</g>
	</g>
	<g
   id="g322">
		<g
   id="g320">
			<path
   fill="#FFFFFF"
   d="M110.8,62c0-1.1,0.9-2,2-2s2,0.9,2,2c0,1.1-0.9,2-2,2C111.7,64,110.8,63.1,110.8,62z M114.2,62     c0-0.8-0.7-1.6-1.5-1.6s-1.5,0.7-1.5,1.6c0,0.8,0.7,1.6,1.5,1.6S114.2,62.9,114.2,62z"
   id="path316" />
			<path
   fill="#FFFFFF"
   d="M115.6,63.4l0.3-0.4c0.3,0.3,0.7,0.6,1.3,0.6c0.6,0,0.9-0.3,0.9-0.7c0-0.4-0.4-0.6-1-0.7     c-0.8-0.1-1.3-0.4-1.3-1.1c0-0.6,0.6-1.1,1.3-1.1c0.6,0,1,0.2,1.3,0.6l-0.3,0.3c-0.3-0.3-0.7-0.5-1.1-0.5c-0.5,0-0.8,0.3-0.8,0.7     c0,0.4,0.4,0.5,1,0.7c0.7,0.2,1.3,0.4,1.3,1.1c0,0.6-0.5,1.1-1.3,1.1C116.4,64,115.9,63.7,115.6,63.4z"
   id="path318" />
		</g>
	</g>
	<path
   fill="#FFFFFF"
   d="M126.6,42H103c-1.2,0-2.1,0.9-2.1,2.1v23.6c0,1.2,0.9,2.1,2.1,2.1h23.6c1.2,0,2.1-0.9,2.1-2.1V44.1   C128.7,42.9,127.8,42,126.6,42z M126.6,69H103c-0.8,0-1.4-0.6-1.4-1.4V44.1c0-0.8,0.6-1.4,1.4-1.4h23.6c0.8,0,1.4,0.6,1.4,1.4v11.4   h-24.7v0.7H128v11.4C128,68.4,127.3,69,126.6,69z"
   id="path324" />
</g>
<g
   id="g336">
	<g
   id="g334">
		<line
   fill="none"
   stroke="#000000"
   stroke-width="2"
   stroke-miterlimit="10"
   x1="225"
   y1="16"
   x2="225"
   y2="29.3"
   id="line328" />
		<g
   id="g332">
			<polygon
   points="220,27.8 225,36.4 230,27.8    "
   id="polygon330" />
		</g>
	</g>
</g>
<g
   id="g346">
	<g
   id="g344">
		<line
   fill="none"
   stroke="#000000"
   stroke-width="2"
   stroke-miterlimit="10"
   x1="264.5"
   y1="16"
   x2="264.5"
   y2="29.3"
   id="line338" />
		<g
   id="g342">
			<polygon
   points="259.5,27.8 264.5,36.4 269.5,27.8    "
   id="polygon340" />
		</g>
	</g>
</g>
<polygon
   fill="#811427"
   points="94.9,180.6 87.9,173.6 75.1,186.4 62.3,173.6 55.3,180.6 68,193.4 55.3,206.3 62.3,213.3   75.1,200.5 87.9,213.3 94.9,206.3 82.2,193.4 "
   id="polygon348" />
</svg>
