<?xml version="1.0" encoding="UTF-8" standalone="no"?>
<svg
   xmlns:dc="http://purl.org/dc/elements/1.1/"
   xmlns:cc="http://creativecommons.org/ns#"
   xmlns:rdf="http://www.w3.org/1999/02/22-rdf-syntax-ns#"
   xmlns:svg="http://www.w3.org/2000/svg"
   xmlns="http://www.w3.org/2000/svg"
   xmlns:sodipodi="http://sodipodi.sourceforge.net/DTD/sodipodi-0.dtd"
   xmlns:inkscape="http://www.inkscape.org/namespaces/inkscape"
   inkscape:version="1.0 (4035a4fb49, 2020-05-01)"
   sodipodi:docname="vSphere-vMotion.svg"
   xml:space="preserve"
   enable-background="new 0 0 441.9 171.9"
   viewBox="0 0 441.9 171.9"
   y="0px"
   x="0px"
   id="Layer_1"
   version="1.1"><metadata
   id="metadata115"><rdf:RDF><cc:Work
       rdf:about=""><dc:format>image/svg+xml</dc:format><dc:type
         rdf:resource="http://purl.org/dc/dcmitype/StillImage" /><dc:title /></cc:Work></rdf:RDF></metadata><defs
   id="defs113" /><sodipodi:namedview
   inkscape:current-layer="Layer_1"
   inkscape:window-maximized="1"
   inkscape:window-y="-11"
   inkscape:window-x="2869"
   inkscape:cy="85.949997"
   inkscape:cx="220.95"
   inkscape:zoom="2.3738403"
   showgrid="false"
   id="namedview111"
   inkscape:window-height="1442"
   inkscape:window-width="1920"
   inkscape:pageshadow="2"
   inkscape:pageopacity="0"
   guidetolerance="10"
   gridtolerance="10"
   objecttolerance="10"
   borderopacity="1"
   bordercolor="#666666"
   pagecolor="#ffffff"
   inkscape:document-rotation="0" />
<rect
   id="rect2"
   height="171.9"
   width="441.9"
   fill="#FFFFFF" />
<rect
   id="rect4"
   height="163.4"
   width="190.8"
   fill="#686B70"
   y="4.3"
   x="4.1" />
<rect
   id="rect6"
   height="128"
   width="175.4"
   fill="#ECECEB"
   y="11.4"
   x="11.3" />
<rect
   id="rect8"
   height="24.2"
   width="175.4"
   fill="#218FCF"
   y="112.6"
   x="11.3" />
<text
   id="text10"
   font-size="12px"
   font-family="Metropolis-SemiBold"
   fill="#ffffff"
   x="81.213303"
   y="128.0043">ESXi</text>
<text
   id="text12"
   font-size="12px"
   font-family="'Metropolis-SemiBold'"
   fill="#FFFFFF"
   transform="matrix(1 0 0 1 70.0008 157.1252)">Hardware</text>
<rect
   id="rect14"
   height="56.3"
   width="57.3"
   fill="#686B70"
   y="25.8"
   x="21" />
<g
   id="g36">
	<g
   id="g24">
		<g
   id="g22">
			<path
   id="path16"
   d="M44.5,44.7H41l-0.6,1.5h-0.8l2.8-6.4h0.8l2.8,6.4h-0.8L44.5,44.7z M44.2,44l-1.5-3.3L41.3,44H44.2z"
   fill="#FFFFFF" />
			<path
   id="path18"
   d="M47.5,39.8h2.6c1.3,0,2.3,0.8,2.3,2c0,1.2-1,2-2.3,2h-1.8v2.3h-0.7L47.5,39.8z M50,43.2     c1,0,1.7-0.5,1.7-1.4c0-0.8-0.7-1.4-1.7-1.4h-1.7v2.7H50z"
   fill="#FFFFFF" />
			<path
   id="path20"
   d="M54,39.8h2.6c1.3,0,2.3,0.8,2.3,2c0,1.2-1,2-2.3,2h-1.8v2.3H54V39.8z M56.5,43.2c1,0,1.7-0.5,1.7-1.4     c0-0.8-0.7-1.4-1.7-1.4h-1.7v2.7H56.5z"
   fill="#FFFFFF" />
		</g>
	</g>
	<g
   id="g32">
		<g
   id="g30">
			<path
   id="path26"
   d="M42.9,64.1c0-1.8,1.5-3.3,3.3-3.3s3.3,1.5,3.3,3.3c0,1.8-1.5,3.3-3.3,3.3C44.4,67.4,42.9,65.9,42.9,64.1z      M48.6,64.1c0-1.4-1.2-2.6-2.5-2.6c-1.4,0-2.5,1.2-2.5,2.6c0,1.4,1.2,2.6,2.5,2.6S48.6,65.5,48.6,64.1z"
   fill="#FFFFFF" />
			<path
   id="path28"
   d="M50.9,66.4l0.4-0.6c0.5,0.5,1.2,0.9,2.1,0.9c1,0,1.5-0.5,1.5-1.1c0-0.7-0.6-0.9-1.7-1.2     c-1.3-0.2-2.1-0.6-2.1-1.7c0-1,0.9-1.8,2.1-1.8c0.9,0,1.6,0.4,2.2,0.9l-0.5,0.5c-0.5-0.5-1.2-0.8-1.8-0.8c-0.8,0-1.4,0.5-1.4,1.1     c0,0.6,0.6,0.9,1.7,1.2c1.2,0.3,2.1,0.7,2.1,1.8c0,1-0.8,1.8-2.2,1.8C52.3,67.4,51.5,67,50.9,66.4z"
   fill="#FFFFFF" />
		</g>
	</g>
	<path
   id="path34"
   d="M69.2,30.9H30.1c-1.9,0-3.5,1.6-3.5,3.5v39.1c0,1.9,1.6,3.5,3.5,3.5h39.1c1.9,0,3.5-1.6,3.5-3.5V34.5   C72.7,32.5,71.1,30.9,69.2,30.9z M69.2,75.8H30.1c-1.3,0-2.3-1-2.3-2.3v-39c0-1.3,1-2.3,2.3-2.3h39.1c1.3,0,2.3,1,2.3,2.3v18.9   H30.6v1.2h40.9v18.9C71.5,74.8,70.4,75.8,69.2,75.8z"
   fill="#FFFFFF" />
</g>
<rect
   id="rect38"
   height="163.4"
   width="190.8"
   fill="#686B70"
   y="4.3"
   x="247" />
<rect
   id="rect40"
   height="128"
   width="175.4"
   fill="#ECECEB"
   y="11.4"
   x="254.1" />
<rect
   id="rect42"
   height="24.2"
   width="175.4"
   fill="#218FCF"
   y="112.6"
   x="254.1" />
<text
   id="text44"
   font-size="12px"
   font-family="Metropolis-SemiBold"
   fill="#ffffff"
   x="324.0705"
   y="128.0043">ESXi</text>
<text
   id="text46"
   font-size="12px"
   font-family="'Metropolis-SemiBold'"
   fill="#FFFFFF"
   transform="matrix(1 0 0 1 312.8579 157.1252)">Hardware</text>
<rect
   id="rect48"
   height="56.3"
   width="57.3"
   fill="#686B70"
   y="25.8"
   x="281.5" />
<g
   id="g70">
	<g
   id="g58">
		<g
   id="g56">
			<path
   id="path50"
   d="M305.1,44.7h-3.5l-0.6,1.5h-0.8l2.8-6.4h0.8l2.8,6.4h-0.8L305.1,44.7z M304.8,44l-1.5-3.3l-1.5,3.3H304.8     z"
   fill="#FFFFFF" />
			<path
   id="path52"
   d="M308.1,39.8h2.6c1.3,0,2.3,0.8,2.3,2c0,1.2-1,2-2.3,2h-1.8v2.3h-0.7V39.8z M310.5,43.2     c1,0,1.7-0.5,1.7-1.4c0-0.8-0.7-1.4-1.7-1.4h-1.7v2.7H310.5z"
   fill="#FFFFFF" />
			<path
   id="path54"
   d="M314.6,39.8h2.6c1.3,0,2.3,0.8,2.3,2c0,1.2-1,2-2.3,2h-1.8v2.3h-0.7V39.8z M317,43.2c1,0,1.7-0.5,1.7-1.4     c0-0.8-0.7-1.4-1.7-1.4h-1.7v2.7H317z"
   fill="#FFFFFF" />
		</g>
	</g>
	<g
   id="g66">
		<g
   id="g64">
			<path
   id="path60"
   d="M303.5,64.1c0-1.8,1.5-3.3,3.3-3.3c1.7,0,3.3,1.5,3.3,3.3c0,1.8-1.5,3.3-3.3,3.3     C305,67.4,303.5,65.9,303.5,64.1z M309.2,64.1c0-1.4-1.2-2.6-2.5-2.6s-2.5,1.2-2.5,2.6c0,1.4,1.2,2.6,2.5,2.6     C308.1,66.7,309.2,65.5,309.2,64.1z"
   fill="#FFFFFF" />
			<path
   id="path62"
   d="M311.4,66.4l0.4-0.6c0.5,0.5,1.2,0.9,2.1,0.9c1,0,1.5-0.5,1.5-1.1c0-0.7-0.6-0.9-1.7-1.2     c-1.3-0.2-2.1-0.6-2.1-1.7c0-1,0.9-1.8,2.1-1.8c0.9,0,1.6,0.4,2.2,0.9l-0.5,0.5c-0.5-0.5-1.2-0.8-1.8-0.8c-0.8,0-1.4,0.5-1.4,1.1     c0,0.6,0.6,0.9,1.7,1.2c1.2,0.3,2.1,0.7,2.1,1.8c0,1-0.8,1.8-2.2,1.8C312.9,67.4,312,67,311.4,66.4z"
   fill="#FFFFFF" />
		</g>
	</g>
	<path
   id="path68"
   d="M329.7,30.9h-39.1c-1.9,0-3.5,1.6-3.5,3.5v39.1c0,1.9,1.6,3.5,3.5,3.5h39.1c1.9,0,3.5-1.6,3.5-3.5V34.5   C333.2,32.5,331.6,30.9,329.7,30.9z M329.7,75.8h-39.1c-1.3,0-2.3-1-2.3-2.3v-39c0-1.3,1-2.3,2.3-2.3h39.1c1.3,0,2.3,1,2.3,2.3   v18.9h-40.9v1.2H332v18.9C332,74.8,331,75.8,329.7,75.8z"
   fill="#FFFFFF" />
</g>
<rect
   id="rect72"
   height="56.3"
   width="57.3"
   fill="#686B70"
   y="25.8"
   x="361.7" />
<g
   id="g94">
	<g
   id="g82">
		<g
   id="g80">
			<path
   id="path74"
   d="M385.2,44.7h-3.5l-0.6,1.5h-0.8l2.8-6.4h0.8l2.8,6.4h-0.8L385.2,44.7z M384.9,44l-1.5-3.3L382,44H384.9z"
   fill="#FFFFFF" />
			<path
   id="path76"
   d="M388.2,39.8h2.6c1.3,0,2.3,0.8,2.3,2c0,1.2-1,2-2.3,2h-1.8v2.3h-0.7V39.8z M390.6,43.2     c1,0,1.7-0.5,1.7-1.4c0-0.8-0.7-1.4-1.7-1.4h-1.7v2.7H390.6z"
   fill="#FFFFFF" />
			<path
   id="path78"
   d="M394.7,39.8h2.6c1.3,0,2.3,0.8,2.3,2c0,1.2-1,2-2.3,2h-1.8v2.3h-0.7V39.8z M397.1,43.2     c1,0,1.7-0.5,1.7-1.4c0-0.8-0.7-1.4-1.7-1.4h-1.7v2.7H397.1z"
   fill="#FFFFFF" />
		</g>
	</g>
	<g
   id="g90">
		<g
   id="g88">
			<path
   id="path84"
   d="M383.6,64.1c0-1.8,1.5-3.3,3.3-3.3s3.3,1.5,3.3,3.3c0,1.8-1.5,3.3-3.3,3.3     C385.1,67.4,383.6,65.9,383.6,64.1z M389.3,64.1c0-1.4-1.2-2.6-2.5-2.6s-2.5,1.2-2.5,2.6c0,1.4,1.2,2.6,2.5,2.6     S389.3,65.5,389.3,64.1z"
   fill="#FFFFFF" />
			<path
   id="path86"
   d="M391.5,66.4l0.4-0.6c0.5,0.5,1.2,0.9,2.1,0.9c1,0,1.5-0.5,1.5-1.1c0-0.7-0.6-0.9-1.7-1.2     c-1.3-0.2-2.1-0.6-2.1-1.7c0-1,0.9-1.8,2.1-1.8c0.9,0,1.6,0.4,2.2,0.9l-0.5,0.5c-0.5-0.5-1.2-0.8-1.8-0.8c-0.8,0-1.4,0.5-1.4,1.1     c0,0.6,0.6,0.9,1.7,1.2c1.2,0.3,2.1,0.7,2.1,1.8c0,1-0.8,1.8-2.2,1.8C393,67.4,392.2,67,391.5,66.4z"
   fill="#FFFFFF" />
		</g>
	</g>
	<path
   id="path92"
   d="M409.8,30.9h-39.1c-1.9,0-3.5,1.6-3.5,3.5v39.1c0,1.9,1.6,3.5,3.5,3.5h39.1c1.9,0,3.5-1.6,3.5-3.5V34.5   C413.4,32.5,411.8,30.9,409.8,30.9z M409.8,75.8h-39.1c-1.3,0-2.3-1-2.3-2.3v-39c0-1.3,1-2.3,2.3-2.3h39.1c1.3,0,2.3,1,2.3,2.3   v18.9h-40.9v1.2h40.9v18.9C412.2,74.8,411.1,75.8,409.8,75.8z"
   fill="#FFFFFF" />
</g>
<rect
   id="rect96"
   height="24.2"
   width="403.8"
   fill="#78BE43"
   y="85.3"
   x="18" />
<text
   y="100.7118"
   x="197.04213"
   id="text98"
   font-size="12px"
   font-family="Metropolis-SemiBold"
   fill="#ffffff">vMotion </text>
<g
   id="g108">
	<g
   id="g106">
		<line
   id="line100"
   y2="54"
   x2="269.8"
   y1="54"
   x1="82.8"
   stroke-miterlimit="10"
   stroke-width="2"
   stroke="#000000"
   fill="none" />
		<g
   id="g104">
			<polygon
   id="polygon102"
   points="268.3,59 276.9,54 268.3,49    " />
		</g>
	</g>
</g>
</svg>
